  0
SECTION
  2
HEADER
  9
$ACADVER
  1
AC1015
  9
$DWGCODEPAGE
  3
ANSI_1251
  9
$EXTMAX
 10
420.0
 20
297.0
 30
0.0
  9
$EXTMIN
 10
0.0
 20
0.0
 30
0.0
  9
$LIMMIN
 10
0.0
 20
0.0
  9
$LIMMAX
 10
420.0
 20
297.0
  9
$VIEWCTR
 10
210.0
 20
148.5
  9
$VIEWSIZE
 40
297.0
  9
$CLAYER
  8
0
  9
$LTSCALE
 40
23.1
  9
$CELTYPE
  6
BYLAYER
  9
$DIMSCALE
 40
1.0
  9
$DIMASZ
 40
3.0
  9
$DIMEXO
 40
2.625
  9
$DIMDLI
 40
15.96
  9
$DIMEXE
 40
7.56
  9
$DIMCEN
 40
3.78
  9
$DIMLFAC
 40
1.0
  9
$DIMBLK
  1
_FILLED
  9
$DIMTXT
 40
3.5
  9
$DIMTOL
 70
1
  9
$DIMLIM
 70
0
  9
$DIMTFAC
 40
1.0
  9
$DIMTP
 40
0.00001
  9
$DIMTM
 40
0.00001
  9
$PDMODE
 70
3
  9
$PDSIZE
 40
1.0
  9
$HANDSEED
  5
4C2
  9
$TILEMODE
 70
1
  9
$MEASUREMENT
 70
1
  9
$INSUNITS
 70
4
  0
ENDSEC
  0
SECTION
  2
CLASSES
  0
CLASS
  1
ACDBDICTIONARYWDFLT
  2
AcDbDictionaryWithDefault
  3
AutoCAD 2000
 90
0
280
0
281
0
  0
CLASS
  1
ACDBPLACEHOLDER
  2
AcDbPlaceHolder
  3
AutoCAD 2000
 90
0
280
0
281
0
  0
CLASS
  1
LAYOUT
  2
AcDbLayout
  3
AutoCAD 2000
 90
0
280
0
281
0
  0
ENDSEC
  0
SECTION
  2
TABLES
  0
TABLE
  2
VPORT
  5
8
100
AcDbSymbolTable
 70
2
  0
VPORT
  5
1F4
100
AcDbSymbolTableRecord
100
AcDbViewportTableRecord
  2
*ACTIVE
 70
0
 10
0.0
 20
0.0
 11
1.0
 21
1.0
 12
210.0
 22
148.5
 13
0.0
 23
0.0
 14
1.0
 24
1.0
 15
0.0
 25
0.0
 16
0.0
 26
0.0
 36
1.0
 17
0.0
 27
0.0
 37
0.0
 40
297.0
 41
1.4141414141
 42
50.0
 43
0.0
 44
0.0
 50
0.0
 51
0.0
 71
0
 72
100
 73
1
 74
1
 75
0
 76
0
 77
0
 78
0
  0
ENDTAB
  0
TABLE
  2
LTYPE
  5
5
100
AcDbSymbolTable
 70
6
  0
LTYPE
  5
14
100
AcDbSymbolTableRecord
100
AcDbLinetypeTableRecord
  2
BYBLOCK
 70
0
  3

 72
65
 73
0
 40
0.0
  0
LTYPE
  5
15
100
AcDbSymbolTableRecord
100
AcDbLinetypeTableRecord
  2
BYLAYER
 70
0
  3

 72
65
 73
0
 40
0.0
  0
LTYPE
  5
16
100
AcDbSymbolTableRecord
100
AcDbLinetypeTableRecord
  2
CONTINUOUS
 70
64
  3
Solid line
 72
65
 73
0
 40
0.0
  0
LTYPE
  5
1F5
100
AcDbSymbolTableRecord
100
AcDbLinetypeTableRecord
  2
CENTER
 70
64
  3
____ _ ____ _ ____ _ ____ _ ____ _ ____ _ ____
 72
65
 73
4
 40
0.6
 49
0.375
 74
0
 49
-0.075
 74
0
 49
0.075
 74
0
 49
-0.075
 74
0
  0
LTYPE
  5
1F6
100
AcDbSymbolTableRecord
100
AcDbLinetypeTableRecord
  2
HIDDEN
 70
64
  3
- - - - - - - - - - - - - - - - - - - -
 72
65
 73
2
 40
0.2
 49
0.1
 74
0
 49
-0.1
 74
0
  0
LTYPE
  5
1F7
100
AcDbSymbolTableRecord
100
AcDbLinetypeTableRecord
  2
PHANTOM
 70
64
  3
_____ _ _ _____ _ _ _____ _ _ _____
 72
65
 73
6
 40
0.8
 49
0.45
 74
0
 49
-0.05
 74
0
 49
0.1
 74
0
 49
-0.05
 74
0
 49
0.1
 74
0
 49
-0.05
 74
0
  0
LTYPE
  5
1F8
100
AcDbSymbolTableRecord
100
AcDbLinetypeTableRecord
  2
DOT
 70
64
  3
. . . . . . . . . . . . . . . . . . . .
 72
65
 73
2
 40
0.2
 49
0.1
 74
0
 49
-0.1
 74
0
  0
LTYPE
  5
1F9
100
AcDbSymbolTableRecord
100
AcDbLinetypeTableRecord
  2
DASHED
 70
64
  3
- - - - - - - - - - - - - - - - - - - -
 72
65
 73
2
 40
0.2
 49
0.1
 74
0
 49
-0.1
 74
0
  0
ENDTAB
  0
TABLE
  2
LAYER
  5
2
100
AcDbSymbolTable
 70
36
  0
LAYER
  5
10
100
AcDbSymbolTableRecord
100
AcDbLayerTableRecord
  2
0
 70
0
 62
7
  6
CONTINUOUS
370
-3
390
F
  0
LAYER
  5
1FA
100
AcDbSymbolTableRecord
100
AcDbLayerTableRecord
  2
DEFAULT_1
 70
0
 62
7
  6
CENTER
370
-3
390
F
  0
LAYER
  5
1FB
100
AcDbSymbolTableRecord
100
AcDbLayerTableRecord
  2
DEFAULT_2
 70
0
 62
8
  6
HIDDEN
370
-3
390
F
  0
LAYER
  5
1FC
100
AcDbSymbolTableRecord
100
AcDbLayerTableRecord
  2
DEFAULT_3
 70
0
 62
7
  6
PHANTOM
370
-3
390
F
  0
LAYER
  5
1FD
100
AcDbSymbolTableRecord
100
AcDbLayerTableRecord
  2
ALL_AXIS
 70
0
 62
7
  6
CONTINUOUS
370
-3
390
F
  0
LAYER
  5
1FE
100
AcDbSymbolTableRecord
100
AcDbLayerTableRecord
  2
ALL_CHAMFER
 70
0
 62
7
  6
CONTINUOUS
370
-3
390
F
  0
LAYER
  5
1FF
100
AcDbSymbolTableRecord
100
AcDbLayerTableRecord
  2
ALL_DIMENSIONS
 70
0
 62
7
  6
CONTINUOUS
370
-3
390
F
  0
LAYER
  5
200
100
AcDbSymbolTableRecord
100
AcDbLayerTableRecord
  2
ALL_GTOL
 70
0
 62
7
  6
CONTINUOUS
370
-3
390
F
  0
LAYER
  5
201
100
AcDbSymbolTableRecord
100
AcDbLayerTableRecord
  2
ALL_HOLE
 70
0
 62
7
  6
CONTINUOUS
370
-3
390
F
  0
LAYER
  5
202
100
AcDbSymbolTableRecord
100
AcDbLayerTableRecord
  2
ALL_PLANE
 70
0
 62
7
  6
CONTINUOUS
370
-3
390
F
  0
LAYER
  5
203
100
AcDbSymbolTableRecord
100
AcDbLayerTableRecord
  2
ALL_ROUND
 70
0
 62
7
  6
CONTINUOUS
370
-3
390
F
  0
LAYER
  5
204
100
AcDbSymbolTableRecord
100
AcDbLayerTableRecord
  2
ALL_SURF_FIN
 70
0
 62
7
  6
CONTINUOUS
370
-3
390
F
  0
LAYER
  5
205
100
AcDbSymbolTableRecord
100
AcDbLayerTableRecord
  2
XSEC_DATUMS
 70
0
 62
7
  6
CONTINUOUS
370
-3
390
F
  0
ENDTAB
  0
TABLE
  2
STYLE
  5
3
100
AcDbSymbolTable
 70
1
  0
STYLE
  5
11
100
AcDbSymbolTableRecord
100
AcDbTextStyleTableRecord
  2
STANDARD
 70
0
 40
0.0
 41
0.7
 50
0.0
 71
0
 42
0.2
  3
txt
  4

  0
STYLE
  5
206
100
AcDbSymbolTableRecord
100
AcDbTextStyleTableRecord
  2
TEXTSTYLE_1
 70
0
 40
0.0
 41
0.8
 50
0.0
 71
0
 42
0.2
  3
gdt
  4

  0
STYLE
  5
207
100
AcDbSymbolTableRecord
100
AcDbTextStyleTableRecord
  2
TEXTSTYLE_2
 70
0
 40
0.0
 41
0.8
 50
0.0
 71
0
 42
0.2
  3
txt
  4

  0
STYLE
  5
208
100
AcDbSymbolTableRecord
100
AcDbTextStyleTableRecord
  2
TEXTSTYLE_3
 70
0
 40
0.0
 41
0.5
 50
0.0
 71
0
 42
0.2
  3
txt
  4

  0
STYLE
  5
209
100
AcDbSymbolTableRecord
100
AcDbTextStyleTableRecord
  2
TEXTSTYLE_4
 70
0
 40
0.0
 41
0.6
 50
0.0
 71
0
 42
0.2
  3
txt
  4

  0
STYLE
  5
20A
100
AcDbSymbolTableRecord
100
AcDbTextStyleTableRecord
  2
TEXTSTYLE_5
 70
0
 40
0.0
 41
0.45
 50
0.0
 71
0
 42
0.2
  3
txt
  4

  0
ENDTAB
  0
TABLE
  2
VIEW
  5
6
100
AcDbSymbolTable
 70
0
  0
ENDTAB
  0
TABLE
  2
UCS
  5
7
100
AcDbSymbolTable
 70
0
  0
ENDTAB
  0
TABLE
  2
APPID
  5
9
100
AcDbSymbolTable
 70
1
  0
APPID
  5
20B
100
AcDbSymbolTableRecord
100
AcDbRegAppTableRecord
  2
ACAD
 70
0
  0
ENDTAB
  0
TABLE
  2
BLOCK_RECORD
  5
1
100
AcDbSymbolTable
 70
0
  0
BLOCK_RECORD
  5
20C
100
AcDbSymbolTableRecord
100
AcDbBlockTableRecord
  2
*Model_Space
  0
BLOCK_RECORD
  5
20D
100
AcDbSymbolTableRecord
100
AcDbBlockTableRecord
  2
*Paper_Space
  0
BLOCK_RECORD
  5
20E
100
AcDbSymbolTableRecord
100
AcDbBlockTableRecord
  2
_FILLED
  0
BLOCK_RECORD
  5
20F
100
AcDbSymbolTableRecord
100
AcDbBlockTableRecord
  2
*D0
  0
BLOCK_RECORD
  5
210
100
AcDbSymbolTableRecord
100
AcDbBlockTableRecord
  2
*D1
  0
BLOCK_RECORD
  5
211
100
AcDbSymbolTableRecord
100
AcDbBlockTableRecord
  2
*D2
  0
BLOCK_RECORD
  5
212
100
AcDbSymbolTableRecord
100
AcDbBlockTableRecord
  2
*D3
  0
BLOCK_RECORD
  5
213
100
AcDbSymbolTableRecord
100
AcDbBlockTableRecord
  2
*D4
  0
BLOCK_RECORD
  5
214
100
AcDbSymbolTableRecord
100
AcDbBlockTableRecord
  2
*D5
  0
BLOCK_RECORD
  5
215
100
AcDbSymbolTableRecord
100
AcDbBlockTableRecord
  2
SYM_0_BL0
  0
ENDTAB
  0
TABLE
  2
DIMSTYLE
  5
A
100
AcDbSymbolTable
 70
1
100
AcDbDimStyleTable
 71
0
  0
DIMSTYLE
105
216
100
AcDbSymbolTableRecord
100
AcDbDimStyleTableRecord
  2
STANDARD
 70
0
  3

  4

 40
1.0
 41
3.0
 42
0.0625
 43
0.38
 44
0.18
 45
0.0
 46
0.0
 47
0.00001
 48
0.00001
140
3.5
141
0.09
142
0.0
143
25.4
144
1.0
145
0.0
146
1.0
147
0.09
 71
1.0
 72
0.0
 73
0
 74
0
 75
0
 76
0
 77
1
 78
8
170
0
171
2
172
0
173
0
174
0
175
0
176
0
177
0
178
0
270
2
271
5
272
5
273
2
274
2
275
0
280
0
281
0
282
0
283
1
284
8
285
0
286
0
287
3
288
0
340
11
341
20E
342
20E
343
20E
344
20E
  0
DIMSTYLE
105
217
100
AcDbSymbolTableRecord
100
AcDbDimStyleTableRecord
  2
DIMSTYLE_1
 70
0
  3

  4

 40
1.0
 41
3.0
 42
0.0625
 43
0.38
 44
0.18
 45
0.0
 46
0.0
 47
0.2
 48
0.2
140
3.5
141
0.09
142
0.0
143
25.4
144
2.0
145
0.0
146
1.0
147
0.09
 71
0.0
 72
0.0
 73
0
 74
0
 75
0
 76
0
 77
1
 78
8
170
0
171
2
172
0
173
0
174
0
175
0
176
0
177
0
178
0
270
2
271
5
272
5
273
2
274
2
275
0
280
0
281
0
282
0
283
1
284
8
285
0
286
0
287
3
288
0
340
11
341
20E
342
20E
343
20E
344
20E
  0
DIMSTYLE
105
218
100
AcDbSymbolTableRecord
100
AcDbDimStyleTableRecord
  2
DIMSTYLE_2
 70
0
  3

  4

 40
1.0
 41
3.0
 42
0.0625
 43
0.38
 44
0.18
 45
0.0
 46
0.0
 47
0.5
 48
0.5
140
3.5
141
0.09
142
0.0
143
25.4
144
2.0
145
0.0
146
1.0
147
0.09
 71
0.0
 72
0.0
 73
0
 74
0
 75
0
 76
0
 77
1
 78
8
170
0
171
2
172
0
173
0
174
0
175
0
176
0
177
0
178
0
270
2
271
2
272
2
273
2
274
2
275
0
280
0
281
0
282
0
283
1
284
8
285
0
286
0
287
3
288
0
340
11
341
20E
342
20E
343
20E
344
20E
  0
DIMSTYLE
105
219
100
AcDbSymbolTableRecord
100
AcDbDimStyleTableRecord
  2
DIMSTYLE_3
 70
0
  3

  4

 40
1.0
 41
3.0
 42
0.0625
 43
0.38
 44
0.18
 45
0.0
 46
0.0
 47
0.3
 48
0.3
140
3.5
141
0.09
142
0.0
143
25.4
144
2.0
145
0.0
146
1.0
147
0.09
 71
0.0
 72
0.0
 73
0
 74
0
 75
0
 76
0
 77
1
 78
8
170
0
171
2
172
0
173
0
174
0
175
0
176
0
177
0
178
0
270
2
271
5
272
5
273
2
274
2
275
0
280
0
281
0
282
0
283
1
284
8
285
0
286
0
287
3
288
0
340
11
341
20E
342
20E
343
20E
344
20E
  0
DIMSTYLE
105
21A
100
AcDbSymbolTableRecord
100
AcDbDimStyleTableRecord
  2
DIMSTYLE_4
 70
0
  3

  4

 40
1.0
 41
3.0
 42
0.0625
 43
0.38
 44
0.18
 45
0.0
 46
0.0
 47
0.5
 48
0.5
140
3.5
141
0.09
142
0.0
143
25.4
144
2.0
145
0.0
146
1.0
147
0.09
 71
0.0
 72
0.0
 73
0
 74
0
 75
0
 76
0
 77
1
 78
8
170
0
171
2
172
0
173
0
174
0
175
0
176
0
177
0
178
0
270
2
271
5
272
5
273
2
274
2
275
0
280
0
281
0
282
0
283
1
284
8
285
0
286
0
287
3
288
0
340
11
341
20E
342
20E
343
20E
344
20E
  0
DIMSTYLE
105
21B
100
AcDbSymbolTableRecord
100
AcDbDimStyleTableRecord
  2
DIMSTYLE_5
 70
0
  3

  4

 40
1.0
 41
3.0
 42
0.0625
 43
0.38
 44
0.18
 45
0.0
 46
0.0
 47
0.1
 48
0.1
140
3.5
141
0.09
142
0.0
143
25.4
144
2.0
145
0.0
146
1.0
147
0.09
 71
0.0
 72
0.0
 73
0
 74
0
 75
0
 76
0
 77
1
 78
8
170
0
171
2
172
0
173
0
174
0
175
0
176
0
177
0
178
0
270
2
271
5
272
5
273
2
274
2
275
0
280
0
281
0
282
0
283
1
284
8
285
0
286
0
287
3
288
0
340
11
341
20E
342
20E
343
20E
344
20E
  0
ENDTAB
  0
ENDSEC
  0
SECTION
  2
BLOCKS
  0
BLOCK
  5
20
100
AcDbEntity
  8
0
100
AcDbBlockBegin
  2
*Model_Space
 70
0
 10
0.0
 20
0.0
 30
0.0
  3
*Model_Space
  1

  0
ENDBLK
  5
21
100
AcDbEntity
  8
0
100
AcDbBlockEnd
  0
BLOCK
  5
1C
100
AcDbEntity
  8
0
100
AcDbBlockBegin
  2
*Paper_Space
 70
0
 10
0.0
 20
0.0
 30
0.0
  3
*Paper_Space
  1

  0
ENDBLK
  5
1D
100
AcDbEntity
  8
0
100
AcDbBlockEnd
  0
BLOCK
  5
21C
100
AcDbEntity
  8
ALL_SURF_FIN
100
AcDbBlockBegin
 62
2
  6
CONTINUOUS
  2
SYM_0_BL0
 70
64
 10
398.1439967373
 20
279.9494910737
  3
SYM_0_BL0
  1

  0
LWPOLYLINE
  5
21D
100
AcDbEntity
  8
ALL_SURF_FIN
100
AcDbPolyline
 62
2
  6
CONTINUOUS
 90
2
 70
0
 43
0.25
 10
394.1428030761
 20
273.8633879467
 10
390.6532742615
 20
279.907429148
  0
LWPOLYLINE
  5
21E
100
AcDbEntity
  8
ALL_SURF_FIN
100
AcDbPolyline
 62
2
  6
CONTINUOUS
 90
2
 70
0
 43
0.25
 10
394.1428030761
 20
273.8633879467
 10
401.0789459371
 20
285.8771397907
  0
LWPOLYLINE
  5
21F
100
AcDbEntity
  8
ALL_SURF_FIN
100
AcDbPolyline
 62
2
  6
CONTINUOUS
 90
2
 70
0
 43
0.25
 10
406.1992851968
 20
273.6229089537
 10
403.8729326538
 20
277.6522697546
  0
LWPOLYLINE
  5
220
100
AcDbEntity
  8
ALL_SURF_FIN
100
AcDbPolyline
 62
2
  6
CONTINUOUS
 90
2
 70
0
 43
0.25
 10
406.1992851968
 20
273.6229089537
 10
410.8233804375
 20
281.6320768497
  0
LWPOLYLINE
  5
221
100
AcDbEntity
  8
ALL_SURF_FIN
100
AcDbPolyline
 62
2
  6
CONTINUOUS
 90
2
 70
0
 43
0.25
 10
403.7268491533
 20
279.8348299222
 42
0.4331635666
 10
403.6626255043
 20
273.6572743944
  0
LWPOLYLINE
  5
222
100
AcDbEntity
  8
ALL_SURF_FIN
100
AcDbPolyline
 62
2
  6
CONTINUOUS
 90
2
 70
0
 43
0.25
 10
410.6328479773
 20
273.5128877564
 42
0.3724585057
 10
410.5824320083
 20
279.6737505799
  0
LWPOLYLINE
  5
223
100
AcDbEntity
  8
ALL_SURF_FIN
100
AcDbPolyline
 62
2
  6
CONTINUOUS
 90
3
 70
0
 43
0.3333333333
 10
386.3148413086
 20
285.4176159668
 10
387.1899609375
 20
287.4176147461
 10
385.9146057129
 20
281.4176184082
  0
LWPOLYLINE
  5
224
100
AcDbEntity
  8
ALL_SURF_FIN
100
AcDbPolyline
 62
2
  6
CONTINUOUS
 90
2
 70
0
 43
0.3333333333
 10
385.4646130371
 20
281.4176184082
 10
386.3646240234
 20
281.4176184082
  0
LWPOLYLINE
  5
225
100
AcDbEntity
  8
ALL_SURF_FIN
100
AcDbPolyline
 62
2
  6
CONTINUOUS
 90
10
 70
0
 43
0.3333333333
 10
389.0023901367
 20
286.4176281738
 10
389.6649462891
 20
287.4176147461
 10
390.5649572754
 20
287.4176147461
 10
390.8023864746
 20
286.4176281738
 10
390.3772851562
 20
284.4176293945
 10
389.7147290039
 20
283.4176171875
 10
388.8147180176
 20
283.4176171875
 10
388.1521618652
 20
282.4176306152
 10
387.9396240234
 20
281.4176184082
 10
389.7396203613
 20
281.4176184082
  0
LWPOLYLINE
  5
226
100
AcDbEntity
  8
ALL_SURF_FIN
100
AcDbPolyline
 62
2
  6
CONTINUOUS
 90
6
 70
0
 43
0.3333333333
 10
391.7646130371
 20
281.4176184082
 10
391.5396166992
 20
281.4176184082
 10
391.6458984375
 20
281.9176245117
 10
391.8708947754
 20
281.9176245117
 10
391.7646130371
 20
281.4176184082
 10
391.3270532227
 20
280.4176318359
  0
LWPOLYLINE
  5
227
100
AcDbEntity
  8
ALL_SURF_FIN
100
AcDbPolyline
 62
2
  6
CONTINUOUS
 90
9
 70
0
 43
0.3333333333
 10
395.3521728516
 20
282.4176306152
 10
395.5896020508
 20
281.4176184082
 10
396.4896130371
 20
281.4176184082
 10
397.1521691895
 20
282.4176306152
 10
397.5772705078
 20
284.4176293945
 10
397.3398413086
 20
285.4176159668
 10
395.9898376465
 20
285.4176159668
 10
396.4149389648
 20
287.4176147461
 10
398.2149609375
 20
287.4176147461
  0
ENDBLK
  5
228
100
AcDbEntity
  8
0
  6
BYBLOCK
 62
0
100
AcDbBlockEnd
  0
BLOCK
  5
229
100
AcDbEntity
  8
0
100
AcDbBlockBegin
  2
_FILLED
 70
64
 10
0.0
 20
0.0
  3
_FILLED
  1

  0
SOLID
  5
22A
100
AcDbEntity
  8
0
  6
BYBLOCK
 62
0
100
AcDbTrace
 10
0.0
 20
0.0
 11
-1.0
 21
0.1666666667
 12
-1.0
 22
-0.1666666667
 13
-1.0
 23
-0.1666666667
  0
ENDBLK
  5
22B
100
AcDbEntity
  8
0
  6
BYBLOCK
 62
0
100
AcDbBlockEnd
  0
BLOCK
  5
22C
100
AcDbEntity
  8
ALL_DIMENSIONS
100
AcDbBlockBegin
 62
2
  6
CONTINUOUS
  2
*D0
 70
65
 10
0.0
 20
0.0
  3
*D0
  1

  0
LINE
  5
22D
100
AcDbEntity
  8
ALL_DIMENSIONS
100
AcDbLine
 62
2
  6
CONTINUOUS
 10
272.7253429118
 20
121.4813060264
 11
272.7253429118
 21
113.8352728564
  0
LINE
  5
22E
100
AcDbEntity
  8
ALL_DIMENSIONS
100
AcDbLine
 62
2
  6
CONTINUOUS
 10
278.7253429118
 20
121.4813060264
 11
278.7253429118
 21
113.8352728564
  0
LINE
  5
22F
100
AcDbEntity
  8
ALL_DIMENSIONS
100
AcDbLine
 62
2
  6
CONTINUOUS
 10
272.7253429118
 20
115.8352728564
 11
268.7253429118
 21
115.8352728564
  0
LINE
  5
230
100
AcDbEntity
  8
ALL_DIMENSIONS
100
AcDbLine
 62
2
  6
CONTINUOUS
 10
268.7253429118
 20
115.8352728564
 11
275.7253429118
 21
115.8352728564
  0
LINE
  5
231
100
AcDbEntity
  8
ALL_DIMENSIONS
100
AcDbLine
 62
2
  6
CONTINUOUS
 10
278.7253429118
 20
115.8352728564
 11
296.5335842448
 21
115.8352728564
  0
LINE
  5
232
100
AcDbEntity
  8
ALL_DIMENSIONS
100
AcDbLine
 62
2
  6
CONTINUOUS
 10
296.5335842448
 20
115.8352728564
 11
275.7253429118
 21
115.8352728564
  0
INSERT
  5
233
100
AcDbEntity
  8
ALL_DIMENSIONS
100
AcDbBlockReference
 62
2
  6
CONTINUOUS
  2
_FILLED
 10
272.7253429118
 20
115.8352728564
 41
3.0
 42
3.0
 43
3.0
  0
INSERT
  5
234
100
AcDbEntity
  8
ALL_DIMENSIONS
100
AcDbBlockReference
 62
2
  6
CONTINUOUS
  2
_FILLED
 10
278.7253429118
 20
115.8352728564
 41
3.0
 42
3.0
 43
3.0
 50
180.0
  0
ENDBLK
  5
235
100
AcDbEntity
  8
0
  6
BYBLOCK
 62
0
100
AcDbBlockEnd
  0
BLOCK
  5
236
100
AcDbEntity
  8
ALL_DIMENSIONS
100
AcDbBlockBegin
 62
2
  6
CONTINUOUS
  2
*D1
 70
65
 10
0.0
 20
0.0
  3
*D1
  1

  0
LINE
  5
237
100
AcDbEntity
  8
ALL_DIMENSIONS
100
AcDbLine
 62
2
  6
CONTINUOUS
 10
85.6432128738
 20
122.7604636961
 11
85.6432128738
 21
99.4813060264
  0
LINE
  5
238
100
AcDbEntity
  8
ALL_DIMENSIONS
100
AcDbLine
 62
2
  6
CONTINUOUS
 10
165.6432128738
 20
121.4619904137
 11
165.6432128738
 21
99.4813060264
  0
LINE
  5
239
100
AcDbEntity
  8
ALL_DIMENSIONS
100
AcDbLine
 62
2
  6
CONTINUOUS
 10
85.6432128738
 20
101.4813060264
 11
125.6432128738
 21
101.4813060264
  0
LINE
  5
23A
100
AcDbEntity
  8
ALL_DIMENSIONS
100
AcDbLine
 62
2
  6
CONTINUOUS
 10
165.6432128738
 20
101.4813060264
 11
125.6432128738
 21
101.4813060264
  0
INSERT
  5
23B
100
AcDbEntity
  8
ALL_DIMENSIONS
100
AcDbBlockReference
 62
2
  6
CONTINUOUS
  2
_FILLED
 10
85.6432128738
 20
101.4813060264
 41
3.0
 42
3.0
 43
3.0
 50
180.0
  0
INSERT
  5
23C
100
AcDbEntity
  8
ALL_DIMENSIONS
100
AcDbBlockReference
 62
2
  6
CONTINUOUS
  2
_FILLED
 10
165.6432128738
 20
101.4813060264
 41
3.0
 42
3.0
 43
3.0
  0
ENDBLK
  5
23D
100
AcDbEntity
  8
0
  6
BYBLOCK
 62
0
100
AcDbBlockEnd
  0
BLOCK
  5
23E
100
AcDbEntity
  8
ALL_DIMENSIONS
100
AcDbBlockBegin
 62
2
  6
CONTINUOUS
  2
*D2
 70
65
 10
0.0
 20
0.0
  3
*D2
  1

  0
LINE
  5
23F
100
AcDbEntity
  8
ALL_DIMENSIONS
100
AcDbLine
 62
2
  6
CONTINUOUS
 10
165.6432128738
 20
266.4813060264
 11
185.6432128738
 21
266.4813060264
  0
LINE
  5
240
100
AcDbEntity
  8
ALL_DIMENSIONS
100
AcDbLine
 62
2
  6
CONTINUOUS
 10
165.6432128738
 20
121.4813060264
 11
185.6432128738
 21
121.4813060264
  0
LINE
  5
241
100
AcDbEntity
  8
ALL_DIMENSIONS
100
AcDbLine
 62
2
  6
CONTINUOUS
 10
183.6432128738
 20
266.4813060264
 11
183.6432128738
 21
193.9813060264
  0
LINE
  5
242
100
AcDbEntity
  8
ALL_DIMENSIONS
100
AcDbLine
 62
2
  6
CONTINUOUS
 10
183.6432128738
 20
121.4813060264
 11
183.6432128738
 21
193.9813060264
  0
INSERT
  5
243
100
AcDbEntity
  8
ALL_DIMENSIONS
100
AcDbBlockReference
 62
2
  6
CONTINUOUS
  2
_FILLED
 10
183.6432128738
 20
266.4813060264
 41
3.0
 42
3.0
 43
3.0
 50
90.0
  0
INSERT
  5
244
100
AcDbEntity
  8
ALL_DIMENSIONS
100
AcDbBlockReference
 62
2
  6
CONTINUOUS
  2
_FILLED
 10
183.6432128738
 20
121.4813060264
 41
3.0
 42
3.0
 43
3.0
 50
270.0
  0
ENDBLK
  5
245
100
AcDbEntity
  8
0
  6
BYBLOCK
 62
0
100
AcDbBlockEnd
  0
BLOCK
  5
246
100
AcDbEntity
  8
ALL_DIMENSIONS
100
AcDbBlockBegin
 62
2
  6
CONTINUOUS
  2
*D3
 70
65
 10
0.0
 20
0.0
  3
*D3
  1

  0
LINE
  5
247
100
AcDbEntity
  8
ALL_DIMENSIONS
100
AcDbLine
 62
2
  6
CONTINUOUS
 10
98.1432128738
 20
143.8813060264
 11
98.1432128738
 21
109.4813060264
  0
LINE
  5
248
100
AcDbEntity
  8
ALL_DIMENSIONS
100
AcDbLine
 62
2
  6
CONTINUOUS
 10
153.1432128738
 20
143.8813060264
 11
153.1432128738
 21
109.4813060264
  0
LINE
  5
249
100
AcDbEntity
  8
ALL_DIMENSIONS
100
AcDbLine
 62
2
  6
CONTINUOUS
 10
98.1432128738
 20
111.4813060264
 11
125.6432128738
 21
111.4813060264
  0
LINE
  5
24A
100
AcDbEntity
  8
ALL_DIMENSIONS
100
AcDbLine
 62
2
  6
CONTINUOUS
 10
153.1432128738
 20
111.4813060264
 11
125.6432128738
 21
111.4813060264
  0
INSERT
  5
24B
100
AcDbEntity
  8
ALL_DIMENSIONS
100
AcDbBlockReference
 62
2
  6
CONTINUOUS
  2
_FILLED
 10
98.1432128738
 20
111.4813060264
 41
3.0
 42
3.0
 43
3.0
 50
180.0
  0
INSERT
  5
24C
100
AcDbEntity
  8
ALL_DIMENSIONS
100
AcDbBlockReference
 62
2
  6
CONTINUOUS
  2
_FILLED
 10
153.1432128738
 20
111.4813060264
 41
3.0
 42
3.0
 43
3.0
  0
ENDBLK
  5
24D
100
AcDbEntity
  8
0
  6
BYBLOCK
 62
0
100
AcDbBlockEnd
  0
BLOCK
  5
24E
100
AcDbEntity
  8
ALL_DIMENSIONS
100
AcDbBlockBegin
 62
2
  6
CONTINUOUS
  2
*D4
 70
65
 10
0.0
 20
0.0
  3
*D4
  1

  0
LINE
  5
24F
100
AcDbEntity
  8
ALL_DIMENSIONS
100
AcDbLine
 62
2
  6
CONTINUOUS
 10
145.7432128738
 20
136.4813060264
 11
177.6432128738
 21
136.4813060264
  0
LINE
  5
250
100
AcDbEntity
  8
ALL_DIMENSIONS
100
AcDbLine
 62
2
  6
CONTINUOUS
 10
145.7432128738
 20
251.4813060264
 11
166.9084994804
 21
251.4813060264
  0
LINE
  5
251
100
AcDbEntity
  8
ALL_DIMENSIONS
100
AcDbLine
 62
2
  6
CONTINUOUS
 10
175.9854856178
 20
251.4813060264
 11
177.6432128738
 21
251.4813060264
  0
LINE
  5
252
100
AcDbEntity
  8
ALL_DIMENSIONS
100
AcDbLine
 62
2
  6
CONTINUOUS
 10
175.6432128738
 20
136.4813060264
 11
175.6432128738
 21
193.9813060264
  0
LINE
  5
253
100
AcDbEntity
  8
ALL_DIMENSIONS
100
AcDbLine
 62
2
  6
CONTINUOUS
 10
175.6432128738
 20
251.4813060264
 11
175.6432128738
 21
193.9813060264
  0
INSERT
  5
254
100
AcDbEntity
  8
ALL_DIMENSIONS
100
AcDbBlockReference
 62
2
  6
CONTINUOUS
  2
_FILLED
 10
175.6432128738
 20
136.4813060264
 41
3.0
 42
3.0
 43
3.0
 50
270.0
  0
INSERT
  5
255
100
AcDbEntity
  8
ALL_DIMENSIONS
100
AcDbBlockReference
 62
2
  6
CONTINUOUS
  2
_FILLED
 10
175.6432128738
 20
251.4813060264
 41
3.0
 42
3.0
 43
3.0
 50
90.0
  0
ENDBLK
  5
256
100
AcDbEntity
  8
0
  6
BYBLOCK
 62
0
100
AcDbBlockEnd
  0
BLOCK
  5
257
100
AcDbEntity
  8
ALL_DIMENSIONS
100
AcDbBlockBegin
 62
2
  6
CONTINUOUS
  2
*D5
 70
65
 10
0.0
 20
0.0
  3
*D5
  1

  0
LINE
  5
258
100
AcDbEntity
  8
ALL_DIMENSIONS
100
AcDbLine
 62
2
  6
CONTINUOUS
 10
272.7253429118
 20
246.6563060264
 11
272.7253429118
 21
243.1792267589
  0
LINE
  5
259
100
AcDbEntity
  8
ALL_DIMENSIONS
100
AcDbLine
 62
2
  6
CONTINUOUS
 10
275.2253429118
 20
251.4813060264
 11
275.2253429118
 21
243.1792267589
  0
LINE
  5
25A
100
AcDbEntity
  8
ALL_DIMENSIONS
100
AcDbLine
 62
2
  6
CONTINUOUS
 10
272.7253429118
 20
245.1792267589
 11
263.4702152947
 21
245.1792267589
  0
LINE
  5
25B
100
AcDbEntity
  8
ALL_DIMENSIONS
100
AcDbLine
 62
2
  6
CONTINUOUS
 10
263.4702152947
 20
245.1792267589
 11
273.9753429118
 21
245.1792267589
  0
LINE
  5
25C
100
AcDbEntity
  8
ALL_DIMENSIONS
100
AcDbLine
 62
2
  6
CONTINUOUS
 10
275.2253429118
 20
245.1792267589
 11
279.2253429118
 21
245.1792267589
  0
LINE
  5
25D
100
AcDbEntity
  8
ALL_DIMENSIONS
100
AcDbLine
 62
2
  6
CONTINUOUS
 10
279.2253429118
 20
245.1792267589
 11
273.9753429118
 21
245.1792267589
  0
INSERT
  5
25E
100
AcDbEntity
  8
ALL_DIMENSIONS
100
AcDbBlockReference
 62
2
  6
CONTINUOUS
  2
_FILLED
 10
272.7253429118
 20
245.1792267589
 41
3.0
 42
3.0
 43
3.0
  0
INSERT
  5
25F
100
AcDbEntity
  8
ALL_DIMENSIONS
100
AcDbBlockReference
 62
2
  6
CONTINUOUS
  2
_FILLED
 10
275.2253429118
 20
245.1792267589
 41
3.0
 42
3.0
 43
3.0
 50
180.0
  0
ENDBLK
  5
260
100
AcDbEntity
  8
0
  6
BYBLOCK
 62
0
100
AcDbBlockEnd
  0
ENDSEC
  0
SECTION
  2
ENTITIES
  0
DIMENSION
  5
261
100
AcDbEntity
  8
ALL_DIMENSIONS
100
AcDbDimension
 62
2
  6
CONTINUOUS
  2
*D0
 10
278.7253429118
 20
115.8352728564
 11
291.6335842448
 21
116.7102728564
 70
160
 71
1
 42
12.0
  3
DIMSTYLE_1
100
AcDbAlignedDimension
 13
272.7253429118
 23
121.4813060264
 14
278.7253429118
 24
121.4813060264
100
AcDbRotatedDimension
  0
DIMENSION
  5
262
100
AcDbEntity
  8
ALL_DIMENSIONS
100
AcDbDimension
 62
2
  6
CONTINUOUS
  2
*D1
 10
165.6432128738
 20
101.4813060264
 11
121.9682128738
 21
102.3563060264
 70
160
 71
2
 42
160.0
  3
DIMSTYLE_2
100
AcDbAlignedDimension
 13
85.6432128738
 23
122.7604636961
 14
165.6432128738
 24
121.4619904137
100
AcDbRotatedDimension
  0
DIMENSION
  5
263
100
AcDbEntity
  8
ALL_DIMENSIONS
100
AcDbDimension
 62
2
  6
CONTINUOUS
  2
*D2
 10
183.6432128738
 20
121.4813060264
 11
182.7682128738
 21
190.3063060264
 70
160
 71
2
 42
290.0
  3
DIMSTYLE_2
100
AcDbAlignedDimension
 13
165.6432128738
 23
266.4813060264
 14
165.6432128738
 24
121.4813060264
 50
270.0
100
AcDbRotatedDimension
  0
DIMENSION
  5
264
100
AcDbEntity
  8
ALL_DIMENSIONS
100
AcDbDimension
 62
2
  6
CONTINUOUS
  2
*D3
 10
153.1432128738
 20
111.4813060264
 11
121.9682128738
 21
112.3563060264
 70
160
 71
2
 42
110.0
  3
DIMSTYLE_3
100
AcDbAlignedDimension
 13
98.1432128738
 23
143.8813060264
 14
153.1432128738
 24
143.8813060264
100
AcDbRotatedDimension
  0
DIMENSION
  5
265
100
AcDbEntity
  8
ALL_DIMENSIONS
100
AcDbDimension
 62
2
  6
CONTINUOUS
  2
*D4
 10
175.6432128738
 20
251.4813060264
 11
174.7682128738
 21
190.3063060264
 70
160
 71
2
 42
230.0
  3
DIMSTYLE_4
100
AcDbAlignedDimension
 13
145.7432128738
 23
136.4813060264
 14
145.7432128738
 24
251.4813060264
 50
90.0
100
AcDbRotatedDimension
  0
DIMENSION
  5
266
100
AcDbEntity
  8
ALL_DIMENSIONS
100
AcDbDimension
 62
2
  6
CONTINUOUS
  2
*D5
 10
275.2253429118
 20
245.1792267589
 11
263.4702152947
 21
246.0542267589
 70
160
 71
3
 42
5.0
  3
DIMSTYLE_5
100
AcDbAlignedDimension
 13
272.7253429118
 23
243.1792267589
 14
275.2253429118
 24
251.4813060264
100
AcDbRotatedDimension
  0
LINE
  5
267
100
AcDbEntity
  8
0
100
AcDbLine
 62
7
  6
CONTINUOUS
 10
9.0
 20
5.0
 11
9.0
 21
150.0
  0
LINE
  5
268
100
AcDbEntity
  8
0
100
AcDbLine
 62
7
  6
CONTINUOUS
 10
9.0
 20
5.0
 11
20.0
 21
5.0
  0
LINE
  5
269
100
AcDbEntity
  8
0
100
AcDbLine
 62
7
  6
CONTINUOUS
 10
14.0
 20
5.0
 11
14.0
 21
150.0
  0
LINE
  5
26A
100
AcDbEntity
  8
0
100
AcDbLine
 62
7
  6
CONTINUOUS
 10
20.0
 20
5.0
 11
20.0
 21
150.0
  0
LINE
  5
26B
100
AcDbEntity
  8
0
100
AcDbLine
 62
7
  6
CONTINUOUS
 10
9.0
 20
30.0
 11
20.0
 21
30.0
  0
LINE
  5
26C
100
AcDbEntity
  8
0
100
AcDbLine
 62
7
  6
CONTINUOUS
 10
9.0
 20
65.0
 11
20.0
 21
65.0
  0
LINE
  5
26D
100
AcDbEntity
  8
0
100
AcDbLine
 62
7
  6
CONTINUOUS
 10
9.0
 20
90.0
 11
20.0
 21
90.0
  0
LINE
  5
26E
100
AcDbEntity
  8
0
100
AcDbLine
 62
7
  6
CONTINUOUS
 10
9.0
 20
115.0
 11
20.0
 21
115.0
  0
LINE
  5
26F
100
AcDbEntity
  8
0
100
AcDbLine
 62
7
  6
CONTINUOUS
 10
9.0
 20
150.0
 11
20.0
 21
150.0
  0
LWPOLYLINE
  5
270
100
AcDbEntity
  8
0
100
AcDbPolyline
 62
2
  6
CONTINUOUS
 90
4
 70
0
 43
0.25
 10
10.2779260254
 20
5.6772235107
 10
12.7779261017
 20
5.1458340454
 10
10.2779260254
 20
6.6772261047
 10
12.7779261017
 20
6.1458334351
  0
LWPOLYLINE
  5
271
100
AcDbEntity
  8
0
100
AcDbPolyline
 62
2
  6
CONTINUOUS
 90
2
 70
0
 43
0.25
 10
12.7779261017
 20
7.1458328247
 10
11.1112593842
 20
7.5000956726
  0
LWPOLYLINE
  5
272
100
AcDbEntity
  8
0
100
AcDbPolyline
 62
2
  6
CONTINUOUS
 90
2
 70
0
 43
0.25
 10
11.9445927429
 20
7.3229626465
 10
11.9445927429
 20
8.3229652405
  0
LWPOLYLINE
  5
273
100
AcDbEntity
  8
0
100
AcDbPolyline
 62
2
  6
CONTINUOUS
 90
2
 70
0
 43
0.25
 10
11.1112593842
 20
8.5000950623
 10
12.7779261017
 20
8.1458322144
  0
LWPOLYLINE
  5
274
100
AcDbEntity
  8
0
100
AcDbPolyline
 62
2
  6
CONTINUOUS
 90
12
 70
0
 43
0.25
 10
11.5279260635
 20
9.411529541
 10
10.6945927048
 20
10.0886590576
 10
10.2779260254
 20
10.1772239685
 10
10.2779260254
 20
9.9272241211
 10
10.6945927048
 20
9.5886593628
 10
12.3612594223
 20
9.2343997192
 10
12.7779261017
 20
9.3958346558
 10
12.7779261017
 20
9.8958343506
 10
12.3612594223
 20
10.2343991089
 10
11.5279260635
 20
10.4115289307
 10
11.1112593842
 20
10.2500939941
 10
11.1112593842
 20
9.7500942993
  0
LWPOLYLINE
  5
275
100
AcDbEntity
  8
0
100
AcDbPolyline
 62
2
  6
CONTINUOUS
 90
5
 70
0
 43
0.25
 10
12.7779261017
 20
11.2708319092
 10
12.7779261017
 20
11.1458335876
 10
12.5695923615
 20
11.1901144409
 10
12.5695923615
 20
11.3151159668
 10
12.7779261017
 20
11.2708319092
  0
LWPOLYLINE
  5
276
100
AcDbEntity
  8
0
100
AcDbPolyline
 62
2
  6
CONTINUOUS
 90
4
 70
0
 43
0.25
 10
12.7779261017
 20
13.3541661072
 10
10.2779260254
 20
13.8855587769
 10
12.7779261017
 20
15.0208328247
 10
10.2779260254
 20
15.5522254944
  0
LWPOLYLINE
  5
277
100
AcDbEntity
  8
0
100
AcDbPolyline
 62
2
  6
CONTINUOUS
 90
2
 70
0
 43
0.25
 10
12.7779261017
 20
19.8541653442
 10
11.1112593842
 20
20.2084281921
  0
LWPOLYLINE
  5
278
100
AcDbEntity
  8
0
100
AcDbPolyline
 62
2
  6
CONTINUOUS
 90
5
 70
0
 43
0.25
 10
11.5279260635
 20
20.1198632812
 10
11.1112593842
 20
20.4584280396
 10
11.1112593842
 20
20.9584277344
 10
11.5279260635
 20
21.1198626709
 10
12.7779261017
 20
20.8541679382
  0
LWPOLYLINE
  5
279
100
AcDbEntity
  8
0
100
AcDbPolyline
 62
2
  6
CONTINUOUS
 90
9
 70
0
 43
0.25
 10
12.3612594223
 20
21.9427322388
 10
12.7779261017
 20
22.1041671753
 10
12.7779261017
 20
22.6041668701
 10
12.3612594223
 20
22.9427316284
 10
11.5279260635
 20
23.1198614502
 10
11.1112593842
 20
22.9584265137
 10
11.1112593842
 20
22.4584268188
 10
11.5279260635
 20
22.1198620605
 10
12.3612594223
 20
21.9427322388
  0
LWPOLYLINE
  5
27A
100
AcDbEntity
  8
0
100
AcDbPolyline
 62
2
  6
CONTINUOUS
 90
11
 70
0
 43
0.25
 10
11.5279260635
 20
25.1198602295
 10
11.1112593842
 20
24.9584284973
 10
11.1112593842
 20
24.4584288025
 10
11.5279260635
 20
24.1198608398
 10
12.3612594223
 20
23.9427310181
 10
12.7779261017
 20
24.1041659546
 10
12.7779261017
 20
24.6041656494
 10
12.3612594223
 20
24.9427304077
 10
10.6945927048
 20
25.2969900513
 10
10.2779260254
 20
25.1355551147
 10
10.2779260254
 20
24.6355586243
  0
LWPOLYLINE
  5
27B
100
AcDbEntity
  8
0
100
AcDbPolyline
 62
2
  6
CONTINUOUS
 90
3
 70
0
 43
0.25
 10
12.7779261017
 20
25.8541680908
 10
11.1112593842
 20
26.7084274292
 10
12.7779261017
 20
26.8541674805
  0
LWPOLYLINE
  5
27C
100
AcDbEntity
  8
0
100
AcDbPolyline
 62
2
  6
CONTINUOUS
 90
5
 70
0
 43
0.25
 10
12.7779261017
 20
27.979168396
 10
12.7779261017
 20
27.8541668701
 10
12.5695923615
 20
27.8984509277
 10
12.5695923615
 20
28.0234524536
 10
12.7779261017
 20
27.979168396
  0
LWPOLYLINE
  5
27D
100
AcDbEntity
  8
0
100
AcDbPolyline
 62
2
  6
CONTINUOUS
 90
4
 70
0
 43
0.25
 10
12.7779261017
 20
33.4999996948
 10
10.2779260254
 20
34.0313891602
 10
10.2779260254
 20
35.0313885498
 10
12.7779261017
 20
34.4999990845
  0
LWPOLYLINE
  5
27E
100
AcDbEntity
  8
0
100
AcDbPolyline
 62
2
  6
CONTINUOUS
 90
9
 70
0
 43
0.25
 10
12.3612594223
 20
35.5885665894
 10
12.7779261017
 20
35.7500015259
 10
12.7779261017
 20
36.2500012207
 10
12.3612594223
 20
36.588565979
 10
11.5279260635
 20
36.7656958008
 10
11.1112593842
 20
36.6042608643
 10
11.1112593842
 20
36.1042611694
 10
11.5279260635
 20
35.7656964111
 10
12.3612594223
 20
35.5885665894
  0
LWPOLYLINE
  5
27F
100
AcDbEntity
  8
0
100
AcDbPolyline
 62
2
  6
CONTINUOUS
 90
11
 70
0
 43
0.25
 10
11.5279260635
 20
38.7656945801
 10
11.1112593842
 20
38.6042596436
 10
11.1112593842
 20
38.1042599487
 10
11.5279260635
 20
37.7656951904
 10
12.3612594223
 20
37.5885653687
 10
12.7779261017
 20
37.7500003052
 10
12.7779261017
 20
38.25
 10
12.3612594223
 20
38.5885647583
 10
10.6945927048
 20
38.9428244019
 10
10.2779260254
 20
38.7813894653
 10
10.2779260254
 20
38.2813897705
  0
LWPOLYLINE
  5
280
100
AcDbEntity
  8
0
100
AcDbPolyline
 62
2
  6
CONTINUOUS
 90
2
 70
0
 43
0.25
 10
12.7779261017
 20
39.5000024414
 10
11.1112593842
 20
39.854262085
  0
LWPOLYLINE
  5
281
100
AcDbEntity
  8
0
100
AcDbPolyline
 62
2
  6
CONTINUOUS
 90
5
 70
0
 43
0.25
 10
11.5279260635
 20
39.7656939697
 10
11.1112593842
 20
40.104258728
 10
11.1112593842
 20
40.6042584229
 10
11.5279260635
 20
40.7656933594
 10
12.7779261017
 20
40.5000018311
  0
LWPOLYLINE
  5
282
100
AcDbEntity
  8
0
100
AcDbPolyline
 62
2
  6
CONTINUOUS
 90
5
 70
0
 43
0.25
 10
11.1112593842
 20
41.8542608643
 10
12.3612594223
 20
41.5885629272
 10
12.7779261017
 20
41.7499978638
 10
12.7779261017
 20
42.0000009155
 10
11.9445927429
 20
42.6771304321
  0
LWPOLYLINE
  5
283
100
AcDbEntity
  8
0
100
AcDbPolyline
 62
2
  6
CONTINUOUS
 90
2
 70
0
 43
0.25
 10
11.1112593842
 20
42.8542602539
 10
12.7779261017
 20
42.5000006104
  0
LWPOLYLINE
  5
284
100
AcDbEntity
  8
0
100
AcDbPolyline
 62
2
  6
CONTINUOUS
 90
8
 70
0
 43
0.25
 10
11.5279260635
 20
44.7656973267
 10
11.1112593842
 20
44.6042623901
 10
11.1112593842
 20
44.1042626953
 10
11.5279260635
 20
43.765697937
 10
12.3612594223
 20
43.5885681152
 10
12.7779261017
 20
43.7500030518
 10
12.7779261017
 20
44.2500027466
 10
12.3612594223
 20
44.5885675049
  0
LWPOLYLINE
  5
285
100
AcDbEntity
  8
0
100
AcDbPolyline
 62
2
  6
CONTINUOUS
 90
9
 70
0
 43
0.25
 10
11.1112593842
 20
45.8542584229
 10
12.3612594223
 20
45.5885668945
 10
12.7779261017
 20
45.7500018311
 10
12.7779261017
 20
46.2500015259
 10
12.3612594223
 20
46.5885662842
 10
11.9445927429
 20
46.6771279907
 10
11.5279260635
 20
46.5156930542
 10
11.5279260635
 20
46.0156933594
 10
11.9445927429
 20
45.6771286011
  0
LWPOLYLINE
  5
286
100
AcDbEntity
  8
0
100
AcDbPolyline
 62
2
  6
CONTINUOUS
 90
5
 70
0
 43
0.25
 10
11.1112593842
 20
49.8542623901
 10
12.3612594223
 20
49.5885644531
 10
12.7779261017
 20
49.7499993896
 10
12.7779261017
 20
50.0000024414
 10
11.9445927429
 20
50.677131958
  0
LWPOLYLINE
  5
287
100
AcDbEntity
  8
0
100
AcDbPolyline
 62
2
  6
CONTINUOUS
 90
2
 70
0
 43
0.25
 10
11.1112593842
 20
50.8542617798
 10
12.7779261017
 20
50.5000021362
  0
LWPOLYLINE
  5
288
100
AcDbEntity
  8
0
100
AcDbPolyline
 62
2
  6
CONTINUOUS
 90
11
 70
0
 43
0.25
 10
11.5279260635
 20
54.7656976318
 10
11.1112593842
 20
54.6042626953
 10
11.1112593842
 20
54.1042630005
 10
11.5279260635
 20
53.7656982422
 10
12.3612594223
 20
53.5885684204
 10
12.7779261017
 20
53.7499969482
 10
12.7779261017
 20
54.2500030518
 10
12.3612594223
 20
54.5885678101
 10
10.6945927048
 20
54.9428274536
 10
10.2779260254
 20
54.7813925171
 10
10.2779260254
 20
54.2813928223
  0
LWPOLYLINE
  5
289
100
AcDbEntity
  8
0
100
AcDbPolyline
 62
2
  6
CONTINUOUS
 90
8
 70
0
 43
0.25
 10
11.5279260635
 20
56.7656964111
 10
11.1112593842
 20
56.6042614746
 10
11.1112593842
 20
56.1042617798
 10
11.5279260635
 20
55.7656970215
 10
12.3612594223
 20
55.5885671997
 10
12.7779261017
 20
55.7500021362
 10
12.7779261017
 20
56.2500018311
 10
12.3612594223
 20
56.5885665894
  0
LWPOLYLINE
  5
28A
100
AcDbEntity
  8
0
100
AcDbPolyline
 62
2
  6
CONTINUOUS
 90
3
 70
0
 43
0.25
 10
11.1112593842
 20
56.8542581177
 10
12.3612594223
 20
56.5885665894
 10
12.7779261017
 20
56.625
  0
LWPOLYLINE
  5
28B
100
AcDbEntity
  8
0
100
AcDbPolyline
 62
2
  6
CONTINUOUS
 90
2
 70
0
 43
0.25
 10
12.7779261017
 20
57.4999978638
 10
11.1112593842
 20
57.854263916
  0
LWPOLYLINE
  5
28C
100
AcDbEntity
  8
0
100
AcDbPolyline
 62
2
  6
CONTINUOUS
 90
4
 70
0
 43
0.25
 10
11.5279260635
 20
57.7656958008
 10
11.1112593842
 20
58.1042605591
 10
11.5279260635
 20
58.2656954956
 10
12.7779261017
 20
57.9999975586
  0
LWPOLYLINE
  5
28D
100
AcDbEntity
  8
0
100
AcDbPolyline
 62
2
  6
CONTINUOUS
 90
4
 70
0
 43
0.25
 10
11.5279260635
 20
58.2656954956
 10
11.1112593842
 20
58.6042602539
 10
11.5279260635
 20
58.7656951904
 10
12.7779261017
 20
58.4999972534
  0
LWPOLYLINE
  5
28E
100
AcDbEntity
  8
0
100
AcDbPolyline
 62
2
  6
CONTINUOUS
 90
8
 70
0
 43
0.25
 10
11.5279260635
 20
60.7656939697
 10
11.1112593842
 20
60.6042590332
 10
11.1112593842
 20
60.1042593384
 10
11.5279260635
 20
59.7656945801
 10
12.3612594223
 20
59.5885647583
 10
12.7779261017
 20
59.7499996948
 10
12.7779261017
 20
60.2499993896
 10
12.3612594223
 20
60.5885641479
  0
LWPOLYLINE
  5
28F
100
AcDbEntity
  8
0
100
AcDbPolyline
 62
2
  6
CONTINUOUS
 90
3
 70
0
 43
0.25
 10
11.1112593842
 20
60.854262085
 10
12.3612594223
 20
60.5885641479
 10
12.7779261017
 20
60.6249975586
  0
LWPOLYLINE
  5
290
100
AcDbEntity
  8
0
100
AcDbPolyline
 62
2
  6
CONTINUOUS
 90
10
 70
0
 43
0.25
 10
12.7779261017
 20
66.1458352661
 10
12.7779261017
 20
66.895831604
 10
12.3612594223
 20
67.2343963623
 10
11.9445927429
 20
67.3229644775
 10
11.5279260635
 20
67.161529541
 10
11.1112593842
 20
67.5000942993
 10
10.6945927048
 20
67.5886624146
 10
10.2779260254
 20
67.427227478
 10
10.2779260254
 20
66.6772247314
 10
12.7779261017
 20
66.1458352661
  0
LWPOLYLINE
  5
291
100
AcDbEntity
  8
0
100
AcDbPolyline
 62
2
  6
CONTINUOUS
 90
2
 70
0
 43
0.25
 10
11.5279260635
 20
66.4115267944
 10
11.5279260635
 20
67.161529541
  0
LWPOLYLINE
  5
292
100
AcDbEntity
  8
0
100
AcDbPolyline
 62
2
  6
CONTINUOUS
 90
9
 70
0
 43
0.25
 10
12.3612594223
 20
68.234395752
 10
12.7779261017
 20
68.3958306885
 10
12.7779261017
 20
68.8958303833
 10
12.3612594223
 20
69.2344015503
 10
11.9445927429
 20
69.0729666138
 10
11.5279260635
 20
69.4115313721
 10
11.1112593842
 20
69.2500964355
 10
11.1112593842
 20
68.7500967407
 10
11.5279260635
 20
68.4115319824
  0
LWPOLYLINE
  5
293
100
AcDbEntity
  8
0
100
AcDbPolyline
 62
2
  6
CONTINUOUS
 90
2
 70
0
 43
0.25
 10
11.9445927429
 20
68.822963562
 10
11.9445927429
 20
69.0729666138
  0
LWPOLYLINE
  5
294
100
AcDbEntity
  8
0
100
AcDbPolyline
 62
2
  6
CONTINUOUS
 90
8
 70
0
 43
0.25
 10
11.5279260635
 20
71.4115301514
 10
11.1112593842
 20
71.2500952148
 10
11.1112593842
 20
70.75009552
 10
11.5279260635
 20
70.4115307617
 10
12.3612594223
 20
70.2344009399
 10
12.7779261017
 20
70.3958358765
 10
12.7779261017
 20
70.8958355713
 10
12.3612594223
 20
71.2344003296
  0
LWPOLYLINE
  5
295
100
AcDbEntity
  8
0
100
AcDbPolyline
 62
2
  6
CONTINUOUS
 90
3
 70
0
 43
0.25
 10
11.1112593842
 20
71.5000918579
 10
12.3612594223
 20
71.2344003296
 10
12.7779261017
 20
71.2708337402
  0
LWPOLYLINE
  5
296
100
AcDbEntity
  8
0
100
AcDbPolyline
 62
2
  6
CONTINUOUS
 90
5
 70
0
 43
0.25
 10
12.7779261017
 20
72.145831604
 10
11.1112593842
 20
72.5000912476
 10
11.9445927429
 20
72.8229611206
 10
11.1112593842
 20
73.5000970459
 10
12.7779261017
 20
73.1458309937
  0
LWPOLYLINE
  5
297
100
AcDbEntity
  8
0
100
AcDbPolyline
 62
2
  6
CONTINUOUS
 90
5
 70
0
 43
0.25
 10
12.7779261017
 20
74.2708319092
 10
12.7779261017
 20
74.1458303833
 10
12.5695923615
 20
74.1901144409
 10
12.5695923615
 20
74.3151159668
 10
12.7779261017
 20
74.2708319092
  0
LWPOLYLINE
  5
298
100
AcDbEntity
  8
0
100
AcDbPolyline
 62
2
  6
CONTINUOUS
 90
5
 70
0
 43
0.25
 10
11.1112593842
 20
78.5000939941
 10
12.3612594223
 20
78.2343960571
 10
12.7779261017
 20
78.3958309937
 10
12.7779261017
 20
78.6458340454
 10
11.9445927429
 20
79.3229699707
  0
LWPOLYLINE
  5
299
100
AcDbEntity
  8
0
100
AcDbPolyline
 62
2
  6
CONTINUOUS
 90
2
 70
0
 43
0.25
 10
11.1112593842
 20
79.5000933838
 10
12.7779261017
 20
79.1458337402
  0
LWPOLYLINE
  5
29A
100
AcDbEntity
  8
0
100
AcDbPolyline
 62
2
  6
CONTINUOUS
 90
2
 70
0
 43
0.25
 10
12.7779261017
 20
80.1458331299
 10
11.1112593842
 20
80.5000927734
  0
LWPOLYLINE
  5
29B
100
AcDbEntity
  8
0
100
AcDbPolyline
 62
2
  6
CONTINUOUS
 90
2
 70
0
 43
0.25
 10
11.9445927429
 20
80.3229693604
 10
11.9445927429
 20
81.32296875
  0
LWPOLYLINE
  5
29C
100
AcDbEntity
  8
0
100
AcDbPolyline
 62
2
  6
CONTINUOUS
 90
2
 70
0
 43
0.25
 10
11.1112593842
 20
81.5000921631
 10
12.7779261017
 20
81.1458325195
  0
LWPOLYLINE
  5
29D
100
AcDbEntity
  8
0
100
AcDbPolyline
 62
2
  6
CONTINUOUS
 90
12
 70
0
 43
0.25
 10
11.5279260635
 20
82.4115234375
 10
10.6945927048
 20
83.0886657715
 10
10.2779260254
 20
83.1772210693
 10
10.2779260254
 20
82.927230835
 10
10.6945927048
 20
82.588659668
 10
12.3612594223
 20
82.2344000244
 10
12.7779261017
 20
82.3958349609
 10
12.7779261017
 20
82.8958282471
 10
12.3612594223
 20
83.2343994141
 10
11.5279260635
 20
83.4115228271
 10
11.1112593842
 20
83.2500878906
 10
11.1112593842
 20
82.7500946045
  0
LWPOLYLINE
  5
29E
100
AcDbEntity
  8
0
100
AcDbPolyline
 62
2
  6
CONTINUOUS
 90
5
 70
0
 43
0.25
 10
12.7779261017
 20
84.270838623
 10
12.7779261017
 20
84.1458306885
 10
12.5695923615
 20
84.1901147461
 10
12.5695923615
 20
84.3151098633
 10
12.7779261017
 20
84.270838623
  0
LWPOLYLINE
  5
29F
100
AcDbEntity
  8
0
100
AcDbPolyline
 62
2
  6
CONTINUOUS
 90
4
 70
0
 43
0.25
 10
12.7779261017
 20
86.354163208
 10
10.2779260254
 20
86.885559082
 10
12.7779261017
 20
88.0208331299
 10
10.2779260254
 20
88.5522290039
  0
LWPOLYLINE
  5
2A0
100
AcDbEntity
  8
0
100
AcDbPolyline
 62
2
  6
CONTINUOUS
 90
4
 70
0
 43
0.25
 10
10.2779260254
 20
90.6772229004
 10
12.7779261017
 20
90.1458270264
 10
10.2779260254
 20
91.67722229
 10
12.7779261017
 20
91.1458392334
  0
LWPOLYLINE
  5
2A1
100
AcDbEntity
  8
0
100
AcDbPolyline
 62
2
  6
CONTINUOUS
 90
2
 70
0
 43
0.25
 10
12.7779261017
 20
92.145838623
 10
11.1112593842
 20
92.5000982666
  0
LWPOLYLINE
  5
2A2
100
AcDbEntity
  8
0
100
AcDbPolyline
 62
2
  6
CONTINUOUS
 90
2
 70
0
 43
0.25
 10
11.9445927429
 20
92.3229620361
 10
11.9445927429
 20
93.3229614258
  0
LWPOLYLINE
  5
2A3
100
AcDbEntity
  8
0
100
AcDbPolyline
 62
2
  6
CONTINUOUS
 90
2
 70
0
 43
0.25
 10
11.1112593842
 20
93.5000976562
 10
12.7779261017
 20
93.1458380127
  0
LWPOLYLINE
  5
2A4
100
AcDbEntity
  8
0
100
AcDbPolyline
 62
2
  6
CONTINUOUS
 90
12
 70
0
 43
0.25
 10
11.5279260635
 20
94.4115289307
 10
10.6945927048
 20
95.0886584473
 10
10.2779260254
 20
95.1772265625
 10
10.2779260254
 20
94.9272235107
 10
10.6945927048
 20
94.5886651611
 10
12.3612594223
 20
94.2343927002
 10
12.7779261017
 20
94.3958276367
 10
12.7779261017
 20
94.8958337402
 10
12.3612594223
 20
95.2344049072
 10
11.5279260635
 20
95.4115283203
 10
11.1112593842
 20
95.2500933838
 10
11.1112593842
 20
94.7501000977
  0
LWPOLYLINE
  5
2A5
100
AcDbEntity
  8
0
100
AcDbPolyline
 62
2
  6
CONTINUOUS
 90
5
 70
0
 43
0.25
 10
12.7779261017
 20
96.2708312988
 10
12.7779261017
 20
96.1458361816
 10
12.5695923615
 20
96.1901202393
 10
12.5695923615
 20
96.3151153564
 10
12.7779261017
 20
96.2708312988
  0
LWPOLYLINE
  5
2A6
100
AcDbEntity
  8
0
100
AcDbPolyline
 62
2
  6
CONTINUOUS
 90
4
 70
0
 43
0.25
 10
12.7779261017
 20
98.3541687012
 10
10.2779260254
 20
98.8855517578
 10
12.7779261017
 20
100.020838623
 10
10.2779260254
 20
100.5522216797
  0
LWPOLYLINE
  5
2A7
100
AcDbEntity
  8
0
100
AcDbPolyline
 62
2
  6
CONTINUOUS
 90
11
 70
0
 43
0.25
 10
11.5279260635
 20
106.1198620605
 10
11.1112593842
 20
105.958427124
 10
11.1112593842
 20
105.4584338379
 10
11.5279260635
 20
105.1198626709
 10
12.3612594223
 20
104.9427264404
 10
12.7779261017
 20
105.104161377
 10
12.7779261017
 20
105.6041674805
 10
12.3612594223
 20
105.9427258301
 10
10.6945927048
 20
106.296998291
 10
10.2779260254
 20
106.1355633545
 10
10.2779260254
 20
105.635557251
  0
LWPOLYLINE
  5
2A8
100
AcDbEntity
  8
0
100
AcDbPolyline
 62
2
  6
CONTINUOUS
 90
2
 70
0
 43
0.25
 10
11.1112593842
 20
107.2084295654
 10
12.7779261017
 20
107.354163208
  0
LWPOLYLINE
  5
2A9
100
AcDbEntity
  8
0
100
AcDbPolyline
 62
2
  6
CONTINUOUS
 90
3
 70
0
 43
0.25
 10
13.6112594604
 20
106.6770336914
 10
13.6112594604
 20
106.9270367432
 10
11.1112593842
 20
108.2084289551
  0
LWPOLYLINE
  5
2AA
100
AcDbEntity
  8
0
100
AcDbPolyline
 62
2
  6
CONTINUOUS
 90
10
 70
0
 43
0.25
 10
11.1112593842
 20
109.9584246826
 10
11.1112593842
 20
109.4584313965
 10
11.5279260635
 20
109.1198602295
 10
12.3612594223
 20
108.9427368164
 10
12.7779261017
 20
109.1041717529
 10
12.7779261017
 20
109.6041650391
 10
12.3612594223
 20
109.9427362061
 10
11.5279260635
 20
110.1198596191
 10
10.2779260254
 20
109.6355548096
 10
10.2779260254
 20
110.3855639648
  0
LWPOLYLINE
  5
2AB
100
AcDbEntity
  8
0
100
AcDbPolyline
 62
2
  6
CONTINUOUS
 90
3
 70
0
 43
0.25
 10
12.7779261017
 20
110.8541674805
 10
11.1112593842
 20
111.7084332275
 10
12.7779261017
 20
111.8541668701
  0
LWPOLYLINE
  5
2AC
100
AcDbEntity
  8
0
100
AcDbPolyline
 62
2
  6
CONTINUOUS
 90
5
 70
0
 43
0.25
 10
12.7779261017
 20
112.979161377
 10
12.7779261017
 20
112.8541662598
 10
12.5695923615
 20
112.8984503174
 10
12.5695923615
 20
113.0234454346
 10
12.7779261017
 20
112.979161377
  0
LWPOLYLINE
  5
2AD
100
AcDbEntity
  8
0
100
AcDbPolyline
 62
2
  6
CONTINUOUS
 90
4
 70
0
 43
0.25
 10
12.7779261017
 20
118.5000054932
 10
10.2779260254
 20
119.0313885498
 10
10.2779260254
 20
120.0313879395
 10
12.7779261017
 20
119.5000048828
  0
LWPOLYLINE
  5
2AE
100
AcDbEntity
  8
0
100
AcDbPolyline
 62
2
  6
CONTINUOUS
 90
9
 70
0
 43
0.25
 10
12.3612594223
 20
120.5885595703
 10
12.7779261017
 20
120.7499945068
 10
12.7779261017
 20
121.2500006104
 10
12.3612594223
 20
121.58855896
 10
11.5279260635
 20
121.7656951904
 10
11.1112593842
 20
121.6042602539
 10
11.1112593842
 20
121.1042669678
 10
11.5279260635
 20
120.7656958008
 10
12.3612594223
 20
120.5885595703
  0
LWPOLYLINE
  5
2AF
100
AcDbEntity
  8
0
100
AcDbPolyline
 62
2
  6
CONTINUOUS
 90
11
 70
0
 43
0.25
 10
11.5279260635
 20
123.7656939697
 10
11.1112593842
 20
123.6042590332
 10
11.1112593842
 20
123.1042657471
 10
11.5279260635
 20
122.7656945801
 10
12.3612594223
 20
122.588571167
 10
12.7779261017
 20
122.7500061035
 10
12.7779261017
 20
123.2499993896
 10
12.3612594223
 20
123.5885705566
 10
10.6945927048
 20
123.9428302002
 10
10.2779260254
 20
123.7813952637
 10
10.2779260254
 20
123.2813891602
  0
LWPOLYLINE
  5
2B0
100
AcDbEntity
  8
0
100
AcDbPolyline
 62
2
  6
CONTINUOUS
 90
2
 70
0
 43
0.25
 10
12.7779261017
 20
124.5000018311
 10
11.1112593842
 20
124.8542614746
  0
LWPOLYLINE
  5
2B1
100
AcDbEntity
  8
0
100
AcDbPolyline
 62
2
  6
CONTINUOUS
 90
5
 70
0
 43
0.25
 10
11.5279260635
 20
124.7656933594
 10
11.1112593842
 20
125.1042645264
 10
11.1112593842
 20
125.6042578125
 10
11.5279260635
 20
125.765692749
 10
12.7779261017
 20
125.5000012207
  0
LWPOLYLINE
  5
2B2
100
AcDbEntity
  8
0
100
AcDbPolyline
 62
2
  6
CONTINUOUS
 90
5
 70
0
 43
0.25
 10
11.1112593842
 20
126.8542602539
 10
12.3612594223
 20
126.5885687256
 10
12.7779261017
 20
126.7500036621
 10
12.7779261017
 20
126.9999938965
 10
11.9445927429
 20
127.6771362305
  0
LWPOLYLINE
  5
2B3
100
AcDbEntity
  8
0
100
AcDbPolyline
 62
2
  6
CONTINUOUS
 90
2
 70
0
 43
0.25
 10
11.1112593842
 20
127.8542596436
 10
12.7779261017
 20
127.5
  0
LWPOLYLINE
  5
2B4
100
AcDbEntity
  8
0
100
AcDbPolyline
 62
2
  6
CONTINUOUS
 90
8
 70
0
 43
0.25
 10
11.5279260635
 20
129.7656903076
 10
11.1112593842
 20
129.6042553711
 10
11.1112593842
 20
129.104262085
 10
11.5279260635
 20
128.765690918
 10
12.3612594223
 20
128.5885675049
 10
12.7779261017
 20
128.7500024414
 10
12.7779261017
 20
129.2499957275
 10
12.3612594223
 20
129.5885668945
  0
LWPOLYLINE
  5
2B5
100
AcDbEntity
  8
0
100
AcDbPolyline
 62
2
  6
CONTINUOUS
 90
9
 70
0
 43
0.25
 10
11.1112593842
 20
130.8542578125
 10
12.3612594223
 20
130.5885662842
 10
12.7779261017
 20
130.7500012207
 10
12.7779261017
 20
131.2499945068
 10
12.3612594223
 20
131.5885656738
 10
11.9445927429
 20
131.6771337891
 10
11.5279260635
 20
131.5156988525
 10
11.5279260635
 20
131.015692749
 10
11.9445927429
 20
130.6771343994
  0
LWPOLYLINE
  5
2B6
100
AcDbEntity
  8
0
100
AcDbPolyline
 62
2
  6
CONTINUOUS
 90
5
 70
0
 43
0.25
 10
11.1112593842
 20
134.8542553711
 10
12.3612594223
 20
134.5885638428
 10
12.7779261017
 20
134.7499987793
 10
12.7779261017
 20
135.0000018311
 10
11.9445927429
 20
135.6771313477
  0
LWPOLYLINE
  5
2B7
100
AcDbEntity
  8
0
100
AcDbPolyline
 62
2
  6
CONTINUOUS
 90
2
 70
0
 43
0.25
 10
11.1112593842
 20
135.8542547607
 10
12.7779261017
 20
135.4999951172
  0
LWPOLYLINE
  5
2B8
100
AcDbEntity
  8
0
100
AcDbPolyline
 62
2
  6
CONTINUOUS
 90
11
 70
0
 43
0.25
 10
11.5279260635
 20
139.7656970215
 10
11.1112593842
 20
139.604262085
 10
11.1112593842
 20
139.1042559814
 10
11.5279260635
 20
138.7656976318
 10
12.3612594223
 20
138.5885614014
 10
12.7779261017
 20
138.7499963379
 10
12.7779261017
 20
139.2500024414
 10
12.3612594223
 20
139.588560791
 10
10.6945927048
 20
139.9428204346
 10
10.2779260254
 20
139.781385498
 10
10.2779260254
 20
139.2813922119
  0
LWPOLYLINE
  5
2B9
100
AcDbEntity
  8
0
100
AcDbPolyline
 62
2
  6
CONTINUOUS
 90
8
 70
0
 43
0.25
 10
11.5279260635
 20
141.7656958008
 10
11.1112593842
 20
141.6042608643
 10
11.1112593842
 20
141.1042547607
 10
11.5279260635
 20
140.7656964111
 10
12.3612594223
 20
140.5885601807
 10
12.7779261017
 20
140.7499951172
 10
12.7779261017
 20
141.2500012207
 10
12.3612594223
 20
141.5885595703
  0
LWPOLYLINE
  5
2BA
100
AcDbEntity
  8
0
100
AcDbPolyline
 62
2
  6
CONTINUOUS
 90
3
 70
0
 43
0.25
 10
11.1112593842
 20
141.854263916
 10
12.3612594223
 20
141.5885595703
 10
12.7779261017
 20
141.6249993896
  0
LWPOLYLINE
  5
2BB
100
AcDbEntity
  8
0
100
AcDbPolyline
 62
2
  6
CONTINUOUS
 90
2
 70
0
 43
0.25
 10
12.7779261017
 20
142.5000036621
 10
11.1112593842
 20
142.8542633057
  0
LWPOLYLINE
  5
2BC
100
AcDbEntity
  8
0
100
AcDbPolyline
 62
2
  6
CONTINUOUS
 90
4
 70
0
 43
0.25
 10
11.5279260635
 20
142.7656951904
 10
11.1112593842
 20
143.1042663574
 10
11.5279260635
 20
143.2657012939
 10
12.7779261017
 20
142.9999969482
  0
LWPOLYLINE
  5
2BD
100
AcDbEntity
  8
0
100
AcDbPolyline
 62
2
  6
CONTINUOUS
 90
4
 70
0
 43
0.25
 10
11.5279260635
 20
143.2657012939
 10
11.1112593842
 20
143.6042596436
 10
11.5279260635
 20
143.7656945801
 10
12.7779261017
 20
143.5000030518
  0
LWPOLYLINE
  5
2BE
100
AcDbEntity
  8
0
100
AcDbPolyline
 62
2
  6
CONTINUOUS
 90
8
 70
0
 43
0.25
 10
11.5279260635
 20
145.7656933594
 10
11.1112593842
 20
145.6042584229
 10
11.1112593842
 20
145.1042651367
 10
11.5279260635
 20
144.7656939697
 10
12.3612594223
 20
144.5885705566
 10
12.7779261017
 20
144.7500054932
 10
12.7779261017
 20
145.2499987793
 10
12.3612594223
 20
145.5885699463
  0
LWPOLYLINE
  5
2BF
100
AcDbEntity
  8
0
100
AcDbPolyline
 62
2
  6
CONTINUOUS
 90
3
 70
0
 43
0.25
 10
11.1112593842
 20
145.8542614746
 10
12.3612594223
 20
145.5885699463
 10
12.7779261017
 20
145.6249969482
  0
LINE
  5
2C0
100
AcDbEntity
  8
0
100
AcDbLine
 62
7
  6
CONTINUOUS
 10
9.0
 20
172.0
 11
9.0
 21
292.0
  0
LINE
  5
2C1
100
AcDbEntity
  8
0
100
AcDbLine
 62
7
  6
CONTINUOUS
 10
9.0
 20
172.0
 11
20.0
 21
172.0
  0
LINE
  5
2C2
100
AcDbEntity
  8
0
100
AcDbLine
 62
7
  6
CONTINUOUS
 10
14.0
 20
172.0
 11
14.0
 21
292.0
  0
LINE
  5
2C3
100
AcDbEntity
  8
0
100
AcDbLine
 62
7
  6
CONTINUOUS
 10
20.0
 20
172.0
 11
20.0
 21
292.0
  0
LINE
  5
2C4
100
AcDbEntity
  8
0
100
AcDbLine
 62
7
  6
CONTINUOUS
 10
9.0
 20
232.0
 11
20.0
 21
232.0
  0
LINE
  5
2C5
100
AcDbEntity
  8
0
100
AcDbLine
 62
7
  6
CONTINUOUS
 10
9.0
 20
292.0
 11
20.0
 21
292.0
  0
LWPOLYLINE
  5
2C6
100
AcDbEntity
  8
0
100
AcDbPolyline
 62
2
  6
CONTINUOUS
 90
8
 70
0
 43
0.25
 10
10.6945927048
 20
196.0886608887
 10
10.2779260254
 20
195.9272131348
 10
10.2779260254
 20
195.427232666
 10
10.6945927048
 20
195.0886486816
 10
12.3612594223
 20
194.7344018555
 10
12.7779261017
 20
194.8958239746
 10
12.7779261017
 20
195.3958300781
 10
12.3612594223
 20
195.7343884277
  0
LWPOLYLINE
  5
2C7
100
AcDbEntity
  8
0
100
AcDbPolyline
 62
2
  6
CONTINUOUS
 90
2
 70
0
 43
0.25
 10
12.7779261017
 20
196.6458325195
 10
11.1112593842
 20
197.0001049805
  0
LWPOLYLINE
  5
2C8
100
AcDbEntity
  8
0
100
AcDbPolyline
 62
2
  6
CONTINUOUS
 90
5
 70
0
 43
0.25
 10
11.5279260635
 20
196.9115368652
 10
11.1112593842
 20
197.2500952148
 10
11.1112593842
 20
197.7501013184
 10
11.5279260635
 20
197.9115234375
 10
12.7779261017
 20
197.6458447266
  0
LWPOLYLINE
  5
2C9
100
AcDbEntity
  8
0
100
AcDbPolyline
 62
2
  6
CONTINUOUS
 90
2
 70
0
 43
0.25
 10
13.6112594604
 20
198.4686950684
 10
11.1112593842
 20
199.0001037598
  0
LWPOLYLINE
  5
2CA
100
AcDbEntity
  8
0
100
AcDbPolyline
 62
2
  6
CONTINUOUS
 90
7
 70
0
 43
0.25
 10
12.7779261017
 20
198.6458312988
 10
12.7779261017
 20
199.3958276367
 10
12.3612594223
 20
199.7343859863
 10
11.5279260635
 20
199.9115222168
 10
11.1112593842
 20
199.7501000977
 10
11.1112593842
 20
199.2500939941
 10
11.5279260635
 20
198.9115356445
  0
LWPOLYLINE
  5
2CB
100
AcDbEntity
  8
0
100
AcDbPolyline
 62
2
  6
CONTINUOUS
 90
8
 70
0
 43
0.25
 10
11.5279260635
 20
201.9115209961
 10
11.1112593842
 20
201.750098877
 10
11.1112593842
 20
201.2500927734
 10
11.5279260635
 20
200.9115344238
 10
12.3612594223
 20
200.7343981934
 10
12.7779261017
 20
200.8958459473
 10
12.7779261017
 20
201.395826416
 10
12.3612594223
 20
201.7344104004
  0
LWPOLYLINE
  5
2CC
100
AcDbEntity
  8
0
100
AcDbPolyline
 62
2
  6
CONTINUOUS
 90
3
 70
0
 43
0.25
 10
11.1112593842
 20
202.0000891113
 10
12.3612594223
 20
201.7344104004
 10
12.7779261017
 20
201.7708374023
  0
LWPOLYLINE
  5
2CD
100
AcDbEntity
  8
0
100
AcDbPolyline
 62
2
  6
CONTINUOUS
 90
12
 70
0
 43
0.25
 10
11.5279260635
 20
202.9115332031
 10
10.6945927048
 20
203.5886499023
 10
10.2779260254
 20
203.6772180176
 10
10.2779260254
 20
203.4272277832
 10
10.6945927048
 20
203.0886694336
 10
12.3612594223
 20
202.7343969727
 10
12.7779261017
 20
202.8958447266
 10
12.7779261017
 20
203.3958251953
 10
12.3612594223
 20
203.7344091797
 10
11.5279260635
 20
203.9115197754
 10
11.1112593842
 20
203.7500976562
 10
11.1112593842
 20
203.2500915527
  0
LWPOLYLINE
  5
2CE
100
AcDbEntity
  8
0
100
AcDbPolyline
 62
2
  6
CONTINUOUS
 90
5
 70
0
 43
0.25
 10
12.7779261017
 20
204.7708227539
 10
12.7779261017
 20
204.6458276367
 10
12.5695923615
 20
204.6901245117
 10
12.5695923615
 20
204.8151196289
 10
12.7779261017
 20
204.7708227539
  0
LWPOLYLINE
  5
2CF
100
AcDbEntity
  8
0
100
AcDbPolyline
 62
2
  6
CONTINUOUS
 90
4
 70
0
 43
0.25
 10
12.7779261017
 20
206.8541601563
 10
10.2779260254
 20
207.3855688477
 10
12.7779261017
 20
208.5208300781
 10
10.2779260254
 20
209.0522131348
  0
LWPOLYLINE
  5
2D0
100
AcDbEntity
  8
0
100
AcDbPolyline
 62
2
  6
CONTINUOUS
 90
4
 70
0
 43
0.25
 10
12.7779261017
 20
248.9999963379
 10
10.2779260254
 20
249.5313793945
 10
10.2779260254
 20
250.5313916016
 10
12.7779261017
 20
250.0000085449
  0
LWPOLYLINE
  5
2D1
100
AcDbEntity
  8
0
100
AcDbPolyline
 62
2
  6
CONTINUOUS
 90
10
 70
0
 43
0.25
 10
11.9445927429
 20
251.1771313477
 10
11.9445927429
 20
251.9271276855
 10
11.5279260635
 20
252.2656860352
 10
11.1112593842
 20
252.104263916
 10
11.1112593842
 20
251.6042578125
 10
11.5279260635
 20
251.2656994629
 10
12.3612594223
 20
251.0885632324
 10
12.7779261017
 20
251.2500109863
 10
12.7779261017
 20
251.7499914551
 10
12.3612594223
 20
252.0885754395
  0
LWPOLYLINE
  5
2D2
100
AcDbEntity
  8
0
100
AcDbPolyline
 62
2
  6
CONTINUOUS
 90
2
 70
0
 43
0.25
 10
13.6112594604
 20
252.822857666
 10
11.1112593842
 20
253.3542663574
  0
LWPOLYLINE
  5
2D3
100
AcDbEntity
  8
0
100
AcDbPolyline
 62
2
  6
CONTINUOUS
 90
7
 70
0
 43
0.25
 10
12.7779261017
 20
252.9999938965
 10
12.7779261017
 20
253.7499902344
 10
12.3612594223
 20
254.0885742188
 10
11.5279260635
 20
254.2656848145
 10
11.1112593842
 20
254.1042626953
 10
11.1112593842
 20
253.6042565918
 10
11.5279260635
 20
253.2656982422
  0
LWPOLYLINE
  5
2D4
100
AcDbEntity
  8
0
100
AcDbPolyline
 62
2
  6
CONTINUOUS
 90
12
 70
0
 43
0.25
 10
11.5279260635
 20
255.2656970215
 10
10.6945927048
 20
255.9428137207
 10
10.2779260254
 20
256.0313818359
 10
10.2779260254
 20
255.7813916016
 10
10.6945927048
 20
255.442833252
 10
12.3612594223
 20
255.088560791
 10
12.7779261017
 20
255.2500085449
 10
12.7779261017
 20
255.7499890137
 10
12.3612594223
 20
256.088572998
 10
11.5279260635
 20
256.2656835937
 10
11.1112593842
 20
256.1042614746
 10
11.1112593842
 20
255.6042553711
  0
LWPOLYLINE
  5
2D5
100
AcDbEntity
  8
0
100
AcDbPolyline
 62
2
  6
CONTINUOUS
 90
5
 70
0
 43
0.25
 10
12.7779261017
 20
257.125012207
 10
12.7779261017
 20
256.9999914551
 10
12.5695923615
 20
257.0442883301
 10
12.5695923615
 20
257.1692834473
 10
12.7779261017
 20
257.125012207
  0
LWPOLYLINE
  5
2D6
100
AcDbEntity
  8
0
100
AcDbPolyline
 62
2
  6
CONTINUOUS
 90
2
 70
0
 43
0.25
 10
12.7779261017
 20
260.9999890137
 10
11.1112593842
 20
261.3542614746
  0
LWPOLYLINE
  5
2D7
100
AcDbEntity
  8
0
100
AcDbPolyline
 62
2
  6
CONTINUOUS
 90
5
 70
0
 43
0.25
 10
11.5279260635
 20
261.2656933594
 10
11.1112593842
 20
261.604251709
 10
11.1112593842
 20
262.1042578125
 10
11.5279260635
 20
262.2657055664
 10
12.7779261017
 20
262.0000012207
  0
LWPOLYLINE
  5
2D8
100
AcDbEntity
  8
0
100
AcDbPolyline
 62
2
  6
CONTINUOUS
 90
2
 70
0
 43
0.25
 10
13.6112594604
 20
262.8228771973
 10
11.1112593842
 20
263.3542602539
  0
LWPOLYLINE
  5
2D9
100
AcDbEntity
  8
0
100
AcDbPolyline
 62
2
  6
CONTINUOUS
 90
7
 70
0
 43
0.25
 10
12.7779261017
 20
262.999987793
 10
12.7779261017
 20
263.7500097656
 10
12.3612594223
 20
264.0885681152
 10
11.5279260635
 20
264.2657043457
 10
11.1112593842
 20
264.1042565918
 10
11.1112593842
 20
263.6042504883
 10
11.5279260635
 20
263.2656921387
  0
LWPOLYLINE
  5
2DA
100
AcDbEntity
  8
0
100
AcDbPolyline
 62
2
  6
CONTINUOUS
 90
5
 70
0
 43
0.25
 10
11.1112593842
 20
265.3542590332
 10
12.3612594223
 20
265.0885546875
 10
12.7779261017
 20
265.2500024414
 10
12.7779261017
 20
265.4999926758
 10
11.9445927429
 20
266.1771350098
  0
LWPOLYLINE
  5
2DB
100
AcDbEntity
  8
0
100
AcDbPolyline
 62
2
  6
CONTINUOUS
 90
2
 70
0
 43
0.25
 10
11.1112593842
 20
266.3542712402
 10
12.7779261017
 20
265.9999987793
  0
LWPOLYLINE
  5
2DC
100
AcDbEntity
  8
0
100
AcDbPolyline
 62
2
  6
CONTINUOUS
 90
5
 70
0
 43
0.25
 10
12.7779261017
 20
267.0000109863
 10
11.1112593842
 20
267.3542578125
 10
11.9445927429
 20
267.6771276855
 10
11.1112593842
 20
268.3542700195
 10
12.7779261017
 20
267.9999975586
  0
LWPOLYLINE
  5
2DD
100
AcDbEntity
  8
0
100
AcDbPolyline
 62
2
  6
CONTINUOUS
 90
10
 70
0
 43
0.25
 10
11.9445927429
 20
269.1771203613
 10
11.9445927429
 20
269.927142334
 10
11.5279260635
 20
270.2657006836
 10
11.1112593842
 20
270.1042529297
 10
11.1112593842
 20
269.6042724609
 10
11.5279260635
 20
269.2656884766
 10
12.3612594223
 20
269.0885778809
 10
12.7779261017
 20
269.25
 10
12.7779261017
 20
269.7500061035
 10
12.3612594223
 20
270.0885644531
  0
LWPOLYLINE
  5
2DE
100
AcDbEntity
  8
0
100
AcDbPolyline
 62
2
  6
CONTINUOUS
 90
2
 70
0
 43
0.25
 10
12.7779261017
 20
271.0000085449
 10
11.1112593842
 20
271.3542553711
  0
LWPOLYLINE
  5
2DF
100
AcDbEntity
  8
0
100
AcDbPolyline
 62
2
  6
CONTINUOUS
 90
2
 70
0
 43
0.25
 10
11.9445927429
 20
271.1771191406
 10
11.9445927429
 20
272.1771313477
  0
LWPOLYLINE
  5
2E0
100
AcDbEntity
  8
0
100
AcDbPolyline
 62
2
  6
CONTINUOUS
 90
2
 70
0
 43
0.25
 10
11.1112593842
 20
272.3542675781
 10
12.7779261017
 20
271.9999951172
  0
LWPOLYLINE
  5
2E1
100
AcDbEntity
  8
0
100
AcDbPolyline
 62
2
  6
CONTINUOUS
 90
5
 70
0
 43
0.25
 10
12.7779261017
 20
273.1250024414
 10
12.7779261017
 20
273.0000073242
 10
12.5695923615
 20
273.0442785645
 10
12.5695923615
 20
273.1692736816
 10
12.7779261017
 20
273.1250024414
  0
LINE
  5
2E2
100
AcDbEntity
  8
0
100
AcDbLine
 62
7
  6
CONTINUOUS
 10
90.0
 20
278.0
 11
20.0
 21
278.0
  0
LINE
  5
2E3
100
AcDbEntity
  8
0
100
AcDbLine
 62
7
  6
CONTINUOUS
 10
90.0
 20
278.0
 11
90.0
 21
292.0
  0
LINE
  5
2E4
100
AcDbEntity
  8
0
100
AcDbLine
 62
7
  6
CONTINUOUS
 10
90.0
 20
292.0
 11
20.0
 21
292.0
  0
LINE
  5
2E5
100
AcDbEntity
  8
0
100
AcDbLine
 62
7
  6
CONTINUOUS
 10
20.0
 20
278.0
 11
20.0
 21
292.0
  0
LWPOLYLINE
  5
2E6
100
AcDbEntity
  8
0
100
AcDbPolyline
 62
2
  6
CONTINUOUS
 90
4
 70
0
 43
0.25
 10
83.2621032715
 20
281.5781945801
 10
84.7500027466
 20
288.578203125
 10
81.5121011353
 20
281.5781945801
 10
83.0000006104
 20
288.578203125
  0
LWPOLYLINE
  5
2E7
100
AcDbEntity
  8
0
100
AcDbPolyline
 62
2
  6
CONTINUOUS
 90
6
 70
0
 43
0.25
 10
81.2499984741
 20
288.578203125
 10
79.9374984741
 20
288.578203125
 10
79.2520184326
 20
287.4115136719
 10
79.0040341187
 20
286.2448498535
 10
79.1935519409
 20
285.0781860352
 10
80.5060519409
 20
285.0781860352
  0
LWPOLYLINE
  5
2E8
100
AcDbEntity
  8
0
100
AcDbPolyline
 62
2
  6
CONTINUOUS
 90
3
 70
0
 43
0.25
 10
81.2499984741
 20
288.578203125
 10
79.7621054077
 20
281.5781945801
 10
78.4496054077
 20
281.5781945801
  0
LWPOLYLINE
  5
2E9
100
AcDbEntity
  8
0
100
AcDbPolyline
 62
2
  6
CONTINUOUS
 90
7
 70
0
 43
0.25
 10
77.7500006104
 20
288.578203125
 10
76.2621011353
 20
281.5781945801
 10
74.9496011353
 20
281.5781945801
 10
74.7600897217
 20
282.7448583984
 10
75.008067627
 20
283.9115222168
 10
75.6935540771
 20
285.0781860352
 10
77.0060540771
 20
285.0781860352
  0
LWPOLYLINE
  5
2EA
100
AcDbEntity
  8
0
100
AcDbPolyline
 62
2
  6
CONTINUOUS
 90
10
 70
0
 43
0.25
 10
73.0100875854
 20
282.7448583984
 10
72.3246011353
 20
281.5781945801
 10
71.4496032715
 20
281.5781945801
 10
71.2600854492
 20
282.7448583984
 10
71.7560540771
 20
285.0781860352
 10
72.4415341187
 20
286.2448498535
 10
73.3165319824
 20
286.2448498535
 10
74.0020184326
 20
287.4115136719
 10
74.2500027466
 20
288.578203125
 10
72.5000006104
 20
288.578203125
  0
LWPOLYLINE
  5
2EB
100
AcDbEntity
  8
0
100
AcDbPolyline
 62
2
  6
CONTINUOUS
 90
5
 70
0
 43
0.25
 10
70.5312506104
 20
288.578203125
 10
70.7499984741
 20
288.578203125
 10
70.6260095215
 20
287.9948583984
 10
70.4072616577
 20
287.9948583984
 10
70.5312506104
 20
288.578203125
  0
LWPOLYLINE
  5
2EC
100
AcDbEntity
  8
0
100
AcDbPolyline
 62
2
  6
CONTINUOUS
 90
4
 70
0
 43
0.25
 10
66.8124984741
 20
288.578203125
 10
64.0121054077
 20
281.5781945801
 10
65.7621011353
 20
281.5781945801
 10
66.0100854492
 20
282.7448583984
  0
LWPOLYLINE
  5
2ED
100
AcDbEntity
  8
0
100
AcDbPolyline
 62
2
  6
CONTINUOUS
 90
6
 70
0
 43
0.25
 10
63.7500027466
 20
288.578203125
 10
62.4375027466
 20
288.578203125
 10
61.7520162964
 20
287.4115136719
 10
61.5040319824
 20
286.2448498535
 10
61.6935498047
 20
285.0781860352
 10
63.0060498047
 20
285.0781860352
  0
LWPOLYLINE
  5
2EE
100
AcDbEntity
  8
0
100
AcDbPolyline
 62
2
  6
CONTINUOUS
 90
3
 70
0
 43
0.25
 10
63.7500027466
 20
288.578203125
 10
62.2621032715
 20
281.5781945801
 10
60.9496032715
 20
281.5781945801
  0
LWPOLYLINE
  5
2EF
100
AcDbEntity
  8
0
100
AcDbPolyline
 62
2
  6
CONTINUOUS
 90
5
 70
0
 43
0.25
 10
60.0312506104
 20
288.578203125
 10
60.2499984741
 20
288.578203125
 10
60.1260095215
 20
287.9948583984
 10
59.9072616577
 20
287.9948583984
 10
60.0312506104
 20
288.578203125
  0
LWPOLYLINE
  5
2F0
100
AcDbEntity
  8
0
100
AcDbPolyline
 62
2
  6
CONTINUOUS
 90
9
 70
0
 43
0.25
 10
56.3124984741
 20
288.578203125
 10
56.5020162964
 20
287.4115136719
 10
55.5100854492
 20
282.7448583984
 10
54.8246054077
 20
281.5781945801
 10
53.9496011353
 20
281.5781945801
 10
53.7600897217
 20
282.7448583984
 10
54.7520141602
 20
287.4115136719
 10
55.4375006104
 20
288.578203125
 10
56.3124984741
 20
288.578203125
  0
LWPOLYLINE
  5
2F1
100
AcDbEntity
  8
0
100
AcDbPolyline
 62
2
  6
CONTINUOUS
 90
3
 70
0
 43
0.25
 10
51.1643197632
 20
283.9115222168
 10
50.2308554077
 20
281.5781945801
 10
51.7187484741
 20
288.578203125
  0
LWPOLYLINE
  5
2F2
100
AcDbEntity
  8
0
100
AcDbPolyline
 62
2
  6
CONTINUOUS
 90
2
 70
0
 43
0.25
 10
52.1562506104
 20
288.578203125
 10
51.2812495422
 20
288.578203125
  0
LWPOLYLINE
  5
2F3
100
AcDbEntity
  8
0
100
AcDbPolyline
 62
2
  6
CONTINUOUS
 90
5
 70
0
 43
0.25
 10
49.5312506104
 20
288.578203125
 10
49.7499984741
 20
288.578203125
 10
49.6260095215
 20
287.9948583984
 10
49.4072584534
 20
287.9948583984
 10
49.5312506104
 20
288.578203125
  0
LWPOLYLINE
  5
2F4
100
AcDbEntity
  8
0
100
AcDbPolyline
 62
2
  6
CONTINUOUS
 90
3
 70
0
 43
0.25
 10
44.1643208313
 20
283.9115222168
 10
43.2308532715
 20
281.5781945801
 10
44.7187495422
 20
288.578203125
  0
LWPOLYLINE
  5
2F5
100
AcDbEntity
  8
0
100
AcDbPolyline
 62
2
  6
CONTINUOUS
 90
2
 70
0
 43
0.25
 10
45.1562484741
 20
288.578203125
 10
44.2812506104
 20
288.578203125
  0
LWPOLYLINE
  5
2F6
100
AcDbEntity
  8
0
100
AcDbPolyline
 62
2
  6
CONTINUOUS
 90
9
 70
0
 43
0.25
 10
42.3125006104
 20
288.578203125
 10
42.5020184326
 20
287.4115136719
 10
41.5100875854
 20
282.7448583984
 10
40.8246043396
 20
281.5781945801
 10
39.9496032715
 20
281.5781945801
 10
39.7600854492
 20
282.7448583984
 10
40.7520162964
 20
287.4115136719
 10
41.4374995422
 20
288.578203125
 10
42.3125006104
 20
288.578203125
  0
LWPOLYLINE
  5
2F7
100
AcDbEntity
  8
0
100
AcDbPolyline
 62
2
  6
CONTINUOUS
 90
3
 70
0
 43
0.25
 10
37.1643186951
 20
283.9115222168
 10
36.2308543396
 20
281.5781945801
 10
37.7187506104
 20
288.578203125
  0
LWPOLYLINE
  5
2F8
100
AcDbEntity
  8
0
100
AcDbPolyline
 62
2
  6
CONTINUOUS
 90
2
 70
0
 43
0.25
 10
38.1562495422
 20
288.578203125
 10
37.2812484741
 20
288.578203125
  0
LWPOLYLINE
  5
2F9
100
AcDbEntity
  8
0
100
AcDbPolyline
 62
2
  6
CONTINUOUS
 90
5
 70
0
 43
0.25
 10
35.5312495422
 20
288.578203125
 10
35.7500006104
 20
288.578203125
 10
35.6260084534
 20
287.9948583984
 10
35.4072573853
 20
287.9948583984
 10
35.5312495422
 20
288.578203125
  0
LWPOLYLINE
  5
2FA
100
AcDbEntity
  8
0
100
AcDbPolyline
 62
2
  6
CONTINUOUS
 90
9
 70
0
 43
0.25
 10
31.8125006104
 20
288.578203125
 10
32.0020184326
 20
287.4115136719
 10
31.0100875854
 20
282.7448583984
 10
30.3246043396
 20
281.5781945801
 10
29.4496032715
 20
281.5781945801
 10
29.2600854492
 20
282.7448583984
 10
30.2520162964
 20
287.4115136719
 10
30.9374995422
 20
288.578203125
 10
31.8125006104
 20
288.578203125
  0
LWPOLYLINE
  5
2FB
100
AcDbEntity
  8
0
100
AcDbPolyline
 62
2
  6
CONTINUOUS
 90
10
 70
0
 43
0.25
 10
27.5100865173
 20
282.7448583984
 10
26.8246032715
 20
281.5781945801
 10
25.9496038055
 20
281.5781945801
 10
25.7600859833
 20
282.7448583984
 10
26.2560514069
 20
285.0781860352
 10
26.9415362549
 20
286.2448498535
 10
27.8165341187
 20
286.2448498535
 10
28.5020173645
 20
287.4115136719
 10
28.7499984741
 20
288.578203125
 10
26.9999995422
 20
288.578203125
  0
LINE
  5
2FC
100
AcDbEntity
  8
0
100
AcDbLine
 62
7
  6
CONTINUOUS
 10
415.0
 20
5.0
 11
230.0
 21
5.0
  0
LINE
  5
2FD
100
AcDbEntity
  8
0
100
AcDbLine
 62
7
  6
CONTINUOUS
 10
415.0
 20
5.0
 11
415.0
 21
60.0
  0
LINE
  5
2FE
100
AcDbEntity
  8
0
100
AcDbLine
 62
7
  6
CONTINUOUS
 10
295.0
 20
10.0
 11
230.0
 21
10.0
  0
LINE
  5
2FF
100
AcDbEntity
  8
0
100
AcDbLine
 62
7
  6
CONTINUOUS
 10
365.0
 20
12.5
 11
310.0
 21
12.5
  0
LINE
  5
300
100
AcDbEntity
  8
0
100
AcDbLine
 62
7
  6
CONTINUOUS
 10
295.0
 20
15.0
 11
230.0
 21
15.0
  0
LINE
  5
301
100
AcDbEntity
  8
0
100
AcDbLine
 62
7
  6
CONTINUOUS
 10
415.0
 20
20.0
 11
230.0
 21
20.0
  0
LINE
  5
302
100
AcDbEntity
  8
0
100
AcDbLine
 62
7
  6
CONTINUOUS
 10
415.0
 20
25.0
 11
365.0
 21
25.0
  0
LINE
  5
303
100
AcDbEntity
  8
0
100
AcDbLine
 62
7
  6
CONTINUOUS
 10
295.0
 20
25.0
 11
230.0
 21
25.0
  0
LINE
  5
304
100
AcDbEntity
  8
0
100
AcDbLine
 62
7
  6
CONTINUOUS
 10
295.0
 20
30.0
 11
230.0
 21
30.0
  0
LINE
  5
305
100
AcDbEntity
  8
0
100
AcDbLine
 62
7
  6
CONTINUOUS
 10
295.0
 20
35.0
 11
230.0
 21
35.0
  0
LINE
  5
306
100
AcDbEntity
  8
0
100
AcDbLine
 62
7
  6
CONTINUOUS
 10
415.0
 20
40.0
 11
365.0
 21
40.0
  0
LINE
  5
307
100
AcDbEntity
  8
0
100
AcDbLine
 62
7
  6
CONTINUOUS
 10
295.0
 20
40.0
 11
230.0
 21
40.0
  0
LINE
  5
308
100
AcDbEntity
  8
0
100
AcDbLine
 62
7
  6
CONTINUOUS
 10
415.0
 20
45.0
 11
230.0
 21
45.0
  0
LINE
  5
309
100
AcDbEntity
  8
0
100
AcDbLine
 62
7
  6
CONTINUOUS
 10
295.0
 20
50.0
 11
230.0
 21
50.0
  0
LINE
  5
30A
100
AcDbEntity
  8
0
100
AcDbLine
 62
7
  6
CONTINUOUS
 10
295.0
 20
55.0
 11
230.0
 21
55.0
  0
LINE
  5
30B
100
AcDbEntity
  8
0
100
AcDbLine
 62
7
  6
CONTINUOUS
 10
415.0
 20
60.0
 11
230.0
 21
60.0
  0
LINE
  5
30C
100
AcDbEntity
  8
0
100
AcDbLine
 62
7
  6
CONTINUOUS
 10
397.0
 20
25.0
 11
397.0
 21
45.0
  0
LINE
  5
30D
100
AcDbEntity
  8
0
100
AcDbLine
 62
7
  6
CONTINUOUS
 10
385.0
 20
20.0
 11
385.0
 21
25.0
  0
LINE
  5
30E
100
AcDbEntity
  8
0
100
AcDbLine
 62
7
  6
CONTINUOUS
 10
380.0
 20
25.0
 11
380.0
 21
45.0
  0
LINE
  5
30F
100
AcDbEntity
  8
0
100
AcDbLine
 62
7
  6
CONTINUOUS
 10
375.0
 20
25.0
 11
375.0
 21
40.0
  0
LINE
  5
310
100
AcDbEntity
  8
0
100
AcDbLine
 62
7
  6
CONTINUOUS
 10
370.0
 20
25.0
 11
370.0
 21
40.0
  0
LINE
  5
311
100
AcDbEntity
  8
0
100
AcDbLine
 62
7
  6
CONTINUOUS
 10
365.0
 20
5.0
 11
365.0
 21
45.0
  0
LINE
  5
312
100
AcDbEntity
  8
0
100
AcDbLine
 62
7
  6
CONTINUOUS
 10
295.0
 20
5.0
 11
295.0
 21
60.0
  0
LINE
  5
313
100
AcDbEntity
  8
0
100
AcDbLine
 62
7
  6
CONTINUOUS
 10
285.0
 20
5.0
 11
285.0
 21
60.0
  0
LINE
  5
314
100
AcDbEntity
  8
0
100
AcDbLine
 62
7
  6
CONTINUOUS
 10
270.0
 20
5.0
 11
270.0
 21
60.0
  0
LINE
  5
315
100
AcDbEntity
  8
0
100
AcDbLine
 62
7
  6
CONTINUOUS
 10
247.0
 20
5.0
 11
247.0
 21
60.0
  0
LINE
  5
316
100
AcDbEntity
  8
0
100
AcDbLine
 62
7
  6
CONTINUOUS
 10
237.0
 20
35.0
 11
237.0
 21
60.0
  0
LINE
  5
317
100
AcDbEntity
  8
0
100
AcDbLine
 62
7
  6
CONTINUOUS
 10
230.0
 20
5.0
 11
230.0
 21
60.0
  0
LWPOLYLINE
  5
318
100
AcDbEntity
  8
0
100
AcDbPolyline
 62
2
  6
CONTINUOUS
 90
7
 70
0
 43
0.25
 10
382.8000073242
 20
9.4329794312
 10
384.0753369141
 20
15.4329789734
 10
385.4253405762
 20
15.4329789734
 10
385.6627954102
 20
14.4329795837
 10
385.4502319336
 20
13.4329769897
 10
384.7876757812
 20
12.4329776001
 10
383.4376721191
 20
12.4329776001
  0
LWPOLYLINE
  5
319
100
AcDbEntity
  8
0
100
AcDbPolyline
 62
2
  6
CONTINUOUS
 90
4
 70
0
 43
0.25
 10
386.4
 20
9.4329794312
 10
387.6753295898
 20
15.4329789734
 10
388.1999963379
 20
9.4329794312
 10
389.4753515625
 20
15.4329789734
  0
LWPOLYLINE
  5
31A
100
AcDbEntity
  8
0
100
AcDbPolyline
 62
2
  6
CONTINUOUS
 90
7
 70
0
 43
0.25
 10
389.9999926758
 20
9.4329794312
 10
391.2753479004
 20
15.4329789734
 10
392.6253515625
 20
15.4329789734
 10
392.8627807617
 20
14.4329795837
 10
392.6502172852
 20
13.4329769897
 10
391.9876611328
 20
12.4329776001
 10
390.6376574707
 20
12.4329776001
  0
LWPOLYLINE
  5
31B
100
AcDbEntity
  8
0
100
AcDbPolyline
 62
2
  6
CONTINUOUS
 90
2
 70
0
 43
0.25
 10
394.8753405762
 20
15.4329789734
 10
395.7753515625
 20
15.4329789734
  0
LWPOLYLINE
  5
31C
100
AcDbEntity
  8
0
100
AcDbPolyline
 62
2
  6
CONTINUOUS
 90
2
 70
0
 43
0.25
 10
395.325333252
 20
15.4329789734
 10
394.0500036621
 20
9.4329794312
  0
LWPOLYLINE
  5
31D
100
AcDbEntity
  8
0
100
AcDbPolyline
 62
2
  6
CONTINUOUS
 90
2
 70
0
 43
0.25
 10
393.6000109863
 20
9.4329794312
 10
394.4999963379
 20
9.4329794312
  0
LWPOLYLINE
  5
31E
100
AcDbEntity
  8
0
100
AcDbPolyline
 62
2
  6
CONTINUOUS
 90
11
 70
0
 43
0.25
 10
383.2451550293
 20
3.9724667358
 10
383.0001635742
 20
3.9724667358
 10
382.6559655762
 20
3.505798645
 10
382.457578125
 20
2.5724656677
 10
382.6033886719
 20
2.1058007812
 10
383.0933972168
 20
2.1058007812
 10
383.4375695801
 20
2.5724656677
 10
383.6359570312
 20
3.505798645
 10
383.4901464844
 20
3.9724667358
 10
383.2451550293
 20
3.9724667358
 10
382.6499926758
 20
1.172467804
  0
LWPOLYLINE
  5
31F
100
AcDbEntity
  8
0
100
AcDbPolyline
 62
2
  6
CONTINUOUS
 90
9
 70
0
 43
0.25
 10
384.2191992187
 20
1.6391326904
 10
384.3650097656
 20
1.172467804
 10
384.8549926758
 20
1.172467804
 10
385.1991906738
 20
1.6391326904
 10
385.397578125
 20
2.5724656677
 10
385.2517675781
 20
3.0391337585
 10
384.761784668
 20
3.0391337585
 10
384.4175866699
 20
2.5724656677
 10
384.2191992187
 20
1.6391326904
  0
LWPOLYLINE
  5
320
100
AcDbEntity
  8
0
100
AcDbPolyline
 62
2
  6
CONTINUOUS
 90
2
 70
0
 43
0.25
 10
385.8816137695
 20
0.2391316223
 10
386.476776123
 20
3.0391337585
  0
LWPOLYLINE
  5
321
100
AcDbEntity
  8
0
100
AcDbPolyline
 62
2
  6
CONTINUOUS
 90
7
 70
0
 43
0.25
 10
386.0800012207
 20
1.172467804
 10
386.8150012207
 20
1.172467804
 10
387.1591992187
 20
1.6391326904
 10
387.3575866699
 20
2.5724656677
 10
387.211776123
 20
3.0391337585
 10
386.7217675781
 20
3.0391337585
 10
386.3775695801
 20
2.5724656677
  0
LWPOLYLINE
  5
322
100
AcDbEntity
  8
0
100
AcDbPolyline
 62
2
  6
CONTINUOUS
 90
5
 70
0
 43
0.25
 10
388.0400097656
 20
1.172467804
 10
388.436784668
 20
3.0391337585
 10
388.728380127
 20
2.1058007812
 10
389.416776123
 20
3.0391337585
 10
389.0200012207
 20
1.172467804
  0
LWPOLYLINE
  5
323
100
AcDbEntity
  8
0
100
AcDbPolyline
 62
2
  6
CONTINUOUS
 90
8
 70
0
 43
0.25
 10
391.277578125
 20
2.5724656677
 10
391.1317675781
 20
3.0391337585
 10
390.641784668
 20
3.0391337585
 10
390.2975866699
 20
2.5724656677
 10
390.0991992187
 20
1.6391326904
 10
390.2450097656
 20
1.172467804
 10
390.7349926758
 20
1.172467804
 10
391.0791906738
 20
1.6391326904
  0
LWPOLYLINE
  5
324
100
AcDbEntity
  8
0
100
AcDbPolyline
 62
2
  6
CONTINUOUS
 90
3
 70
0
 43
0.25
 10
391.376784668
 20
3.0391337585
 10
391.0791906738
 20
1.6391326904
 10
391.1024926758
 20
1.172467804
  0
LWPOLYLINE
  5
325
100
AcDbEntity
  8
0
100
AcDbPolyline
 62
2
  6
CONTINUOUS
 90
2
 70
0
 43
0.25
 10
391.9600012207
 20
1.172467804
 10
392.356776123
 20
3.0391337585
  0
LWPOLYLINE
  5
326
100
AcDbEntity
  8
0
100
AcDbPolyline
 62
2
  6
CONTINUOUS
 90
4
 70
0
 43
0.25
 10
392.2575695801
 20
2.5724656677
 10
392.6017675781
 20
3.0391337585
 10
392.747578125
 20
2.5724656677
 10
392.4500097656
 20
1.172467804
  0
LWPOLYLINE
  5
327
100
AcDbEntity
  8
0
100
AcDbPolyline
 62
2
  6
CONTINUOUS
 90
4
 70
0
 43
0.25
 10
392.747578125
 20
2.5724656677
 10
393.091776123
 20
3.0391337585
 10
393.2375866699
 20
2.5724656677
 10
392.9399926758
 20
1.172467804
  0
LWPOLYLINE
  5
328
100
AcDbEntity
  8
0
100
AcDbPolyline
 62
2
  6
CONTINUOUS
 90
3
 70
0
 43
0.25
 10
395.8799926758
 20
1.172467804
 10
396.9651635742
 20
3.9724667358
 10
396.8600097656
 20
1.172467804
  0
LWPOLYLINE
  5
329
100
AcDbEntity
  8
0
100
AcDbPolyline
 62
2
  6
CONTINUOUS
 90
2
 70
0
 43
0.25
 10
396.3233972168
 20
2.1058007812
 10
396.813380127
 20
2.1058007812
  0
LWPOLYLINE
  5
32A
100
AcDbEntity
  8
0
100
AcDbPolyline
 62
2
  6
CONTINUOUS
 90
10
 70
0
 43
0.25
 10
321.5106408691
 20
10.3608137512
 10
321.969041748
 20
11.1941487122
 10
322.5315454102
 20
11.1941487122
 10
322.6356481934
 20
10.3608137512
 10
322.2814013672
 20
8.6941470337
 10
321.8230004883
 20
7.8608152771
 10
321.2605224609
 20
7.8608152771
 10
320.802121582
 20
7.0274803162
 10
320.6250109863
 20
6.1941485596
 10
321.7499926758
 20
6.1941485596
  0
LWPOLYLINE
  5
32B
100
AcDbEntity
  8
0
100
AcDbPolyline
 62
2
  6
CONTINUOUS
 90
9
 70
0
 43
0.25
 10
323.1562390137
 20
6.1941485596
 10
323.0521362305
 20
7.0274803162
 10
323.7606555176
 20
10.3608137512
 10
324.2190307617
 20
11.1941487122
 10
324.7815344238
 20
11.1941487122
 10
324.8856628418
 20
10.3608137512
 10
324.1771179199
 20
7.0274803162
 10
323.7187426758
 20
6.1941485596
 10
323.1562390137
 20
6.1941485596
  0
LWPOLYLINE
  5
32C
100
AcDbEntity
  8
0
100
AcDbPolyline
 62
2
  6
CONTINUOUS
 90
3
 70
0
 43
0.25
 10
327.3750036621
 20
6.1941485596
 10
328.4377954102
 20
11.1941487122
 10
329.5627770996
 20
11.1941487122
  0
LWPOLYLINE
  5
32D
100
AcDbEntity
  8
0
100
AcDbPolyline
 62
2
  6
CONTINUOUS
 90
9
 70
0
 43
0.25
 10
329.9062573242
 20
6.1941485596
 10
329.8021289063
 20
7.0274803162
 10
330.5106481934
 20
10.3608137512
 10
330.9690234375
 20
11.1941487122
 10
331.5315270996
 20
11.1941487122
 10
331.6356555176
 20
10.3608137512
 10
330.9271362305
 20
7.0274803162
 10
330.4687609863
 20
6.1941485596
 10
329.9062573242
 20
6.1941485596
  0
LWPOLYLINE
  5
32E
100
AcDbEntity
  8
0
100
AcDbPolyline
 62
2
  6
CONTINUOUS
 90
8
 70
0
 43
0.25
 10
333.8856445312
 20
10.3608137512
 10
333.781541748
 20
11.1941487122
 10
333.2190380859
 20
11.1941487122
 10
332.7606628418
 20
10.3608137512
 10
332.0521179199
 20
7.0274803162
 10
332.1562463379
 20
6.1941485596
 10
332.71875
 20
6.1941485596
 10
333.1771252441
 20
7.0274803162
  0
LWPOLYLINE
  5
32F
100
AcDbEntity
  8
0
100
AcDbPolyline
 62
2
  6
CONTINUOUS
 90
2
 70
0
 43
0.25
 10
335.1877880859
 20
11.1941487122
 10
336.3127954102
 20
11.1941487122
  0
LWPOLYLINE
  5
330
100
AcDbEntity
  8
0
100
AcDbPolyline
 62
2
  6
CONTINUOUS
 90
2
 70
0
 43
0.25
 10
335.750291748
 20
11.1941487122
 10
334.6875
 20
6.1941485596
  0
LWPOLYLINE
  5
331
100
AcDbEntity
  8
0
100
AcDbPolyline
 62
2
  6
CONTINUOUS
 90
3
 70
0
 43
0.25
 10
340.0366552734
 20
9.5274819946
 10
340.672166748
 20
11.1941487122
 10
339.609375
 20
6.1941485596
  0
LWPOLYLINE
  5
332
100
AcDbEntity
  8
0
100
AcDbPolyline
 62
2
  6
CONTINUOUS
 90
2
 70
0
 43
0.25
 10
339.3281359863
 20
6.1941485596
 10
339.8906140137
 20
6.1941485596
  0
LWPOLYLINE
  5
333
100
AcDbEntity
  8
0
100
AcDbPolyline
 62
2
  6
CONTINUOUS
 90
9
 70
0
 43
0.25
 10
341.0521252441
 20
7.0274803162
 10
341.1562536621
 20
6.1941485596
 10
341.7187573242
 20
6.1941485596
 10
342.1771325684
 20
7.0274803162
 10
342.5313793945
 20
8.6941470337
 10
342.4272766113
 20
9.5274819946
 10
341.5835339355
 20
9.5274819946
 10
341.9377807617
 20
11.1941487122
 10
343.0627880859
 20
11.1941487122
  0
LWPOLYLINE
  5
334
100
AcDbEntity
  8
0
100
AcDbPolyline
 62
2
  6
CONTINUOUS
 90
4
 70
0
 43
0.25
 10
343.4062426758
 20
6.1941485596
 10
345.3127770996
 20
11.1941487122
 10
344.1877954102
 20
11.1941487122
 10
344.0106591797
 20
10.3608137512
  0
LWPOLYLINE
  5
335
100
AcDbEntity
  8
0
100
AcDbPolyline
 62
2
  6
CONTINUOUS
 90
4
 70
0
 43
0.25
 10
345.6562573242
 20
6.1941485596
 10
347.562791748
 20
11.1941487122
 10
346.4377844238
 20
11.1941487122
 10
346.2606481934
 20
10.3608137512
  0
LWPOLYLINE
  5
336
100
AcDbEntity
  8
0
100
AcDbPolyline
 62
2
  6
CONTINUOUS
 90
2
 70
0
 43
0.25
 10
348.718894043
 20
8.6941470337
 10
349.8439013672
 20
8.6941470337
  0
LWPOLYLINE
  5
337
100
AcDbEntity
  8
0
100
AcDbPolyline
 62
2
  6
CONTINUOUS
 90
12
 70
0
 43
0.25
 10
350.0521325684
 20
7.0274803162
 10
350.1562609863
 20
6.1941485596
 10
350.7187390137
 20
6.1941485596
 10
351.1771398926
 20
7.0274803162
 10
351.8856591797
 20
10.3608137512
 10
351.7815307617
 20
11.1941487122
 10
351.2190270996
 20
11.1941487122
 10
350.7606518555
 20
10.3608137512
 10
350.4063793945
 20
8.6941470337
 10
350.5105078125
 20
7.8608152771
 10
351.0730114746
 20
7.8608152771
 10
351.5313867188
 20
8.6941470337
  0
LWPOLYLINE
  5
338
100
AcDbEntity
  8
0
100
AcDbPolyline
 62
2
  6
CONTINUOUS
 90
9
 70
0
 43
0.25
 10
353.1877770996
 20
11.1941487122
 10
354.3127844238
 20
11.1941487122
 10
353.3960339355
 20
9.5274819946
 10
353.6772729492
 20
9.5274819946
 10
353.7814013672
 20
8.6941470337
 10
353.4271289063
 20
7.0274803162
 10
352.9687536621
 20
6.1941485596
 10
352.40625
 20
6.1941485596
 10
352.302121582
 20
7.0274803162
  0
LWPOLYLINE
  5
339
100
AcDbEntity
  8
0
100
AcDbPolyline
 62
2
  6
CONTINUOUS
 90
3
 70
0
 43
0.25
 10
297.4999914551
 20
9.9441494751
 10
299.1877844238
 20
14.9441496277
 10
298.7499938965
 20
9.9441494751
  0
LWPOLYLINE
  5
33A
100
AcDbEntity
  8
0
100
AcDbPolyline
 62
2
  6
CONTINUOUS
 90
5
 70
0
 43
0.25
 10
300.708515625
 20
13.2774829102
 10
300.1771325684
 20
10.7774812317
 10
300.3125097656
 20
9.9441494751
 10
300.6249975586
 20
9.9441494751
 10
301.6042712402
 20
11.6108161926
  0
LWPOLYLINE
  5
33B
100
AcDbEntity
  8
0
100
AcDbPolyline
 62
2
  6
CONTINUOUS
 90
2
 70
0
 43
0.25
 10
301.9585180664
 20
13.2774829102
 10
301.2499987793
 20
9.9441494751
  0
LWPOLYLINE
  5
33C
100
AcDbEntity
  8
0
100
AcDbPolyline
 62
2
  6
CONTINUOUS
 90
8
 70
0
 43
0.25
 10
304.2813867188
 20
12.4441479492
 10
304.1460095215
 20
13.2774829102
 10
303.5210339355
 20
13.2774829102
 10
303.0313842773
 20
12.4441479492
 10
302.6771374512
 20
10.7774812317
 10
302.8124890137
 20
9.9441494751
 10
303.4374902344
 20
9.9441494751
 10
303.9271398926
 20
10.7774812317
  0
LWPOLYLINE
  5
33D
100
AcDbEntity
  8
0
100
AcDbPolyline
 62
2
  6
CONTINUOUS
 90
2
 70
0
 43
0.25
 10
305.0000061035
 20
9.9441494751
 10
305.7085253906
 20
13.2774829102
  0
LWPOLYLINE
  5
33E
100
AcDbEntity
  8
0
100
AcDbPolyline
 62
2
  6
CONTINUOUS
 90
4
 70
0
 43
0.25
 10
305.5313891602
 20
12.4441479492
 10
306.0210131836
 20
13.2774829102
 10
306.1563903809
 20
12.4441479492
 10
305.6250073242
 20
9.9441494751
  0
LWPOLYLINE
  5
33F
100
AcDbEntity
  8
0
100
AcDbPolyline
 62
2
  6
CONTINUOUS
 90
4
 70
0
 43
0.25
 10
306.1563903809
 20
12.4441479492
 10
306.6460144043
 20
13.2774829102
 10
306.7813916016
 20
12.4441479492
 10
306.2500085449
 20
9.9441494751
  0
LWPOLYLINE
  5
340
100
AcDbEntity
  8
0
100
AcDbPolyline
 62
2
  6
CONTINUOUS
 90
6
 70
0
 43
0.25
 10
248.4499951172
 20
5.7875779724
 10
249.2037597656
 20
5.7875779724
 10
249.5736694336
 20
6.3459127808
 10
249.6923583984
 20
6.9042475891
 10
249.5597753906
 20
7.4625791931
 10
248.806036377
 20
7.4625791931
  0
LWPOLYLINE
  5
341
100
AcDbEntity
  8
0
100
AcDbPolyline
 62
2
  6
CONTINUOUS
 90
3
 70
0
 43
0.25
 10
248.4499951172
 20
5.7875779724
 10
249.162052002
 20
9.1375804138
 10
249.9158166504
 20
9.1375804138
  0
LWPOLYLINE
  5
342
100
AcDbEntity
  8
0
100
AcDbPolyline
 62
2
  6
CONTINUOUS
 90
2
 70
0
 43
0.25
 10
250.9347216797
 20
8.0209140015
 10
250.9625097656
 20
5.7875779724
  0
LWPOLYLINE
  5
343
100
AcDbEntity
  8
0
100
AcDbPolyline
 62
2
  6
CONTINUOUS
 90
3
 70
0
 43
0.25
 10
250.2226391602
 20
4.6709115601
 10
250.473885498
 20
4.6709115601
 10
251.9397070312
 20
8.0209140015
  0
LWPOLYLINE
  5
344
100
AcDbEntity
  8
0
100
AcDbPolyline
 62
2
  6
CONTINUOUS
 90
3
 70
0
 43
0.25
 10
252.469987793
 20
5.7875779724
 10
253.4472106934
 20
8.0209140015
 10
253.4749987793
 20
5.7875779724
  0
LWPOLYLINE
  5
345
100
AcDbEntity
  8
0
100
AcDbPolyline
 62
2
  6
CONTINUOUS
 90
2
 70
0
 43
0.25
 10
254.9547143555
 20
8.0209140015
 10
254.4800097656
 20
5.7875779724
  0
LWPOLYLINE
  5
346
100
AcDbEntity
  8
0
100
AcDbPolyline
 62
2
  6
CONTINUOUS
 90
2
 70
0
 43
0.25
 10
254.5986730957
 20
6.3459127808
 10
255.959699707
 20
8.0209140015
  0
LWPOLYLINE
  5
347
100
AcDbEntity
  8
0
100
AcDbPolyline
 62
2
  6
CONTINUOUS
 90
2
 70
0
 43
0.25
 10
255.09421875
 20
6.9042475891
 10
255.4849951172
 20
5.7875779724
  0
LWPOLYLINE
  5
348
100
AcDbEntity
  8
0
100
AcDbPolyline
 62
2
  6
CONTINUOUS
 90
5
 70
0
 43
0.25
 10
256.9647106934
 20
8.0209140015
 10
256.6086694336
 20
6.3459127808
 10
256.7412524414
 20
5.7875779724
 10
256.9924987793
 20
5.7875779724
 10
257.73234375
 20
6.9042475891
  0
LWPOLYLINE
  5
349
100
AcDbEntity
  8
0
100
AcDbPolyline
 62
2
  6
CONTINUOUS
 90
2
 70
0
 43
0.25
 10
257.9697216797
 20
8.0209140015
 10
257.4949914551
 20
5.7875779724
  0
LWPOLYLINE
  5
34A
100
AcDbEntity
  8
0
100
AcDbPolyline
 62
2
  6
CONTINUOUS
 90
2
 70
0
 43
0.25
 10
258.5000024414
 20
5.7875779724
 10
258.9747070312
 20
8.0209140015
  0
LWPOLYLINE
  5
34B
100
AcDbEntity
  8
0
100
AcDbPolyline
 62
2
  6
CONTINUOUS
 90
2
 70
0
 43
0.25
 10
258.7373547363
 20
6.9042475891
 10
259.7423657227
 20
6.9042475891
  0
LWPOLYLINE
  5
34C
100
AcDbEntity
  8
0
100
AcDbPolyline
 62
2
  6
CONTINUOUS
 90
2
 70
0
 43
0.25
 10
259.9797180176
 20
8.0209140015
 10
259.504987793
 20
5.7875779724
  0
LWPOLYLINE
  5
34D
100
AcDbEntity
  8
0
100
AcDbPolyline
 62
2
  6
CONTINUOUS
 90
3
 70
0
 43
0.25
 10
262.5199951172
 20
5.7875779724
 10
263.7345703125
 20
9.1375804138
 10
263.5250061035
 20
5.7875779724
  0
LWPOLYLINE
  5
34E
100
AcDbEntity
  8
0
100
AcDbPolyline
 62
2
  6
CONTINUOUS
 90
2
 70
0
 43
0.25
 10
263.00859375
 20
6.9042475891
 10
263.5111120605
 20
6.9042475891
  0
LWPOLYLINE
  5
34F
100
AcDbEntity
  8
0
100
AcDbPolyline
 62
2
  6
CONTINUOUS
 90
5
 70
0
 43
0.25
 10
264.6556274414
 20
5.7875779724
 10
264.5299914551
 20
5.7875779724
 10
264.5893359375
 20
6.0667469788
 10
264.7149719238
 20
6.0667469788
 10
264.6556274414
 20
5.7875779724
  0
LWPOLYLINE
  5
350
100
AcDbEntity
  8
0
100
AcDbPolyline
 62
2
  6
CONTINUOUS
 90
4
 70
0
 43
0.25
 10
266.539987793
 20
5.7875779724
 10
267.2520703125
 20
9.1375804138
 10
268.2570556641
 20
9.1375804138
 10
267.5449987793
 20
5.7875779724
  0
LWPOLYLINE
  5
351
100
AcDbEntity
  8
0
100
AcDbPolyline
 62
2
  6
CONTINUOUS
 90
5
 70
0
 43
0.25
 10
234.5986853027
 20
6.3459127808
 10
234.7312426758
 20
5.7875779724
 10
235.2337609863
 20
5.7875779724
 10
235.6036706543
 20
6.3459127808
 10
236.197064209
 20
9.1375804138
  0
LWPOLYLINE
  5
352
100
AcDbEntity
  8
0
100
AcDbPolyline
 62
2
  6
CONTINUOUS
 90
4
 70
0
 43
0.25
 10
235.1920532227
 20
9.1375804138
 10
234.9547009277
 20
8.0209140015
 10
235.0872839355
 20
7.4625791931
 10
235.8410229492
 20
7.4625791931
  0
LWPOLYLINE
  5
353
100
AcDbEntity
  8
0
100
AcDbPolyline
 62
2
  6
CONTINUOUS
 90
2
 70
0
 43
0.25
 10
236.4899926758
 20
5.7875779724
 10
236.9646972656
 20
8.0209140015
  0
LWPOLYLINE
  5
354
100
AcDbEntity
  8
0
100
AcDbPolyline
 62
2
  6
CONTINUOUS
 90
4
 70
0
 43
0.25
 10
236.8460339355
 20
7.4625791931
 10
237.2159692383
 20
8.0209140015
 10
237.3485266113
 20
7.4625791931
 10
236.9925109863
 20
5.7875779724
  0
LWPOLYLINE
  5
355
100
AcDbEntity
  8
0
100
AcDbPolyline
 62
2
  6
CONTINUOUS
 90
4
 70
0
 43
0.25
 10
237.3485266113
 20
7.4625791931
 10
237.7184619141
 20
8.0209140015
 10
237.8510449219
 20
7.4625791931
 10
237.4950036621
 20
5.7875779724
  0
LWPOLYLINE
  5
356
100
AcDbEntity
  8
0
100
AcDbPolyline
 62
2
  6
CONTINUOUS
 90
12
 70
0
 43
0.25
 10
238.8560302734
 20
7.4625791931
 10
239.5958752441
 20
8.5792456055
 10
239.714564209
 20
9.1375804138
 10
239.4633178711
 20
9.1375804138
 10
239.0933825684
 20
8.5792456055
 10
238.6186779785
 20
6.3459127808
 10
238.7512609863
 20
5.7875779724
 10
239.2537536621
 20
5.7875779724
 10
239.6236889648
 20
6.3459127808
 10
239.8610412598
 20
7.4625791931
 10
239.728458252
 20
8.0209140015
 10
239.2259655762
 20
8.0209140015
  0
LWPOLYLINE
  5
357
100
AcDbEntity
  8
0
100
AcDbPolyline
 62
2
  6
CONTINUOUS
 90
5
 70
0
 43
0.25
 10
240.6356213379
 20
5.7875779724
 10
240.5100109863
 20
5.7875779724
 10
240.569329834
 20
6.0667469788
 10
240.6949658203
 20
6.0667469788
 10
240.6356213379
 20
5.7875779724
  0
LWPOLYLINE
  5
358
100
AcDbEntity
  8
0
100
AcDbPolyline
 62
2
  6
CONTINUOUS
 90
2
 70
0
 43
0.25
 10
230.4600036621
 20
10.787578125
 10
231.1720605469
 20
14.1375805664
  0
LWPOLYLINE
  5
359
100
AcDbEntity
  8
0
100
AcDbPolyline
 62
2
  6
CONTINUOUS
 90
2
 70
0
 43
0.25
 10
230.8160449219
 20
12.4625793457
 10
231.8210302734
 20
12.4625793457
  0
LWPOLYLINE
  5
35A
100
AcDbEntity
  8
0
100
AcDbPolyline
 62
2
  6
CONTINUOUS
 90
2
 70
0
 43
0.25
 10
232.1770715332
 20
14.1375805664
 10
231.4649890137
 20
10.787578125
  0
LWPOLYLINE
  5
35B
100
AcDbEntity
  8
0
100
AcDbPolyline
 62
2
  6
CONTINUOUS
 90
5
 70
0
 43
0.25
 10
232.5956359863
 20
10.787578125
 10
232.47
 20
10.787578125
 10
232.5293444824
 20
11.0667471313
 10
232.654954834
 20
11.0667471313
 10
232.5956359863
 20
10.787578125
  0
LWPOLYLINE
  5
35C
100
AcDbEntity
  8
0
100
AcDbPolyline
 62
2
  6
CONTINUOUS
 90
2
 70
0
 43
0.25
 10
234.9547009277
 20
13.0209141541
 10
234.4799963379
 20
10.787578125
  0
LWPOLYLINE
  5
35D
100
AcDbEntity
  8
0
100
AcDbPolyline
 62
2
  6
CONTINUOUS
 90
2
 70
0
 43
0.25
 10
234.5986853027
 20
11.3459129333
 10
235.9597119141
 20
13.0209141541
  0
LWPOLYLINE
  5
35E
100
AcDbEntity
  8
0
100
AcDbPolyline
 62
2
  6
CONTINUOUS
 90
2
 70
0
 43
0.25
 10
235.094230957
 20
11.9042477417
 10
235.4850073242
 20
10.787578125
  0
LWPOLYLINE
  5
35F
100
AcDbEntity
  8
0
100
AcDbPolyline
 62
2
  6
CONTINUOUS
 90
9
 70
0
 43
0.25
 10
236.6086816406
 20
11.3459129333
 10
236.7412390137
 20
10.787578125
 10
237.2437573242
 20
10.787578125
 10
237.6136669922
 20
11.3459129333
 10
237.8510449219
 20
12.4625793457
 10
237.7184619141
 20
13.0209141541
 10
237.2159692383
 20
13.0209141541
 10
236.8460339355
 20
12.4625793457
 10
236.6086816406
 20
11.3459129333
  0
LWPOLYLINE
  5
360
100
AcDbEntity
  8
0
100
AcDbPolyline
 62
2
  6
CONTINUOUS
 90
2
 70
0
 43
0.25
 10
238.4999890137
 20
10.787578125
 10
238.9747192383
 20
13.0209141541
  0
LWPOLYLINE
  5
361
100
AcDbEntity
  8
0
100
AcDbPolyline
 62
2
  6
CONTINUOUS
 90
2
 70
0
 43
0.25
 10
238.7373669434
 20
11.9042477417
 10
239.7423522949
 20
11.9042477417
  0
LWPOLYLINE
  5
362
100
AcDbEntity
  8
0
100
AcDbPolyline
 62
2
  6
CONTINUOUS
 90
2
 70
0
 43
0.25
 10
239.9797045898
 20
13.0209141541
 10
239.505
 20
10.787578125
  0
LWPOLYLINE
  5
363
100
AcDbEntity
  8
0
100
AcDbPolyline
 62
2
  6
CONTINUOUS
 90
2
 70
0
 43
0.25
 10
240.5100109863
 20
10.787578125
 10
240.9847155762
 20
13.0209141541
  0
LWPOLYLINE
  5
364
100
AcDbEntity
  8
0
100
AcDbPolyline
 62
2
  6
CONTINUOUS
 90
4
 70
0
 43
0.25
 10
240.8660266113
 20
12.4625793457
 10
241.2359619141
 20
13.0209141541
 10
241.3685449219
 20
12.4625793457
 10
241.0125036621
 20
10.787578125
  0
LWPOLYLINE
  5
365
100
AcDbEntity
  8
0
100
AcDbPolyline
 62
2
  6
CONTINUOUS
 90
4
 70
0
 43
0.25
 10
241.3685449219
 20
12.4625793457
 10
241.7384545898
 20
13.0209141541
 10
241.8710375977
 20
12.4625793457
 10
241.5149963379
 20
10.787578125
  0
LWPOLYLINE
  5
366
100
AcDbEntity
  8
0
100
AcDbPolyline
 62
2
  6
CONTINUOUS
 90
2
 70
0
 43
0.25
 10
242.2826550293
 20
9.6709117126
 10
242.9947119141
 20
13.0209141541
  0
LWPOLYLINE
  5
367
100
AcDbEntity
  8
0
100
AcDbPolyline
 62
2
  6
CONTINUOUS
 90
7
 70
0
 43
0.25
 10
242.5200073242
 20
10.787578125
 10
243.2737463379
 20
10.787578125
 10
243.6436816406
 20
11.3459129333
 10
243.8810339355
 20
12.4625793457
 10
243.7484509277
 20
13.0209141541
 10
243.245958252
 20
13.0209141541
 10
242.8760229492
 20
12.4625793457
  0
LWPOLYLINE
  5
368
100
AcDbEntity
  8
0
100
AcDbPolyline
 62
2
  6
CONTINUOUS
 90
5
 70
0
 43
0.25
 10
244.6556140137
 20
10.787578125
 10
244.5300036621
 20
10.787578125
 10
244.5893481445
 20
11.0667471313
 10
244.7149584961
 20
11.0667471313
 10
244.6556140137
 20
10.787578125
  0
LWPOLYLINE
  5
369
100
AcDbEntity
  8
0
100
AcDbPolyline
 62
2
  6
CONTINUOUS
 90
3
 70
0
 43
0.25
 10
318.9897692871
 20
17.0274806213
 10
319.656529541
 20
18.6941473389
 10
318.593737793
 20
13.6941471863
  0
LWPOLYLINE
  5
36A
100
AcDbEntity
  8
0
100
AcDbPolyline
 62
2
  6
CONTINUOUS
 90
2
 70
0
 43
0.25
 10
318.28125
 20
13.6941471863
 10
318.9062512207
 20
13.6941471863
  0
LWPOLYLINE
  5
36B
100
AcDbEntity
  8
0
100
AcDbPolyline
 62
2
  6
CONTINUOUS
 90
9
 70
0
 43
0.25
 10
320.3124975586
 20
13.6941471863
 10
320.1771203613
 20
14.5274821472
 10
320.8856396484
 20
17.8608155823
 10
321.3752893066
 20
18.6941473389
 10
322.0002905273
 20
18.6941473389
 10
322.1356420898
 20
17.8608155823
 10
321.4271228027
 20
14.5274821472
 10
320.9374987793
 20
13.6941471863
 10
320.3124975586
 20
13.6941471863
  0
LWPOLYLINE
  5
36C
100
AcDbEntity
  8
0
100
AcDbPolyline
 62
2
  6
CONTINUOUS
 90
3
 70
0
 43
0.25
 10
324.9999938965
 20
13.6941471863
 10
326.0627856445
 20
18.6941473389
 10
327.3127880859
 20
18.6941473389
  0
LWPOLYLINE
  5
36D
100
AcDbEntity
  8
0
100
AcDbPolyline
 62
2
  6
CONTINUOUS
 90
9
 70
0
 43
0.25
 10
327.812512207
 20
13.6941471863
 10
327.6771350098
 20
14.5274821472
 10
328.3856542969
 20
17.8608155823
 10
328.8752783203
 20
18.6941473389
 10
329.500279541
 20
18.6941473389
 10
329.6356567383
 20
17.8608155823
 10
328.9271374512
 20
14.5274821472
 10
328.437487793
 20
13.6941471863
 10
327.812512207
 20
13.6941471863
  0
LWPOLYLINE
  5
36E
100
AcDbEntity
  8
0
100
AcDbPolyline
 62
2
  6
CONTINUOUS
 90
8
 70
0
 43
0.25
 10
332.1356616211
 20
17.8608155823
 10
332.0002844238
 20
18.6941473389
 10
331.3752832031
 20
18.6941473389
 10
330.8856591797
 20
17.8608155823
 10
330.1771398926
 20
14.5274821472
 10
330.3124914551
 20
13.6941471863
 10
330.9374926758
 20
13.6941471863
 10
331.427142334
 20
14.5274821472
  0
LWPOLYLINE
  5
36F
100
AcDbEntity
  8
0
100
AcDbPolyline
 62
2
  6
CONTINUOUS
 90
2
 70
0
 43
0.25
 10
333.5627746582
 20
18.6941473389
 10
334.8127770996
 20
18.6941473389
  0
LWPOLYLINE
  5
370
100
AcDbEntity
  8
0
100
AcDbPolyline
 62
2
  6
CONTINUOUS
 90
2
 70
0
 43
0.25
 10
334.1877758789
 20
18.6941473389
 10
333.1250097656
 20
13.6941471863
  0
LWPOLYLINE
  5
371
100
AcDbEntity
  8
0
100
AcDbPolyline
 62
2
  6
CONTINUOUS
 90
3
 70
0
 43
0.25
 10
338.9897827148
 20
17.0274806213
 10
339.6565429687
 20
18.6941473389
 10
338.5937512207
 20
13.6941471863
  0
LWPOLYLINE
  5
372
100
AcDbEntity
  8
0
100
AcDbPolyline
 62
2
  6
CONTINUOUS
 90
2
 70
0
 43
0.25
 10
338.281237793
 20
13.6941471863
 10
338.9062390137
 20
13.6941471863
  0
LWPOLYLINE
  5
373
100
AcDbEntity
  8
0
100
AcDbPolyline
 62
2
  6
CONTINUOUS
 90
12
 70
0
 43
0.25
 10
340.1771337891
 20
14.5274821472
 10
340.3125109863
 20
13.6941471863
 10
340.937512207
 20
13.6941471863
 10
341.4271362305
 20
14.5274821472
 10
342.1356555176
 20
17.8608155823
 10
342.0002783203
 20
18.6941473389
 10
341.3752770996
 20
18.6941473389
 10
340.8856530762
 20
17.8608155823
 10
340.5313806152
 20
16.1941488647
 10
340.6667578125
 20
15.3608139038
 10
341.2917590332
 20
15.3608139038
 10
341.7813830566
 20
16.1941488647
  0
LWPOLYLINE
  5
374
100
AcDbEntity
  8
0
100
AcDbPolyline
 62
2
  6
CONTINUOUS
 90
12
 70
0
 43
0.25
 10
342.6771386719
 20
14.5274821472
 10
342.8124902344
 20
13.6941471863
 10
343.4374914551
 20
13.6941471863
 10
343.9271411133
 20
14.5274821472
 10
344.6356604004
 20
17.8608155823
 10
344.5002832031
 20
18.6941473389
 10
343.8752819824
 20
18.6941473389
 10
343.385657959
 20
17.8608155823
 10
343.031385498
 20
16.1941488647
 10
343.1667626953
 20
15.3608139038
 10
343.791763916
 20
15.3608139038
 10
344.2813879395
 20
16.1941488647
  0
LWPOLYLINE
  5
375
100
AcDbEntity
  8
0
100
AcDbPolyline
 62
2
  6
CONTINUOUS
 90
9
 70
0
 43
0.25
 10
345.3124951172
 20
13.6941471863
 10
345.1771179199
 20
14.5274821472
 10
345.8856628418
 20
17.8608155823
 10
346.3752868652
 20
18.6941473389
 10
347.0002880859
 20
18.6941473389
 10
347.1356396484
 20
17.8608155823
 10
346.4271203613
 20
14.5274821472
 10
345.9374963379
 20
13.6941471863
 10
345.3124951172
 20
13.6941471863
  0
LWPOLYLINE
  5
376
100
AcDbEntity
  8
0
100
AcDbPolyline
 62
2
  6
CONTINUOUS
 90
9
 70
0
 43
0.25
 10
348.5627783203
 20
18.6941473389
 10
349.8127807617
 20
18.6941473389
 10
348.8335327148
 20
17.0274806213
 10
349.1460205078
 20
17.0274806213
 10
349.2813977051
 20
16.1941488647
 10
348.9271252441
 20
14.5274821472
 10
348.4375012207
 20
13.6941471863
 10
347.8125
 20
13.6941471863
 10
347.6771228027
 20
14.5274821472
  0
LWPOLYLINE
  5
377
100
AcDbEntity
  8
0
100
AcDbPolyline
 62
2
  6
CONTINUOUS
 90
2
 70
0
 43
0.25
 10
351.1564013672
 20
16.1941488647
 10
352.4064038086
 20
16.1941488647
  0
LWPOLYLINE
  5
378
100
AcDbEntity
  8
0
100
AcDbPolyline
 62
2
  6
CONTINUOUS
 90
4
 70
0
 43
0.25
 10
352.8125097656
 20
13.6941471863
 10
354.8127905273
 20
18.6941473389
 10
353.5627880859
 20
18.6941473389
 10
353.3856518555
 20
17.8608155823
  0
LWPOLYLINE
  5
379
100
AcDbEntity
  8
0
100
AcDbPolyline
 62
2
  6
CONTINUOUS
 90
4
 70
0
 43
0.25
 10
355.3124890137
 20
13.6941471863
 10
357.3127954102
 20
18.6941473389
 10
356.0627929687
 20
18.6941473389
 10
355.8856567383
 20
17.8608155823
  0
LWPOLYLINE
  5
37A
100
AcDbEntity
  8
0
100
AcDbPolyline
 62
2
  6
CONTINUOUS
 90
3
 70
0
 43
0.25
 10
391.9600012207
 20
20.7875784302
 10
393.174576416
 20
24.1375808716
 10
392.965012207
 20
20.7875784302
  0
LWPOLYLINE
  5
37B
100
AcDbEntity
  8
0
100
AcDbPolyline
 62
2
  6
CONTINUOUS
 90
5
 70
0
 43
0.25
 10
394.4447021484
 20
23.0209112549
 10
394.0886865234
 20
21.3459132385
 10
394.2212438965
 20
20.7875784302
 10
394.4724902344
 20
20.7875784302
 10
395.2123608398
 20
21.9042448425
  0
LWPOLYLINE
  5
37C
100
AcDbEntity
  8
0
100
AcDbPolyline
 62
2
  6
CONTINUOUS
 90
2
 70
0
 43
0.25
 10
395.4497131348
 20
23.0209112549
 10
394.9750085449
 20
20.7875784302
  0
LWPOLYLINE
  5
37D
100
AcDbEntity
  8
0
100
AcDbPolyline
 62
2
  6
CONTINUOUS
 90
8
 70
0
 43
0.25
 10
397.3410205078
 20
22.4625796509
 10
397.2084631348
 20
23.0209112549
 10
396.705970459
 20
23.0209112549
 10
396.3360351562
 20
22.4625796509
 10
396.0986828613
 20
21.3459132385
 10
396.2312402344
 20
20.7875784302
 10
396.7337585449
 20
20.7875784302
 10
397.1036682129
 20
21.3459132385
  0
LWPOLYLINE
  5
37E
100
AcDbEntity
  8
0
100
AcDbPolyline
 62
2
  6
CONTINUOUS
 90
2
 70
0
 43
0.25
 10
397.9899902344
 20
20.7875784302
 10
398.464720459
 20
23.0209112549
  0
LWPOLYLINE
  5
37F
100
AcDbEntity
  8
0
100
AcDbPolyline
 62
2
  6
CONTINUOUS
 90
4
 70
0
 43
0.25
 10
398.3460314941
 20
22.4625796509
 10
398.7159667969
 20
23.0209112549
 10
398.8485241699
 20
22.4625796509
 10
398.4925085449
 20
20.7875784302
  0
LWPOLYLINE
  5
380
100
AcDbEntity
  8
0
100
AcDbPolyline
 62
2
  6
CONTINUOUS
 90
4
 70
0
 43
0.25
 10
398.8485241699
 20
22.4625796509
 10
399.2184594727
 20
23.0209112549
 10
399.3510424805
 20
22.4625796509
 10
398.9950012207
 20
20.7875784302
  0
LWPOLYLINE
  5
381
100
AcDbEntity
  8
0
100
AcDbPolyline
 62
2
  6
CONTINUOUS
 90
9
 70
0
 43
0.25
 10
400.1186755371
 20
21.3459132385
 10
400.2512585449
 20
20.7875784302
 10
400.7537512207
 20
20.7875784302
 10
401.1236865234
 20
21.3459132385
 10
401.3610388184
 20
22.4625796509
 10
401.2284558105
 20
23.0209112549
 10
400.7259631348
 20
23.0209112549
 10
400.356027832
 20
22.4625796509
 10
400.1186755371
 20
21.3459132385
  0
LWPOLYLINE
  5
382
100
AcDbEntity
  8
0
100
AcDbPolyline
 62
2
  6
CONTINUOUS
 90
12
 70
0
 43
0.25
 10
402.3660241699
 20
22.4625796509
 10
403.1058947754
 20
23.5792460632
 10
403.2245581055
 20
24.1375808716
 10
402.9733117676
 20
24.1375808716
 10
402.6033764648
 20
23.5792460632
 10
402.128671875
 20
21.3459132385
 10
402.2612548828
 20
20.7875784302
 10
402.7637475586
 20
20.7875784302
 10
403.1336828613
 20
21.3459132385
 10
403.3710351563
 20
22.4625796509
 10
403.2384521484
 20
23.0209112549
 10
402.7359594727
 20
23.0209112549
  0
LWPOLYLINE
  5
383
100
AcDbEntity
  8
0
100
AcDbPolyline
 62
2
  6
CONTINUOUS
 90
3
 70
0
 43
0.25
 10
407.1328344727
 20
23.0209112549
 10
407.6214331055
 20
24.1375808716
 10
406.9093762207
 20
20.7875784302
  0
LWPOLYLINE
  5
384
100
AcDbEntity
  8
0
100
AcDbPolyline
 62
2
  6
CONTINUOUS
 90
2
 70
0
 43
0.25
 10
406.6581298828
 20
20.7875784302
 10
407.1606225586
 20
20.7875784302
  0
LWPOLYLINE
  5
385
100
AcDbEntity
  8
0
100
AcDbPolyline
 62
2
  6
CONTINUOUS
 90
3
 70
0
 43
0.25
 10
370.9799963379
 20
20.7875784302
 10
372.1945715332
 20
24.1375808716
 10
371.9850073242
 20
20.7875784302
  0
LWPOLYLINE
  5
386
100
AcDbEntity
  8
0
100
AcDbPolyline
 62
2
  6
CONTINUOUS
 90
5
 70
0
 43
0.25
 10
373.4646972656
 20
23.0209112549
 10
373.1086816406
 20
21.3459132385
 10
373.2412390137
 20
20.7875784302
 10
373.4925109863
 20
20.7875784302
 10
374.232355957
 20
21.9042448425
  0
LWPOLYLINE
  5
387
100
AcDbEntity
  8
0
100
AcDbPolyline
 62
2
  6
CONTINUOUS
 90
2
 70
0
 43
0.25
 10
374.469708252
 20
23.0209112549
 10
373.9950036621
 20
20.7875784302
  0
LWPOLYLINE
  5
388
100
AcDbEntity
  8
0
100
AcDbPolyline
 62
2
  6
CONTINUOUS
 90
8
 70
0
 43
0.25
 10
376.3610412598
 20
22.4625796509
 10
376.228458252
 20
23.0209112549
 10
375.7259655762
 20
23.0209112549
 10
375.3560302734
 20
22.4625796509
 10
375.1186779785
 20
21.3459132385
 10
375.2512609863
 20
20.7875784302
 10
375.7537536621
 20
20.7875784302
 10
376.1236889648
 20
21.3459132385
  0
LWPOLYLINE
  5
389
100
AcDbEntity
  8
0
100
AcDbPolyline
 62
2
  6
CONTINUOUS
 90
2
 70
0
 43
0.25
 10
377.0100109863
 20
20.7875784302
 10
377.4847155762
 20
23.0209112549
  0
LWPOLYLINE
  5
38A
100
AcDbEntity
  8
0
100
AcDbPolyline
 62
2
  6
CONTINUOUS
 90
4
 70
0
 43
0.25
 10
377.3660266113
 20
22.4625796509
 10
377.7359619141
 20
23.0209112549
 10
377.8685449219
 20
22.4625796509
 10
377.5125036621
 20
20.7875784302
  0
LWPOLYLINE
  5
38B
100
AcDbEntity
  8
0
100
AcDbPolyline
 62
2
  6
CONTINUOUS
 90
4
 70
0
 43
0.25
 10
377.8685449219
 20
22.4625796509
 10
378.2384545898
 20
23.0209112549
 10
378.3710375977
 20
22.4625796509
 10
378.0149963379
 20
20.7875784302
  0
LWPOLYLINE
  5
38C
100
AcDbEntity
  8
0
100
AcDbPolyline
 62
2
  6
CONTINUOUS
 90
11
 70
0
 43
0.25
 10
323.0253479004
 20
35.4329763794
 10
322.6503369141
 20
35.4329763794
 10
322.0627880859
 20
34.4329769897
 10
321.6376611328
 20
32.4329782104
 10
321.8001086426
 20
31.4329788208
 10
322.5501049805
 20
31.4329788208
 10
323.1376794434
 20
32.4329782104
 10
323.5627807617
 20
34.4329769897
 10
323.400333252
 20
35.4329763794
 10
323.0253479004
 20
35.4329763794
 10
321.7499926758
 20
29.4329800415
  0
LWPOLYLINE
  5
38D
100
AcDbEntity
  8
0
100
AcDbPolyline
 62
2
  6
CONTINUOUS
 90
3
 70
0
 43
0.25
 10
324.0000073242
 20
29.4329800415
 10
325.6002319336
 20
33.4329776001
 10
325.5
 20
29.4329800415
  0
LWPOLYLINE
  5
38E
100
AcDbEntity
  8
0
100
AcDbPolyline
 62
2
  6
CONTINUOUS
 90
8
 70
0
 43
0.25
 10
329.1376757812
 20
32.4329782104
 10
328.9752282715
 20
33.4329776001
 10
328.2252319336
 20
33.4329776001
 10
327.6376574707
 20
32.4329782104
 10
327.2125561523
 20
30.4329794312
 10
327.3750036621
 20
29.4329800415
 10
328.125
 20
29.4329800415
 10
328.7125488281
 20
30.4329794312
  0
LWPOLYLINE
  5
38F
100
AcDbEntity
  8
0
100
AcDbPolyline
 62
2
  6
CONTINUOUS
 90
3
 70
0
 43
0.25
 10
329.350213623
 20
33.4329776001
 10
328.7125488281
 20
30.4329794312
 10
328.6875036621
 20
29.4329800415
  0
LWPOLYLINE
  5
390
100
AcDbEntity
  8
0
100
AcDbPolyline
 62
2
  6
CONTINUOUS
 90
2
 70
0
 43
0.25
 10
330.0000036621
 20
29.4329800415
 10
330.8502319336
 20
33.4329776001
  0
LWPOLYLINE
  5
391
100
AcDbEntity
  8
0
100
AcDbPolyline
 62
2
  6
CONTINUOUS
 90
2
 70
0
 43
0.25
 10
330.4251049805
 20
31.4329788208
 10
331.925123291
 20
31.4329788208
  0
LWPOLYLINE
  5
392
100
AcDbEntity
  8
0
100
AcDbPolyline
 62
2
  6
CONTINUOUS
 90
2
 70
0
 43
0.25
 10
332.3502246094
 20
33.4329776001
 10
331.4999963379
 20
29.4329800415
  0
LWPOLYLINE
  5
393
100
AcDbEntity
  8
0
100
AcDbPolyline
 62
2
  6
CONTINUOUS
 90
10
 70
0
 43
0.25
 10
333.4251159668
 20
31.4329788208
 10
334.550123291
 20
31.4329788208
 10
335.1376721191
 20
32.4329782104
 10
334.9752246094
 20
33.4329776001
 10
334.2252282715
 20
33.4329776001
 10
333.6376794434
 20
32.4329782104
 10
333.2125524902
 20
30.4329794312
 10
333.375
 20
29.4329800415
 10
334.1249963379
 20
29.4329800415
 10
334.712545166
 20
30.4329794312
  0
LWPOLYLINE
  5
394
100
AcDbEntity
  8
0
100
AcDbPolyline
 62
2
  6
CONTINUOUS
 90
7
 70
0
 43
0.25
 10
336.8502282715
 20
33.4329776001
 10
336.2125634766
 20
30.4329794312
 10
336.3750109863
 20
29.4329800415
 10
337.1250073242
 20
29.4329800415
 10
337.7125561523
 20
30.4329794312
 10
337.6875109863
 20
29.4329800415
 10
337.287454834
 20
28.4329806519
  0
LWPOLYLINE
  5
395
100
AcDbEntity
  8
0
100
AcDbPolyline
 62
2
  6
CONTINUOUS
 90
2
 70
0
 43
0.25
 10
338.3502209473
 20
33.4329776001
 10
337.7125561523
 20
30.4329794312
  0
LWPOLYLINE
  5
396
100
AcDbEntity
  8
0
100
AcDbPolyline
 62
2
  6
CONTINUOUS
 90
2
 70
0
 43
0.25
 10
231.1720605469
 20
24.1375808716
 10
232.1770715332
 20
24.1375808716
  0
LWPOLYLINE
  5
397
100
AcDbEntity
  8
0
100
AcDbPolyline
 62
2
  6
CONTINUOUS
 90
2
 70
0
 43
0.25
 10
231.6745532227
 20
24.1375808716
 10
230.9624963379
 20
20.7875784302
  0
LWPOLYLINE
  5
398
100
AcDbEntity
  8
0
100
AcDbPolyline
 62
2
  6
CONTINUOUS
 90
5
 70
0
 43
0.25
 10
232.5956359863
 20
20.7875784302
 10
232.47
 20
20.7875784302
 10
232.5293444824
 20
21.0667474365
 10
232.654954834
 20
21.0667474365
 10
232.5956359863
 20
20.7875784302
  0
LWPOLYLINE
  5
399
100
AcDbEntity
  8
0
100
AcDbPolyline
 62
2
  6
CONTINUOUS
 90
2
 70
0
 43
0.25
 10
234.9547009277
 20
23.0209112549
 10
234.4799963379
 20
20.7875784302
  0
LWPOLYLINE
  5
39A
100
AcDbEntity
  8
0
100
AcDbPolyline
 62
2
  6
CONTINUOUS
 90
2
 70
0
 43
0.25
 10
234.5986853027
 20
21.3459132385
 10
235.9597119141
 20
23.0209112549
  0
LWPOLYLINE
  5
39B
100
AcDbEntity
  8
0
100
AcDbPolyline
 62
2
  6
CONTINUOUS
 90
2
 70
0
 43
0.25
 10
235.094230957
 20
21.9042448425
 10
235.4850073242
 20
20.7875784302
  0
LWPOLYLINE
  5
39C
100
AcDbEntity
  8
0
100
AcDbPolyline
 62
2
  6
CONTINUOUS
 90
9
 70
0
 43
0.25
 10
236.6086816406
 20
21.3459132385
 10
236.7412390137
 20
20.7875784302
 10
237.2437573242
 20
20.7875784302
 10
237.6136669922
 20
21.3459132385
 10
237.8510449219
 20
22.4625796509
 10
237.7184619141
 20
23.0209112549
 10
237.2159692383
 20
23.0209112549
 10
236.8460339355
 20
22.4625796509
 10
236.6086816406
 20
21.3459132385
  0
LWPOLYLINE
  5
39D
100
AcDbEntity
  8
0
100
AcDbPolyline
 62
2
  6
CONTINUOUS
 90
2
 70
0
 43
0.25
 10
238.4999890137
 20
20.7875784302
 10
238.9747192383
 20
23.0209112549
  0
LWPOLYLINE
  5
39E
100
AcDbEntity
  8
0
100
AcDbPolyline
 62
2
  6
CONTINUOUS
 90
2
 70
0
 43
0.25
 10
238.7373669434
 20
21.9042448425
 10
239.7423522949
 20
21.9042448425
  0
LWPOLYLINE
  5
39F
100
AcDbEntity
  8
0
100
AcDbPolyline
 62
2
  6
CONTINUOUS
 90
2
 70
0
 43
0.25
 10
239.9797045898
 20
23.0209112549
 10
239.505
 20
20.7875784302
  0
LWPOLYLINE
  5
3A0
100
AcDbEntity
  8
0
100
AcDbPolyline
 62
2
  6
CONTINUOUS
 90
2
 70
0
 43
0.25
 10
240.5100109863
 20
20.7875784302
 10
240.9847155762
 20
23.0209112549
  0
LWPOLYLINE
  5
3A1
100
AcDbEntity
  8
0
100
AcDbPolyline
 62
2
  6
CONTINUOUS
 90
4
 70
0
 43
0.25
 10
240.8660266113
 20
22.4625796509
 10
241.2359619141
 20
23.0209112549
 10
241.3685449219
 20
22.4625796509
 10
241.0125036621
 20
20.7875784302
  0
LWPOLYLINE
  5
3A2
100
AcDbEntity
  8
0
100
AcDbPolyline
 62
2
  6
CONTINUOUS
 90
4
 70
0
 43
0.25
 10
241.3685449219
 20
22.4625796509
 10
241.7384545898
 20
23.0209112549
 10
241.8710375977
 20
22.4625796509
 10
241.5149963379
 20
20.7875784302
  0
LWPOLYLINE
  5
3A3
100
AcDbEntity
  8
0
100
AcDbPolyline
 62
2
  6
CONTINUOUS
 90
2
 70
0
 43
0.25
 10
242.2826550293
 20
19.6709120178
 10
242.9947119141
 20
23.0209112549
  0
LWPOLYLINE
  5
3A4
100
AcDbEntity
  8
0
100
AcDbPolyline
 62
2
  6
CONTINUOUS
 90
7
 70
0
 43
0.25
 10
242.5200073242
 20
20.7875784302
 10
243.2737463379
 20
20.7875784302
 10
243.6436816406
 20
21.3459132385
 10
243.8810339355
 20
22.4625796509
 10
243.7484509277
 20
23.0209112549
 10
243.245958252
 20
23.0209112549
 10
242.8760229492
 20
22.4625796509
  0
LWPOLYLINE
  5
3A5
100
AcDbEntity
  8
0
100
AcDbPolyline
 62
2
  6
CONTINUOUS
 90
5
 70
0
 43
0.25
 10
244.6556140137
 20
20.7875784302
 10
244.5300036621
 20
20.7875784302
 10
244.5893481445
 20
21.0667474365
 10
244.7149584961
 20
21.0667474365
 10
244.6556140137
 20
20.7875784302
  0
LWPOLYLINE
  5
3A6
100
AcDbEntity
  8
0
100
AcDbPolyline
 62
2
  6
CONTINUOUS
 90
3
 70
0
 43
0.25
 10
402.004420166
 20
33.5884716797
 10
403.0254016113
 20
35.9218057251
 10
401.5375085449
 20
28.9218099976
  0
LWPOLYLINE
  5
3A7
100
AcDbEntity
  8
0
100
AcDbPolyline
 62
2
  6
CONTINUOUS
 90
2
 70
0
 43
0.25
 10
401.0125085449
 20
28.9218099976
 10
402.0625085449
 20
28.9218099976
  0
LWPOLYLINE
  5
3A8
100
AcDbEntity
  8
0
100
AcDbPolyline
 62
2
  6
CONTINUOUS
 90
5
 70
0
 43
0.25
 10
405.0304504395
 20
33.0051397705
 10
404.7679504395
 20
33.0051397705
 10
404.891920166
 20
33.5884716797
 10
405.154420166
 20
33.5884716797
 10
405.0304504395
 20
33.0051397705
  0
LWPOLYLINE
  5
3A9
100
AcDbEntity
  8
0
100
AcDbPolyline
 62
2
  6
CONTINUOUS
 90
5
 70
0
 43
0.25
 10
404.1625085449
 20
28.9218099976
 10
403.9000085449
 20
28.9218099976
 10
404.0240039062
 20
29.5051419067
 10
404.2865039063
 20
29.5051419067
 10
404.1625085449
 20
28.9218099976
  0
LWPOLYLINE
  5
3AA
100
AcDbEntity
  8
0
100
AcDbPolyline
 62
2
  6
CONTINUOUS
 90
10
 70
0
 43
0.25
 10
409.3399108887
 20
34.7551419067
 10
410.1129016113
 20
35.9218057251
 10
411.1629016113
 20
35.9218057251
 10
411.4399108887
 20
34.7551419067
 10
410.9439550781
 20
32.4218078613
 10
410.1709643555
 20
31.255144043
 10
409.1209643555
 20
31.255144043
 10
408.3479736328
 20
30.0884738159
 10
408.1000085449
 20
28.9218099976
 10
410.2000085449
 20
28.9218099976
  0
LWPOLYLINE
  5
3AB
100
AcDbEntity
  8
0
100
AcDbPolyline
 62
2
  6
CONTINUOUS
 90
3
 70
0
 43
0.25
 10
384.9897802734
 20
33.2774835205
 10
385.6565405273
 20
34.9441470337
 10
384.5937487793
 20
29.9441500854
  0
LWPOLYLINE
  5
3AC
100
AcDbEntity
  8
0
100
AcDbPolyline
 62
2
  6
CONTINUOUS
 90
2
 70
0
 43
0.25
 10
384.2812609863
 20
29.9441500854
 10
384.906262207
 20
29.9441500854
  0
LWPOLYLINE
  5
3AD
100
AcDbEntity
  8
0
100
AcDbPolyline
 62
2
  6
CONTINUOUS
 90
6
 70
0
 43
0.25
 10
386.1562390137
 20
29.9441500854
 10
385.9999951172
 20
29.9441500854
 10
386.0885632324
 20
30.3608175659
 10
386.2448071289
 20
30.3608175659
 10
386.1562390137
 20
29.9441500854
 10
385.8228588867
 20
29.1108151245
  0
LWPOLYLINE
  5
3AE
100
AcDbEntity
  8
0
100
AcDbPolyline
 62
2
  6
CONTINUOUS
 90
9
 70
0
 43
0.25
 10
388.812487793
 20
29.9441500854
 10
389.4374890137
 20
29.9441500854
 10
389.9271386719
 20
30.7774850464
 10
390.1042492676
 20
31.6108135986
 10
389.9688977051
 20
32.4441485596
 10
389.3438964844
 20
32.4441485596
 10
388.8542724609
 20
31.6108135986
 10
388.6771362305
 20
30.7774850464
 10
388.812487793
 20
29.9441500854
  0
LWPOLYLINE
  5
3AF
100
AcDbEntity
  8
0
100
AcDbPolyline
 62
2
  6
CONTINUOUS
 90
8
 70
0
 43
0.25
 10
389.9688977051
 20
32.4441485596
 10
390.4585217285
 20
33.2774835205
 10
390.635657959
 20
34.1108120728
 10
390.5002807617
 20
34.9441470337
 10
389.875279541
 20
34.9441470337
 10
389.3856555176
 20
34.1108120728
 10
389.2085192871
 20
33.2774835205
 10
389.3438964844
 20
32.4441485596
  0
LWPOLYLINE
  5
3B0
100
AcDbEntity
  8
0
100
AcDbPolyline
 62
2
  6
CONTINUOUS
 90
4
 70
0
 43
0.25
 10
391.3124926758
 20
29.9441500854
 10
393.3127734375
 20
34.9441470337
 10
392.0627709961
 20
34.9441470337
 10
391.8856604004
 20
34.1108120728
  0
LWPOLYLINE
  5
3B1
100
AcDbEntity
  8
0
100
AcDbPolyline
 62
2
  6
CONTINUOUS
 90
6
 70
0
 43
0.25
 10
248.4499951172
 20
25.7875817871
 10
249.2037597656
 20
25.7875817871
 10
249.5736694336
 20
26.3459133911
 10
249.6923583984
 20
26.9042449951
 10
249.5597753906
 20
27.4625765991
 10
248.806036377
 20
27.4625765991
  0
LWPOLYLINE
  5
3B2
100
AcDbEntity
  8
0
100
AcDbPolyline
 62
2
  6
CONTINUOUS
 90
3
 70
0
 43
0.25
 10
248.4499951172
 20
25.7875817871
 10
249.162052002
 20
29.1375778198
 10
249.9158166504
 20
29.1375778198
  0
LWPOLYLINE
  5
3B3
100
AcDbEntity
  8
0
100
AcDbPolyline
 62
2
  6
CONTINUOUS
 90
2
 70
0
 43
0.25
 10
250.9347216797
 20
28.0209146118
 10
250.9625097656
 20
25.7875817871
  0
LWPOLYLINE
  5
3B4
100
AcDbEntity
  8
0
100
AcDbPolyline
 62
2
  6
CONTINUOUS
 90
3
 70
0
 43
0.25
 10
250.2226391602
 20
24.6709121704
 10
250.473885498
 20
24.6709121704
 10
251.9397070312
 20
28.0209146118
  0
LWPOLYLINE
  5
3B5
100
AcDbEntity
  8
0
100
AcDbPolyline
 62
2
  6
CONTINUOUS
 90
3
 70
0
 43
0.25
 10
252.469987793
 20
25.7875817871
 10
253.4472106934
 20
28.0209146118
 10
253.4749987793
 20
25.7875817871
  0
LWPOLYLINE
  5
3B6
100
AcDbEntity
  8
0
100
AcDbPolyline
 62
2
  6
CONTINUOUS
 90
2
 70
0
 43
0.25
 10
254.9547143555
 20
28.0209146118
 10
254.4800097656
 20
25.7875817871
  0
LWPOLYLINE
  5
3B7
100
AcDbEntity
  8
0
100
AcDbPolyline
 62
2
  6
CONTINUOUS
 90
2
 70
0
 43
0.25
 10
254.5986730957
 20
26.3459133911
 10
255.959699707
 20
28.0209146118
  0
LWPOLYLINE
  5
3B8
100
AcDbEntity
  8
0
100
AcDbPolyline
 62
2
  6
CONTINUOUS
 90
2
 70
0
 43
0.25
 10
255.09421875
 20
26.9042449951
 10
255.4849951172
 20
25.7875817871
  0
LWPOLYLINE
  5
3B9
100
AcDbEntity
  8
0
100
AcDbPolyline
 62
2
  6
CONTINUOUS
 90
5
 70
0
 43
0.25
 10
256.9647106934
 20
28.0209146118
 10
256.6086694336
 20
26.3459133911
 10
256.7412524414
 20
25.7875817871
 10
256.9924987793
 20
25.7875817871
 10
257.73234375
 20
26.9042449951
  0
LWPOLYLINE
  5
3BA
100
AcDbEntity
  8
0
100
AcDbPolyline
 62
2
  6
CONTINUOUS
 90
2
 70
0
 43
0.25
 10
257.9697216797
 20
28.0209146118
 10
257.4949914551
 20
25.7875817871
  0
LWPOLYLINE
  5
3BB
100
AcDbEntity
  8
0
100
AcDbPolyline
 62
2
  6
CONTINUOUS
 90
2
 70
0
 43
0.25
 10
258.5000024414
 20
25.7875817871
 10
258.9747070312
 20
28.0209146118
  0
LWPOLYLINE
  5
3BC
100
AcDbEntity
  8
0
100
AcDbPolyline
 62
2
  6
CONTINUOUS
 90
2
 70
0
 43
0.25
 10
258.7373547363
 20
26.9042449951
 10
259.7423657227
 20
26.9042449951
  0
LWPOLYLINE
  5
3BD
100
AcDbEntity
  8
0
100
AcDbPolyline
 62
2
  6
CONTINUOUS
 90
2
 70
0
 43
0.25
 10
259.9797180176
 20
28.0209146118
 10
259.504987793
 20
25.7875817871
  0
LWPOLYLINE
  5
3BE
100
AcDbEntity
  8
0
100
AcDbPolyline
 62
2
  6
CONTINUOUS
 90
3
 70
0
 43
0.25
 10
262.5199951172
 20
25.7875817871
 10
263.7345703125
 20
29.1375778198
 10
263.5250061035
 20
25.7875817871
  0
LWPOLYLINE
  5
3BF
100
AcDbEntity
  8
0
100
AcDbPolyline
 62
2
  6
CONTINUOUS
 90
2
 70
0
 43
0.25
 10
263.00859375
 20
26.9042449951
 10
263.5111120605
 20
26.9042449951
  0
LWPOLYLINE
  5
3C0
100
AcDbEntity
  8
0
100
AcDbPolyline
 62
2
  6
CONTINUOUS
 90
5
 70
0
 43
0.25
 10
264.6556274414
 20
25.7875817871
 10
264.5299914551
 20
25.7875817871
 10
264.5893359375
 20
26.0667443848
 10
264.7149719238
 20
26.0667443848
 10
264.6556274414
 20
25.7875817871
  0
LWPOLYLINE
  5
3C1
100
AcDbEntity
  8
0
100
AcDbPolyline
 62
2
  6
CONTINUOUS
 90
4
 70
0
 43
0.25
 10
266.539987793
 20
25.7875817871
 10
267.2520703125
 20
29.1375778198
 10
268.2570556641
 20
29.1375778198
 10
267.5449987793
 20
25.7875817871
  0
LWPOLYLINE
  5
3C2
100
AcDbEntity
  8
0
100
AcDbPolyline
 62
2
  6
CONTINUOUS
 90
4
 70
0
 43
0.25
 10
233.4750109863
 20
25.7875817871
 10
234.1870678711
 20
29.1375778198
 10
235.1920532227
 20
29.1375778198
 10
234.4799963379
 20
25.7875817871
  0
LWPOLYLINE
  5
3C3
100
AcDbEntity
  8
0
100
AcDbPolyline
 62
2
  6
CONTINUOUS
 90
2
 70
0
 43
0.25
 10
235.2476550293
 20
24.6709121704
 10
235.9597119141
 20
28.0209146118
  0
LWPOLYLINE
  5
3C4
100
AcDbEntity
  8
0
100
AcDbPolyline
 62
2
  6
CONTINUOUS
 90
7
 70
0
 43
0.25
 10
235.4850073242
 20
25.7875817871
 10
236.2387463379
 20
25.7875817871
 10
236.6086816406
 20
26.3459133911
 10
236.8460339355
 20
27.4625765991
 10
236.7134509277
 20
28.0209146118
 10
236.210958252
 20
28.0209146118
 10
235.8410229492
 20
27.4625765991
  0
LWPOLYLINE
  5
3C5
100
AcDbEntity
  8
0
100
AcDbPolyline
 62
2
  6
CONTINUOUS
 90
9
 70
0
 43
0.25
 10
237.6136669922
 20
26.3459133911
 10
237.74625
 20
25.7875817871
 10
238.2487426758
 20
25.7875817871
 10
238.6186779785
 20
26.3459133911
 10
238.8560302734
 20
27.4625765991
 10
238.7234472656
 20
28.0209146118
 10
238.2209545898
 20
28.0209146118
 10
237.8510449219
 20
27.4625765991
 10
237.6136669922
 20
26.3459133911
  0
LWPOLYLINE
  5
3C6
100
AcDbEntity
  8
0
100
AcDbPolyline
 62
2
  6
CONTINUOUS
 90
12
 70
0
 43
0.25
 10
239.8610412598
 20
27.4625765991
 10
240.6008862305
 20
28.5792462158
 10
240.7195751953
 20
29.1375778198
 10
240.4683032227
 20
29.1375778198
 10
240.0983935547
 20
28.5792462158
 10
239.6236889648
 20
26.3459133911
 10
239.7562463379
 20
25.7875817871
 10
240.2587390137
 20
25.7875817871
 10
240.6286743164
 20
26.3459133911
 10
240.8660266113
 20
27.4625765991
 10
240.7334692383
 20
28.0209146118
 10
240.2309509277
 20
28.0209146118
  0
LWPOLYLINE
  5
3C7
100
AcDbEntity
  8
0
100
AcDbPolyline
 62
2
  6
CONTINUOUS
 90
5
 70
0
 43
0.25
 10
241.6406323242
 20
25.7875817871
 10
241.5149963379
 20
25.7875817871
 10
241.5743408203
 20
26.0667443848
 10
241.6999511719
 20
26.0667443848
 10
241.6406323242
 20
25.7875817871
  0
LWPOLYLINE
  5
3C8
100
AcDbEntity
  8
0
100
AcDbPolyline
 62
2
  6
CONTINUOUS
 90
3
 70
0
 43
0.25
 10
286.6603051758
 20
32.8576437378
 10
286.9669995117
 20
33.624309082
 10
286.4781188965
 20
31.3243066406
  0
LWPOLYLINE
  5
3C9
100
AcDbEntity
  8
0
100
AcDbPolyline
 62
2
  6
CONTINUOUS
 90
2
 70
0
 43
0.25
 10
286.3343847656
 20
31.3243066406
 10
286.6218786621
 20
31.3243066406
  0
LWPOLYLINE
  5
3CA
100
AcDbEntity
  8
0
100
AcDbPolyline
 62
2
  6
CONTINUOUS
 90
12
 70
0
 43
0.25
 10
288.1073876953
 20
33.2409732056
 10
288.0451208496
 20
33.624309082
 10
287.7576269531
 20
33.624309082
 10
287.5323999023
 20
33.2409732056
 10
287.2064794922
 20
31.7076425171
 10
287.2687463379
 20
31.3243066406
 10
287.5562402344
 20
31.3243066406
 10
287.7814672852
 20
31.7076425171
 10
287.9444274902
 20
32.4743078613
 10
287.8821606445
 20
32.8576437378
 10
287.594666748
 20
32.8576437378
 10
287.3694396973
 20
32.4743078613
  0
LWPOLYLINE
  5
3CB
100
AcDbEntity
  8
0
100
AcDbPolyline
 62
2
  6
CONTINUOUS
 90
5
 70
0
 43
0.25
 10
288.3468676758
 20
31.3243066406
 10
288.274987793
 20
31.3243066406
 10
288.3157470703
 20
31.5159777832
 10
288.3876269531
 20
31.5159777832
 10
288.3468676758
 20
31.3243066406
  0
LWPOLYLINE
  5
3CC
100
AcDbEntity
  8
0
100
AcDbPolyline
 62
2
  6
CONTINUOUS
 90
9
 70
0
 43
0.25
 10
289.5687487793
 20
31.3243066406
 10
289.8562426758
 20
31.3243066406
 10
290.0814697266
 20
31.7076425171
 10
290.1629626465
 20
32.0909719849
 10
290.1006958008
 20
32.4743078613
 10
289.8132019043
 20
32.4743078613
 10
289.5879492187
 20
32.0909719849
 10
289.5064819336
 20
31.7076425171
 10
289.5687487793
 20
31.3243066406
  0
LWPOLYLINE
  5
3CD
100
AcDbEntity
  8
0
100
AcDbPolyline
 62
2
  6
CONTINUOUS
 90
8
 70
0
 43
0.25
 10
290.1006958008
 20
32.4743078613
 10
290.3259228516
 20
32.8576437378
 10
290.4073901367
 20
33.2409732056
 10
290.345123291
 20
33.624309082
 10
290.0576293945
 20
33.624309082
 10
289.8324023438
 20
33.2409732056
 10
289.7509094238
 20
32.8576437378
 10
289.8132019043
 20
32.4743078613
  0
LWPOLYLINE
  5
3CE
100
AcDbEntity
  8
0
100
AcDbPolyline
 62
2
  6
CONTINUOUS
 90
5
 70
0
 43
0.25
 10
290.6468701172
 20
31.3243066406
 10
290.5749902344
 20
31.3243066406
 10
290.6157495117
 20
31.5159777832
 10
290.6876037598
 20
31.5159777832
 10
290.6468701172
 20
31.3243066406
  0
LWPOLYLINE
  5
3CF
100
AcDbEntity
  8
0
100
AcDbPolyline
 62
2
  6
CONTINUOUS
 90
9
 70
0
 43
0.25
 10
291.8687512207
 20
31.3243066406
 10
291.806484375
 20
31.7076425171
 10
292.1324047852
 20
33.2409732056
 10
292.3576318359
 20
33.624309082
 10
292.6451257324
 20
33.624309082
 10
292.7073925781
 20
33.2409732056
 10
292.381472168
 20
31.7076425171
 10
292.1562451172
 20
31.3243066406
 10
291.8687512207
 20
31.3243066406
  0
LWPOLYLINE
  5
3D0
100
AcDbEntity
  8
0
100
AcDbPolyline
 62
2
  6
CONTINUOUS
 90
12
 70
0
 43
0.25
 10
292.9564855957
 20
31.7076425171
 10
293.0187524414
 20
31.3243066406
 10
293.3062463379
 20
31.3243066406
 10
293.5314733887
 20
31.7076425171
 10
293.8573937988
 20
33.2409732056
 10
293.7951269531
 20
33.624309082
 10
293.5076330566
 20
33.624309082
 10
293.2824060059
 20
33.2409732056
 10
293.1194458008
 20
32.4743078613
 10
293.1817126465
 20
32.0909719849
 10
293.469206543
 20
32.0909719849
 10
293.6944335937
 20
32.4743078613
  0
LWPOLYLINE
  5
3D1
100
AcDbEntity
  8
0
100
AcDbPolyline
 62
2
  6
CONTINUOUS
 90
6
 70
0
 43
0.25
 10
251.4650024414
 20
30.7875787354
 10
252.2187414551
 20
30.7875787354
 10
252.5886767578
 20
31.3459103394
 10
252.7073657227
 20
31.9042483521
 10
252.5747827148
 20
32.4625799561
 10
251.8210437012
 20
32.4625799561
  0
LWPOLYLINE
  5
3D2
100
AcDbEntity
  8
0
100
AcDbPolyline
 62
2
  6
CONTINUOUS
 90
3
 70
0
 43
0.25
 10
251.4650024414
 20
30.7875787354
 10
252.1770593262
 20
34.1375811768
 10
252.9308239746
 20
34.1375811768
  0
LWPOLYLINE
  5
3D3
100
AcDbEntity
  8
0
100
AcDbPolyline
 62
2
  6
CONTINUOUS
 90
2
 70
0
 43
0.25
 10
253.9497033691
 20
33.0209115601
 10
253.9774914551
 20
30.7875787354
  0
LWPOLYLINE
  5
3D4
100
AcDbEntity
  8
0
100
AcDbPolyline
 62
2
  6
CONTINUOUS
 90
3
 70
0
 43
0.25
 10
253.2376464844
 20
29.6709155273
 10
253.4888928223
 20
29.6709155273
 10
254.9547143555
 20
33.0209115601
  0
LWPOLYLINE
  5
3D5
100
AcDbEntity
  8
0
100
AcDbPolyline
 62
2
  6
CONTINUOUS
 90
3
 70
0
 43
0.25
 10
255.4849951172
 20
30.7875787354
 10
256.4622180176
 20
33.0209115601
 10
256.4900061035
 20
30.7875787354
  0
LWPOLYLINE
  5
3D6
100
AcDbEntity
  8
0
100
AcDbPolyline
 62
2
  6
CONTINUOUS
 90
2
 70
0
 43
0.25
 10
257.9697216797
 20
33.0209115601
 10
257.4949914551
 20
30.7875787354
  0
LWPOLYLINE
  5
3D7
100
AcDbEntity
  8
0
100
AcDbPolyline
 62
2
  6
CONTINUOUS
 90
2
 70
0
 43
0.25
 10
257.6136804199
 20
31.3459103394
 10
258.9747070312
 20
33.0209115601
  0
LWPOLYLINE
  5
3D8
100
AcDbEntity
  8
0
100
AcDbPolyline
 62
2
  6
CONTINUOUS
 90
2
 70
0
 43
0.25
 10
258.1092260742
 20
31.9042483521
 10
258.5000024414
 20
30.7875787354
  0
LWPOLYLINE
  5
3D9
100
AcDbEntity
  8
0
100
AcDbPolyline
 62
2
  6
CONTINUOUS
 90
5
 70
0
 43
0.25
 10
259.9797180176
 20
33.0209115601
 10
259.6236767578
 20
31.3459103394
 10
259.7562597656
 20
30.7875787354
 10
260.0075061035
 20
30.7875787354
 10
260.7473510742
 20
31.9042483521
  0
LWPOLYLINE
  5
3DA
100
AcDbEntity
  8
0
100
AcDbPolyline
 62
2
  6
CONTINUOUS
 90
2
 70
0
 43
0.25
 10
260.9847033691
 20
33.0209115601
 10
260.5099987793
 20
30.7875787354
  0
LWPOLYLINE
  5
3DB
100
AcDbEntity
  8
0
100
AcDbPolyline
 62
2
  6
CONTINUOUS
 90
2
 70
0
 43
0.25
 10
261.5150097656
 20
30.7875787354
 10
261.9897143555
 20
33.0209115601
  0
LWPOLYLINE
  5
3DC
100
AcDbEntity
  8
0
100
AcDbPolyline
 62
2
  6
CONTINUOUS
 90
2
 70
0
 43
0.25
 10
261.7523620605
 20
31.9042483521
 10
262.7573474121
 20
31.9042483521
  0
LWPOLYLINE
  5
3DD
100
AcDbEntity
  8
0
100
AcDbPolyline
 62
2
  6
CONTINUOUS
 90
2
 70
0
 43
0.25
 10
262.994699707
 20
33.0209115601
 10
262.5199951172
 20
30.7875787354
  0
LWPOLYLINE
  5
3DE
100
AcDbEntity
  8
0
100
AcDbPolyline
 62
2
  6
CONTINUOUS
 90
7
 70
0
 43
0.25
 10
231.4649890137
 20
30.7875787354
 10
232.1770715332
 20
34.1375811768
 10
232.9308105469
 20
34.1375811768
 10
233.0633935547
 20
33.5792431641
 10
232.9447045898
 20
33.0209115601
 10
232.5747949219
 20
32.4625799561
 10
231.8210302734
 20
32.4625799561
  0
LWPOLYLINE
  5
3DF
100
AcDbEntity
  8
0
100
AcDbPolyline
 62
2
  6
CONTINUOUS
 90
8
 70
0
 43
0.25
 10
234.8360375977
 20
32.4625799561
 10
234.7034545898
 20
33.0209115601
 10
234.2009619141
 20
33.0209115601
 10
233.8310266113
 20
32.4625799561
 10
233.5936743164
 20
31.3459103394
 10
233.7262573242
 20
30.7875787354
 10
234.22875
 20
30.7875787354
 10
234.5986853027
 20
31.3459103394
  0
LWPOLYLINE
  5
3E0
100
AcDbEntity
  8
0
100
AcDbPolyline
 62
2
  6
CONTINUOUS
 90
3
 70
0
 43
0.25
 10
234.9547009277
 20
33.0209115601
 10
234.5986853027
 20
31.3459103394
 10
234.6056323242
 20
30.7875787354
  0
LWPOLYLINE
  5
3E1
100
AcDbEntity
  8
0
100
AcDbPolyline
 62
2
  6
CONTINUOUS
 90
9
 70
0
 43
0.25
 10
235.6036706543
 20
31.3459103394
 10
235.7362536621
 20
30.7875787354
 10
236.2387463379
 20
30.7875787354
 10
236.6086816406
 20
31.3459103394
 10
236.4760986328
 20
31.9042483521
 10
236.8460339355
 20
32.4625799561
 10
236.7134509277
 20
33.0209115601
 10
236.210958252
 20
33.0209115601
 10
235.8410229492
 20
32.4625799561
  0
LWPOLYLINE
  5
3E2
100
AcDbEntity
  8
0
100
AcDbPolyline
 62
2
  6
CONTINUOUS
 90
2
 70
0
 43
0.25
 10
236.2248522949
 20
31.9042483521
 10
236.4760986328
 20
31.9042483521
  0
LWPOLYLINE
  5
3E3
100
AcDbEntity
  8
0
100
AcDbPolyline
 62
2
  6
CONTINUOUS
 90
2
 70
0
 43
0.25
 10
237.2576513672
 20
29.6709155273
 10
237.969708252
 20
33.0209115601
  0
LWPOLYLINE
  5
3E4
100
AcDbEntity
  8
0
100
AcDbPolyline
 62
2
  6
CONTINUOUS
 90
7
 70
0
 43
0.25
 10
237.4950036621
 20
30.7875787354
 10
238.2487426758
 20
30.7875787354
 10
238.6186779785
 20
31.3459103394
 10
238.8560302734
 20
32.4625799561
 10
238.7234472656
 20
33.0209115601
 10
238.2209545898
 20
33.0209115601
 10
237.8510449219
 20
32.4625799561
  0
LWPOLYLINE
  5
3E5
100
AcDbEntity
  8
0
100
AcDbPolyline
 62
2
  6
CONTINUOUS
 90
8
 70
0
 43
0.25
 10
240.8660266113
 20
32.4625799561
 10
240.7334692383
 20
33.0209115601
 10
240.2309509277
 20
33.0209115601
 10
239.8610412598
 20
32.4625799561
 10
239.6236889648
 20
31.3459103394
 10
239.7562463379
 20
30.7875787354
 10
240.2587390137
 20
30.7875787354
 10
240.6286743164
 20
31.3459103394
  0
LWPOLYLINE
  5
3E6
100
AcDbEntity
  8
0
100
AcDbPolyline
 62
2
  6
CONTINUOUS
 90
3
 70
0
 43
0.25
 10
240.9847155762
 20
33.0209115601
 10
240.6286743164
 20
31.3459103394
 10
240.6356213379
 20
30.7875787354
  0
LWPOLYLINE
  5
3E7
100
AcDbEntity
  8
0
100
AcDbPolyline
 62
2
  6
CONTINUOUS
 90
10
 70
0
 43
0.25
 10
242.7434655762
 20
33.0209115601
 10
242.2409472656
 20
33.0209115601
 10
241.8710375977
 20
32.4625799561
 10
241.6336853027
 20
31.3459103394
 10
241.7662426758
 20
30.7875787354
 10
242.2687609863
 20
30.7875787354
 10
242.6386706543
 20
31.3459103394
 10
242.8760229492
 20
32.4625799561
 10
242.4783251953
 20
34.1375811768
 10
243.232064209
 20
34.1375811768
  0
LWPOLYLINE
  5
3E8
100
AcDbEntity
  8
0
100
AcDbPolyline
 62
2
  6
CONTINUOUS
 90
5
 70
0
 43
0.25
 10
243.6506286621
 20
30.7875787354
 10
243.5249926758
 20
30.7875787354
 10
243.5843371582
 20
31.0667477417
 10
243.7099731445
 20
31.0667477417
 10
243.6506286621
 20
30.7875787354
  0
LWPOLYLINE
  5
3E9
100
AcDbEntity
  8
0
100
AcDbPolyline
 62
2
  6
CONTINUOUS
 90
5
 70
0
 43
0.25
 10
286.2312561035
 20
35.7875820923
 10
286.7653051758
 20
38.3000775146
 10
287.3201953125
 20
39.137578125
 10
287.697052002
 20
39.137578125
 10
286.9849951172
 20
35.7875820923
  0
LWPOLYLINE
  5
3EA
100
AcDbEntity
  8
0
100
AcDbPolyline
 62
2
  6
CONTINUOUS
 90
4
 70
0
 43
0.25
 10
285.9869567871
 20
35.2292440796
 10
285.9800097656
 20
35.7875820923
 10
287.2362414551
 20
35.7875820923
 10
286.9919421387
 20
35.2292440796
  0
LWPOLYLINE
  5
3EB
100
AcDbEntity
  8
0
100
AcDbPolyline
 62
2
  6
CONTINUOUS
 90
8
 70
0
 43
0.25
 10
289.3510327148
 20
37.4625769043
 10
289.218449707
 20
38.020914917
 10
288.7159570313
 20
38.020914917
 10
288.3460217285
 20
37.4625769043
 10
288.1086694336
 20
36.3459136963
 10
288.2412524414
 20
35.7875820923
 10
288.7437451172
 20
35.7875820923
 10
289.1136804199
 20
36.3459136963
  0
LWPOLYLINE
  5
3EC
100
AcDbEntity
  8
0
100
AcDbPolyline
 62
2
  6
CONTINUOUS
 90
3
 70
0
 43
0.25
 10
289.4697216797
 20
38.020914917
 10
289.1136804199
 20
36.3459136963
 10
289.1206274414
 20
35.7875820923
  0
LWPOLYLINE
  5
3ED
100
AcDbEntity
  8
0
100
AcDbPolyline
 62
2
  6
CONTINUOUS
 90
2
 70
0
 43
0.25
 10
290.0000024414
 20
35.7875820923
 10
290.4747070312
 20
38.020914917
  0
LWPOLYLINE
  5
3EE
100
AcDbEntity
  8
0
100
AcDbPolyline
 62
2
  6
CONTINUOUS
 90
4
 70
0
 43
0.25
 10
290.3560437012
 20
37.4625769043
 10
290.7259533691
 20
38.020914917
 10
290.858536377
 20
37.4625769043
 10
290.5024951172
 20
35.7875820923
  0
LWPOLYLINE
  5
3EF
100
AcDbEntity
  8
0
100
AcDbPolyline
 62
2
  6
CONTINUOUS
 90
4
 70
0
 43
0.25
 10
290.858536377
 20
37.4625769043
 10
291.2284716797
 20
38.020914917
 10
291.3610290527
 20
37.4625769043
 10
291.004987793
 20
35.7875820923
  0
LWPOLYLINE
  5
3F0
100
AcDbEntity
  8
0
100
AcDbPolyline
 62
2
  6
CONTINUOUS
 90
8
 70
0
 43
0.25
 10
293.3710253906
 20
37.4625769043
 10
293.2384680176
 20
38.020914917
 10
292.735949707
 20
38.020914917
 10
292.3660400391
 20
37.4625769043
 10
292.1286877441
 20
36.3459136963
 10
292.2612451172
 20
35.7875820923
 10
292.763737793
 20
35.7875820923
 10
293.1336730957
 20
36.3459136963
  0
LWPOLYLINE
  5
3F1
100
AcDbEntity
  8
0
100
AcDbPolyline
 62
2
  6
CONTINUOUS
 90
3
 70
0
 43
0.25
 10
293.4897143555
 20
38.020914917
 10
293.1336730957
 20
36.3459136963
 10
293.1406201172
 20
35.7875820923
  0
LWPOLYLINE
  5
3F2
100
AcDbEntity
  8
0
100
AcDbPolyline
 62
2
  6
CONTINUOUS
 90
4
 70
0
 43
0.25
 10
272.475
 20
35.7875820923
 10
273.1870568848
 20
39.137578125
 10
274.1920678711
 20
39.137578125
 10
273.4800109863
 20
35.7875820923
  0
LWPOLYLINE
  5
3F3
100
AcDbEntity
  8
0
100
AcDbPolyline
 62
2
  6
CONTINUOUS
 90
9
 70
0
 43
0.25
 10
274.6036853027
 20
36.3459136963
 10
274.7362426758
 20
35.7875820923
 10
275.2387609863
 20
35.7875820923
 10
275.6086706543
 20
36.3459136963
 10
275.8460229492
 20
37.4625769043
 10
275.7134655762
 20
38.020914917
 10
275.2109472656
 20
38.020914917
 10
274.8410375977
 20
37.4625769043
 10
274.6036853027
 20
36.3459136963
  0
LWPOLYLINE
  5
3F4
100
AcDbEntity
  8
0
100
AcDbPolyline
 62
2
  6
CONTINUOUS
 90
11
 70
0
 43
0.25
 10
277.8560449219
 20
37.4625769043
 10
277.7234619141
 20
38.020914917
 10
277.2209692383
 20
38.020914917
 10
276.8510339355
 20
37.4625769043
 10
276.6136816406
 20
36.3459136963
 10
276.7462390137
 20
35.7875820923
 10
277.2487573242
 20
35.7875820923
 10
277.6186669922
 20
36.3459136963
 10
278.0933972168
 20
38.579246521
 10
277.960814209
 20
39.137578125
 10
277.4583215332
 20
39.137578125
  0
LWPOLYLINE
  5
3F5
100
AcDbEntity
  8
0
100
AcDbPolyline
 62
2
  6
CONTINUOUS
 90
2
 70
0
 43
0.25
 10
278.5049890137
 20
35.7875820923
 10
278.9797192383
 20
38.020914917
  0
LWPOLYLINE
  5
3F6
100
AcDbEntity
  8
0
100
AcDbPolyline
 62
2
  6
CONTINUOUS
 90
5
 70
0
 43
0.25
 10
278.8610302734
 20
37.4625769043
 10
279.2309655762
 20
38.020914917
 10
279.733458252
 20
38.020914917
 10
279.8660412598
 20
37.4625769043
 10
279.51
 20
35.7875820923
  0
LWPOLYLINE
  5
3F7
100
AcDbEntity
  8
0
100
AcDbPolyline
 62
2
  6
CONTINUOUS
 90
5
 70
0
 43
0.25
 10
280.6406213379
 20
35.7875820923
 10
280.5150109863
 20
35.7875820923
 10
280.574329834
 20
36.0667446899
 10
280.6999658203
 20
36.0667446899
 10
280.6406213379
 20
35.7875820923
  0
LWPOLYLINE
  5
3F8
100
AcDbEntity
  8
0
100
AcDbPolyline
 62
2
  6
CONTINUOUS
 90
4
 70
0
 43
0.25
 10
250.4599914551
 20
35.7875820923
 10
251.1720739746
 20
39.137578125
 10
251.4650024414
 20
35.7875820923
 10
252.1770593262
 20
39.137578125
  0
LWPOLYLINE
  5
3F9
100
AcDbEntity
  8
0
100
AcDbPolyline
 62
2
  6
CONTINUOUS
 90
11
 70
0
 43
0.25
 10
255.841036377
 20
37.4625769043
 10
255.7084533691
 20
38.020914917
 10
255.2059606934
 20
38.020914917
 10
254.8360253906
 20
37.4625769043
 10
254.5986730957
 20
36.3459136963
 10
254.7312561035
 20
35.7875820923
 10
255.2337487793
 20
35.7875820923
 10
255.603684082
 20
36.3459136963
 10
256.0783886719
 20
38.579246521
 10
255.9458056641
 20
39.137578125
 10
255.4433129883
 20
39.137578125
  0
LWPOLYLINE
  5
3FA
100
AcDbEntity
  8
0
100
AcDbPolyline
 62
2
  6
CONTINUOUS
 90
9
 70
0
 43
0.25
 10
256.6086694336
 20
36.3459136963
 10
256.7412524414
 20
35.7875820923
 10
257.2437451172
 20
35.7875820923
 10
257.6136804199
 20
36.3459136963
 10
257.8510327148
 20
37.4625769043
 10
257.718449707
 20
38.020914917
 10
257.2159570313
 20
38.020914917
 10
256.8460217285
 20
37.4625769043
 10
256.6086694336
 20
36.3459136963
  0
LWPOLYLINE
  5
3FB
100
AcDbEntity
  8
0
100
AcDbPolyline
 62
2
  6
CONTINUOUS
 90
2
 70
0
 43
0.25
 10
258.9747070312
 20
38.020914917
 10
258.5000024414
 20
35.7875820923
  0
LWPOLYLINE
  5
3FC
100
AcDbEntity
  8
0
100
AcDbPolyline
 62
2
  6
CONTINUOUS
 90
2
 70
0
 43
0.25
 10
258.6186657715
 20
36.3459136963
 10
259.9797180176
 20
38.020914917
  0
LWPOLYLINE
  5
3FD
100
AcDbEntity
  8
0
100
AcDbPolyline
 62
2
  6
CONTINUOUS
 90
2
 70
0
 43
0.25
 10
259.1142370605
 20
36.9042453003
 10
259.504987793
 20
35.7875820923
  0
LWPOLYLINE
  5
3FE
100
AcDbEntity
  8
0
100
AcDbPolyline
 62
2
  6
CONTINUOUS
 90
2
 70
0
 43
0.25
 10
260.9847033691
 20
38.020914917
 10
261.0124914551
 20
35.7875820923
  0
LWPOLYLINE
  5
3FF
100
AcDbEntity
  8
0
100
AcDbPolyline
 62
2
  6
CONTINUOUS
 90
3
 70
0
 43
0.25
 10
260.2726464844
 20
34.6709124756
 10
260.5238928223
 20
34.6709124756
 10
261.9897143555
 20
38.020914917
  0
LWPOLYLINE
  5
400
100
AcDbEntity
  8
0
100
AcDbPolyline
 62
2
  6
CONTINUOUS
 90
5
 70
0
 43
0.25
 10
262.5199951172
 20
35.7875820923
 10
262.994699707
 20
38.020914917
 10
263.2598657227
 20
36.9042453003
 10
263.9997106934
 20
38.020914917
 10
263.5250061035
 20
35.7875820923
  0
LWPOLYLINE
  5
401
100
AcDbEntity
  8
0
100
AcDbPolyline
 62
2
  6
CONTINUOUS
 90
5
 70
0
 43
0.25
 10
264.6556274414
 20
35.7875820923
 10
264.5299914551
 20
35.7875820923
 10
264.5893359375
 20
36.0667446899
 10
264.7149719238
 20
36.0667446899
 10
264.6556274414
 20
35.7875820923
  0
LWPOLYLINE
  5
402
100
AcDbEntity
  8
0
100
AcDbPolyline
 62
2
  6
CONTINUOUS
 90
3
 70
0
 43
0.25
 10
237.979987793
 20
35.7875820923
 10
239.1945629883
 20
39.137578125
 10
238.9849987793
 20
35.7875820923
  0
LWPOLYLINE
  5
403
100
AcDbEntity
  8
0
100
AcDbPolyline
 62
2
  6
CONTINUOUS
 90
5
 70
0
 43
0.25
 10
240.4647143555
 20
38.020914917
 10
240.1086730957
 20
36.3459136963
 10
240.2412561035
 20
35.7875820923
 10
240.4925024414
 20
35.7875820923
 10
241.2323474121
 20
36.9042453003
  0
LWPOLYLINE
  5
404
100
AcDbEntity
  8
0
100
AcDbPolyline
 62
2
  6
CONTINUOUS
 90
2
 70
0
 43
0.25
 10
241.469699707
 20
38.020914917
 10
240.9949951172
 20
35.7875820923
  0
LWPOLYLINE
  5
405
100
AcDbEntity
  8
0
100
AcDbPolyline
 62
2
  6
CONTINUOUS
 90
8
 70
0
 43
0.25
 10
243.3610327148
 20
37.4625769043
 10
243.228449707
 20
38.020914917
 10
242.7259570313
 20
38.020914917
 10
242.3560217285
 20
37.4625769043
 10
242.1186694336
 20
36.3459136963
 10
242.2512524414
 20
35.7875820923
 10
242.7537451172
 20
35.7875820923
 10
243.1236804199
 20
36.3459136963
  0
LWPOLYLINE
  5
406
100
AcDbEntity
  8
0
100
AcDbPolyline
 62
2
  6
CONTINUOUS
 90
2
 70
0
 43
0.25
 10
244.0100024414
 20
35.7875820923
 10
244.4847070312
 20
38.020914917
  0
LWPOLYLINE
  5
407
100
AcDbEntity
  8
0
100
AcDbPolyline
 62
2
  6
CONTINUOUS
 90
4
 70
0
 43
0.25
 10
244.3660437012
 20
37.4625769043
 10
244.7359533691
 20
38.020914917
 10
244.868536377
 20
37.4625769043
 10
244.5124951172
 20
35.7875820923
  0
LWPOLYLINE
  5
408
100
AcDbEntity
  8
0
100
AcDbPolyline
 62
2
  6
CONTINUOUS
 90
4
 70
0
 43
0.25
 10
244.868536377
 20
37.4625769043
 10
245.2384716797
 20
38.020914917
 10
245.3710290527
 20
37.4625769043
 10
245.014987793
 20
35.7875820923
  0
LWPOLYLINE
  5
409
100
AcDbEntity
  8
0
100
AcDbPolyline
 62
2
  6
CONTINUOUS
 90
4
 70
0
 43
0.25
 10
231.1970544434
 20
39.137578125
 10
230.4849975586
 20
35.7875820923
 10
232.2020654297
 20
39.137578125
 10
231.4900085449
 20
35.7875820923
  0
LWPOLYLINE
  5
40A
100
AcDbEntity
  8
0
100
AcDbPolyline
 62
2
  6
CONTINUOUS
 90
9
 70
0
 43
0.25
 10
232.6136828613
 20
36.3459136963
 10
232.7462402344
 20
35.7875820923
 10
233.2487585449
 20
35.7875820923
 10
233.6186682129
 20
36.3459136963
 10
233.4861108398
 20
36.9042453003
 10
233.8560205078
 20
37.4625769043
 10
233.7234631348
 20
38.020914917
 10
233.220970459
 20
38.020914917
 10
232.8510351562
 20
37.4625769043
  0
LWPOLYLINE
  5
40B
100
AcDbEntity
  8
0
100
AcDbPolyline
 62
2
  6
CONTINUOUS
 90
2
 70
0
 43
0.25
 10
233.234864502
 20
36.9042453003
 10
233.4861108398
 20
36.9042453003
  0
LWPOLYLINE
  5
40C
100
AcDbEntity
  8
0
100
AcDbPolyline
 62
2
  6
CONTINUOUS
 90
5
 70
0
 43
0.25
 10
234.5049902344
 20
35.7875820923
 10
234.979720459
 20
38.020914917
 10
235.2448608398
 20
36.9042453003
 10
235.9847058105
 20
38.020914917
 10
235.5100012207
 20
35.7875820923
  0
LWPOLYLINE
  5
40D
100
AcDbEntity
  8
0
100
AcDbPolyline
 62
2
  6
CONTINUOUS
 90
5
 70
0
 43
0.25
 10
398.9650085449
 20
40.7875790405
 10
399.6770654297
 20
44.1375814819
 10
399.7048535156
 20
41.9042486572
 10
400.682076416
 20
44.1375814819
 10
399.9699938965
 20
40.7875790405
  0
LWPOLYLINE
  5
40E
100
AcDbEntity
  8
0
100
AcDbPolyline
 62
2
  6
CONTINUOUS
 90
8
 70
0
 43
0.25
 10
402.3360314941
 20
42.4625802612
 10
402.2034484863
 20
43.0209118652
 10
401.7009558105
 20
43.0209118652
 10
401.3310205078
 20
42.4625802612
 10
401.0936682129
 20
41.3459106445
 10
401.2262512207
 20
40.7875790405
 10
401.7287438965
 20
40.7875790405
 10
402.0986791992
 20
41.3459106445
  0
LWPOLYLINE
  5
40F
100
AcDbEntity
  8
0
100
AcDbPolyline
 62
2
  6
CONTINUOUS
 90
3
 70
0
 43
0.25
 10
402.454720459
 20
43.0209118652
 10
402.0986791992
 20
41.3459106445
 10
402.1056262207
 20
40.7875790405
  0
LWPOLYLINE
  5
410
100
AcDbEntity
  8
0
100
AcDbPolyline
 62
2
  6
CONTINUOUS
 90
8
 70
0
 43
0.25
 10
404.346027832
 20
42.4625802612
 10
404.213470459
 20
43.0209118652
 10
403.7109521484
 20
43.0209118652
 10
403.3410424805
 20
42.4625802612
 10
403.1036901855
 20
41.3459106445
 10
403.2362475586
 20
40.7875790405
 10
403.7387402344
 20
40.7875790405
 10
404.1086755371
 20
41.3459106445
  0
LWPOLYLINE
  5
411
100
AcDbEntity
  8
0
100
AcDbPolyline
 62
2
  6
CONTINUOUS
 90
7
 70
0
 43
0.25
 10
405.4697021484
 20
43.0209118652
 10
405.1136865234
 20
41.3459106445
 10
405.2462438965
 20
40.7875790405
 10
405.6161791992
 20
41.3459106445
 10
405.748762207
 20
40.7875790405
 10
406.118671875
 20
41.3459106445
 10
406.4747131348
 20
43.0209118652
  0
LWPOLYLINE
  5
412
100
AcDbEntity
  8
0
100
AcDbPolyline
 62
2
  6
CONTINUOUS
 90
2
 70
0
 43
0.25
 10
405.972220459
 20
43.0209118652
 10
405.6161791992
 20
41.3459106445
  0
LWPOLYLINE
  5
413
100
AcDbEntity
  8
0
100
AcDbPolyline
 62
2
  6
CONTINUOUS
 90
2
 70
0
 43
0.25
 10
406.118671875
 20
41.3459106445
 10
406.1256188965
 20
40.7875790405
  0
LWPOLYLINE
  5
414
100
AcDbEntity
  8
0
100
AcDbPolyline
 62
2
  6
CONTINUOUS
 90
2
 70
0
 43
0.25
 10
407.0049938965
 20
40.7875790405
 10
407.4796984863
 20
43.0209118652
  0
LWPOLYLINE
  5
415
100
AcDbEntity
  8
0
100
AcDbPolyline
 62
2
  6
CONTINUOUS
 90
4
 70
0
 43
0.25
 10
407.3610351563
 20
42.4625802612
 10
407.730970459
 20
43.0209118652
 10
407.863527832
 20
42.4625802612
 10
407.507512207
 20
40.7875790405
  0
LWPOLYLINE
  5
416
100
AcDbEntity
  8
0
100
AcDbPolyline
 62
2
  6
CONTINUOUS
 90
4
 70
0
 43
0.25
 10
407.863527832
 20
42.4625802612
 10
408.2334631348
 20
43.0209118652
 10
408.3660205078
 20
42.4625802612
 10
408.0100048828
 20
40.7875790405
  0
LWPOLYLINE
  5
417
100
AcDbEntity
  8
0
100
AcDbPolyline
 62
2
  6
CONTINUOUS
 90
8
 70
0
 43
0.25
 10
410.3760424805
 20
42.4625802612
 10
410.2434594727
 20
43.0209118652
 10
409.7409667969
 20
43.0209118652
 10
409.3710314941
 20
42.4625802612
 10
409.1336791992
 20
41.3459106445
 10
409.266262207
 20
40.7875790405
 10
409.7687548828
 20
40.7875790405
 10
410.1386901855
 20
41.3459106445
  0
LWPOLYLINE
  5
418
100
AcDbEntity
  8
0
100
AcDbPolyline
 62
2
  6
CONTINUOUS
 90
3
 70
0
 43
0.25
 10
410.4947058105
 20
43.0209118652
 10
410.1386901855
 20
41.3459106445
 10
410.145637207
 20
40.7875790405
  0
LWPOLYLINE
  5
419
100
AcDbEntity
  8
0
100
AcDbPolyline
 62
2
  6
CONTINUOUS
 90
10
 70
0
 43
0.25
 10
412.2534558105
 20
43.0209118652
 10
411.7509631348
 20
43.0209118652
 10
411.381027832
 20
42.4625802612
 10
411.1436755371
 20
41.3459106445
 10
411.2762585449
 20
40.7875790405
 10
411.7787512207
 20
40.7875790405
 10
412.1486865234
 20
41.3459106445
 10
412.3860388184
 20
42.4625802612
 10
411.9883154297
 20
44.1375814819
 10
412.7420544434
 20
44.1375814819
  0
LWPOLYLINE
  5
41A
100
AcDbEntity
  8
0
100
AcDbPolyline
 62
2
  6
CONTINUOUS
 90
5
 70
0
 43
0.25
 10
383.4749963379
 20
40.7875790405
 10
384.1870532227
 20
44.1375814819
 10
384.2148669434
 20
41.9042486572
 10
385.192064209
 20
44.1375814819
 10
384.4800073242
 20
40.7875790405
  0
LWPOLYLINE
  5
41B
100
AcDbEntity
  8
0
100
AcDbPolyline
 62
2
  6
CONTINUOUS
 90
8
 70
0
 43
0.25
 10
386.8460449219
 20
42.4625802612
 10
386.7134619141
 20
43.0209118652
 10
386.2109692383
 20
43.0209118652
 10
385.8410339355
 20
42.4625802612
 10
385.6036816406
 20
41.3459106445
 10
385.7362390137
 20
40.7875790405
 10
386.2387573242
 20
40.7875790405
 10
386.6086669922
 20
41.3459106445
  0
LWPOLYLINE
  5
41C
100
AcDbEntity
  8
0
100
AcDbPolyline
 62
2
  6
CONTINUOUS
 90
3
 70
0
 43
0.25
 10
386.964708252
 20
43.0209118652
 10
386.6086669922
 20
41.3459106445
 10
386.6156140137
 20
40.7875790405
  0
LWPOLYLINE
  5
41D
100
AcDbEntity
  8
0
100
AcDbPolyline
 62
2
  6
CONTINUOUS
 90
8
 70
0
 43
0.25
 10
388.8560412598
 20
42.4625802612
 10
388.723458252
 20
43.0209118652
 10
388.2209655762
 20
43.0209118652
 10
387.8510302734
 20
42.4625802612
 10
387.6136779785
 20
41.3459106445
 10
387.7462609863
 20
40.7875790405
 10
388.2487536621
 20
40.7875790405
 10
388.6186889648
 20
41.3459106445
  0
LWPOLYLINE
  5
41E
100
AcDbEntity
  8
0
100
AcDbPolyline
 62
2
  6
CONTINUOUS
 90
8
 70
0
 43
0.25
 10
390.8660375977
 20
42.4625802612
 10
390.7334545898
 20
43.0209118652
 10
390.2309619141
 20
43.0209118652
 10
389.8610266113
 20
42.4625802612
 10
389.6236743164
 20
41.3459106445
 10
389.7562573242
 20
40.7875790405
 10
390.25875
 20
40.7875790405
 10
390.6286853027
 20
41.3459106445
  0
LWPOLYLINE
  5
41F
100
AcDbEntity
  8
0
100
AcDbPolyline
 62
2
  6
CONTINUOUS
 90
8
 70
0
 43
0.25
 10
392.8760339355
 20
42.4625802612
 10
392.7434509277
 20
43.0209118652
 10
392.240958252
 20
43.0209118652
 10
391.8710229492
 20
42.4625802612
 10
391.6336706543
 20
41.3459106445
 10
391.7662536621
 20
40.7875790405
 10
392.2687463379
 20
40.7875790405
 10
392.6386816406
 20
41.3459106445
  0
LWPOLYLINE
  5
420
100
AcDbEntity
  8
0
100
AcDbPolyline
 62
2
  6
CONTINUOUS
 90
3
 70
0
 43
0.25
 10
392.9946972656
 20
43.0209118652
 10
392.6386816406
 20
41.3459106445
 10
392.6456286621
 20
40.7875790405
  0
LWPOLYLINE
  5
421
100
AcDbEntity
  8
0
100
AcDbPolyline
 62
2
  6
CONTINUOUS
 90
3
 70
0
 43
0.25
 10
368.4799914551
 20
40.7875790405
 10
369.6945666504
 20
44.1375814819
 10
369.4850024414
 20
40.7875790405
  0
LWPOLYLINE
  5
422
100
AcDbEntity
  8
0
100
AcDbPolyline
 62
2
  6
CONTINUOUS
 90
5
 70
0
 43
0.25
 10
370.9647180176
 20
43.0209118652
 10
370.6086767578
 20
41.3459106445
 10
370.7412597656
 20
40.7875790405
 10
370.9925061035
 20
40.7875790405
 10
371.7323510742
 20
41.9042486572
  0
LWPOLYLINE
  5
423
100
AcDbEntity
  8
0
100
AcDbPolyline
 62
2
  6
CONTINUOUS
 90
2
 70
0
 43
0.25
 10
371.9697033691
 20
43.0209118652
 10
371.4949987793
 20
40.7875790405
  0
LWPOLYLINE
  5
424
100
AcDbEntity
  8
0
100
AcDbPolyline
 62
2
  6
CONTINUOUS
 90
2
 70
0
 43
0.25
 10
372.5000097656
 20
40.7875790405
 10
372.9747143555
 20
43.0209118652
  0
LWPOLYLINE
  5
425
100
AcDbEntity
  8
0
100
AcDbPolyline
 62
2
  6
CONTINUOUS
 90
4
 70
0
 43
0.25
 10
372.8560253906
 20
42.4625802612
 10
373.2259606934
 20
43.0209118652
 10
373.3585437012
 20
42.4625802612
 10
373.0025024414
 20
40.7875790405
  0
LWPOLYLINE
  5
426
100
AcDbEntity
  8
0
100
AcDbPolyline
 62
2
  6
CONTINUOUS
 90
4
 70
0
 43
0.25
 10
373.3585437012
 20
42.4625802612
 10
373.7284533691
 20
43.0209118652
 10
373.861036377
 20
42.4625802612
 10
373.5049951172
 20
40.7875790405
  0
LWPOLYLINE
  5
427
100
AcDbEntity
  8
0
100
AcDbPolyline
 62
2
  6
CONTINUOUS
 90
5
 70
0
 43
0.25
 10
374.6356164551
 20
40.7875790405
 10
374.5100061035
 20
40.7875790405
 10
374.5693505859
 20
41.0667480469
 10
374.6949609375
 20
41.0667480469
 10
374.6356164551
 20
40.7875790405
  0
LWPOLYLINE
  5
428
100
AcDbEntity
  8
0
100
AcDbPolyline
 62
2
  6
CONTINUOUS
 90
4
 70
0
 43
0.25
 10
315.9004467773
 20
56.4106356812
 10
314.1999902344
 20
48.410640564
 10
318.3004504395
 20
56.4106356812
 10
316.5999938965
 20
48.410640564
  0
LWPOLYLINE
  5
429
100
AcDbEntity
  8
0
100
AcDbPolyline
 62
2
  6
CONTINUOUS
 90
6
 70
0
 43
0.25
 10
318.9999975586
 20
48.410640564
 10
320.7999938965
 20
48.410640564
 10
321.6834191895
 20
49.743968811
 10
321.9668115234
 20
51.0773034668
 10
321.650222168
 20
52.4106381226
 10
319.8502258301
 20
52.4106381226
  0
LWPOLYLINE
  5
42A
100
AcDbEntity
  8
0
100
AcDbPolyline
 62
2
  6
CONTINUOUS
 90
3
 70
0
 43
0.25
 10
318.9999975586
 20
48.410640564
 10
320.7004541016
 20
56.4106356812
 10
322.5004504395
 20
56.4106356812
  0
LWPOLYLINE
  5
42B
100
AcDbEntity
  8
0
100
AcDbPolyline
 62
2
  6
CONTINUOUS
 90
7
 70
0
 43
0.25
 10
323.8000048828
 20
48.410640564
 10
325.5004614258
 20
56.4106356812
 10
327.3004577637
 20
56.4106356812
 10
327.6170471191
 20
55.0773074341
 10
327.3336291504
 20
53.7439727783
 10
326.4502294922
 20
52.4106381226
 10
324.6502331543
 20
52.4106381226
  0
LWPOLYLINE
  5
42C
100
AcDbEntity
  8
0
100
AcDbPolyline
 62
2
  6
CONTINUOUS
 90
10
 70
0
 43
0.25
 10
330.0170507812
 20
55.0773074341
 10
330.9004504395
 20
56.4106356812
 10
332.1004650879
 20
56.4106356812
 10
332.4170544434
 20
55.0773074341
 10
331.8502185059
 20
52.4106381226
 10
330.9668188477
 20
51.0773034668
 10
329.766829834
 20
51.0773034668
 10
328.883404541
 20
49.743968811
 10
328.600012207
 20
48.410640564
 10
330.9999902344
 20
48.410640564
  0
LWPOLYLINE
  5
42D
100
AcDbEntity
  8
0
100
AcDbPolyline
 62
2
  6
CONTINUOUS
 90
5
 70
0
 43
0.25
 10
333.6999975586
 20
48.410640564
 10
333.3999938965
 20
48.410640564
 10
333.5417028809
 20
49.0773046875
 10
333.841706543
 20
49.0773046875
 10
333.6999975586
 20
48.410640564
  0
LWPOLYLINE
  5
42E
100
AcDbEntity
  8
0
100
AcDbPolyline
 62
2
  6
CONTINUOUS
 90
4
 70
0
 43
0.25
 10
338.8000085449
 20
48.410640564
 10
342.3004614258
 20
56.4106356812
 10
339.9004577637
 20
56.4106356812
 10
339.6170397949
 20
55.0773074341
  0
LWPOLYLINE
  5
42F
100
AcDbEntity
  8
0
100
AcDbPolyline
 62
2
  6
CONTINUOUS
 90
6
 70
0
 43
0.25
 10
343.0000085449
 20
48.410640564
 10
344.8000048828
 20
48.410640564
 10
345.683404541
 20
49.743968811
 10
345.9668225098
 20
51.0773034668
 10
345.6502331543
 20
52.4106381226
 10
343.8502368164
 20
52.4106381226
  0
LWPOLYLINE
  5
430
100
AcDbEntity
  8
0
100
AcDbPolyline
 62
2
  6
CONTINUOUS
 90
3
 70
0
 43
0.25
 10
343.0000085449
 20
48.410640564
 10
344.7004650879
 20
56.4106356812
 10
346.5004614258
 20
56.4106356812
  0
LWPOLYLINE
  5
431
100
AcDbEntity
  8
0
100
AcDbPolyline
 62
2
  6
CONTINUOUS
 90
5
 70
0
 43
0.25
 10
348.0999938965
 20
48.410640564
 10
347.7999902344
 20
48.410640564
 10
347.9416992187
 20
49.0773046875
 10
348.2417028809
 20
49.0773046875
 10
348.0999938965
 20
48.410640564
  0
LWPOLYLINE
  5
432
100
AcDbEntity
  8
0
100
AcDbPolyline
 62
2
  6
CONTINUOUS
 90
9
 70
0
 43
0.25
 10
353.2000048828
 20
48.410640564
 10
352.8834155273
 20
49.743968811
 10
354.0170361328
 20
55.0773074341
 10
354.9004614258
 20
56.4106356812
 10
356.1004504395
 20
56.4106356812
 10
356.4170397949
 20
55.0773074341
 10
355.2834191895
 20
49.743968811
 10
354.3999938965
 20
48.410640564
 10
353.2000048828
 20
48.410640564
  0
LWPOLYLINE
  5
433
100
AcDbEntity
  8
0
100
AcDbPolyline
 62
2
  6
CONTINUOUS
 90
3
 70
0
 43
0.25
 10
360.0336437988
 20
53.7439727783
 10
361.2004614258
 20
56.4106356812
 10
359.5000048828
 20
48.410640564
  0
LWPOLYLINE
  5
434
100
AcDbEntity
  8
0
100
AcDbPolyline
 62
2
  6
CONTINUOUS
 90
2
 70
0
 43
0.25
 10
358.8999975586
 20
48.410640564
 10
360.100012207
 20
48.410640564
  0
LWPOLYLINE
  5
435
100
AcDbEntity
  8
0
100
AcDbPolyline
 62
2
  6
CONTINUOUS
 90
5
 70
0
 43
0.25
 10
362.4999902344
 20
48.410640564
 10
362.200012207
 20
48.410640564
 10
362.3416955566
 20
49.0773046875
 10
362.6416992187
 20
49.0773046875
 10
362.4999902344
 20
48.410640564
  0
LWPOLYLINE
  5
436
100
AcDbEntity
  8
0
100
AcDbPolyline
 62
2
  6
CONTINUOUS
 90
3
 70
0
 43
0.25
 10
369.6336328125
 20
53.7439727783
 10
370.8004504395
 20
56.4106356812
 10
369.0999938965
 20
48.410640564
  0
LWPOLYLINE
  5
437
100
AcDbEntity
  8
0
100
AcDbPolyline
 62
2
  6
CONTINUOUS
 90
2
 70
0
 43
0.25
 10
368.500012207
 20
48.410640564
 10
369.7000012207
 20
48.410640564
  0
LWPOLYLINE
  5
438
100
AcDbEntity
  8
0
100
AcDbPolyline
 62
2
  6
CONTINUOUS
 90
9
 70
0
 43
0.25
 10
372.4000085449
 20
48.410640564
 10
372.0834191895
 20
49.743968811
 10
373.2170397949
 20
55.0773074341
 10
374.1004650879
 20
56.4106356812
 10
375.3004541016
 20
56.4106356812
 10
375.617043457
 20
55.0773074341
 10
374.4833972168
 20
49.743968811
 10
373.5999975586
 20
48.410640564
 10
372.4000085449
 20
48.410640564
  0
LWPOLYLINE
  5
439
100
AcDbEntity
  8
0
100
AcDbPolyline
 62
2
  6
CONTINUOUS
 90
3
 70
0
 43
0.25
 10
379.2336474609
 20
53.7439727783
 10
380.4004650879
 20
56.4106356812
 10
378.7000085449
 20
48.410640564
  0
LWPOLYLINE
  5
43A
100
AcDbEntity
  8
0
100
AcDbPolyline
 62
2
  6
CONTINUOUS
 90
2
 70
0
 43
0.25
 10
378.1000012207
 20
48.410640564
 10
379.2999902344
 20
48.410640564
  0
LWPOLYLINE
  5
43B
100
AcDbEntity
  8
0
100
AcDbPolyline
 62
2
  6
CONTINUOUS
 90
5
 70
0
 43
0.25
 10
381.6999938965
 20
48.410640564
 10
381.3999902344
 20
48.410640564
 10
381.5416992188
 20
49.0773046875
 10
381.8417028809
 20
49.0773046875
 10
381.6999938965
 20
48.410640564
  0
LWPOLYLINE
  5
43C
100
AcDbEntity
  8
0
100
AcDbPolyline
 62
2
  6
CONTINUOUS
 90
9
 70
0
 43
0.25
 10
386.8000048828
 20
48.410640564
 10
386.4834155273
 20
49.743968811
 10
387.6170361328
 20
55.0773074341
 10
388.5004614258
 20
56.4106356812
 10
389.7004504395
 20
56.4106356812
 10
390.0170397949
 20
55.0773074341
 10
388.8834191895
 20
49.743968811
 10
387.9999938965
 20
48.410640564
 10
386.8000048828
 20
48.410640564
  0
LWPOLYLINE
  5
43D
100
AcDbEntity
  8
0
100
AcDbPolyline
 62
2
  6
CONTINUOUS
 90
10
 70
0
 43
0.25
 10
392.417043457
 20
55.0773074341
 10
393.3004431152
 20
56.4106356812
 10
394.5004577637
 20
56.4106356812
 10
394.8170471191
 20
55.0773074341
 10
394.2502368164
 20
52.4106381226
 10
393.3668115234
 20
51.0773034668
 10
392.1668225098
 20
51.0773034668
 10
391.2833972168
 20
49.743968811
 10
391.0000048828
 20
48.410640564
 10
393.4000085449
 20
48.410640564
  0
INSERT
  5
43E
100
AcDbEntity
  8
ALL_SURF_FIN
100
AcDbBlockReference
 62
2
  6
CONTINUOUS
  2
SYM_0_BL0
 10
398.1439967373
 20
279.9494910737
  0
LINE
  5
43F
100
AcDbEntity
  8
0
100
AcDbLine
 62
7
  6
CONTINUOUS
 10
0.0
 20
297.0
 11
0.0
 21
0.0
  0
LINE
  5
440
100
AcDbEntity
  8
0
100
AcDbLine
 62
7
  6
CONTINUOUS
 10
20.0
 20
292.0
 11
20.0
 21
5.0
  0
LINE
  5
441
100
AcDbEntity
  8
0
100
AcDbLine
 62
7
  6
CONTINUOUS
 10
0.0
 20
0.0
 11
420.0
 21
0.0
  0
LINE
  5
442
100
AcDbEntity
  8
0
100
AcDbLine
 62
7
  6
CONTINUOUS
 10
415.0
 20
5.0
 11
20.0
 21
5.0
  0
LINE
  5
443
100
AcDbEntity
  8
0
100
AcDbLine
 62
7
  6
CONTINUOUS
 10
20.0
 20
292.0
 11
415.0
 21
292.0
  0
LINE
  5
444
100
AcDbEntity
  8
0
100
AcDbLine
 62
7
  6
CONTINUOUS
 10
0.0
 20
297.0
 11
420.0
 21
297.0
  0
LINE
  5
445
100
AcDbEntity
  8
0
100
AcDbLine
 62
7
  6
CONTINUOUS
 10
415.0
 20
5.0
 11
415.0
 21
292.0
  0
LINE
  5
446
100
AcDbEntity
  8
0
100
AcDbLine
 62
7
  6
CONTINUOUS
 10
420.0
 20
0.0
 11
420.0
 21
297.0
  0
LWPOLYLINE
  5
447
100
AcDbEntity
  8
0
100
AcDbPolyline
 62
2
  6
CONTINUOUS
 90
5
 70
0
 43
0.2499999976
 10
289.1693334961
 20
76.3249200439
 10
289.0161914063
 20
76.3249200439
 10
289.0782019043
 20
76.6165859985
 10
289.2313183594
 20
76.6165859985
 10
289.1693334961
 20
76.3249200439
  0
LWPOLYLINE
  5
448
100
AcDbEntity
  8
0
100
AcDbPolyline
 62
2
  6
CONTINUOUS
 90
6
 70
0
 43
0.2499999976
 10
265.4859887695
 20
76.3249200439
 10
265.3328723145
 20
76.3249200439
 10
265.3948571777
 20
76.6165859985
 10
265.5479992676
 20
76.6165859985
 10
265.4859887695
 20
76.3249200439
 10
265.2088769531
 20
75.7415881348
  0
LWPOLYLINE
  5
449
100
AcDbEntity
  8
0
100
AcDbPolyline
 62
2
  6
CONTINUOUS
 90
6
 70
0
 43
0.2499999976
 10
253.2360058594
 20
76.3249200439
 10
253.0828637695
 20
76.3249200439
 10
253.1448742676
 20
76.6165859985
 10
253.2979907227
 20
76.6165859985
 10
253.2360058594
 20
76.3249200439
 10
252.9588684082
 20
75.7415881348
  0
LWPOLYLINE
  5
44A
100
AcDbEntity
  8
0
100
AcDbPolyline
 62
2
  6
CONTINUOUS
 90
5
 70
0
 43
0.2499999976
 10
240.9859973145
 20
76.3249200439
 10
240.8328808594
 20
76.3249200439
 10
240.8948657227
 20
76.6165859985
 10
241.0479821777
 20
76.6165859985
 10
240.9859973145
 20
76.3249200439
  0
LWPOLYLINE
  5
44B
100
AcDbEntity
  8
0
100
AcDbPolyline
 62
2
  6
CONTINUOUS
 90
2
 70
0
 43
0.2499999976
 10
248.9484887695
 20
76.3249200439
 10
249.5610058594
 20
76.3249200439
  0
LWPOLYLINE
  5
44C
100
AcDbEntity
  8
0
100
AcDbPolyline
 62
2
  6
CONTINUOUS
 90
2
 70
0
 43
0.2499999976
 10
261.1984973145
 20
76.3249200439
 10
261.8109887695
 20
76.3249200439
  0
LWPOLYLINE
  5
44D
100
AcDbEntity
  8
0
100
AcDbPolyline
 62
2
  6
CONTINUOUS
 90
2
 70
0
 43
0.2499999976
 10
270.2328808594
 20
76.3249200439
 10
273.7328723145
 20
76.3249200439
  0
LWPOLYLINE
  5
44E
100
AcDbEntity
  8
0
100
AcDbPolyline
 62
2
  6
CONTINUOUS
 90
2
 70
0
 43
0.2499999976
 10
274.3161914062
 20
76.3249200439
 10
274.9287084961
 20
76.3249200439
  0
LWPOLYLINE
  5
44F
100
AcDbEntity
  8
0
100
AcDbPolyline
 62
2
  6
CONTINUOUS
 90
2
 70
0
 43
0.2499999976
 10
279.9818334961
 20
76.3249200439
 10
280.5943249512
 20
76.3249200439
  0
LWPOLYLINE
  5
450
100
AcDbEntity
  8
0
100
AcDbPolyline
 62
2
  6
CONTINUOUS
 90
2
 70
0
 43
0.2499999976
 10
246.1048498535
 20
78.0749221802
 10
247.3298327637
 20
78.0749221802
  0
LWPOLYLINE
  5
451
100
AcDbEntity
  8
0
100
AcDbPolyline
 62
2
  6
CONTINUOUS
 90
2
 70
0
 43
0.2499999976
 10
270.6048413086
 20
78.0749221802
 10
274.1048327637
 20
78.0749221802
  0
LWPOLYLINE
  5
452
100
AcDbEntity
  8
0
100
AcDbPolyline
 62
2
  6
CONTINUOUS
 90
2
 70
0
 43
0.2499999976
 10
275.0601635742
 20
79.8249243164
 10
275.6726550293
 20
79.8249243164
  0
LWPOLYLINE
  5
453
100
AcDbEntity
  8
0
100
AcDbPolyline
 62
2
  6
CONTINUOUS
 90
2
 70
0
 43
0.2499999976
 10
277.5101550293
 20
79.8249243164
 10
278.7351635742
 20
79.8249243164
  0
LWPOLYLINE
  5
454
100
AcDbEntity
  8
0
100
AcDbPolyline
 62
2
  6
CONTINUOUS
 90
5
 70
0
 43
0.2499999976
 10
297.3360058594
 20
81.6922119141
 10
297.1828637695
 20
81.6922119141
 10
297.2448742676
 20
81.98387146
 10
297.3979907227
 20
81.98387146
 10
297.3360058594
 20
81.6922119141
  0
LWPOLYLINE
  5
455
100
AcDbEntity
  8
0
100
AcDbPolyline
 62
2
  6
CONTINUOUS
 90
5
 70
0
 43
0.2499999976
 10
240.9859973145
 20
81.6922119141
 10
240.8328808594
 20
81.6922119141
 10
240.8948657227
 20
81.98387146
 10
241.0479821777
 20
81.98387146
 10
240.9859973145
 20
81.6922119141
  0
LWPOLYLINE
  5
456
100
AcDbEntity
  8
0
100
AcDbPolyline
 62
2
  6
CONTINUOUS
 90
2
 70
0
 43
0.2499999976
 10
239.1484973145
 20
81.6922119141
 10
239.7609887695
 20
81.6922119141
  0
LWPOLYLINE
  5
457
100
AcDbEntity
  8
0
100
AcDbPolyline
 62
2
  6
CONTINUOUS
 90
7
 70
0
 43
0.2499999976
 10
262.8828808594
 20
81.6922119141
 10
263.8016308594
 20
81.6922119141
 10
264.2318591309
 20
82.2755438232
 10
264.4798498535
 20
83.4422076416
 10
264.2975866699
 20
84.0255395508
 10
263.6850952148
 20
84.0255395508
 10
263.2548413086
 20
83.4422076416
  0
LWPOLYLINE
  5
458
100
AcDbEntity
  8
0
100
AcDbPolyline
 62
2
  6
CONTINUOUS
 90
7
 70
0
 43
0.2499999976
 10
284.9328808594
 20
81.6922119141
 10
285.8516308594
 20
81.6922119141
 10
286.2818591309
 20
82.2755438232
 10
286.5298498535
 20
83.4422076416
 10
286.3475866699
 20
84.0255395508
 10
285.7350952148
 20
84.0255395508
 10
285.3048413086
 20
83.4422076416
  0
LWPOLYLINE
  5
459
100
AcDbEntity
  8
0
100
AcDbPolyline
 62
2
  6
CONTINUOUS
 90
2
 70
0
 43
0.2499999976
 10
256.3933630371
 20
82.8588757324
 10
256.6995959473
 20
82.8588757324
  0
LWPOLYLINE
  5
45A
100
AcDbEntity
  8
0
100
AcDbPolyline
 62
2
  6
CONTINUOUS
 90
10
 70
0
 43
0.2499999976
 10
260.6808544922
 20
82.8588757324
 10
261.5996044922
 20
82.8588757324
 10
262.0298327637
 20
83.4422076416
 10
261.8475952148
 20
84.0255395508
 10
261.235078125
 20
84.0255395508
 10
260.8048498535
 20
83.4422076416
 10
260.5568591309
 20
82.2755438232
 10
260.7391223145
 20
81.6922119141
 10
261.3516137695
 20
81.6922119141
 10
261.7818676758
 20
82.2755438232
  0
LWPOLYLINE
  5
45B
100
AcDbEntity
  8
0
100
AcDbPolyline
 62
2
  6
CONTINUOUS
 90
2
 70
0
 43
0.2499999976
 10
249.1673327637
 20
83.4422076416
 10
250.3923413086
 20
83.4422076416
  0
LWPOLYLINE
  5
45C
100
AcDbEntity
  8
0
100
AcDbPolyline
 62
2
  6
CONTINUOUS
 90
2
 70
0
 43
0.2499999976
 10
246.3528149414
 20
84.60887146
 10
246.9653320312
 20
84.60887146
  0
LWPOLYLINE
  5
45D
100
AcDbEntity
  8
ALL_DIMENSIONS
100
AcDbPolyline
 62
2
  6
CONTINUOUS
 90
2
 70
0
 43
0.2499999976
 10
122.7338360596
 20
102.3563067627
 10
123.346340332
 20
102.3563067627
  0
LWPOLYLINE
  5
45E
100
AcDbEntity
  8
ALL_DIMENSIONS
100
AcDbPolyline
 62
2
  6
CONTINUOUS
 90
2
 70
0
 43
0.2499999976
 10
122.7338360596
 20
112.3563006592
 10
123.346340332
 20
112.3563006592
  0
LWPOLYLINE
  5
45F
100
AcDbEntity
  8
ALL_DIMENSIONS
100
AcDbPolyline
 62
2
  6
CONTINUOUS
 90
2
 70
0
 43
0.2499999976
 10
125.183840332
 20
112.3563006592
 10
125.7963317871
 20
112.3563006592
  0
LINE
  5
460
100
AcDbEntity
  8
0
100
AcDbLine
 62
7
  6
CONTINUOUS
 10
85.6432128738
 20
121.4813060264
 11
165.6432128738
 21
121.4813060264
  0
LINE
  5
461
100
AcDbEntity
  8
ALL_ROUND
100
AcDbLine
 62
7
  6
CONTINUOUS
 10
105.5432128738
 20
136.4813060264
 11
145.7432128738
 21
136.4813060264
  0
LINE
  5
462
100
AcDbEntity
  8
0
100
AcDbLine
 62
7
  6
CONTINUOUS
 10
85.6432128738
 20
266.4813060264
 11
85.6432128738
 21
121.4813060264
  0
LWPOLYLINE
  5
463
100
AcDbEntity
  8
ALL_DIMENSIONS
100
AcDbPolyline
 62
2
  6
CONTINUOUS
 90
12
 70
0
 43
0.2499999976
 10
125.643215332
 20
105.2729663086
 10
125.3369567871
 20
105.8563110352
 10
124.724465332
 20
105.8563110352
 10
124.4182067871
 20
105.2729663086
 10
124.4182067871
 20
102.9396386719
 10
124.724465332
 20
102.3563067627
 10
125.3369567871
 20
102.3563067627
 10
125.643215332
 20
102.9396386719
 10
125.643215332
 20
104.1063024902
 10
125.3369567871
 20
104.6896343994
 10
124.724465332
 20
104.6896343994
 10
124.4182067871
 20
104.1063024902
  0
LWPOLYLINE
  5
464
100
AcDbEntity
  8
ALL_DIMENSIONS
100
AcDbPolyline
 62
2
  6
CONTINUOUS
 90
9
 70
0
 43
0.2499999976
 10
127.1744567871
 20
102.3563067627
 10
126.8682110596
 20
102.9396386719
 10
126.8682110596
 20
105.2729663086
 10
127.1744567871
 20
105.8563110352
 10
127.7869610596
 20
105.8563110352
 10
128.0932067871
 20
105.2729663086
 10
128.0932067871
 20
102.9396386719
 10
127.7869610596
 20
102.3563067627
 10
127.1744567871
 20
102.3563067627
  0
LWPOLYLINE
  5
465
100
AcDbEntity
  8
ALL_DIMENSIONS
100
AcDbPolyline
 62
2
  6
CONTINUOUS
 90
9
 70
0
 43
0.2499999976
 10
127.1744567871
 20
112.3563006592
 10
126.8682110596
 20
112.9396453857
 10
126.8682110596
 20
115.2729730225
 10
127.1744567871
 20
115.8563049316
 10
127.7869610596
 20
115.8563049316
 10
128.0932067871
 20
115.2729730225
 10
128.0932067871
 20
112.9396453857
 10
127.7869610596
 20
112.3563006592
 10
127.1744567871
 20
112.3563006592
  0
LINE
  5
466
100
AcDbEntity
  8
ALL_ROUND
100
AcDbLine
 62
7
  6
CONTINUOUS
 10
98.1432128738
 20
244.0813060264
 11
98.1432128738
 21
143.8813060264
  0
LWPOLYLINE
  5
467
100
AcDbEntity
  8
ALL_DIMENSIONS
100
AcDbPolyline
 62
2
  6
CONTINUOUS
 90
3
 70
0
 43
0.2499999976
 10
122.7338360596
 20
114.6896411133
 10
123.0400817871
 20
115.8563049316
 10
123.0400817871
 20
112.3563006592
  0
LWPOLYLINE
  5
468
100
AcDbEntity
  8
ALL_DIMENSIONS
100
AcDbPolyline
 62
2
  6
CONTINUOUS
 90
3
 70
0
 43
0.2499999976
 10
125.183840332
 20
114.6896411133
 10
125.4900860596
 20
115.8563049316
 10
125.4900860596
 20
112.3563006592
  0
LWPOLYLINE
  5
469
100
AcDbEntity
  8
ALL_DIMENSIONS
100
AcDbPolyline
 62
2
  6
CONTINUOUS
 90
3
 70
0
 43
0.2499999976
 10
122.7338360596
 20
104.6896343994
 10
123.0400817871
 20
105.8563110352
 10
123.0400817871
 20
102.3563067627
  0
LWPOLYLINE
  5
46A
100
AcDbEntity
  8
ALL_DIMENSIONS
100
AcDbPolyline
 62
2
  6
CONTINUOUS
 90
9
 70
0
 43
0.2499999976
 10
174.7682189941
 20
195.512545166
 10
174.1848742676
 20
195.2063122559
 10
171.8515466309
 20
195.2063122559
 10
171.2682147217
 20
195.512545166
 10
171.2682147217
 20
196.1250622559
 10
171.8515466309
 20
196.431295166
 10
174.1848742676
 20
196.431295166
 10
174.7682189941
 20
196.1250622559
 10
174.7682189941
 20
195.512545166
  0
LWPOLYLINE
  5
46B
100
AcDbEntity
  8
ALL_DIMENSIONS
100
AcDbPolyline
 62
2
  6
CONTINUOUS
 90
10
 70
0
 43
0.2499999976
 10
171.8515466309
 20
190.3063037109
 10
171.2682147217
 20
190.6125622559
 10
171.2682147217
 20
191.2250537109
 10
171.8515466309
 20
191.5313122559
 10
173.0182104492
 20
191.5313122559
 10
173.6015423584
 20
191.2250537109
 10
173.6015423584
 20
190.6125622559
 10
174.1848742676
 20
190.3063037109
 10
174.7682189941
 20
190.3063037109
 10
174.7682189941
 20
191.5313122559
  0
LWPOLYLINE
  5
46C
100
AcDbEntity
  8
ALL_DIMENSIONS
100
AcDbPolyline
 62
2
  6
CONTINUOUS
 90
10
 70
0
 43
0.2499999976
 10
179.851541748
 20
190.3063037109
 10
179.2682098389
 20
190.6125622559
 10
179.2682098389
 20
191.2250537109
 10
179.851541748
 20
191.5313122559
 10
181.0182183838
 20
191.5313122559
 10
181.601550293
 20
191.2250537109
 10
181.601550293
 20
190.6125622559
 10
182.1848822021
 20
190.3063037109
 10
182.7682141113
 20
190.3063037109
 10
182.7682141113
 20
191.5313122559
  0
LINE
  5
46D
100
AcDbEntity
  8
ALL_ROUND
100
AcDbLine
 62
7
  6
CONTINUOUS
 10
153.1432128738
 20
143.8813060264
 11
153.1432128738
 21
244.0813060264
  0
LWPOLYLINE
  5
46E
100
AcDbEntity
  8
ALL_DIMENSIONS
100
AcDbPolyline
 62
2
  6
CONTINUOUS
 90
9
 70
0
 43
0.2499999976
 10
182.7682141113
 20
195.512545166
 10
182.1848822021
 20
195.2063122559
 10
179.851541748
 20
195.2063122559
 10
179.2682098389
 20
195.512545166
 10
179.2682098389
 20
196.1250622559
 10
179.851541748
 20
196.431295166
 10
182.1848822021
 20
196.431295166
 10
182.7682141113
 20
196.1250622559
 10
182.7682141113
 20
195.512545166
  0
LWPOLYLINE
  5
46F
100
AcDbEntity
  8
ALL_DIMENSIONS
100
AcDbPolyline
 62
2
  6
CONTINUOUS
 90
12
 70
0
 43
0.2499999976
 10
182.1848822021
 20
192.756295166
 10
182.7682141113
 20
193.0625537109
 10
182.7682141113
 20
193.675045166
 10
182.1848822021
 20
193.9813037109
 10
179.851541748
 20
193.9813037109
 10
179.2682098389
 20
193.675045166
 10
179.2682098389
 20
193.0625537109
 10
179.851541748
 20
192.756295166
 10
181.0182183838
 20
192.756295166
 10
181.601550293
 20
193.0625537109
 10
181.601550293
 20
193.675045166
 10
181.0182183838
 20
193.9813037109
  0
LINE
  5
470
100
AcDbEntity
  8
0
100
AcDbLine
 62
7
  6
CONTINUOUS
 10
165.6432128738
 20
121.4813060264
 11
165.6432128738
 21
266.4813060264
  0
LWPOLYLINE
  5
471
100
AcDbEntity
  8
ALL_DIMENSIONS
100
AcDbPolyline
 62
2
  6
CONTINUOUS
 90
9
 70
0
 43
0.2499999976
 10
171.2682147217
 20
192.756295166
 10
171.2682147217
 20
193.9813037109
 10
172.43487854
 20
193.3688122559
 10
172.43487854
 20
193.675045166
 10
173.0182104492
 20
193.9813037109
 10
174.1848742676
 20
193.9813037109
 10
174.7682189941
 20
193.675045166
 10
174.7682189941
 20
193.0625537109
 10
174.1848742676
 20
192.756295166
  0
LINE
  5
472
100
AcDbEntity
  8
ALL_ROUND
100
AcDbLine
 62
7
  6
CONTINUOUS
 10
145.7432128738
 20
251.4813060264
 11
105.5432128738
 21
251.4813060264
  0
LINE
  5
473
100
AcDbEntity
  8
0
100
AcDbLine
 62
7
  6
CONTINUOUS
 10
165.6432128738
 20
266.4813060264
 11
85.6432128738
 21
266.4813060264
  0
LWPOLYLINE
  5
474
100
AcDbEntity
  8
0
100
AcDbPolyline
 62
2
  6
CONTINUOUS
 90
2
 70
0
 43
0.2499999976
 10
246.6299523926
 20
85.1922161865
 10
246.6882202148
 20
84.0255395508
  0
LWPOLYLINE
  5
475
100
AcDbEntity
  8
0
100
AcDbPolyline
 62
2
  6
CONTINUOUS
 90
2
 70
0
 43
0.2499999976
 10
245.7328637695
 20
76.3249200439
 10
246.4768103027
 20
79.8249243164
  0
LWPOLYLINE
  5
476
100
AcDbEntity
  8
0
100
AcDbPolyline
 62
2
  6
CONTINUOUS
 90
2
 70
0
 43
0.2499999976
 10
247.7018188477
 20
79.8249243164
 10
246.9578723145
 20
76.3249200439
  0
LWPOLYLINE
  5
477
100
AcDbEntity
  8
0
100
AcDbPolyline
 62
2
  6
CONTINUOUS
 90
7
 70
0
 43
0.2499999976
 10
250.6328723145
 20
81.6922119141
 10
251.3768188477
 20
85.1922161865
 10
252.2955688477
 20
85.1922161865
 10
252.4778320312
 20
84.60887146
 10
252.3538366699
 20
84.0255395508
 10
251.9235827637
 20
83.4422076416
 10
251.0048327637
 20
83.4422076416
  0
LWPOLYLINE
  5
478
100
AcDbEntity
  8
0
100
AcDbPolyline
 62
2
  6
CONTINUOUS
 90
4
 70
0
 43
0.2499999976
 10
251.5516223145
 20
76.3249200439
 10
252.2955688477
 20
79.8249243164
 10
250.7568676758
 20
76.9082583618
 10
251.9818505859
 20
76.9082583618
  0
LWPOLYLINE
  5
479
100
AcDbEntity
  8
0
100
AcDbPolyline
 62
2
  6
CONTINUOUS
 90
3
 70
0
 43
0.2499999976
 10
254.803828125
 20
84.0255395508
 10
254.4318676758
 20
82.2755438232
 10
254.4609887695
 20
81.6922119141
  0
LWPOLYLINE
  5
47A
100
AcDbEntity
  8
0
100
AcDbPolyline
 62
2
  6
CONTINUOUS
 90
5
 70
0
 43
0.2499999976
 10
257.9828723145
 20
81.6922119141
 10
258.478828125
 20
84.0255395508
 10
258.8433544922
 20
82.8588757324
 10
259.7038366699
 20
84.0255395508
 10
259.2078808594
 20
81.6922119141
  0
LWPOLYLINE
  5
47B
100
AcDbEntity
  8
0
100
AcDbPolyline
 62
2
  6
CONTINUOUS
 90
2
 70
0
 43
0.2499999976
 10
258.7268188477
 20
79.8249243164
 10
257.9828723145
 20
76.3249200439
  0
LWPOLYLINE
  5
47C
100
AcDbEntity
  8
0
100
AcDbPolyline
 62
2
  6
CONTINUOUS
 90
2
 70
0
 43
0.2499999976
 10
262.6348901367
 20
80.5255480957
 10
263.3788366699
 20
84.0255395508
  0
LWPOLYLINE
  5
47D
100
AcDbEntity
  8
0
100
AcDbPolyline
 62
2
  6
CONTINUOUS
 90
4
 70
0
 43
0.2499999976
 10
263.8016308594
 20
76.3249200439
 10
264.5455773926
 20
79.8249243164
 10
263.0068505859
 20
76.9082583618
 10
264.2318591309
 20
76.9082583618
  0
LWPOLYLINE
  5
47E
100
AcDbEntity
  8
0
100
AcDbPolyline
 62
2
  6
CONTINUOUS
 90
9
 70
0
 43
0.2499999976
 10
265.828828125
 20
84.0255395508
 10
265.4568676758
 20
82.2755438232
 10
265.6391308594
 20
81.6922119141
 10
265.9453637695
 20
81.6922119141
 10
266.3756176758
 20
82.2755438232
 10
266.4996130371
 20
82.8588757324
 10
266.3173498535
 20
83.4422076416
 10
266.0110913086
 20
83.4422076416
 10
265.5808630371
 20
82.8588757324
  0
LWPOLYLINE
  5
47F
100
AcDbEntity
  8
0
100
AcDbPolyline
 62
2
  6
CONTINUOUS
 90
2
 70
0
 43
0.2499999976
 10
267.0538366699
 20
84.0255395508
 10
266.5578808594
 20
81.6922119141
  0
LWPOLYLINE
  5
480
100
AcDbEntity
  8
0
100
AcDbPolyline
 62
2
  6
CONTINUOUS
 90
2
 70
0
 43
0.2499999976
 10
272.7268103027
 20
79.8249243164
 10
271.9828637695
 20
76.3249200439
  0
LWPOLYLINE
  5
481
100
AcDbEntity
  8
0
100
AcDbPolyline
 62
2
  6
CONTINUOUS
 90
2
 70
0
 43
0.2499999976
 10
275.3663964844
 20
79.8249243164
 10
274.6224499512
 20
76.3249200439
  0
LWPOLYLINE
  5
482
100
AcDbEntity
  8
0
100
AcDbPolyline
 62
2
  6
CONTINUOUS
 90
7
 70
0
 43
0.2499999976
 10
276.0516137695
 20
81.6922119141
 10
276.5475952148
 20
84.0255395508
 10
275.935078125
 20
84.0255395508
 10
275.5668347168
 20
83.7338800049
 10
275.4428393555
 20
83.1505480957
 10
275.6871130371
 20
82.8588757324
 10
276.2996044922
 20
82.8588757324
  0
LWPOLYLINE
  5
483
100
AcDbEntity
  8
0
100
AcDbPolyline
 62
2
  6
CONTINUOUS
 90
2
 70
0
 43
0.2499999976
 10
278.1226464844
 20
79.8249243164
 10
277.3786999512
 20
76.3249200439
  0
LWPOLYLINE
  5
484
100
AcDbEntity
  8
0
100
AcDbPolyline
 62
2
  6
CONTINUOUS
 90
2
 70
0
 43
0.2499999976
 10
282.4828637695
 20
81.6922119141
 10
282.9788452148
 20
84.0255395508
  0
LWPOLYLINE
  5
485
100
AcDbEntity
  8
0
100
AcDbPolyline
 62
2
  6
CONTINUOUS
 90
4
 70
0
 43
0.2499999976
 10
282.5849414062
 20
76.3249200439
 10
283.3289135742
 20
79.8249243164
 10
281.7901867676
 20
76.9082583618
 10
283.0151953125
 20
76.9082583618
  0
LWPOLYLINE
  5
486
100
AcDbEntity
  8
0
100
AcDbPolyline
 62
2
  6
CONTINUOUS
 90
2
 70
0
 43
0.2499999976
 10
284.6848901367
 20
80.5255480957
 10
285.4288366699
 20
84.0255395508
  0
LWPOLYLINE
  5
487
100
AcDbEntity
  8
0
100
AcDbPolyline
 62
2
  6
CONTINUOUS
 90
3
 70
0
 43
0.2499999976
 10
289.1038366699
 20
84.0255395508
 10
288.7318505859
 20
82.2755438232
 10
288.7609973145
 20
81.6922119141
  0
LWPOLYLINE
  5
488
100
AcDbEntity
  8
0
100
AcDbPolyline
 62
2
  6
CONTINUOUS
 90
2
 70
0
 43
0.2499999976
 10
295.228828125
 20
84.0255395508
 10
294.7328723145
 20
81.6922119141
  0
LWPOLYLINE
  5
489
100
AcDbEntity
  8
0
100
AcDbPolyline
 62
2
  6
CONTINUOUS
 90
3
 70
0
 43
0.2499999976
 10
239.644453125
 20
84.0255395508
 10
240.1987023926
 20
85.1922161865
 10
239.4547558594
 20
81.6922119141
  0
LWPOLYLINE
  5
48A
100
AcDbEntity
  8
0
100
AcDbPolyline
 62
2
  6
CONTINUOUS
 90
2
 70
0
 43
0.2499999976
 10
246.9361853027
 20
85.1922161865
 10
246.3819616699
 20
84.0255395508
  0
LWPOLYLINE
  5
48B
100
AcDbEntity
  8
0
100
AcDbPolyline
 62
2
  6
CONTINUOUS
 90
3
 70
0
 43
0.2499999976
 10
249.4444702148
 20
78.6582540894
 10
249.9986938477
 20
79.8249243164
 10
249.2547473145
 20
76.3249200439
  0
LWPOLYLINE
  5
48C
100
AcDbEntity
  8
0
100
AcDbPolyline
 62
2
  6
CONTINUOUS
 90
3
 70
0
 43
0.2499999976
 10
261.694453125
 20
78.6582540894
 10
262.2487023926
 20
79.8249243164
 10
261.5047558594
 20
76.3249200439
  0
LWPOLYLINE
  5
48D
100
AcDbEntity
  8
0
100
AcDbPolyline
 62
2
  6
CONTINUOUS
 90
3
 70
0
 43
0.2499999976
 10
272.6828723145
 20
81.6922119141
 10
273.7913452148
 20
84.0255395508
 10
273.9078808594
 20
81.6922119141
  0
LWPOLYLINE
  5
48E
100
AcDbEntity
  8
0
100
AcDbPolyline
 62
2
  6
CONTINUOUS
 90
3
 70
0
 43
0.2499999976
 10
280.4777893066
 20
78.6582540894
 10
281.0320385742
 20
79.8249243164
 10
280.2880664062
 20
76.3249200439
  0
LWPOLYLINE
  5
48F
100
AcDbEntity
  8
0
100
AcDbPolyline
 62
2
  6
CONTINUOUS
 90
2
 70
0
 43
0.2499999976
 10
284.1162084961
 20
76.3249200439
 10
286.0851635742
 20
79.8249243164
  0
LWPOLYLINE
  5
490
100
AcDbEntity
  8
0
100
AcDbPolyline
 62
2
  6
CONTINUOUS
 90
10
 70
0
 43
0.2499999976
 10
239.0028149414
 20
79.2415924072
 10
239.4330688477
 20
79.8249243164
 10
240.0455603027
 20
79.8249243164
 10
240.2278234863
 20
79.2415924072
 10
239.9798327637
 20
78.0749221802
 10
239.5496044922
 20
77.491590271
 10
238.9371130371
 20
77.491590271
 10
238.5068591309
 20
76.9082583618
 10
238.3828637695
 20
76.3249200439
 10
239.6078723145
 20
76.3249200439
  0
LWPOLYLINE
  5
491
100
AcDbEntity
  8
0
100
AcDbPolyline
 62
2
  6
CONTINUOUS
 90
5
 70
0
 43
0.2499999976
 10
258.2308630371
 20
77.491590271
 10
259.0913452148
 20
78.6582540894
 10
259.397578125
 20
78.6582540894
 10
259.5798413086
 20
78.0749221802
 10
259.2078808594
 20
76.3249200439
  0
LWPOLYLINE
  5
492
100
AcDbEntity
  8
0
100
AcDbPolyline
 62
2
  6
CONTINUOUS
 90
2
 70
0
 43
0.2499999976
 10
275.1328637695
 20
81.6922119141
 10
275.9933459473
 20
82.8588757324
  0
LWPOLYLINE
  5
493
100
AcDbEntity
  8
0
100
AcDbPolyline
 62
2
  6
CONTINUOUS
 90
5
 70
0
 43
0.2499999976
 10
282.8548498535
 20
83.4422076416
 10
283.285078125
 20
84.0255395508
 10
283.8975952148
 20
84.0255395508
 10
284.0798327637
 20
83.4422076416
 10
283.7078723145
 20
81.6922119141
  0
LWPOLYLINE
  5
494
100
AcDbEntity
  8
0
100
AcDbPolyline
 62
2
  6
CONTINUOUS
 90
12
 70
0
 43
0.2499999976
 10
290.2048498535
 20
83.4422076416
 10
291.0653320312
 20
84.60887146
 10
291.1893273926
 20
85.1922161865
 10
290.8830688477
 20
85.1922161865
 10
290.4528149414
 20
84.60887146
 10
289.9568591309
 20
82.2755438232
 10
290.1391223145
 20
81.6922119141
 10
290.7516137695
 20
81.6922119141
 10
291.1818676758
 20
82.2755438232
 10
291.4298327637
 20
83.4422076416
 10
291.2475952148
 20
84.0255395508
 10
290.635078125
 20
84.0255395508
  0
LWPOLYLINE
  5
495
100
AcDbEntity
  8
0
100
AcDbPolyline
 62
2
  6
CONTINUOUS
 90
10
 70
0
 43
0.2499999976
 10
287.186151123
 20
79.2415924072
 10
287.6164050293
 20
79.8249243164
 10
288.2288964844
 20
79.8249243164
 10
288.411159668
 20
79.2415924072
 10
288.1631689453
 20
78.0749221802
 10
287.7329406738
 20
77.491590271
 10
287.1204492187
 20
77.491590271
 10
286.6901953125
 20
76.9082583618
 10
286.5661999512
 20
76.3249200439
 10
287.7912084961
 20
76.3249200439
  0
LWPOLYLINE
  5
496
100
AcDbEntity
  8
0
100
AcDbPolyline
 62
2
  6
CONTINUOUS
 90
2
 70
0
 43
0.2499999976
 10
294.8568676758
 20
82.2755438232
 10
296.4538366699
 20
84.0255395508
  0
LWPOLYLINE
  5
497
100
AcDbEntity
  8
0
100
AcDbPolyline
 62
2
  6
CONTINUOUS
 90
2
 70
0
 43
0.2499999976
 10
295.4402380371
 20
82.8588757324
 10
295.9578808594
 20
81.6922119141
  0
LWPOLYLINE
  5
498
100
AcDbEntity
  8
0
100
AcDbPolyline
 62
2
  6
CONTINUOUS
 90
8
 70
0
 43
0.2499999976
 10
254.6798327637
 20
83.4422076416
 10
254.4975952148
 20
84.0255395508
 10
253.885078125
 20
84.0255395508
 10
253.4548498535
 20
83.4422076416
 10
253.2068591309
 20
82.2755438232
 10
253.3891223145
 20
81.6922119141
 10
254.0016137695
 20
81.6922119141
 10
254.4318676758
 20
82.2755438232
  0
LWPOLYLINE
  5
499
100
AcDbEntity
  8
0
100
AcDbPolyline
 62
2
  6
CONTINUOUS
 90
9
 70
0
 43
0.2499999976
 10
255.6568505859
 20
82.2755438232
 10
255.8391137695
 20
81.6922119141
 10
256.4516308594
 20
81.6922119141
 10
256.8818591309
 20
82.2755438232
 10
256.6995959473
 20
82.8588757324
 10
257.1298498535
 20
83.4422076416
 10
256.9475866699
 20
84.0255395508
 10
256.3350952148
 20
84.0255395508
 10
255.9048413086
 20
83.4422076416
  0
LWPOLYLINE
  5
49A
100
AcDbEntity
  8
0
100
AcDbPolyline
 62
2
  6
CONTINUOUS
 90
11
 70
0
 43
0.2499999976
 10
271.8298498535
 20
83.4422076416
 10
271.6475866699
 20
84.0255395508
 10
271.0350952148
 20
84.0255395508
 10
270.6048413086
 20
83.4422076416
 10
270.3568505859
 20
82.2755438232
 10
270.5391137695
 20
81.6922119141
 10
271.1516308594
 20
81.6922119141
 10
271.5818591309
 20
82.2755438232
 10
272.0778149414
 20
84.60887146
 10
271.8955773926
 20
85.1922161865
 10
271.2830603027
 20
85.1922161865
  0
LWPOLYLINE
  5
49B
100
AcDbEntity
  8
0
100
AcDbPolyline
 62
2
  6
CONTINUOUS
 90
8
 70
0
 43
0.2499999976
 10
281.6298413086
 20
83.4422076416
 10
281.447578125
 20
84.0255395508
 10
280.8350866699
 20
84.0255395508
 10
280.4048327637
 20
83.4422076416
 10
280.1568676758
 20
82.2755438232
 10
280.3391308594
 20
81.6922119141
 10
280.9516223145
 20
81.6922119141
 10
281.3818505859
 20
82.2755438232
  0
LWPOLYLINE
  5
49C
100
AcDbEntity
  8
0
100
AcDbPolyline
 62
2
  6
CONTINUOUS
 90
8
 70
0
 43
0.2499999976
 10
288.9798413086
 20
83.4422076416
 10
288.797578125
 20
84.0255395508
 10
288.1850866699
 20
84.0255395508
 10
287.7548327637
 20
83.4422076416
 10
287.5068676758
 20
82.2755438232
 10
287.6891308594
 20
81.6922119141
 10
288.3016223145
 20
81.6922119141
 10
288.7318505859
 20
82.2755438232
  0
LWPOLYLINE
  5
49D
100
AcDbEntity
  8
0
100
AcDbPolyline
 62
2
  6
CONTINUOUS
 90
9
 70
0
 43
0.2499999976
 10
292.4068505859
 20
82.2755438232
 10
292.5891137695
 20
81.6922119141
 10
293.2016308594
 20
81.6922119141
 10
293.6318591309
 20
82.2755438232
 10
293.8798498535
 20
83.4422076416
 10
293.6975866699
 20
84.0255395508
 10
293.0850952148
 20
84.0255395508
 10
292.6548413086
 20
83.4422076416
 10
292.4068505859
 20
82.2755438232
  0
LWPOLYLINE
  5
49E
100
AcDbEntity
  8
ALL_DIMENSIONS
100
AcDbPolyline
 62
2
  6
CONTINUOUS
 90
2
 70
0
 43
0.2499999976
 10
292.3992114258
 20
116.7102758789
 10
293.0117028809
 20
116.7102758789
  0
LINE
  5
49F
100
AcDbEntity
  8
0
100
AcDbLine
 62
7
  6
CONTINUOUS
 10
272.7253429118
 20
121.4813060264
 11
278.7253429118
 21
121.4813060264
  0
LINE
  5
4A0
100
AcDbEntity
  8
0
100
AcDbLine
 62
2
  6
CONTINUOUS
 10
273.9697053002
 20
266.4813060264
 11
272.7253429118
 21
265.2369436379
  0
LINE
  5
4A1
100
AcDbEntity
  8
0
100
AcDbLine
 62
2
  6
CONTINUOUS
 10
275.3839188626
 20
266.4813060264
 11
272.7253429118
 21
263.8227300756
  0
LINE
  5
4A2
100
AcDbEntity
  8
0
100
AcDbLine
 62
2
  6
CONTINUOUS
 10
276.798132425
 20
266.4813060264
 11
272.7253429118
 21
262.4085165132
  0
LINE
  5
4A3
100
AcDbEntity
  8
0
100
AcDbLine
 62
2
  6
CONTINUOUS
 10
278.2123459873
 20
266.4813060264
 11
272.7253429118
 21
260.9943029508
  0
LINE
  5
4A4
100
AcDbEntity
  8
0
100
AcDbLine
 62
2
  6
CONTINUOUS
 10
278.7253429118
 20
265.5800893884
 11
272.7253429118
 21
259.5800893884
  0
LINE
  5
4A5
100
AcDbEntity
  8
0
100
AcDbLine
 62
2
  6
CONTINUOUS
 10
278.7253429118
 20
264.1658758261
 11
272.7253429118
 21
258.1658758261
  0
LINE
  5
4A6
100
AcDbEntity
  8
0
100
AcDbLine
 62
2
  6
CONTINUOUS
 10
278.7253429118
 20
262.7516622637
 11
272.7253429118
 21
256.7516622637
  0
LINE
  5
4A7
100
AcDbEntity
  8
0
100
AcDbLine
 62
2
  6
CONTINUOUS
 10
278.7253429118
 20
261.3374487013
 11
272.7253429118
 21
255.3374487013
  0
LINE
  5
4A8
100
AcDbEntity
  8
0
100
AcDbLine
 62
2
  6
CONTINUOUS
 10
278.7253429118
 20
259.923235139
 11
272.7834137992
 21
253.9813060264
  0
LINE
  5
4A9
100
AcDbEntity
  8
0
100
AcDbLine
 62
2
  6
CONTINUOUS
 10
278.7253429118
 20
258.5090215766
 11
274.1976273616
 21
253.9813060264
  0
LINE
  5
4AA
100
AcDbEntity
  8
0
100
AcDbLine
 62
2
  6
CONTINUOUS
 10
278.7253429118
 20
257.0948080142
 11
275.2253429118
 21
253.5948080142
  0
LINE
  5
4AB
100
AcDbEntity
  8
0
100
AcDbLine
 62
2
  6
CONTINUOUS
 10
278.7253429118
 20
255.6805944518
 11
275.2253429118
 21
252.1805944518
  0
LINE
  5
4AC
100
AcDbEntity
  8
0
100
AcDbLine
 62
2
  6
CONTINUOUS
 10
278.7253429118
 20
254.2663808895
 11
275.9402680487
 21
251.4813060264
  0
LINE
  5
4AD
100
AcDbEntity
  8
0
100
AcDbLine
 62
2
  6
CONTINUOUS
 10
278.7253429118
 20
252.8521673271
 11
277.3544816111
 21
251.4813060264
  0
LINE
  5
4AE
100
AcDbEntity
  8
0
100
AcDbLine
 62
7
  6
CONTINUOUS
 10
272.7253429118
 20
121.4813060264
 11
272.7253429118
 21
266.4813060264
  0
LINE
  5
4AF
100
AcDbEntity
  8
0
100
AcDbLine
 62
7
  6
CONTINUOUS
 10
275.2253429118
 20
253.9813060264
 11
275.2253429118
 21
251.4813060264
  0
LINE
  5
4B0
100
AcDbEntity
  8
ALL_ROUND
100
AcDbLine
 62
7
  6
CONTINUOUS
 10
275.2253429118
 20
232.8431822646
 11
275.2253429118
 21
251.4813060264
  0
LINE
  5
4B1
100
AcDbEntity
  8
0
100
AcDbLine
 62
7
  6
CONTINUOUS
 10
278.7253429118
 20
232.8561298334
 11
278.7253429118
 21
121.4813060264
  0
LINE
  5
4B2
100
AcDbEntity
  8
ALL_ROUND
100
AcDbLine
 62
7
  6
CONTINUOUS
 10
278.7253429118
 20
232.8561298334
 11
278.7253429118
 21
251.4813060264
  0
LINE
  5
4B3
100
AcDbEntity
  8
0
100
AcDbLine
 62
7
  6
CONTINUOUS
 10
278.7253429118
 20
251.4813060264
 11
278.7253429118
 21
266.4813060264
  0
LWPOLYLINE
  5
4B4
100
AcDbEntity
  8
ALL_DIMENSIONS
100
AcDbPolyline
 62
2
  6
CONTINUOUS
 90
9
 70
0
 43
0.2499999976
 10
263.4702246094
 20
246.6375476074
 10
263.7764575195
 20
246.0542285156
 10
264.3889746094
 20
246.0542285156
 10
264.6952075195
 20
246.6375476074
 10
264.6952075195
 20
247.8042370605
 10
264.3889746094
 20
248.3875561523
 10
263.4702246094
 20
248.3875561523
 10
263.4702246094
 20
249.5542199707
 10
264.6952075195
 20
249.5542199707
  0
LWPOLYLINE
  5
4B5
100
AcDbEntity
  8
ALL_DIMENSIONS
100
AcDbPolyline
 62
2
  6
CONTINUOUS
 90
3
 70
0
 43
0.2499999976
 10
292.3992114258
 20
119.0436035156
 10
292.7054699707
 20
120.210267334
 10
292.7054699707
 20
116.7102758789
  0
LINE
  5
4B6
100
AcDbEntity
  8
0
100
AcDbLine
 62
7
  6
CONTINUOUS
 10
276.060987385
 20
232.5287788395
 11
278.7253429118
 21
232.8561298334
  0
LINE
  5
4B7
100
AcDbEntity
  8
0
100
AcDbLine
 62
7
  6
CONTINUOUS
 10
272.7253429118
 20
233.7837839054
 11
276.060987385
 21
232.5287788395
  0
LWPOLYLINE
  5
4B8
100
AcDbEntity
  8
ALL_DIMENSIONS
100
AcDbPolyline
 62
2
  6
CONTINUOUS
 90
10
 70
0
 43
0.2499999976
 10
294.0835949707
 20
119.6269354248
 10
294.3898278809
 20
120.210267334
 10
295.0023449707
 20
120.210267334
 10
295.3085778809
 20
119.6269354248
 10
295.3085778809
 20
118.4602716064
 10
295.0023449707
 20
117.8769396973
 10
294.3898278809
 20
117.8769396973
 10
294.0835949707
 20
117.2936077881
 10
294.0835949707
 20
116.7102758789
 10
295.3085778809
 20
116.7102758789
  0
LINE
  5
4B9
100
AcDbEntity
  8
0
100
AcDbLine
 62
7
  6
CONTINUOUS
 10
275.2253429118
 20
251.4813060264
 11
278.7253429118
 21
251.4813060264
  0
LINE
  5
4BA
100
AcDbEntity
  8
0
100
AcDbLine
 62
7
  6
CONTINUOUS
 10
272.7253429118
 20
253.9813060264
 11
275.2253429118
 21
253.9813060264
  0
LINE
  5
4BB
100
AcDbEntity
  8
0
100
AcDbLine
 62
7
  6
CONTINUOUS
 10
272.7253429118
 20
266.4813060264
 11
278.7253429118
 21
266.4813060264
  0
ARC
  5
4BC
100
AcDbEntity
  8
ALL_ROUND
100
AcDbCircle
 62
7
  6
CONTINUOUS
 10
105.5432128738
 20
143.8813060264
 40
7.4
100
AcDbArc
 50
180.0
 51
270.0
  0
ARC
  5
4BD
100
AcDbEntity
  8
ALL_ROUND
100
AcDbCircle
 62
7
  6
CONTINUOUS
 10
145.7432128738
 20
143.8813060264
 40
7.4
100
AcDbArc
 50
270.0
 51
360.0
  0
ARC
  5
4BE
100
AcDbEntity
  8
ALL_ROUND
100
AcDbCircle
 62
7
  6
CONTINUOUS
 10
105.5432128738
 20
244.0813060264
 40
7.4
100
AcDbArc
 50
90.0
 51
180.0
  0
ARC
  5
4BF
100
AcDbEntity
  8
ALL_ROUND
100
AcDbCircle
 62
7
  6
CONTINUOUS
 10
145.7432128738
 20
244.0813060264
 40
7.4
100
AcDbArc
 50
0.0
 51
90.0
  0
ENDSEC
  0
SECTION
  2
OBJECTS
  0
DICTIONARY
  5
C
100
AcDbDictionary
280
0
281
1
  3
ACAD_GROUP
350
D
  3
ACAD_MLINESTYLE
350
17
  3
ACAD_LAYOUT
350
1A
  3
ACAD_PLOTSETTINGS
350
19
  3
ACAD_PLOTSTYLENAME
350
E
  0
DICTIONARY
  5
D
102
{ACAD_REACTORS
330
C
102
}
100
AcDbDictionary
280
0
281
1
  0
ACDBDICTIONARYWDFLT
  5
E
102
{ACAD_REACTORS
330
C
102
}
100
AcDbDictionary
281
1
  3
Normal
350
F
100
AcDbDictionaryWithDefault
340
F
  0
DICTIONARY
  5
17
102
{ACAD_REACTORS
330
C
102
}
100
AcDbDictionary
280
0
281
1
  3
Standard
350
18
  0
DICTIONARY
  5
19
102
{ACAD_REACTORS
330
C
102
}
100
AcDbDictionary
281
1
  0
DICTIONARY
  5
1A
102
{ACAD_REACTORS
330
C
102
}
100
AcDbDictionary
281
1
  3
Model
350
4C0
  3
Layout1
350
4C1
  0
ACDBPLACEHOLDER
  5
F
102
{ACAD_REACTORS
330
E
102
}
  0
MLINESTYLE
  5
18
102
{ACAD_REACTORS
330
17
102
}
100
AcDbMlineStyle
  2
STANDARD
 70
0
  3

 62
256
 51
90.0
 52
90.0
 71
2
 49
0.5
 62
256
  6
BYLAYER
 49
-0.5
 62
256
  6
BYLAYER
  0
LAYOUT
  5
4C0
102
{ACAD_REACTORS
330
1A
102
}
100
AcDbPlotSettings
  1

  2
none_device
  4

  6

 40
0.0
 41
0.0
 42
0.0
 43
0.0
 44
420.0
 45
297.0
 46
0.0
 47
0.0
 48
0.0
 49
0.0
140
0.0
141
0.0
142
1.0
143
1.0
 70
1024
 72
1
 73
0
 74
0
  7

 75
0
147
1.0
148
0.0
149
0.0
100
AcDbLayout
  1
Model
 70
0
 71
0
 10
0.0
 20
0.0
 11
420.0
 21
297.0
 12
0.0
 22
0.0
 32
0.0
 14
0.0
 24
0.0
 34
0.0
 15
0.0
 25
0.0
 35
0.0
146
0.0
 13
0.0
 23
0.0
 33
0.0
 16
1.0
 26
0.0
 36
0.0
 17
0.0
 27
1.0
 37
0.0
 76
0
330
20C
345
0
346
0
  0
LAYOUT
  5
4C1
102
{ACAD_REACTORS
330
1A
102
}
100
AcDbPlotSettings
  1

  2
none_device
  4

  6

 40
0.0
 41
0.0
 42
0.0
 43
0.0
 44
420.0
 45
297.0
 46
0.0
 47
0.0
 48
0.0
 49
0.0
140
0.0
141
0.0
142
1.0
143
1.0
 70
0
 72
1
 73
0
 74
0
  7

 75
0
147
1.0
148
0.0
149
0.0
100
AcDbLayout
  1
Layout1
 70
0
 71
1
 10
0.0
 20
0.0
 11
420.0
 21
297.0
 12
0.0
 22
0.0
 32
0.0
 14
0.0
 24
0.0
 34
0.0
 15
0.0
 25
0.0
 35
0.0
146
0.0
 13
0.0
 23
0.0
 33
0.0
 16
1.0
 26
0.0
 36
0.0
 17
0.0
 27
1.0
 37
0.0
 76
0
330
20D
345
0
346
0
  0
ENDSEC
  0
EOF
