  0
SECTION
  2
HEADER
  9
$ACADVER
  1
AC1015
  9
$DWGCODEPAGE
  3
ANSI_1251
  9
$EXTMAX
 10
210.0
 20
297.0
 30
0.0
  9
$EXTMIN
 10
0.0
 20
0.0
 30
0.0
  9
$LIMMIN
 10
0.0
 20
0.0
  9
$LIMMAX
 10
210.0
 20
297.0
  9
$VIEWCTR
 10
105.0
 20
148.5
  9
$VIEWSIZE
 40
297.0
  9
$CLAYER
  8
0
  9
$LTSCALE
 40
19.36
  9
$CELTYPE
  6
BYLAYER
  9
$DIMSCALE
 40
1.0
  9
$DIMASZ
 40
3.0
  9
$DIMEXO
 40
2.2
  9
$DIMDLI
 40
13.376
  9
$DIMEXE
 40
6.336
  9
$DIMCEN
 40
3.168
  9
$DIMLFAC
 40
1.0
  9
$DIMBLK
  1
_FILLED
  9
$DIMTXT
 40
3.5
  9
$DIMTOL
 70
1
  9
$DIMLIM
 70
0
  9
$DIMTFAC
 40
1.0
  9
$DIMTP
 40
0.00001
  9
$DIMTM
 40
0.00001
  9
$PDMODE
 70
3
  9
$PDSIZE
 40
1.0
  9
$HANDSEED
  5
455
  9
$TILEMODE
 70
1
  9
$MEASUREMENT
 70
1
  9
$INSUNITS
 70
4
  0
ENDSEC
  0
SECTION
  2
CLASSES
  0
CLASS
  1
ACDBDICTIONARYWDFLT
  2
AcDbDictionaryWithDefault
  3
AutoCAD 2000
 90
0
280
0
281
0
  0
CLASS
  1
ACDBPLACEHOLDER
  2
AcDbPlaceHolder
  3
AutoCAD 2000
 90
0
280
0
281
0
  0
CLASS
  1
LAYOUT
  2
AcDbLayout
  3
AutoCAD 2000
 90
0
280
0
281
0
  0
ENDSEC
  0
SECTION
  2
TABLES
  0
TABLE
  2
VPORT
  5
8
100
AcDbSymbolTable
 70
2
  0
VPORT
  5
1F4
100
AcDbSymbolTableRecord
100
AcDbViewportTableRecord
  2
*ACTIVE
 70
0
 10
0.0
 20
0.0
 11
1.0
 21
1.0
 12
105.0
 22
148.5
 13
0.0
 23
0.0
 14
1.0
 24
1.0
 15
0.0
 25
0.0
 16
0.0
 26
0.0
 36
1.0
 17
0.0
 27
0.0
 37
0.0
 40
297.0
 41
0.7070707071
 42
50.0
 43
0.0
 44
0.0
 50
0.0
 51
0.0
 71
0
 72
100
 73
1
 74
1
 75
0
 76
0
 77
0
 78
0
  0
ENDTAB
  0
TABLE
  2
LTYPE
  5
5
100
AcDbSymbolTable
 70
6
  0
LTYPE
  5
14
100
AcDbSymbolTableRecord
100
AcDbLinetypeTableRecord
  2
BYBLOCK
 70
0
  3

 72
65
 73
0
 40
0.0
  0
LTYPE
  5
15
100
AcDbSymbolTableRecord
100
AcDbLinetypeTableRecord
  2
BYLAYER
 70
0
  3

 72
65
 73
0
 40
0.0
  0
LTYPE
  5
16
100
AcDbSymbolTableRecord
100
AcDbLinetypeTableRecord
  2
CONTINUOUS
 70
64
  3
Solid line
 72
65
 73
0
 40
0.0
  0
LTYPE
  5
1F5
100
AcDbSymbolTableRecord
100
AcDbLinetypeTableRecord
  2
CENTER
 70
64
  3
____ _ ____ _ ____ _ ____ _ ____ _ ____ _ ____
 72
65
 73
4
 40
0.6
 49
0.375
 74
0
 49
-0.075
 74
0
 49
0.075
 74
0
 49
-0.075
 74
0
  0
LTYPE
  5
1F6
100
AcDbSymbolTableRecord
100
AcDbLinetypeTableRecord
  2
HIDDEN
 70
64
  3
- - - - - - - - - - - - - - - - - - - -
 72
65
 73
2
 40
0.2
 49
0.1
 74
0
 49
-0.1
 74
0
  0
LTYPE
  5
1F7
100
AcDbSymbolTableRecord
100
AcDbLinetypeTableRecord
  2
PHANTOM
 70
64
  3
_____ _ _ _____ _ _ _____ _ _ _____
 72
65
 73
6
 40
0.8
 49
0.45
 74
0
 49
-0.05
 74
0
 49
0.1
 74
0
 49
-0.05
 74
0
 49
0.1
 74
0
 49
-0.05
 74
0
  0
LTYPE
  5
1F8
100
AcDbSymbolTableRecord
100
AcDbLinetypeTableRecord
  2
DOT
 70
64
  3
. . . . . . . . . . . . . . . . . . . .
 72
65
 73
2
 40
0.2
 49
0.1
 74
0
 49
-0.1
 74
0
  0
LTYPE
  5
1F9
100
AcDbSymbolTableRecord
100
AcDbLinetypeTableRecord
  2
DASHED
 70
64
  3
- - - - - - - - - - - - - - - - - - - -
 72
65
 73
2
 40
0.2
 49
0.1
 74
0
 49
-0.1
 74
0
  0
ENDTAB
  0
TABLE
  2
LAYER
  5
2
100
AcDbSymbolTable
 70
36
  0
LAYER
  5
10
100
AcDbSymbolTableRecord
100
AcDbLayerTableRecord
  2
0
 70
0
 62
7
  6
CONTINUOUS
370
-3
390
F
  0
LAYER
  5
1FA
100
AcDbSymbolTableRecord
100
AcDbLayerTableRecord
  2
DEFAULT_1
 70
0
 62
7
  6
CENTER
370
-3
390
F
  0
LAYER
  5
1FB
100
AcDbSymbolTableRecord
100
AcDbLayerTableRecord
  2
DEFAULT_2
 70
0
 62
8
  6
HIDDEN
370
-3
390
F
  0
LAYER
  5
1FC
100
AcDbSymbolTableRecord
100
AcDbLayerTableRecord
  2
DEFAULT_3
 70
0
 62
7
  6
PHANTOM
370
-3
390
F
  0
LAYER
  5
1FD
100
AcDbSymbolTableRecord
100
AcDbLayerTableRecord
  2
ALL_AXIS
 70
0
 62
7
  6
CONTINUOUS
370
-3
390
F
  0
LAYER
  5
1FE
100
AcDbSymbolTableRecord
100
AcDbLayerTableRecord
  2
ALL_DIMENSIONS
 70
0
 62
7
  6
CONTINUOUS
370
-3
390
F
  0
LAYER
  5
1FF
100
AcDbSymbolTableRecord
100
AcDbLayerTableRecord
  2
ALL_PLANE
 70
0
 62
7
  6
CONTINUOUS
370
-3
390
F
  0
LAYER
  5
200
100
AcDbSymbolTableRecord
100
AcDbLayerTableRecord
  2
ALL_SURF_FIN
 70
0
 62
7
  6
CONTINUOUS
370
-3
390
F
  0
ENDTAB
  0
TABLE
  2
STYLE
  5
3
100
AcDbSymbolTable
 70
1
  0
STYLE
  5
11
100
AcDbSymbolTableRecord
100
AcDbTextStyleTableRecord
  2
STANDARD
 70
0
 40
0.0
 41
0.7
 50
0.0
 71
0
 42
0.2
  3
txt
  4

  0
STYLE
  5
201
100
AcDbSymbolTableRecord
100
AcDbTextStyleTableRecord
  2
TEXTSTYLE_1
 70
0
 40
0.0
 41
0.8
 50
0.0
 71
0
 42
0.2
  3
gdt
  4

  0
STYLE
  5
202
100
AcDbSymbolTableRecord
100
AcDbTextStyleTableRecord
  2
TEXTSTYLE_2
 70
0
 40
0.0
 41
0.8
 50
0.0
 71
0
 42
0.2
  3
txt
  4

  0
STYLE
  5
203
100
AcDbSymbolTableRecord
100
AcDbTextStyleTableRecord
  2
TEXTSTYLE_3
 70
0
 40
0.0
 41
0.5
 50
0.0
 71
0
 42
0.2
  3
txt
  4

  0
STYLE
  5
204
100
AcDbSymbolTableRecord
100
AcDbTextStyleTableRecord
  2
TEXTSTYLE_4
 70
0
 40
0.0
 41
0.6
 50
0.0
 71
0
 42
0.2
  3
txt
  4

  0
STYLE
  5
205
100
AcDbSymbolTableRecord
100
AcDbTextStyleTableRecord
  2
TEXTSTYLE_5
 70
0
 40
0.0
 41
0.45
 50
0.0
 71
0
 42
0.2
  3
txt
  4

  0
ENDTAB
  0
TABLE
  2
VIEW
  5
6
100
AcDbSymbolTable
 70
0
  0
ENDTAB
  0
TABLE
  2
UCS
  5
7
100
AcDbSymbolTable
 70
0
  0
ENDTAB
  0
TABLE
  2
APPID
  5
9
100
AcDbSymbolTable
 70
1
  0
APPID
  5
206
100
AcDbSymbolTableRecord
100
AcDbRegAppTableRecord
  2
ACAD
 70
0
  0
ENDTAB
  0
TABLE
  2
BLOCK_RECORD
  5
1
100
AcDbSymbolTable
 70
0
  0
BLOCK_RECORD
  5
207
100
AcDbSymbolTableRecord
100
AcDbBlockTableRecord
  2
*Model_Space
  0
BLOCK_RECORD
  5
208
100
AcDbSymbolTableRecord
100
AcDbBlockTableRecord
  2
*Paper_Space
  0
BLOCK_RECORD
  5
209
100
AcDbSymbolTableRecord
100
AcDbBlockTableRecord
  2
_FILLED
  0
BLOCK_RECORD
  5
20A
100
AcDbSymbolTableRecord
100
AcDbBlockTableRecord
  2
*D0
  0
BLOCK_RECORD
  5
20B
100
AcDbSymbolTableRecord
100
AcDbBlockTableRecord
  2
*D1
  0
BLOCK_RECORD
  5
20C
100
AcDbSymbolTableRecord
100
AcDbBlockTableRecord
  2
*D2
  0
BLOCK_RECORD
  5
20D
100
AcDbSymbolTableRecord
100
AcDbBlockTableRecord
  2
*D3
  0
BLOCK_RECORD
  5
20E
100
AcDbSymbolTableRecord
100
AcDbBlockTableRecord
  2
SYM_2_BL0
  0
ENDTAB
  0
TABLE
  2
DIMSTYLE
  5
A
100
AcDbSymbolTable
 70
1
100
AcDbDimStyleTable
 71
0
  0
DIMSTYLE
105
20F
100
AcDbSymbolTableRecord
100
AcDbDimStyleTableRecord
  2
STANDARD
 70
0
  3

  4

 40
1.0
 41
3.0
 42
0.0625
 43
0.38
 44
0.18
 45
0.0
 46
0.0
 47
0.00001
 48
0.00001
140
3.5
141
0.09
142
0.0
143
25.4
144
1.0
145
0.0
146
1.0
147
0.09
 71
1.0
 72
0.0
 73
0
 74
0
 75
0
 76
0
 77
1
 78
8
170
0
171
2
172
0
173
0
174
0
175
0
176
0
177
0
178
0
270
2
271
5
272
5
273
2
274
2
275
0
280
0
281
0
282
0
283
1
284
8
285
0
286
0
287
3
288
0
340
11
341
209
342
209
343
209
344
209
  0
DIMSTYLE
105
210
100
AcDbSymbolTableRecord
100
AcDbDimStyleTableRecord
  2
DIMSTYLE_1
 70
0
  3

  4

 40
1.0
 41
3.0
 42
0.0625
 43
0.38
 44
0.18
 45
0.0
 46
0.0
 47
0.2
 48
0.2
140
3.5
141
0.09
142
0.0
143
25.4
144
1.0
145
0.0
146
1.0
147
0.09
 71
0.0
 72
0.0
 73
0
 74
0
 75
0
 76
0
 77
1
 78
8
170
0
171
2
172
0
173
0
174
0
175
0
176
0
177
0
178
0
270
2
271
5
272
5
273
2
274
2
275
0
280
0
281
0
282
0
283
1
284
8
285
0
286
0
287
3
288
0
340
11
341
209
342
209
343
209
344
209
  0
DIMSTYLE
105
211
100
AcDbSymbolTableRecord
100
AcDbDimStyleTableRecord
  2
DIMSTYLE_2
 70
0
  3

  4

 40
1.0
 41
3.0
 42
0.0625
 43
0.38
 44
0.18
 45
0.0
 46
0.0
 47
0.3
 48
0.3
140
3.5
141
0.09
142
0.0
143
25.4
144
1.0
145
0.0
146
1.0
147
0.09
 71
0.0
 72
0.0
 73
0
 74
0
 75
0
 76
0
 77
1
 78
8
170
0
171
2
172
0
173
0
174
0
175
0
176
0
177
0
178
0
270
2
271
2
272
2
273
2
274
2
275
0
280
0
281
0
282
0
283
1
284
8
285
0
286
0
287
3
288
0
340
11
341
209
342
209
343
209
344
209
  0
DIMSTYLE
105
212
100
AcDbSymbolTableRecord
100
AcDbDimStyleTableRecord
  2
DIMSTYLE_3
 70
0
  3

  4

 40
1.0
 41
3.0
 42
0.0625
 43
0.38
 44
0.18
 45
0.0
 46
0.0
 47
0.1
 48
0.1
140
3.5
141
0.09
142
0.0
143
25.4
144
1.0
145
0.0
146
1.0
147
0.09
 71
0.0
 72
0.0
 73
0
 74
0
 75
0
 76
0
 77
1
 78
8
170
0
171
2
172
0
173
0
174
0
175
0
176
0
177
0
178
0
270
2
271
5
272
5
273
2
274
2
275
0
280
0
281
0
282
0
283
1
284
8
285
0
286
0
287
3
288
0
340
11
341
209
342
209
343
209
344
209
  0
DIMSTYLE
105
213
100
AcDbSymbolTableRecord
100
AcDbDimStyleTableRecord
  2
DIMSTYLE_4
 70
0
  3

  4

 40
1.0
 41
3.0
 42
0.0625
 43
0.38
 44
0.18
 45
0.0
 46
0.0
 47
0.2
 48
0.2
140
3.5
141
0.09
142
0.0
143
25.4
144
1.0
145
0.0
146
1.0
147
0.09
 71
0.0
 72
0.0
 73
0
 74
0
 75
0
 76
0
 77
1
 78
8
170
0
171
2
172
0
173
0
174
0
175
0
176
0
177
0
178
0
270
2
271
2
272
2
273
2
274
2
275
0
280
0
281
0
282
0
283
1
284
8
285
0
286
0
287
3
288
0
340
11
341
209
342
209
343
209
344
209
  0
ENDTAB
  0
ENDSEC
  0
SECTION
  2
BLOCKS
  0
BLOCK
  5
20
100
AcDbEntity
  8
0
100
AcDbBlockBegin
  2
*Model_Space
 70
0
 10
0.0
 20
0.0
 30
0.0
  3
*Model_Space
  1

  0
ENDBLK
  5
21
100
AcDbEntity
  8
0
100
AcDbBlockEnd
  0
BLOCK
  5
1C
100
AcDbEntity
  8
0
100
AcDbBlockBegin
  2
*Paper_Space
 70
0
 10
0.0
 20
0.0
 30
0.0
  3
*Paper_Space
  1

  0
ENDBLK
  5
1D
100
AcDbEntity
  8
0
100
AcDbBlockEnd
  0
BLOCK
  5
214
100
AcDbEntity
  8
ALL_SURF_FIN
100
AcDbBlockBegin
 62
2
  6
CONTINUOUS
  2
SYM_2_BL0
 70
64
 10
183.2064515523
 20
279.1398706735
  3
SYM_2_BL0
  1

  0
LWPOLYLINE
  5
215
100
AcDbEntity
  8
ALL_SURF_FIN
100
AcDbPolyline
 62
2
  6
CONTINUOUS
 90
2
 70
0
 43
0.2973349177
 10
184.2423931603
 20
271.0795811908
 10
180.0921581092
 20
278.2679991627
  0
LWPOLYLINE
  5
216
100
AcDbEntity
  8
ALL_SURF_FIN
100
AcDbPolyline
 62
2
  6
CONTINUOUS
 90
2
 70
0
 43
0.2973349177
 10
184.2423931603
 20
271.0795811908
 10
192.4918230264
 20
285.3680128524
  0
LWPOLYLINE
  5
217
100
AcDbEntity
  8
ALL_SURF_FIN
100
AcDbPolyline
 62
2
  6
CONTINUOUS
 90
3
 70
0
 43
0.3964465569
 10
174.9322851563
 20
284.8214960938
 10
175.9730957031
 20
287.2001601563
 10
174.4562773438
 20
280.064125
  0
LWPOLYLINE
  5
218
100
AcDbEntity
  8
ALL_SURF_FIN
100
AcDbPolyline
 62
2
  6
CONTINUOUS
 90
2
 70
0
 43
0.3964465569
 10
173.9210800781
 20
280.064125
 10
174.9914746094
 20
280.064125
  0
LWPOLYLINE
  5
219
100
AcDbEntity
  8
ALL_SURF_FIN
100
AcDbPolyline
 62
2
  6
CONTINUOUS
 90
10
 70
0
 43
0.3964465569
 10
178.1287089844
 20
286.010828125
 10
178.9167128906
 20
287.2001601563
 10
179.9871074219
 20
287.2001601563
 10
180.2695195313
 20
286.010828125
 10
179.76390625
 20
283.6321425781
 10
178.9759023438
 20
282.4428105469
 10
177.9055078125
 20
282.4428105469
 10
177.1175039063
 20
281.2534785156
 10
176.8646972656
 20
280.064125
 10
179.0055078125
 20
280.064125
  0
LWPOLYLINE
  5
21A
100
AcDbEntity
  8
ALL_SURF_FIN
100
AcDbPolyline
 62
2
  6
CONTINUOUS
 90
6
 70
0
 43
0.3964465569
 10
181.41390625
 20
280.064125
 10
181.1463183594
 20
280.064125
 10
181.2727109375
 20
280.6588125
 10
181.5403203125
 20
280.6588125
 10
181.41390625
 20
280.064125
 10
180.8935117188
 20
278.8747929688
  0
LWPOLYLINE
  5
21B
100
AcDbEntity
  8
ALL_SURF_FIN
100
AcDbPolyline
 62
2
  6
CONTINUOUS
 90
9
 70
0
 43
0.3964465569
 10
185.6807460938
 20
281.2534785156
 10
185.9631367188
 20
280.064125
 10
187.0335527344
 20
280.064125
 10
187.8215566406
 20
281.2534785156
 10
188.3271484375
 20
283.6321425781
 10
188.0447578125
 20
284.8214960938
 10
186.4391445313
 20
284.8214960938
 10
186.9447578125
 20
287.2001601563
 10
189.0855683594
 20
287.2001601563
  0
ENDBLK
  5
21C
100
AcDbEntity
  8
0
  6
BYBLOCK
 62
0
100
AcDbBlockEnd
  0
BLOCK
  5
21D
100
AcDbEntity
  8
0
100
AcDbBlockBegin
  2
_FILLED
 70
64
 10
0.0
 20
0.0
  3
_FILLED
  1

  0
SOLID
  5
21E
100
AcDbEntity
  8
0
  6
BYBLOCK
 62
0
100
AcDbTrace
 10
0.0
 20
0.0
 11
-1.0
 21
0.1666666667
 12
-1.0
 22
-0.1666666667
 13
-1.0
 23
-0.1666666667
  0
ENDBLK
  5
21F
100
AcDbEntity
  8
0
  6
BYBLOCK
 62
0
100
AcDbBlockEnd
  0
BLOCK
  5
220
100
AcDbEntity
  8
ALL_DIMENSIONS
100
AcDbBlockBegin
 62
2
  6
CONTINUOUS
  2
*D0
 70
65
 10
0.0
 20
0.0
  3
*D0
  1

  0
LINE
  5
221
100
AcDbEntity
  8
ALL_DIMENSIONS
100
AcDbLine
 62
2
  6
CONTINUOUS
 10
100.6402339181
 20
201.4655018015
 11
100.6402339181
 21
166.7437269408
  0
LINE
  5
222
100
AcDbEntity
  8
ALL_DIMENSIONS
100
AcDbLine
 62
2
  6
CONTINUOUS
 10
120.6402339181
 20
187.3038163053
 11
120.6402339181
 21
166.7437269408
  0
LINE
  5
223
100
AcDbEntity
  8
ALL_DIMENSIONS
100
AcDbLine
 62
2
  6
CONTINUOUS
 10
100.6402339181
 20
168.7437269408
 11
110.6402339181
 21
168.7437269408
  0
LINE
  5
224
100
AcDbEntity
  8
ALL_DIMENSIONS
100
AcDbLine
 62
2
  6
CONTINUOUS
 10
120.6402339181
 20
168.7437269408
 11
110.6402339181
 21
168.7437269408
  0
INSERT
  5
225
100
AcDbEntity
  8
ALL_DIMENSIONS
100
AcDbBlockReference
 62
2
  6
CONTINUOUS
  2
_FILLED
 10
100.6402339181
 20
168.7437269408
 41
3.0
 42
3.0
 43
3.0
 50
180.0
  0
INSERT
  5
226
100
AcDbEntity
  8
ALL_DIMENSIONS
100
AcDbBlockReference
 62
2
  6
CONTINUOUS
  2
_FILLED
 10
120.6402339181
 20
168.7437269408
 41
3.0
 42
3.0
 43
3.0
  0
ENDBLK
  5
227
100
AcDbEntity
  8
0
  6
BYBLOCK
 62
0
100
AcDbBlockEnd
  0
BLOCK
  5
228
100
AcDbEntity
  8
ALL_DIMENSIONS
100
AcDbBlockBegin
 62
2
  6
CONTINUOUS
  2
*D1
 70
65
 10
0.0
 20
0.0
  3
*D1
  1

  0
LINE
  5
229
100
AcDbEntity
  8
ALL_DIMENSIONS
100
AcDbLine
 62
2
  6
CONTINUOUS
 10
104.5339412519
 20
187.896374269
 11
81.0714033838
 21
187.896374269
  0
LINE
  5
22A
100
AcDbEntity
  8
ALL_DIMENSIONS
100
AcDbLine
 62
2
  6
CONTINUOUS
 10
103.6053061374
 20
222.896374269
 11
81.0714033838
 21
222.896374269
  0
LINE
  5
22B
100
AcDbEntity
  8
ALL_DIMENSIONS
100
AcDbLine
 62
2
  6
CONTINUOUS
 10
83.0714033838
 20
187.896374269
 11
83.0714033838
 21
205.396374269
  0
LINE
  5
22C
100
AcDbEntity
  8
ALL_DIMENSIONS
100
AcDbLine
 62
2
  6
CONTINUOUS
 10
83.0714033838
 20
222.896374269
 11
83.0714033838
 21
205.396374269
  0
INSERT
  5
22D
100
AcDbEntity
  8
ALL_DIMENSIONS
100
AcDbBlockReference
 62
2
  6
CONTINUOUS
  2
_FILLED
 10
83.0714033838
 20
187.896374269
 41
3.0
 42
3.0
 43
3.0
 50
270.0
  0
INSERT
  5
22E
100
AcDbEntity
  8
ALL_DIMENSIONS
100
AcDbBlockReference
 62
2
  6
CONTINUOUS
  2
_FILLED
 10
83.0714033838
 20
222.896374269
 41
3.0
 42
3.0
 43
3.0
 50
90.0
  0
ENDBLK
  5
22F
100
AcDbEntity
  8
0
  6
BYBLOCK
 62
0
100
AcDbBlockEnd
  0
BLOCK
  5
230
100
AcDbEntity
  8
ALL_DIMENSIONS
100
AcDbBlockBegin
 62
2
  6
CONTINUOUS
  2
*D2
 70
65
 10
0.0
 20
0.0
  3
*D2
  1

  0
LINE
  5
231
100
AcDbEntity
  8
ALL_DIMENSIONS
100
AcDbLine
 62
2
  6
CONTINUOUS
 10
100.6402339181
 20
201.9298193588
 11
100.6402339181
 21
177.8304689255
  0
LINE
  5
232
100
AcDbEntity
  8
ALL_DIMENSIONS
100
AcDbLine
 62
2
  6
CONTINUOUS
 10
103.6402339181
 20
187.7681338626
 11
103.6402339181
 21
177.8304689255
  0
LINE
  5
233
100
AcDbEntity
  8
ALL_DIMENSIONS
100
AcDbLine
 62
2
  6
CONTINUOUS
 10
100.6402339181
 20
179.8304689255
 11
93.1897881166
 21
179.8304689255
  0
LINE
  5
234
100
AcDbEntity
  8
ALL_DIMENSIONS
100
AcDbLine
 62
2
  6
CONTINUOUS
 10
93.1897881166
 20
179.8304689255
 11
102.1402339181
 21
179.8304689255
  0
LINE
  5
235
100
AcDbEntity
  8
ALL_DIMENSIONS
100
AcDbLine
 62
2
  6
CONTINUOUS
 10
103.6402339181
 20
179.8304689255
 11
107.6402339181
 21
179.8304689255
  0
LINE
  5
236
100
AcDbEntity
  8
ALL_DIMENSIONS
100
AcDbLine
 62
2
  6
CONTINUOUS
 10
107.6402339181
 20
179.8304689255
 11
102.1402339181
 21
179.8304689255
  0
INSERT
  5
237
100
AcDbEntity
  8
ALL_DIMENSIONS
100
AcDbBlockReference
 62
2
  6
CONTINUOUS
  2
_FILLED
 10
100.6402339181
 20
179.8304689255
 41
3.0
 42
3.0
 43
3.0
  0
INSERT
  5
238
100
AcDbEntity
  8
ALL_DIMENSIONS
100
AcDbBlockReference
 62
2
  6
CONTINUOUS
  2
_FILLED
 10
103.6402339181
 20
179.8304689255
 41
3.0
 42
3.0
 43
3.0
 50
180.0
  0
ENDBLK
  5
239
100
AcDbEntity
  8
0
  6
BYBLOCK
 62
0
100
AcDbBlockEnd
  0
BLOCK
  5
23A
100
AcDbEntity
  8
ALL_DIMENSIONS
100
AcDbBlockBegin
 62
2
  6
CONTINUOUS
  2
*D3
 70
65
 10
0.0
 20
0.0
  3
*D3
  1

  0
LINE
  5
23B
100
AcDbEntity
  8
ALL_DIMENSIONS
100
AcDbLine
 62
2
  6
CONTINUOUS
 10
100.6402339181
 20
201.396374269
 11
90.5899133074
 21
201.396374269
  0
LINE
  5
23C
100
AcDbEntity
  8
ALL_DIMENSIONS
100
AcDbLine
 62
2
  6
CONTINUOUS
 10
100.6402339181
 20
209.396374269
 11
90.5899133074
 21
209.396374269
  0
LINE
  5
23D
100
AcDbEntity
  8
ALL_DIMENSIONS
100
AcDbLine
 62
2
  6
CONTINUOUS
 10
92.5899133074
 20
201.396374269
 11
92.5899133074
 21
197.396374269
  0
LINE
  5
23E
100
AcDbEntity
  8
ALL_DIMENSIONS
100
AcDbLine
 62
2
  6
CONTINUOUS
 10
92.5899133074
 20
197.396374269
 11
92.5899133074
 21
205.396374269
  0
LINE
  5
23F
100
AcDbEntity
  8
ALL_DIMENSIONS
100
AcDbLine
 62
2
  6
CONTINUOUS
 10
92.5899133074
 20
209.396374269
 11
92.5899133074
 21
213.396374269
  0
LINE
  5
240
100
AcDbEntity
  8
ALL_DIMENSIONS
100
AcDbLine
 62
2
  6
CONTINUOUS
 10
92.5899133074
 20
213.396374269
 11
92.5899133074
 21
205.396374269
  0
INSERT
  5
241
100
AcDbEntity
  8
ALL_DIMENSIONS
100
AcDbBlockReference
 62
2
  6
CONTINUOUS
  2
_FILLED
 10
92.5899133074
 20
201.396374269
 41
3.0
 42
3.0
 43
3.0
 50
90.0
  0
INSERT
  5
242
100
AcDbEntity
  8
ALL_DIMENSIONS
100
AcDbBlockReference
 62
2
  6
CONTINUOUS
  2
_FILLED
 10
92.5899133074
 20
209.396374269
 41
3.0
 42
3.0
 43
3.0
 50
270.0
  0
ENDBLK
  5
243
100
AcDbEntity
  8
0
  6
BYBLOCK
 62
0
100
AcDbBlockEnd
  0
ENDSEC
  0
SECTION
  2
ENTITIES
  0
DIMENSION
  5
244
100
AcDbEntity
  8
ALL_DIMENSIONS
100
AcDbDimension
 62
2
  6
CONTINUOUS
  2
*D0
 10
120.6402339181
 20
168.7437269408
 11
108.1902339181
 21
169.6187269408
 70
160
 71
2
 42
20.0
  3
DIMSTYLE_1
100
AcDbAlignedDimension
 13
100.6402339181
 23
201.4655018015
 14
120.6402339181
 24
187.3038163053
100
AcDbRotatedDimension
  0
DIMENSION
  5
245
100
AcDbEntity
  8
ALL_DIMENSIONS
100
AcDbDimension
 62
2
  6
CONTINUOUS
  2
*D1
 10
83.0714033838
 20
222.896374269
 11
82.1964033838
 21
200.6130409357
 70
160
 71
2
 42
35.0
  1
%%c<>
  3
DIMSTYLE_2
100
AcDbAlignedDimension
 13
104.5339412519
 23
187.896374269
 14
103.6053061374
 24
222.896374269
 50
90.0
100
AcDbRotatedDimension
  0
DIMENSION
  5
246
100
AcDbEntity
  8
ALL_DIMENSIONS
100
AcDbDimension
 62
2
  6
CONTINUOUS
  2
*D2
 10
103.6402339181
 20
179.8304689255
 11
93.1897881166
 21
180.7054689255
 70
160
 71
3
 42
3.0
  3
DIMSTYLE_3
100
AcDbAlignedDimension
 13
100.6402339181
 23
201.9298193588
 14
103.6402339181
 24
187.7681338626
100
AcDbRotatedDimension
  0
DIMENSION
  5
247
100
AcDbEntity
  8
ALL_DIMENSIONS
100
AcDbDimension
 62
2
  6
CONTINUOUS
  2
*D3
 10
92.5899133074
 20
209.396374269
 11
91.7149133074
 21
201.8380409357
 70
160
 71
2
 42
8.0
  1
%%c<>
  3
DIMSTYLE_4
100
AcDbAlignedDimension
 13
100.6402339181
 23
201.396374269
 14
100.6402339181
 24
209.396374269
 50
90.0
100
AcDbRotatedDimension
  0
LINE
  5
248
100
AcDbEntity
  8
0
100
AcDbLine
 62
7
  6
CONTINUOUS
 10
8.0
 20
5.0
 11
8.0
 21
150.0
  0
LINE
  5
249
100
AcDbEntity
  8
0
100
AcDbLine
 62
7
  6
CONTINUOUS
 10
8.0
 20
5.0
 11
20.0
 21
5.0
  0
LINE
  5
24A
100
AcDbEntity
  8
0
100
AcDbLine
 62
7
  6
CONTINUOUS
 10
13.0
 20
5.0
 11
13.0
 21
150.0
  0
LINE
  5
24B
100
AcDbEntity
  8
0
100
AcDbLine
 62
7
  6
CONTINUOUS
 10
20.0
 20
5.0
 11
20.0
 21
150.0
  0
LINE
  5
24C
100
AcDbEntity
  8
0
100
AcDbLine
 62
7
  6
CONTINUOUS
 10
8.0
 20
30.0
 11
20.0
 21
30.0
  0
LINE
  5
24D
100
AcDbEntity
  8
0
100
AcDbLine
 62
7
  6
CONTINUOUS
 10
8.0
 20
65.0
 11
20.0
 21
65.0
  0
LINE
  5
24E
100
AcDbEntity
  8
0
100
AcDbLine
 62
7
  6
CONTINUOUS
 10
8.0
 20
90.0
 11
20.0
 21
90.0
  0
LINE
  5
24F
100
AcDbEntity
  8
0
100
AcDbLine
 62
7
  6
CONTINUOUS
 10
8.0
 20
115.0
 11
20.0
 21
115.0
  0
LINE
  5
250
100
AcDbEntity
  8
0
100
AcDbLine
 62
7
  6
CONTINUOUS
 10
8.0
 20
150.0
 11
20.0
 21
150.0
  0
LWPOLYLINE
  5
251
100
AcDbEntity
  8
0
100
AcDbPolyline
 62
2
  6
CONTINUOUS
 90
4
 70
0
 43
0.25
 10
9.294097168
 20
5.8157061768
 10
11.7940942383
 20
5.1458334351
 10
9.294097168
 20
6.8157064819
 10
11.7940942383
 20
6.1458330688
  0
LWPOLYLINE
  5
252
100
AcDbEntity
  8
0
100
AcDbPolyline
 62
2
  6
CONTINUOUS
 90
2
 70
0
 43
0.25
 10
11.7940942383
 20
7.145833374
 10
10.1274277344
 20
7.5924156494
  0
LWPOLYLINE
  5
253
100
AcDbEntity
  8
0
100
AcDbPolyline
 62
2
  6
CONTINUOUS
 90
2
 70
0
 43
0.25
 10
10.9607636719
 20
7.3691245117
 10
10.9607636719
 20
8.3691241455
  0
LWPOLYLINE
  5
254
100
AcDbEntity
  8
0
100
AcDbPolyline
 62
2
  6
CONTINUOUS
 90
2
 70
0
 43
0.25
 10
10.1274277344
 20
8.5924152832
 10
11.7940942383
 20
8.1458330078
  0
LWPOLYLINE
  5
255
100
AcDbEntity
  8
0
100
AcDbPolyline
 62
2
  6
CONTINUOUS
 90
12
 70
0
 43
0.25
 10
10.5440957031
 20
9.4807700195
 10
9.7107597656
 20
10.2040609741
 10
9.294097168
 20
10.315706543
 10
9.294097168
 20
10.0657062988
 10
9.7107597656
 20
9.7040604858
 10
11.3774262695
 20
9.2574788818
 10
11.7940942383
 20
9.3958335571
 10
11.7940942383
 20
9.895833374
 10
11.3774262695
 20
10.2574785156
 10
10.5440957031
 20
10.4807696533
 10
10.1274277344
 20
10.3424156494
 10
10.1274277344
 20
9.8424151611
  0
LWPOLYLINE
  5
256
100
AcDbEntity
  8
0
100
AcDbPolyline
 62
2
  6
CONTINUOUS
 90
5
 70
0
 43
0.25
 10
11.7940942383
 20
11.270833374
 10
11.7940942383
 20
11.145833252
 10
11.5857602539
 20
11.2016563721
 10
11.5857602539
 20
11.3266564941
 10
11.7940942383
 20
11.270833374
  0
LWPOLYLINE
  5
257
100
AcDbEntity
  8
0
100
AcDbPolyline
 62
2
  6
CONTINUOUS
 90
4
 70
0
 43
0.25
 10
11.7940942383
 20
13.3541665039
 10
9.294097168
 20
14.024039917
 10
11.7940942383
 20
15.0208330078
 10
9.294097168
 20
15.6907064209
  0
LWPOLYLINE
  5
258
100
AcDbEntity
  8
0
100
AcDbPolyline
 62
2
  6
CONTINUOUS
 90
2
 70
0
 43
0.25
 10
11.7940942383
 20
19.8541661377
 10
10.1274277344
 20
20.3007484131
  0
LWPOLYLINE
  5
259
100
AcDbEntity
  8
0
100
AcDbPolyline
 62
2
  6
CONTINUOUS
 90
5
 70
0
 43
0.25
 10
10.5440957031
 20
20.1891035156
 10
10.1274277344
 20
20.5507486572
 10
10.1274277344
 20
21.0507491455
 10
10.5440957031
 20
21.1891031494
 10
11.7940942383
 20
20.8541671143
  0
LWPOLYLINE
  5
25A
100
AcDbEntity
  8
0
100
AcDbPolyline
 62
2
  6
CONTINUOUS
 90
9
 70
0
 43
0.25
 10
11.3774262695
 20
21.9658116455
 10
11.7940942383
 20
22.1041669922
 10
11.7940942383
 20
22.6041674805
 10
11.3774262695
 20
22.9658112793
 10
10.5440957031
 20
23.1891037598
 10
10.1274277344
 20
23.0507497559
 10
10.1274277344
 20
22.5507492676
 10
10.5440957031
 20
22.1891027832
 10
11.3774262695
 20
21.9658116455
  0
LWPOLYLINE
  5
25B
100
AcDbEntity
  8
0
100
AcDbPolyline
 62
2
  6
CONTINUOUS
 90
11
 70
0
 43
0.25
 10
10.5440957031
 20
25.1891030273
 10
10.1274277344
 20
25.0507490234
 10
10.1274277344
 20
24.5507485352
 10
10.5440957031
 20
24.1891020508
 10
11.3774262695
 20
23.9658122559
 10
11.7940942383
 20
24.1041662598
 10
11.7940942383
 20
24.604166748
 10
11.3774262695
 20
24.9658132324
 10
9.7107597656
 20
25.4123928223
 10
9.294097168
 20
25.2740388184
 10
9.294097168
 20
24.7740383301
  0
LWPOLYLINE
  5
25C
100
AcDbEntity
  8
0
100
AcDbPolyline
 62
2
  6
CONTINUOUS
 90
3
 70
0
 43
0.25
 10
11.7940942383
 20
25.8541679688
 10
10.1274277344
 20
26.8007480469
 10
11.7940942383
 20
26.8541662598
  0
LWPOLYLINE
  5
25D
100
AcDbEntity
  8
0
100
AcDbPolyline
 62
2
  6
CONTINUOUS
 90
5
 70
0
 43
0.25
 10
11.7940942383
 20
27.9791660156
 10
11.7940942383
 20
27.8541672363
 10
11.5857602539
 20
27.9099890137
 10
11.5857602539
 20
28.0349904785
 10
11.7940942383
 20
27.9791660156
  0
LWPOLYLINE
  5
25E
100
AcDbEntity
  8
0
100
AcDbPolyline
 62
2
  6
CONTINUOUS
 90
4
 70
0
 43
0.25
 10
11.7940942383
 20
33.5000004883
 10
9.294097168
 20
34.1698725586
 10
9.294097168
 20
35.1698735352
 10
11.7940942383
 20
34.4999987793
  0
LWPOLYLINE
  5
25F
100
AcDbEntity
  8
0
100
AcDbPolyline
 62
2
  6
CONTINUOUS
 90
9
 70
0
 43
0.25
 10
11.3774262695
 20
35.6116459961
 10
11.7940942383
 20
35.75
 10
11.7940942383
 20
36.2500004883
 10
11.3774262695
 20
36.6116442871
 10
10.5440957031
 20
36.8349367676
 10
10.1274277344
 20
36.6965827637
 10
10.1274277344
 20
36.1965822754
 10
10.5440957031
 20
35.834935791
 10
11.3774262695
 20
35.6116459961
  0
LWPOLYLINE
  5
260
100
AcDbEntity
  8
0
100
AcDbPolyline
 62
2
  6
CONTINUOUS
 90
11
 70
0
 43
0.25
 10
10.5440957031
 20
38.8349360352
 10
10.1274277344
 20
38.6965820313
 10
10.1274277344
 20
38.196581543
 10
10.5440957031
 20
37.8349377441
 10
11.3774262695
 20
37.6116452637
 10
11.7940942383
 20
37.7499992676
 10
11.7940942383
 20
38.2499997559
 10
11.3774262695
 20
38.6116462402
 10
9.7107597656
 20
39.0582285156
 10
9.294097168
 20
38.9198718262
 10
9.294097168
 20
38.4198740234
  0
LWPOLYLINE
  5
261
100
AcDbEntity
  8
0
100
AcDbPolyline
 62
2
  6
CONTINUOUS
 90
2
 70
0
 43
0.25
 10
11.7940942383
 20
39.5000009766
 10
10.1274277344
 20
39.946583252
  0
LWPOLYLINE
  5
262
100
AcDbEntity
  8
0
100
AcDbPolyline
 62
2
  6
CONTINUOUS
 90
5
 70
0
 43
0.25
 10
10.5440957031
 20
39.8349370117
 10
10.1274277344
 20
40.1965808105
 10
10.1274277344
 20
40.6965812988
 10
10.5440957031
 20
40.8349353027
 10
11.7940942383
 20
40.4999992676
  0
LWPOLYLINE
  5
263
100
AcDbEntity
  8
0
100
AcDbPolyline
 62
2
  6
CONTINUOUS
 90
5
 70
0
 43
0.25
 10
10.1274277344
 20
41.9465825195
 10
11.3774262695
 20
41.6116464844
 10
11.7940942383
 20
41.7500004883
 10
11.7940942383
 20
42.0000007324
 10
10.9607636719
 20
42.7232910156
  0
LWPOLYLINE
  5
264
100
AcDbEntity
  8
0
100
AcDbPolyline
 62
2
  6
CONTINUOUS
 90
2
 70
0
 43
0.25
 10
10.1274277344
 20
42.9465808105
 10
11.7940942383
 20
42.5000012207
  0
LWPOLYLINE
  5
265
100
AcDbEntity
  8
0
100
AcDbPolyline
 62
2
  6
CONTINUOUS
 90
8
 70
0
 43
0.25
 10
10.5440957031
 20
44.8349365234
 10
10.1274277344
 20
44.6965825195
 10
10.1274277344
 20
44.1965820313
 10
10.5440957031
 20
43.8349355469
 10
11.3774262695
 20
43.611645752
 10
11.7940942383
 20
43.7499997559
 10
11.7940942383
 20
44.2500002441
 10
11.3774262695
 20
44.6116467285
  0
LWPOLYLINE
  5
266
100
AcDbEntity
  8
0
100
AcDbPolyline
 62
2
  6
CONTINUOUS
 90
9
 70
0
 43
0.25
 10
10.1274277344
 20
45.9465810547
 10
11.3774262695
 20
45.6116450195
 10
11.7940942383
 20
45.7499990234
 10
11.7940942383
 20
46.2499995117
 10
11.3774262695
 20
46.6116459961
 10
10.9607636719
 20
46.7232895508
 10
10.5440957031
 20
46.5849355469
 10
10.5440957031
 20
46.0849350586
 10
10.9607636719
 20
45.7232885742
  0
LWPOLYLINE
  5
267
100
AcDbEntity
  8
0
100
AcDbPolyline
 62
2
  6
CONTINUOUS
 90
5
 70
0
 43
0.25
 10
10.1274277344
 20
49.9465795898
 10
11.3774262695
 20
49.6116435547
 10
11.7940942383
 20
49.7499975586
 10
11.7940942383
 20
50.0000004883
 10
10.9607636719
 20
50.723293457
  0
LWPOLYLINE
  5
268
100
AcDbEntity
  8
0
100
AcDbPolyline
 62
2
  6
CONTINUOUS
 90
2
 70
0
 43
0.25
 10
10.1274277344
 20
50.9465805664
 10
11.7940942383
 20
50.5000009766
  0
LWPOLYLINE
  5
269
100
AcDbEntity
  8
0
100
AcDbPolyline
 62
2
  6
CONTINUOUS
 90
11
 70
0
 43
0.25
 10
10.5440957031
 20
54.8349355469
 10
10.1274277344
 20
54.696581543
 10
10.1274277344
 20
54.1965810547
 10
10.5440957031
 20
53.8349345703
 10
11.3774262695
 20
53.6116474609
 10
11.7940942383
 20
53.7500014648
 10
11.7940942383
 20
54.2500019531
 10
11.3774262695
 20
54.6116430664
 10
9.7107597656
 20
55.0582280273
 10
9.294097168
 20
54.9198740234
 10
9.294097168
 20
54.4198735352
  0
LWPOLYLINE
  5
26A
100
AcDbEntity
  8
0
100
AcDbPolyline
 62
2
  6
CONTINUOUS
 90
8
 70
0
 43
0.25
 10
10.5440957031
 20
56.8349375
 10
10.1274277344
 20
56.6965834961
 10
10.1274277344
 20
56.1965830078
 10
10.5440957031
 20
55.8349365234
 10
11.3774262695
 20
55.611644043
 10
11.7940942383
 20
55.7499980469
 10
11.7940942383
 20
56.2499985352
 10
11.3774262695
 20
56.6116450195
  0
LWPOLYLINE
  5
26B
100
AcDbEntity
  8
0
100
AcDbPolyline
 62
2
  6
CONTINUOUS
 90
3
 70
0
 43
0.25
 10
10.1274277344
 20
56.9465810547
 10
11.3774262695
 20
56.6116450195
 10
11.7940942383
 20
56.6249975586
  0
LWPOLYLINE
  5
26C
100
AcDbEntity
  8
0
100
AcDbPolyline
 62
2
  6
CONTINUOUS
 90
2
 70
0
 43
0.25
 10
11.7940942383
 20
57.5000024414
 10
10.1274277344
 20
57.9465820313
  0
LWPOLYLINE
  5
26D
100
AcDbEntity
  8
0
100
AcDbPolyline
 62
2
  6
CONTINUOUS
 90
4
 70
0
 43
0.25
 10
10.5440957031
 20
57.8349384766
 10
10.1274277344
 20
58.1965795898
 10
10.5440957031
 20
58.3349389648
 10
11.7940942383
 20
57.9999975586
  0
LWPOLYLINE
  5
26E
100
AcDbEntity
  8
0
100
AcDbPolyline
 62
2
  6
CONTINUOUS
 90
4
 70
0
 43
0.25
 10
10.5440957031
 20
58.3349389648
 10
10.1274277344
 20
58.6965800781
 10
10.5440957031
 20
58.834934082
 10
11.7940942383
 20
58.4999980469
  0
LWPOLYLINE
  5
26F
100
AcDbEntity
  8
0
100
AcDbPolyline
 62
2
  6
CONTINUOUS
 90
8
 70
0
 43
0.25
 10
10.5440957031
 20
60.8349360352
 10
10.1274277344
 20
60.6965820313
 10
10.1274277344
 20
60.196581543
 10
10.5440957031
 20
59.8349350586
 10
11.3774262695
 20
59.6116479492
 10
11.7940942383
 20
59.7500019531
 10
11.7940942383
 20
60.2500024414
 10
11.3774262695
 20
60.6116435547
  0
LWPOLYLINE
  5
270
100
AcDbEntity
  8
0
100
AcDbPolyline
 62
2
  6
CONTINUOUS
 90
3
 70
0
 43
0.25
 10
10.1274277344
 20
60.9465795898
 10
11.3774262695
 20
60.6116435547
 10
11.7940942383
 20
60.6250014648
  0
LWPOLYLINE
  5
271
100
AcDbEntity
  8
0
100
AcDbPolyline
 62
2
  6
CONTINUOUS
 90
10
 70
0
 43
0.25
 10
11.7940942383
 20
66.1458359375
 10
11.7940942383
 20
66.8958339844
 10
11.3774262695
 20
67.2574804688
 10
10.9607636719
 20
67.3691240234
 10
10.5440957031
 20
67.2307700195
 10
10.1274277344
 20
67.5924165039
 10
9.7107597656
 20
67.7040600586
 10
9.294097168
 20
67.5657060547
 10
9.294097168
 20
66.8157080078
 10
11.7940942383
 20
66.1458359375
  0
LWPOLYLINE
  5
272
100
AcDbEntity
  8
0
100
AcDbPolyline
 62
2
  6
CONTINUOUS
 90
2
 70
0
 43
0.25
 10
10.5440957031
 20
66.4807719727
 10
10.5440957031
 20
67.2307700195
  0
LWPOLYLINE
  5
273
100
AcDbEntity
  8
0
100
AcDbPolyline
 62
2
  6
CONTINUOUS
 90
9
 70
0
 43
0.25
 10
11.3774262695
 20
68.2574814453
 10
11.7940942383
 20
68.3958354492
 10
11.7940942383
 20
68.8958359375
 10
11.3774262695
 20
69.2574770508
 10
10.9607636719
 20
69.1191230469
 10
10.5440957031
 20
69.4807695313
 10
10.1274277344
 20
69.3424155273
 10
10.1274277344
 20
68.8424150391
 10
10.5440957031
 20
68.4807685547
  0
LWPOLYLINE
  5
274
100
AcDbEntity
  8
0
100
AcDbPolyline
 62
2
  6
CONTINUOUS
 90
2
 70
0
 43
0.25
 10
10.9607636719
 20
68.8691254883
 10
10.9607636719
 20
69.1191230469
  0
LWPOLYLINE
  5
275
100
AcDbEntity
  8
0
100
AcDbPolyline
 62
2
  6
CONTINUOUS
 90
8
 70
0
 43
0.25
 10
10.5440957031
 20
71.4807714844
 10
10.1274277344
 20
71.3424174805
 10
10.1274277344
 20
70.8424169922
 10
10.5440957031
 20
70.4807705078
 10
11.3774262695
 20
70.2574780273
 10
11.7940942383
 20
70.3958320313
 10
11.7940942383
 20
70.8958325195
 10
11.3774262695
 20
71.2574790039
  0
LWPOLYLINE
  5
276
100
AcDbEntity
  8
0
100
AcDbPolyline
 62
2
  6
CONTINUOUS
 90
3
 70
0
 43
0.25
 10
10.1274277344
 20
71.5924150391
 10
11.3774262695
 20
71.2574790039
 10
11.7940942383
 20
71.270831543
  0
LWPOLYLINE
  5
277
100
AcDbEntity
  8
0
100
AcDbPolyline
 62
2
  6
CONTINUOUS
 90
5
 70
0
 43
0.25
 10
11.7940942383
 20
72.1458310547
 10
10.1274277344
 20
72.5924160156
 10
10.9607636719
 20
72.8691240234
 10
10.1274277344
 20
73.5924169922
 10
11.7940942383
 20
73.1458320313
  0
LWPOLYLINE
  5
278
100
AcDbEntity
  8
0
100
AcDbPolyline
 62
2
  6
CONTINUOUS
 90
5
 70
0
 43
0.25
 10
11.7940942383
 20
74.2708344727
 10
11.7940942383
 20
74.1458330078
 10
11.5857602539
 20
74.2016547852
 10
11.5857602539
 20
74.32665625
 10
11.7940942383
 20
74.2708344727
  0
LWPOLYLINE
  5
279
100
AcDbEntity
  8
0
100
AcDbPolyline
 62
2
  6
CONTINUOUS
 90
5
 70
0
 43
0.25
 10
10.1274277344
 20
78.5924165039
 10
11.3774262695
 20
78.2574804688
 10
11.7940942383
 20
78.3958344727
 10
11.7940942383
 20
78.6458320313
 10
10.9607636719
 20
79.369125
  0
LWPOLYLINE
  5
27A
100
AcDbEntity
  8
0
100
AcDbPolyline
 62
2
  6
CONTINUOUS
 90
2
 70
0
 43
0.25
 10
10.1274277344
 20
79.5924174805
 10
11.7940942383
 20
79.1458325195
  0
LWPOLYLINE
  5
27B
100
AcDbEntity
  8
0
100
AcDbPolyline
 62
2
  6
CONTINUOUS
 90
2
 70
0
 43
0.25
 10
11.7940942383
 20
80.1458334961
 10
10.1274277344
 20
80.5924130859
  0
LWPOLYLINE
  5
27C
100
AcDbEntity
  8
0
100
AcDbPolyline
 62
2
  6
CONTINUOUS
 90
2
 70
0
 43
0.25
 10
10.9607636719
 20
80.3691259766
 10
10.9607636719
 20
81.3691269531
  0
LWPOLYLINE
  5
27D
100
AcDbEntity
  8
0
100
AcDbPolyline
 62
2
  6
CONTINUOUS
 90
2
 70
0
 43
0.25
 10
10.1274277344
 20
81.5924140625
 10
11.7940942383
 20
81.1458344727
  0
LWPOLYLINE
  5
27E
100
AcDbEntity
  8
0
100
AcDbPolyline
 62
2
  6
CONTINUOUS
 90
12
 70
0
 43
0.25
 10
10.5440957031
 20
82.4807714844
 10
9.7107597656
 20
83.204059082
 10
9.294097168
 20
83.3157080078
 10
9.294097168
 20
83.0657050781
 10
9.7107597656
 20
82.7040585938
 10
11.3774262695
 20
82.2574790039
 10
11.7940942383
 20
82.3958330078
 10
11.7940942383
 20
82.8958334961
 10
11.3774262695
 20
83.2574799805
 10
10.5440957031
 20
83.4807724609
 10
10.1274277344
 20
83.3424130859
 10
10.1274277344
 20
82.8424179688
  0
LWPOLYLINE
  5
27F
100
AcDbEntity
  8
0
100
AcDbPolyline
 62
2
  6
CONTINUOUS
 90
5
 70
0
 43
0.25
 10
11.7940942383
 20
84.2708334961
 10
11.7940942383
 20
84.1458320313
 10
11.5857602539
 20
84.2016538086
 10
11.5857602539
 20
84.3266552734
 10
11.7940942383
 20
84.2708334961
  0
LWPOLYLINE
  5
280
100
AcDbEntity
  8
0
100
AcDbPolyline
 62
2
  6
CONTINUOUS
 90
4
 70
0
 43
0.25
 10
11.7940942383
 20
86.3541679688
 10
9.294097168
 20
87.0240400391
 10
11.7940942383
 20
88.0208344727
 10
9.294097168
 20
88.690706543
  0
LWPOLYLINE
  5
281
100
AcDbEntity
  8
0
100
AcDbPolyline
 62
2
  6
CONTINUOUS
 90
4
 70
0
 43
0.25
 10
9.294097168
 20
90.8157099609
 10
11.7940942383
 20
90.1458378906
 10
9.294097168
 20
91.8157109375
 10
11.7940942383
 20
91.145828125
  0
LWPOLYLINE
  5
282
100
AcDbEntity
  8
0
100
AcDbPolyline
 62
2
  6
CONTINUOUS
 90
2
 70
0
 43
0.25
 10
11.7940942383
 20
92.1458291016
 10
10.1274277344
 20
92.5924140625
  0
LWPOLYLINE
  5
283
100
AcDbEntity
  8
0
100
AcDbPolyline
 62
2
  6
CONTINUOUS
 90
2
 70
0
 43
0.25
 10
10.9607636719
 20
92.3691269531
 10
10.9607636719
 20
93.3691279297
  0
LWPOLYLINE
  5
284
100
AcDbEntity
  8
0
100
AcDbPolyline
 62
2
  6
CONTINUOUS
 90
2
 70
0
 43
0.25
 10
10.1274277344
 20
93.5924150391
 10
11.7940942383
 20
93.1458300781
  0
LWPOLYLINE
  5
285
100
AcDbEntity
  8
0
100
AcDbPolyline
 62
2
  6
CONTINUOUS
 90
12
 70
0
 43
0.25
 10
10.5440957031
 20
94.4807724609
 10
9.7107597656
 20
95.2040654297
 10
9.294097168
 20
95.3157089844
 10
9.294097168
 20
95.0657060547
 10
9.7107597656
 20
94.7040595703
 10
11.3774262695
 20
94.2574746094
 10
11.7940942383
 20
94.3958339844
 10
11.7940942383
 20
94.8958291016
 10
11.3774262695
 20
95.2574755859
 10
10.5440957031
 20
95.4807734375
 10
10.1274277344
 20
95.3424140625
 10
10.1274277344
 20
94.8424189453
  0
LWPOLYLINE
  5
286
100
AcDbEntity
  8
0
100
AcDbPolyline
 62
2
  6
CONTINUOUS
 90
5
 70
0
 43
0.25
 10
11.7940942383
 20
96.2708291016
 10
11.7940942383
 20
96.1458330078
 10
11.5857602539
 20
96.2016601563
 10
11.5857602539
 20
96.32665625
 10
11.7940942383
 20
96.2708291016
  0
LWPOLYLINE
  5
287
100
AcDbEntity
  8
0
100
AcDbPolyline
 62
2
  6
CONTINUOUS
 90
4
 70
0
 43
0.25
 10
11.7940942383
 20
98.3541689453
 10
9.294097168
 20
99.0240410156
 10
11.7940942383
 20
100.0208300781
 10
9.294097168
 20
100.6907021484
  0
LWPOLYLINE
  5
288
100
AcDbEntity
  8
0
100
AcDbPolyline
 62
2
  6
CONTINUOUS
 90
11
 70
0
 43
0.25
 10
10.5440957031
 20
106.1891015625
 10
10.1274277344
 20
106.0507529297
 10
10.1274277344
 20
105.5507470703
 10
10.5440957031
 20
105.1891005859
 10
11.3774262695
 20
104.9658134766
 10
11.7940942383
 20
105.1041621094
 10
11.7940942383
 20
105.6041679688
 10
11.3774262695
 20
105.9658144531
 10
9.7107597656
 20
106.4123994141
 10
9.294097168
 20
106.2740400391
 10
9.294097168
 20
105.7740449219
  0
LWPOLYLINE
  5
289
100
AcDbEntity
  8
0
100
AcDbPolyline
 62
2
  6
CONTINUOUS
 90
2
 70
0
 43
0.25
 10
10.1274277344
 20
107.3007460938
 10
11.7940942383
 20
107.3541669922
  0
LWPOLYLINE
  5
28A
100
AcDbEntity
  8
0
100
AcDbPolyline
 62
2
  6
CONTINUOUS
 90
3
 70
0
 43
0.25
 10
12.6274301758
 20
106.6308740234
 10
12.6274301758
 20
106.8808769531
 10
10.1274277344
 20
108.3007470703
  0
LWPOLYLINE
  5
28B
100
AcDbEntity
  8
0
100
AcDbPolyline
 62
2
  6
CONTINUOUS
 90
10
 70
0
 43
0.25
 10
10.1274277344
 20
110.0507460938
 10
10.1274277344
 20
109.5507509766
 10
10.5440957031
 20
109.1891044922
 10
11.3774262695
 20
108.9658173828
 10
11.7940942383
 20
109.1041660156
 10
11.7940942383
 20
109.604171875
 10
11.3774262695
 20
109.9658076172
 10
10.5440957031
 20
110.1891054688
 10
9.294097168
 20
109.7740380859
 10
9.294097168
 20
110.5240361328
  0
LWPOLYLINE
  5
28C
100
AcDbEntity
  8
0
100
AcDbPolyline
 62
2
  6
CONTINUOUS
 90
3
 70
0
 43
0.25
 10
11.7940942383
 20
110.8541650391
 10
10.1274277344
 20
111.8007451172
 10
11.7940942383
 20
111.8541660156
  0
LWPOLYLINE
  5
28D
100
AcDbEntity
  8
0
100
AcDbPolyline
 62
2
  6
CONTINUOUS
 90
5
 70
0
 43
0.25
 10
11.7940942383
 20
112.9791630859
 10
11.7940942383
 20
112.8541669922
 10
11.5857602539
 20
112.9099941406
 10
11.5857602539
 20
113.0349902344
 10
11.7940942383
 20
112.9791630859
  0
LWPOLYLINE
  5
28E
100
AcDbEntity
  8
0
100
AcDbPolyline
 62
2
  6
CONTINUOUS
 90
4
 70
0
 43
0.25
 10
11.7940942383
 20
118.5000029297
 10
9.294097168
 20
119.169875
 10
9.294097168
 20
120.1698759766
 10
11.7940942383
 20
119.5000039063
  0
LWPOLYLINE
  5
28F
100
AcDbEntity
  8
0
100
AcDbPolyline
 62
2
  6
CONTINUOUS
 90
9
 70
0
 43
0.25
 10
11.3774262695
 20
120.6116484375
 10
11.7940942383
 20
120.7499970703
 10
11.7940942383
 20
121.2500029297
 10
11.3774262695
 20
121.6116494141
 10
10.5440957031
 20
121.8349365234
 10
10.1274277344
 20
121.6965771484
 10
10.1274277344
 20
121.1965820313
 10
10.5440957031
 20
120.8349355469
 10
11.3774262695
 20
120.6116484375
  0
LWPOLYLINE
  5
290
100
AcDbEntity
  8
0
100
AcDbPolyline
 62
2
  6
CONTINUOUS
 90
11
 70
0
 43
0.25
 10
10.5440957031
 20
123.8349384766
 10
10.1274277344
 20
123.6965791016
 10
10.1274277344
 20
123.1965839844
 10
10.5440957031
 20
122.8349375
 10
11.3774262695
 20
122.6116503906
 10
11.7940942383
 20
122.7499990234
 10
11.7940942383
 20
123.2500048828
 10
11.3774262695
 20
123.611640625
 10
9.7107597656
 20
124.0582255859
 10
9.294097168
 20
123.9198769531
 10
9.294097168
 20
123.4198710938
  0
LWPOLYLINE
  5
291
100
AcDbEntity
  8
0
100
AcDbPolyline
 62
2
  6
CONTINUOUS
 90
2
 70
0
 43
0.25
 10
11.7940942383
 20
124.4999980469
 10
10.1274277344
 20
124.9465830078
  0
LWPOLYLINE
  5
292
100
AcDbEntity
  8
0
100
AcDbPolyline
 62
2
  6
CONTINUOUS
 90
5
 70
0
 43
0.25
 10
10.5440957031
 20
124.8349394531
 10
10.1274277344
 20
125.1965859375
 10
10.1274277344
 20
125.6965810547
 10
10.5440957031
 20
125.8349404297
 10
11.7940942383
 20
125.4999990234
  0
LWPOLYLINE
  5
293
100
AcDbEntity
  8
0
100
AcDbPolyline
 62
2
  6
CONTINUOUS
 90
5
 70
0
 43
0.25
 10
10.1274277344
 20
126.9465849609
 10
11.3774262695
 20
126.6116435547
 10
11.7940942383
 20
126.7500029297
 10
11.7940942383
 20
126.9999951172
 10
10.9607636719
 20
127.7232880859
  0
LWPOLYLINE
  5
294
100
AcDbEntity
  8
0
100
AcDbPolyline
 62
2
  6
CONTINUOUS
 90
2
 70
0
 43
0.25
 10
10.1274277344
 20
127.9465859375
 10
11.7940942383
 20
127.5000009766
  0
LWPOLYLINE
  5
295
100
AcDbEntity
  8
0
100
AcDbPolyline
 62
2
  6
CONTINUOUS
 90
8
 70
0
 43
0.25
 10
10.5440957031
 20
129.8349335938
 10
10.1274277344
 20
129.6965849609
 10
10.1274277344
 20
129.1965791016
 10
10.5440957031
 20
128.8349326172
 10
11.3774262695
 20
128.6116455078
 10
11.7940942383
 20
128.7500048828
 10
11.7940942383
 20
129.25
 10
11.3774262695
 20
129.6116464844
  0
LWPOLYLINE
  5
296
100
AcDbEntity
  8
0
100
AcDbPolyline
 62
2
  6
CONTINUOUS
 90
9
 70
0
 43
0.25
 10
10.1274277344
 20
130.946578125
 10
11.3774262695
 20
130.6116474609
 10
11.7940942383
 20
130.7499960938
 10
11.7940942383
 20
131.2500019531
 10
11.3774262695
 20
131.6116484375
 10
10.9607636719
 20
131.7232919922
 10
10.5440957031
 20
131.5849326172
 10
10.5440957031
 20
131.0849375
 10
10.9607636719
 20
130.7232910156
  0
LWPOLYLINE
  5
297
100
AcDbEntity
  8
0
100
AcDbPolyline
 62
2
  6
CONTINUOUS
 90
5
 70
0
 43
0.25
 10
10.1274277344
 20
134.9465820313
 10
11.3774262695
 20
134.611640625
 10
11.7940942383
 20
134.75
 10
11.7940942383
 20
135.0000029297
 10
10.9607636719
 20
135.7232958984
  0
LWPOLYLINE
  5
298
100
AcDbEntity
  8
0
100
AcDbPolyline
 62
2
  6
CONTINUOUS
 90
2
 70
0
 43
0.25
 10
10.1274277344
 20
135.9465830078
 10
11.7940942383
 20
135.4999980469
  0
LWPOLYLINE
  5
299
100
AcDbEntity
  8
0
100
AcDbPolyline
 62
2
  6
CONTINUOUS
 90
11
 70
0
 43
0.25
 10
10.5440957031
 20
139.8349326172
 10
10.1274277344
 20
139.6965839844
 10
10.1274277344
 20
139.196578125
 10
10.5440957031
 20
138.8349316406
 10
11.3774262695
 20
138.6116445313
 10
11.7940942383
 20
138.7500039063
 10
11.7940942383
 20
139.2499990234
 10
11.3774262695
 20
139.6116455078
 10
9.7107597656
 20
140.0582304688
 10
9.294097168
 20
139.9198710938
 10
9.294097168
 20
139.4198759766
  0
LWPOLYLINE
  5
29A
100
AcDbEntity
  8
0
100
AcDbPolyline
 62
2
  6
CONTINUOUS
 90
8
 70
0
 43
0.25
 10
10.5440957031
 20
141.8349345703
 10
10.1274277344
 20
141.6965859375
 10
10.1274277344
 20
141.1965800781
 10
10.5440957031
 20
140.8349335938
 10
11.3774262695
 20
140.6116464844
 10
11.7940942383
 20
140.7499951172
 10
11.7940942383
 20
141.2500009766
 10
11.3774262695
 20
141.6116474609
  0
LWPOLYLINE
  5
29B
100
AcDbEntity
  8
0
100
AcDbPolyline
 62
2
  6
CONTINUOUS
 90
3
 70
0
 43
0.25
 10
10.1274277344
 20
141.946578125
 10
11.3774262695
 20
141.6116474609
 10
11.7940942383
 20
141.625
  0
LWPOLYLINE
  5
29C
100
AcDbEntity
  8
0
100
AcDbPolyline
 62
2
  6
CONTINUOUS
 90
2
 70
0
 43
0.25
 10
11.7940942383
 20
142.5000048828
 10
10.1274277344
 20
142.9465791016
  0
LWPOLYLINE
  5
29D
100
AcDbEntity
  8
0
100
AcDbPolyline
 62
2
  6
CONTINUOUS
 90
4
 70
0
 43
0.25
 10
10.5440957031
 20
142.8349355469
 10
10.1274277344
 20
143.1965820313
 10
10.5440957031
 20
143.3349414063
 10
11.7940942383
 20
143.0
  0
LWPOLYLINE
  5
29E
100
AcDbEntity
  8
0
100
AcDbPolyline
 62
2
  6
CONTINUOUS
 90
4
 70
0
 43
0.25
 10
10.5440957031
 20
143.3349414063
 10
10.1274277344
 20
143.6965771484
 10
10.5440957031
 20
143.8349365234
 10
11.7940942383
 20
143.4999951172
  0
LWPOLYLINE
  5
29F
100
AcDbEntity
  8
0
100
AcDbPolyline
 62
2
  6
CONTINUOUS
 90
8
 70
0
 43
0.25
 10
10.5440957031
 20
145.8349384766
 10
10.1274277344
 20
145.6965791016
 10
10.1274277344
 20
145.1965839844
 10
10.5440957031
 20
144.8349375
 10
11.3774262695
 20
144.6116503906
 10
11.7940942383
 20
144.7499990234
 10
11.7940942383
 20
145.2500048828
 10
11.3774262695
 20
145.611640625
  0
LWPOLYLINE
  5
2A0
100
AcDbEntity
  8
0
100
AcDbPolyline
 62
2
  6
CONTINUOUS
 90
3
 70
0
 43
0.25
 10
10.1274277344
 20
145.9465820313
 10
11.3774262695
 20
145.611640625
 10
11.7940942383
 20
145.6250039063
  0
LINE
  5
2A1
100
AcDbEntity
  8
0
100
AcDbLine
 62
7
  6
CONTINUOUS
 10
90.0
 20
278.3498994289
 11
20.0
 21
278.3498994289
  0
LINE
  5
2A2
100
AcDbEntity
  8
0
100
AcDbLine
 62
7
  6
CONTINUOUS
 10
90.0
 20
278.3498994289
 11
90.0
 21
292.3498994289
  0
LINE
  5
2A3
100
AcDbEntity
  8
0
100
AcDbLine
 62
7
  6
CONTINUOUS
 10
90.0
 20
292.3498994289
 11
20.0
 21
292.3498994289
  0
LINE
  5
2A4
100
AcDbEntity
  8
0
100
AcDbLine
 62
7
  6
CONTINUOUS
 10
20.0
 20
278.3498994289
 11
20.0
 21
292.3498994289
  0
LWPOLYLINE
  5
2A5
100
AcDbEntity
  8
0
100
AcDbPolyline
 62
2
  6
CONTINUOUS
 90
4
 70
0
 43
0.25
 10
83.262109375
 20
281.9280878906
 10
84.7499990234
 20
288.9280839844
 10
81.5120996094
 20
281.9280878906
 10
83.0
 20
288.9280839844
  0
LWPOLYLINE
  5
2A6
100
AcDbEntity
  8
0
100
AcDbPolyline
 62
2
  6
CONTINUOUS
 90
6
 70
0
 43
0.25
 10
81.2500009766
 20
288.9280839844
 10
79.9374990234
 20
288.9280839844
 10
79.2520185547
 20
287.7614179688
 10
79.0040351563
 20
286.5947519531
 10
79.1935488281
 20
285.4280859375
 10
80.5060507813
 20
285.4280859375
  0
LWPOLYLINE
  5
2A7
100
AcDbEntity
  8
0
100
AcDbPolyline
 62
2
  6
CONTINUOUS
 90
3
 70
0
 43
0.25
 10
81.2500009766
 20
288.9280839844
 10
79.7621005859
 20
281.9280878906
 10
78.449609375
 20
281.9280878906
  0
LWPOLYLINE
  5
2A8
100
AcDbEntity
  8
0
100
AcDbPolyline
 62
2
  6
CONTINUOUS
 90
7
 70
0
 43
0.25
 10
77.7500029297
 20
288.9280839844
 10
76.2621025391
 20
281.9280878906
 10
74.9496005859
 20
281.9280878906
 10
74.7600869141
 20
283.0947539063
 10
75.0080703125
 20
284.2614199219
 10
75.6935507813
 20
285.4280859375
 10
77.0060527344
 20
285.4280859375
  0
LWPOLYLINE
  5
2A9
100
AcDbEntity
  8
0
100
AcDbPolyline
 62
2
  6
CONTINUOUS
 90
10
 70
0
 43
0.25
 10
73.0100878906
 20
283.0947539063
 10
72.3246074219
 20
281.9280878906
 10
71.4496025391
 20
281.9280878906
 10
71.2600888672
 20
283.0947539063
 10
71.7560556641
 20
285.4280859375
 10
72.4415361328
 20
286.5947519531
 10
73.3165302734
 20
286.5947519531
 10
74.0020214844
 20
287.7614179688
 10
74.2500048828
 20
288.9280839844
 10
72.4999951172
 20
288.9280839844
  0
LWPOLYLINE
  5
2AA
100
AcDbEntity
  8
0
100
AcDbPolyline
 62
2
  6
CONTINUOUS
 90
5
 70
0
 43
0.25
 10
70.5312529297
 20
288.9280839844
 10
70.7499960938
 20
288.9280839844
 10
70.6260097656
 20
288.3447617188
 10
70.4072558594
 20
288.3447617188
 10
70.5312529297
 20
288.9280839844
  0
LWPOLYLINE
  5
2AB
100
AcDbEntity
  8
0
100
AcDbPolyline
 62
2
  6
CONTINUOUS
 90
4
 70
0
 43
0.25
 10
66.8125009766
 20
288.9280839844
 10
64.012109375
 20
281.9280878906
 10
65.7621083984
 20
281.9280878906
 10
66.0100917969
 20
283.0947539063
  0
LWPOLYLINE
  5
2AC
100
AcDbEntity
  8
0
100
AcDbPolyline
 62
2
  6
CONTINUOUS
 90
6
 70
0
 43
0.25
 10
63.75
 20
288.9280839844
 10
62.4374980469
 20
288.9280839844
 10
61.7520175781
 20
287.7614179688
 10
61.5040341797
 20
286.5947519531
 10
61.6935478516
 20
285.4280859375
 10
63.0060498047
 20
285.4280859375
  0
LWPOLYLINE
  5
2AD
100
AcDbEntity
  8
0
100
AcDbPolyline
 62
2
  6
CONTINUOUS
 90
3
 70
0
 43
0.25
 10
63.75
 20
288.9280839844
 10
62.2620996094
 20
281.9280878906
 10
60.9496083984
 20
281.9280878906
  0
LWPOLYLINE
  5
2AE
100
AcDbEntity
  8
0
100
AcDbPolyline
 62
2
  6
CONTINUOUS
 90
5
 70
0
 43
0.25
 10
60.0312480469
 20
288.9280839844
 10
60.2500019531
 20
288.9280839844
 10
60.1260048828
 20
288.3447617188
 10
59.9072617188
 20
288.3447617188
 10
60.0312480469
 20
288.9280839844
  0
LWPOLYLINE
  5
2AF
100
AcDbEntity
  8
0
100
AcDbPolyline
 62
2
  6
CONTINUOUS
 90
9
 70
0
 43
0.25
 10
56.3124960938
 20
288.9280839844
 10
56.5020205078
 20
287.7614179688
 10
55.5100869141
 20
283.0947539063
 10
54.8246064453
 20
281.9280878906
 10
53.9496015625
 20
281.9280878906
 10
53.7600878906
 20
283.0947539063
 10
54.7520214844
 20
287.7614179688
 10
55.4375019531
 20
288.9280839844
 10
56.3124960938
 20
288.9280839844
  0
LWPOLYLINE
  5
2B0
100
AcDbEntity
  8
0
100
AcDbPolyline
 62
2
  6
CONTINUOUS
 90
3
 70
0
 43
0.25
 10
51.1643242188
 20
284.2614199219
 10
50.2308496094
 20
281.9280878906
 10
51.71875
 20
288.9280839844
  0
LWPOLYLINE
  5
2B1
100
AcDbEntity
  8
0
100
AcDbPolyline
 62
2
  6
CONTINUOUS
 90
2
 70
0
 43
0.25
 10
52.1562470703
 20
288.9280839844
 10
51.2812529297
 20
288.9280839844
  0
LWPOLYLINE
  5
2B2
100
AcDbEntity
  8
0
100
AcDbPolyline
 62
2
  6
CONTINUOUS
 90
5
 70
0
 43
0.25
 10
49.5312539063
 20
288.9280839844
 10
49.7499970703
 20
288.9280839844
 10
49.6260107422
 20
288.3447617188
 10
49.4072568359
 20
288.3447617188
 10
49.5312539063
 20
288.9280839844
  0
LWPOLYLINE
  5
2B3
100
AcDbEntity
  8
0
100
AcDbPolyline
 62
2
  6
CONTINUOUS
 90
3
 70
0
 43
0.25
 10
44.1643173828
 20
284.2614199219
 10
43.2308535156
 20
281.9280878906
 10
44.7187539063
 20
288.9280839844
  0
LWPOLYLINE
  5
2B4
100
AcDbEntity
  8
0
100
AcDbPolyline
 62
2
  6
CONTINUOUS
 90
2
 70
0
 43
0.25
 10
45.1562509766
 20
288.9280839844
 10
44.2812460938
 20
288.9280839844
  0
LWPOLYLINE
  5
2B5
100
AcDbEntity
  8
0
100
AcDbPolyline
 62
2
  6
CONTINUOUS
 90
9
 70
0
 43
0.25
 10
42.3125039063
 20
288.9280839844
 10
42.5020175781
 20
287.7614179688
 10
41.5100839844
 20
283.0947539063
 10
40.8246035156
 20
281.9280878906
 10
39.949609375
 20
281.9280878906
 10
39.7600849609
 20
283.0947539063
 10
40.7520185547
 20
287.7614179688
 10
41.4374990234
 20
288.9280839844
 10
42.3125039063
 20
288.9280839844
  0
LWPOLYLINE
  5
2B6
100
AcDbEntity
  8
0
100
AcDbPolyline
 62
2
  6
CONTINUOUS
 90
3
 70
0
 43
0.25
 10
37.1643212891
 20
284.2614199219
 10
36.2308574219
 20
281.9280878906
 10
37.7187470703
 20
288.9280839844
  0
LWPOLYLINE
  5
2B7
100
AcDbEntity
  8
0
100
AcDbPolyline
 62
2
  6
CONTINUOUS
 90
2
 70
0
 43
0.25
 10
38.1562548828
 20
288.9280839844
 10
37.28125
 20
288.9280839844
  0
LWPOLYLINE
  5
2B8
100
AcDbEntity
  8
0
100
AcDbPolyline
 62
2
  6
CONTINUOUS
 90
5
 70
0
 43
0.25
 10
35.5312509766
 20
288.9280839844
 10
35.7500048828
 20
288.9280839844
 10
35.6260078125
 20
288.3447617188
 10
35.4072539063
 20
288.3447617188
 10
35.5312509766
 20
288.9280839844
  0
LWPOLYLINE
  5
2B9
100
AcDbEntity
  8
0
100
AcDbPolyline
 62
2
  6
CONTINUOUS
 90
9
 70
0
 43
0.25
 10
31.8124990234
 20
288.9280839844
 10
32.0020126953
 20
287.7614179688
 10
31.0100898438
 20
283.0947539063
 10
30.324609375
 20
281.9280878906
 10
29.4496044922
 20
281.9280878906
 10
29.2600908203
 20
283.0947539063
 10
30.2520136719
 20
287.7614179688
 10
30.9375048828
 20
288.9280839844
 10
31.8124990234
 20
288.9280839844
  0
LWPOLYLINE
  5
2BA
100
AcDbEntity
  8
0
100
AcDbPolyline
 62
2
  6
CONTINUOUS
 90
9
 70
0
 43
0.25
 10
27.2621083984
 20
281.9280878906
 10
25.512109375
 20
281.9280878906
 10
26.8830703125
 20
284.2614199219
 10
26.4455732422
 20
284.2614199219
 10
26.2560488281
 20
285.4280859375
 10
26.752015625
 20
287.7614179688
 10
27.4374960938
 20
288.9280839844
 10
28.3125009766
 20
288.9280839844
 10
28.5020146484
 20
287.7614179688
  0
LINE
  5
2BB
100
AcDbEntity
  8
0
100
AcDbLine
 62
7
  6
CONTINUOUS
 10
8.0
 20
172.3498994289
 11
8.0
 21
292.3498994289
  0
LINE
  5
2BC
100
AcDbEntity
  8
0
100
AcDbLine
 62
7
  6
CONTINUOUS
 10
8.0
 20
172.3498994289
 11
20.0
 21
172.3498994289
  0
LINE
  5
2BD
100
AcDbEntity
  8
0
100
AcDbLine
 62
7
  6
CONTINUOUS
 10
13.0
 20
172.3498994289
 11
13.0
 21
292.3498994289
  0
LINE
  5
2BE
100
AcDbEntity
  8
0
100
AcDbLine
 62
7
  6
CONTINUOUS
 10
20.0
 20
172.3498994289
 11
20.0
 21
292.3498994289
  0
LINE
  5
2BF
100
AcDbEntity
  8
0
100
AcDbLine
 62
7
  6
CONTINUOUS
 10
8.0
 20
232.3498994289
 11
20.0
 21
232.3498994289
  0
LINE
  5
2C0
100
AcDbEntity
  8
0
100
AcDbLine
 62
7
  6
CONTINUOUS
 10
8.0
 20
292.3498994289
 11
20.0
 21
292.3498994289
  0
LWPOLYLINE
  5
2C1
100
AcDbEntity
  8
0
100
AcDbPolyline
 62
2
  6
CONTINUOUS
 90
8
 70
0
 43
0.25
 10
9.7107597656
 20
196.5539511719
 10
9.294097168
 20
196.4156132813
 10
9.294097168
 20
195.9156074219
 10
9.7107597656
 20
195.5539609375
 10
11.3774262695
 20
195.1073867188
 10
11.7940942383
 20
195.2457246094
 10
11.7940942383
 20
195.7457304688
 10
11.3774262695
 20
196.1073769531
  0
LWPOLYLINE
  5
2C2
100
AcDbEntity
  8
0
100
AcDbPolyline
 62
2
  6
CONTINUOUS
 90
2
 70
0
 43
0.25
 10
11.7940942383
 20
196.995734375
 10
10.1274277344
 20
197.4423085938
  0
LWPOLYLINE
  5
2C3
100
AcDbEntity
  8
0
100
AcDbPolyline
 62
2
  6
CONTINUOUS
 90
5
 70
0
 43
0.25
 10
10.5440957031
 20
197.3306757813
 10
10.1274277344
 20
197.6923222656
 10
10.1274277344
 20
198.1923066406
 10
10.5440957031
 20
198.3306660156
 10
11.7940942383
 20
197.9957246094
  0
LWPOLYLINE
  5
2C4
100
AcDbEntity
  8
0
100
AcDbPolyline
 62
2
  6
CONTINUOUS
 90
2
 70
0
 43
0.25
 10
12.6274301758
 20
198.7724492188
 10
10.1274277344
 20
199.4423105469
  0
LWPOLYLINE
  5
2C5
100
AcDbEntity
  8
0
100
AcDbPolyline
 62
2
  6
CONTINUOUS
 90
7
 70
0
 43
0.25
 10
11.7940942383
 20
198.9957363281
 10
11.7940942383
 20
199.745734375
 10
11.3774262695
 20
200.1073808594
 10
10.5440957031
 20
200.3306679688
 10
10.1274277344
 20
200.1923085938
 10
10.1274277344
 20
199.6923242188
 10
10.5440957031
 20
199.3306777344
  0
LWPOLYLINE
  5
2C6
100
AcDbEntity
  8
0
100
AcDbPolyline
 62
2
  6
CONTINUOUS
 90
8
 70
0
 43
0.25
 10
10.5440957031
 20
202.3306699219
 10
10.1274277344
 20
202.1923105469
 10
10.1274277344
 20
201.6923046875
 10
10.5440957031
 20
201.3306796875
 10
11.3774262695
 20
201.1073710938
 10
11.7940942383
 20
201.2457304688
 10
11.7940942383
 20
201.7457363281
 10
11.3774262695
 20
202.1073828125
  0
LWPOLYLINE
  5
2C7
100
AcDbEntity
  8
0
100
AcDbPolyline
 62
2
  6
CONTINUOUS
 90
3
 70
0
 43
0.25
 10
10.1274277344
 20
202.4423242188
 10
11.3774262695
 20
202.1073828125
 10
11.7940942383
 20
202.1207246094
  0
LWPOLYLINE
  5
2C8
100
AcDbEntity
  8
0
100
AcDbPolyline
 62
2
  6
CONTINUOUS
 90
12
 70
0
 43
0.25
 10
10.5440957031
 20
203.3306601563
 10
9.7107597656
 20
204.053953125
 10
9.294097168
 20
204.1656074219
 10
9.294097168
 20
203.9156152344
 10
9.7107597656
 20
203.55396875
 10
11.3774262695
 20
203.1073730469
 10
11.7940942383
 20
203.2457324219
 10
11.7940942383
 20
203.7457382813
 10
11.3774262695
 20
204.1073847656
 10
10.5440957031
 20
204.330671875
 10
10.1274277344
 20
204.1923125
 10
10.1274277344
 20
203.6923066406
  0
LWPOLYLINE
  5
2C9
100
AcDbEntity
  8
0
100
AcDbPolyline
 62
2
  6
CONTINUOUS
 90
5
 70
0
 43
0.25
 10
11.7940942383
 20
205.1207382813
 10
11.7940942383
 20
204.9957421875
 10
11.5857602539
 20
205.0515585938
 10
11.5857602539
 20
205.1765546875
 10
11.7940942383
 20
205.1207382813
  0
LWPOLYLINE
  5
2CA
100
AcDbEntity
  8
0
100
AcDbPolyline
 62
2
  6
CONTINUOUS
 90
4
 70
0
 43
0.25
 10
11.7940942383
 20
207.2040566406
 10
9.294097168
 20
207.8739394531
 10
11.7940942383
 20
208.8707285156
 10
9.294097168
 20
209.5406113281
  0
LWPOLYLINE
  5
2CB
100
AcDbEntity
  8
0
100
AcDbPolyline
 62
2
  6
CONTINUOUS
 90
4
 70
0
 43
0.25
 10
11.7940942383
 20
249.349890625
 10
9.294097168
 20
250.0197734375
 10
9.294097168
 20
251.0197636719
 10
11.7940942383
 20
250.3499023438
  0
LWPOLYLINE
  5
2CC
100
AcDbEntity
  8
0
100
AcDbPolyline
 62
2
  6
CONTINUOUS
 90
10
 70
0
 43
0.25
 10
10.9607636719
 20
251.5731796875
 10
10.9607636719
 20
252.3231992188
 10
10.5440957031
 20
252.6848457031
 10
10.1274277344
 20
252.5464863281
 10
10.1274277344
 20
252.0464804688
 10
10.5440957031
 20
251.6848339844
 10
11.3774262695
 20
251.461546875
 10
11.7940942383
 20
251.59990625
 10
11.7940942383
 20
252.099890625
 10
11.3774262695
 20
252.4615371094
  0
LWPOLYLINE
  5
2CD
100
AcDbEntity
  8
0
100
AcDbPolyline
 62
2
  6
CONTINUOUS
 90
2
 70
0
 43
0.25
 10
12.6274301758
 20
253.1266074219
 10
10.1274277344
 20
253.7964902344
  0
LWPOLYLINE
  5
2CE
100
AcDbEntity
  8
0
100
AcDbPolyline
 62
2
  6
CONTINUOUS
 90
7
 70
0
 43
0.25
 10
11.7940942383
 20
253.3498945313
 10
11.7940942383
 20
254.0998925781
 10
11.3774262695
 20
254.4615390625
 10
10.5440957031
 20
254.6848261719
 10
10.1274277344
 20
254.5464882813
 10
10.1274277344
 20
254.0464824219
 10
10.5440957031
 20
253.6848359375
  0
LWPOLYLINE
  5
2CF
100
AcDbEntity
  8
0
100
AcDbPolyline
 62
2
  6
CONTINUOUS
 90
12
 70
0
 43
0.25
 10
10.5440957031
 20
255.6848378906
 10
9.7107597656
 20
256.4081308594
 10
9.294097168
 20
256.5197636719
 10
9.294097168
 20
256.2697714844
 10
9.7107597656
 20
255.908125
 10
11.3774262695
 20
255.4615507813
 10
11.7940942383
 20
255.5999101563
 10
11.7940942383
 20
256.0998945313
 10
11.3774262695
 20
256.4615410156
 10
10.5440957031
 20
256.684828125
 10
10.1274277344
 20
256.5464902344
 10
10.1274277344
 20
256.046484375
  0
LWPOLYLINE
  5
2D0
100
AcDbEntity
  8
0
100
AcDbPolyline
 62
2
  6
CONTINUOUS
 90
5
 70
0
 43
0.25
 10
11.7940942383
 20
257.4748945313
 10
11.7940942383
 20
257.3498984375
 10
11.5857602539
 20
257.4057148438
 10
11.5857602539
 20
257.5307324219
 10
11.7940942383
 20
257.4748945313
  0
LWPOLYLINE
  5
2D1
100
AcDbEntity
  8
0
100
AcDbPolyline
 62
2
  6
CONTINUOUS
 90
2
 70
0
 43
0.25
 10
11.7940942383
 20
261.3499023438
 10
10.1274277344
 20
261.7964765625
  0
LWPOLYLINE
  5
2D2
100
AcDbEntity
  8
0
100
AcDbPolyline
 62
2
  6
CONTINUOUS
 90
5
 70
0
 43
0.25
 10
10.5440957031
 20
261.68484375
 10
10.1274277344
 20
262.0464902344
 10
10.1274277344
 20
262.5464746094
 10
10.5440957031
 20
262.6848339844
 10
11.7940942383
 20
262.3498925781
  0
LWPOLYLINE
  5
2D3
100
AcDbEntity
  8
0
100
AcDbPolyline
 62
2
  6
CONTINUOUS
 90
2
 70
0
 43
0.25
 10
12.6274301758
 20
263.1266171875
 10
10.1274277344
 20
263.7964785156
  0
LWPOLYLINE
  5
2D4
100
AcDbEntity
  8
0
100
AcDbPolyline
 62
2
  6
CONTINUOUS
 90
7
 70
0
 43
0.25
 10
11.7940942383
 20
263.3499042969
 10
11.7940942383
 20
264.0999023438
 10
11.3774262695
 20
264.4615488281
 10
10.5440957031
 20
264.6848359375
 10
10.1274277344
 20
264.5464765625
 10
10.1274277344
 20
264.0464707031
 10
10.5440957031
 20
263.6848457031
  0
LWPOLYLINE
  5
2D5
100
AcDbEntity
  8
0
100
AcDbPolyline
 62
2
  6
CONTINUOUS
 90
5
 70
0
 43
0.25
 10
10.1274277344
 20
265.7964804688
 10
11.3774262695
 20
265.4615390625
 10
11.7940942383
 20
265.5998984375
 10
11.7940942383
 20
265.849890625
 10
10.9607636719
 20
266.5731835938
  0
LWPOLYLINE
  5
2D6
100
AcDbEntity
  8
0
100
AcDbPolyline
 62
2
  6
CONTINUOUS
 90
2
 70
0
 43
0.25
 10
10.1274277344
 20
266.7964707031
 10
11.7940942383
 20
266.3498964844
  0
LWPOLYLINE
  5
2D7
100
AcDbEntity
  8
0
100
AcDbPolyline
 62
2
  6
CONTINUOUS
 90
5
 70
0
 43
0.25
 10
11.7940942383
 20
267.3499082031
 10
10.1274277344
 20
267.7964824219
 10
10.9607636719
 20
268.0731796875
 10
10.1274277344
 20
268.7964726563
 10
11.7940942383
 20
268.3498984375
  0
LWPOLYLINE
  5
2D8
100
AcDbEntity
  8
0
100
AcDbPolyline
 62
2
  6
CONTINUOUS
 90
10
 70
0
 43
0.25
 10
10.9607636719
 20
269.5731972656
 10
10.9607636719
 20
270.3231953125
 10
10.5440957031
 20
270.6848417969
 10
10.1274277344
 20
270.5464824219
 10
10.1274277344
 20
270.0464765625
 10
10.5440957031
 20
269.6848300781
 10
11.3774262695
 20
269.4615429688
 10
11.7940942383
 20
269.5999023438
 10
11.7940942383
 20
270.0999082031
 10
11.3774262695
 20
270.4615546875
  0
LWPOLYLINE
  5
2D9
100
AcDbEntity
  8
0
100
AcDbPolyline
 62
2
  6
CONTINUOUS
 90
2
 70
0
 43
0.25
 10
11.7940942383
 20
271.349890625
 10
10.1274277344
 20
271.7964863281
  0
LWPOLYLINE
  5
2DA
100
AcDbEntity
  8
0
100
AcDbPolyline
 62
2
  6
CONTINUOUS
 90
2
 70
0
 43
0.25
 10
10.9607636719
 20
271.5731992188
 10
10.9607636719
 20
272.5731894531
  0
LWPOLYLINE
  5
2DB
100
AcDbEntity
  8
0
100
AcDbPolyline
 62
2
  6
CONTINUOUS
 90
2
 70
0
 43
0.25
 10
10.1274277344
 20
272.7964765625
 10
11.7940942383
 20
272.3499023438
  0
LWPOLYLINE
  5
2DC
100
AcDbEntity
  8
0
100
AcDbPolyline
 62
2
  6
CONTINUOUS
 90
5
 70
0
 43
0.25
 10
11.7940942383
 20
273.4749101563
 10
11.7940942383
 20
273.3498925781
 10
11.5857602539
 20
273.4057304688
 10
11.5857602539
 20
273.5307265625
 10
11.7940942383
 20
273.4749101563
  0
LINE
  5
2DD
100
AcDbEntity
  8
0
100
AcDbLine
 62
7
  6
CONTINUOUS
 10
205.0
 20
5.0
 11
20.0
 21
5.0
  0
LINE
  5
2DE
100
AcDbEntity
  8
0
100
AcDbLine
 62
7
  6
CONTINUOUS
 10
205.0
 20
5.0
 11
205.0
 21
60.0
  0
LINE
  5
2DF
100
AcDbEntity
  8
0
100
AcDbLine
 62
7
  6
CONTINUOUS
 10
85.0
 20
10.0
 11
20.0
 21
10.0
  0
LINE
  5
2E0
100
AcDbEntity
  8
0
100
AcDbLine
 62
7
  6
CONTINUOUS
 10
85.0
 20
15.0
 11
20.0
 21
15.0
  0
LINE
  5
2E1
100
AcDbEntity
  8
0
100
AcDbLine
 62
7
  6
CONTINUOUS
 10
205.0
 20
20.0
 11
20.0
 21
20.0
  0
LINE
  5
2E2
100
AcDbEntity
  8
0
100
AcDbLine
 62
7
  6
CONTINUOUS
 10
205.0
 20
25.0
 11
155.0
 21
25.0
  0
LINE
  5
2E3
100
AcDbEntity
  8
0
100
AcDbLine
 62
7
  6
CONTINUOUS
 10
85.0
 20
25.0
 11
20.0
 21
25.0
  0
LINE
  5
2E4
100
AcDbEntity
  8
0
100
AcDbLine
 62
7
  6
CONTINUOUS
 10
85.0
 20
30.0
 11
20.0
 21
30.0
  0
LINE
  5
2E5
100
AcDbEntity
  8
0
100
AcDbLine
 62
7
  6
CONTINUOUS
 10
85.0
 20
35.0
 11
20.0
 21
35.0
  0
LINE
  5
2E6
100
AcDbEntity
  8
0
100
AcDbLine
 62
7
  6
CONTINUOUS
 10
205.0
 20
40.0
 11
155.0
 21
40.0
  0
LINE
  5
2E7
100
AcDbEntity
  8
0
100
AcDbLine
 62
7
  6
CONTINUOUS
 10
85.0
 20
40.0
 11
20.0
 21
40.0
  0
LINE
  5
2E8
100
AcDbEntity
  8
0
100
AcDbLine
 62
7
  6
CONTINUOUS
 10
205.0
 20
45.0
 11
20.0
 21
45.0
  0
LINE
  5
2E9
100
AcDbEntity
  8
0
100
AcDbLine
 62
7
  6
CONTINUOUS
 10
85.0
 20
50.0
 11
20.0
 21
50.0
  0
LINE
  5
2EA
100
AcDbEntity
  8
0
100
AcDbLine
 62
7
  6
CONTINUOUS
 10
85.0
 20
55.0
 11
20.0
 21
55.0
  0
LINE
  5
2EB
100
AcDbEntity
  8
0
100
AcDbLine
 62
7
  6
CONTINUOUS
 10
205.0
 20
60.0
 11
20.0
 21
60.0
  0
LINE
  5
2EC
100
AcDbEntity
  8
0
100
AcDbLine
 62
7
  6
CONTINUOUS
 10
187.0
 20
25.0
 11
187.0
 21
45.0
  0
LINE
  5
2ED
100
AcDbEntity
  8
0
100
AcDbLine
 62
7
  6
CONTINUOUS
 10
175.0
 20
20.0
 11
175.0
 21
25.0
  0
LINE
  5
2EE
100
AcDbEntity
  8
0
100
AcDbLine
 62
7
  6
CONTINUOUS
 10
170.0
 20
25.0
 11
170.0
 21
45.0
  0
LINE
  5
2EF
100
AcDbEntity
  8
0
100
AcDbLine
 62
7
  6
CONTINUOUS
 10
165.0
 20
25.0
 11
165.0
 21
40.0
  0
LINE
  5
2F0
100
AcDbEntity
  8
0
100
AcDbLine
 62
7
  6
CONTINUOUS
 10
160.0
 20
25.0
 11
160.0
 21
40.0
  0
LINE
  5
2F1
100
AcDbEntity
  8
0
100
AcDbLine
 62
7
  6
CONTINUOUS
 10
155.0
 20
5.0
 11
155.0
 21
45.0
  0
LINE
  5
2F2
100
AcDbEntity
  8
0
100
AcDbLine
 62
7
  6
CONTINUOUS
 10
85.0
 20
5.0
 11
85.0
 21
60.0
  0
LINE
  5
2F3
100
AcDbEntity
  8
0
100
AcDbLine
 62
7
  6
CONTINUOUS
 10
75.0
 20
5.0
 11
75.0
 21
60.0
  0
LINE
  5
2F4
100
AcDbEntity
  8
0
100
AcDbLine
 62
7
  6
CONTINUOUS
 10
60.0
 20
5.0
 11
60.0
 21
60.0
  0
LINE
  5
2F5
100
AcDbEntity
  8
0
100
AcDbLine
 62
7
  6
CONTINUOUS
 10
37.0
 20
5.0
 11
37.0
 21
60.0
  0
LINE
  5
2F6
100
AcDbEntity
  8
0
100
AcDbLine
 62
7
  6
CONTINUOUS
 10
27.0
 20
35.0
 11
27.0
 21
60.0
  0
LINE
  5
2F7
100
AcDbEntity
  8
0
100
AcDbLine
 62
7
  6
CONTINUOUS
 10
20.0
 20
5.0
 11
20.0
 21
60.0
  0
LWPOLYLINE
  5
2F8
100
AcDbEntity
  8
0
100
AcDbPolyline
 62
2
  6
CONTINUOUS
 90
7
 70
0
 43
0.25
 10
172.8000039063
 20
9.4329780273
 10
174.0753378906
 20
15.4329785156
 10
175.4253300781
 20
15.4329785156
 10
175.6627753906
 20
14.4329788818
 10
175.4502304688
 20
13.4329779053
 10
174.7876738281
 20
12.4329782715
 10
173.4376601563
 20
12.4329782715
  0
LWPOLYLINE
  5
2F9
100
AcDbEntity
  8
0
100
AcDbPolyline
 62
2
  6
CONTINUOUS
 90
4
 70
0
 43
0.25
 10
176.3999902344
 20
9.4329780273
 10
177.6753457031
 20
15.4329785156
 10
178.1999941406
 20
9.4329780273
 10
179.4753496094
 20
15.4329785156
  0
LWPOLYLINE
  5
2FA
100
AcDbEntity
  8
0
100
AcDbPolyline
 62
2
  6
CONTINUOUS
 90
7
 70
0
 43
0.25
 10
179.9999980469
 20
9.4329780273
 10
181.2753320313
 20
15.4329785156
 10
182.6253457031
 20
15.4329785156
 10
182.8627910156
 20
14.4329788818
 10
182.6502246094
 20
13.4329779053
 10
181.9876679688
 20
12.4329782715
 10
180.6376757813
 20
12.4329782715
  0
LWPOLYLINE
  5
2FB
100
AcDbEntity
  8
0
100
AcDbPolyline
 62
2
  6
CONTINUOUS
 90
2
 70
0
 43
0.25
 10
184.8753398438
 20
15.4329785156
 10
185.7753417969
 20
15.4329785156
  0
LWPOLYLINE
  5
2FC
100
AcDbEntity
  8
0
100
AcDbPolyline
 62
2
  6
CONTINUOUS
 90
2
 70
0
 43
0.25
 10
185.3253300781
 20
15.4329785156
 10
184.0499960938
 20
9.4329780273
  0
LWPOLYLINE
  5
2FD
100
AcDbEntity
  8
0
100
AcDbPolyline
 62
2
  6
CONTINUOUS
 90
2
 70
0
 43
0.25
 10
183.6000058594
 20
9.4329780273
 10
184.5000078125
 20
9.4329780273
  0
LWPOLYLINE
  5
2FE
100
AcDbEntity
  8
0
100
AcDbPolyline
 62
2
  6
CONTINUOUS
 90
11
 70
0
 43
0.25
 10
173.2451601563
 20
3.9724663086
 10
173.0001523438
 20
3.9724663086
 10
172.6559726563
 20
3.5057994995
 10
172.4575859375
 20
2.572466217
 10
172.6033789063
 20
2.1057995758
 10
173.0933945313
 20
2.1057995758
 10
173.4375742188
 20
2.572466217
 10
173.6359609375
 20
3.5057994995
 10
173.4901679688
 20
3.9724663086
 10
173.2451601563
 20
3.9724663086
 10
172.65
 20
1.1724662094
  0
LWPOLYLINE
  5
2FF
100
AcDbEntity
  8
0
100
AcDbPolyline
 62
2
  6
CONTINUOUS
 90
9
 70
0
 43
0.25
 10
174.2191972656
 20
1.6391329346
 10
174.3649902344
 20
1.1724662094
 10
174.8550058594
 20
1.1724662094
 10
175.1991855469
 20
1.6391329346
 10
175.3975722656
 20
2.572466217
 10
175.2517792969
 20
3.0391330261
 10
174.7617636719
 20
3.0391330261
 10
174.4175839844
 20
2.572466217
 10
174.2191972656
 20
1.6391329346
  0
LWPOLYLINE
  5
300
100
AcDbEntity
  8
0
100
AcDbPolyline
 62
2
  6
CONTINUOUS
 90
2
 70
0
 43
0.25
 10
175.8816152344
 20
0.239132885
 10
176.4767753906
 20
3.0391330261
  0
LWPOLYLINE
  5
301
100
AcDbEntity
  8
0
100
AcDbPolyline
 62
2
  6
CONTINUOUS
 90
7
 70
0
 43
0.25
 10
176.0800019531
 20
1.1724662094
 10
176.8150039063
 20
1.1724662094
 10
177.1591835938
 20
1.6391329346
 10
177.3575703125
 20
2.572466217
 10
177.2117773438
 20
3.0391330261
 10
176.7217617188
 20
3.0391330261
 10
176.3775820313
 20
2.572466217
  0
LWPOLYLINE
  5
302
100
AcDbEntity
  8
0
100
AcDbPolyline
 62
2
  6
CONTINUOUS
 90
5
 70
0
 43
0.25
 10
178.04
 20
1.1724662094
 10
178.4367734375
 20
3.0391330261
 10
178.7283808594
 20
2.1057995758
 10
179.4167617188
 20
3.0391330261
 10
179.0200097656
 20
1.1724662094
  0
LWPOLYLINE
  5
303
100
AcDbEntity
  8
0
100
AcDbPolyline
 62
2
  6
CONTINUOUS
 90
8
 70
0
 43
0.25
 10
181.2775878906
 20
2.572466217
 10
181.1317734375
 20
3.0391330261
 10
180.6417792969
 20
3.0391330261
 10
180.297578125
 20
2.572466217
 10
180.0991914063
 20
1.6391329346
 10
180.2450058594
 20
1.1724662094
 10
180.735
 20
1.1724662094
 10
181.0792011719
 20
1.6391329346
  0
LWPOLYLINE
  5
304
100
AcDbEntity
  8
0
100
AcDbPolyline
 62
2
  6
CONTINUOUS
 90
3
 70
0
 43
0.25
 10
181.37678125
 20
3.0391330261
 10
181.0792011719
 20
1.6391329346
 10
181.1024902344
 20
1.1724662094
  0
LWPOLYLINE
  5
305
100
AcDbEntity
  8
0
100
AcDbPolyline
 62
2
  6
CONTINUOUS
 90
2
 70
0
 43
0.25
 10
181.9599960938
 20
1.1724662094
 10
182.3567695313
 20
3.0391330261
  0
LWPOLYLINE
  5
306
100
AcDbEntity
  8
0
100
AcDbPolyline
 62
2
  6
CONTINUOUS
 90
4
 70
0
 43
0.25
 10
182.2575761719
 20
2.572466217
 10
182.6017773438
 20
3.0391330261
 10
182.7475703125
 20
2.572466217
 10
182.4499902344
 20
1.1724662094
  0
LWPOLYLINE
  5
307
100
AcDbEntity
  8
0
100
AcDbPolyline
 62
2
  6
CONTINUOUS
 90
4
 70
0
 43
0.25
 10
182.7475703125
 20
2.572466217
 10
183.0917714844
 20
3.0391330261
 10
183.2375859375
 20
2.572466217
 10
182.9400058594
 20
1.1724662094
  0
LWPOLYLINE
  5
308
100
AcDbEntity
  8
0
100
AcDbPolyline
 62
2
  6
CONTINUOUS
 90
3
 70
0
 43
0.25
 10
185.8799921875
 20
1.1724662094
 10
186.9651679688
 20
3.9724663086
 10
186.8600019531
 20
1.1724662094
  0
LWPOLYLINE
  5
309
100
AcDbEntity
  8
0
100
AcDbPolyline
 62
2
  6
CONTINUOUS
 90
2
 70
0
 43
0.25
 10
186.3233867188
 20
2.1057995758
 10
186.8133808594
 20
2.1057995758
  0
LWPOLYLINE
  5
30A
100
AcDbEntity
  8
0
100
AcDbPolyline
 62
2
  6
CONTINUOUS
 90
8
 70
0
 43
0.25
 10
98.3856484375
 20
14.1108153076
 10
98.2815351563
 20
14.9441485596
 10
97.71903125
 20
14.9441485596
 10
97.2606513672
 20
14.1108153076
 10
96.5521289063
 20
10.7774816284
 10
96.6562529297
 20
9.9441483765
 10
97.2187460938
 20
9.9441483765
 10
97.6771259766
 20
10.7774816284
  0
LWPOLYLINE
  5
30B
100
AcDbEntity
  8
0
100
AcDbPolyline
 62
2
  6
CONTINUOUS
 90
2
 70
0
 43
0.25
 10
98.6249951172
 20
9.9441483765
 10
99.3335175781
 20
13.2774820557
  0
LWPOLYLINE
  5
30C
100
AcDbEntity
  8
0
100
AcDbPolyline
 62
2
  6
CONTINUOUS
 90
4
 70
0
 43
0.25
 10
99.1563896484
 20
12.4441488037
 10
99.6147695313
 20
13.2774820557
 10
99.7188935547
 20
12.4441488037
 10
99.1874990234
 20
9.9441483765
  0
LWPOLYLINE
  5
30D
100
AcDbEntity
  8
0
100
AcDbPolyline
 62
2
  6
CONTINUOUS
 90
4
 70
0
 43
0.25
 10
99.7188935547
 20
12.4441488037
 10
100.1772734375
 20
13.2774820557
 10
100.2813867188
 20
12.4441488037
 10
99.7500029297
 20
9.9441483765
  0
LWPOLYLINE
  5
30E
100
AcDbEntity
  8
0
100
AcDbPolyline
 62
2
  6
CONTINUOUS
 90
8
 70
0
 43
0.25
 10
102.5313916016
 20
12.4441488037
 10
102.4272675781
 20
13.2774820557
 10
101.8647744141
 20
13.2774820557
 10
101.4063945313
 20
12.4441488037
 10
101.0521279297
 20
10.7774816284
 10
101.1562519531
 20
9.9441483765
 10
101.7187451172
 20
9.9441483765
 10
102.1771357422
 20
10.7774816284
  0
LWPOLYLINE
  5
30F
100
AcDbEntity
  8
0
100
AcDbPolyline
 62
2
  6
CONTINUOUS
 90
3
 70
0
 43
0.25
 10
102.7085195313
 20
13.2774820557
 10
102.1771357422
 20
10.7774816284
 10
102.1406230469
 20
9.9441483765
  0
LWPOLYLINE
  5
310
100
AcDbEntity
  8
0
100
AcDbPolyline
 62
2
  6
CONTINUOUS
 90
3
 70
0
 43
0.25
 10
103.1250048828
 20
9.9441483765
 10
104.3960205078
 20
13.2774820557
 10
104.2500019531
 20
9.9441483765
  0
LWPOLYLINE
  5
311
100
AcDbEntity
  8
0
100
AcDbPolyline
 62
2
  6
CONTINUOUS
 90
9
 70
0
 43
0.25
 10
106.0835214844
 20
13.2774820557
 10
105.5521269531
 20
10.7774816284
 10
105.6562509766
 20
9.9441483765
 10
106.2187548828
 20
9.9441483765
 10
106.6771347656
 20
10.7774816284
 10
106.8542626953
 20
11.6108155518
 10
106.7501386719
 20
12.4441488037
 10
106.1876455078
 20
12.4441488037
 10
105.729265625
 20
11.6108155518
  0
LWPOLYLINE
  5
312
100
AcDbEntity
  8
0
100
AcDbPolyline
 62
2
  6
CONTINUOUS
 90
10
 70
0
 43
0.25
 10
110.7606484375
 20
14.1108153076
 10
111.2190390625
 20
14.9441485596
 10
111.7815429688
 20
14.9441485596
 10
111.88565625
 20
14.1108153076
 10
111.5314003906
 20
12.4441488037
 10
111.0730097656
 20
11.6108155518
 10
110.5105058594
 20
11.6108155518
 10
110.0521367188
 20
10.7774816284
 10
109.8749980469
 20
9.9441483765
 10
111.0000058594
 20
9.9441483765
  0
LWPOLYLINE
  5
313
100
AcDbEntity
  8
0
100
AcDbPolyline
 62
2
  6
CONTINUOUS
 90
9
 70
0
 43
0.25
 10
112.4062441406
 20
9.9441483765
 10
112.3021308594
 20
10.7774816284
 10
113.0106425781
 20
14.1108153076
 10
113.4690332031
 20
14.9441485596
 10
114.0315371094
 20
14.9441485596
 10
114.1356503906
 20
14.1108153076
 10
113.4271386719
 20
10.7774816284
 10
112.9687480469
 20
9.9441483765
 10
112.4062441406
 20
9.9441483765
  0
LWPOLYLINE
  5
314
100
AcDbEntity
  8
0
100
AcDbPolyline
 62
2
  6
CONTINUOUS
 90
3
 70
0
 43
0.25
 10
116.6250019531
 20
9.9441483765
 10
117.6877910156
 20
14.9441485596
 10
118.8127773438
 20
14.9441485596
  0
LWPOLYLINE
  5
315
100
AcDbEntity
  8
0
100
AcDbPolyline
 62
2
  6
CONTINUOUS
 90
9
 70
0
 43
0.25
 10
119.1562480469
 20
9.9441483765
 10
119.0521347656
 20
10.7774816284
 10
119.7606464844
 20
14.1108153076
 10
120.2190371094
 20
14.9441485596
 10
120.7815410156
 20
14.9441485596
 10
120.8856542969
 20
14.1108153076
 10
120.1771210938
 20
10.7774816284
 10
119.7187519531
 20
9.9441483765
 10
119.1562480469
 20
9.9441483765
  0
LWPOLYLINE
  5
316
100
AcDbEntity
  8
0
100
AcDbPolyline
 62
2
  6
CONTINUOUS
 90
8
 70
0
 43
0.25
 10
123.1356484375
 20
14.1108153076
 10
123.0315351563
 20
14.9441485596
 10
122.46903125
 20
14.9441485596
 10
122.0106621094
 20
14.1108153076
 10
121.3021289063
 20
10.7774816284
 10
121.4062421875
 20
9.9441483765
 10
121.9687460938
 20
9.9441483765
 10
122.4271367188
 20
10.7774816284
  0
LWPOLYLINE
  5
317
100
AcDbEntity
  8
0
100
AcDbPolyline
 62
2
  6
CONTINUOUS
 90
2
 70
0
 43
0.25
 10
124.4377734375
 20
14.9441485596
 10
125.56278125
 20
14.9441485596
  0
LWPOLYLINE
  5
318
100
AcDbEntity
  8
0
100
AcDbPolyline
 62
2
  6
CONTINUOUS
 90
2
 70
0
 43
0.25
 10
125.0002773438
 20
14.9441485596
 10
123.9375097656
 20
9.9441483765
  0
LWPOLYLINE
  5
319
100
AcDbEntity
  8
0
100
AcDbPolyline
 62
2
  6
CONTINUOUS
 90
3
 70
0
 43
0.25
 10
129.2866464844
 20
13.2774820557
 10
129.9221542969
 20
14.9441485596
 10
128.8593652344
 20
9.9441483765
  0
LWPOLYLINE
  5
31A
100
AcDbEntity
  8
0
100
AcDbPolyline
 62
2
  6
CONTINUOUS
 90
2
 70
0
 43
0.25
 10
128.5781347656
 20
9.9441483765
 10
129.1406171875
 20
9.9441483765
  0
LWPOLYLINE
  5
31B
100
AcDbEntity
  8
0
100
AcDbPolyline
 62
2
  6
CONTINUOUS
 90
9
 70
0
 43
0.25
 10
130.4062402344
 20
9.9441483765
 10
130.3021269531
 20
10.7774816284
 10
131.0106601563
 20
14.1108153076
 10
131.4690292969
 20
14.9441485596
 10
132.0315332031
 20
14.9441485596
 10
132.1356464844
 20
14.1108153076
 10
131.4271347656
 20
10.7774816284
 10
130.9687441406
 20
9.9441483765
 10
130.4062402344
 20
9.9441483765
  0
LWPOLYLINE
  5
31C
100
AcDbEntity
  8
0
100
AcDbPolyline
 62
2
  6
CONTINUOUS
 90
9
 70
0
 43
0.25
 10
132.5521210938
 20
10.7774816284
 10
132.6562558594
 20
9.9441483765
 10
133.2187597656
 20
9.9441483765
 10
133.6771289063
 20
10.7774816284
 10
134.0313847656
 20
12.4441488037
 10
133.9272714844
 20
13.2774820557
 10
133.083515625
 20
13.2774820557
 10
133.4377929688
 20
14.9441485596
 10
134.5627792969
 20
14.9441485596
  0
LWPOLYLINE
  5
31D
100
AcDbEntity
  8
0
100
AcDbPolyline
 62
2
  6
CONTINUOUS
 90
9
 70
0
 43
0.25
 10
134.90625
 20
9.9441483765
 10
134.8021367188
 20
10.7774816284
 10
135.5106484375
 20
14.1108153076
 10
135.9690390625
 20
14.9441485596
 10
136.5315429688
 20
14.9441485596
 10
136.63565625
 20
14.1108153076
 10
135.9271230469
 20
10.7774816284
 10
135.4687539063
 20
9.9441483765
 10
134.90625
 20
9.9441483765
  0
LWPOLYLINE
  5
31E
100
AcDbEntity
  8
0
100
AcDbPolyline
 62
2
  6
CONTINUOUS
 90
2
 70
0
 43
0.25
 10
137.968890625
 20
12.4441488037
 10
139.0938984375
 20
12.4441488037
  0
LWPOLYLINE
  5
31F
100
AcDbEntity
  8
0
100
AcDbPolyline
 62
2
  6
CONTINUOUS
 90
9
 70
0
 43
0.25
 10
139.4062597656
 20
9.9441483765
 10
139.9687421875
 20
9.9441483765
 10
140.4271328125
 20
10.7774816284
 10
140.6042714844
 20
11.6108155518
 10
140.5001367188
 20
12.4441488037
 10
139.9376328125
 20
12.4441488037
 10
139.4792636719
 20
11.6108155518
 10
139.302125
 20
10.7774816284
 10
139.4062597656
 20
9.9441483765
  0
LWPOLYLINE
  5
320
100
AcDbEntity
  8
0
100
AcDbPolyline
 62
2
  6
CONTINUOUS
 90
8
 70
0
 43
0.25
 10
140.5001367188
 20
12.4441488037
 10
140.9585273438
 20
13.2774820557
 10
141.1356445313
 20
14.1108153076
 10
141.03153125
 20
14.9441485596
 10
140.4690273438
 20
14.9441485596
 10
140.0106582031
 20
14.1108153076
 10
139.8335195313
 20
13.2774820557
 10
139.9376328125
 20
12.4441488037
  0
LWPOLYLINE
  5
321
100
AcDbEntity
  8
0
100
AcDbPolyline
 62
2
  6
CONTINUOUS
 90
9
 70
0
 43
0.25
 10
141.6562539063
 20
9.9441483765
 10
142.2187578125
 20
9.9441483765
 10
142.6771269531
 20
10.7774816284
 10
142.854265625
 20
11.6108155518
 10
142.7501308594
 20
12.4441488037
 10
142.1876484375
 20
12.4441488037
 10
141.7292578125
 20
11.6108155518
 10
141.552140625
 20
10.7774816284
 10
141.6562539063
 20
9.9441483765
  0
LWPOLYLINE
  5
322
100
AcDbEntity
  8
0
100
AcDbPolyline
 62
2
  6
CONTINUOUS
 90
8
 70
0
 43
0.25
 10
142.7501308594
 20
12.4441488037
 10
143.2085214844
 20
13.2774820557
 10
143.3856601563
 20
14.1108153076
 10
143.2815253906
 20
14.9441485596
 10
142.7190429688
 20
14.9441485596
 10
142.2606523438
 20
14.1108153076
 10
142.0835136719
 20
13.2774820557
 10
142.1876484375
 20
12.4441488037
  0
LWPOLYLINE
  5
323
100
AcDbEntity
  8
0
100
AcDbPolyline
 62
2
  6
CONTINUOUS
 90
6
 70
0
 43
0.25
 10
38.45
 20
5.7875797729
 10
39.2037470703
 20
5.7875797729
 10
39.5736757813
 20
6.3459130249
 10
39.6923554688
 20
6.9042462769
 10
39.5597861328
 20
7.4625795288
 10
38.8060283203
 20
7.4625795288
  0
LWPOLYLINE
  5
324
100
AcDbEntity
  8
0
100
AcDbPolyline
 62
2
  6
CONTINUOUS
 90
3
 70
0
 43
0.25
 10
38.45
 20
5.7875797729
 10
39.1620673828
 20
9.1375792847
 10
39.9158144531
 20
9.1375792847
  0
LWPOLYLINE
  5
325
100
AcDbEntity
  8
0
100
AcDbPolyline
 62
2
  6
CONTINUOUS
 90
2
 70
0
 43
0.25
 10
40.9347109375
 20
8.0209127808
 10
40.9625009766
 20
5.7875797729
  0
LWPOLYLINE
  5
326
100
AcDbEntity
  8
0
100
AcDbPolyline
 62
2
  6
CONTINUOUS
 90
3
 70
0
 43
0.25
 10
40.2226435547
 20
4.6709129333
 10
40.4738925781
 20
4.6709129333
 10
41.9397070313
 20
8.0209127808
  0
LWPOLYLINE
  5
327
100
AcDbEntity
  8
0
100
AcDbPolyline
 62
2
  6
CONTINUOUS
 90
3
 70
0
 43
0.25
 10
42.4699951172
 20
5.7875797729
 10
43.4472119141
 20
8.0209127808
 10
43.4750019531
 20
5.7875797729
  0
LWPOLYLINE
  5
328
100
AcDbEntity
  8
0
100
AcDbPolyline
 62
2
  6
CONTINUOUS
 90
2
 70
0
 43
0.25
 10
44.9547060547
 20
8.0209127808
 10
44.4799980469
 20
5.7875797729
  0
LWPOLYLINE
  5
329
100
AcDbEntity
  8
0
100
AcDbPolyline
 62
2
  6
CONTINUOUS
 90
2
 70
0
 43
0.25
 10
44.5986777344
 20
6.3459130249
 10
45.9597128906
 20
8.0209127808
  0
LWPOLYLINE
  5
32A
100
AcDbEntity
  8
0
100
AcDbPolyline
 62
2
  6
CONTINUOUS
 90
2
 70
0
 43
0.25
 10
45.0942255859
 20
6.9042462769
 10
45.4850048828
 20
5.7875797729
  0
LWPOLYLINE
  5
32B
100
AcDbEntity
  8
0
100
AcDbPolyline
 62
2
  6
CONTINUOUS
 90
5
 70
0
 43
0.25
 10
46.9647089844
 20
8.0209127808
 10
46.6086806641
 20
6.3459130249
 10
46.74125
 20
5.7875797729
 10
46.9924990234
 20
5.7875797729
 10
47.7323564453
 20
6.9042462769
  0
LWPOLYLINE
  5
32C
100
AcDbEntity
  8
0
100
AcDbPolyline
 62
2
  6
CONTINUOUS
 90
2
 70
0
 43
0.25
 10
47.9697050781
 20
8.0209127808
 10
47.4949970703
 20
5.7875797729
  0
LWPOLYLINE
  5
32D
100
AcDbEntity
  8
0
100
AcDbPolyline
 62
2
  6
CONTINUOUS
 90
2
 70
0
 43
0.25
 10
48.5000039063
 20
5.7875797729
 10
48.9747119141
 20
8.0209127808
  0
LWPOLYLINE
  5
32E
100
AcDbEntity
  8
0
100
AcDbPolyline
 62
2
  6
CONTINUOUS
 90
2
 70
0
 43
0.25
 10
48.7373525391
 20
6.9042462769
 10
49.742359375
 20
6.9042462769
  0
LWPOLYLINE
  5
32F
100
AcDbEntity
  8
0
100
AcDbPolyline
 62
2
  6
CONTINUOUS
 90
2
 70
0
 43
0.25
 10
49.9797080078
 20
8.0209127808
 10
49.505
 20
5.7875797729
  0
LWPOLYLINE
  5
330
100
AcDbEntity
  8
0
100
AcDbPolyline
 62
2
  6
CONTINUOUS
 90
3
 70
0
 43
0.25
 10
52.5199990234
 20
5.7875797729
 10
53.7345644531
 20
9.1375792847
 10
53.5249951172
 20
5.7875797729
  0
LWPOLYLINE
  5
331
100
AcDbEntity
  8
0
100
AcDbPolyline
 62
2
  6
CONTINUOUS
 90
2
 70
0
 43
0.25
 10
53.0086074219
 20
6.9042462769
 10
53.5111054688
 20
6.9042462769
  0
LWPOLYLINE
  5
332
100
AcDbEntity
  8
0
100
AcDbPolyline
 62
2
  6
CONTINUOUS
 90
5
 70
0
 43
0.25
 10
54.6556210938
 20
5.7875797729
 10
54.5300019531
 20
5.7875797729
 10
54.5893417969
 20
6.0667463989
 10
54.7149609375
 20
6.0667463989
 10
54.6556210938
 20
5.7875797729
  0
LWPOLYLINE
  5
333
100
AcDbEntity
  8
0
100
AcDbPolyline
 62
2
  6
CONTINUOUS
 90
4
 70
0
 43
0.25
 10
56.5400048828
 20
5.7875797729
 10
57.2520615234
 20
9.1375792847
 10
58.2570683594
 20
9.1375792847
 10
57.5450009766
 20
5.7875797729
  0
LWPOLYLINE
  5
334
100
AcDbEntity
  8
0
100
AcDbPolyline
 62
2
  6
CONTINUOUS
 90
5
 70
0
 43
0.25
 10
24.5986796875
 20
6.3459130249
 10
24.7312490234
 20
5.7875797729
 10
25.2337470703
 20
5.7875797729
 10
25.6036757813
 20
6.3459130249
 10
26.1970634766
 20
9.1375792847
  0
LWPOLYLINE
  5
335
100
AcDbEntity
  8
0
100
AcDbPolyline
 62
2
  6
CONTINUOUS
 90
4
 70
0
 43
0.25
 10
25.1920673828
 20
9.1375792847
 10
24.9547080078
 20
8.0209127808
 10
25.0872773438
 20
7.4625795288
 10
25.8410351563
 20
7.4625795288
  0
LWPOLYLINE
  5
336
100
AcDbEntity
  8
0
100
AcDbPolyline
 62
2
  6
CONTINUOUS
 90
2
 70
0
 43
0.25
 10
26.4900029297
 20
5.7875797729
 10
26.9647109375
 20
8.0209127808
  0
LWPOLYLINE
  5
337
100
AcDbEntity
  8
0
100
AcDbPolyline
 62
2
  6
CONTINUOUS
 90
4
 70
0
 43
0.25
 10
26.84603125
 20
7.4625795288
 10
27.2159599609
 20
8.0209127808
 10
27.3485292969
 20
7.4625795288
 10
26.9925009766
 20
5.7875797729
  0
LWPOLYLINE
  5
338
100
AcDbEntity
  8
0
100
AcDbPolyline
 62
2
  6
CONTINUOUS
 90
4
 70
0
 43
0.25
 10
27.3485292969
 20
7.4625795288
 10
27.7184580078
 20
8.0209127808
 10
27.8510273438
 20
7.4625795288
 10
27.4949990234
 20
5.7875797729
  0
LWPOLYLINE
  5
339
100
AcDbEntity
  8
0
100
AcDbPolyline
 62
2
  6
CONTINUOUS
 90
12
 70
0
 43
0.25
 10
28.8560341797
 20
7.4625795288
 10
29.5958916016
 20
8.5792460327
 10
29.7145605469
 20
9.1375792847
 10
29.4633115234
 20
9.1375792847
 10
29.0933828125
 20
8.5792460327
 10
28.6186748047
 20
6.3459130249
 10
28.7512548828
 20
5.7875797729
 10
29.2537529297
 20
5.7875797729
 10
29.6236816406
 20
6.3459130249
 10
29.8610302734
 20
7.4625795288
 10
29.7284609375
 20
8.0209127808
 10
29.2259628906
 20
8.0209127808
  0
LWPOLYLINE
  5
33A
100
AcDbEntity
  8
0
100
AcDbPolyline
 62
2
  6
CONTINUOUS
 90
5
 70
0
 43
0.25
 10
30.6356279297
 20
5.7875797729
 10
30.5099980469
 20
5.7875797729
 10
30.5693378906
 20
6.0667463989
 10
30.6949677734
 20
6.0667463989
 10
30.6356279297
 20
5.7875797729
  0
LWPOLYLINE
  5
33B
100
AcDbEntity
  8
0
100
AcDbPolyline
 62
2
  6
CONTINUOUS
 90
2
 70
0
 43
0.25
 10
20.4600048828
 20
10.7875792847
 10
21.1720615234
 20
14.1375794678
  0
LWPOLYLINE
  5
33C
100
AcDbEntity
  8
0
100
AcDbPolyline
 62
2
  6
CONTINUOUS
 90
2
 70
0
 43
0.25
 10
20.8160332031
 20
12.4625797119
 10
21.8210292969
 20
12.4625797119
  0
LWPOLYLINE
  5
33D
100
AcDbEntity
  8
0
100
AcDbPolyline
 62
2
  6
CONTINUOUS
 90
2
 70
0
 43
0.25
 10
22.1770683594
 20
14.1375794678
 10
21.4650009766
 20
10.7875792847
  0
LWPOLYLINE
  5
33E
100
AcDbEntity
  8
0
100
AcDbPolyline
 62
2
  6
CONTINUOUS
 90
5
 70
0
 43
0.25
 10
22.5956269531
 20
10.7875792847
 10
22.4699970703
 20
10.7875792847
 10
22.5293369141
 20
11.0667459106
 10
22.6549667969
 20
11.0667459106
 10
22.5956269531
 20
10.7875792847
  0
LWPOLYLINE
  5
33F
100
AcDbEntity
  8
0
100
AcDbPolyline
 62
2
  6
CONTINUOUS
 90
2
 70
0
 43
0.25
 10
24.9547080078
 20
13.0209129639
 10
24.48
 20
10.7875792847
  0
LWPOLYLINE
  5
340
100
AcDbEntity
  8
0
100
AcDbPolyline
 62
2
  6
CONTINUOUS
 90
2
 70
0
 43
0.25
 10
24.5986796875
 20
11.345913208
 10
25.9597148438
 20
13.0209129639
  0
LWPOLYLINE
  5
341
100
AcDbEntity
  8
0
100
AcDbPolyline
 62
2
  6
CONTINUOUS
 90
2
 70
0
 43
0.25
 10
25.0942275391
 20
11.90424646
 10
25.4849960938
 20
10.7875792847
  0
LWPOLYLINE
  5
342
100
AcDbEntity
  8
0
100
AcDbPolyline
 62
2
  6
CONTINUOUS
 90
9
 70
0
 43
0.25
 10
26.6086826172
 20
11.345913208
 10
26.7412519531
 20
10.7875792847
 10
27.24375
 20
10.7875792847
 10
27.6136787109
 20
11.345913208
 10
27.8510273438
 20
12.4625797119
 10
27.7184580078
 20
13.0209129639
 10
27.2159599609
 20
13.0209129639
 10
26.84603125
 20
12.4625797119
 10
26.6086826172
 20
11.345913208
  0
LWPOLYLINE
  5
343
100
AcDbEntity
  8
0
100
AcDbPolyline
 62
2
  6
CONTINUOUS
 90
2
 70
0
 43
0.25
 10
28.4999951172
 20
10.7875792847
 10
28.9747138672
 20
13.0209129639
  0
LWPOLYLINE
  5
344
100
AcDbEntity
  8
0
100
AcDbPolyline
 62
2
  6
CONTINUOUS
 90
2
 70
0
 43
0.25
 10
28.7373544922
 20
11.90424646
 10
29.7423505859
 20
11.90424646
  0
LWPOLYLINE
  5
345
100
AcDbEntity
  8
0
100
AcDbPolyline
 62
2
  6
CONTINUOUS
 90
2
 70
0
 43
0.25
 10
29.9797099609
 20
13.0209129639
 10
29.5050019531
 20
10.7875792847
  0
LWPOLYLINE
  5
346
100
AcDbEntity
  8
0
100
AcDbPolyline
 62
2
  6
CONTINUOUS
 90
2
 70
0
 43
0.25
 10
30.5099980469
 20
10.7875792847
 10
30.9847060547
 20
13.0209129639
  0
LWPOLYLINE
  5
347
100
AcDbEntity
  8
0
100
AcDbPolyline
 62
2
  6
CONTINUOUS
 90
4
 70
0
 43
0.25
 10
30.8660371094
 20
12.4625797119
 10
31.2359550781
 20
13.0209129639
 10
31.3685351563
 20
12.4625797119
 10
31.0124960938
 20
10.7875792847
  0
LWPOLYLINE
  5
348
100
AcDbEntity
  8
0
100
AcDbPolyline
 62
2
  6
CONTINUOUS
 90
4
 70
0
 43
0.25
 10
31.3685351563
 20
12.4625797119
 10
31.7384638672
 20
13.0209129639
 10
31.8710332031
 20
12.4625797119
 10
31.5150048828
 20
10.7875792847
  0
LWPOLYLINE
  5
349
100
AcDbEntity
  8
0
100
AcDbPolyline
 62
2
  6
CONTINUOUS
 90
2
 70
0
 43
0.25
 10
32.2826416016
 20
9.6709127808
 10
32.9947089844
 20
13.0209129639
  0
LWPOLYLINE
  5
34A
100
AcDbEntity
  8
0
100
AcDbPolyline
 62
2
  6
CONTINUOUS
 90
7
 70
0
 43
0.25
 10
32.5200009766
 20
10.7875792847
 10
33.2737480469
 20
10.7875792847
 10
33.6436767578
 20
11.345913208
 10
33.8810361328
 20
12.4625797119
 10
33.7484560547
 20
13.0209129639
 10
33.2459580078
 20
13.0209129639
 10
32.8760292969
 20
12.4625797119
  0
LWPOLYLINE
  5
34B
100
AcDbEntity
  8
0
100
AcDbPolyline
 62
2
  6
CONTINUOUS
 90
5
 70
0
 43
0.25
 10
34.6556230469
 20
10.7875792847
 10
34.5300039063
 20
10.7875792847
 10
34.58934375
 20
11.0667459106
 10
34.7149628906
 20
11.0667459106
 10
34.6556230469
 20
10.7875792847
  0
LWPOLYLINE
  5
34C
100
AcDbEntity
  8
0
100
AcDbPolyline
 62
2
  6
CONTINUOUS
 90
3
 70
0
 43
0.25
 10
181.9599960938
 20
20.7875789795
 10
183.1745722656
 20
24.137579834
 10
182.9649921875
 20
20.7875789795
  0
LWPOLYLINE
  5
34D
100
AcDbEntity
  8
0
100
AcDbPolyline
 62
2
  6
CONTINUOUS
 90
5
 70
0
 43
0.25
 10
184.4447070313
 20
23.0209133301
 10
184.0886679688
 20
21.3459122314
 10
184.2212480469
 20
20.7875789795
 10
184.4725078125
 20
20.7875789795
 10
185.2123652344
 20
21.9042468262
  0
LWPOLYLINE
  5
34E
100
AcDbEntity
  8
0
100
AcDbPolyline
 62
2
  6
CONTINUOUS
 90
2
 70
0
 43
0.25
 10
185.449703125
 20
23.0209133301
 10
184.9750058594
 20
20.7875789795
  0
LWPOLYLINE
  5
34F
100
AcDbEntity
  8
0
100
AcDbPolyline
 62
2
  6
CONTINUOUS
 90
8
 70
0
 43
0.25
 10
187.3410371094
 20
22.4625800781
 10
187.2084570313
 20
23.0209133301
 10
186.7059589844
 20
23.0209133301
 10
186.3360410156
 20
22.4625800781
 10
186.0986816406
 20
21.3459122314
 10
186.2312402344
 20
20.7875789795
 10
186.7337597656
 20
20.7875789795
 10
187.1036777344
 20
21.3459122314
  0
LWPOLYLINE
  5
350
100
AcDbEntity
  8
0
100
AcDbPolyline
 62
2
  6
CONTINUOUS
 90
2
 70
0
 43
0.25
 10
187.9899941406
 20
20.7875789795
 10
188.4647128906
 20
23.0209133301
  0
LWPOLYLINE
  5
351
100
AcDbEntity
  8
0
100
AcDbPolyline
 62
2
  6
CONTINUOUS
 90
4
 70
0
 43
0.25
 10
188.3460332031
 20
22.4625800781
 10
188.7159511719
 20
23.0209133301
 10
188.84853125
 20
22.4625800781
 10
188.4924921875
 20
20.7875789795
  0
LWPOLYLINE
  5
352
100
AcDbEntity
  8
0
100
AcDbPolyline
 62
2
  6
CONTINUOUS
 90
4
 70
0
 43
0.25
 10
188.84853125
 20
22.4625800781
 10
189.2184492188
 20
23.0209133301
 10
189.3510292969
 20
22.4625800781
 10
188.9949902344
 20
20.7875789795
  0
LWPOLYLINE
  5
353
100
AcDbEntity
  8
0
100
AcDbPolyline
 62
2
  6
CONTINUOUS
 90
9
 70
0
 43
0.25
 10
190.1186875
 20
21.3459122314
 10
190.2512460938
 20
20.7875789795
 10
190.7537441406
 20
20.7875789795
 10
191.1236835938
 20
21.3459122314
 10
191.3610429688
 20
22.4625800781
 10
191.2284628906
 20
23.0209133301
 10
190.7259648438
 20
23.0209133301
 10
190.3560253906
 20
22.4625800781
 10
190.1186875
 20
21.3459122314
  0
LWPOLYLINE
  5
354
100
AcDbEntity
  8
0
100
AcDbPolyline
 62
2
  6
CONTINUOUS
 90
12
 70
0
 43
0.25
 10
192.3660390625
 20
22.4625800781
 10
193.1058964844
 20
23.579246582
 10
193.2245546875
 20
24.137579834
 10
192.9733164063
 20
24.137579834
 10
192.6033769531
 20
23.579246582
 10
192.1286796875
 20
21.3459122314
 10
192.2612597656
 20
20.7875789795
 10
192.7637578125
 20
20.7875789795
 10
193.1336757813
 20
21.3459122314
 10
193.3710351563
 20
22.4625800781
 10
193.2384550781
 20
23.0209133301
 10
192.7359570313
 20
23.0209133301
  0
LWPOLYLINE
  5
355
100
AcDbEntity
  8
0
100
AcDbPolyline
 62
2
  6
CONTINUOUS
 90
3
 70
0
 43
0.25
 10
197.1328417969
 20
23.0209133301
 10
197.6214394531
 20
24.137579834
 10
196.9093828125
 20
20.7875789795
  0
LWPOLYLINE
  5
356
100
AcDbEntity
  8
0
100
AcDbPolyline
 62
2
  6
CONTINUOUS
 90
2
 70
0
 43
0.25
 10
196.6581230469
 20
20.7875789795
 10
197.1606210938
 20
20.7875789795
  0
LWPOLYLINE
  5
357
100
AcDbEntity
  8
0
100
AcDbPolyline
 62
2
  6
CONTINUOUS
 90
3
 70
0
 43
0.25
 10
160.9800097656
 20
20.7875789795
 10
162.1945644531
 20
24.137579834
 10
161.9850058594
 20
20.7875789795
  0
LWPOLYLINE
  5
358
100
AcDbEntity
  8
0
100
AcDbPolyline
 62
2
  6
CONTINUOUS
 90
5
 70
0
 43
0.25
 10
163.4646992188
 20
23.0209133301
 10
163.1086816406
 20
21.3459122314
 10
163.2412402344
 20
20.7875789795
 10
163.4925
 20
20.7875789795
 10
164.2323574219
 20
21.9042468262
  0
LWPOLYLINE
  5
359
100
AcDbEntity
  8
0
100
AcDbPolyline
 62
2
  6
CONTINUOUS
 90
2
 70
0
 43
0.25
 10
164.4697167969
 20
23.0209133301
 10
163.9949980469
 20
20.7875789795
  0
LWPOLYLINE
  5
35A
100
AcDbEntity
  8
0
100
AcDbPolyline
 62
2
  6
CONTINUOUS
 90
8
 70
0
 43
0.25
 10
166.3610292969
 20
22.4625800781
 10
166.2284492188
 20
23.0209133301
 10
165.7259511719
 20
23.0209133301
 10
165.3560332031
 20
22.4625800781
 10
165.1186738281
 20
21.3459122314
 10
165.2512539063
 20
20.7875789795
 10
165.7537519531
 20
20.7875789795
 10
166.1236699219
 20
21.3459122314
  0
LWPOLYLINE
  5
35B
100
AcDbEntity
  8
0
100
AcDbPolyline
 62
2
  6
CONTINUOUS
 90
2
 70
0
 43
0.25
 10
167.0100078125
 20
20.7875789795
 10
167.4847050781
 20
23.0209133301
  0
LWPOLYLINE
  5
35C
100
AcDbEntity
  8
0
100
AcDbPolyline
 62
2
  6
CONTINUOUS
 90
4
 70
0
 43
0.25
 10
167.3660253906
 20
22.4625800781
 10
167.7359648438
 20
23.0209133301
 10
167.8685234375
 20
22.4625800781
 10
167.5125058594
 20
20.7875789795
  0
LWPOLYLINE
  5
35D
100
AcDbEntity
  8
0
100
AcDbPolyline
 62
2
  6
CONTINUOUS
 90
4
 70
0
 43
0.25
 10
167.8685234375
 20
22.4625800781
 10
168.2384628906
 20
23.0209133301
 10
168.3710429688
 20
22.4625800781
 10
168.0150039063
 20
20.7875789795
  0
LWPOLYLINE
  5
35E
100
AcDbEntity
  8
0
100
AcDbPolyline
 62
2
  6
CONTINUOUS
 90
6
 70
0
 43
0.25
 10
107.3999980469
 20
29.4329787598
 10
108.7500009766
 20
29.4329787598
 10
109.412546875
 20
30.4329770508
 10
109.6251132813
 20
31.4329780273
 10
109.3876679688
 20
32.4329790039
 10
108.0376650391
 20
32.4329790039
  0
LWPOLYLINE
  5
35F
100
AcDbEntity
  8
0
100
AcDbPolyline
 62
2
  6
CONTINUOUS
 90
3
 70
0
 43
0.25
 10
107.3999980469
 20
29.4329787598
 10
108.6753427734
 20
35.432979248
 10
110.0253457031
 20
35.432979248
  0
LWPOLYLINE
  5
360
100
AcDbEntity
  8
0
100
AcDbPolyline
 62
2
  6
CONTINUOUS
 90
9
 70
0
 43
0.25
 10
111.2125507813
 20
30.4329770508
 10
111.4499960938
 20
29.4329787598
 10
112.3499980469
 20
29.4329787598
 10
113.0125546875
 20
30.4329770508
 10
113.4376660156
 20
32.4329790039
 10
113.2002207031
 20
33.4329772949
 10
112.30021875
 20
33.4329772949
 10
111.6376621094
 20
32.4329790039
 10
111.2125507813
 20
30.4329770508
  0
LWPOLYLINE
  5
361
100
AcDbEntity
  8
0
100
AcDbPolyline
 62
2
  6
CONTINUOUS
 90
10
 70
0
 43
0.25
 10
116.8002285156
 20
33.4329772949
 10
115.9002265625
 20
33.4329772949
 10
115.2376699219
 20
32.4329790039
 10
114.8125585938
 20
30.4329770508
 10
115.0500039063
 20
29.4329787598
 10
115.9500058594
 20
29.4329787598
 10
116.6125625
 20
30.4329770508
 10
117.0376738281
 20
32.4329790039
 10
116.3253378906
 20
35.432979248
 10
117.6753300781
 20
35.432979248
  0
LWPOLYLINE
  5
362
100
AcDbEntity
  8
0
100
AcDbPolyline
 62
2
  6
CONTINUOUS
 90
9
 70
0
 43
0.25
 10
119.0502226563
 20
33.4329772949
 10
118.4125664063
 20
30.4329770508
 10
118.6499902344
 20
29.4329787598
 10
119.1000019531
 20
29.4329787598
 10
119.7625585938
 20
30.4329770508
 10
119.9751035156
 20
31.4329780273
 10
119.7376796875
 20
32.4329790039
 10
119.2876679688
 20
32.4329790039
 10
118.6251113281
 20
31.4329780273
  0
LWPOLYLINE
  5
363
100
AcDbEntity
  8
0
100
AcDbPolyline
 62
2
  6
CONTINUOUS
 90
2
 70
0
 43
0.25
 10
120.8502265625
 20
33.4329772949
 10
120.0000039063
 20
29.4329787598
  0
LWPOLYLINE
  5
364
100
AcDbEntity
  8
0
100
AcDbPolyline
 62
2
  6
CONTINUOUS
 90
7
 70
0
 43
0.25
 10
122.6502304688
 20
33.4329772949
 10
122.0125527344
 20
30.4329770508
 10
122.2499980469
 20
29.4329787598
 10
122.9125546875
 20
30.4329770508
 10
123.15
 20
29.4329787598
 10
123.8125566406
 20
30.4329770508
 10
124.450234375
 20
33.4329772949
  0
LWPOLYLINE
  5
365
100
AcDbEntity
  8
0
100
AcDbPolyline
 62
2
  6
CONTINUOUS
 90
2
 70
0
 43
0.25
 10
123.5502324219
 20
33.4329772949
 10
122.9125546875
 20
30.4329770508
  0
LWPOLYLINE
  5
366
100
AcDbEntity
  8
0
100
AcDbPolyline
 62
2
  6
CONTINUOUS
 90
2
 70
0
 43
0.25
 10
123.8125566406
 20
30.4329770508
 10
123.8249960938
 20
29.4329787598
  0
LWPOLYLINE
  5
367
100
AcDbEntity
  8
0
100
AcDbPolyline
 62
2
  6
CONTINUOUS
 90
2
 70
0
 43
0.25
 10
126.2502167969
 20
33.4329772949
 10
125.3999941406
 20
29.4329787598
  0
LWPOLYLINE
  5
368
100
AcDbEntity
  8
0
100
AcDbPolyline
 62
2
  6
CONTINUOUS
 90
2
 70
0
 43
0.25
 10
125.6125605469
 20
30.4329770508
 10
128.0502207031
 20
33.4329772949
  0
LWPOLYLINE
  5
369
100
AcDbEntity
  8
0
100
AcDbPolyline
 62
2
  6
CONTINUOUS
 90
2
 70
0
 43
0.25
 10
126.5001230469
 20
31.4329780273
 10
127.1999980469
 20
29.4329787598
  0
LWPOLYLINE
  5
36A
100
AcDbEntity
  8
0
100
AcDbPolyline
 62
2
  6
CONTINUOUS
 90
8
 70
0
 43
0.25
 10
131.4376621094
 20
32.4329790039
 10
131.2002167969
 20
33.4329772949
 10
130.3002363281
 20
33.4329772949
 10
129.6376796875
 20
32.4329790039
 10
129.212546875
 20
30.4329770508
 10
129.4499921875
 20
29.4329787598
 10
130.3499941406
 20
29.4329787598
 10
131.0125507813
 20
30.4329770508
  0
LWPOLYLINE
  5
36B
100
AcDbEntity
  8
0
100
AcDbPolyline
 62
2
  6
CONTINUOUS
 90
3
 70
0
 43
0.25
 10
131.6502285156
 20
33.4329772949
 10
131.0125507813
 20
30.4329770508
 10
131.0249902344
 20
29.4329787598
  0
LWPOLYLINE
  5
36C
100
AcDbEntity
  8
0
100
AcDbPolyline
 62
2
  6
CONTINUOUS
 90
2
 70
0
 43
0.25
 10
21.1720615234
 20
24.137579834
 10
22.1770683594
 20
24.137579834
  0
LWPOLYLINE
  5
36D
100
AcDbEntity
  8
0
100
AcDbPolyline
 62
2
  6
CONTINUOUS
 90
2
 70
0
 43
0.25
 10
21.6745595703
 20
24.137579834
 10
20.9625029297
 20
20.7875789795
  0
LWPOLYLINE
  5
36E
100
AcDbEntity
  8
0
100
AcDbPolyline
 62
2
  6
CONTINUOUS
 90
5
 70
0
 43
0.25
 10
22.5956269531
 20
20.7875789795
 10
22.4699970703
 20
20.7875789795
 10
22.5293369141
 20
21.0667456055
 10
22.6549667969
 20
21.0667456055
 10
22.5956269531
 20
20.7875789795
  0
LWPOLYLINE
  5
36F
100
AcDbEntity
  8
0
100
AcDbPolyline
 62
2
  6
CONTINUOUS
 90
2
 70
0
 43
0.25
 10
24.9547080078
 20
23.0209133301
 10
24.48
 20
20.7875789795
  0
LWPOLYLINE
  5
370
100
AcDbEntity
  8
0
100
AcDbPolyline
 62
2
  6
CONTINUOUS
 90
2
 70
0
 43
0.25
 10
24.5986796875
 20
21.3459122314
 10
25.9597148438
 20
23.0209133301
  0
LWPOLYLINE
  5
371
100
AcDbEntity
  8
0
100
AcDbPolyline
 62
2
  6
CONTINUOUS
 90
2
 70
0
 43
0.25
 10
25.0942275391
 20
21.9042468262
 10
25.4849960938
 20
20.7875789795
  0
LWPOLYLINE
  5
372
100
AcDbEntity
  8
0
100
AcDbPolyline
 62
2
  6
CONTINUOUS
 90
9
 70
0
 43
0.25
 10
26.6086826172
 20
21.3459122314
 10
26.7412519531
 20
20.7875789795
 10
27.24375
 20
20.7875789795
 10
27.6136787109
 20
21.3459122314
 10
27.8510273438
 20
22.4625800781
 10
27.7184580078
 20
23.0209133301
 10
27.2159599609
 20
23.0209133301
 10
26.84603125
 20
22.4625800781
 10
26.6086826172
 20
21.3459122314
  0
LWPOLYLINE
  5
373
100
AcDbEntity
  8
0
100
AcDbPolyline
 62
2
  6
CONTINUOUS
 90
2
 70
0
 43
0.25
 10
28.4999951172
 20
20.7875789795
 10
28.9747138672
 20
23.0209133301
  0
LWPOLYLINE
  5
374
100
AcDbEntity
  8
0
100
AcDbPolyline
 62
2
  6
CONTINUOUS
 90
2
 70
0
 43
0.25
 10
28.7373544922
 20
21.9042468262
 10
29.7423505859
 20
21.9042468262
  0
LWPOLYLINE
  5
375
100
AcDbEntity
  8
0
100
AcDbPolyline
 62
2
  6
CONTINUOUS
 90
2
 70
0
 43
0.25
 10
29.9797099609
 20
23.0209133301
 10
29.5050019531
 20
20.7875789795
  0
LWPOLYLINE
  5
376
100
AcDbEntity
  8
0
100
AcDbPolyline
 62
2
  6
CONTINUOUS
 90
2
 70
0
 43
0.25
 10
30.5099980469
 20
20.7875789795
 10
30.9847060547
 20
23.0209133301
  0
LWPOLYLINE
  5
377
100
AcDbEntity
  8
0
100
AcDbPolyline
 62
2
  6
CONTINUOUS
 90
4
 70
0
 43
0.25
 10
30.8660371094
 20
22.4625800781
 10
31.2359550781
 20
23.0209133301
 10
31.3685351563
 20
22.4625800781
 10
31.0124960938
 20
20.7875789795
  0
LWPOLYLINE
  5
378
100
AcDbEntity
  8
0
100
AcDbPolyline
 62
2
  6
CONTINUOUS
 90
4
 70
0
 43
0.25
 10
31.3685351563
 20
22.4625800781
 10
31.7384638672
 20
23.0209133301
 10
31.8710332031
 20
22.4625800781
 10
31.5150048828
 20
20.7875789795
  0
LWPOLYLINE
  5
379
100
AcDbEntity
  8
0
100
AcDbPolyline
 62
2
  6
CONTINUOUS
 90
2
 70
0
 43
0.25
 10
32.2826416016
 20
19.6709124756
 10
32.9947089844
 20
23.0209133301
  0
LWPOLYLINE
  5
37A
100
AcDbEntity
  8
0
100
AcDbPolyline
 62
2
  6
CONTINUOUS
 90
7
 70
0
 43
0.25
 10
32.5200009766
 20
20.7875789795
 10
33.2737480469
 20
20.7875789795
 10
33.6436767578
 20
21.3459122314
 10
33.8810361328
 20
22.4625800781
 10
33.7484560547
 20
23.0209133301
 10
33.2459580078
 20
23.0209133301
 10
32.8760292969
 20
22.4625800781
  0
LWPOLYLINE
  5
37B
100
AcDbEntity
  8
0
100
AcDbPolyline
 62
2
  6
CONTINUOUS
 90
5
 70
0
 43
0.25
 10
34.6556230469
 20
20.7875789795
 10
34.5300039063
 20
20.7875789795
 10
34.58934375
 20
21.0667456055
 10
34.7149628906
 20
21.0667456055
 10
34.6556230469
 20
20.7875789795
  0
LWPOLYLINE
  5
37C
100
AcDbEntity
  8
0
100
AcDbPolyline
 62
2
  6
CONTINUOUS
 90
3
 70
0
 43
0.25
 10
192.0044355469
 20
33.5884758301
 10
193.0253945313
 20
35.9218078613
 10
191.5374941406
 20
28.921809082
  0
LWPOLYLINE
  5
37D
100
AcDbEntity
  8
0
100
AcDbPolyline
 62
2
  6
CONTINUOUS
 90
2
 70
0
 43
0.25
 10
191.0125019531
 20
28.921809082
 10
192.0625078125
 20
28.921809082
  0
LWPOLYLINE
  5
37E
100
AcDbEntity
  8
0
100
AcDbPolyline
 62
2
  6
CONTINUOUS
 90
5
 70
0
 43
0.25
 10
195.0304453125
 20
33.0051401367
 10
194.7679492188
 20
33.0051401367
 10
194.8919355469
 20
33.5884758301
 10
195.1544316406
 20
33.5884758301
 10
195.0304453125
 20
33.0051401367
  0
LWPOLYLINE
  5
37F
100
AcDbEntity
  8
0
100
AcDbPolyline
 62
2
  6
CONTINUOUS
 90
5
 70
0
 43
0.25
 10
194.1624980469
 20
28.921809082
 10
193.9000019531
 20
28.921809082
 10
194.0239882813
 20
29.5051420898
 10
194.286484375
 20
29.5051420898
 10
194.1624980469
 20
28.921809082
  0
LWPOLYLINE
  5
380
100
AcDbEntity
  8
0
100
AcDbPolyline
 62
2
  6
CONTINUOUS
 90
3
 70
0
 43
0.25
 10
200.4044394531
 20
33.5884758301
 10
201.4253984375
 20
35.9218078613
 10
199.9374980469
 20
28.921809082
  0
LWPOLYLINE
  5
381
100
AcDbEntity
  8
0
100
AcDbPolyline
 62
2
  6
CONTINUOUS
 90
2
 70
0
 43
0.25
 10
199.4125058594
 20
28.921809082
 10
200.4624902344
 20
28.921809082
  0
LWPOLYLINE
  5
382
100
AcDbEntity
  8
0
100
AcDbPolyline
 62
2
  6
CONTINUOUS
 90
9
 70
0
 43
0.25
 10
173.8124980469
 20
29.9441484375
 10
173.677125
 20
30.7774816895
 10
174.3856582031
 20
34.1108146973
 10
174.8752871094
 20
34.9441479492
 10
175.5002890625
 20
34.9441479492
 10
175.6356621094
 20
34.1108146973
 10
174.9271289063
 20
30.7774816895
 10
174.4375
 20
29.9441484375
 10
173.8124980469
 20
29.9441484375
  0
LWPOLYLINE
  5
383
100
AcDbEntity
  8
0
100
AcDbPolyline
 62
2
  6
CONTINUOUS
 90
6
 70
0
 43
0.25
 10
176.15625
 20
29.9441484375
 10
175.9999941406
 20
29.9441484375
 10
176.0885742188
 20
30.3608164063
 10
176.2448085938
 20
30.3608164063
 10
176.15625
 20
29.9441484375
 10
175.8228769531
 20
29.1108151855
  0
LWPOLYLINE
  5
384
100
AcDbEntity
  8
0
100
AcDbPolyline
 62
2
  6
CONTINUOUS
 90
3
 70
0
 43
0.25
 10
179.9897714844
 20
33.2774814453
 10
180.6565390625
 20
34.9441479492
 10
179.59375
 20
29.9441484375
  0
LWPOLYLINE
  5
385
100
AcDbEntity
  8
0
100
AcDbPolyline
 62
2
  6
CONTINUOUS
 90
2
 70
0
 43
0.25
 10
179.2812597656
 20
29.9441484375
 10
179.9062402344
 20
29.9441484375
  0
LWPOLYLINE
  5
386
100
AcDbEntity
  8
0
100
AcDbPolyline
 62
2
  6
CONTINUOUS
 90
9
 70
0
 43
0.25
 10
182.0627773438
 20
34.9441479492
 10
183.31278125
 20
34.9441479492
 10
182.3335234375
 20
33.2774814453
 10
182.6460136719
 20
33.2774814453
 10
182.7813867188
 20
32.4441481934
 10
182.4271308594
 20
30.7774816895
 10
181.9375019531
 20
29.9441484375
 10
181.3125
 20
29.9441484375
 10
181.1771269531
 20
30.7774816895
  0
LWPOLYLINE
  5
387
100
AcDbEntity
  8
0
100
AcDbPolyline
 62
2
  6
CONTINUOUS
 90
6
 70
0
 43
0.25
 10
38.45
 20
25.787579834
 10
39.2037470703
 20
25.787579834
 10
39.5736757813
 20
26.3459130859
 10
39.6923554688
 20
26.9042463379
 10
39.5597861328
 20
27.4625795898
 10
38.8060283203
 20
27.4625795898
  0
LWPOLYLINE
  5
388
100
AcDbEntity
  8
0
100
AcDbPolyline
 62
2
  6
CONTINUOUS
 90
3
 70
0
 43
0.25
 10
38.45
 20
25.787579834
 10
39.1620673828
 20
29.1375793457
 10
39.9158144531
 20
29.1375793457
  0
LWPOLYLINE
  5
389
100
AcDbEntity
  8
0
100
AcDbPolyline
 62
2
  6
CONTINUOUS
 90
2
 70
0
 43
0.25
 10
40.9347109375
 20
28.0209128418
 10
40.9625009766
 20
25.787579834
  0
LWPOLYLINE
  5
38A
100
AcDbEntity
  8
0
100
AcDbPolyline
 62
2
  6
CONTINUOUS
 90
3
 70
0
 43
0.25
 10
40.2226435547
 20
24.6709133301
 10
40.4738925781
 20
24.6709133301
 10
41.9397070313
 20
28.0209128418
  0
LWPOLYLINE
  5
38B
100
AcDbEntity
  8
0
100
AcDbPolyline
 62
2
  6
CONTINUOUS
 90
3
 70
0
 43
0.25
 10
42.4699951172
 20
25.787579834
 10
43.4472119141
 20
28.0209128418
 10
43.4750019531
 20
25.787579834
  0
LWPOLYLINE
  5
38C
100
AcDbEntity
  8
0
100
AcDbPolyline
 62
2
  6
CONTINUOUS
 90
2
 70
0
 43
0.25
 10
44.9547060547
 20
28.0209128418
 10
44.4799980469
 20
25.787579834
  0
LWPOLYLINE
  5
38D
100
AcDbEntity
  8
0
100
AcDbPolyline
 62
2
  6
CONTINUOUS
 90
2
 70
0
 43
0.25
 10
44.5986777344
 20
26.3459130859
 10
45.9597128906
 20
28.0209128418
  0
LWPOLYLINE
  5
38E
100
AcDbEntity
  8
0
100
AcDbPolyline
 62
2
  6
CONTINUOUS
 90
2
 70
0
 43
0.25
 10
45.0942255859
 20
26.9042463379
 10
45.4850048828
 20
25.787579834
  0
LWPOLYLINE
  5
38F
100
AcDbEntity
  8
0
100
AcDbPolyline
 62
2
  6
CONTINUOUS
 90
5
 70
0
 43
0.25
 10
46.9647089844
 20
28.0209128418
 10
46.6086806641
 20
26.3459130859
 10
46.74125
 20
25.787579834
 10
46.9924990234
 20
25.787579834
 10
47.7323564453
 20
26.9042463379
  0
LWPOLYLINE
  5
390
100
AcDbEntity
  8
0
100
AcDbPolyline
 62
2
  6
CONTINUOUS
 90
2
 70
0
 43
0.25
 10
47.9697050781
 20
28.0209128418
 10
47.4949970703
 20
25.787579834
  0
LWPOLYLINE
  5
391
100
AcDbEntity
  8
0
100
AcDbPolyline
 62
2
  6
CONTINUOUS
 90
2
 70
0
 43
0.25
 10
48.5000039063
 20
25.787579834
 10
48.9747119141
 20
28.0209128418
  0
LWPOLYLINE
  5
392
100
AcDbEntity
  8
0
100
AcDbPolyline
 62
2
  6
CONTINUOUS
 90
2
 70
0
 43
0.25
 10
48.7373525391
 20
26.9042463379
 10
49.742359375
 20
26.9042463379
  0
LWPOLYLINE
  5
393
100
AcDbEntity
  8
0
100
AcDbPolyline
 62
2
  6
CONTINUOUS
 90
2
 70
0
 43
0.25
 10
49.9797080078
 20
28.0209128418
 10
49.505
 20
25.787579834
  0
LWPOLYLINE
  5
394
100
AcDbEntity
  8
0
100
AcDbPolyline
 62
2
  6
CONTINUOUS
 90
3
 70
0
 43
0.25
 10
52.5199990234
 20
25.787579834
 10
53.7345644531
 20
29.1375793457
 10
53.5249951172
 20
25.787579834
  0
LWPOLYLINE
  5
395
100
AcDbEntity
  8
0
100
AcDbPolyline
 62
2
  6
CONTINUOUS
 90
2
 70
0
 43
0.25
 10
53.0086074219
 20
26.9042463379
 10
53.5111054688
 20
26.9042463379
  0
LWPOLYLINE
  5
396
100
AcDbEntity
  8
0
100
AcDbPolyline
 62
2
  6
CONTINUOUS
 90
5
 70
0
 43
0.25
 10
54.6556210938
 20
25.787579834
 10
54.5300019531
 20
25.787579834
 10
54.5893417969
 20
26.0667451172
 10
54.7149609375
 20
26.0667451172
 10
54.6556210938
 20
25.787579834
  0
LWPOLYLINE
  5
397
100
AcDbEntity
  8
0
100
AcDbPolyline
 62
2
  6
CONTINUOUS
 90
4
 70
0
 43
0.25
 10
56.5400048828
 20
25.787579834
 10
57.2520615234
 20
29.1375793457
 10
58.2570683594
 20
29.1375793457
 10
57.5450009766
 20
25.787579834
  0
LWPOLYLINE
  5
398
100
AcDbEntity
  8
0
100
AcDbPolyline
 62
2
  6
CONTINUOUS
 90
4
 70
0
 43
0.25
 10
23.4750039063
 20
25.787579834
 10
24.1870605469
 20
29.1375793457
 10
25.1920673828
 20
29.1375793457
 10
24.48
 20
25.787579834
  0
LWPOLYLINE
  5
399
100
AcDbEntity
  8
0
100
AcDbPolyline
 62
2
  6
CONTINUOUS
 90
2
 70
0
 43
0.25
 10
25.2476474609
 20
24.6709133301
 10
25.9597148438
 20
28.0209128418
  0
LWPOLYLINE
  5
39A
100
AcDbEntity
  8
0
100
AcDbPolyline
 62
2
  6
CONTINUOUS
 90
7
 70
0
 43
0.25
 10
25.4849960938
 20
25.787579834
 10
26.2387539063
 20
25.787579834
 10
26.6086826172
 20
26.3459130859
 10
26.84603125
 20
27.4625795898
 10
26.7134619141
 20
28.0209128418
 10
26.2109638672
 20
28.0209128418
 10
25.8410351563
 20
27.4625795898
  0
LWPOLYLINE
  5
39B
100
AcDbEntity
  8
0
100
AcDbPolyline
 62
2
  6
CONTINUOUS
 90
9
 70
0
 43
0.25
 10
27.6136787109
 20
26.3459130859
 10
27.7462480469
 20
25.787579834
 10
28.2487460938
 20
25.787579834
 10
28.6186748047
 20
26.3459130859
 10
28.8560341797
 20
27.4625795898
 10
28.7234648438
 20
28.0209128418
 10
28.2209560547
 20
28.0209128418
 10
27.8510273438
 20
27.4625795898
 10
27.6136787109
 20
26.3459130859
  0
LWPOLYLINE
  5
39C
100
AcDbEntity
  8
0
100
AcDbPolyline
 62
2
  6
CONTINUOUS
 90
12
 70
0
 43
0.25
 10
29.8610302734
 20
27.4625795898
 10
30.6008876953
 20
28.5792460938
 10
30.7195673828
 20
29.1375793457
 10
30.4683183594
 20
29.1375793457
 10
30.0983896484
 20
28.5792460938
 10
29.6236816406
 20
26.3459130859
 10
29.7562509766
 20
25.787579834
 10
30.2587490234
 20
25.787579834
 10
30.6286777344
 20
26.3459130859
 10
30.8660371094
 20
27.4625795898
 10
30.7334570313
 20
28.0209128418
 10
30.2309589844
 20
28.0209128418
  0
LWPOLYLINE
  5
39D
100
AcDbEntity
  8
0
100
AcDbPolyline
 62
2
  6
CONTINUOUS
 90
5
 70
0
 43
0.25
 10
31.6406240234
 20
25.787579834
 10
31.5150048828
 20
25.787579834
 10
31.5743339844
 20
26.0667451172
 10
31.6999638672
 20
26.0667451172
 10
31.6406240234
 20
25.787579834
  0
LWPOLYLINE
  5
39E
100
AcDbEntity
  8
0
100
AcDbPolyline
 62
2
  6
CONTINUOUS
 90
3
 70
0
 43
0.25
 10
76.6602939453
 20
32.8576418457
 10
76.9670048828
 20
33.624309082
 10
76.4781279297
 20
31.324307373
  0
LWPOLYLINE
  5
39F
100
AcDbEntity
  8
0
100
AcDbPolyline
 62
2
  6
CONTINUOUS
 90
2
 70
0
 43
0.25
 10
76.3343759766
 20
31.324307373
 10
76.6218798828
 20
31.324307373
  0
LWPOLYLINE
  5
3A0
100
AcDbEntity
  8
0
100
AcDbPolyline
 62
2
  6
CONTINUOUS
 90
12
 70
0
 43
0.25
 10
78.1073955078
 20
33.2409741211
 10
78.0451337891
 20
33.624309082
 10
77.7576298828
 20
33.624309082
 10
77.5323984375
 20
33.2409741211
 10
77.2064804688
 20
31.707642334
 10
77.2687529297
 20
31.324307373
 10
77.5562460938
 20
31.324307373
 10
77.7814775391
 20
31.707642334
 10
77.9444365234
 20
32.4743095703
 10
77.8821748047
 20
32.8576418457
 10
77.5946708984
 20
32.8576418457
 10
77.3694394531
 20
32.4743095703
  0
LWPOLYLINE
  5
3A1
100
AcDbEntity
  8
0
100
AcDbPolyline
 62
2
  6
CONTINUOUS
 90
5
 70
0
 43
0.25
 10
78.3468710938
 20
31.324307373
 10
78.2749951172
 20
31.324307373
 10
78.3157402344
 20
31.5159748535
 10
78.3876162109
 20
31.5159748535
 10
78.3468710938
 20
31.324307373
  0
LWPOLYLINE
  5
3A2
100
AcDbEntity
  8
0
100
AcDbPolyline
 62
2
  6
CONTINUOUS
 90
9
 70
0
 43
0.25
 10
79.5687519531
 20
31.324307373
 10
79.8562451172
 20
31.324307373
 10
80.0814765625
 20
31.707642334
 10
80.1629560547
 20
32.0909746094
 10
80.1006943359
 20
32.4743095703
 10
79.8131904297
 20
32.4743095703
 10
79.5879589844
 20
32.0909746094
 10
79.5064794922
 20
31.707642334
 10
79.5687519531
 20
31.324307373
  0
LWPOLYLINE
  5
3A3
100
AcDbEntity
  8
0
100
AcDbPolyline
 62
2
  6
CONTINUOUS
 90
8
 70
0
 43
0.25
 10
80.1006943359
 20
32.4743095703
 10
80.3259150391
 20
32.8576418457
 10
80.4074052734
 20
33.2409741211
 10
80.3451328125
 20
33.624309082
 10
80.0576289063
 20
33.624309082
 10
79.8323974609
 20
33.2409741211
 10
79.7509179688
 20
32.8576418457
 10
79.8131904297
 20
32.4743095703
  0
LWPOLYLINE
  5
3A4
100
AcDbEntity
  8
0
100
AcDbPolyline
 62
2
  6
CONTINUOUS
 90
5
 70
0
 43
0.25
 10
80.6468701172
 20
31.324307373
 10
80.5750048828
 20
31.324307373
 10
80.6157392578
 20
31.5159748535
 10
80.6876152344
 20
31.5159748535
 10
80.6468701172
 20
31.324307373
  0
LWPOLYLINE
  5
3A5
100
AcDbEntity
  8
0
100
AcDbPolyline
 62
2
  6
CONTINUOUS
 90
9
 70
0
 43
0.25
 10
81.8687509766
 20
31.324307373
 10
81.8064785156
 20
31.707642334
 10
82.1323964844
 20
33.2409741211
 10
82.3576279297
 20
33.624309082
 10
82.6451318359
 20
33.624309082
 10
82.7074042969
 20
33.2409741211
 10
82.3814755859
 20
31.707642334
 10
82.1562548828
 20
31.324307373
 10
81.8687509766
 20
31.324307373
  0
LWPOLYLINE
  5
3A6
100
AcDbEntity
  8
0
100
AcDbPolyline
 62
2
  6
CONTINUOUS
 90
12
 70
0
 43
0.25
 10
82.9564833984
 20
31.707642334
 10
83.0187451172
 20
31.324307373
 10
83.3062490234
 20
31.324307373
 10
83.5314804688
 20
31.707642334
 10
83.8573984375
 20
33.2409741211
 10
83.7951259766
 20
33.624309082
 10
83.5076328125
 20
33.624309082
 10
83.2824013672
 20
33.2409741211
 10
83.1194423828
 20
32.4743095703
 10
83.1817148438
 20
32.0909746094
 10
83.4692080078
 20
32.0909746094
 10
83.6944394531
 20
32.4743095703
  0
LWPOLYLINE
  5
3A7
100
AcDbEntity
  8
0
100
AcDbPolyline
 62
2
  6
CONTINUOUS
 90
6
 70
0
 43
0.25
 10
38.45
 20
30.7875793457
 10
39.2037470703
 20
30.7875793457
 10
39.5736757813
 20
31.3459125977
 10
39.6923554688
 20
31.9042458496
 10
39.5597861328
 20
32.4625791016
 10
38.8060283203
 20
32.4625791016
  0
LWPOLYLINE
  5
3A8
100
AcDbEntity
  8
0
100
AcDbPolyline
 62
2
  6
CONTINUOUS
 90
3
 70
0
 43
0.25
 10
38.45
 20
30.7875793457
 10
39.1620673828
 20
34.1375788574
 10
39.9158144531
 20
34.1375788574
  0
LWPOLYLINE
  5
3A9
100
AcDbEntity
  8
0
100
AcDbPolyline
 62
2
  6
CONTINUOUS
 90
2
 70
0
 43
0.25
 10
40.9347109375
 20
33.0209123535
 10
40.9625009766
 20
30.7875793457
  0
LWPOLYLINE
  5
3AA
100
AcDbEntity
  8
0
100
AcDbPolyline
 62
2
  6
CONTINUOUS
 90
3
 70
0
 43
0.25
 10
40.2226435547
 20
29.6709128418
 10
40.4738925781
 20
29.6709128418
 10
41.9397070313
 20
33.0209123535
  0
LWPOLYLINE
  5
3AB
100
AcDbEntity
  8
0
100
AcDbPolyline
 62
2
  6
CONTINUOUS
 90
3
 70
0
 43
0.25
 10
42.4699951172
 20
30.7875793457
 10
43.4472119141
 20
33.0209123535
 10
43.4750019531
 20
30.7875793457
  0
LWPOLYLINE
  5
3AC
100
AcDbEntity
  8
0
100
AcDbPolyline
 62
2
  6
CONTINUOUS
 90
2
 70
0
 43
0.25
 10
44.9547060547
 20
33.0209123535
 10
44.4799980469
 20
30.7875793457
  0
LWPOLYLINE
  5
3AD
100
AcDbEntity
  8
0
100
AcDbPolyline
 62
2
  6
CONTINUOUS
 90
2
 70
0
 43
0.25
 10
44.5986777344
 20
31.3459125977
 10
45.9597128906
 20
33.0209123535
  0
LWPOLYLINE
  5
3AE
100
AcDbEntity
  8
0
100
AcDbPolyline
 62
2
  6
CONTINUOUS
 90
2
 70
0
 43
0.25
 10
45.0942255859
 20
31.9042458496
 10
45.4850048828
 20
30.7875793457
  0
LWPOLYLINE
  5
3AF
100
AcDbEntity
  8
0
100
AcDbPolyline
 62
2
  6
CONTINUOUS
 90
5
 70
0
 43
0.25
 10
46.9647089844
 20
33.0209123535
 10
46.6086806641
 20
31.3459125977
 10
46.74125
 20
30.7875793457
 10
46.9924990234
 20
30.7875793457
 10
47.7323564453
 20
31.9042458496
  0
LWPOLYLINE
  5
3B0
100
AcDbEntity
  8
0
100
AcDbPolyline
 62
2
  6
CONTINUOUS
 90
2
 70
0
 43
0.25
 10
47.9697050781
 20
33.0209123535
 10
47.4949970703
 20
30.7875793457
  0
LWPOLYLINE
  5
3B1
100
AcDbEntity
  8
0
100
AcDbPolyline
 62
2
  6
CONTINUOUS
 90
2
 70
0
 43
0.25
 10
48.5000039063
 20
30.7875793457
 10
48.9747119141
 20
33.0209123535
  0
LWPOLYLINE
  5
3B2
100
AcDbEntity
  8
0
100
AcDbPolyline
 62
2
  6
CONTINUOUS
 90
2
 70
0
 43
0.25
 10
48.7373525391
 20
31.9042458496
 10
49.742359375
 20
31.9042458496
  0
LWPOLYLINE
  5
3B3
100
AcDbEntity
  8
0
100
AcDbPolyline
 62
2
  6
CONTINUOUS
 90
2
 70
0
 43
0.25
 10
49.9797080078
 20
33.0209123535
 10
49.505
 20
30.7875793457
  0
LWPOLYLINE
  5
3B4
100
AcDbEntity
  8
0
100
AcDbPolyline
 62
2
  6
CONTINUOUS
 90
3
 70
0
 43
0.25
 10
52.5199990234
 20
30.7875793457
 10
53.7345644531
 20
34.1375788574
 10
53.5249951172
 20
30.7875793457
  0
LWPOLYLINE
  5
3B5
100
AcDbEntity
  8
0
100
AcDbPolyline
 62
2
  6
CONTINUOUS
 90
2
 70
0
 43
0.25
 10
53.0086074219
 20
31.9042458496
 10
53.5111054688
 20
31.9042458496
  0
LWPOLYLINE
  5
3B6
100
AcDbEntity
  8
0
100
AcDbPolyline
 62
2
  6
CONTINUOUS
 90
5
 70
0
 43
0.25
 10
54.6556210938
 20
30.7875793457
 10
54.5300019531
 20
30.7875793457
 10
54.5893417969
 20
31.0667473145
 10
54.7149609375
 20
31.0667473145
 10
54.6556210938
 20
30.7875793457
  0
LWPOLYLINE
  5
3B7
100
AcDbEntity
  8
0
100
AcDbPolyline
 62
2
  6
CONTINUOUS
 90
3
 70
0
 43
0.25
 10
56.5400048828
 20
30.7875793457
 10
57.7545595703
 20
34.1375788574
 10
57.5450009766
 20
30.7875793457
  0
LWPOLYLINE
  5
3B8
100
AcDbEntity
  8
0
100
AcDbPolyline
 62
2
  6
CONTINUOUS
 90
2
 70
0
 43
0.25
 10
57.0286025391
 20
31.9042458496
 10
57.5311005859
 20
31.9042458496
  0
LWPOLYLINE
  5
3B9
100
AcDbEntity
  8
0
100
AcDbPolyline
 62
2
  6
CONTINUOUS
 90
7
 70
0
 43
0.25
 10
21.4650009766
 20
30.7875793457
 10
22.1770683594
 20
34.1375788574
 10
22.9308154297
 20
34.1375788574
 10
23.0633847656
 20
33.5792456055
 10
22.9447050781
 20
33.0209123535
 10
22.5747871094
 20
32.4625791016
 10
21.8210292969
 20
32.4625791016
  0
LWPOLYLINE
  5
3BA
100
AcDbEntity
  8
0
100
AcDbPolyline
 62
2
  6
CONTINUOUS
 90
8
 70
0
 43
0.25
 10
24.8360283203
 20
32.4625791016
 10
24.7034589844
 20
33.0209123535
 10
24.2009609375
 20
33.0209123535
 10
23.8310322266
 20
32.4625791016
 10
23.5936728516
 20
31.3459125977
 10
23.7262529297
 20
30.7875793457
 10
24.2287509766
 20
30.7875793457
 10
24.5986796875
 20
31.3459125977
  0
LWPOLYLINE
  5
3BB
100
AcDbEntity
  8
0
100
AcDbPolyline
 62
2
  6
CONTINUOUS
 90
3
 70
0
 43
0.25
 10
24.9547080078
 20
33.0209123535
 10
24.5986796875
 20
31.3459125977
 10
24.6056298828
 20
30.7875793457
  0
LWPOLYLINE
  5
3BC
100
AcDbEntity
  8
0
100
AcDbPolyline
 62
2
  6
CONTINUOUS
 90
9
 70
0
 43
0.25
 10
25.6036757813
 20
31.3459125977
 10
25.7362451172
 20
30.7875793457
 10
26.2387539063
 20
30.7875793457
 10
26.6086826172
 20
31.3459125977
 10
26.4761025391
 20
31.9042458496
 10
26.84603125
 20
32.4625791016
 10
26.7134619141
 20
33.0209123535
 10
26.2109638672
 20
33.0209123535
 10
25.8410351563
 20
32.4625791016
  0
LWPOLYLINE
  5
3BD
100
AcDbEntity
  8
0
100
AcDbPolyline
 62
2
  6
CONTINUOUS
 90
2
 70
0
 43
0.25
 10
26.2248535156
 20
31.9042458496
 10
26.4761025391
 20
31.9042458496
  0
LWPOLYLINE
  5
3BE
100
AcDbEntity
  8
0
100
AcDbPolyline
 62
2
  6
CONTINUOUS
 90
2
 70
0
 43
0.25
 10
27.2576503906
 20
29.6709128418
 10
27.9697070313
 20
33.0209123535
  0
LWPOLYLINE
  5
3BF
100
AcDbEntity
  8
0
100
AcDbPolyline
 62
2
  6
CONTINUOUS
 90
7
 70
0
 43
0.25
 10
27.4949990234
 20
30.7875793457
 10
28.2487460938
 20
30.7875793457
 10
28.6186748047
 20
31.3459125977
 10
28.8560341797
 20
32.4625791016
 10
28.7234648438
 20
33.0209123535
 10
28.2209560547
 20
33.0209123535
 10
27.8510273438
 20
32.4625791016
  0
LWPOLYLINE
  5
3C0
100
AcDbEntity
  8
0
100
AcDbPolyline
 62
2
  6
CONTINUOUS
 90
8
 70
0
 43
0.25
 10
30.8660371094
 20
32.4625791016
 10
30.7334570313
 20
33.0209123535
 10
30.2309589844
 20
33.0209123535
 10
29.8610302734
 20
32.4625791016
 10
29.6236816406
 20
31.3459125977
 10
29.7562509766
 20
30.7875793457
 10
30.2587490234
 20
30.7875793457
 10
30.6286777344
 20
31.3459125977
  0
LWPOLYLINE
  5
3C1
100
AcDbEntity
  8
0
100
AcDbPolyline
 62
2
  6
CONTINUOUS
 90
3
 70
0
 43
0.25
 10
30.9847060547
 20
33.0209123535
 10
30.6286777344
 20
31.3459125977
 10
30.6356279297
 20
30.7875793457
  0
LWPOLYLINE
  5
3C2
100
AcDbEntity
  8
0
100
AcDbPolyline
 62
2
  6
CONTINUOUS
 90
10
 70
0
 43
0.25
 10
32.7434599609
 20
33.0209123535
 10
32.2409619141
 20
33.0209123535
 10
31.8710332031
 20
32.4625791016
 10
31.6336738281
 20
31.3459125977
 10
31.7662539063
 20
30.7875793457
 10
32.2687519531
 20
30.7875793457
 10
32.6386806641
 20
31.3459125977
 10
32.8760292969
 20
32.4625791016
 10
32.4783105469
 20
34.1375788574
 10
33.2320683594
 20
34.1375788574
  0
LWPOLYLINE
  5
3C3
100
AcDbEntity
  8
0
100
AcDbPolyline
 62
2
  6
CONTINUOUS
 90
5
 70
0
 43
0.25
 10
33.6506269531
 20
30.7875793457
 10
33.5249970703
 20
30.7875793457
 10
33.5843369141
 20
31.0667473145
 10
33.7099667969
 20
31.0667473145
 10
33.6506269531
 20
30.7875793457
  0
LWPOLYLINE
  5
3C4
100
AcDbEntity
  8
0
100
AcDbPolyline
 62
2
  6
CONTINUOUS
 90
5
 70
0
 43
0.25
 10
76.2312509766
 20
35.7875788574
 10
76.7652988281
 20
38.300079834
 10
77.3201865234
 20
39.1375783691
 10
77.6970654297
 20
39.1375783691
 10
76.9849980469
 20
35.7875788574
  0
LWPOLYLINE
  5
3C5
100
AcDbEntity
  8
0
100
AcDbPolyline
 62
2
  6
CONTINUOUS
 90
4
 70
0
 43
0.25
 10
75.9869521484
 20
35.2292456055
 10
75.9800019531
 20
35.7875788574
 10
77.2362470703
 20
35.7875788574
 10
76.9919482422
 20
35.2292456055
  0
LWPOLYLINE
  5
3C6
100
AcDbEntity
  8
0
100
AcDbPolyline
 62
2
  6
CONTINUOUS
 90
8
 70
0
 43
0.25
 10
79.3510292969
 20
37.4625786133
 10
79.2184599609
 20
38.0209118652
 10
78.7159619141
 20
38.0209118652
 10
78.3460332031
 20
37.4625786133
 10
78.1086738281
 20
36.3459121094
 10
78.2412539063
 20
35.7875788574
 10
78.7437519531
 20
35.7875788574
 10
79.1136806641
 20
36.3459121094
  0
LWPOLYLINE
  5
3C7
100
AcDbEntity
  8
0
100
AcDbPolyline
 62
2
  6
CONTINUOUS
 90
3
 70
0
 43
0.25
 10
79.4697089844
 20
38.0209118652
 10
79.1136806641
 20
36.3459121094
 10
79.1206201172
 20
35.7875788574
  0
LWPOLYLINE
  5
3C8
100
AcDbEntity
  8
0
100
AcDbPolyline
 62
2
  6
CONTINUOUS
 90
2
 70
0
 43
0.25
 10
79.9999970703
 20
35.7875788574
 10
80.4747050781
 20
38.0209118652
  0
LWPOLYLINE
  5
3C9
100
AcDbEntity
  8
0
100
AcDbPolyline
 62
2
  6
CONTINUOUS
 90
4
 70
0
 43
0.25
 10
80.3560361328
 20
37.4625786133
 10
80.7259648438
 20
38.0209118652
 10
80.8585341797
 20
37.4625786133
 10
80.5024951172
 20
35.7875788574
  0
LWPOLYLINE
  5
3CA
100
AcDbEntity
  8
0
100
AcDbPolyline
 62
2
  6
CONTINUOUS
 90
4
 70
0
 43
0.25
 10
80.8585341797
 20
37.4625786133
 10
81.2284628906
 20
38.0209118652
 10
81.3610322266
 20
37.4625786133
 10
81.0050039063
 20
35.7875788574
  0
LWPOLYLINE
  5
3CB
100
AcDbEntity
  8
0
100
AcDbPolyline
 62
2
  6
CONTINUOUS
 90
8
 70
0
 43
0.25
 10
83.3710351563
 20
37.4625786133
 10
83.2384550781
 20
38.0209118652
 10
82.7359570313
 20
38.0209118652
 10
82.3660283203
 20
37.4625786133
 10
82.1286796875
 20
36.3459121094
 10
82.2612490234
 20
35.7875788574
 10
82.7637470703
 20
35.7875788574
 10
83.1336757813
 20
36.3459121094
  0
LWPOLYLINE
  5
3CC
100
AcDbEntity
  8
0
100
AcDbPolyline
 62
2
  6
CONTINUOUS
 90
3
 70
0
 43
0.25
 10
83.4897148438
 20
38.0209118652
 10
83.1336757813
 20
36.3459121094
 10
83.1406259766
 20
35.7875788574
  0
LWPOLYLINE
  5
3CD
100
AcDbEntity
  8
0
100
AcDbPolyline
 62
2
  6
CONTINUOUS
 90
4
 70
0
 43
0.25
 10
62.4749990234
 20
35.7875788574
 10
63.1870664063
 20
39.1375783691
 10
64.1920625
 20
39.1375783691
 10
63.4799951172
 20
35.7875788574
  0
LWPOLYLINE
  5
3CE
100
AcDbEntity
  8
0
100
AcDbPolyline
 62
2
  6
CONTINUOUS
 90
9
 70
0
 43
0.25
 10
64.6036816406
 20
36.3459121094
 10
64.7362509766
 20
35.7875788574
 10
65.2387490234
 20
35.7875788574
 10
65.6086777344
 20
36.3459121094
 10
65.8460371094
 20
37.4625786133
 10
65.7134570313
 20
38.0209118652
 10
65.2109589844
 20
38.0209118652
 10
64.8410302734
 20
37.4625786133
 10
64.6036816406
 20
36.3459121094
  0
LWPOLYLINE
  5
3CF
100
AcDbEntity
  8
0
100
AcDbPolyline
 62
2
  6
CONTINUOUS
 90
11
 70
0
 43
0.25
 10
67.8560292969
 20
37.4625786133
 10
67.7234599609
 20
38.0209118652
 10
67.2209619141
 20
38.0209118652
 10
66.8510332031
 20
37.4625786133
 10
66.6136738281
 20
36.3459121094
 10
66.7462539063
 20
35.7875788574
 10
67.2487519531
 20
35.7875788574
 10
67.6186806641
 20
36.3459121094
 10
68.0933886719
 20
38.5792451172
 10
67.9608193359
 20
39.1375783691
 10
67.4583105469
 20
39.1375783691
  0
LWPOLYLINE
  5
3D0
100
AcDbEntity
  8
0
100
AcDbPolyline
 62
2
  6
CONTINUOUS
 90
2
 70
0
 43
0.25
 10
68.5049970703
 20
35.7875788574
 10
68.9797050781
 20
38.0209118652
  0
LWPOLYLINE
  5
3D1
100
AcDbEntity
  8
0
100
AcDbPolyline
 62
2
  6
CONTINUOUS
 90
5
 70
0
 43
0.25
 10
68.8610361328
 20
37.4625786133
 10
69.2309648438
 20
38.0209118652
 10
69.7334628906
 20
38.0209118652
 10
69.8660322266
 20
37.4625786133
 10
69.5100039063
 20
35.7875788574
  0
LWPOLYLINE
  5
3D2
100
AcDbEntity
  8
0
100
AcDbPolyline
 62
2
  6
CONTINUOUS
 90
5
 70
0
 43
0.25
 10
70.6406298828
 20
35.7875788574
 10
70.515
 20
35.7875788574
 10
70.5743398438
 20
36.0667468262
 10
70.6999589844
 20
36.0667468262
 10
70.6406298828
 20
35.7875788574
  0
LWPOLYLINE
  5
3D3
100
AcDbEntity
  8
0
100
AcDbPolyline
 62
2
  6
CONTINUOUS
 90
4
 70
0
 43
0.25
 10
40.4600029297
 20
35.7875788574
 10
41.1720595703
 20
39.1375783691
 10
41.4649990234
 20
35.7875788574
 10
42.1770664063
 20
39.1375783691
  0
LWPOLYLINE
  5
3D4
100
AcDbEntity
  8
0
100
AcDbPolyline
 62
2
  6
CONTINUOUS
 90
11
 70
0
 43
0.25
 10
45.8410332031
 20
37.4625786133
 10
45.7084638672
 20
38.0209118652
 10
45.2059550781
 20
38.0209118652
 10
44.8360371094
 20
37.4625786133
 10
44.5986777344
 20
36.3459121094
 10
44.7312470703
 20
35.7875788574
 10
45.2337451172
 20
35.7875788574
 10
45.6036738281
 20
36.3459121094
 10
46.0783818359
 20
38.5792451172
 10
45.9458125
 20
39.1375783691
 10
45.4433144531
 20
39.1375783691
  0
LWPOLYLINE
  5
3D5
100
AcDbEntity
  8
0
100
AcDbPolyline
 62
2
  6
CONTINUOUS
 90
9
 70
0
 43
0.25
 10
46.6086806641
 20
36.3459121094
 10
46.74125
 20
35.7875788574
 10
47.2437480469
 20
35.7875788574
 10
47.6136767578
 20
36.3459121094
 10
47.8510361328
 20
37.4625786133
 10
47.7184560547
 20
38.0209118652
 10
47.2159580078
 20
38.0209118652
 10
46.8460292969
 20
37.4625786133
 10
46.6086806641
 20
36.3459121094
  0
LWPOLYLINE
  5
3D6
100
AcDbEntity
  8
0
100
AcDbPolyline
 62
2
  6
CONTINUOUS
 90
2
 70
0
 43
0.25
 10
48.9747119141
 20
38.0209118652
 10
48.5000039063
 20
35.7875788574
  0
LWPOLYLINE
  5
3D7
100
AcDbEntity
  8
0
100
AcDbPolyline
 62
2
  6
CONTINUOUS
 90
2
 70
0
 43
0.25
 10
48.6186728516
 20
36.3459121094
 10
49.9797080078
 20
38.0209118652
  0
LWPOLYLINE
  5
3D8
100
AcDbEntity
  8
0
100
AcDbPolyline
 62
2
  6
CONTINUOUS
 90
2
 70
0
 43
0.25
 10
49.1142314453
 20
36.9042453613
 10
49.505
 20
35.7875788574
  0
LWPOLYLINE
  5
3D9
100
AcDbEntity
  8
0
100
AcDbPolyline
 62
2
  6
CONTINUOUS
 90
2
 70
0
 43
0.25
 10
50.9847148438
 20
38.0209118652
 10
51.0125048828
 20
35.7875788574
  0
LWPOLYLINE
  5
3DA
100
AcDbEntity
  8
0
100
AcDbPolyline
 62
2
  6
CONTINUOUS
 90
3
 70
0
 43
0.25
 10
50.2726474609
 20
34.6709123535
 10
50.5238964844
 20
34.6709123535
 10
51.9897109375
 20
38.0209118652
  0
LWPOLYLINE
  5
3DB
100
AcDbEntity
  8
0
100
AcDbPolyline
 62
2
  6
CONTINUOUS
 90
5
 70
0
 43
0.25
 10
52.5199990234
 20
35.7875788574
 10
52.9947070313
 20
38.0209118652
 10
53.2598564453
 20
36.9042453613
 10
53.9997138672
 20
38.0209118652
 10
53.5249951172
 20
35.7875788574
  0
LWPOLYLINE
  5
3DC
100
AcDbEntity
  8
0
100
AcDbPolyline
 62
2
  6
CONTINUOUS
 90
5
 70
0
 43
0.25
 10
54.6556210938
 20
35.7875788574
 10
54.5300019531
 20
35.7875788574
 10
54.5893417969
 20
36.0667468262
 10
54.7149609375
 20
36.0667468262
 10
54.6556210938
 20
35.7875788574
  0
LWPOLYLINE
  5
3DD
100
AcDbEntity
  8
0
100
AcDbPolyline
 62
2
  6
CONTINUOUS
 90
3
 70
0
 43
0.25
 10
27.9799980469
 20
35.7875788574
 10
29.1945634766
 20
39.1375783691
 10
28.9850048828
 20
35.7875788574
  0
LWPOLYLINE
  5
3DE
100
AcDbEntity
  8
0
100
AcDbPolyline
 62
2
  6
CONTINUOUS
 90
5
 70
0
 43
0.25
 10
30.4647089844
 20
38.0209118652
 10
30.1086806641
 20
36.3459121094
 10
30.24125
 20
35.7875788574
 10
30.4924990234
 20
35.7875788574
 10
31.2323564453
 20
36.9042453613
  0
LWPOLYLINE
  5
3DF
100
AcDbEntity
  8
0
100
AcDbPolyline
 62
2
  6
CONTINUOUS
 90
2
 70
0
 43
0.25
 10
31.4697050781
 20
38.0209118652
 10
30.9949970703
 20
35.7875788574
  0
LWPOLYLINE
  5
3E0
100
AcDbEntity
  8
0
100
AcDbPolyline
 62
2
  6
CONTINUOUS
 90
8
 70
0
 43
0.25
 10
33.3610283203
 20
37.4625786133
 10
33.2284589844
 20
38.0209118652
 10
32.7259609375
 20
38.0209118652
 10
32.3560322266
 20
37.4625786133
 10
32.1186728516
 20
36.3459121094
 10
32.2512529297
 20
35.7875788574
 10
32.7537509766
 20
35.7875788574
 10
33.1236796875
 20
36.3459121094
  0
LWPOLYLINE
  5
3E1
100
AcDbEntity
  8
0
100
AcDbPolyline
 62
2
  6
CONTINUOUS
 90
2
 70
0
 43
0.25
 10
34.0099960938
 20
35.7875788574
 10
34.4847148438
 20
38.0209118652
  0
LWPOLYLINE
  5
3E2
100
AcDbEntity
  8
0
100
AcDbPolyline
 62
2
  6
CONTINUOUS
 90
4
 70
0
 43
0.25
 10
34.3660351563
 20
37.4625786133
 10
34.7359638672
 20
38.0209118652
 10
34.8685332031
 20
37.4625786133
 10
34.5125048828
 20
35.7875788574
  0
LWPOLYLINE
  5
3E3
100
AcDbEntity
  8
0
100
AcDbPolyline
 62
2
  6
CONTINUOUS
 90
4
 70
0
 43
0.25
 10
34.8685332031
 20
37.4625786133
 10
35.2384619141
 20
38.0209118652
 10
35.37103125
 20
37.4625786133
 10
35.0150029297
 20
35.7875788574
  0
LWPOLYLINE
  5
3E4
100
AcDbEntity
  8
0
100
AcDbPolyline
 62
2
  6
CONTINUOUS
 90
4
 70
0
 43
0.25
 10
21.1970693359
 20
39.1375783691
 10
20.4850019531
 20
35.7875788574
 10
22.2020654297
 20
39.1375783691
 10
21.4899980469
 20
35.7875788574
  0
LWPOLYLINE
  5
3E5
100
AcDbEntity
  8
0
100
AcDbPolyline
 62
2
  6
CONTINUOUS
 90
9
 70
0
 43
0.25
 10
22.6136738281
 20
36.3459121094
 10
22.7462539063
 20
35.7875788574
 10
23.2487519531
 20
35.7875788574
 10
23.6186806641
 20
36.3459121094
 10
23.4861005859
 20
36.9042453613
 10
23.8560292969
 20
37.4625786133
 10
23.7234599609
 20
38.0209118652
 10
23.2209619141
 20
38.0209118652
 10
22.8510332031
 20
37.4625786133
  0
LWPOLYLINE
  5
3E6
100
AcDbEntity
  8
0
100
AcDbPolyline
 62
2
  6
CONTINUOUS
 90
2
 70
0
 43
0.25
 10
23.2348515625
 20
36.9042453613
 10
23.4861005859
 20
36.9042453613
  0
LWPOLYLINE
  5
3E7
100
AcDbEntity
  8
0
100
AcDbPolyline
 62
2
  6
CONTINUOUS
 90
5
 70
0
 43
0.25
 10
24.5049970703
 20
35.7875788574
 10
24.9797050781
 20
38.0209118652
 10
25.2448544922
 20
36.9042453613
 10
25.9847119141
 20
38.0209118652
 10
25.5100039063
 20
35.7875788574
  0
LWPOLYLINE
  5
3E8
100
AcDbEntity
  8
0
100
AcDbPolyline
 62
2
  6
CONTINUOUS
 90
5
 70
0
 43
0.25
 10
188.9649980469
 20
40.7875783691
 10
189.6770546875
 20
44.1375805664
 10
189.7048554688
 20
41.904244873
 10
190.6820722656
 20
44.1375805664
 10
189.9699941406
 20
40.7875783691
  0
LWPOLYLINE
  5
3E9
100
AcDbEntity
  8
0
100
AcDbPolyline
 62
2
  6
CONTINUOUS
 90
8
 70
0
 43
0.25
 10
192.3360253906
 20
42.4625808105
 10
192.2034667969
 20
43.0209140625
 10
191.70096875
 20
43.0209140625
 10
191.3310292969
 20
42.4625808105
 10
191.0936699219
 20
41.3459116211
 10
191.22625
 20
40.7875783691
 10
191.7287480469
 20
40.7875783691
 10
192.0986875
 20
41.3459116211
  0
LWPOLYLINE
  5
3EA
100
AcDbEntity
  8
0
100
AcDbPolyline
 62
2
  6
CONTINUOUS
 90
3
 70
0
 43
0.25
 10
192.4547050781
 20
43.0209140625
 10
192.0986875
 20
41.3459116211
 10
192.1056269531
 20
40.7875783691
  0
LWPOLYLINE
  5
3EB
100
AcDbEntity
  8
0
100
AcDbPolyline
 62
2
  6
CONTINUOUS
 90
8
 70
0
 43
0.25
 10
194.3460390625
 20
42.4625808105
 10
194.2134589844
 20
43.0209140625
 10
193.7109609375
 20
43.0209140625
 10
193.3410429688
 20
42.4625808105
 10
193.1036835938
 20
41.3459116211
 10
193.2362421875
 20
40.7875783691
 10
193.7387402344
 20
40.7875783691
 10
194.1086796875
 20
41.3459116211
  0
LWPOLYLINE
  5
3EC
100
AcDbEntity
  8
0
100
AcDbPolyline
 62
2
  6
CONTINUOUS
 90
7
 70
0
 43
0.25
 10
195.4697148438
 20
43.0209140625
 10
195.1136757813
 20
41.3459116211
 10
195.2462558594
 20
40.7875783691
 10
195.6161738281
 20
41.3459116211
 10
195.7487539063
 20
40.7875783691
 10
196.118671875
 20
41.3459116211
 10
196.4747109375
 20
43.0209140625
  0
LWPOLYLINE
  5
3ED
100
AcDbEntity
  8
0
100
AcDbPolyline
 62
2
  6
CONTINUOUS
 90
2
 70
0
 43
0.25
 10
195.9722128906
 20
43.0209140625
 10
195.6161738281
 20
41.3459116211
  0
LWPOLYLINE
  5
3EE
100
AcDbEntity
  8
0
100
AcDbPolyline
 62
2
  6
CONTINUOUS
 90
2
 70
0
 43
0.25
 10
196.118671875
 20
41.3459116211
 10
196.1256328125
 20
40.7875783691
  0
LWPOLYLINE
  5
3EF
100
AcDbEntity
  8
0
100
AcDbPolyline
 62
2
  6
CONTINUOUS
 90
2
 70
0
 43
0.25
 10
197.0050097656
 20
40.7875783691
 10
197.4797070313
 20
43.0209140625
  0
LWPOLYLINE
  5
3F0
100
AcDbEntity
  8
0
100
AcDbPolyline
 62
2
  6
CONTINUOUS
 90
4
 70
0
 43
0.25
 10
197.3610273438
 20
42.4625808105
 10
197.7309667969
 20
43.0209140625
 10
197.8635253906
 20
42.4625808105
 10
197.5075078125
 20
40.7875783691
  0
LWPOLYLINE
  5
3F1
100
AcDbEntity
  8
0
100
AcDbPolyline
 62
2
  6
CONTINUOUS
 90
4
 70
0
 43
0.25
 10
197.8635253906
 20
42.4625808105
 10
198.2334648438
 20
43.0209140625
 10
198.3660234375
 20
42.4625808105
 10
198.0100058594
 20
40.7875783691
  0
LWPOLYLINE
  5
3F2
100
AcDbEntity
  8
0
100
AcDbPolyline
 62
2
  6
CONTINUOUS
 90
8
 70
0
 43
0.25
 10
200.3760371094
 20
42.4625808105
 10
200.2434570313
 20
43.0209140625
 10
199.7409589844
 20
43.0209140625
 10
199.3710410156
 20
42.4625808105
 10
199.1336816406
 20
41.3459116211
 10
199.2662402344
 20
40.7875783691
 10
199.7687597656
 20
40.7875783691
 10
200.1386777344
 20
41.3459116211
  0
LWPOLYLINE
  5
3F3
100
AcDbEntity
  8
0
100
AcDbPolyline
 62
2
  6
CONTINUOUS
 90
3
 70
0
 43
0.25
 10
200.4947167969
 20
43.0209140625
 10
200.1386777344
 20
41.3459116211
 10
200.1456171875
 20
40.7875783691
  0
LWPOLYLINE
  5
3F4
100
AcDbEntity
  8
0
100
AcDbPolyline
 62
2
  6
CONTINUOUS
 90
10
 70
0
 43
0.25
 10
202.2534492188
 20
43.0209140625
 10
201.7509511719
 20
43.0209140625
 10
201.3810332031
 20
42.4625808105
 10
201.1436738281
 20
41.3459116211
 10
201.2762539063
 20
40.7875783691
 10
201.7787519531
 20
40.7875783691
 10
202.1486699219
 20
41.3459116211
 10
202.3860292969
 20
42.4625808105
 10
201.9883105469
 20
44.1375805664
 10
202.7420683594
 20
44.1375805664
  0
LWPOLYLINE
  5
3F5
100
AcDbEntity
  8
0
100
AcDbPolyline
 62
2
  6
CONTINUOUS
 90
5
 70
0
 43
0.25
 10
173.475
 20
40.7875783691
 10
174.1870566406
 20
44.1375805664
 10
174.2148574219
 20
41.904244873
 10
175.1920742188
 20
44.1375805664
 10
174.4799960938
 20
40.7875783691
  0
LWPOLYLINE
  5
3F6
100
AcDbEntity
  8
0
100
AcDbPolyline
 62
2
  6
CONTINUOUS
 90
8
 70
0
 43
0.25
 10
176.8460273438
 20
42.4625808105
 10
176.71346875
 20
43.0209140625
 10
176.2109492188
 20
43.0209140625
 10
175.84103125
 20
42.4625808105
 10
175.603671875
 20
41.3459116211
 10
175.7362519531
 20
40.7875783691
 10
176.23875
 20
40.7875783691
 10
176.6086679688
 20
41.3459116211
  0
LWPOLYLINE
  5
3F7
100
AcDbEntity
  8
0
100
AcDbPolyline
 62
2
  6
CONTINUOUS
 90
3
 70
0
 43
0.25
 10
176.9647070313
 20
43.0209140625
 10
176.6086679688
 20
41.3459116211
 10
176.6156289063
 20
40.7875783691
  0
LWPOLYLINE
  5
3F8
100
AcDbEntity
  8
0
100
AcDbPolyline
 62
2
  6
CONTINUOUS
 90
8
 70
0
 43
0.25
 10
178.8560410156
 20
42.4625808105
 10
178.7234609375
 20
43.0209140625
 10
178.2209628906
 20
43.0209140625
 10
177.8510234375
 20
42.4625808105
 10
177.6136855469
 20
41.3459116211
 10
177.7462441406
 20
40.7875783691
 10
178.2487421875
 20
40.7875783691
 10
178.6186816406
 20
41.3459116211
  0
LWPOLYLINE
  5
3F9
100
AcDbEntity
  8
0
100
AcDbPolyline
 62
2
  6
CONTINUOUS
 90
8
 70
0
 43
0.25
 10
180.8660332031
 20
42.4625808105
 10
180.733453125
 20
43.0209140625
 10
180.2309550781
 20
43.0209140625
 10
179.8610371094
 20
42.4625808105
 10
179.6236777344
 20
41.3459116211
 10
179.7562578125
 20
40.7875783691
 10
180.2587558594
 20
40.7875783691
 10
180.6286738281
 20
41.3459116211
  0
LWPOLYLINE
  5
3FA
100
AcDbEntity
  8
0
100
AcDbPolyline
 62
2
  6
CONTINUOUS
 90
8
 70
0
 43
0.25
 10
182.8760253906
 20
42.4625808105
 10
182.7434667969
 20
43.0209140625
 10
182.24096875
 20
43.0209140625
 10
181.8710292969
 20
42.4625808105
 10
181.6336699219
 20
41.3459116211
 10
181.76625
 20
40.7875783691
 10
182.2687480469
 20
40.7875783691
 10
182.6386875
 20
41.3459116211
  0
LWPOLYLINE
  5
3FB
100
AcDbEntity
  8
0
100
AcDbPolyline
 62
2
  6
CONTINUOUS
 90
3
 70
0
 43
0.25
 10
182.9947050781
 20
43.0209140625
 10
182.6386875
 20
41.3459116211
 10
182.6456269531
 20
40.7875783691
  0
LWPOLYLINE
  5
3FC
100
AcDbEntity
  8
0
100
AcDbPolyline
 62
2
  6
CONTINUOUS
 90
3
 70
0
 43
0.25
 10
158.4800019531
 20
40.7875783691
 10
159.6945566406
 20
44.1375805664
 10
159.4849980469
 20
40.7875783691
  0
LWPOLYLINE
  5
3FD
100
AcDbEntity
  8
0
100
AcDbPolyline
 62
2
  6
CONTINUOUS
 90
5
 70
0
 43
0.25
 10
160.9647128906
 20
43.0209140625
 10
160.6086738281
 20
41.3459116211
 10
160.7412539063
 20
40.7875783691
 10
160.9924921875
 20
40.7875783691
 10
161.7323496094
 20
41.904244873
  0
LWPOLYLINE
  5
3FE
100
AcDbEntity
  8
0
100
AcDbPolyline
 62
2
  6
CONTINUOUS
 90
2
 70
0
 43
0.25
 10
161.9697089844
 20
43.0209140625
 10
161.4949902344
 20
40.7875783691
  0
LWPOLYLINE
  5
3FF
100
AcDbEntity
  8
0
100
AcDbPolyline
 62
2
  6
CONTINUOUS
 90
2
 70
0
 43
0.25
 10
162.5000078125
 20
40.7875783691
 10
162.9747050781
 20
43.0209140625
  0
LWPOLYLINE
  5
400
100
AcDbEntity
  8
0
100
AcDbPolyline
 62
2
  6
CONTINUOUS
 90
4
 70
0
 43
0.25
 10
162.8560253906
 20
42.4625808105
 10
163.2259648438
 20
43.0209140625
 10
163.3585234375
 20
42.4625808105
 10
163.0025058594
 20
40.7875783691
  0
LWPOLYLINE
  5
401
100
AcDbEntity
  8
0
100
AcDbPolyline
 62
2
  6
CONTINUOUS
 90
4
 70
0
 43
0.25
 10
163.3585234375
 20
42.4625808105
 10
163.7284628906
 20
43.0209140625
 10
163.8610429688
 20
42.4625808105
 10
163.5050039063
 20
40.7875783691
  0
LWPOLYLINE
  5
402
100
AcDbEntity
  8
0
100
AcDbPolyline
 62
2
  6
CONTINUOUS
 90
5
 70
0
 43
0.25
 10
164.6356191406
 20
40.7875783691
 10
164.51
 20
40.7875783691
 10
164.5693398438
 20
41.0667463379
 10
164.6949589844
 20
41.0667463379
 10
164.6356191406
 20
40.7875783691
  0
LWPOLYLINE
  5
403
100
AcDbEntity
  8
0
100
AcDbPolyline
 62
2
  6
CONTINUOUS
 90
4
 70
0
 43
0.25
 10
105.900453125
 20
56.410637207
 10
104.1999970703
 20
48.4106401367
 10
108.3004511719
 20
56.410637207
 10
106.5999951172
 20
48.4106401367
  0
LWPOLYLINE
  5
404
100
AcDbEntity
  8
0
100
AcDbPolyline
 62
2
  6
CONTINUOUS
 90
6
 70
0
 43
0.25
 10
109.0000039063
 20
48.4106401367
 10
110.8000078125
 20
48.4106401367
 10
111.6834023438
 20
49.7439711914
 10
111.9668242188
 20
51.0773022461
 10
111.6502304688
 20
52.4106386719
 10
109.8502265625
 20
52.4106386719
  0
LWPOLYLINE
  5
405
100
AcDbEntity
  8
0
100
AcDbPolyline
 62
2
  6
CONTINUOUS
 90
3
 70
0
 43
0.25
 10
109.0000039063
 20
48.4106401367
 10
110.7004492188
 20
56.410637207
 10
112.500453125
 20
56.410637207
  0
LWPOLYLINE
  5
406
100
AcDbEntity
  8
0
100
AcDbPolyline
 62
2
  6
CONTINUOUS
 90
7
 70
0
 43
0.25
 10
113.8
 20
48.4106401367
 10
115.5004453125
 20
56.410637207
 10
117.3004492188
 20
56.410637207
 10
117.6170429688
 20
55.0773061523
 10
117.3336425781
 20
53.7439697266
 10
116.4502265625
 20
52.4106386719
 10
114.6502226563
 20
52.4106386719
  0
LWPOLYLINE
  5
407
100
AcDbEntity
  8
0
100
AcDbPolyline
 62
2
  6
CONTINUOUS
 90
10
 70
0
 43
0.25
 10
120.0170410156
 20
55.0773061523
 10
120.9004570313
 20
56.410637207
 10
122.1004453125
 20
56.410637207
 10
122.4170390625
 20
55.0773061523
 10
121.8502167969
 20
52.4106386719
 10
120.9668222656
 20
51.0773022461
 10
119.7668125
 20
51.0773022461
 10
118.8834179688
 20
49.7439711914
 10
118.5999960938
 20
48.4106401367
 10
120.9999941406
 20
48.4106401367
  0
LWPOLYLINE
  5
408
100
AcDbEntity
  8
0
100
AcDbPolyline
 62
2
  6
CONTINUOUS
 90
5
 70
0
 43
0.25
 10
123.7
 20
48.4106401367
 10
123.3999921875
 20
48.4106401367
 10
123.541703125
 20
49.0773056641
 10
123.8417109375
 20
49.0773056641
 10
123.7
 20
48.4106401367
  0
LWPOLYLINE
  5
409
100
AcDbEntity
  8
0
100
AcDbPolyline
 62
2
  6
CONTINUOUS
 90
4
 70
0
 43
0.25
 10
128.8000039063
 20
48.4106401367
 10
132.300453125
 20
56.410637207
 10
129.9004550781
 20
56.410637207
 10
129.6170332031
 20
55.0773061523
  0
LWPOLYLINE
  5
40A
100
AcDbEntity
  8
0
100
AcDbPolyline
 62
2
  6
CONTINUOUS
 90
6
 70
0
 43
0.25
 10
133.0000058594
 20
48.4106401367
 10
134.8000097656
 20
48.4106401367
 10
135.6834042969
 20
49.7439711914
 10
135.9668261719
 20
51.0773022461
 10
135.6502324219
 20
52.4106386719
 10
133.8502285156
 20
52.4106386719
  0
LWPOLYLINE
  5
40B
100
AcDbEntity
  8
0
100
AcDbPolyline
 62
2
  6
CONTINUOUS
 90
3
 70
0
 43
0.25
 10
133.0000058594
 20
48.4106401367
 10
134.7004511719
 20
56.410637207
 10
136.5004550781
 20
56.410637207
  0
LWPOLYLINE
  5
40C
100
AcDbEntity
  8
0
100
AcDbPolyline
 62
2
  6
CONTINUOUS
 90
5
 70
0
 43
0.25
 10
138.1000097656
 20
48.4106401367
 10
137.8000019531
 20
48.4106401367
 10
137.9417128906
 20
49.0773056641
 10
138.2416992188
 20
49.0773056641
 10
138.1000097656
 20
48.4106401367
  0
LWPOLYLINE
  5
40D
100
AcDbEntity
  8
0
100
AcDbPolyline
 62
2
  6
CONTINUOUS
 90
9
 70
0
 43
0.25
 10
143.1999921875
 20
48.4106401367
 10
142.8833984375
 20
49.7439711914
 10
144.0170429688
 20
55.0773061523
 10
144.9004589844
 20
56.410637207
 10
146.1004472656
 20
56.410637207
 10
146.4170410156
 20
55.0773061523
 10
145.2834179688
 20
49.7439711914
 10
144.4000019531
 20
48.4106401367
 10
143.1999921875
 20
48.4106401367
  0
LWPOLYLINE
  5
40E
100
AcDbEntity
  8
0
100
AcDbPolyline
 62
2
  6
CONTINUOUS
 90
3
 70
0
 43
0.25
 10
150.0336347656
 20
53.7439697266
 10
151.2004511719
 20
56.410637207
 10
149.5000058594
 20
48.4106401367
  0
LWPOLYLINE
  5
40F
100
AcDbEntity
  8
0
100
AcDbPolyline
 62
2
  6
CONTINUOUS
 90
2
 70
0
 43
0.25
 10
148.8999902344
 20
48.4106401367
 10
150.1
 20
48.4106401367
  0
LWPOLYLINE
  5
410
100
AcDbEntity
  8
0
100
AcDbPolyline
 62
2
  6
CONTINUOUS
 90
5
 70
0
 43
0.25
 10
152.4999980469
 20
48.4106401367
 10
152.1999902344
 20
48.4106401367
 10
152.3417011719
 20
49.0773056641
 10
152.6417089844
 20
49.0773056641
 10
152.4999980469
 20
48.4106401367
  0
LWPOLYLINE
  5
411
100
AcDbEntity
  8
0
100
AcDbPolyline
 62
2
  6
CONTINUOUS
 90
3
 70
0
 43
0.25
 10
159.6336269531
 20
53.7439697266
 10
160.8004433594
 20
56.410637207
 10
159.0999980469
 20
48.4106401367
  0
LWPOLYLINE
  5
412
100
AcDbEntity
  8
0
100
AcDbPolyline
 62
2
  6
CONTINUOUS
 90
2
 70
0
 43
0.25
 10
158.5000039063
 20
48.4106401367
 10
159.6999921875
 20
48.4106401367
  0
LWPOLYLINE
  5
413
100
AcDbEntity
  8
0
100
AcDbPolyline
 62
2
  6
CONTINUOUS
 90
9
 70
0
 43
0.25
 10
162.3999980469
 20
48.4106401367
 10
162.0834042969
 20
49.7439711914
 10
163.2170488281
 20
55.0773061523
 10
164.1004433594
 20
56.410637207
 10
165.300453125
 20
56.410637207
 10
165.617046875
 20
55.0773061523
 10
164.4834023438
 20
49.7439711914
 10
163.6000078125
 20
48.4106401367
 10
162.3999980469
 20
48.4106401367
  0
LWPOLYLINE
  5
414
100
AcDbEntity
  8
0
100
AcDbPolyline
 62
2
  6
CONTINUOUS
 90
3
 70
0
 43
0.25
 10
169.233640625
 20
53.7439697266
 10
170.4004570313
 20
56.410637207
 10
168.6999902344
 20
48.4106401367
  0
LWPOLYLINE
  5
415
100
AcDbEntity
  8
0
100
AcDbPolyline
 62
2
  6
CONTINUOUS
 90
2
 70
0
 43
0.25
 10
168.0999960938
 20
48.4106401367
 10
169.3000058594
 20
48.4106401367
  0
LWPOLYLINE
  5
416
100
AcDbEntity
  8
0
100
AcDbPolyline
 62
2
  6
CONTINUOUS
 90
5
 70
0
 43
0.25
 10
171.7000039063
 20
48.4106401367
 10
171.3999960938
 20
48.4106401367
 10
171.5417070313
 20
49.0773056641
 10
171.8417148438
 20
49.0773056641
 10
171.7000039063
 20
48.4106401367
  0
LWPOLYLINE
  5
417
100
AcDbEntity
  8
0
100
AcDbPolyline
 62
2
  6
CONTINUOUS
 90
9
 70
0
 43
0.25
 10
176.8000078125
 20
48.4106401367
 10
176.4834140625
 20
49.7439711914
 10
177.6170371094
 20
55.0773061523
 10
178.500453125
 20
56.410637207
 10
179.7004628906
 20
56.410637207
 10
180.0170351563
 20
55.0773061523
 10
178.8834121094
 20
49.7439711914
 10
177.9999960938
 20
48.4106401367
 10
176.8000078125
 20
48.4106401367
  0
LWPOLYLINE
  5
418
100
AcDbEntity
  8
0
100
AcDbPolyline
 62
2
  6
CONTINUOUS
 90
9
 70
0
 43
0.25
 10
182.7004550781
 20
56.410637207
 10
185.100453125
 20
56.410637207
 10
183.3336425781
 20
53.7439697266
 10
183.9336367188
 20
53.7439697266
 10
184.2502304688
 20
52.4106386719
 10
183.6834082031
 20
49.7439711914
 10
182.7999921875
 20
48.4106401367
 10
181.6000039063
 20
48.4106401367
 10
181.2834101563
 20
49.7439711914
  0
INSERT
  5
419
100
AcDbEntity
  8
ALL_SURF_FIN
100
AcDbBlockReference
 62
2
  6
CONTINUOUS
  2
SYM_2_BL0
 10
183.2064515523
 20
279.1398706735
  0
LINE
  5
41A
100
AcDbEntity
  8
0
100
AcDbLine
 62
7
  6
CONTINUOUS
 10
-0.0
 20
0.0
 11
210.0
 21
0.0
  0
LINE
  5
41B
100
AcDbEntity
  8
0
100
AcDbLine
 62
7
  6
CONTINUOUS
 10
205.0
 20
5.0
 11
20.0
 21
5.0
  0
LINE
  5
41C
100
AcDbEntity
  8
0
100
AcDbLine
 62
7
  6
CONTINUOUS
 10
-0.0
 20
297.0
 11
-0.0
 21
0.0
  0
LINE
  5
41D
100
AcDbEntity
  8
0
100
AcDbLine
 62
7
  6
CONTINUOUS
 10
20.0
 20
5.0
 11
20.0
 21
292.3498994289
  0
LWPOLYLINE
  5
41E
100
AcDbEntity
  8
0
100
AcDbPolyline
 62
2
  6
CONTINUOUS
 90
5
 70
0
 43
0.2499999924
 10
75.3380166016
 20
75.1056474609
 10
75.1848974609
 20
75.1056474609
 10
75.246890625
 20
75.3973139648
 10
75.4000097656
 20
75.3973139648
 10
75.3380166016
 20
75.1056474609
  0
LWPOLYLINE
  5
41F
100
AcDbEntity
  8
0
100
AcDbPolyline
 62
2
  6
CONTINUOUS
 90
6
 70
0
 43
0.2499999924
 10
51.6546835938
 20
75.1056474609
 10
51.5015644531
 20
75.1056474609
 10
51.5635576172
 20
75.3973139648
 10
51.7166767578
 20
75.3973139648
 10
51.6546835938
 20
75.1056474609
 10
51.3775673828
 20
74.5223144531
  0
LWPOLYLINE
  5
420
100
AcDbEntity
  8
0
100
AcDbPolyline
 62
2
  6
CONTINUOUS
 90
6
 70
0
 43
0.2499999924
 10
39.4046796875
 20
75.1056474609
 10
39.2515605469
 20
75.1056474609
 10
39.3135537109
 20
75.3973139648
 10
39.4666835938
 20
75.3973139648
 10
39.4046796875
 20
75.1056474609
 10
39.1275634766
 20
74.5223144531
  0
LWPOLYLINE
  5
421
100
AcDbEntity
  8
0
100
AcDbPolyline
 62
2
  6
CONTINUOUS
 90
5
 70
0
 43
0.2499999924
 10
27.1546865234
 20
75.1056474609
 10
27.0015566406
 20
75.1056474609
 10
27.0635605469
 20
75.3973139648
 10
27.2166796875
 20
75.3973139648
 10
27.1546865234
 20
75.1056474609
  0
LWPOLYLINE
  5
422
100
AcDbEntity
  8
0
100
AcDbPolyline
 62
2
  6
CONTINUOUS
 90
2
 70
0
 43
0.2499999924
 10
25.3171816406
 20
75.1056474609
 10
25.9296796875
 20
75.1056474609
  0
LWPOLYLINE
  5
423
100
AcDbEntity
  8
0
100
AcDbPolyline
 62
2
  6
CONTINUOUS
 90
2
 70
0
 43
0.2499999924
 10
35.1171826172
 20
75.1056474609
 10
35.7296806641
 20
75.1056474609
  0
LWPOLYLINE
  5
424
100
AcDbEntity
  8
0
100
AcDbPolyline
 62
2
  6
CONTINUOUS
 90
2
 70
0
 43
0.2499999924
 10
47.3671865234
 20
75.1056474609
 10
47.9796845703
 20
75.1056474609
  0
LWPOLYLINE
  5
425
100
AcDbEntity
  8
0
100
AcDbPolyline
 62
2
  6
CONTINUOUS
 90
2
 70
0
 43
0.2499999924
 10
56.4015595703
 20
75.1056474609
 10
59.9015576172
 20
75.1056474609
  0
LWPOLYLINE
  5
426
100
AcDbEntity
  8
0
100
AcDbPolyline
 62
2
  6
CONTINUOUS
 90
2
 70
0
 43
0.2499999924
 10
60.484890625
 20
75.1056474609
 10
61.0973886719
 20
75.1056474609
  0
LWPOLYLINE
  5
427
100
AcDbEntity
  8
0
100
AcDbPolyline
 62
2
  6
CONTINUOUS
 90
2
 70
0
 43
0.2499999924
 10
66.1505136719
 20
75.1056474609
 10
66.7630224609
 20
75.1056474609
  0
LWPOLYLINE
  5
428
100
AcDbEntity
  8
0
100
AcDbPolyline
 62
2
  6
CONTINUOUS
 90
2
 70
0
 43
0.2499999924
 10
32.2735322266
 20
76.8556464844
 10
33.4985283203
 20
76.8556464844
  0
LWPOLYLINE
  5
429
100
AcDbEntity
  8
0
100
AcDbPolyline
 62
2
  6
CONTINUOUS
 90
2
 70
0
 43
0.2499999924
 10
56.7735292969
 20
76.8556464844
 10
60.2735380859
 20
76.8556464844
  0
LWPOLYLINE
  5
42A
100
AcDbEntity
  8
0
100
AcDbPolyline
 62
2
  6
CONTINUOUS
 90
2
 70
0
 43
0.2499999924
 10
61.2288408203
 20
78.6056508789
 10
61.8413388672
 20
78.6056508789
  0
LWPOLYLINE
  5
42B
100
AcDbEntity
  8
0
100
AcDbPolyline
 62
2
  6
CONTINUOUS
 90
2
 70
0
 43
0.2499999924
 10
63.67884375
 20
78.6056508789
 10
64.9038398438
 20
78.6056508789
  0
LWPOLYLINE
  5
42C
100
AcDbEntity
  8
0
100
AcDbPolyline
 62
2
  6
CONTINUOUS
 90
2
 70
0
 43
0.2499999924
 10
31.9015625
 20
75.1056474609
 10
32.6455126953
 20
78.6056508789
  0
LWPOLYLINE
  5
42D
100
AcDbEntity
  8
0
100
AcDbPolyline
 62
2
  6
CONTINUOUS
 90
2
 70
0
 43
0.2499999924
 10
33.8705087891
 20
78.6056508789
 10
33.1265585938
 20
75.1056474609
  0
LWPOLYLINE
  5
42E
100
AcDbEntity
  8
0
100
AcDbPolyline
 62
2
  6
CONTINUOUS
 90
4
 70
0
 43
0.2499999924
 10
37.7203046875
 20
75.1056474609
 10
38.4642548828
 20
78.6056508789
 10
36.9255546875
 20
75.6889804688
 10
38.1505507813
 20
75.6889804688
  0
LWPOLYLINE
  5
42F
100
AcDbEntity
  8
0
100
AcDbPolyline
 62
2
  6
CONTINUOUS
 90
2
 70
0
 43
0.2499999924
 10
44.8955058594
 20
78.6056508789
 10
44.1515556641
 20
75.1056474609
  0
LWPOLYLINE
  5
430
100
AcDbEntity
  8
0
100
AcDbPolyline
 62
2
  6
CONTINUOUS
 90
4
 70
0
 43
0.2499999924
 10
49.9703085938
 20
75.1056474609
 10
50.7142587891
 20
78.6056508789
 10
49.1755478516
 20
75.6889804688
 10
50.4005546875
 20
75.6889804688
  0
LWPOLYLINE
  5
431
100
AcDbEntity
  8
0
100
AcDbPolyline
 62
2
  6
CONTINUOUS
 90
3
 70
0
 43
0.2499999924
 10
25.8131484375
 20
77.4389794922
 10
26.3673808594
 20
78.6056508789
 10
25.6234306641
 20
75.1056474609
  0
LWPOLYLINE
  5
432
100
AcDbEntity
  8
0
100
AcDbPolyline
 62
2
  6
CONTINUOUS
 90
2
 70
0
 43
0.2499999924
 10
58.8955087891
 20
78.6056508789
 10
58.1515585938
 20
75.1056474609
  0
LWPOLYLINE
  5
433
100
AcDbEntity
  8
0
100
AcDbPolyline
 62
2
  6
CONTINUOUS
 90
2
 70
0
 43
0.2499999924
 10
61.5350898438
 20
78.6056508789
 10
60.7911396484
 20
75.1056474609
  0
LWPOLYLINE
  5
434
100
AcDbEntity
  8
0
100
AcDbPolyline
 62
2
  6
CONTINUOUS
 90
2
 70
0
 43
0.2499999924
 10
64.2913417969
 20
78.6056508789
 10
63.5473916016
 20
75.1056474609
  0
LWPOLYLINE
  5
435
100
AcDbEntity
  8
0
100
AcDbPolyline
 62
2
  6
CONTINUOUS
 90
3
 70
0
 43
0.2499999924
 10
35.6131494141
 20
77.4389794922
 10
36.1673818359
 20
78.6056508789
 10
35.4234316406
 20
75.1056474609
  0
LWPOLYLINE
  5
436
100
AcDbEntity
  8
0
100
AcDbPolyline
 62
2
  6
CONTINUOUS
 90
4
 70
0
 43
0.2499999924
 10
68.7536464844
 20
75.1056474609
 10
69.4975859375
 20
78.6056508789
 10
67.9588857422
 20
75.6889804688
 10
69.1838818359
 20
75.6889804688
  0
LWPOLYLINE
  5
437
100
AcDbEntity
  8
0
100
AcDbPolyline
 62
2
  6
CONTINUOUS
 90
3
 70
0
 43
0.2499999924
 10
47.8631533203
 20
77.4389794922
 10
48.4173857422
 20
78.6056508789
 10
47.6734355469
 20
75.1056474609
  0
LWPOLYLINE
  5
438
100
AcDbEntity
  8
0
100
AcDbPolyline
 62
2
  6
CONTINUOUS
 90
3
 70
0
 43
0.2499999924
 10
66.6464804688
 20
77.4389794922
 10
67.2007128906
 20
78.6056508789
 10
66.4567626953
 20
75.1056474609
  0
LWPOLYLINE
  5
439
100
AcDbEntity
  8
0
100
AcDbPolyline
 62
2
  6
CONTINUOUS
 90
5
 70
0
 43
0.2499999924
 10
44.3995390625
 20
76.2723134766
 10
45.2600205078
 20
77.4389794922
 10
45.5662802734
 20
77.4389794922
 10
45.7485322266
 20
76.8556464844
 10
45.3765625
 20
75.1056474609
  0
LWPOLYLINE
  5
43A
100
AcDbEntity
  8
0
100
AcDbPolyline
 62
2
  6
CONTINUOUS
 90
2
 70
0
 43
0.2499999924
 10
70.2848916016
 20
75.1056474609
 10
72.2538378906
 20
78.6056508789
  0
LWPOLYLINE
  5
43B
100
AcDbEntity
  8
0
100
AcDbPolyline
 62
2
  6
CONTINUOUS
 90
10
 70
0
 43
0.2499999924
 10
73.3548476563
 20
78.0223125
 10
73.78509375
 20
78.6056508789
 10
74.3975917969
 20
78.6056508789
 10
74.5798544922
 20
78.0223125
 10
74.3318710938
 20
76.8556464844
 10
73.901625
 20
76.2723134766
 10
73.2891269531
 20
76.2723134766
 10
72.8588808594
 20
75.6889804688
 10
72.7348945313
 20
75.1056474609
 10
73.959890625
 20
75.1056474609
  0
LINE
  5
43C
100
AcDbEntity
  8
0
100
AcDbLine
 62
7
  6
CONTINUOUS
 10
205.0
 20
5.0
 11
205.0
 21
292.3498994289
  0
LINE
  5
43D
100
AcDbEntity
  8
0
100
AcDbLine
 62
7
  6
CONTINUOUS
 10
210.0
 20
297.0
 11
210.0
 21
0.0
  0
LINE
  5
43E
100
AcDbEntity
  8
0
100
AcDbLine
 62
7
  6
CONTINUOUS
 10
205.0
 20
292.3498994289
 11
20.0
 21
292.3498994289
  0
LINE
  5
43F
100
AcDbEntity
  8
0
100
AcDbLine
 62
7
  6
CONTINUOUS
 10
-0.0
 20
297.0
 11
210.0
 21
297.0
  0
LWPOLYLINE
  5
440
100
AcDbEntity
  8
ALL_DIMENSIONS
100
AcDbPolyline
 62
2
  6
CONTINUOUS
 90
9
 70
0
 43
0.2499999924
 10
78.6964003906
 20
205.2797011719
 10
78.6964003906
 20
206.5046972656
 10
79.8630664063
 20
205.8921992188
 10
79.8630664063
 20
206.1984589844
 10
80.4463994141
 20
206.5046972656
 10
81.6130654297
 20
206.5046972656
 10
82.1963984375
 20
206.1984589844
 10
82.1963984375
 20
205.5859609375
 10
81.6130654297
 20
205.2797011719
  0
LWPOLYLINE
  5
441
100
AcDbEntity
  8
ALL_DIMENSIONS
100
AcDbPolyline
 62
2
  6
CONTINUOUS
 90
9
 70
0
 43
0.2499999924
 10
93.1897919922
 20
184.2054628906
 10
94.4147880859
 20
184.2054628906
 10
93.8022900391
 20
183.038796875
 10
94.1085390625
 20
183.038796875
 10
94.4147880859
 20
182.4554746094
 10
94.4147880859
 20
181.2888085938
 10
94.1085390625
 20
180.7054648438
 10
93.4960410156
 20
180.7054648438
 10
93.1897919922
 20
181.2888085938
  0
LWPOLYLINE
  5
442
100
AcDbEntity
  8
ALL_DIMENSIONS
100
AcDbPolyline
 62
2
  6
CONTINUOUS
 90
9
 70
0
 43
0.2499999924
 10
91.7149111328
 20
206.8109570313
 10
91.7149111328
 20
207.4234550781
 10
91.131578125
 20
207.7297148438
 10
90.5482451172
 20
207.7297148438
 10
89.9649121094
 20
207.4234550781
 10
89.9649121094
 20
206.8109570313
 10
90.5482451172
 20
206.5046972656
 10
91.131578125
 20
206.5046972656
 10
91.7149111328
 20
206.8109570313
  0
LINE
  5
443
100
AcDbEntity
  8
ALL_AXIS
100
AcDbLine
 62
7
  6
CONTINUOUS
 10
103.6402339181
 20
187.896374269
 11
120.6402339181
 21
187.896374269
  0
LWPOLYLINE
  5
444
100
AcDbEntity
  8
ALL_DIMENSIONS
100
AcDbPolyline
 62
2
  6
CONTINUOUS
 90
2
 70
0
 43
0.2499999924
 10
83.0714033203
 20
200.9047089844
 10
77.82140625
 20
203.8213847656
  0
LWPOLYLINE
  5
445
100
AcDbEntity
  8
ALL_DIMENSIONS
100
AcDbPolyline
 62
2
  6
CONTINUOUS
 90
9
 70
0
 43
0.2499999924
 10
110.9464882813
 20
169.6187216797
 10
110.6402285156
 20
170.2020654297
 10
110.6402285156
 20
172.5353974609
 10
110.9464882813
 20
173.1187304688
 10
111.5589863281
 20
173.1187304688
 10
111.8652246094
 20
172.5353974609
 10
111.8652246094
 20
170.2020654297
 10
111.5589863281
 20
169.6187216797
 10
110.9464882813
 20
169.6187216797
  0
LWPOLYLINE
  5
446
100
AcDbEntity
  8
ALL_DIMENSIONS
100
AcDbPolyline
 62
2
  6
CONTINUOUS
 90
9
 70
0
 43
0.2499999924
 10
81.6130654297
 20
207.7297148438
 10
82.1963984375
 20
208.035953125
 10
82.1963984375
 20
208.6484511719
 10
81.6130654297
 20
208.9547109375
 10
80.4463994141
 20
208.9547109375
 10
79.8630664063
 20
208.6484511719
 10
79.8630664063
 20
207.7297148438
 10
78.6964003906
 20
207.7297148438
 10
78.6964003906
 20
208.9547109375
  0
LWPOLYLINE
  5
447
100
AcDbEntity
  8
ALL_DIMENSIONS
100
AcDbPolyline
 62
2
  6
CONTINUOUS
 90
13
 70
0
 43
0.2499999924
 10
80.4463994141
 20
200.6130371094
 10
79.5714052734
 20
200.9047089844
 10
78.9880722656
 20
201.48803125
 10
78.6964003906
 20
202.363046875
 10
78.9880722656
 20
203.2380410156
 10
79.5714052734
 20
203.8213847656
 10
80.4463994141
 20
204.1130351563
 10
81.3214042969
 20
203.8213847656
 10
81.9047373047
 20
203.2380410156
 10
82.1963984375
 20
202.363046875
 10
81.9047373047
 20
201.48803125
 10
81.3214042969
 20
200.9047089844
 10
80.4463994141
 20
200.6130371094
  0
LWPOLYLINE
  5
448
100
AcDbEntity
  8
ALL_DIMENSIONS
100
AcDbPolyline
 62
2
  6
CONTINUOUS
 90
2
 70
0
 43
0.2499999924
 10
92.5899160156
 20
202.1297050781
 10
87.3399082031
 20
205.0463808594
  0
LINE
  5
449
100
AcDbEntity
  8
ALL_AXIS
100
AcDbLine
 62
7
  6
CONTINUOUS
 10
100.6402339181
 20
201.396374269
 11
100.6402339181
 21
209.396374269
  0
LWPOLYLINE
  5
44A
100
AcDbEntity
  8
ALL_DIMENSIONS
100
AcDbPolyline
 62
2
  6
CONTINUOUS
 90
13
 70
0
 43
0.2499999924
 10
89.9649121094
 20
201.8380332031
 10
89.0899179688
 20
202.1297050781
 10
88.5065849609
 20
202.7130488281
 10
88.2149130859
 20
203.5880429688
 10
88.5065849609
 20
204.4630371094
 10
89.0899179688
 20
205.0463808594
 10
89.9649121094
 20
205.33803125
 10
90.8399169922
 20
205.0463808594
 10
91.42325
 20
204.4630371094
 10
91.7149111328
 20
203.5880429688
 10
91.42325
 20
202.7130488281
 10
90.8399169922
 20
202.1297050781
 10
89.9649121094
 20
201.8380332031
  0
LINE
  5
44B
100
AcDbEntity
  8
ALL_AXIS
100
AcDbLine
 62
7
  6
CONTINUOUS
 10
103.6402339181
 20
222.8962317206
 11
103.6402339181
 21
187.8965168174
  0
LWPOLYLINE
  5
44C
100
AcDbEntity
  8
ALL_DIMENSIONS
100
AcDbPolyline
 62
2
  6
CONTINUOUS
 90
8
 70
0
 43
0.2499999924
 10
89.9649121094
 20
207.4234550781
 10
89.3815791016
 20
207.7297148438
 10
88.7982460938
 20
207.7297148438
 10
88.2149130859
 20
207.4234550781
 10
88.2149130859
 20
206.8109570313
 10
88.7982460938
 20
206.5046972656
 10
89.3815791016
 20
206.5046972656
 10
89.9649121094
 20
206.8109570313
  0
LINE
  5
44D
100
AcDbEntity
  8
ALL_AXIS
100
AcDbLine
 62
7
  6
CONTINUOUS
 10
103.6402339181
 20
201.396374269
 11
100.6402339181
 21
201.396374269
  0
LINE
  5
44E
100
AcDbEntity
  8
ALL_AXIS
100
AcDbLine
 62
7
  6
CENTER
 10
98.6402339181
 20
205.396374269
 11
122.6402339181
 21
205.396374269
  0
LINE
  5
44F
100
AcDbEntity
  8
ALL_AXIS
100
AcDbLine
 62
7
  6
CONTINUOUS
 10
103.6402339181
 20
209.396374269
 11
100.6402339181
 21
209.396374269
  0
LINE
  5
450
100
AcDbEntity
  8
ALL_AXIS
100
AcDbLine
 62
7
  6
CONTINUOUS
 10
120.6402339181
 20
222.896374269
 11
120.6402339181
 21
187.896374269
  0
LWPOLYLINE
  5
451
100
AcDbEntity
  8
ALL_DIMENSIONS
100
AcDbPolyline
 62
2
  6
CONTINUOUS
 90
10
 70
0
 43
0.2499999924
 10
108.1902363281
 20
172.5353974609
 10
108.4964853516
 20
173.1187304688
 10
109.1089833984
 20
173.1187304688
 10
109.4152324219
 20
172.5353974609
 10
109.4152324219
 20
171.3687314453
 10
109.1089833984
 20
170.7853984375
 10
108.4964853516
 20
170.7853984375
 10
108.1902363281
 20
170.2020654297
 10
108.1902363281
 20
169.6187216797
 10
109.4152324219
 20
169.6187216797
  0
LINE
  5
452
100
AcDbEntity
  8
ALL_AXIS
100
AcDbLine
 62
7
  6
CONTINUOUS
 10
103.6402339181
 20
222.896374269
 11
120.6402339181
 21
222.896374269
  0
ENDSEC
  0
SECTION
  2
OBJECTS
  0
DICTIONARY
  5
C
100
AcDbDictionary
280
0
281
1
  3
ACAD_GROUP
350
D
  3
ACAD_MLINESTYLE
350
17
  3
ACAD_LAYOUT
350
1A
  3
ACAD_PLOTSETTINGS
350
19
  3
ACAD_PLOTSTYLENAME
350
E
  0
DICTIONARY
  5
D
102
{ACAD_REACTORS
330
C
102
}
100
AcDbDictionary
280
0
281
1
  0
ACDBDICTIONARYWDFLT
  5
E
102
{ACAD_REACTORS
330
C
102
}
100
AcDbDictionary
281
1
  3
Normal
350
F
100
AcDbDictionaryWithDefault
340
F
  0
DICTIONARY
  5
17
102
{ACAD_REACTORS
330
C
102
}
100
AcDbDictionary
280
0
281
1
  3
Standard
350
18
  0
DICTIONARY
  5
19
102
{ACAD_REACTORS
330
C
102
}
100
AcDbDictionary
281
1
  0
DICTIONARY
  5
1A
102
{ACAD_REACTORS
330
C
102
}
100
AcDbDictionary
281
1
  3
Model
350
453
  3
Layout1
350
454
  0
ACDBPLACEHOLDER
  5
F
102
{ACAD_REACTORS
330
E
102
}
  0
MLINESTYLE
  5
18
102
{ACAD_REACTORS
330
17
102
}
100
AcDbMlineStyle
  2
STANDARD
 70
0
  3

 62
256
 51
90.0
 52
90.0
 71
2
 49
0.5
 62
256
  6
BYLAYER
 49
-0.5
 62
256
  6
BYLAYER
  0
LAYOUT
  5
453
102
{ACAD_REACTORS
330
1A
102
}
100
AcDbPlotSettings
  1

  2
none_device
  4

  6

 40
0.0
 41
0.0
 42
0.0
 43
0.0
 44
210.0
 45
297.0
 46
0.0
 47
0.0
 48
0.0
 49
0.0
140
0.0
141
0.0
142
1.0
143
1.0
 70
1024
 72
1
 73
0
 74
0
  7

 75
0
147
1.0
148
0.0
149
0.0
100
AcDbLayout
  1
Model
 70
0
 71
0
 10
0.0
 20
0.0
 11
210.0
 21
297.0
 12
0.0
 22
0.0
 32
0.0
 14
0.0
 24
0.0
 34
0.0
 15
0.0
 25
0.0
 35
0.0
146
0.0
 13
0.0
 23
0.0
 33
0.0
 16
1.0
 26
0.0
 36
0.0
 17
0.0
 27
1.0
 37
0.0
 76
0
330
207
345
0
346
0
  0
LAYOUT
  5
454
102
{ACAD_REACTORS
330
1A
102
}
100
AcDbPlotSettings
  1

  2
none_device
  4

  6

 40
0.0
 41
0.0
 42
0.0
 43
0.0
 44
210.0
 45
297.0
 46
0.0
 47
0.0
 48
0.0
 49
0.0
140
0.0
141
0.0
142
1.0
143
1.0
 70
0
 72
1
 73
0
 74
0
  7

 75
0
147
1.0
148
0.0
149
0.0
100
AcDbLayout
  1
Layout1
 70
0
 71
1
 10
0.0
 20
0.0
 11
210.0
 21
297.0
 12
0.0
 22
0.0
 32
0.0
 14
0.0
 24
0.0
 34
0.0
 15
0.0
 25
0.0
 35
0.0
146
0.0
 13
0.0
 23
0.0
 33
0.0
 16
1.0
 26
0.0
 36
0.0
 17
0.0
 27
1.0
 37
0.0
 76
0
330
208
345
0
346
0
  0
ENDSEC
  0
EOF
