999
DXF file: e_05-200-03_vint_podzhimnoi.dxf
999
Pro/ENGINEER 2001320 by Parametric Technology Corporation
0
SECTION
2
HEADER
9
$ACADVER
1
AC1014
9
$EXTMAX
10
210.0000000000
20
297.0000000000
9
$EXTMIN
10
0.0000000000
20
0.0000000000
9
$LIMMIN
10
0.0000000000
20
0.0000000000
9
$LIMMAX
10
210.0000000000
20
297.0000000000
9
$VIEWCTR
10
105.0000000000
20
148.5000000000
9
$VIEWSIZE
40
297.0000000000
9
$CLAYER
8
0
9
$LTSCALE
40
19.3600000000
9
$CELTYPE
6
BYLAYER
9
$DIMSCALE
40
1
9
$DIMASZ
40
3.0000000000
9
$DIMEXO
40
2.2000000000
9
$DIMDLI
40
13.3760000000
9
$DIMEXE
40
6.3360000000
9
$DIMCEN
40
3.1680000000
9
$DIMLFAC
40
1.0000000000
9
$DIMTXT
40
3.6000000000
9
$DIMTOL
70
1
9
$DIMTFAC
40
0.6000000000
9
$DIMTP
40
0.0100000000
9
$DIMTM
40
0.0100000000
0
ENDSEC
0
SECTION
2
CLASSES
0
ENDSEC
0
SECTION
2
TABLES
0
TABLE
2
VPORT
5
1F4
100
AcDbSymbolTable
70
2
0
VPORT
5
1F5
100
AcDbSymbolTableRecord
100
AcDbViewportTableRecord
2
*ACTIVE
70
0
10
0.0
20
0.0
11
1.0
21
1.0
12
105.0000000000
22
148.5000000000
13
0.0
23
0.0
14
1.0
24
1.0
15
0.0
25
0.0
16
0.0
26
0.0
36
1.0
17
0.0
27
0.0
37
0.0
40
297.0000000000
41
0.7070707071
42
50.0
43
0.0
44
0.0
50
0.0
51
0.0
71
0
72
100
73
1
74
1
75
0
76
0
77
0
78
0
0
ENDTAB
0
TABLE
2
LTYPE
5
1F6
100
AcDbSymbolTable
70
6
0
LTYPE
5
1F7
100
AcDbSymbolTableRecord
100
AcDbLinetypeTableRecord
2
BYBLOCK
70
0
3

72
65
73
0
40
0.0
0
LTYPE
5
1F8
100
AcDbSymbolTableRecord
100
AcDbLinetypeTableRecord
2
BYLAYER
70
0
3

72
65
73
0
40
0.0
0
LTYPE
5
1F9
100
AcDbSymbolTableRecord
100
AcDbLinetypeTableRecord
2
CONTINUOUS
70
64
3
Solid line
72
65
73
0
40
0
0
LTYPE
5
1FA
100
AcDbSymbolTableRecord
100
AcDbLinetypeTableRecord
2
CENTER
70
64
3
____ _ ____ _ ____ _ ____ _ ____ _ ____ _ ____
72
65
73
4
40
0.6
49
0.375
74
0
49
-0.075
74
0
49
0.075
74
0
49
-0.075
74
0
0
LTYPE
5
1FB
100
AcDbSymbolTableRecord
100
AcDbLinetypeTableRecord
2
HIDDEN
70
64
3
- - - - - - - - - - - - - - - - - - - -
72
65
73
2
40
0.2
49
0.1
74
0
49
-0.1
74
0
0
LTYPE
5
1FC
100
AcDbSymbolTableRecord
100
AcDbLinetypeTableRecord
2
PHANTOM
70
64
3
_____ _ _ _____ _ _ _____ _ _ _____
72
65
73
6
40
0.8
49
0.45
74
0
49
-0.05
74
0
49
0.1
74
0
49
-0.05
74
0
49
0.1
74
0
49
-0.05
74
0
0
LTYPE
5
1FD
100
AcDbSymbolTableRecord
100
AcDbLinetypeTableRecord
2
DOT
70
64
3
. . . . . . . . . . . . . . . . . . . .
72
65
73
2
40
0.2
49
0.1
74
0
49
-0.1
74
0
0
LTYPE
5
1FE
100
AcDbSymbolTableRecord
100
AcDbLinetypeTableRecord
2
DASHED
70
64
3
- - - - - - - - - - - - - - - - - - - -
72
65
73
2
40
0.2
49
0.1
74
0
49
-0.1
74
0
0
ENDTAB
0
TABLE
2
LAYER
5
1FF
100
AcDbSymbolTable
70
36
0
LAYER
5
200
100
AcDbSymbolTableRecord
100
AcDbLayerTableRecord
2
0
70
0
62
7
6
CONTINUOUS
0
LAYER
5
201
100
AcDbSymbolTableRecord
100
AcDbLayerTableRecord
2
DEFAULT_1
70
0
62
7
6
CENTER
0
LAYER
5
202
100
AcDbSymbolTableRecord
100
AcDbLayerTableRecord
2
DEFAULT_2
70
0
62
8
6
HIDDEN
0
LAYER
5
203
100
AcDbSymbolTableRecord
100
AcDbLayerTableRecord
2
DEFAULT_3
70
0
62
7
6
PHANTOM
0
ENDTAB
0
TABLE
2
STYLE
5
204
100
AcDbSymbolTable
70
1
0
STYLE
5
205
100
AcDbSymbolTableRecord
100
AcDbTextStyleTableRecord
2
STANDARD
70
0
40
0.0
41
1.0
50
0.0
71
0
42
0.0
3
txt
4

0
STYLE
5
206
100
AcDbSymbolTableRecord
100
AcDbTextStyleTableRecord
2
TEXTSTYLE_0
70
0
40
0.0
41
0.80
50
0.0
71
0
42
0.2
3
txt
4

0
ENDTAB
0
TABLE
2
VIEW
5
207
100
AcDbSymbolTable
70
0
0
ENDTAB
0
TABLE
2
UCS
5
208
100
AcDbSymbolTable
70
0
0
ENDTAB
0
TABLE
2
APPID
5
209
100
AcDbSymbolTable
70
1
0
APPID
5
20A
100
AcDbSymbolTableRecord
100
AcDbRegAppTableRecord
2
ACAD
70
0
0
ENDTAB
0
TABLE
2
DIMSTYLE
5
20B
100
AcDbSymbolTable
70
1
0
DIMSTYLE
105
20C
100
AcDbSymbolTableRecord
100
AcDbDimStyleTableRecord
2
STANDARD
70
0
3

4

5

6

7

40
1.0
41
0.18
42
0.0625
43
0.38
44
0.18
45
0.0
46
0.0
47
0.0100000000
48
0.0100000000
140
3.6000000000
141
0.09
142
0.0
143
25.4
144
1.0000000000
145
0.0
146
0.6000000000
147
0.09
71
1
72
0
73
1
74
1
75
0
76
0
77
0
78
0
170
0
171
2
172
0
173
0
174
0
175
0
176
0
177
0
178
0
270
2
271
2
272
4
273
2
274
2
340
205
275
0
280
0
281
0
282
0
283
1
284
0
285
0
286
0
287
3
288
0
0
DIMSTYLE
105
20D
100
AcDbSymbolTableRecord
100
AcDbDimStyleTableRecord
2
DIMSTYLE_1
70
0
3

4

5

6

7

40
1.0
41
0.18
42
0.0625
43
0.38
44
0.18
45
0.0
46
0.0
47
0.2000000000
48
0.2000000000
140
3.6000000000
141
0.09
142
0.0
143
25.4
144
0.5000000000
145
0.0
146
0.0000000000
147
0.09
71
0
72
0
73
1
74
1
75
0
76
0
77
0
78
0
170
0
171
2
172
0
173
0
174
0
175
0
176
0
177
0
178
0
270
2
271
2
272
4
273
2
274
2
340
205
275
0
280
0
281
0
282
0
283
1
284
0
285
0
286
0
287
3
288
0
0
DIMSTYLE
105
20E
100
AcDbSymbolTableRecord
100
AcDbDimStyleTableRecord
2
DIMSTYLE_2
70
0
3

4

5

6

7

40
1.0
41
0.18
42
0.0625
43
0.38
44
0.18
45
0.0
46
0.0
47
0.3000000000
48
0.3000000000
140
3.6000000000
141
0.09
142
0.0
143
25.4
144
0.5000000000
145
0.0
146
0.0000000000
147
0.09
71
0
72
0
73
1
74
1
75
0
76
0
77
0
78
0
170
0
171
2
172
0
173
0
174
0
175
0
176
0
177
0
178
0
270
2
271
2
272
4
273
2
274
2
340
205
275
0
280
0
281
0
282
0
283
1
284
0
285
0
286
0
287
3
288
0
0
DIMSTYLE
105
20F
100
AcDbSymbolTableRecord
100
AcDbDimStyleTableRecord
2
DIMSTYLE_3
70
0
3

4

5

6

7

40
1.0
41
0.18
42
0.0625
43
0.38
44
0.18
45
0.0
46
0.0
47
0.1300000000
48
-0.0400000000
140
3.6000000000
141
0.09
142
0.0
143
25.4
144
0.5000000000
145
0.0
146
0.0000000000
147
0.09
71
1
72
0
73
1
74
1
75
0
76
0
77
0
78
0
170
0
171
2
172
0
173
0
174
0
175
0
176
0
177
0
178
0
270
2
271
3
272
4
273
2
274
2
340
205
275
0
280
0
281
0
282
0
283
1
284
0
285
0
286
0
287
3
288
0
0
DIMSTYLE
105
210
100
AcDbSymbolTableRecord
100
AcDbDimStyleTableRecord
2
DIMSTYLE_4
70
0
3

4

5

6

7

40
1.0
41
0.18
42
0.0625
43
0.38
44
0.18
45
0.0
46
0.0
47
0.2000000000
48
0.2000000000
140
3.6000000000
141
0.09
142
0.0
143
25.4
144
0.5000000000
145
0.0
146
0.0000000000
147
0.09
71
0
72
0
73
1
74
1
75
0
76
0
77
0
78
0
170
0
171
2
172
0
173
0
174
0
175
0
176
0
177
0
178
0
270
2
271
1
272
4
273
2
274
2
340
205
275
0
280
0
281
0
282
0
283
1
284
0
285
0
286
0
287
3
288
0
0
DIMSTYLE
105
211
100
AcDbSymbolTableRecord
100
AcDbDimStyleTableRecord
2
DIMSTYLE_5
70
0
3

4

5

6

7

40
1.0
41
0.18
42
0.0625
43
0.38
44
0.18
45
0.0
46
0.0
47
0.5000000000
48
0.5000000000
140
3.6000000000
141
0.09
142
0.0
143
25.4
144
0.5000000000
145
0.0
146
0.0000000000
147
0.09
71
0
72
0
73
1
74
1
75
0
76
0
77
0
78
0
170
0
171
2
172
0
173
0
174
0
175
0
176
0
177
0
178
0
270
2
271
1
272
4
273
2
274
2
340
205
275
0
280
0
281
0
282
0
283
1
284
0
285
0
286
0
287
3
288
0
0
DIMSTYLE
105
212
100
AcDbSymbolTableRecord
100
AcDbDimStyleTableRecord
2
DIMSTYLE_6
70
0
3

4

5

6

7

40
1.0
41
0.18
42
0.0625
43
0.38
44
0.18
45
0.0
46
0.0
47
0.1000000000
48
0.1000000000
140
3.6000000000
141
0.09
142
0.0
143
25.4
144
0.5000000000
145
0.0
146
0.0000000000
147
0.09
71
0
72
0
73
1
74
1
75
0
76
0
77
0
78
0
170
0
171
2
172
0
173
0
174
0
175
0
176
0
177
0
178
0
270
2
271
2
272
4
273
2
274
2
340
205
275
0
280
0
281
0
282
0
283
1
284
0
285
0
286
0
287
3
288
0
0
ENDTAB
0
TABLE
2
BLOCK_RECORD
5
213
100
AcDbSymbolTable
70
0
0
BLOCK_RECORD
5
214
100
AcDbSymbolTableRecord
100
AcDbBlockTableRecord
2
*MODEL_SPACE
0
BLOCK_RECORD
5
215
100
AcDbSymbolTableRecord
100
AcDbBlockTableRecord
2
*PAPER_SPACE
0
BLOCK_RECORD
5
216
100
AcDbSymbolTableRecord
100
AcDbBlockTableRecord
2
*D0
0
BLOCK_RECORD
5
217
100
AcDbSymbolTableRecord
100
AcDbBlockTableRecord
2
*D1
0
BLOCK_RECORD
5
218
100
AcDbSymbolTableRecord
100
AcDbBlockTableRecord
2
*D2
0
BLOCK_RECORD
5
219
100
AcDbSymbolTableRecord
100
AcDbBlockTableRecord
2
*D3
0
BLOCK_RECORD
5
21A
100
AcDbSymbolTableRecord
100
AcDbBlockTableRecord
2
*D4
0
BLOCK_RECORD
5
21B
100
AcDbSymbolTableRecord
100
AcDbBlockTableRecord
2
*D5
0
BLOCK_RECORD
5
21C
100
AcDbSymbolTableRecord
100
AcDbBlockTableRecord
2
*D6
0
BLOCK_RECORD
5
21D
100
AcDbSymbolTableRecord
100
AcDbBlockTableRecord
2
*D7
0
BLOCK_RECORD
5
21E
100
AcDbSymbolTableRecord
100
AcDbBlockTableRecord
2
*D8
0
BLOCK_RECORD
5
21F
100
AcDbSymbolTableRecord
100
AcDbBlockTableRecord
2
*D9
0
BLOCK_RECORD
5
220
100
AcDbSymbolTableRecord
100
AcDbBlockTableRecord
2
*D10
0
BLOCK_RECORD
5
221
100
AcDbSymbolTableRecord
100
AcDbBlockTableRecord
2
UGOL_BL0
0
BLOCK_RECORD
5
222
100
AcDbSymbolTableRecord
100
AcDbBlockTableRecord
2
STANDARD_BL1
0
ENDTAB
0
ENDSEC
0
SECTION
2
BLOCKS
0
BLOCK
5
223
100
AcDbEntity
8
0
100
AcDbBlockBegin
2
*MODEL_SPACE
70
0
10
0.0000000000
20
0.0000000000
3
*MODEL_SPACE
1

3
*MODEL_SPACE
1

0
ENDBLK
5
224
100
AcDbEntity
8
0
100
AcDbBlockEnd
0
BLOCK
5
225
100
AcDbEntity
8
0
100
AcDbBlockBegin
2
*PAPER_SPACE
70
0
10
0.0000000000
20
0.0000000000
3
*PAPER_SPACE
1

3
*PAPER_SPACE
1

0
ENDBLK
5
226
100
AcDbEntity
8
0
100
AcDbBlockEnd
0
BLOCK
5
227
100
AcDbEntity
8
0
100
AcDbBlockBegin
62
2
6
CONTINUOUS
2
*D0
70
65
10
0.0000000000
20
0.0000000000
3
*D0
1

0
TEXT
5
228
100
AcDbEntity
8
0
100
AcDbText
62
2
6
CONTINUOUS
10
41.2785132003
20
179.8048179395
7
TEXTSTYLE_0
40
3.6000000000
1
M
50
90.0000000000
51
12.0000000000
72
5
11
41.2785132003
21
182.1448179395
100
AcDbText
0
TEXT
5
229
100
AcDbEntity
8
0
100
AcDbText
62
2
6
CONTINUOUS
10
41.2785132003
20
186.8248178606
7
TEXTSTYLE_0
40
3.6000000000
1
x1-6g
50
90.0000000000
51
12.0000000000
72
5
11
41.2785132003
21
198.5248178606
100
AcDbText
0
TEXT
5
22A
100
AcDbEntity
8
0
100
AcDbText
62
2
6
CONTINUOUS
10
41.2785132003
20
182.1448179132
7
TEXTSTYLE_0
40
3.6000000000
1
16
50
90.0000000000
51
12.0000000000
72
5
11
41.2785132003
21
186.8248179132
100
AcDbText
0
LINE
5
22B
100
AcDbEntity
8
0
100
AcDbLine
62
2
6
CONTINUOUS
10
60.3533375702
20
173.3903643614
11
40.1986197591
21
173.3903643614
0
LINE
5
22C
100
AcDbEntity
8
0
100
AcDbLine
62
2
6
CONTINUOUS
10
60.5704670359
20
205.3903643614
11
40.1986197591
21
205.3903643614
0
LINE
5
22D
100
AcDbEntity
8
0
100
AcDbLine
62
2
6
CONTINUOUS
10
42.1986197591
20
173.3903643614
11
42.1986197591
21
189.3903643614
0
LINE
5
22E
100
AcDbEntity
8
0
100
AcDbLine
62
2
6
CONTINUOUS
10
42.1986197591
20
205.3903643614
11
42.1986197591
21
189.3903643614
0
SOLID
5
22F
100
AcDbEntity
8
0
100
AcDbTrace
62
2
6
CONTINUOUS
10
41.6986197591
20
176.3903643614
11
42.1986197591
21
173.3903643614
12
42.6986197591
22
176.3903643614
13
42.6986197591
23
176.3903643614
0
SOLID
5
230
100
AcDbEntity
8
0
100
AcDbTrace
62
2
6
CONTINUOUS
10
42.6986197591
20
202.3903643614
11
42.1986197591
21
205.3903643614
12
41.6986197591
22
202.3903643614
13
41.6986197591
23
202.3903643614
0
ENDBLK
5
231
100
AcDbEntity
8
0
100
AcDbBlockEnd
0
BLOCK
5
232
100
AcDbEntity
8
0
100
AcDbBlockBegin
62
2
6
CONTINUOUS
2
*D1
70
65
10
0.0000000000
20
0.0000000000
3
*D1
1

0
TEXT
5
233
100
AcDbEntity
8
0
100
AcDbText
62
2
6
CONTINUOUS
10
93.4511459940
20
223.7501573237
7
TEXTSTYLE_0
40
3.6000000000
1
L
51
12.0000000000
72
5
11
95.7911459940
21
223.7501573237
100
AcDbText
0
LINE
5
234
100
AcDbEntity
8
0
100
AcDbLine
62
2
6
CONTINUOUS
10
58.4399639914
20
205.3903643614
11
58.4399639914
21
224.8300507883
0
LINE
5
235
100
AcDbEntity
8
0
100
AcDbLine
62
2
6
CONTINUOUS
10
138.4399639914
20
189.3903643614
11
138.4399639914
21
195.5439419948
0
LINE
5
236
100
AcDbEntity
8
0
100
AcDbLine
62
2
6
CONTINUOUS
10
138.4399639914
20
198.9443877052
11
138.4399639914
21
224.8300507883
0
LINE
5
237
100
AcDbEntity
8
0
100
AcDbLine
62
2
6
CONTINUOUS
10
58.4399639914
20
222.8300507883
11
98.4399639914
21
222.8300507883
0
LINE
5
238
100
AcDbEntity
8
0
100
AcDbLine
62
2
6
CONTINUOUS
10
138.4399639914
20
222.8300507883
11
98.4399639914
21
222.8300507883
0
SOLID
5
239
100
AcDbEntity
8
0
100
AcDbTrace
62
2
6
CONTINUOUS
10
61.4399639914
20
223.3300507883
11
58.4399639914
21
222.8300507883
12
61.4399639914
22
222.3300507883
13
61.4399639914
23
222.3300507883
0
SOLID
5
23A
100
AcDbEntity
8
0
100
AcDbTrace
62
2
6
CONTINUOUS
10
135.4399639914
20
222.3300507883
11
138.4399639914
21
222.8300507883
12
135.4399639914
22
223.3300507883
13
135.4399639914
23
223.3300507883
0
ENDBLK
5
23B
100
AcDbEntity
8
0
100
AcDbBlockEnd
0
BLOCK
5
23C
100
AcDbEntity
8
0
100
AcDbBlockBegin
62
2
6
CONTINUOUS
2
*D2
70
65
10
0.0000000000
20
0.0000000000
3
*D2
1

0
TEXT
5
23D
100
AcDbEntity
8
0
100
AcDbText
62
2
6
CONTINUOUS
10
66.3784973485
20
163.1303166789
7
TEXTSTYLE_0
40
3.6000000000
1
9
51
12.0000000000
72
5
11
68.7184973485
21
163.1303166789
100
AcDbText
0
LINE
5
23E
100
AcDbEntity
8
0
100
AcDbLine
62
2
6
CONTINUOUS
10
58.4399639914
20
205.3903643614
11
58.4399639914
21
160.2102101435
0
LINE
5
23F
100
AcDbEntity
8
0
100
AcDbLine
62
2
6
CONTINUOUS
10
76.4399639914
20
198.6903643614
11
76.4399639914
21
160.2102101435
0
LINE
5
240
100
AcDbEntity
8
0
100
AcDbLine
62
2
6
CONTINUOUS
10
58.4399639914
20
162.2102101435
11
67.4399639914
21
162.2102101435
0
LINE
5
241
100
AcDbEntity
8
0
100
AcDbLine
62
2
6
CONTINUOUS
10
76.4399639914
20
162.2102101435
11
67.4399639914
21
162.2102101435
0
SOLID
5
242
100
AcDbEntity
8
0
100
AcDbTrace
62
2
6
CONTINUOUS
10
61.4399639914
20
162.7102101435
11
58.4399639914
21
162.2102101435
12
61.4399639914
22
161.7102101435
13
61.4399639914
23
161.7102101435
0
SOLID
5
243
100
AcDbEntity
8
0
100
AcDbTrace
62
2
6
CONTINUOUS
10
73.4399639914
20
161.7102101435
11
76.4399639914
21
162.2102101435
12
73.4399639914
22
162.7102101435
13
73.4399639914
23
162.7102101435
0
ENDBLK
5
244
100
AcDbEntity
8
0
100
AcDbBlockEnd
0
BLOCK
5
245
100
AcDbEntity
8
0
100
AcDbBlockBegin
62
2
6
CONTINUOUS
2
*D3
70
65
10
0.0000000000
20
0.0000000000
3
*D3
1

0
TEXT
5
246
100
AcDbEntity
8
0
100
AcDbText
62
2
6
CONTINUOUS
10
132.2971973567
20
162.6610714688
7
TEXTSTYLE_0
40
3.6000000000
1
8 D11
51
12.0000000000
72
5
11
143.9971973567
21
162.6610714688
100
AcDbText
0
TEXT
5
247
100
AcDbEntity
8
0
100
AcDbText
62
2
6
CONTINUOUS
10
147.3150189503
20
164.8693271537
7
TEXTSTYLE_0
40
2.1600000000
1
+0,13
51
12.0000000000
72
5
11
155.9550189503
21
164.8693271537
100
AcDbText
0
TEXT
5
248
100
AcDbEntity
8
0
100
AcDbText
62
2
6
CONTINUOUS
10
147.3150189503
20
161.9249862405
7
TEXTSTYLE_0
40
2.1600000000
1
+0,04
51
12.0000000000
72
5
11
155.9550189503
21
161.9249862405
100
AcDbText
0
TEXT
5
249
100
AcDbEntity
8
0
100
AcDbText
62
2
6
CONTINUOUS
10
143.9971973567
20
161.9249862405
7
TEXTSTYLE_0
40
5.1043409132
1
(
51
12.0000000000
72
5
11
147.3150189503
21
161.9249862405
100
AcDbText
0
TEXT
5
24A
100
AcDbEntity
8
0
100
AcDbText
62
2
6
CONTINUOUS
10
155.9550189503
20
161.9249862405
7
TEXTSTYLE_0
40
5.1043409132
1
)
51
12.0000000000
72
5
11
159.2728405439
21
161.9249862405
100
AcDbText
0
LINE
5
24B
100
AcDbEntity
8
0
100
AcDbLine
62
2
6
CONTINUOUS
10
179.5692792211
20
184.7715622079
11
179.5692792211
21
158.8208583981
0
LINE
5
24C
100
AcDbEntity
8
0
100
AcDbLine
62
2
6
CONTINUOUS
10
163.5692792211
20
184.7715622079
11
163.5692792211
21
158.8208583981
0
LINE
5
24D
100
AcDbEntity
8
0
100
AcDbLine
62
2
6
CONTINUOUS
10
179.5692792211
20
160.8208583981
11
171.5692792211
21
160.8208583981
0
LINE
5
24E
100
AcDbEntity
8
0
100
AcDbLine
62
2
6
CONTINUOUS
10
163.5692792211
20
160.8208583981
11
171.5692792211
21
160.8208583981
0
LINE
5
24F
100
AcDbEntity
8
0
100
AcDbLine
62
2
6
CONTINUOUS
10
171.5692792211
20
160.8208583981
11
132.2971973567
21
160.8208583981
0
SOLID
5
250
100
AcDbEntity
8
0
100
AcDbTrace
62
2
6
CONTINUOUS
10
176.5692792211
20
160.3208583981
11
179.5692792211
21
160.8208583981
12
176.5692792211
22
161.3208583981
13
176.5692792211
23
161.3208583981
0
SOLID
5
251
100
AcDbEntity
8
0
100
AcDbTrace
62
2
6
CONTINUOUS
10
166.5692792211
20
161.3208583981
11
163.5692792211
21
160.8208583981
12
166.5692792211
22
160.3208583981
13
166.5692792211
23
160.3208583981
0
ENDBLK
5
252
100
AcDbEntity
8
0
100
AcDbBlockEnd
0
BLOCK
5
253
100
AcDbEntity
8
0
100
AcDbBlockBegin
62
2
6
CONTINUOUS
2
*D4
70
65
10
0.0000000000
20
0.0000000000
3
*D4
1

0
TEXT
5
254
100
AcDbEntity
8
0
100
AcDbText
62
2
6
CONTINUOUS
10
51.5877620301
20
183.4839817069
7
TEXTSTYLE_0
40
3.6000000000
1
%%c
50
90.0000000000
51
12.0000000000
72
5
11
51.5877620301
21
188.2839817069
100
AcDbText
0
TEXT
5
255
100
AcDbEntity
8
0
100
AcDbText
62
2
6
CONTINUOUS
10
51.5877620301
20
188.2839817069
7
TEXTSTYLE_0
40
3.6000000000
1
9,7
50
90.0000000000
51
12.0000000000
72
5
11
51.5877620301
21
195.3039817069
100
AcDbText
0
LINE
5
256
100
AcDbEntity
8
0
100
AcDbLine
62
2
6
CONTINUOUS
10
58.4399639914
20
179.6903643614
11
50.5078685654
21
179.6903643614
0
LINE
5
257
100
AcDbEntity
8
0
100
AcDbLine
62
2
6
CONTINUOUS
10
58.4399639914
20
199.0903643614
11
50.5078685654
21
199.0903643614
0
LINE
5
258
100
AcDbEntity
8
0
100
AcDbLine
62
2
6
CONTINUOUS
10
52.5078685654
20
179.6903643614
11
52.5078685654
21
189.3903643614
0
LINE
5
259
100
AcDbEntity
8
0
100
AcDbLine
62
2
6
CONTINUOUS
10
52.5078685654
20
199.0903643614
11
52.5078685654
21
189.3903643614
0
SOLID
5
25A
100
AcDbEntity
8
0
100
AcDbTrace
62
2
6
CONTINUOUS
10
52.0078685654
20
182.6903643614
11
52.5078685654
21
179.6903643614
12
53.0078685654
22
182.6903643614
13
53.0078685654
23
182.6903643614
0
SOLID
5
25B
100
AcDbEntity
8
0
100
AcDbTrace
62
2
6
CONTINUOUS
10
53.0078685654
20
196.0903643614
11
52.5078685654
21
199.0903643614
12
52.0078685654
22
196.0903643614
13
52.0078685654
23
196.0903643614
0
ENDBLK
5
25C
100
AcDbEntity
8
0
100
AcDbBlockEnd
0
BLOCK
5
25D
100
AcDbEntity
8
0
100
AcDbBlockBegin
62
2
6
CONTINUOUS
2
*D5
70
65
10
0.0000000000
20
0.0000000000
3
*D5
1

0
TEXT
5
25E
100
AcDbEntity
8
0
100
AcDbText
62
2
6
CONTINUOUS
10
195.4629276844
20
188.1633239915
7
TEXTSTYLE_0
40
3.6000000000
1
 min
50
90.0000000000
51
12.0000000000
72
5
11
195.4629276844
21
197.5233239915
100
AcDbText
0
TEXT
5
25F
100
AcDbEntity
8
0
100
AcDbText
62
2
6
CONTINUOUS
10
195.4629276844
20
181.1433239915
7
TEXTSTYLE_0
40
3.6000000000
1
9,2
50
90.0000000000
51
12.0000000000
72
5
11
195.4629276844
21
188.1633239915
100
AcDbText
0
LINE
5
260
100
AcDbEntity
8
0
100
AcDbLine
62
2
6
CONTINUOUS
10
171.5692792211
20
198.6279686684
11
198.3830342198
21
198.6279686684
0
LINE
5
261
100
AcDbEntity
8
0
100
AcDbLine
62
2
6
CONTINUOUS
10
171.5692792211
20
180.1527600544
11
198.3830342198
21
180.1527600544
0
LINE
5
262
100
AcDbEntity
8
0
100
AcDbLine
62
2
6
CONTINUOUS
10
196.3830342198
20
198.6279686684
11
196.3830342198
21
201.6279686684
0
LINE
5
263
100
AcDbEntity
8
0
100
AcDbLine
62
2
6
CONTINUOUS
10
196.3830342198
20
201.6279686684
11
196.3830342198
21
189.3903643614
0
LINE
5
264
100
AcDbEntity
8
0
100
AcDbLine
62
2
6
CONTINUOUS
10
196.3830342198
20
180.1527600544
11
196.3830342198
21
177.1527600544
0
LINE
5
265
100
AcDbEntity
8
0
100
AcDbLine
62
2
6
CONTINUOUS
10
196.3830342198
20
177.1527600544
11
196.3830342198
21
189.3903643614
0
SOLID
5
266
100
AcDbEntity
8
0
100
AcDbTrace
62
2
6
CONTINUOUS
10
195.8830342198
20
201.6279686684
11
196.3830342198
21
198.6279686684
12
196.8830342198
22
201.6279686684
13
196.8830342198
23
201.6279686684
0
SOLID
5
267
100
AcDbEntity
8
0
100
AcDbTrace
62
2
6
CONTINUOUS
10
196.8830342198
20
177.1527600544
11
196.3830342198
21
180.1527600544
12
195.8830342198
22
177.1527600544
13
195.8830342198
23
177.1527600544
0
ENDBLK
5
268
100
AcDbEntity
8
0
100
AcDbBlockEnd
0
BLOCK
5
269
100
AcDbEntity
8
0
100
AcDbBlockBegin
62
2
6
CONTINUOUS
2
*D6
70
65
10
0.0000000000
20
0.0000000000
3
*D6
1

0
TEXT
5
26A
100
AcDbEntity
8
0
100
AcDbText
62
2
6
CONTINUOUS
10
29.1257100373
20
184.8579901344
7
TEXTSTYLE_0
40
3.6000000000
1
120%%d
50
89.7084134420
51
12.0000000000
72
5
11
29.1736495809
21
194.2778681485
100
AcDbText
0
LINE
5
26B
100
AcDbEntity
8
0
100
AcDbLine
62
2
6
CONTINUOUS
10
59.4257110443
20
197.3830003824
11
47.4349578629
21
218.1515941137
0
LINE
5
26C
100
AcDbEntity
8
0
100
AcDbLine
62
2
6
CONTINUOUS
10
59.4257110443
20
181.3977283405
11
47.4349578629
21
160.6291346092
0
ARC
5
26D
100
AcDbEntity
8
0
100
AcDbCircle
62
2
6
CONTINUOUS
10
64.0402616026
20
189.3903643614
40
31.2106074794
100
AcDbArc
50
120.0000000000
51
180.0000000000
0
ARC
5
26E
100
AcDbEntity
8
0
100
AcDbCircle
62
2
6
CONTINUOUS
10
64.0402616026
20
189.3903643614
40
31.2106074794
100
AcDbArc
50
180.0000000000
51
240.0000000000
0
SOLID
5
26F
100
AcDbEntity
8
0
100
AcDbTrace
62
2
6
CONTINUOUS
10
48.4349578629
20
216.4195433061
11
46.1824589036
21
214.3759561564
12
45.6414305826
22
215.2169605297
13
45.6414305826
23
215.2169605297
0
SOLID
5
270
100
AcDbEntity
8
0
100
AcDbTrace
62
2
6
CONTINUOUS
10
48.4349578629
20
162.3611854167
11
45.6414305826
21
163.5637681932
12
46.1824589036
22
164.4047725664
13
46.1824589036
23
164.4047725664
0
ENDBLK
5
271
100
AcDbEntity
8
0
100
AcDbBlockEnd
0
BLOCK
5
272
100
AcDbEntity
8
0
100
AcDbBlockBegin
62
2
6
CONTINUOUS
2
*D7
70
65
10
0.0000000000
20
0.0000000000
3
*D7
1

0
TEXT
5
273
100
AcDbEntity
8
0
100
AcDbText
62
2
6
CONTINUOUS
10
142.8349753398
20
203.0384027819
7
TEXTSTYLE_0
40
3.6000000000
1
R
50
44.8939530853
51
12.0000000000
72
5
11
144.4926648731
21
204.6899673163
100
AcDbText
0
TEXT
5
274
100
AcDbEntity
8
0
100
AcDbText
62
2
6
CONTINUOUS
10
144.4926648731
20
204.6899673163
7
TEXTSTYLE_0
40
3.6000000000
1
4
50
44.8939530853
51
12.0000000000
72
5
11
146.1503544063
21
206.3415318507
100
AcDbText
0
LINE
5
275
100
AcDbEntity
8
0
100
AcDbLine
62
2
6
CONTINUOUS
10
136.1072786351
20
195.0367388380
11
146.7997626635
21
205.6897151955
0
SOLID
5
276
100
AcDbEntity
8
0
100
AcDbTrace
62
2
6
CONTINUOUS
10
137.8796232216
20
197.5083364320
11
136.1072786351
21
195.0367388380
12
138.5854200312
22
196.7999221015
13
138.5854200312
23
196.7999221015
0
ENDBLK
5
277
100
AcDbEntity
8
0
100
AcDbBlockEnd
0
BLOCK
5
278
100
AcDbEntity
8
0
100
AcDbBlockBegin
62
2
6
CONTINUOUS
2
*D8
70
65
10
0.0000000000
20
0.0000000000
3
*D8
1

0
TEXT
5
279
100
AcDbEntity
8
0
100
AcDbText
62
2
6
CONTINUOUS
10
146.5474645147
20
186.4038624354
7
TEXTSTYLE_0
40
3.6000000000
1
%%c
50
90.0000000000
51
12.0000000000
72
5
11
146.5474645147
21
191.2038624354
100
AcDbText
0
TEXT
5
27A
100
AcDbEntity
8
0
100
AcDbText
62
2
6
CONTINUOUS
10
146.5474645147
20
191.2038624354
7
TEXTSTYLE_0
40
3.6000000000
1
8
50
90.0000000000
51
12.0000000000
72
5
11
146.5474645147
21
193.5438624354
100
AcDbText
0
LINE
5
27B
100
AcDbEntity
8
0
100
AcDbLine
62
2
6
CONTINUOUS
10
130.4399639914
20
181.3903643614
11
134.3246971122
21
181.3903643614
0
LINE
5
27C
100
AcDbEntity
8
0
100
AcDbLine
62
2
6
CONTINUOUS
10
141.9954630118
20
181.3903643614
11
149.4675710501
21
181.3903643614
0
LINE
5
27D
100
AcDbEntity
8
0
100
AcDbLine
62
2
6
CONTINUOUS
10
130.4399639914
20
197.3903643614
11
136.8318252682
21
197.3903643614
0
LINE
5
27E
100
AcDbEntity
8
0
100
AcDbLine
62
2
6
CONTINUOUS
10
139.2758956225
20
197.3903643614
11
149.4675710501
21
197.3903643614
0
LINE
5
27F
100
AcDbEntity
8
0
100
AcDbLine
62
2
6
CONTINUOUS
10
147.4675710501
20
181.3903643614
11
147.4675710501
21
189.3903643614
0
LINE
5
280
100
AcDbEntity
8
0
100
AcDbLine
62
2
6
CONTINUOUS
10
147.4675710501
20
197.3903643614
11
147.4675710501
21
189.3903643614
0
SOLID
5
281
100
AcDbEntity
8
0
100
AcDbTrace
62
2
6
CONTINUOUS
10
146.9675710501
20
184.3903643614
11
147.4675710501
21
181.3903643614
12
147.9675710501
22
184.3903643614
13
147.9675710501
23
184.3903643614
0
SOLID
5
282
100
AcDbEntity
8
0
100
AcDbTrace
62
2
6
CONTINUOUS
10
147.9675710501
20
194.3903643614
11
147.4675710501
21
197.3903643614
12
146.9675710501
22
194.3903643614
13
146.9675710501
23
194.3903643614
0
ENDBLK
5
283
100
AcDbEntity
8
0
100
AcDbBlockEnd
0
BLOCK
5
284
100
AcDbEntity
8
0
100
AcDbBlockBegin
62
2
6
CONTINUOUS
2
*D9
70
65
10
0.0000000000
20
0.0000000000
3
*D9
1

0
TEXT
5
285
100
AcDbEntity
8
0
100
AcDbText
62
2
6
CONTINUOUS
10
130.9391051160
20
216.0675500964
7
TEXTSTYLE_0
40
3.6000000000
1
6
51
12.0000000000
72
5
11
133.2791051160
21
216.0675500964
100
AcDbText
0
LINE
5
286
100
AcDbEntity
8
0
100
AcDbLine
62
2
6
CONTINUOUS
10
126.4399639914
20
203.0173035647
11
126.4399639914
21
217.1474435610
0
LINE
5
287
100
AcDbEntity
8
0
100
AcDbLine
62
2
6
CONTINUOUS
10
138.4399639914
20
205.3903643614
11
138.4399639914
21
217.1474435610
0
LINE
5
288
100
AcDbEntity
8
0
100
AcDbLine
62
2
6
CONTINUOUS
10
126.4399639914
20
215.1474435610
11
132.4399639914
21
215.1474435610
0
LINE
5
289
100
AcDbEntity
8
0
100
AcDbLine
62
2
6
CONTINUOUS
10
138.4399639914
20
215.1474435610
11
132.4399639914
21
215.1474435610
0
SOLID
5
28A
100
AcDbEntity
8
0
100
AcDbTrace
62
2
6
CONTINUOUS
10
129.4399639914
20
215.6474435610
11
126.4399639914
21
215.1474435610
12
129.4399639914
22
214.6474435610
13
129.4399639914
23
214.6474435610
0
SOLID
5
28B
100
AcDbEntity
8
0
100
AcDbTrace
62
2
6
CONTINUOUS
10
135.4399639914
20
214.6474435610
11
138.4399639914
21
215.1474435610
12
135.4399639914
22
215.6474435610
13
135.4399639914
23
215.6474435610
0
ENDBLK
5
28C
100
AcDbEntity
8
0
100
AcDbBlockEnd
0
BLOCK
5
28D
100
AcDbEntity
8
0
100
AcDbBlockBegin
62
2
6
CONTINUOUS
2
*D10
70
65
10
0.0000000000
20
0.0000000000
3
*D10
1

0
TEXT
5
28E
100
AcDbEntity
8
0
100
AcDbText
62
2
6
CONTINUOUS
10
70.9332034248
20
216.6130632396
7
TEXTSTYLE_0
40
3.6000000000
1
x45%%d
51
12.0000000000
72
5
11
80.3532034248
21
216.6130632396
100
AcDbText
0
TEXT
5
28F
100
AcDbEntity
8
0
100
AcDbText
62
2
6
CONTINUOUS
10
62.7732034248
20
210.1723174919
7
TEXTSTYLE_0
40
3.6000000000
1
2 chamfers
51
12.0000000000
72
5
11
86.1732034248
21
210.1723174919
100
AcDbText
0
TEXT
5
290
100
AcDbEntity
8
0
100
AcDbText
62
2
6
CONTINUOUS
10
68.5932034248
20
216.6130632396
7
TEXTSTYLE_0
40
3.6000000000
1
1
51
12.0000000000
72
5
11
70.9332034248
21
216.6130632396
100
AcDbText
0
LINE
5
291
100
AcDbEntity
8
0
100
AcDbLine
62
2
6
CONTINUOUS
10
58.4399639914
20
203.3903643614
11
58.4399639914
21
217.6929567042
0
LINE
5
292
100
AcDbEntity
8
0
100
AcDbLine
62
2
6
CONTINUOUS
10
60.4399639914
20
205.3903643614
11
60.4399639914
21
217.6929567042
0
LINE
5
293
100
AcDbEntity
8
0
100
AcDbLine
62
2
6
CONTINUOUS
10
58.4399639914
20
215.6929567042
11
55.4399639914
21
215.6929567042
0
LINE
5
294
100
AcDbEntity
8
0
100
AcDbLine
62
2
6
CONTINUOUS
10
55.4399639914
20
215.6929567042
11
59.4399639914
21
215.6929567042
0
LINE
5
295
100
AcDbEntity
8
0
100
AcDbLine
62
2
6
CONTINUOUS
10
60.4399639914
20
215.6929567042
11
86.1732034248
21
215.6929567042
0
LINE
5
296
100
AcDbEntity
8
0
100
AcDbLine
62
2
6
CONTINUOUS
10
86.1732034248
20
215.6929567042
11
59.4399639914
21
215.6929567042
0
SOLID
5
297
100
AcDbEntity
8
0
100
AcDbTrace
62
2
6
CONTINUOUS
10
55.4399639914
20
215.1929567042
11
58.4399639914
21
215.6929567042
12
55.4399639914
22
216.1929567042
13
55.4399639914
23
216.1929567042
0
SOLID
5
298
100
AcDbEntity
8
0
100
AcDbTrace
62
2
6
CONTINUOUS
10
63.4399639914
20
216.1929567042
11
60.4399639914
21
215.6929567042
12
63.4399639914
22
215.1929567042
13
63.4399639914
23
215.1929567042
0
ENDBLK
5
299
100
AcDbEntity
8
0
100
AcDbBlockEnd
0
BLOCK
5
29A
100
AcDbEntity
8
0
100
AcDbBlockBegin
62
2
6
CONTINUOUS
2
UGOL_BL0
70
64
10
0.0000000000
20
0.0000000000
3
UGOL_BL0
1

0
TEXT
5
29B
100
AcDbEntity
8
0
100
AcDbText
62
2
6
CONTINUOUS
10
190.0698819758
20
278.2726124107
7
TEXTSTYLE_0
40
3.5000000000
1
 
72
5
11
192.3448819758
21
278.2726124107
100
AcDbText
0
TEXT
5
29C
100
AcDbEntity
8
0
100
AcDbText
62
2
6
CONTINUOUS
10
170.7993113146
20
281.5196385498
7
TEXTSTYLE_0
40
6.1600000000
1
Rz40
51
15.0000000000
72
5
11
186.8153113146
21
281.5196385498
100
AcDbText
0
TEXT
5
29D
100
AcDbEntity
8
0
100
AcDbText
62
2
6
CONTINUOUS
10
186.8145393051
20
271.7956406330
7
TEXTSTYLE_0
40
5.0000000000
1
( )
72
5
11
196.5645393051
21
271.7956406330
100
AcDbText
0
LINE
5
29E
100
AcDbEntity
8
0
100
AcDbLine
62
2
6
CONTINUOUS
39
0.5681818182
10
188.8236141252
20
276.9697348205
11
191.8430636570
21
271.7398948205
0
LINE
5
29F
100
AcDbEntity
8
0
100
AcDbLine
62
2
6
CONTINUOUS
39
0.5681818182
10
191.8430636570
20
271.7398948205
11
194.8625131888
21
276.9697348205
0
LINE
5
2A0
100
AcDbEntity
8
0
100
AcDbLine
62
2
6
CONTINUOUS
39
0.5681818182
10
194.8625131888
20
276.9697348205
11
197.8926321536
21
282.2180548205
0
LINE
5
2A1
100
AcDbEntity
8
0
100
AcDbLine
62
2
6
CONTINUOUS
39
0.5681818182
10
178.1228590356
20
279.9609929928
11
182.7728113146
21
271.9070393928
0
LINE
5
2A2
100
AcDbEntity
8
0
100
AcDbLine
62
2
6
CONTINUOUS
39
0.5681818182
10
182.7728113146
20
271.9070393928
11
187.4227635936
21
279.9609929928
0
LINE
5
2A3
100
AcDbEntity
8
0
100
AcDbLine
62
2
6
CONTINUOUS
39
0.5681818182
10
187.4227635936
20
279.9609929928
11
192.0891467994
21
288.0434057928
0
ENDBLK
5
2A4
100
AcDbEntity
8
0
100
AcDbBlockEnd
0
BLOCK
5
2A5
100
AcDbEntity
8
0
100
AcDbBlockBegin
62
2
6
CONTINUOUS
2
STANDARD_BL1
70
64
10
0.0000000000
20
0.0000000000
3
STANDARD_BL1
1

0
TEXT
5
2A6
100
AcDbEntity
8
0
100
AcDbText
62
2
6
CONTINUOUS
10
138.4532554625
20
173.8273050649
7
TEXTSTYLE_0
40
3.6000000000
1
0,8
50
35.0000000000
51
15.0000000000
72
5
11
144.2037028134
21
177.8538116481
100
AcDbText
0
LINE
5
2A7
100
AcDbEntity
8
0
100
AcDbLine
62
2
6
CONTINUOUS
39
0.5681818182
10
139.9543666041
20
180.5402138845
11
135.0285754822
21
182.8371480071
0
LINE
5
2A8
100
AcDbEntity
8
0
100
AcDbLine
62
2
6
CONTINUOUS
39
0.5681818182
10
135.0285754822
20
182.8371480071
11
135.5022677422
21
177.4228207005
0
LINE
5
2A9
100
AcDbEntity
8
0
100
AcDbLine
62
2
6
CONTINUOUS
39
0.5681818182
10
135.5022677422
20
177.4228207005
11
135.9776338263
21
171.9893614954
0
ENDBLK
5
2AA
100
AcDbEntity
8
0
100
AcDbBlockEnd
0
ENDSEC
0
SECTION
2
ENTITIES
0
DIMENSION
5
2AB
100
AcDbEntity
8
0
100
AcDbDimension
62
2
6
CONTINUOUS
2
*D0
10
42.1986197591
20
205.3903643614
11
39.4785132003
21
189.1648179000
3
DIMSTYLE_1
100
AcDbAlignedDimension
13
60.3533375702
23
173.3903643614
14
60.5704670359
24
205.3903643614
50
90.000000
100
AcDbRotatedDimension
0
DIMENSION
5
2AC
100
AcDbEntity
8
0
100
AcDbDimension
62
2
6
CONTINUOUS
2
*D1
10
138.4399639914
20
222.8300507883
11
94.6211459940
21
225.5501573237
3
DIMSTYLE_2
100
AcDbAlignedDimension
13
58.4399639914
23
205.3903643614
14
138.4399639914
24
189.3903643614
100
AcDbRotatedDimension
0
DIMENSION
5
2AD
100
AcDbEntity
8
0
100
AcDbDimension
62
2
6
CONTINUOUS
2
*D2
10
76.4399639914
20
162.2102101435
11
67.5484973485
21
164.9303166789
3
DIMSTYLE_1
100
AcDbAlignedDimension
13
58.4399639914
23
205.3903643614
14
76.4399639914
24
198.6903643614
100
AcDbRotatedDimension
0
DIMENSION
5
2AE
100
AcDbEntity
8
0
100
AcDbDimension
62
2
6
CONTINUOUS
2
*D3
10
163.5692792211
20
160.8208583981
11
145.7850189503
21
164.4771566971
3
DIMSTYLE_3
100
AcDbAlignedDimension
13
179.5692792211
23
184.7715622079
14
163.5692792211
24
184.7715622079
50
180.000000
100
AcDbRotatedDimension
0
DIMENSION
5
2AF
100
AcDbEntity
8
0
100
AcDbDimension
62
2
6
CONTINUOUS
2
*D4
10
52.5078685654
20
199.0903643614
11
49.7877620301
21
189.3939817069
3
DIMSTYLE_1
100
AcDbAlignedDimension
13
58.4399639914
23
179.6903643614
14
58.4399639914
24
199.0903643614
50
90.000000
100
AcDbRotatedDimension
0
DIMENSION
5
2B0
100
AcDbEntity
8
0
100
AcDbDimension
62
2
6
CONTINUOUS
2
*D5
10
196.3830342198
20
180.1527600544
11
193.6629276844
21
189.3333239915
3
DIMSTYLE_4
100
AcDbAlignedDimension
13
171.5692792211
23
198.6279686684
14
171.5692792211
24
180.1527600544
50
270.000000
100
AcDbRotatedDimension
0
DIMENSION
5
2B1
100
AcDbEntity
8
0
100
AcDbDimension
62
2
6
CONTINUOUS
2
*D6
10
59.4257110443
20
181.3977283405
11
27.3497031186
21
189.5770895638
70
2
3
DIMSTYLE_5
100
AcDb2LineAngularDimension
13
59.4257110443
23
197.3830003824
14
47.4349578629
24
218.1515941137
15
47.4349578629
25
160.6291346092
16
32.8296541232
26
189.3903643614
0
DIMENSION
5
2B2
100
AcDbEntity
8
0
100
AcDbDimension
62
2
6
CONTINUOUS
2
*D7
10
130.4399639914
20
189.3903643614
11
143.2222306158
21
205.9651131111
70
4
3
DIMSTYLE_6
100
AcDbRadialDimension
15
136.1072786351
25
195.0367388380
0
DIMENSION
5
2B3
100
AcDbEntity
8
0
100
AcDbDimension
62
2
6
CONTINUOUS
2
*D8
10
147.4675710501
20
197.3903643614
11
144.7474645147
21
189.9738624354
3
DIMSTYLE_1
100
AcDbAlignedDimension
13
130.4399639914
23
181.3903643614
14
130.4399639914
24
197.3903643614
50
90.000000
100
AcDbRotatedDimension
0
DIMENSION
5
2B4
100
AcDbEntity
8
0
100
AcDbDimension
62
2
6
CONTINUOUS
2
*D9
10
138.4399639914
20
215.1474435610
11
132.1091051160
21
217.8675500964
3
DIMSTYLE_6
100
AcDbAlignedDimension
13
126.4399639914
23
203.0173035647
14
138.4399639914
24
205.3903643614
100
AcDbRotatedDimension
0
DIMENSION
5
2B5
100
AcDbEntity
8
0
100
AcDbDimension
62
2
6
CONTINUOUS
2
*D10
10
60.4399639914
20
215.6929567042
11
74.4732034248
21
215.1926903658
3
DIMSTYLE_6
100
AcDbAlignedDimension
13
58.4399639914
23
203.3903643614
14
60.4399639914
24
205.3903643614
100
AcDbRotatedDimension
0
LINE
5
2B6
100
AcDbEntity
8
0
100
AcDbLine
62
7
6
CONTINUOUS
10
90.0000000000
20
278.3498994289
11
20.0000000000
21
278.3498994289
0
LINE
5
2B7
100
AcDbEntity
8
0
100
AcDbLine
62
7
6
CONTINUOUS
10
90.0000000000
20
278.3498994289
11
90.0000000000
21
292.3498994289
0
LINE
5
2B8
100
AcDbEntity
8
0
100
AcDbLine
62
7
6
CONTINUOUS
10
90.0000000000
20
292.3498994289
11
20.0000000000
21
292.3498994289
0
LINE
5
2B9
100
AcDbEntity
8
0
100
AcDbLine
62
7
6
CONTINUOUS
10
20.0000000000
20
278.3498994289
11
20.0000000000
21
292.3498994289
0
TEXT
5
2BA
100
AcDbEntity
8
0
100
AcDbText
62
2
6
CONTINUOUS
10
79.5000000000
20
288.9280915109
7
TEXTSTYLE_0
40
7.0000000000
1
IPCS.05.200.03
50
180.0000000000
51
12.0000000000
72
5
11
30.5000000000
21
288.9280915109
100
AcDbText
0
LINE
5
2BB
100
AcDbEntity
8
0
100
AcDbLine
62
7
6
CONTINUOUS
10
205.0000000000
20
5.0000000000
11
20.0000000000
21
5.0000000000
0
LINE
5
2BC
100
AcDbEntity
8
0
100
AcDbLine
62
7
6
CONTINUOUS
10
205.0000000000
20
5.0000000000
11
205.0000000000
21
60.0000000000
0
LINE
5
2BD
100
AcDbEntity
8
0
100
AcDbLine
62
7
6
CONTINUOUS
10
85.0000000000
20
10.0000000000
11
20.0000000000
21
10.0000000000
0
LINE
5
2BE
100
AcDbEntity
8
0
100
AcDbLine
62
7
6
CONTINUOUS
10
155.0000000000
20
12.5000000000
11
105.0000000000
21
12.5000000000
0
LINE
5
2BF
100
AcDbEntity
8
0
100
AcDbLine
62
7
6
CONTINUOUS
10
85.0000000000
20
15.0000000000
11
20.0000000000
21
15.0000000000
0
LINE
5
2C0
100
AcDbEntity
8
0
100
AcDbLine
62
7
6
CONTINUOUS
10
205.0000000000
20
20.0000000000
11
20.0000000000
21
20.0000000000
0
LINE
5
2C1
100
AcDbEntity
8
0
100
AcDbLine
62
7
6
CONTINUOUS
10
205.0000000000
20
25.0000000000
11
155.0000000000
21
25.0000000000
0
LINE
5
2C2
100
AcDbEntity
8
0
100
AcDbLine
62
7
6
CONTINUOUS
10
85.0000000000
20
25.0000000000
11
20.0000000000
21
25.0000000000
0
LINE
5
2C3
100
AcDbEntity
8
0
100
AcDbLine
62
7
6
CONTINUOUS
10
85.0000000000
20
30.0000000000
11
20.0000000000
21
30.0000000000
0
LINE
5
2C4
100
AcDbEntity
8
0
100
AcDbLine
62
7
6
CONTINUOUS
10
85.0000000000
20
35.0000000000
11
20.0000000000
21
35.0000000000
0
LINE
5
2C5
100
AcDbEntity
8
0
100
AcDbLine
62
7
6
CONTINUOUS
10
205.0000000000
20
40.0000000000
11
155.0000000000
21
40.0000000000
0
LINE
5
2C6
100
AcDbEntity
8
0
100
AcDbLine
62
7
6
CONTINUOUS
10
85.0000000000
20
40.0000000000
11
20.0000000000
21
40.0000000000
0
LINE
5
2C7
100
AcDbEntity
8
0
100
AcDbLine
62
7
6
CONTINUOUS
10
205.0000000000
20
45.0000000000
11
20.0000000000
21
45.0000000000
0
LINE
5
2C8
100
AcDbEntity
8
0
100
AcDbLine
62
7
6
CONTINUOUS
10
85.0000000000
20
50.0000000000
11
20.0000000000
21
50.0000000000
0
LINE
5
2C9
100
AcDbEntity
8
0
100
AcDbLine
62
7
6
CONTINUOUS
10
85.0000000000
20
55.0000000000
11
20.0000000000
21
55.0000000000
0
LINE
5
2CA
100
AcDbEntity
8
0
100
AcDbLine
62
7
6
CONTINUOUS
10
205.0000000000
20
60.0000000000
11
20.0000000000
21
60.0000000000
0
LINE
5
2CB
100
AcDbEntity
8
0
100
AcDbLine
62
7
6
CONTINUOUS
10
187.0000000000
20
25.0000000000
11
187.0000000000
21
45.0000000000
0
LINE
5
2CC
100
AcDbEntity
8
0
100
AcDbLine
62
7
6
CONTINUOUS
10
175.0000000000
20
20.0000000000
11
175.0000000000
21
25.0000000000
0
LINE
5
2CD
100
AcDbEntity
8
0
100
AcDbLine
62
7
6
CONTINUOUS
10
170.0000000000
20
25.0000000000
11
170.0000000000
21
45.0000000000
0
LINE
5
2CE
100
AcDbEntity
8
0
100
AcDbLine
62
7
6
CONTINUOUS
10
165.0000000000
20
25.0000000000
11
165.0000000000
21
40.0000000000
0
LINE
5
2CF
100
AcDbEntity
8
0
100
AcDbLine
62
7
6
CONTINUOUS
10
160.0000000000
20
25.0000000000
11
160.0000000000
21
40.0000000000
0
LINE
5
2D0
100
AcDbEntity
8
0
100
AcDbLine
62
7
6
CONTINUOUS
10
155.0000000000
20
5.0000000000
11
155.0000000000
21
45.0000000000
0
LINE
5
2D1
100
AcDbEntity
8
0
100
AcDbLine
62
7
6
CONTINUOUS
10
85.0000000000
20
5.0000000000
11
85.0000000000
21
60.0000000000
0
LINE
5
2D2
100
AcDbEntity
8
0
100
AcDbLine
62
7
6
CONTINUOUS
10
75.0000000000
20
5.0000000000
11
75.0000000000
21
60.0000000000
0
LINE
5
2D3
100
AcDbEntity
8
0
100
AcDbLine
62
7
6
CONTINUOUS
10
60.0000000000
20
5.0000000000
11
60.0000000000
21
60.0000000000
0
LINE
5
2D4
100
AcDbEntity
8
0
100
AcDbLine
62
7
6
CONTINUOUS
10
37.0000000000
20
5.0000000000
11
37.0000000000
21
60.0000000000
0
LINE
5
2D5
100
AcDbEntity
8
0
100
AcDbLine
62
7
6
CONTINUOUS
10
27.0000000000
20
35.0000000000
11
27.0000000000
21
60.0000000000
0
LINE
5
2D6
100
AcDbEntity
8
0
100
AcDbLine
62
7
6
CONTINUOUS
10
20.0000000000
20
5.0000000000
11
20.0000000000
21
60.0000000000
0
TEXT
5
2D7
100
AcDbEntity
8
0
100
AcDbText
62
2
6
CONTINUOUS
10
172.3000000000
20
8.9218079180
7
TEXTSTYLE_0
40
7.0000000000
1
PNPI
51
12.0000000000
72
5
11
187.7000000000
21
8.9218079180
100
AcDbText
0
TEXT
5
2D8
100
AcDbEntity
8
0
100
AcDbText
62
2
6
CONTINUOUS
10
109.3000000000
20
6.3986166318
7
TEXTSTYLE_0
40
4.6000000000
1
45 GOST 1050-88
51
12.0000000000
72
5
11
150.7000000000
21
6.3986166318
100
AcDbText
0
TEXT
5
2D9
100
AcDbEntity
8
0
100
AcDbText
62
2
6
CONTINUOUS
10
86.7200000000
20
10.1486166318
7
TEXTSTYLE_0
40
4.6000000000
1
Rounds
51
12.0000000000
72
5
11
103.2800000000
21
10.1486166318
100
AcDbText
0
TEXT
5
2DA
100
AcDbEntity
8
0
100
AcDbText
62
2
6
CONTINUOUS
10
42.3400000000
20
5.8642550482
7
TEXTSTYLE_0
40
3.2000000000
1
Trounov
51
12.0000000000
72
5
11
54.6600000000
21
5.8642550482
100
AcDbText
0
TEXT
5
2DB
100
AcDbEntity
8
0
100
AcDbText
62
2
6
CONTINUOUS
10
21.0760000000
20
5.8642550482
7
TEXTSTYLE_0
40
3.2000000000
1
Approved
51
12.0000000000
72
5
11
35.9240000000
21
5.8642550482
100
AcDbText
0
TEXT
5
2DC
100
AcDbEntity
8
0
100
AcDbText
62
2
6
CONTINUOUS
10
109.3000000000
20
13.8986166318
7
TEXTSTYLE_0
40
4.6000000000
1
18 GOST 2590-88
51
12.0000000000
72
5
11
150.7000000000
21
13.8986166318
100
AcDbText
0
TEXT
5
2DD
100
AcDbEntity
8
0
100
AcDbText
62
2
6
CONTINUOUS
10
181.9600000000
20
20.7875795036
7
TEXTSTYLE_0
40
3.3500000000
1
Sheets 1
51
12.0000000000
72
5
11
198.0400000000
21
20.7875795036
100
AcDbText
0
TEXT
5
2DE
100
AcDbEntity
8
0
100
AcDbText
62
2
6
CONTINUOUS
10
159.9750000000
20
20.7875795036
7
TEXTSTYLE_0
40
3.3500000000
1
Sheet
51
12.0000000000
72
5
11
170.0250000000
21
20.7875795036
100
AcDbText
0
TEXT
5
2DF
100
AcDbEntity
8
0
100
AcDbText
62
2
6
CONTINUOUS
10
93.0000000000
20
29.4329782154
7
TEXTSTYLE_0
40
6.0000000000
1
Adjusting screw
51
12.0000000000
72
5
11
147.0000000000
21
29.4329782154
100
AcDbText
0
TEXT
5
2E0
100
AcDbEntity
8
0
100
AcDbText
62
2
6
CONTINUOUS
10
189.7000000000
20
28.9218079180
7
TEXTSTYLE_0
40
7.0000000000
1
2:1
51
12.0000000000
72
5
11
202.3000000000
21
28.9218079180
100
AcDbText
0
TEXT
5
2E1
100
AcDbEntity
8
0
100
AcDbText
62
2
6
CONTINUOUS
10
172.2500000000
20
29.9441485128
7
TEXTSTYLE_0
40
5.0000000000
1
50,72
51
12.0000000000
72
5
11
184.7500000000
21
29.9441485128
100
AcDbText
0
TEXT
5
2E2
100
AcDbEntity
8
0
100
AcDbText
62
2
6
CONTINUOUS
10
42.3400000000
20
25.8642550482
7
TEXTSTYLE_0
40
3.2000000000
1
Boulkin
51
12.0000000000
72
5
11
54.6600000000
21
25.8642550482
100
AcDbText
0
TEXT
5
2E3
100
AcDbEntity
8
0
100
AcDbText
62
2
6
CONTINUOUS
10
22.0040000000
20
25.8642550482
7
TEXTSTYLE_0
40
3.2000000000
1
Checked
51
12.0000000000
72
5
11
34.9960000000
21
25.8642550482
100
AcDbText
0
TEXT
5
2E4
100
AcDbEntity
8
0
100
AcDbText
62
2
6
CONTINUOUS
10
75.9050000000
20
31.1709572267
7
TEXTSTYLE_0
40
2.6000000000
1
16.7.03
51
12.0000000000
72
5
11
84.0950000000
21
31.1709572267
100
AcDbText
0
TEXT
5
2E5
100
AcDbEntity
8
0
100
AcDbText
62
2
6
CONTINUOUS
10
39.7000000000
20
30.8642550482
7
TEXTSTYLE_0
40
3.2000000000
1
Schebetova
51
12.0000000000
72
5
11
57.3000000000
21
30.8642550482
100
AcDbText
0
TEXT
5
2E6
100
AcDbEntity
8
0
100
AcDbText
62
2
6
CONTINUOUS
10
21.0760000000
20
30.8642550482
7
TEXTSTYLE_0
40
3.2000000000
1
Designed
51
12.0000000000
72
5
11
35.9240000000
21
30.8642550482
100
AcDbText
0
TEXT
5
2E7
100
AcDbEntity
8
0
100
AcDbText
62
2
6
CONTINUOUS
10
76.2880000000
20
35.8642550482
7
TEXTSTYLE_0
40
3.2000000000
1
Date
51
12.0000000000
72
5
11
83.7120000000
21
35.8642550482
100
AcDbText
0
TEXT
5
2E8
100
AcDbEntity
8
0
100
AcDbText
62
2
6
CONTINUOUS
10
60.7162500000
20
35.7875795036
7
TEXTSTYLE_0
40
3.3500000000
1
Signature
51
12.0000000000
72
5
11
74.2837500000
21
35.7875795036
100
AcDbText
0
TEXT
5
2E9
100
AcDbEntity
8
0
100
AcDbText
62
2
6
CONTINUOUS
10
38.2920000000
20
35.8642550482
7
TEXTSTYLE_0
40
3.2000000000
1
N document.
51
12.0000000000
72
5
11
58.7080000000
21
35.8642550482
100
AcDbText
0
TEXT
5
2EA
100
AcDbEntity
8
0
100
AcDbText
62
2
6
CONTINUOUS
10
27.3600000000
20
35.8642550482
7
TEXTSTYLE_0
40
3.2000000000
1
Sheet
51
12.0000000000
72
5
11
36.6400000000
21
35.8642550482
100
AcDbText
0
TEXT
5
2EB
100
AcDbEntity
8
0
100
AcDbText
62
2
6
CONTINUOUS
10
20.7160000000
20
35.8642550482
7
TEXTSTYLE_0
40
3.2000000000
1
Chg
51
12.0000000000
72
5
11
26.2840000000
21
35.8642550482
100
AcDbText
0
TEXT
5
2EC
100
AcDbEntity
8
0
100
AcDbText
62
2
6
CONTINUOUS
10
190.9750000000
20
40.7875795036
7
TEXTSTYLE_0
40
3.3500000000
1
Scale
51
12.0000000000
72
5
11
201.0250000000
21
40.7875795036
100
AcDbText
0
TEXT
5
2ED
100
AcDbEntity
8
0
100
AcDbText
62
2
6
CONTINUOUS
10
174.4800000000
20
40.7875795036
7
TEXTSTYLE_0
40
3.3500000000
1
Mass
51
12.0000000000
72
5
11
182.5200000000
21
40.7875795036
100
AcDbText
0
TEXT
5
2EE
100
AcDbEntity
8
0
100
AcDbText
62
2
6
CONTINUOUS
10
158.4800000000
20
40.7875795036
7
TEXTSTYLE_0
40
3.3500000000
1
Type
51
12.0000000000
72
5
11
166.5200000000
21
40.7875795036
100
AcDbText
0
TEXT
5
2EF
100
AcDbEntity
8
0
100
AcDbText
62
2
6
CONTINUOUS
10
111.4000000000
20
48.4106376205
7
TEXTSTYLE_0
40
8.0000000000
1
IPCS.05.200.03
51
12.0000000000
72
5
11
178.6000000000
21
48.4106376205
100
AcDbText
0
LINE
5
2F0
100
AcDbEntity
8
0
100
AcDbLine
62
2
6
CONTINUOUS
10
19.9069649276
20
141.4274740369
11
154.9069749276
21
141.4274740369
0
LINE
5
2F1
100
AcDbEntity
8
0
100
AcDbLine
62
2
6
CONTINUOUS
10
19.9069649276
20
141.4274740369
11
19.9069649276
21
115.4274739369
0
LINE
5
2F2
100
AcDbEntity
8
0
100
AcDbLine
62
2
6
CONTINUOUS
10
19.9069649276
20
131.4274740369
11
154.9069749276
21
131.4274740369
0
LINE
5
2F3
100
AcDbEntity
8
0
100
AcDbLine
62
2
6
CONTINUOUS
10
19.9069649276
20
131.4274739369
11
154.9069749276
21
131.4274739369
0
LINE
5
2F4
100
AcDbEntity
8
0
100
AcDbLine
62
2
6
CONTINUOUS
10
19.9069649276
20
123.4274739369
11
154.9069749276
21
123.4274739369
0
LINE
5
2F5
100
AcDbEntity
8
0
100
AcDbLine
62
2
6
CONTINUOUS
10
19.9069649276
20
115.4274739369
11
154.9069749276
21
115.4274739369
0
LINE
5
2F6
100
AcDbEntity
8
0
100
AcDbLine
62
2
6
CONTINUOUS
10
19.9069749276
20
141.4274740369
11
19.9069749276
21
115.4274739369
0
LINE
5
2F7
100
AcDbEntity
8
0
100
AcDbLine
62
2
6
CONTINUOUS
10
64.9069749276
20
141.4274740369
11
64.9069749276
21
115.4274739369
0
LINE
5
2F8
100
AcDbEntity
8
0
100
AcDbLine
62
2
6
CONTINUOUS
10
109.9069749276
20
141.4274740369
11
109.9069749276
21
115.4274739369
0
LINE
5
2F9
100
AcDbEntity
8
0
100
AcDbLine
62
2
6
CONTINUOUS
10
154.9069749276
20
141.4274740369
11
154.9069749276
21
115.4274739369
0
TEXT
5
2FA
100
AcDbEntity
8
0
100
AcDbText
62
2
6
CONTINUOUS
10
37.7269749276
20
134.5872609662
7
TEXTSTYLE_0
40
3.6000000000
1
Code
51
12.0000000000
72
5
11
47.0869749276
21
134.5872609662
100
AcDbText
0
TEXT
5
2FB
100
AcDbEntity
8
0
100
AcDbText
62
2
6
CONTINUOUS
10
80.3869749276
20
134.5872609662
7
TEXTSTYLE_0
40
3.6000000000
1
L
51
12.0000000000
72
5
11
82.7269749276
21
134.5872609662
100
AcDbText
0
TEXT
5
2FC
100
AcDbEntity
8
0
100
AcDbText
62
2
6
CONTINUOUS
10
82.7269749276
20
134.5872609662
7
TEXTSTYLE_0
40
3.6000000000
1
, mm 
51
12.0000000000
72
5
11
94.4269749276
21
134.5872609662
100
AcDbText
0
TEXT
5
2FD
100
AcDbEntity
8
0
100
AcDbText
62
2
6
CONTINUOUS
10
124.2169749276
20
134.5872609662
7
TEXTSTYLE_0
40
3.6000000000
1
Mass, g
51
12.0000000000
72
5
11
140.5969749276
21
134.5872609662
100
AcDbText
0
TEXT
5
2FE
100
AcDbEntity
8
0
100
AcDbText
62
2
6
CONTINUOUS
10
42.4069736276
20
131.4274734758
7
TEXTSTYLE_0
40
0.0000010000
1
CODE
51
12.0000000000
72
5
11
42.4069762276
21
131.4274734758
100
AcDbText
0
TEXT
5
2FF
100
AcDbEntity
8
0
100
AcDbText
62
2
6
CONTINUOUS
10
87.4069746026
20
131.4274734758
7
TEXTSTYLE_0
40
0.0000010000
1
L
51
12.0000000000
72
5
11
87.4069752526
21
131.4274734758
100
AcDbText
0
TEXT
5
300
100
AcDbEntity
8
0
100
AcDbText
62
2
6
CONTINUOUS
10
132.4069710276
20
131.4274734758
7
TEXTSTYLE_0
40
0.0000010000
1
MASS:FID_599
51
12.0000000000
72
5
11
132.4069788276
21
131.4274734758
100
AcDbText
0
TEXT
5
301
100
AcDbEntity
8
0
100
AcDbText
62
2
6
CONTINUOUS
10
19.9069631026
20
127.4274734258
7
TEXTSTYLE_0
40
0.0000010000
1
VINT_PODZHIMNOI_KOROT
51
12.0000000000
72
5
11
19.9069767526
21
127.4274734258
100
AcDbText
0
TEXT
5
302
100
AcDbEntity
8
0
100
AcDbText
62
2
6
CONTINUOUS
10
26.0269749276
20
125.5872608662
7
TEXTSTYLE_0
40
3.6000000000
1
IPCS.05.200.03
51
12.0000000000
72
5
11
58.7869749276
21
125.5872608662
100
AcDbText
0
TEXT
5
303
100
AcDbEntity
8
0
100
AcDbText
62
2
6
CONTINUOUS
10
85.0669749276
20
125.5872608662
7
TEXTSTYLE_0
40
3.6000000000
1
40
51
12.0000000000
72
5
11
89.7469749276
21
125.5872608662
100
AcDbText
0
TEXT
5
304
100
AcDbEntity
8
0
100
AcDbText
62
2
6
CONTINUOUS
10
130.0669749276
20
125.5872608662
7
TEXTSTYLE_0
40
3.6000000000
1
51
51
12.0000000000
72
5
11
134.7469749276
21
125.5872608662
100
AcDbText
0
TEXT
5
305
100
AcDbEntity
8
0
100
AcDbText
62
2
6
CONTINUOUS
10
19.9069634276
20
119.4274734258
7
TEXTSTYLE_0
40
0.0000010000
1
VINT_PODZHIMNOI_DLIN
51
12.0000000000
72
5
11
19.9069764276
21
119.4274734258
100
AcDbText
0
TEXT
5
306
100
AcDbEntity
8
0
100
AcDbText
62
2
6
CONTINUOUS
10
22.5169749276
20
117.5872608662
7
TEXTSTYLE_0
40
3.6000000000
1
IPCS.05.200.03-01
51
12.0000000000
72
5
11
62.2969749276
21
117.5872608662
100
AcDbText
0
TEXT
5
307
100
AcDbEntity
8
0
100
AcDbText
62
2
6
CONTINUOUS
10
85.0669749276
20
117.5872608662
7
TEXTSTYLE_0
40
3.6000000000
1
56
51
12.0000000000
72
5
11
89.7469749276
21
117.5872608662
100
AcDbText
0
TEXT
5
308
100
AcDbEntity
8
0
100
AcDbText
62
2
6
CONTINUOUS
10
130.0669749276
20
117.5872608662
7
TEXTSTYLE_0
40
3.6000000000
1
76
51
12.0000000000
72
5
11
134.7469749276
21
117.5872608662
100
AcDbText
0
TEXT
5
309
100
AcDbEntity
8
0
100
AcDbText
62
2
6
CONTINUOUS
10
22.5317248841
20
86.1766495649
7
TEXTSTYLE_0
40
3.6000000000
1
1. H14, h14, %%pIT14/2 
51
12.0000000000
72
5
11
73.5317248841
21
86.1766495649
100
AcDbText
0
TEXT
5
30A
100
AcDbEntity
8
0
100
AcDbText
62
2
6
CONTINUOUS
10
22.5317248841
20
80.6560103526
7
TEXTSTYLE_0
40
3.6000000000
1
2. Nonindicated tolerances of shape and location of surfaces
51
12.0000000000
72
5
11
162.9317248841
21
80.6560103526
100
AcDbText
0
TEXT
5
30B
100
AcDbEntity
8
0
100
AcDbText
62
2
6
CONTINUOUS
10
22.5317248841
20
75.1353711403
7
TEXTSTYLE_0
40
3.6000000000
1
   in accordance with OST 1.00022-80.
51
12.0000000000
72
5
11
109.1117248841
21
75.1353711403
100
AcDbText
0
TEXT
5
30C
100
AcDbEntity
8
0
100
AcDbText
62
2
6
CONTINUOUS
10
22.5317248841
20
69.6147319281
7
TEXTSTYLE_0
40
3.6000000000
1
3. Form of the hexagonal bottom is arbitrary.
51
12.0000000000
72
5
11
127.8317248841
21
69.6147319281
100
AcDbText
0
TEXT
5
30D
100
AcDbEntity
8
0
100
AcDbText
62
2
6
CONTINUOUS
10
22.5317248841
20
64.0940927158
7
TEXTSTYLE_0
40
3.6000000000
1
4. Coating: Kd9.
51
12.0000000000
72
5
11
59.9717248841
21
64.0940927158
100
AcDbText
0
INSERT
5
30E
100
AcDbEntity
8
0
100
AcDbBlockReference
62
2
6
CONTINUOUS
2
UGOL_BL0
10
0.0000000000
20
0.0000000000
0
INSERT
5
30F
100
AcDbEntity
8
0
100
AcDbBlockReference
62
2
6
CONTINUOUS
2
STANDARD_BL1
10
0.0000000000
20
0.0000000000
0
LINE
5
310
100
AcDbEntity
8
0
100
AcDbLine
62
7
6
CONTINUOUS
10
-0.0000000000
20
0.0000000000
11
210.0000000000
21
0.0000000000
0
LINE
5
311
100
AcDbEntity
8
0
100
AcDbLine
62
7
6
CONTINUOUS
10
205.0000000000
20
5.0000000000
11
20.0000000000
21
5.0000000000
0
LINE
5
312
100
AcDbEntity
8
0
100
AcDbLine
62
7
6
CONTINUOUS
10
-0.0000000000
20
297.0000000000
11
-0.0000000000
21
0.0000000000
0
LINE
5
313
100
AcDbEntity
8
0
100
AcDbLine
62
7
6
CONTINUOUS
10
20.0000000000
20
5.0000000000
11
20.0000000000
21
292.3498994289
0
LINE
5
314
100
AcDbEntity
8
0
100
AcDbLine
62
7
6
CONTINUOUS
10
205.0000000000
20
5.0000000000
11
205.0000000000
21
292.3498994289
0
LINE
5
315
100
AcDbEntity
8
0
100
AcDbLine
62
7
6
CONTINUOUS
10
210.0000000000
20
297.0000000000
11
210.0000000000
21
0.0000000000
0
LINE
5
316
100
AcDbEntity
8
0
100
AcDbLine
62
7
6
CONTINUOUS
10
205.0000000000
20
292.3498994289
11
20.0000000000
21
292.3498994289
0
LINE
5
317
100
AcDbEntity
8
0
100
AcDbLine
62
7
6
CONTINUOUS
10
-0.0000000000
20
297.0000000000
11
210.0000000000
21
297.0000000000
0
LINE
5
318
100
AcDbEntity
8
0
100
AcDbLine
62
7
6
CONTINUOUS
10
58.4399648438
20
203.3903652344
11
58.4399648438
21
175.3903593750
0
POLYLINE
5
319
100
AcDbEntity
8
0
100
AcDb2dPolyline
62
7
6
CONTINUOUS
66
1
70
0
0
VERTEX
5
31A
100
AcDbEntity
8
0
100
AcDbVertex
62
7
6
CONTINUOUS
100
AcDb2dVertex
10
58.7069296875
20
184.7715546875
0
VERTEX
5
31B
100
AcDbEntity
8
0
100
AcDbVertex
62
7
6
CONTINUOUS
100
AcDb2dVertex
10
58.8955839844
20
185.4645546875
0
VERTEX
5
31C
100
AcDbEntity
8
0
100
AcDbVertex
62
7
6
CONTINUOUS
100
AcDb2dVertex
10
59.0552880859
20
186.1423007813
0
VERTEX
5
31D
100
AcDbEntity
8
0
100
AcDbVertex
62
7
6
CONTINUOUS
100
AcDb2dVertex
10
59.1859130859
20
186.8020429688
0
VERTEX
5
31E
100
AcDbEntity
8
0
100
AcDbVertex
62
7
6
CONTINUOUS
100
AcDb2dVertex
10
59.2878349609
20
187.4521171875
0
VERTEX
5
31F
100
AcDbEntity
8
0
100
AcDbVertex
62
7
6
CONTINUOUS
100
AcDb2dVertex
10
59.3616982422
20
188.1000429688
0
VERTEX
5
320
100
AcDbEntity
8
0
100
AcDbVertex
62
7
6
CONTINUOUS
100
AcDb2dVertex
10
59.4064931641
20
188.7457128906
0
VERTEX
5
321
100
AcDbEntity
8
0
100
AcDbVertex
62
7
6
CONTINUOUS
100
AcDb2dVertex
10
59.4212744141
20
189.3916406250
0
VERTEX
5
322
100
AcDbEntity
8
0
100
AcDbVertex
62
7
6
CONTINUOUS
100
AcDb2dVertex
10
59.4063750000
20
190.0375253906
0
VERTEX
5
323
100
AcDbEntity
8
0
100
AcDbVertex
62
7
6
CONTINUOUS
100
AcDb2dVertex
10
59.3614726563
20
190.6831523438
0
VERTEX
5
324
100
AcDbEntity
8
0
100
AcDbVertex
62
7
6
CONTINUOUS
100
AcDb2dVertex
10
59.2875126953
20
191.3309062500
0
VERTEX
5
325
100
AcDbEntity
8
0
100
AcDbVertex
62
7
6
CONTINUOUS
100
AcDb2dVertex
10
59.1855908203
20
191.9805507813
0
VERTEX
5
326
100
AcDbEntity
8
0
100
AcDbVertex
62
7
6
CONTINUOUS
100
AcDb2dVertex
10
59.0550087891
20
192.6397128906
0
VERTEX
5
327
100
AcDbEntity
8
0
100
AcDbVertex
62
7
6
CONTINUOUS
100
AcDb2dVertex
10
58.8954121094
20
193.3168574219
0
VERTEX
5
328
100
AcDbEntity
8
0
100
AcDbVertex
62
7
6
CONTINUOUS
100
AcDb2dVertex
10
58.7069296875
20
194.0091699219
0
SEQEND
5
329
100
AcDbEntity
8
0
0
LINE
5
32A
100
AcDbEntity
8
0
100
AcDbLine
62
7
6
CONTINUOUS
10
60.4399667969
20
205.3903671875
11
58.4399648438
21
203.3903652344
0
LINE
5
32B
100
AcDbEntity
8
0
100
AcDbLine
62
7
6
CONTINUOUS
10
58.4399648438
20
175.3903593750
11
60.4399667969
21
173.3903681641
0
POLYLINE
5
32C
100
AcDbEntity
8
0
100
AcDb2dPolyline
62
7
6
CONTINUOUS
66
1
70
0
0
VERTEX
5
32D
100
AcDbEntity
8
0
100
AcDbVertex
62
7
6
CONTINUOUS
100
AcDb2dVertex
10
58.7069296875
20
184.7715546875
0
VERTEX
5
32E
100
AcDbEntity
8
0
100
AcDbVertex
62
7
6
CONTINUOUS
100
AcDb2dVertex
10
58.8953261719
20
184.4256132813
0
VERTEX
5
32F
100
AcDbEntity
8
0
100
AcDbVertex
62
7
6
CONTINUOUS
100
AcDb2dVertex
10
59.0548906250
20
184.0871054688
0
VERTEX
5
330
100
AcDbEntity
8
0
100
AcDbVertex
62
7
6
CONTINUOUS
100
AcDb2dVertex
10
59.1855048828
20
183.7575136719
0
VERTEX
5
331
100
AcDbEntity
8
0
100
AcDbVertex
62
7
6
CONTINUOUS
100
AcDb2dVertex
10
59.2874912109
20
183.4325410156
0
VERTEX
5
332
100
AcDbEntity
8
0
100
AcDbVertex
62
7
6
CONTINUOUS
100
AcDb2dVertex
10
59.3615156250
20
183.1082988281
0
VERTEX
5
333
100
AcDbEntity
8
0
100
AcDbVertex
62
7
6
CONTINUOUS
100
AcDb2dVertex
10
59.4064394531
20
182.7849804688
0
VERTEX
5
334
100
AcDbEntity
8
0
100
AcDbVertex
62
7
6
CONTINUOUS
100
AcDb2dVertex
10
59.4212636719
20
182.4613828125
0
VERTEX
5
335
100
AcDbEntity
8
0
100
AcDbVertex
62
7
6
CONTINUOUS
100
AcDb2dVertex
10
59.4062890625
20
182.1376777344
0
VERTEX
5
336
100
AcDbEntity
8
0
100
AcDbVertex
62
7
6
CONTINUOUS
100
AcDb2dVertex
10
59.3611503906
20
181.8140800781
0
VERTEX
5
337
100
AcDbEntity
8
0
100
AcDbVertex
62
7
6
CONTINUOUS
100
AcDb2dVertex
10
59.2868574219
20
181.4894511719
0
VERTEX
5
338
100
AcDbEntity
8
0
100
AcDbVertex
62
7
6
CONTINUOUS
100
AcDb2dVertex
10
59.1843232422
20
181.1637050781
0
VERTEX
5
339
100
AcDbEntity
8
0
100
AcDbVertex
62
7
6
CONTINUOUS
100
AcDb2dVertex
10
59.0534189453
20
180.8338339844
0
VERTEX
5
33A
100
AcDbEntity
8
0
100
AcDbVertex
62
7
6
CONTINUOUS
100
AcDb2dVertex
10
58.8943056641
20
180.4964863281
0
VERTEX
5
33B
100
AcDbEntity
8
0
100
AcDbVertex
62
7
6
CONTINUOUS
100
AcDb2dVertex
10
58.7069296875
20
180.1527578125
0
SEQEND
5
33C
100
AcDbEntity
8
0
0
LINE
5
33D
100
AcDbEntity
8
0
100
AcDbLine
62
2
6
CONTINUOUS
10
62.4041821311
20
205.3903643614
11
58.4399639914
21
201.4261481291
0
LINE
5
33E
100
AcDbEntity
8
0
100
AcDbLine
62
2
6
CONTINUOUS
10
65.9397122214
20
205.3903643614
11
59.1773144553
21
198.6279685026
0
LINE
5
33F
100
AcDbEntity
8
0
100
AcDbLine
62
2
6
CONTINUOUS
10
69.4752499411
20
205.3903643614
11
62.7128521750
21
198.6279685026
0
LINE
5
340
100
AcDbEntity
8
0
100
AcDbLine
62
7
6
CONTINUOUS
10
58.7069296875
20
180.1527578125
11
58.4399648438
21
179.6903603516
0
LINE
5
341
100
AcDbEntity
8
0
100
AcDbLine
62
2
6
CONTINUOUS
10
73.0107800315
20
205.3903643614
11
66.2483822653
21
198.6279685026
0
LINE
5
342
100
AcDbEntity
8
0
100
AcDbLine
62
7
6
CONTINUOUS
10
58.7069296875
20
198.6279667969
11
58.4399648438
21
199.0903750000
0
POLYLINE
5
343
100
AcDbEntity
8
0
100
AcDb2dPolyline
62
7
6
CONTINUOUS
66
1
70
0
0
VERTEX
5
344
100
AcDbEntity
8
0
100
AcDbVertex
62
7
6
CONTINUOUS
100
AcDb2dVertex
10
58.7069296875
20
198.6279667969
0
VERTEX
5
345
100
AcDbEntity
8
0
100
AcDbVertex
62
7
6
CONTINUOUS
100
AcDb2dVertex
10
58.8945849609
20
198.2836152344
0
VERTEX
5
346
100
AcDbEntity
8
0
100
AcDbVertex
62
7
6
CONTINUOUS
100
AcDb2dVertex
10
59.0538056641
20
197.9460097656
0
VERTEX
5
347
100
AcDbEntity
8
0
100
AcDbVertex
62
7
6
CONTINUOUS
100
AcDb2dVertex
10
59.1845917969
20
197.6163320313
0
VERTEX
5
348
100
AcDbEntity
8
0
100
AcDbVertex
62
7
6
CONTINUOUS
100
AcDb2dVertex
10
59.2869326172
20
197.2909941406
0
VERTEX
5
349
100
AcDbEntity
8
0
100
AcDbVertex
62
7
6
CONTINUOUS
100
AcDb2dVertex
10
59.3611289063
20
196.9667949219
0
VERTEX
5
34A
100
AcDbEntity
8
0
100
AcDbVertex
62
7
6
CONTINUOUS
100
AcDb2dVertex
10
59.4062246094
20
196.6436699219
0
VERTEX
5
34B
100
AcDbEntity
8
0
100
AcDbVertex
62
7
6
CONTINUOUS
100
AcDb2dVertex
10
59.4212744141
20
196.3205019531
0
VERTEX
5
34C
100
AcDbEntity
8
0
100
AcDbVertex
62
7
6
CONTINUOUS
100
AcDb2dVertex
10
59.4066005859
20
195.9973984375
0
VERTEX
5
34D
100
AcDbEntity
8
0
100
AcDbVertex
62
7
6
CONTINUOUS
100
AcDb2dVertex
10
59.3619130859
20
195.6745312500
0
VERTEX
5
34E
100
AcDbEntity
8
0
100
AcDbVertex
62
7
6
CONTINUOUS
100
AcDb2dVertex
10
59.2881357422
20
195.3505683594
0
VERTEX
5
34F
100
AcDbEntity
8
0
100
AcDbVertex
62
7
6
CONTINUOUS
100
AcDb2dVertex
10
59.1863105469
20
195.0254882813
0
VERTEX
5
350
100
AcDbEntity
8
0
100
AcDbVertex
62
7
6
CONTINUOUS
100
AcDb2dVertex
10
59.0557070313
20
194.6954882813
0
VERTEX
5
351
100
AcDbEntity
8
0
100
AcDbVertex
62
7
6
CONTINUOUS
100
AcDb2dVertex
10
58.8958632813
20
194.3562285156
0
VERTEX
5
352
100
AcDbEntity
8
0
100
AcDbVertex
62
7
6
CONTINUOUS
100
AcDb2dVertex
10
58.7069296875
20
194.0091699219
0
SEQEND
5
353
100
AcDbEntity
8
0
0
LINE
5
354
100
AcDbEntity
8
0
100
AcDbLine
62
2
6
CONTINUOUS
10
76.5463139365
20
205.3903643614
11
69.7839199851
21
198.6279685026
0
LINE
5
355
100
AcDbEntity
8
0
100
AcDbLine
62
2
6
CONTINUOUS
10
80.0818478415
20
205.3903643614
11
73.3194500754
21
198.6279685026
0
POLYLINE
5
356
100
AcDbEntity
8
0
100
AcDb2dPolyline
62
7
6
CONTINUOUS
66
1
70
0
0
VERTEX
5
357
100
AcDbEntity
8
0
100
AcDbVertex
62
7
6
CONTINUOUS
100
AcDb2dVertex
10
76.4759902344
20
194.0091699219
0
VERTEX
5
358
100
AcDbEntity
8
0
100
AcDbVertex
62
7
6
CONTINUOUS
100
AcDb2dVertex
10
76.6640322266
20
194.3543593750
0
VERTEX
5
359
100
AcDbEntity
8
0
100
AcDbVertex
62
7
6
CONTINUOUS
100
AcDb2dVertex
10
76.8234355469
20
194.6924375000
0
VERTEX
5
35A
100
AcDbEntity
8
0
100
AcDbVertex
62
7
6
CONTINUOUS
100
AcDb2dVertex
10
76.9541250000
20
195.0220292969
0
VERTEX
5
35B
100
AcDbEntity
8
0
100
AcDbVertex
62
7
6
CONTINUOUS
100
AcDb2dVertex
10
77.0562832031
20
195.3471953125
0
VERTEX
5
35C
100
AcDbEntity
8
0
100
AcDbVertex
62
7
6
CONTINUOUS
100
AcDb2dVertex
10
77.1304042969
20
195.6715234375
0
VERTEX
5
35D
100
AcDbEntity
8
0
100
AcDbVertex
62
7
6
CONTINUOUS
100
AcDb2dVertex
10
77.1754248047
20
195.9949062500
0
VERTEX
5
35E
100
AcDbEntity
8
0
100
AcDbVertex
62
7
6
CONTINUOUS
100
AcDb2dVertex
10
77.1903242188
20
196.3185468750
0
VERTEX
5
35F
100
AcDbEntity
8
0
100
AcDbVertex
62
7
6
CONTINUOUS
100
AcDb2dVertex
10
77.1754248047
20
196.6422089844
0
VERTEX
5
360
100
AcDbEntity
8
0
100
AcDbVertex
62
7
6
CONTINUOUS
100
AcDb2dVertex
10
77.1303935547
20
196.9656777344
0
VERTEX
5
361
100
AcDbEntity
8
0
100
AcDbVertex
62
7
6
CONTINUOUS
100
AcDb2dVertex
10
77.0562187500
20
197.2901562500
0
VERTEX
5
362
100
AcDbEntity
8
0
100
AcDbVertex
62
7
6
CONTINUOUS
100
AcDb2dVertex
10
76.9538779297
20
197.6157089844
0
VERTEX
5
363
100
AcDbEntity
8
0
100
AcDbVertex
62
7
6
CONTINUOUS
100
AcDb2dVertex
10
76.8230488281
20
197.9455800781
0
VERTEX
5
364
100
AcDbEntity
8
0
100
AcDbVertex
62
7
6
CONTINUOUS
100
AcDb2dVertex
10
76.6637529297
20
198.2834218750
0
VERTEX
5
365
100
AcDbEntity
8
0
100
AcDbVertex
62
7
6
CONTINUOUS
100
AcDb2dVertex
10
76.4759902344
20
198.6279667969
0
SEQEND
5
366
100
AcDbEntity
8
0
0
LINE
5
367
100
AcDbEntity
8
0
100
AcDbLine
62
2
6
CONTINUOUS
10
83.6173817465
20
205.3903643614
11
76.6147114585
21
198.3876921660
0
POLYLINE
5
368
100
AcDbEntity
8
0
100
AcDb2dPolyline
62
7
6
CONTINUOUS
66
1
70
0
0
VERTEX
5
369
100
AcDbEntity
8
0
100
AcDbVertex
62
7
6
CONTINUOUS
100
AcDb2dVertex
10
76.4759902344
20
194.0091699219
0
VERTEX
5
36A
100
AcDbEntity
8
0
100
AcDbVertex
62
7
6
CONTINUOUS
100
AcDb2dVertex
10
76.6640859375
20
193.3185761719
0
VERTEX
5
36B
100
AcDbEntity
8
0
100
AcDbVertex
62
7
6
CONTINUOUS
100
AcDb2dVertex
10
76.8235322266
20
192.6421835938
0
VERTEX
5
36C
100
AcDbEntity
8
0
100
AcDbVertex
62
7
6
CONTINUOUS
100
AcDb2dVertex
10
76.9542753906
20
191.9825488281
0
VERTEX
5
36D
100
AcDbEntity
8
0
100
AcDbVertex
62
7
6
CONTINUOUS
100
AcDb2dVertex
10
77.0564443359
20
191.3318945313
0
VERTEX
5
36E
100
AcDbEntity
8
0
100
AcDbVertex
62
7
6
CONTINUOUS
100
AcDb2dVertex
10
77.1305224609
20
190.6832597656
0
VERTEX
5
36F
100
AcDbEntity
8
0
100
AcDbVertex
62
7
6
CONTINUOUS
100
AcDb2dVertex
10
77.1754785156
20
190.0366230469
0
VERTEX
5
370
100
AcDbEntity
8
0
100
AcDbVertex
62
7
6
CONTINUOUS
100
AcDb2dVertex
10
77.1903242188
20
189.3895136719
0
VERTEX
5
371
100
AcDbEntity
8
0
100
AcDbVertex
62
7
6
CONTINUOUS
100
AcDb2dVertex
10
77.1753925781
20
188.7424042969
0
VERTEX
5
372
100
AcDbEntity
8
0
100
AcDbVertex
62
7
6
CONTINUOUS
100
AcDb2dVertex
10
77.1303613281
20
188.0957675781
0
VERTEX
5
373
100
AcDbEntity
8
0
100
AcDbVertex
62
7
6
CONTINUOUS
100
AcDb2dVertex
10
77.0562294922
20
187.4472617188
0
VERTEX
5
374
100
AcDbEntity
8
0
100
AcDbVertex
62
7
6
CONTINUOUS
100
AcDb2dVertex
10
76.9540820313
20
186.7970585938
0
VERTEX
5
375
100
AcDbEntity
8
0
100
AcDbVertex
62
7
6
CONTINUOUS
100
AcDb2dVertex
10
76.8234033203
20
186.1379609375
0
VERTEX
5
376
100
AcDbEntity
8
0
100
AcDbVertex
62
7
6
CONTINUOUS
100
AcDb2dVertex
10
76.6640214844
20
185.4618906250
0
VERTEX
5
377
100
AcDbEntity
8
0
100
AcDbVertex
62
7
6
CONTINUOUS
100
AcDb2dVertex
10
76.4759902344
20
184.7715546875
0
SEQEND
5
378
100
AcDbEntity
8
0
0
LINE
5
379
100
AcDbEntity
8
0
100
AcDbLine
62
2
6
CONTINUOUS
10
87.1529156516
20
205.3903643614
11
77.9088055441
21
196.1462537772
0
LINE
5
37A
100
AcDbEntity
8
0
100
AcDbLine
62
2
6
CONTINUOUS
10
61.9153134177
20
180.1527602202
11
58.4399639914
21
176.6774107939
0
POLYLINE
5
37B
100
AcDbEntity
8
0
100
AcDb2dPolyline
62
7
6
CONTINUOUS
66
1
70
0
0
VERTEX
5
37C
100
AcDbEntity
8
0
100
AcDbVertex
62
7
6
CONTINUOUS
100
AcDb2dVertex
10
76.4759902344
20
180.1527578125
0
VERTEX
5
37D
100
AcDbEntity
8
0
100
AcDbVertex
62
7
6
CONTINUOUS
100
AcDb2dVertex
10
76.6637421875
20
180.4973027344
0
VERTEX
5
37E
100
AcDbEntity
8
0
100
AcDbVertex
62
7
6
CONTINUOUS
100
AcDb2dVertex
10
76.8230058594
20
180.8350371094
0
VERTEX
5
37F
100
AcDbEntity
8
0
100
AcDbVertex
62
7
6
CONTINUOUS
100
AcDb2dVertex
10
76.9537705078
20
181.1646933594
0
VERTEX
5
380
100
AcDbEntity
8
0
100
AcDbVertex
62
7
6
CONTINUOUS
100
AcDb2dVertex
10
77.0560683594
20
181.4900097656
0
VERTEX
5
381
100
AcDbEntity
8
0
100
AcDbVertex
62
7
6
CONTINUOUS
100
AcDb2dVertex
10
77.1302646484
20
181.8143808594
0
VERTEX
5
382
100
AcDbEntity
8
0
100
AcDbVertex
62
7
6
CONTINUOUS
100
AcDb2dVertex
10
77.1753603516
20
182.1377636719
0
VERTEX
5
383
100
AcDbEntity
8
0
100
AcDbVertex
62
7
6
CONTINUOUS
100
AcDb2dVertex
10
77.1903242188
20
182.4613613281
0
VERTEX
5
384
100
AcDbEntity
8
0
100
AcDbVertex
62
7
6
CONTINUOUS
100
AcDb2dVertex
10
77.1755107422
20
182.7849375000
0
VERTEX
5
385
100
AcDbEntity
8
0
100
AcDbVertex
62
7
6
CONTINUOUS
100
AcDb2dVertex
10
77.1305869141
20
183.1082773438
0
VERTEX
5
386
100
AcDbEntity
8
0
100
AcDbVertex
62
7
6
CONTINUOUS
100
AcDb2dVertex
10
77.0565302734
20
183.4326054688
0
VERTEX
5
387
100
AcDbEntity
8
0
100
AcDbVertex
62
7
6
CONTINUOUS
100
AcDb2dVertex
10
76.9543720703
20
183.7579863281
0
VERTEX
5
388
100
AcDbEntity
8
0
100
AcDbVertex
62
7
6
CONTINUOUS
100
AcDb2dVertex
10
76.8236289063
20
184.0878574219
0
VERTEX
5
389
100
AcDbEntity
8
0
100
AcDbVertex
62
7
6
CONTINUOUS
100
AcDb2dVertex
10
76.6641503906
20
184.4261503906
0
VERTEX
5
38A
100
AcDbEntity
8
0
100
AcDbVertex
62
7
6
CONTINUOUS
100
AcDb2dVertex
10
76.4759902344
20
184.7715546875
0
SEQEND
5
38B
100
AcDbEntity
8
0
0
LINE
5
38C
100
AcDbEntity
8
0
100
AcDbLine
62
7
6
CONTINUOUS
10
76.4759902344
20
180.1527578125
11
81.8093251953
21
189.3903730469
0
LINE
5
38D
100
AcDbEntity
8
0
100
AcDbLine
62
2
6
CONTINUOUS
10
65.4508435080
20
180.1527602202
11
59.5642086814
21
174.2661206251
0
LINE
5
38E
100
AcDbEntity
8
0
100
AcDbLine
62
2
6
CONTINUOUS
10
90.6884495566
20
205.3903643614
11
79.2029034445
21
193.9048153883
0
LINE
5
38F
100
AcDbEntity
8
0
100
AcDbLine
62
2
6
CONTINUOUS
10
92.1565402115
20
203.3229208240
11
80.4969975302
21
191.6633765227
0
LINE
5
390
100
AcDbEntity
8
0
100
AcDbLine
62
2
6
CONTINUOUS
10
68.9863812277
20
180.1527602202
11
62.2239834616
21
173.3903643614
0
LINE
5
391
100
AcDbEntity
8
0
100
AcDbLine
62
7
6
CONTINUOUS
10
124.4399639914
20
173.3903643614
11
60.4399639914
21
173.3903643614
0
LINE
5
392
100
AcDbEntity
8
0
100
AcDbLine
62
2
6
CONTINUOUS
10
58.4399639914
20
175.3903643614
11
126.4399639914
21
175.3903643614
0
LINE
5
393
100
AcDbEntity
8
0
100
AcDbLine
62
7
6
CONTINUOUS
10
76.4759902344
20
198.6279667969
11
81.8093251953
21
189.3903730469
0
LINE
5
394
100
AcDbEntity
8
0
100
AcDbLine
62
2
6
CONTINUOUS
10
72.5219113181
20
180.1527602202
11
65.7595211814
21
173.3903643614
0
LINE
5
395
100
AcDbEntity
8
0
100
AcDbLine
62
2
6
CONTINUOUS
10
92.6316750595
20
200.2625218270
11
81.7910916159
21
189.4219379029
0
LINE
5
396
100
AcDbEntity
8
0
100
AcDbLine
62
2
6
CONTINUOUS
10
92.6818413943
20
196.7771534677
11
77.0477253745
21
181.1430356032
0
LINE
5
397
100
AcDbEntity
8
0
100
AcDbLine
62
2
6
CONTINUOUS
10
76.0574490378
20
180.1527602202
11
69.2950512717
21
173.3903643614
0
LINE
5
398
100
AcDbEntity
8
0
100
AcDbLine
62
7
6
CONTINUOUS
10
76.4759902344
20
180.1527578125
11
58.7069296875
21
180.1527578125
0
LINE
5
399
100
AcDbEntity
8
0
100
AcDbLine
62
7
6
CONTINUOUS
10
92.5038191383
20
189.4838329122
11
92.6018643081
21
187.4834352937
0
LINE
5
39A
100
AcDbEntity
8
0
100
AcDbLine
62
7
6
CONTINUOUS
10
92.6018643081
20
187.4834352937
11
92.6710674541
21
185.4796793769
0
LINE
5
39B
100
AcDbEntity
8
0
100
AcDbLine
62
7
6
CONTINUOUS
10
92.4601864649
20
191.4897875703
11
92.5038191383
21
189.4838329122
0
LINE
5
39C
100
AcDbEntity
8
0
100
AcDbLine
62
7
6
CONTINUOUS
10
92.7519112315
20
199.4880666141
11
92.6486775383
21
195.4940859350
0
LINE
5
39D
100
AcDbEntity
8
0
100
AcDbLine
62
7
6
CONTINUOUS
10
92.6710674541
20
185.4796793769
11
92.5544163389
21
182.1615865359
0
LINE
5
39E
100
AcDbEntity
8
0
100
AcDbLine
62
7
6
CONTINUOUS
10
92.6486775383
20
195.4940859350
11
92.4601864649
21
191.4897875703
0
LINE
5
39F
100
AcDbEntity
8
0
100
AcDbLine
62
2
6
CONTINUOUS
10
92.5357732570
20
193.0955509760
11
72.8305889914
21
173.3903643614
0
LINE
5
3A0
100
AcDbEntity
8
0
100
AcDbLine
62
7
6
CONTINUOUS
10
130.4399707031
20
181.3903652344
11
126.4399667969
21
181.3903652344
0
LINE
5
3A1
100
AcDbEntity
8
0
100
AcDbLine
62
7
6
CONTINUOUS
10
92.5544163389
20
182.1615865359
11
92.0800134018
21
178.8722287339
0
LINE
5
3A2
100
AcDbEntity
8
0
100
AcDbLine
62
7
6
CONTINUOUS
10
92.0800134018
20
178.8722287339
11
91.1949005294
21
175.6737133771
0
LINE
5
3A3
100
AcDbEntity
8
0
100
AcDbLine
62
2
6
CONTINUOUS
10
92.5028775356
20
189.5271218535
11
76.3661190817
21
173.3903643614
0
LINE
5
3A4
100
AcDbEntity
8
0
100
AcDbLine
62
7
6
CONTINUOUS
10
58.7069296875
20
184.7715546875
11
76.4759902344
21
184.7715546875
0
LINE
5
3A5
100
AcDbEntity
8
0
100
AcDbLine
62
7
6
CONTINUOUS
10
92.1438649810
20
203.4045634625
11
92.7519112315
21
199.4880666141
0
LINE
5
3A6
100
AcDbEntity
8
0
100
AcDbLine
62
7
6
CONTINUOUS
10
91.1949005294
20
175.6737133771
11
90.1982301501
21
173.3903643614
0
LINE
5
3A7
100
AcDbEntity
8
0
100
AcDbLine
62
2
6
CONTINUOUS
10
92.6483632098
20
186.1370738246
11
79.9016529868
21
173.3903643614
0
LINE
5
3A8
100
AcDbEntity
8
DEFAULT_1
100
AcDbLine
62
2
6
CENTER
10
56.4399639914
20
189.3903643614
11
140.4399639914
21
189.3903643614
0
LINE
5
3A9
100
AcDbEntity
8
0
100
AcDbLine
62
7
6
CONTINUOUS
10
91.2237749294
20
205.3903643614
11
92.1438649810
21
203.4045634625
0
LINE
5
3AA
100
AcDbEntity
8
0
100
AcDbLine
62
2
6
CONTINUOUS
10
92.5670238058
20
182.5202007313
11
83.4371868918
21
173.3903643614
0
LINE
5
3AB
100
AcDbEntity
8
0
100
AcDbLine
62
2
6
CONTINUOUS
10
91.9367013075
20
178.3543445762
11
86.9727207968
21
173.3903643614
0
LINE
5
3AC
100
AcDbEntity
8
0
100
AcDbLine
62
7
6
CONTINUOUS
10
58.7069296875
20
194.0091699219
11
76.4759902344
21
194.0091699219
0
LINE
5
3AD
100
AcDbEntity
8
0
100
AcDbLine
62
7
6
CONTINUOUS
10
130.4399707031
20
197.3903593750
11
126.4399667969
21
197.3903593750
0
LINE
5
3AE
100
AcDbEntity
8
0
100
AcDbLine
62
7
6
CONTINUOUS
10
76.4759902344
20
198.6279667969
11
58.7069296875
21
198.6279667969
0
LINE
5
3AF
100
AcDbEntity
8
0
100
AcDbLine
62
2
6
CONTINUOUS
10
58.4399639914
20
203.3903643614
11
126.4399639914
21
203.3903643614
0
LINE
5
3B0
100
AcDbEntity
8
0
100
AcDbLine
62
7
6
CONTINUOUS
10
124.4399639914
20
205.3903643614
11
60.4399639914
21
205.3903643614
0
LINE
5
3B1
100
AcDbEntity
8
0
100
AcDbLine
62
7
6
CONTINUOUS
10
124.4399648438
20
205.3903671875
11
124.4399648438
21
173.3903681641
0
LINE
5
3B2
100
AcDbEntity
8
0
100
AcDbLine
62
7
6
CONTINUOUS
10
126.4399639914
20
203.3903643614
11
126.4399639914
21
175.3903643614
0
LINE
5
3B3
100
AcDbEntity
8
0
100
AcDbLine
62
7
6
CONTINUOUS
10
126.4399667969
20
175.3903593750
11
124.4399648438
21
173.3903681641
0
LINE
5
3B4
100
AcDbEntity
8
0
100
AcDbLine
62
7
6
CONTINUOUS
10
126.4399667969
20
203.3903652344
11
124.4399648438
21
205.3903671875
0
LINE
5
3B5
100
AcDbEntity
8
0
100
AcDbLine
62
9
6
CONTINUOUS
10
130.4399707031
20
197.3903593750
11
130.4399707031
21
181.3903652344
0
LINE
5
3B6
100
AcDbEntity
8
0
100
AcDbLine
62
7
6
CONTINUOUS
10
163.5692792211
20
184.7715622079
11
163.5692792211
21
194.0091665149
0
LINE
5
3B7
100
AcDbEntity
8
0
100
AcDbLine
62
7
6
CONTINUOUS
10
163.5692792211
20
194.0091665149
11
171.5692792211
21
198.6279686684
0
LINE
5
3B8
100
AcDbEntity
8
0
100
AcDbLine
62
7
6
CONTINUOUS
10
171.5692792211
20
180.1527600544
11
163.5692792211
21
184.7715622079
0
LINE
5
3B9
100
AcDbEntity
8
DEFAULT_1
100
AcDbLine
62
2
6
CENTER
10
171.5692792211
20
189.3903643614
11
171.5692792211
21
171.3903643614
0
LINE
5
3BA
100
AcDbEntity
8
DEFAULT_1
100
AcDbLine
62
2
6
CENTER
10
171.5692792211
20
189.3903643614
11
171.5692792211
21
207.3903643614
0
LINE
5
3BB
100
AcDbEntity
8
DEFAULT_1
100
AcDbLine
62
2
6
CENTER
10
171.5692792211
20
189.3903643614
11
153.5692792211
21
189.3903643614
0
LINE
5
3BC
100
AcDbEntity
8
DEFAULT_1
100
AcDbLine
62
2
6
CENTER
10
171.5692792211
20
189.3903643614
11
189.5692792211
21
189.3903643614
0
LINE
5
3BD
100
AcDbEntity
8
0
100
AcDbLine
62
7
6
CONTINUOUS
10
179.5692792211
20
194.0091665149
11
179.5692792211
21
184.7715622079
0
LINE
5
3BE
100
AcDbEntity
8
0
100
AcDbLine
62
7
6
CONTINUOUS
10
179.5692792211
20
184.7715622079
11
171.5692792211
21
180.1527600544
0
LINE
5
3BF
100
AcDbEntity
8
0
100
AcDbLine
62
7
6
CONTINUOUS
10
171.5692792211
20
198.6279686684
11
179.5692792211
21
194.0091665149
0
ARC
5
3C0
100
AcDbEntity
8
0
100
AcDbCircle
62
7
6
CONTINUOUS
10
130.4399639914
20
189.3903643614
40
8.0000000000
100
AcDbArc
50
270.0000000000
51
90.0000000000
0
ARC
5
3C1
100
AcDbEntity
8
0
100
AcDbCircle
62
2
6
CONTINUOUS
10
171.5692792211
20
189.3903643614
40
14.0000000000
100
AcDbArc
50
255.0000000000
51
195.0000000000
0
CIRCLE
5
3C2
100
AcDbEntity
8
0
100
AcDbCircle
62
7
6
CONTINUOUS
10
171.5692792211
20
189.3903643614
40
16.0000000000
0
CIRCLE
5
3C3
100
AcDbEntity
8
0
100
AcDbCircle
62
7
6
CONTINUOUS
10
171.5692792211
20
189.3903643614
40
9.7000000000
0
ENDSEC
0
SECTION
2
OBJECTS
0
DICTIONARY
5
3C4
100
AcDbDictionary
3
ACAD_GROUP
350
3C5
3
ACAD_MLINESTYLE
350
3C6
0
DICTIONARY
5
3C5
102
{ACAD_REACTORS
330
3C4
102
}
100
AcDbDictionary
0
DICTIONARY
5
3C6
102
{ACAD_REACTORS
330
3C4
102
}
100
AcDbDictionary
3
STANDARD
350
3C7
0
MLINESTYLE
5
3C7
102
{ACAD_REACTORS
330
3C6
102
}
100
AcDbMlineStyle
2
STANDARD
70
0
3

62
256
51
90.0
52
90.0
71
2
49
0.5
62
256
6
BYLAYER
49
-0.5
62
256
6
BYLAYER
0
ENDSEC
0
EOF
