999
DXF file: e_05-210-01_korpus_vinta.dxf
999
Pro/ENGINEER 2001320 by Parametric Technology Corporation
0
SECTION
2
HEADER
9
$ACADVER
1
AC1014
9
$EXTMAX
10
210.0000000000
20
297.0000000000
9
$EXTMIN
10
0.0000000000
20
0.0000000000
9
$LIMMIN
10
0.0000000000
20
0.0000000000
9
$LIMMAX
10
210.0000000000
20
297.0000000000
9
$VIEWCTR
10
105.0000000000
20
148.5000000000
9
$VIEWSIZE
40
297.0000000000
9
$CLAYER
8
0
9
$LTSCALE
40
19.3600000000
9
$CELTYPE
6
BYLAYER
9
$DIMSCALE
40
1
9
$DIMASZ
40
3.0000000000
9
$DIMEXO
40
2.2000000000
9
$DIMDLI
40
13.3760000000
9
$DIMEXE
40
6.3360000000
9
$DIMCEN
40
3.1680000000
9
$DIMLFAC
40
1.0000000000
9
$DIMTXT
40
3.6000000000
9
$DIMTOL
70
1
9
$DIMTFAC
40
0.6000000000
9
$DIMTP
40
0.0100000000
9
$DIMTM
40
0.0100000000
0
ENDSEC
0
SECTION
2
CLASSES
0
ENDSEC
0
SECTION
2
TABLES
0
TABLE
2
VPORT
5
1F4
100
AcDbSymbolTable
70
2
0
VPORT
5
1F5
100
AcDbSymbolTableRecord
100
AcDbViewportTableRecord
2
*ACTIVE
70
0
10
0.0
20
0.0
11
1.0
21
1.0
12
105.0000000000
22
148.5000000000
13
0.0
23
0.0
14
1.0
24
1.0
15
0.0
25
0.0
16
0.0
26
0.0
36
1.0
17
0.0
27
0.0
37
0.0
40
297.0000000000
41
0.7070707071
42
50.0
43
0.0
44
0.0
50
0.0
51
0.0
71
0
72
100
73
1
74
1
75
0
76
0
77
0
78
0
0
ENDTAB
0
TABLE
2
LTYPE
5
1F6
100
AcDbSymbolTable
70
6
0
LTYPE
5
1F7
100
AcDbSymbolTableRecord
100
AcDbLinetypeTableRecord
2
BYBLOCK
70
0
3

72
65
73
0
40
0.0
0
LTYPE
5
1F8
100
AcDbSymbolTableRecord
100
AcDbLinetypeTableRecord
2
BYLAYER
70
0
3

72
65
73
0
40
0.0
0
LTYPE
5
1F9
100
AcDbSymbolTableRecord
100
AcDbLinetypeTableRecord
2
CONTINUOUS
70
64
3
Solid line
72
65
73
0
40
0
0
LTYPE
5
1FA
100
AcDbSymbolTableRecord
100
AcDbLinetypeTableRecord
2
CENTER
70
64
3
____ _ ____ _ ____ _ ____ _ ____ _ ____ _ ____
72
65
73
4
40
0.6
49
0.375
74
0
49
-0.075
74
0
49
0.075
74
0
49
-0.075
74
0
0
LTYPE
5
1FB
100
AcDbSymbolTableRecord
100
AcDbLinetypeTableRecord
2
HIDDEN
70
64
3
- - - - - - - - - - - - - - - - - - - -
72
65
73
2
40
0.2
49
0.1
74
0
49
-0.1
74
0
0
LTYPE
5
1FC
100
AcDbSymbolTableRecord
100
AcDbLinetypeTableRecord
2
PHANTOM
70
64
3
_____ _ _ _____ _ _ _____ _ _ _____
72
65
73
6
40
0.8
49
0.45
74
0
49
-0.05
74
0
49
0.1
74
0
49
-0.05
74
0
49
0.1
74
0
49
-0.05
74
0
0
LTYPE
5
1FD
100
AcDbSymbolTableRecord
100
AcDbLinetypeTableRecord
2
DOT
70
64
3
. . . . . . . . . . . . . . . . . . . .
72
65
73
2
40
0.2
49
0.1
74
0
49
-0.1
74
0
0
LTYPE
5
1FE
100
AcDbSymbolTableRecord
100
AcDbLinetypeTableRecord
2
DASHED
70
64
3
- - - - - - - - - - - - - - - - - - - -
72
65
73
2
40
0.2
49
0.1
74
0
49
-0.1
74
0
0
ENDTAB
0
TABLE
2
LAYER
5
1FF
100
AcDbSymbolTable
70
36
0
LAYER
5
200
100
AcDbSymbolTableRecord
100
AcDbLayerTableRecord
2
0
70
0
62
7
6
CONTINUOUS
0
LAYER
5
201
100
AcDbSymbolTableRecord
100
AcDbLayerTableRecord
2
DEFAULT_1
70
0
62
7
6
CENTER
0
LAYER
5
202
100
AcDbSymbolTableRecord
100
AcDbLayerTableRecord
2
DEFAULT_2
70
0
62
8
6
HIDDEN
0
LAYER
5
203
100
AcDbSymbolTableRecord
100
AcDbLayerTableRecord
2
DEFAULT_3
70
0
62
7
6
PHANTOM
0
LAYER
5
204
100
AcDbSymbolTableRecord
100
AcDbLayerTableRecord
2
ALL_PLANE
70
0
62
7
6
CONTINUOUS
0
ENDTAB
0
TABLE
2
STYLE
5
205
100
AcDbSymbolTable
70
1
0
STYLE
5
206
100
AcDbSymbolTableRecord
100
AcDbTextStyleTableRecord
2
STANDARD
70
0
40
0.0
41
1.0
50
0.0
71
0
42
0.0
3
txt
4

0
STYLE
5
207
100
AcDbSymbolTableRecord
100
AcDbTextStyleTableRecord
2
TEXTSTYLE_0
70
0
40
0.0
41
0.80
50
0.0
71
0
42
0.2
3
txt
4

0
ENDTAB
0
TABLE
2
VIEW
5
208
100
AcDbSymbolTable
70
0
0
ENDTAB
0
TABLE
2
UCS
5
209
100
AcDbSymbolTable
70
0
0
ENDTAB
0
TABLE
2
APPID
5
20A
100
AcDbSymbolTable
70
1
0
APPID
5
20B
100
AcDbSymbolTableRecord
100
AcDbRegAppTableRecord
2
ACAD
70
0
0
ENDTAB
0
TABLE
2
DIMSTYLE
5
20C
100
AcDbSymbolTable
70
1
0
DIMSTYLE
105
20D
100
AcDbSymbolTableRecord
100
AcDbDimStyleTableRecord
2
STANDARD
70
0
3

4

5

6

7

40
1.0
41
0.18
42
0.0625
43
0.38
44
0.18
45
0.0
46
0.0
47
0.0100000000
48
0.0100000000
140
3.6000000000
141
0.09
142
0.0
143
25.4
144
1.0000000000
145
0.0
146
0.6000000000
147
0.09
71
1
72
0
73
1
74
1
75
0
76
0
77
0
78
0
170
0
171
2
172
0
173
0
174
0
175
0
176
0
177
0
178
0
270
2
271
2
272
4
273
2
274
2
340
206
275
0
280
0
281
0
282
0
283
1
284
0
285
0
286
0
287
3
288
0
0
DIMSTYLE
105
20E
100
AcDbSymbolTableRecord
100
AcDbDimStyleTableRecord
2
DIMSTYLE_1
70
0
3

4

5

6

7

40
1.0
41
0.18
42
0.0625
43
0.38
44
0.18
45
0.0
46
0.0
47
0.2000000000
48
0.2000000000
140
3.6000000000
141
0.09
142
0.0
143
25.4
144
0.4000000000
145
0.0
146
0.0000000000
147
0.09
71
0
72
0
73
1
74
1
75
0
76
0
77
0
78
0
170
0
171
2
172
0
173
0
174
0
175
0
176
0
177
0
178
0
270
2
271
2
272
4
273
2
274
2
340
206
275
0
280
0
281
0
282
0
283
1
284
0
285
0
286
0
287
3
288
0
0
DIMSTYLE
105
20F
100
AcDbSymbolTableRecord
100
AcDbDimStyleTableRecord
2
DIMSTYLE_2
70
0
3

4

5

6

7

40
1.0
41
0.18
42
0.0625
43
0.38
44
0.18
45
0.0
46
0.0
47
0.1000000000
48
0.1000000000
140
3.6000000000
141
0.09
142
0.0
143
25.4
144
0.4000000000
145
0.0
146
0.0000000000
147
0.09
71
0
72
0
73
1
74
1
75
0
76
0
77
0
78
0
170
0
171
2
172
0
173
0
174
0
175
0
176
0
177
0
178
0
270
2
271
2
272
4
273
2
274
2
340
206
275
0
280
0
281
0
282
0
283
1
284
0
285
0
286
0
287
3
288
0
0
DIMSTYLE
105
210
100
AcDbSymbolTableRecord
100
AcDbDimStyleTableRecord
2
DIMSTYLE_3
70
0
3

4

5

6

7

40
1.0
41
0.18
42
0.0625
43
0.38
44
0.18
45
0.0
46
0.0
47
0.0430000000
48
0.0000000000
140
3.6000000000
141
0.09
142
0.0
143
25.4
144
0.4000000000
145
0.0
146
0.0000000000
147
0.09
71
1
72
0
73
1
74
1
75
0
76
0
77
0
78
0
170
0
171
2
172
0
173
0
174
0
175
0
176
0
177
0
178
0
270
2
271
3
272
4
273
2
274
2
340
206
275
0
280
0
281
0
282
0
283
1
284
0
285
0
286
0
287
3
288
0
0
DIMSTYLE
105
211
100
AcDbSymbolTableRecord
100
AcDbDimStyleTableRecord
2
DIMSTYLE_4
70
0
3

4

5

6

7

40
1.0
41
0.18
42
0.0625
43
0.38
44
0.18
45
0.0
46
0.0
47
0.3000000000
48
0.3000000000
140
3.6000000000
141
0.09
142
0.0
143
25.4
144
0.4000000000
145
0.0
146
0.0000000000
147
0.09
71
0
72
0
73
1
74
1
75
0
76
0
77
0
78
0
170
0
171
2
172
0
173
0
174
0
175
0
176
0
177
0
178
0
270
2
271
2
272
4
273
2
274
2
340
206
275
0
280
0
281
0
282
0
283
1
284
0
285
0
286
0
287
3
288
0
0
DIMSTYLE
105
212
100
AcDbSymbolTableRecord
100
AcDbDimStyleTableRecord
2
DIMSTYLE_5
70
0
3

4

5

6

7

40
1.0
41
0.18
42
0.0625
43
0.38
44
0.18
45
0.0
46
0.0
47
0.5000000000
48
0.5000000000
140
3.6000000000
141
0.09
142
0.0
143
25.4
144
0.4000000000
145
0.0
146
0.0000000000
147
0.09
71
0
72
0
73
1
74
1
75
0
76
0
77
0
78
0
170
0
171
2
172
0
173
0
174
0
175
0
176
0
177
0
178
0
270
2
271
1
272
4
273
2
274
2
340
206
275
0
280
0
281
0
282
0
283
1
284
0
285
0
286
0
287
3
288
0
0
DIMSTYLE
105
213
100
AcDbSymbolTableRecord
100
AcDbDimStyleTableRecord
2
DIMSTYLE_6
70
0
3

4

5

6

7

40
1.0
41
0.18
42
0.0625
43
0.38
44
0.18
45
0.0
46
0.0
47
0.1300000000
48
-0.0400000000
140
3.6000000000
141
0.09
142
0.0
143
25.4
144
0.4000000000
145
0.0
146
0.0000000000
147
0.09
71
1
72
0
73
1
74
1
75
0
76
0
77
0
78
0
170
0
171
2
172
0
173
0
174
0
175
0
176
0
177
0
178
0
270
2
271
3
272
4
273
2
274
2
340
206
275
0
280
0
281
0
282
0
283
1
284
0
285
0
286
0
287
3
288
0
0
ENDTAB
0
TABLE
2
BLOCK_RECORD
5
214
100
AcDbSymbolTable
70
0
0
BLOCK_RECORD
5
215
100
AcDbSymbolTableRecord
100
AcDbBlockTableRecord
2
*MODEL_SPACE
0
BLOCK_RECORD
5
216
100
AcDbSymbolTableRecord
100
AcDbBlockTableRecord
2
*PAPER_SPACE
0
BLOCK_RECORD
5
217
100
AcDbSymbolTableRecord
100
AcDbBlockTableRecord
2
*D0
0
BLOCK_RECORD
5
218
100
AcDbSymbolTableRecord
100
AcDbBlockTableRecord
2
*D1
0
BLOCK_RECORD
5
219
100
AcDbSymbolTableRecord
100
AcDbBlockTableRecord
2
*D2
0
BLOCK_RECORD
5
21A
100
AcDbSymbolTableRecord
100
AcDbBlockTableRecord
2
*D3
0
BLOCK_RECORD
5
21B
100
AcDbSymbolTableRecord
100
AcDbBlockTableRecord
2
*D4
0
BLOCK_RECORD
5
21C
100
AcDbSymbolTableRecord
100
AcDbBlockTableRecord
2
*D5
0
BLOCK_RECORD
5
21D
100
AcDbSymbolTableRecord
100
AcDbBlockTableRecord
2
*D6
0
BLOCK_RECORD
5
21E
100
AcDbSymbolTableRecord
100
AcDbBlockTableRecord
2
*D7
0
BLOCK_RECORD
5
21F
100
AcDbSymbolTableRecord
100
AcDbBlockTableRecord
2
*D8
0
BLOCK_RECORD
5
220
100
AcDbSymbolTableRecord
100
AcDbBlockTableRecord
2
*D9
0
BLOCK_RECORD
5
221
100
AcDbSymbolTableRecord
100
AcDbBlockTableRecord
2
*D10
0
BLOCK_RECORD
5
222
100
AcDbSymbolTableRecord
100
AcDbBlockTableRecord
2
*D11
0
BLOCK_RECORD
5
223
100
AcDbSymbolTableRecord
100
AcDbBlockTableRecord
2
*D12
0
BLOCK_RECORD
5
224
100
AcDbSymbolTableRecord
100
AcDbBlockTableRecord
2
UGOL_BL0
0
BLOCK_RECORD
5
225
100
AcDbSymbolTableRecord
100
AcDbBlockTableRecord
2
STANDARD_BL1
0
BLOCK_RECORD
5
226
100
AcDbSymbolTableRecord
100
AcDbBlockTableRecord
2
STANDARD_BL2
0
ENDTAB
0
ENDSEC
0
SECTION
2
BLOCKS
0
BLOCK
5
227
100
AcDbEntity
8
0
100
AcDbBlockBegin
2
*MODEL_SPACE
70
0
10
0.0000000000
20
0.0000000000
3
*MODEL_SPACE
1

3
*MODEL_SPACE
1

0
ENDBLK
5
228
100
AcDbEntity
8
0
100
AcDbBlockEnd
0
BLOCK
5
229
100
AcDbEntity
8
0
100
AcDbBlockBegin
2
*PAPER_SPACE
70
0
10
0.0000000000
20
0.0000000000
3
*PAPER_SPACE
1

3
*PAPER_SPACE
1

0
ENDBLK
5
22A
100
AcDbEntity
8
0
100
AcDbBlockEnd
0
BLOCK
5
22B
100
AcDbEntity
8
0
100
AcDbBlockBegin
62
2
6
CONTINUOUS
2
*D0
70
65
10
0.0000000000
20
0.0000000000
3
*D0
1

0
TEXT
5
22C
100
AcDbEntity
8
0
100
AcDbText
62
2
6
CONTINUOUS
10
41.7612137983
20
177.0849506507
7
TEXTSTYLE_0
40
3.6000000000
1
M
50
90.0000000000
51
12.0000000000
72
5
11
41.7612137983
21
179.4249506507
100
AcDbText
0
TEXT
5
22D
100
AcDbEntity
8
0
100
AcDbText
62
2
6
CONTINUOUS
10
41.7612137983
20
184.1049506507
7
TEXTSTYLE_0
40
3.6000000000
1
x1-6g
50
90.0000000000
51
12.0000000000
72
5
11
41.7612137983
21
195.8049506507
100
AcDbText
0
TEXT
5
22E
100
AcDbEntity
8
0
100
AcDbText
62
2
6
CONTINUOUS
10
41.7612137983
20
179.4249506507
7
TEXTSTYLE_0
40
3.6000000000
1
16
50
90.0000000000
51
12.0000000000
72
5
11
41.7612137983
21
184.1049506507
100
AcDbText
0
LINE
5
22F
100
AcDbEntity
8
0
100
AcDbLine
62
2
6
CONTINUOUS
10
56.8427246275
20
167.2576187761
11
40.6813203337
21
167.2576187761
0
LINE
5
230
100
AcDbEntity
8
0
100
AcDbLine
62
2
6
CONTINUOUS
10
56.9820957765
20
207.2576187761
11
40.6813203337
21
207.2576187761
0
LINE
5
231
100
AcDbEntity
8
0
100
AcDbLine
62
2
6
CONTINUOUS
10
42.6813203337
20
167.2576187761
11
42.6813203337
21
187.2576187761
0
LINE
5
232
100
AcDbEntity
8
0
100
AcDbLine
62
2
6
CONTINUOUS
10
42.6813203337
20
207.2576187761
11
42.6813203337
21
187.2576187761
0
SOLID
5
233
100
AcDbEntity
8
0
100
AcDbTrace
62
2
6
CONTINUOUS
10
42.1813203337
20
170.2576187761
11
42.6813203337
21
167.2576187761
12
43.1813203337
22
170.2576187761
13
43.1813203337
23
170.2576187761
0
SOLID
5
234
100
AcDbEntity
8
0
100
AcDbTrace
62
2
6
CONTINUOUS
10
43.1813203337
20
204.2576187761
11
42.6813203337
21
207.2576187761
12
42.1813203337
22
204.2576187761
13
42.1813203337
23
204.2576187761
0
ENDBLK
5
235
100
AcDbEntity
8
0
100
AcDbBlockEnd
0
BLOCK
5
236
100
AcDbEntity
8
0
100
AcDbBlockBegin
62
2
6
CONTINUOUS
2
*D1
70
65
10
0.0000000000
20
0.0000000000
3
*D1
1

0
TEXT
5
237
100
AcDbEntity
8
0
100
AcDbText
62
2
6
CONTINUOUS
10
39.2050536790
20
220.0190665275
7
TEXTSTYLE_0
40
3.6000000000
1
x45%%d
51
12.0000000000
72
5
11
48.6250536790
21
220.0190665275
100
AcDbText
0
TEXT
5
238
100
AcDbEntity
8
0
100
AcDbText
62
2
6
CONTINUOUS
10
36.8650536790
20
220.0190665275
7
TEXTSTYLE_0
40
3.6000000000
1
1
51
12.0000000000
72
5
11
39.2050536790
21
220.0190665275
100
AcDbText
0
LINE
5
239
100
AcDbEntity
8
0
100
AcDbLine
62
2
6
CONTINUOUS
10
54.3718574399
20
204.7576187761
11
54.3718574399
21
221.0989599921
0
LINE
5
23A
100
AcDbEntity
8
0
100
AcDbLine
62
2
6
CONTINUOUS
10
56.8718574399
20
207.2576187761
11
56.8718574399
21
221.0989599921
0
LINE
5
23B
100
AcDbEntity
8
0
100
AcDbLine
62
2
6
CONTINUOUS
10
54.3718574399
20
219.0989599921
11
36.8650536790
21
219.0989599921
0
LINE
5
23C
100
AcDbEntity
8
0
100
AcDbLine
62
2
6
CONTINUOUS
10
36.8650536790
20
219.0989599921
11
55.6218574399
21
219.0989599921
0
LINE
5
23D
100
AcDbEntity
8
0
100
AcDbLine
62
2
6
CONTINUOUS
10
56.8718574399
20
219.0989599921
11
59.8718574399
21
219.0989599921
0
LINE
5
23E
100
AcDbEntity
8
0
100
AcDbLine
62
2
6
CONTINUOUS
10
59.8718574399
20
219.0989599921
11
55.6218574399
21
219.0989599921
0
SOLID
5
23F
100
AcDbEntity
8
0
100
AcDbTrace
62
2
6
CONTINUOUS
10
51.3718574399
20
218.5989599921
11
54.3718574399
21
219.0989599921
12
51.3718574399
22
219.5989599921
13
51.3718574399
23
219.5989599921
0
SOLID
5
240
100
AcDbEntity
8
0
100
AcDbTrace
62
2
6
CONTINUOUS
10
59.8718574399
20
219.5989599921
11
56.8718574399
21
219.0989599921
12
59.8718574399
22
218.5989599921
13
59.8718574399
23
218.5989599921
0
ENDBLK
5
241
100
AcDbEntity
8
0
100
AcDbBlockEnd
0
BLOCK
5
242
100
AcDbEntity
8
0
100
AcDbBlockBegin
62
2
6
CONTINUOUS
2
*D2
70
65
10
0.0000000000
20
0.0000000000
3
*D2
1

0
TEXT
5
243
100
AcDbEntity
8
0
100
AcDbText
62
2
6
CONTINUOUS
10
138.4408870507
20
127.7143157641
7
TEXTSTYLE_0
40
3.6000000000
1
%%c
50
90.0000000000
51
12.0000000000
72
5
11
138.4408870507
21
132.5143157641
100
AcDbText
0
TEXT
5
244
100
AcDbEntity
8
0
100
AcDbText
62
2
6
CONTINUOUS
10
138.4408870507
20
132.5143157641
7
TEXTSTYLE_0
40
3.6000000000
1
12 H9
50
90.0000000000
51
12.0000000000
72
5
11
138.4408870507
21
144.2143157641
100
AcDbText
0
TEXT
5
245
100
AcDbEntity
8
0
100
AcDbText
62
2
6
CONTINUOUS
10
136.2326313658
20
147.5321373577
7
TEXTSTYLE_0
40
2.1600000000
1
+0,043
50
90.0000000000
51
12.0000000000
72
5
11
136.2326313658
21
157.9001373577
100
AcDbText
0
TEXT
5
246
100
AcDbEntity
8
0
100
AcDbText
62
2
6
CONTINUOUS
10
139.1769722790
20
147.5321373577
7
TEXTSTYLE_0
40
2.1600000000
1
  
50
90.0000000000
51
12.0000000000
72
5
11
139.1769722790
21
150.9881373577
100
AcDbText
0
TEXT
5
247
100
AcDbEntity
8
0
100
AcDbText
62
2
6
CONTINUOUS
10
139.1769722790
20
144.2143157641
7
TEXTSTYLE_0
40
5.1043409132
1
(
50
90.0000000000
51
12.0000000000
72
5
11
139.1769722790
21
147.5321373577
100
AcDbText
0
TEXT
5
248
100
AcDbEntity
8
0
100
AcDbText
62
2
6
CONTINUOUS
10
139.1769722790
20
157.9001373577
7
TEXTSTYLE_0
40
5.1043409132
1
)
50
90.0000000000
51
12.0000000000
72
5
11
139.1769722790
21
161.2179589513
100
AcDbText
0
LINE
5
249
100
AcDbEntity
8
0
100
AcDbLine
62
2
6
CONTINUOUS
10
154.3718574399
20
172.2576187761
11
138.2811001214
21
172.2576187761
0
LINE
5
24A
100
AcDbEntity
8
0
100
AcDbLine
62
2
6
CONTINUOUS
10
154.3718574399
20
202.2576187761
11
138.2811001214
21
202.2576187761
0
LINE
5
24B
100
AcDbEntity
8
0
100
AcDbLine
62
2
6
CONTINUOUS
10
140.2811001214
20
172.2576187761
11
140.2811001214
21
187.2576187761
0
LINE
5
24C
100
AcDbEntity
8
0
100
AcDbLine
62
2
6
CONTINUOUS
10
140.2811001214
20
187.2576187761
11
140.2811001214
21
127.7143157641
0
LINE
5
24D
100
AcDbEntity
8
0
100
AcDbLine
62
2
6
CONTINUOUS
10
140.2811001214
20
202.2576187761
11
140.2811001214
21
187.2576187761
0
SOLID
5
24E
100
AcDbEntity
8
0
100
AcDbTrace
62
2
6
CONTINUOUS
10
139.7811001214
20
175.2576187761
11
140.2811001214
21
172.2576187761
12
140.7811001214
22
175.2576187761
13
140.7811001214
23
175.2576187761
0
SOLID
5
24F
100
AcDbEntity
8
0
100
AcDbTrace
62
2
6
CONTINUOUS
10
140.7811001214
20
199.2576187761
11
140.2811001214
21
202.2576187761
12
139.7811001214
22
199.2576187761
13
139.7811001214
23
199.2576187761
0
ENDBLK
5
250
100
AcDbEntity
8
0
100
AcDbBlockEnd
0
BLOCK
5
251
100
AcDbEntity
8
0
100
AcDbBlockBegin
62
2
6
CONTINUOUS
2
*D3
70
65
10
0.0000000000
20
0.0000000000
3
*D3
1

0
TEXT
5
252
100
AcDbEntity
8
0
100
AcDbText
62
2
6
CONTINUOUS
10
49.1821882219
20
181.3300550532
7
TEXTSTYLE_0
40
3.6000000000
1
%%c
50
90.0000000000
51
12.0000000000
72
5
11
49.1821882219
21
186.1300550532
100
AcDbText
0
TEXT
5
253
100
AcDbEntity
8
0
100
AcDbText
62
2
6
CONTINUOUS
10
49.1821882219
20
186.1300550532
7
TEXTSTYLE_0
40
3.6000000000
1
9,7
50
90.0000000000
51
12.0000000000
72
5
11
49.1821882219
21
193.1500550532
100
AcDbText
0
LINE
5
254
100
AcDbEntity
8
0
100
AcDbLine
62
2
6
CONTINUOUS
10
54.3718574399
20
175.1326187761
11
48.1022947573
21
175.1326187761
0
LINE
5
255
100
AcDbEntity
8
0
100
AcDbLine
62
2
6
CONTINUOUS
10
54.3718574399
20
199.3826187761
11
48.1022947573
21
199.3826187761
0
LINE
5
256
100
AcDbEntity
8
0
100
AcDbLine
62
2
6
CONTINUOUS
10
50.1022947573
20
175.1326187761
11
50.1022947573
21
187.2576187761
0
LINE
5
257
100
AcDbEntity
8
0
100
AcDbLine
62
2
6
CONTINUOUS
10
50.1022947573
20
199.3826187761
11
50.1022947573
21
187.2576187761
0
SOLID
5
258
100
AcDbEntity
8
0
100
AcDbTrace
62
2
6
CONTINUOUS
10
49.6022947573
20
178.1326187761
11
50.1022947573
21
175.1326187761
12
50.6022947573
22
178.1326187761
13
50.6022947573
23
178.1326187761
0
SOLID
5
259
100
AcDbEntity
8
0
100
AcDbTrace
62
2
6
CONTINUOUS
10
50.6022947573
20
196.3826187761
11
50.1022947573
21
199.3826187761
12
49.6022947573
22
196.3826187761
13
49.6022947573
23
196.3826187761
0
ENDBLK
5
25A
100
AcDbEntity
8
0
100
AcDbBlockEnd
0
BLOCK
5
25B
100
AcDbEntity
8
0
100
AcDbBlockBegin
62
2
6
CONTINUOUS
2
*D4
70
65
10
0.0000000000
20
0.0000000000
3
*D4
1

0
TEXT
5
25C
100
AcDbEntity
8
0
100
AcDbText
62
2
6
CONTINUOUS
10
159.4643386278
20
217.1564242976
7
TEXTSTYLE_0
40
3.6000000000
1
5
51
12.0000000000
72
5
11
161.8043386278
21
217.1564242976
100
AcDbText
0
LINE
5
25D
100
AcDbEntity
8
0
100
AcDbLine
62
2
6
CONTINUOUS
10
154.3718574399
20
202.8826187761
11
154.3718574399
21
218.2363177622
0
LINE
5
25E
100
AcDbEntity
8
0
100
AcDbLine
62
2
6
CONTINUOUS
10
166.8718574399
20
202.8826187761
11
166.8718574399
21
218.2363177622
0
LINE
5
25F
100
AcDbEntity
8
0
100
AcDbLine
62
2
6
CONTINUOUS
10
154.3718574399
20
216.2363177622
11
160.6218574399
21
216.2363177622
0
LINE
5
260
100
AcDbEntity
8
0
100
AcDbLine
62
2
6
CONTINUOUS
10
166.8718574399
20
216.2363177622
11
160.6218574399
21
216.2363177622
0
SOLID
5
261
100
AcDbEntity
8
0
100
AcDbTrace
62
2
6
CONTINUOUS
10
157.3718574399
20
216.7363177622
11
154.3718574399
21
216.2363177622
12
157.3718574399
22
215.7363177622
13
157.3718574399
23
215.7363177622
0
SOLID
5
262
100
AcDbEntity
8
0
100
AcDbTrace
62
2
6
CONTINUOUS
10
163.8718574399
20
215.7363177622
11
166.8718574399
21
216.2363177622
12
163.8718574399
22
216.7363177622
13
163.8718574399
23
216.7363177622
0
ENDBLK
5
263
100
AcDbEntity
8
0
100
AcDbBlockEnd
0
BLOCK
5
264
100
AcDbEntity
8
0
100
AcDbBlockBegin
62
2
6
CONTINUOUS
2
*D5
70
65
10
0.0000000000
20
0.0000000000
3
*D5
1

0
TEXT
5
265
100
AcDbEntity
8
0
100
AcDbText
62
2
6
CONTINUOUS
10
175.8280972036
20
179.1703406750
7
TEXTSTYLE_0
40
3.6000000000
1
%%c
50
90.0000000000
51
12.0000000000
72
5
11
175.8280972036
21
183.9703406750
100
AcDbText
0
TEXT
5
266
100
AcDbEntity
8
0
100
AcDbText
62
2
6
CONTINUOUS
10
175.8280972036
20
183.9703406750
7
TEXTSTYLE_0
40
3.6000000000
1
12,5
50
90.0000000000
51
12.0000000000
72
5
11
175.8280972036
21
193.3303406750
100
AcDbText
0
LINE
5
267
100
AcDbEntity
8
0
100
AcDbLine
62
2
6
CONTINUOUS
10
166.8718574399
20
171.6326187761
11
178.7482037389
21
171.6326187761
0
LINE
5
268
100
AcDbEntity
8
0
100
AcDbLine
62
2
6
CONTINUOUS
10
166.8718574399
20
202.8826187761
11
178.7482037389
21
202.8826187761
0
LINE
5
269
100
AcDbEntity
8
0
100
AcDbLine
62
2
6
CONTINUOUS
10
176.7482037389
20
171.6326187761
11
176.7482037389
21
187.2576187761
0
LINE
5
26A
100
AcDbEntity
8
0
100
AcDbLine
62
2
6
CONTINUOUS
10
176.7482037389
20
202.8826187761
11
176.7482037389
21
187.2576187761
0
SOLID
5
26B
100
AcDbEntity
8
0
100
AcDbTrace
62
2
6
CONTINUOUS
10
176.2482037389
20
174.6326187761
11
176.7482037389
21
171.6326187761
12
177.2482037389
22
174.6326187761
13
177.2482037389
23
174.6326187761
0
SOLID
5
26C
100
AcDbEntity
8
0
100
AcDbTrace
62
2
6
CONTINUOUS
10
177.2482037389
20
199.8826187761
11
176.7482037389
21
202.8826187761
12
176.2482037389
22
199.8826187761
13
176.2482037389
23
199.8826187761
0
ENDBLK
5
26D
100
AcDbEntity
8
0
100
AcDbBlockEnd
0
BLOCK
5
26E
100
AcDbEntity
8
0
100
AcDbBlockBegin
62
2
6
CONTINUOUS
2
*D6
70
65
10
0.0000000000
20
0.0000000000
3
*D6
1

0
TEXT
5
26F
100
AcDbEntity
8
0
100
AcDbText
62
2
6
CONTINUOUS
10
109.8853075283
20
229.6845899800
7
TEXTSTYLE_0
40
3.6000000000
1
37
51
12.0000000000
72
5
11
114.5653075283
21
229.6845899800
100
AcDbText
0
LINE
5
270
100
AcDbEntity
8
0
100
AcDbLine
62
2
6
CONTINUOUS
10
166.8718574399
20
204.7576187761
11
166.8718574399
21
230.7644834446
0
LINE
5
271
100
AcDbEntity
8
0
100
AcDbLine
62
2
6
CONTINUOUS
10
74.3718574399
20
202.2576187761
11
74.3718574399
21
230.7644834446
0
LINE
5
272
100
AcDbEntity
8
0
100
AcDbLine
62
2
6
CONTINUOUS
10
166.8718574399
20
228.7644834446
11
120.6218574399
21
228.7644834446
0
LINE
5
273
100
AcDbEntity
8
0
100
AcDbLine
62
2
6
CONTINUOUS
10
74.3718574399
20
228.7644834446
11
120.6218574399
21
228.7644834446
0
SOLID
5
274
100
AcDbEntity
8
0
100
AcDbTrace
62
2
6
CONTINUOUS
10
163.8718574399
20
228.2644834446
11
166.8718574399
21
228.7644834446
12
163.8718574399
22
229.2644834446
13
163.8718574399
23
229.2644834446
0
SOLID
5
275
100
AcDbEntity
8
0
100
AcDbTrace
62
2
6
CONTINUOUS
10
77.3718574399
20
229.2644834446
11
74.3718574399
21
228.7644834446
12
77.3718574399
22
228.2644834446
13
77.3718574399
23
228.2644834446
0
ENDBLK
5
276
100
AcDbEntity
8
0
100
AcDbBlockEnd
0
BLOCK
5
277
100
AcDbEntity
8
0
100
AcDbBlockBegin
62
2
6
CONTINUOUS
2
*D7
70
65
10
0.0000000000
20
0.0000000000
3
*D7
1

0
TEXT
5
278
100
AcDbEntity
8
0
100
AcDbText
62
2
6
CONTINUOUS
10
101.6475718230
20
239.5825222154
7
TEXTSTYLE_0
40
3.6000000000
1
45
51
12.0000000000
72
5
11
106.3275718230
21
239.5825222154
100
AcDbText
0
LINE
5
279
100
AcDbEntity
8
0
100
AcDbLine
62
2
6
CONTINUOUS
10
166.8718574399
20
204.7576187761
11
166.8718574399
21
240.6624156800
0
LINE
5
27A
100
AcDbEntity
8
0
100
AcDbLine
62
2
6
CONTINUOUS
10
54.3718574399
20
204.7576187761
11
54.3718574399
21
240.6624156800
0
LINE
5
27B
100
AcDbEntity
8
0
100
AcDbLine
62
2
6
CONTINUOUS
10
166.8718574399
20
238.6624156800
11
110.6218574399
21
238.6624156800
0
LINE
5
27C
100
AcDbEntity
8
0
100
AcDbLine
62
2
6
CONTINUOUS
10
54.3718574399
20
238.6624156800
11
110.6218574399
21
238.6624156800
0
SOLID
5
27D
100
AcDbEntity
8
0
100
AcDbTrace
62
2
6
CONTINUOUS
10
163.8718574399
20
238.1624156800
11
166.8718574399
21
238.6624156800
12
163.8718574399
22
239.1624156800
13
163.8718574399
23
239.1624156800
0
SOLID
5
27E
100
AcDbEntity
8
0
100
AcDbTrace
62
2
6
CONTINUOUS
10
57.3718574399
20
239.1624156800
11
54.3718574399
21
238.6624156800
12
57.3718574399
22
238.1624156800
13
57.3718574399
23
238.1624156800
0
ENDBLK
5
27F
100
AcDbEntity
8
0
100
AcDbBlockEnd
0
BLOCK
5
280
100
AcDbEntity
8
0
100
AcDbBlockBegin
62
2
6
CONTINUOUS
2
*D8
70
65
10
0.0000000000
20
0.0000000000
3
*D8
1

0
TEXT
5
281
100
AcDbEntity
8
0
100
AcDbText
62
2
6
CONTINUOUS
10
183.8278465625
20
183.0978341643
7
TEXTSTYLE_0
40
3.6000000000
1
%%c
50
90.0000000000
51
12.0000000000
72
5
11
183.8278465625
21
187.8978341643
100
AcDbText
0
TEXT
5
282
100
AcDbEntity
8
0
100
AcDbText
62
2
6
CONTINUOUS
10
183.8278465625
20
187.8978341643
7
TEXTSTYLE_0
40
3.6000000000
1
14
50
90.0000000000
51
12.0000000000
72
5
11
183.8278465625
21
192.5778341643
100
AcDbText
0
LINE
5
283
100
AcDbEntity
8
0
100
AcDbLine
62
2
6
CONTINUOUS
10
166.8718574399
20
204.7576187761
11
186.7479530978
21
204.7576187761
0
LINE
5
284
100
AcDbEntity
8
0
100
AcDbLine
62
2
6
CONTINUOUS
10
166.8718574399
20
169.7576187761
11
186.7479530978
21
169.7576187761
0
LINE
5
285
100
AcDbEntity
8
0
100
AcDbLine
62
2
6
CONTINUOUS
10
184.7479530978
20
204.7576187761
11
184.7479530978
21
187.2576187761
0
LINE
5
286
100
AcDbEntity
8
0
100
AcDbLine
62
2
6
CONTINUOUS
10
184.7479530978
20
169.7576187761
11
184.7479530978
21
187.2576187761
0
SOLID
5
287
100
AcDbEntity
8
0
100
AcDbTrace
62
2
6
CONTINUOUS
10
185.2479530978
20
201.7576187761
11
184.7479530978
21
204.7576187761
12
184.2479530978
22
201.7576187761
13
184.2479530978
23
201.7576187761
0
SOLID
5
288
100
AcDbEntity
8
0
100
AcDbTrace
62
2
6
CONTINUOUS
10
184.2479530978
20
172.7576187761
11
184.7479530978
21
169.7576187761
12
185.2479530978
22
172.7576187761
13
185.2479530978
23
172.7576187761
0
ENDBLK
5
289
100
AcDbEntity
8
0
100
AcDbBlockEnd
0
BLOCK
5
28A
100
AcDbEntity
8
0
100
AcDbBlockBegin
62
2
6
CONTINUOUS
2
*D9
70
65
10
0.0000000000
20
0.0000000000
3
*D9
1

0
TEXT
5
28B
100
AcDbEntity
8
0
100
AcDbText
62
2
6
CONTINUOUS
10
130.6138674859
20
212.3123687124
7
TEXTSTYLE_0
40
3.6000000000
1
45%%d
50
67.3010294802
51
12.0000000000
72
5
11
133.3459649070
21
218.8439874766
100
AcDbText
0
LINE
5
28C
100
AcDbEntity
8
0
100
AcDbLine
62
2
6
CONTINUOUS
10
151.8718574399
20
207.2576187761
11
137.8134422346
21
221.3160339814
0
LINE
5
28D
100
AcDbEntity
8
0
100
AcDbLine
62
2
6
CONTINUOUS
10
151.8718574399
20
207.2576187761
11
131.9902559911
21
207.2576187761
0
ARC
5
28E
100
AcDbEntity
8
0
100
AcDbCircle
62
2
6
CONTINUOUS
10
151.8718574399
20
207.2576187761
40
17.8816014487
100
AcDbArc
50
135.0000000000
51
157.5000000000
0
ARC
5
28F
100
AcDbEntity
8
0
100
AcDbCircle
62
2
6
CONTINUOUS
10
151.8718574399
20
207.2576187761
40
17.8816014487
100
AcDbArc
50
157.5000000000
51
180.0000000000
0
SOLID
5
290
100
AcDbEntity
8
0
100
AcDbTrace
62
2
6
CONTINUOUS
10
139.2276557970
20
219.9018204190
11
137.6734664806
21
217.2875336006
12
136.9095999079
22
217.9329078016
13
136.9095999079
23
217.9329078016
0
SOLID
5
291
100
AcDbEntity
8
0
100
AcDbTrace
62
2
6
CONTINUOUS
10
133.9902559911
20
207.2576187761
11
133.7433744162
21
210.2889632778
12
134.7398581235
22
210.2051765183
13
134.7398581235
23
210.2051765183
0
ENDBLK
5
292
100
AcDbEntity
8
0
100
AcDbBlockEnd
0
BLOCK
5
293
100
AcDbEntity
8
0
100
AcDbBlockBegin
62
2
6
CONTINUOUS
2
*D10
70
65
10
0.0000000000
20
0.0000000000
3
*D10
1

0
TEXT
5
294
100
AcDbEntity
8
0
100
AcDbText
62
2
6
CONTINUOUS
10
26.6700070842
20
183.7975510446
7
TEXTSTYLE_0
40
3.6000000000
1
120%%d
50
87.9321057414
51
12.0000000000
72
5
11
27.0099158059
21
193.2114164601
100
AcDbText
0
LINE
5
295
100
AcDbEntity
8
0
100
AcDbLine
62
2
6
CONTINUOUS
10
54.7055627871
20
198.8046241599
11
50.3846027801
21
206.2887464296
0
LINE
5
296
100
AcDbEntity
8
0
100
AcDbLine
62
2
6
CONTINUOUS
10
48.7255650811
20
209.1622840159
11
44.9350569722
21
215.7276366470
0
LINE
5
297
100
AcDbEntity
8
0
100
AcDbLine
62
2
6
CONTINUOUS
10
54.7055627871
20
175.7106133923
11
50.6716450085
21
168.7236628463
0
LINE
5
298
100
AcDbEntity
8
0
100
AcDbLine
62
2
6
CONTINUOUS
10
49.1413173777
20
166.0730576374
11
44.9350569722
21
158.7876009052
0
ARC
5
299
100
AcDbEntity
8
0
100
AcDbCircle
62
2
6
CONTINUOUS
10
61.3722294538
20
187.2576187761
40
30.8743449632
100
AcDbArc
50
120.0000000000
51
180.0000000000
0
ARC
5
29A
100
AcDbEntity
8
0
100
AcDbCircle
62
2
6
CONTINUOUS
10
61.3722294538
20
187.2576187761
40
30.8743449632
100
AcDbArc
50
180.0000000000
51
240.0000000000
0
SOLID
5
29B
100
AcDbEntity
8
0
100
AcDbTrace
62
2
6
CONTINUOUS
10
45.9350569722
20
213.9955858395
11
43.6836280237
21
211.9508199140
12
43.1421595586
22
212.7915409744
13
43.1421595586
23
212.7915409744
0
SOLID
5
29C
100
AcDbEntity
8
0
100
AcDbTrace
62
2
6
CONTINUOUS
10
45.9350569722
20
160.5196517128
11
43.1421595586
21
161.7236965779
12
43.6836280237
22
162.5644176382
13
43.6836280237
23
162.5644176382
0
ENDBLK
5
29D
100
AcDbEntity
8
0
100
AcDbBlockEnd
0
BLOCK
5
29E
100
AcDbEntity
8
0
100
AcDbBlockBegin
62
2
6
CONTINUOUS
2
*D11
70
65
10
0.0000000000
20
0.0000000000
3
*D11
1

0
TEXT
5
29F
100
AcDbEntity
8
0
100
AcDbText
62
2
6
CONTINUOUS
10
78.0600788532
20
100.8457903988
7
TEXTSTYLE_0
40
3.6000000000
1
8 D11
51
12.0000000000
72
5
11
89.7600788532
21
100.8457903988
100
AcDbText
0
TEXT
5
2A0
100
AcDbEntity
8
0
100
AcDbText
62
2
6
CONTINUOUS
10
93.0779004467
20
103.0540460837
7
TEXTSTYLE_0
40
2.1600000000
1
+0,13
51
12.0000000000
72
5
11
101.7179004467
21
103.0540460837
100
AcDbText
0
TEXT
5
2A1
100
AcDbEntity
8
0
100
AcDbText
62
2
6
CONTINUOUS
10
93.0779004467
20
100.1097051705
7
TEXTSTYLE_0
40
2.1600000000
1
+0,04
51
12.0000000000
72
5
11
101.7179004467
21
100.1097051705
100
AcDbText
0
TEXT
5
2A2
100
AcDbEntity
8
0
100
AcDbText
62
2
6
CONTINUOUS
10
89.7600788532
20
100.1097051705
7
TEXTSTYLE_0
40
5.1043409132
1
(
51
12.0000000000
72
5
11
93.0779004467
21
100.1097051705
100
AcDbText
0
TEXT
5
2A3
100
AcDbEntity
8
0
100
AcDbText
62
2
6
CONTINUOUS
10
101.7179004467
20
100.1097051705
7
TEXTSTYLE_0
40
5.1043409132
1
)
51
12.0000000000
72
5
11
105.0357220403
21
100.1097051705
100
AcDbText
0
LINE
5
2A4
100
AcDbEntity
8
0
100
AcDbLine
62
2
6
CONTINUOUS
10
55.0418266914
20
120.8377689844
11
55.0418266914
21
97.0055773280
0
LINE
5
2A5
100
AcDbEntity
8
0
100
AcDbLine
62
2
6
CONTINUOUS
10
75.0418266914
20
120.8377689844
11
75.0418266914
21
97.0055773280
0
LINE
5
2A6
100
AcDbEntity
8
0
100
AcDbLine
62
2
6
CONTINUOUS
10
55.0418266914
20
99.0055773280
11
65.0418266914
21
99.0055773280
0
LINE
5
2A7
100
AcDbEntity
8
0
100
AcDbLine
62
2
6
CONTINUOUS
10
75.0418266914
20
99.0055773280
11
65.0418266914
21
99.0055773280
0
LINE
5
2A8
100
AcDbEntity
8
0
100
AcDbLine
62
2
6
CONTINUOUS
10
65.0418266914
20
99.0055773280
11
105.0357220403
21
99.0055773280
0
SOLID
5
2A9
100
AcDbEntity
8
0
100
AcDbTrace
62
2
6
CONTINUOUS
10
58.0418266914
20
99.5055773280
11
55.0418266914
21
99.0055773280
12
58.0418266914
22
98.5055773280
13
58.0418266914
23
98.5055773280
0
SOLID
5
2AA
100
AcDbEntity
8
0
100
AcDbTrace
62
2
6
CONTINUOUS
10
72.0418266914
20
98.5055773280
11
75.0418266914
21
99.0055773280
12
72.0418266914
22
99.5055773280
13
72.0418266914
23
99.5055773280
0
ENDBLK
5
2AB
100
AcDbEntity
8
0
100
AcDbBlockEnd
0
BLOCK
5
2AC
100
AcDbEntity
8
0
100
AcDbBlockBegin
62
2
6
CONTINUOUS
2
*D12
70
65
10
0.0000000000
20
0.0000000000
3
*D12
1

0
TEXT
5
2AD
100
AcDbEntity
8
0
100
AcDbText
62
2
6
CONTINUOUS
10
92.7830328423
20
126.1422354413
7
TEXTSTYLE_0
40
3.6000000000
1
 min
50
90.0000000000
51
12.0000000000
72
5
11
92.7830328423
21
135.5022354413
100
AcDbText
0
TEXT
5
2AE
100
AcDbEntity
8
0
100
AcDbText
62
2
6
CONTINUOUS
10
92.7830328423
20
116.7822354413
7
TEXTSTYLE_0
40
3.6000000000
1
9,24
50
90.0000000000
51
12.0000000000
72
5
11
92.7830328423
21
126.1422354413
100
AcDbText
0
LINE
5
2AF
100
AcDbEntity
8
0
100
AcDbLine
62
2
6
CONTINUOUS
10
65.0418266914
20
115.0642662925
11
95.7031393777
21
115.0642662925
0
LINE
5
2B0
100
AcDbEntity
8
0
100
AcDbLine
62
2
6
CONTINUOUS
10
65.0418266914
20
138.1582770601
11
95.7031393777
21
138.1582770601
0
LINE
5
2B1
100
AcDbEntity
8
0
100
AcDbLine
62
2
6
CONTINUOUS
10
93.7031393777
20
115.0642662925
11
93.7031393777
21
126.6112716763
0
LINE
5
2B2
100
AcDbEntity
8
0
100
AcDbLine
62
2
6
CONTINUOUS
10
93.7031393777
20
138.1582770601
11
93.7031393777
21
126.6112716763
0
SOLID
5
2B3
100
AcDbEntity
8
0
100
AcDbTrace
62
2
6
CONTINUOUS
10
93.2031393777
20
118.0642662925
11
93.7031393777
21
115.0642662925
12
94.2031393777
22
118.0642662925
13
94.2031393777
23
118.0642662925
0
SOLID
5
2B4
100
AcDbEntity
8
0
100
AcDbTrace
62
2
6
CONTINUOUS
10
94.2031393777
20
135.1582770601
11
93.7031393777
21
138.1582770601
12
93.2031393777
22
135.1582770601
13
93.2031393777
23
135.1582770601
0
ENDBLK
5
2B5
100
AcDbEntity
8
0
100
AcDbBlockEnd
0
BLOCK
5
2B6
100
AcDbEntity
8
0
100
AcDbBlockBegin
62
2
6
CONTINUOUS
2
UGOL_BL0
70
64
10
0.0000000000
20
0.0000000000
3
UGOL_BL0
1

0
TEXT
5
2B7
100
AcDbEntity
8
0
100
AcDbText
62
2
6
CONTINUOUS
10
192.1442201118
20
277.6944068259
7
TEXTSTYLE_0
40
3.5000000000
1
 
72
5
11
194.4192201118
21
277.6944068259
100
AcDbText
0
TEXT
5
2B8
100
AcDbEntity
8
0
100
AcDbText
62
2
6
CONTINUOUS
10
172.8736494506
20
280.9414329649
7
TEXTSTYLE_0
40
6.1600000000
1
Rz40
51
15.0000000000
72
5
11
188.8896494506
21
280.9414329649
100
AcDbText
0
TEXT
5
2B9
100
AcDbEntity
8
0
100
AcDbText
62
2
6
CONTINUOUS
10
188.8888774411
20
271.2174350482
7
TEXTSTYLE_0
40
5.0000000000
1
( )
72
5
11
198.6388774411
21
271.2174350482
100
AcDbText
0
LINE
5
2BA
100
AcDbEntity
8
0
100
AcDbLine
62
2
6
CONTINUOUS
39
0.5681818182
10
190.8979522612
20
276.3915292356
11
193.9174017930
21
271.1616892356
0
LINE
5
2BB
100
AcDbEntity
8
0
100
AcDbLine
62
2
6
CONTINUOUS
39
0.5681818182
10
193.9174017930
20
271.1616892356
11
196.9368513248
21
276.3915292356
0
LINE
5
2BC
100
AcDbEntity
8
0
100
AcDbLine
62
2
6
CONTINUOUS
39
0.5681818182
10
196.9368513248
20
276.3915292356
11
199.9669702896
21
281.6398492356
0
LINE
5
2BD
100
AcDbEntity
8
0
100
AcDbLine
62
2
6
CONTINUOUS
39
0.5681818182
10
180.1971971716
20
279.3827874080
11
184.8471494506
21
271.3288338080
0
LINE
5
2BE
100
AcDbEntity
8
0
100
AcDbLine
62
2
6
CONTINUOUS
39
0.5681818182
10
184.8471494506
20
271.3288338080
11
189.4971017296
21
279.3827874080
0
LINE
5
2BF
100
AcDbEntity
8
0
100
AcDbLine
62
2
6
CONTINUOUS
39
0.5681818182
10
189.4971017296
20
279.3827874080
11
194.1634849354
21
287.4652002080
0
ENDBLK
5
2C0
100
AcDbEntity
8
0
100
AcDbBlockEnd
0
BLOCK
5
2C1
100
AcDbEntity
8
0
100
AcDbBlockBegin
62
2
6
CONTINUOUS
2
STANDARD_BL1
70
64
10
0.0000000000
20
0.0000000000
3
STANDARD_BL1
1

0
TEXT
5
2C2
100
AcDbEntity
8
0
100
AcDbText
62
2
6
CONTINUOUS
10
114.5605236518
20
177.8753715302
7
TEXTSTYLE_0
40
3.6000000000
1
1,6
51
15.0000000000
72
5
11
121.5805236518
21
177.8753715302
100
AcDbText
0
LINE
5
2C3
100
AcDbEntity
8
0
100
AcDbLine
62
2
6
CONTINUOUS
39
0.5681818182
10
116.5005190731
20
176.9644747761
11
119.2180236518
21
172.2576187761
0
LINE
5
2C4
100
AcDbEntity
8
0
100
AcDbLine
62
2
6
CONTINUOUS
39
0.5681818182
10
119.2180236518
20
172.2576187761
11
121.9355282304
21
176.9644747761
0
LINE
5
2C5
100
AcDbEntity
8
0
100
AcDbLine
62
2
6
CONTINUOUS
39
0.5681818182
10
121.9355282304
20
176.9644747761
11
124.6626352987
21
181.6879627761
0
ENDBLK
5
2C6
100
AcDbEntity
8
0
100
AcDbBlockEnd
0
BLOCK
5
2C7
100
AcDbEntity
8
0
100
AcDbBlockBegin
62
2
6
CONTINUOUS
2
STANDARD_BL2
70
64
10
0.0000000000
20
0.0000000000
3
STANDARD_BL2
1

0
TEXT
5
2C8
100
AcDbEntity
8
0
100
AcDbText
62
2
6
CONTINUOUS
10
101.9826346221
20
212.8753715302
7
TEXTSTYLE_0
40
3.6000000000
1
2,5
51
15.0000000000
72
5
11
109.0026346221
21
212.8753715302
100
AcDbText
0
LINE
5
2C9
100
AcDbEntity
8
0
100
AcDbLine
62
2
6
CONTINUOUS
39
0.5681818182
10
103.9226300434
20
211.9644747761
11
106.6401346221
21
207.2576187761
0
LINE
5
2CA
100
AcDbEntity
8
0
100
AcDbLine
62
2
6
CONTINUOUS
39
0.5681818182
10
106.6401346221
20
207.2576187761
11
109.3576392007
21
211.9644747761
0
LINE
5
2CB
100
AcDbEntity
8
0
100
AcDbLine
62
2
6
CONTINUOUS
39
0.5681818182
10
109.3576392007
20
211.9644747761
11
112.0847462690
21
216.6879627761
0
ENDBLK
5
2CC
100
AcDbEntity
8
0
100
AcDbBlockEnd
0
ENDSEC
0
SECTION
2
ENTITIES
0
DIMENSION
5
2CD
100
AcDbEntity
8
0
100
AcDbDimension
62
2
6
CONTINUOUS
2
*D0
10
42.6813203337
20
207.2576187761
11
39.9612137983
21
186.4449506507
3
DIMSTYLE_1
100
AcDbAlignedDimension
13
56.8427246275
23
167.2576187761
14
56.9820957765
24
207.2576187761
50
90.000000
100
AcDbRotatedDimension
0
DIMENSION
5
2CE
100
AcDbEntity
8
0
100
AcDbDimension
62
2
6
CONTINUOUS
2
*D1
10
56.8718574399
20
219.0989599921
11
42.7450536790
21
221.8190665275
3
DIMSTYLE_2
100
AcDbAlignedDimension
13
54.3718574399
23
204.7576187761
14
56.8718574399
24
207.2576187761
100
AcDbRotatedDimension
0
DIMENSION
5
2CF
100
AcDbEntity
8
0
100
AcDbDimension
62
2
6
CONTINUOUS
2
*D2
10
140.2811001214
20
202.2576187761
11
136.6248018224
21
144.4661373577
3
DIMSTYLE_3
100
AcDbAlignedDimension
13
154.3718574399
23
172.2576187761
14
154.3718574399
24
202.2576187761
50
90.000000
100
AcDbRotatedDimension
0
DIMENSION
5
2D0
100
AcDbEntity
8
0
100
AcDbDimension
62
2
6
CONTINUOUS
2
*D3
10
50.1022947573
20
199.3826187761
11
47.3821882219
21
187.2400550532
3
DIMSTYLE_1
100
AcDbAlignedDimension
13
54.3718574399
23
175.1326187761
14
54.3718574399
24
199.3826187761
50
90.000000
100
AcDbRotatedDimension
0
DIMENSION
5
2D1
100
AcDbEntity
8
0
100
AcDbDimension
62
2
6
CONTINUOUS
2
*D4
10
166.8718574399
20
216.2363177622
11
160.6343386278
21
218.9564242976
3
DIMSTYLE_2
100
AcDbAlignedDimension
13
154.3718574399
23
202.8826187761
14
166.8718574399
24
202.8826187761
100
AcDbRotatedDimension
0
DIMENSION
5
2D2
100
AcDbEntity
8
0
100
AcDbDimension
62
2
6
CONTINUOUS
2
*D5
10
176.7482037389
20
202.8826187761
11
174.0280972036
21
186.2503406750
3
DIMSTYLE_1
100
AcDbAlignedDimension
13
166.8718574399
23
171.6326187761
14
166.8718574399
24
202.8826187761
50
90.000000
100
AcDbRotatedDimension
0
DIMENSION
5
2D3
100
AcDbEntity
8
0
100
AcDbDimension
62
2
6
CONTINUOUS
2
*D6
10
74.3718574399
20
228.7644834446
11
112.2253075283
21
231.4845899800
3
DIMSTYLE_4
100
AcDbAlignedDimension
13
166.8718574399
23
204.7576187761
14
74.3718574399
24
202.2576187761
50
180.000000
100
AcDbRotatedDimension
0
DIMENSION
5
2D4
100
AcDbEntity
8
0
100
AcDbDimension
62
2
6
CONTINUOUS
2
*D7
10
54.3718574399
20
238.6624156800
11
103.9875718230
21
241.3825222154
3
DIMSTYLE_4
100
AcDbAlignedDimension
13
166.8718574399
23
204.7576187761
14
54.3718574399
24
204.7576187761
50
180.000000
100
AcDbRotatedDimension
0
DIMENSION
5
2D5
100
AcDbEntity
8
0
100
AcDbDimension
62
2
6
CONTINUOUS
2
*D8
10
184.7479530978
20
169.7576187761
11
182.0278465625
21
187.8378341643
3
DIMSTYLE_1
100
AcDbAlignedDimension
13
166.8718574399
23
204.7576187761
14
166.8718574399
24
169.7576187761
50
270.000000
100
AcDbRotatedDimension
0
DIMENSION
5
2D6
100
AcDbEntity
8
0
100
AcDbDimension
62
2
6
CONTINUOUS
2
*D9
10
151.8718574399
20
207.2576187761
11
130.3193351547
21
216.2727791338
70
2
3
DIMSTYLE_5
100
AcDb2LineAngularDimension
13
151.8718574399
23
207.2576187761
14
137.8134422346
24
221.3160339814
15
131.9902559911
25
207.2576187761
16
135.3514118529
26
214.1006113947
0
DIMENSION
5
2D7
100
AcDbEntity
8
0
100
AcDbDimension
62
2
6
CONTINUOUS
2
*D10
10
54.7055627871
20
175.7106133923
11
25.0411336586
21
188.5694344635
70
2
3
DIMSTYLE_5
100
AcDb2LineAngularDimension
13
54.7055627871
23
198.8046241599
14
44.9350569722
24
215.7276366470
15
44.9350569722
25
158.7876009052
16
30.4978844906
26
187.2576187761
0
DIMENSION
5
2D8
100
AcDbEntity
8
0
100
AcDbDimension
62
2
6
CONTINUOUS
2
*D11
10
75.0418266914
20
99.0055773280
11
91.5479004467
21
102.6618756271
3
DIMSTYLE_6
100
AcDbAlignedDimension
13
55.0418266914
23
120.8377689844
14
75.0418266914
24
120.8377689844
100
AcDbRotatedDimension
0
DIMENSION
5
2D9
100
AcDbEntity
8
0
100
AcDbDimension
62
2
6
CONTINUOUS
2
*D12
10
93.7031393777
20
138.1582770601
11
90.9830328423
21
126.1422354413
3
DIMSTYLE_1
100
AcDbAlignedDimension
13
65.0418266914
23
115.0642662925
14
65.0418266914
24
138.1582770601
50
90.000000
100
AcDbRotatedDimension
0
LINE
5
2DA
100
AcDbEntity
8
0
100
AcDbLine
62
7
6
CONTINUOUS
10
90.0000000000
20
278.3498994289
11
20.0000000000
21
278.3498994289
0
LINE
5
2DB
100
AcDbEntity
8
0
100
AcDbLine
62
7
6
CONTINUOUS
10
90.0000000000
20
278.3498994289
11
90.0000000000
21
292.3498994289
0
LINE
5
2DC
100
AcDbEntity
8
0
100
AcDbLine
62
7
6
CONTINUOUS
10
90.0000000000
20
292.3498994289
11
20.0000000000
21
292.3498994289
0
LINE
5
2DD
100
AcDbEntity
8
0
100
AcDbLine
62
7
6
CONTINUOUS
10
20.0000000000
20
278.3498994289
11
20.0000000000
21
292.3498994289
0
TEXT
5
2DE
100
AcDbEntity
8
0
100
AcDbText
62
2
6
CONTINUOUS
10
79.5000000000
20
288.9280915109
7
TEXTSTYLE_0
40
7.0000000000
1
IPCS.05.210.01
50
180.0000000000
51
12.0000000000
72
5
11
30.5000000000
21
288.9280915109
100
AcDbText
0
LINE
5
2DF
100
AcDbEntity
8
0
100
AcDbLine
62
7
6
CONTINUOUS
10
205.0000000000
20
5.0000000000
11
20.0000000000
21
5.0000000000
0
LINE
5
2E0
100
AcDbEntity
8
0
100
AcDbLine
62
7
6
CONTINUOUS
10
205.0000000000
20
5.0000000000
11
205.0000000000
21
60.0000000000
0
LINE
5
2E1
100
AcDbEntity
8
0
100
AcDbLine
62
7
6
CONTINUOUS
10
85.0000000000
20
10.0000000000
11
20.0000000000
21
10.0000000000
0
LINE
5
2E2
100
AcDbEntity
8
0
100
AcDbLine
62
7
6
CONTINUOUS
10
155.0000000000
20
12.5000000000
11
105.0000000000
21
12.5000000000
0
LINE
5
2E3
100
AcDbEntity
8
0
100
AcDbLine
62
7
6
CONTINUOUS
10
85.0000000000
20
15.0000000000
11
20.0000000000
21
15.0000000000
0
LINE
5
2E4
100
AcDbEntity
8
0
100
AcDbLine
62
7
6
CONTINUOUS
10
205.0000000000
20
20.0000000000
11
20.0000000000
21
20.0000000000
0
LINE
5
2E5
100
AcDbEntity
8
0
100
AcDbLine
62
7
6
CONTINUOUS
10
205.0000000000
20
25.0000000000
11
155.0000000000
21
25.0000000000
0
LINE
5
2E6
100
AcDbEntity
8
0
100
AcDbLine
62
7
6
CONTINUOUS
10
85.0000000000
20
25.0000000000
11
20.0000000000
21
25.0000000000
0
LINE
5
2E7
100
AcDbEntity
8
0
100
AcDbLine
62
7
6
CONTINUOUS
10
85.0000000000
20
30.0000000000
11
20.0000000000
21
30.0000000000
0
LINE
5
2E8
100
AcDbEntity
8
0
100
AcDbLine
62
7
6
CONTINUOUS
10
85.0000000000
20
35.0000000000
11
20.0000000000
21
35.0000000000
0
LINE
5
2E9
100
AcDbEntity
8
0
100
AcDbLine
62
7
6
CONTINUOUS
10
205.0000000000
20
40.0000000000
11
155.0000000000
21
40.0000000000
0
LINE
5
2EA
100
AcDbEntity
8
0
100
AcDbLine
62
7
6
CONTINUOUS
10
85.0000000000
20
40.0000000000
11
20.0000000000
21
40.0000000000
0
LINE
5
2EB
100
AcDbEntity
8
0
100
AcDbLine
62
7
6
CONTINUOUS
10
205.0000000000
20
45.0000000000
11
20.0000000000
21
45.0000000000
0
LINE
5
2EC
100
AcDbEntity
8
0
100
AcDbLine
62
7
6
CONTINUOUS
10
85.0000000000
20
50.0000000000
11
20.0000000000
21
50.0000000000
0
LINE
5
2ED
100
AcDbEntity
8
0
100
AcDbLine
62
7
6
CONTINUOUS
10
85.0000000000
20
55.0000000000
11
20.0000000000
21
55.0000000000
0
LINE
5
2EE
100
AcDbEntity
8
0
100
AcDbLine
62
7
6
CONTINUOUS
10
205.0000000000
20
60.0000000000
11
20.0000000000
21
60.0000000000
0
LINE
5
2EF
100
AcDbEntity
8
0
100
AcDbLine
62
7
6
CONTINUOUS
10
187.0000000000
20
25.0000000000
11
187.0000000000
21
45.0000000000
0
LINE
5
2F0
100
AcDbEntity
8
0
100
AcDbLine
62
7
6
CONTINUOUS
10
175.0000000000
20
20.0000000000
11
175.0000000000
21
25.0000000000
0
LINE
5
2F1
100
AcDbEntity
8
0
100
AcDbLine
62
7
6
CONTINUOUS
10
170.0000000000
20
25.0000000000
11
170.0000000000
21
45.0000000000
0
LINE
5
2F2
100
AcDbEntity
8
0
100
AcDbLine
62
7
6
CONTINUOUS
10
165.0000000000
20
25.0000000000
11
165.0000000000
21
40.0000000000
0
LINE
5
2F3
100
AcDbEntity
8
0
100
AcDbLine
62
7
6
CONTINUOUS
10
160.0000000000
20
25.0000000000
11
160.0000000000
21
40.0000000000
0
LINE
5
2F4
100
AcDbEntity
8
0
100
AcDbLine
62
7
6
CONTINUOUS
10
155.0000000000
20
5.0000000000
11
155.0000000000
21
45.0000000000
0
LINE
5
2F5
100
AcDbEntity
8
0
100
AcDbLine
62
7
6
CONTINUOUS
10
85.0000000000
20
5.0000000000
11
85.0000000000
21
60.0000000000
0
LINE
5
2F6
100
AcDbEntity
8
0
100
AcDbLine
62
7
6
CONTINUOUS
10
75.0000000000
20
5.0000000000
11
75.0000000000
21
60.0000000000
0
LINE
5
2F7
100
AcDbEntity
8
0
100
AcDbLine
62
7
6
CONTINUOUS
10
60.0000000000
20
5.0000000000
11
60.0000000000
21
60.0000000000
0
LINE
5
2F8
100
AcDbEntity
8
0
100
AcDbLine
62
7
6
CONTINUOUS
10
37.0000000000
20
5.0000000000
11
37.0000000000
21
60.0000000000
0
LINE
5
2F9
100
AcDbEntity
8
0
100
AcDbLine
62
7
6
CONTINUOUS
10
27.0000000000
20
35.0000000000
11
27.0000000000
21
60.0000000000
0
LINE
5
2FA
100
AcDbEntity
8
0
100
AcDbLine
62
7
6
CONTINUOUS
10
20.0000000000
20
5.0000000000
11
20.0000000000
21
60.0000000000
0
TEXT
5
2FB
100
AcDbEntity
8
0
100
AcDbText
62
2
6
CONTINUOUS
10
172.3000000000
20
8.9218079180
7
TEXTSTYLE_0
40
7.0000000000
1
PNPI
51
12.0000000000
72
5
11
187.7000000000
21
8.9218079180
100
AcDbText
0
TEXT
5
2FC
100
AcDbEntity
8
0
100
AcDbText
62
2
6
CONTINUOUS
10
109.3000000000
20
6.3986166318
7
TEXTSTYLE_0
40
4.6000000000
1
45 GOST 1050-88
51
12.0000000000
72
5
11
150.7000000000
21
6.3986166318
100
AcDbText
0
TEXT
5
2FD
100
AcDbEntity
8
0
100
AcDbText
62
2
6
CONTINUOUS
10
86.7200000000
20
10.1486166318
7
TEXTSTYLE_0
40
4.6000000000
1
Rounds
51
12.0000000000
72
5
11
103.2800000000
21
10.1486166318
100
AcDbText
0
TEXT
5
2FE
100
AcDbEntity
8
0
100
AcDbText
62
2
6
CONTINUOUS
10
42.3400000000
20
5.8642550482
7
TEXTSTYLE_0
40
3.2000000000
1
Trounov
51
12.0000000000
72
5
11
54.6600000000
21
5.8642550482
100
AcDbText
0
TEXT
5
2FF
100
AcDbEntity
8
0
100
AcDbText
62
2
6
CONTINUOUS
10
21.0760000000
20
5.8642550482
7
TEXTSTYLE_0
40
3.2000000000
1
Approved
51
12.0000000000
72
5
11
35.9240000000
21
5.8642550482
100
AcDbText
0
TEXT
5
300
100
AcDbEntity
8
0
100
AcDbText
62
2
6
CONTINUOUS
10
109.3000000000
20
13.8986166318
7
TEXTSTYLE_0
40
4.6000000000
1
18 GOST 2590-88
51
12.0000000000
72
5
11
150.7000000000
21
13.8986166318
100
AcDbText
0
TEXT
5
301
100
AcDbEntity
8
0
100
AcDbText
62
2
6
CONTINUOUS
10
181.9600000000
20
20.7875795036
7
TEXTSTYLE_0
40
3.3500000000
1
Sheets 1
51
12.0000000000
72
5
11
198.0400000000
21
20.7875795036
100
AcDbText
0
TEXT
5
302
100
AcDbEntity
8
0
100
AcDbText
62
2
6
CONTINUOUS
10
159.9750000000
20
20.7875795036
7
TEXTSTYLE_0
40
3.3500000000
1
Sheet
51
12.0000000000
72
5
11
170.0250000000
21
20.7875795036
100
AcDbText
0
TEXT
5
303
100
AcDbEntity
8
0
100
AcDbText
62
2
6
CONTINUOUS
10
102.0000000000
20
29.4329782154
7
TEXTSTYLE_0
40
6.0000000000
1
Screw body
51
12.0000000000
72
5
11
138.0000000000
21
29.4329782154
100
AcDbText
0
TEXT
5
304
100
AcDbEntity
8
0
100
AcDbText
62
2
6
CONTINUOUS
10
189.7000000000
20
28.9218079180
7
TEXTSTYLE_0
40
7.0000000000
1
5:2
51
12.0000000000
72
5
11
202.3000000000
21
28.9218079180
100
AcDbText
0
TEXT
5
305
100
AcDbEntity
8
0
100
AcDbText
62
2
6
CONTINUOUS
10
172.2500000000
20
29.9441485128
7
TEXTSTYLE_0
40
5.0000000000
1
0,032
51
12.0000000000
72
5
11
184.7500000000
21
29.9441485128
100
AcDbText
0
TEXT
5
306
100
AcDbEntity
8
0
100
AcDbText
62
2
6
CONTINUOUS
10
42.3400000000
20
25.8642550482
7
TEXTSTYLE_0
40
3.2000000000
1
Boulkin
51
12.0000000000
72
5
11
54.6600000000
21
25.8642550482
100
AcDbText
0
TEXT
5
307
100
AcDbEntity
8
0
100
AcDbText
62
2
6
CONTINUOUS
10
22.0040000000
20
25.8642550482
7
TEXTSTYLE_0
40
3.2000000000
1
Checked
51
12.0000000000
72
5
11
34.9960000000
21
25.8642550482
100
AcDbText
0
TEXT
5
308
100
AcDbEntity
8
0
100
AcDbText
62
2
6
CONTINUOUS
10
75.9050000000
20
31.1709572267
7
TEXTSTYLE_0
40
2.6000000000
1
16.7.03
51
12.0000000000
72
5
11
84.0950000000
21
31.1709572267
100
AcDbText
0
TEXT
5
309
100
AcDbEntity
8
0
100
AcDbText
62
2
6
CONTINUOUS
10
39.7000000000
20
30.8642550482
7
TEXTSTYLE_0
40
3.2000000000
1
Schebetova
51
12.0000000000
72
5
11
57.3000000000
21
30.8642550482
100
AcDbText
0
TEXT
5
30A
100
AcDbEntity
8
0
100
AcDbText
62
2
6
CONTINUOUS
10
21.0760000000
20
30.8642550482
7
TEXTSTYLE_0
40
3.2000000000
1
Designed
51
12.0000000000
72
5
11
35.9240000000
21
30.8642550482
100
AcDbText
0
TEXT
5
30B
100
AcDbEntity
8
0
100
AcDbText
62
2
6
CONTINUOUS
10
76.2880000000
20
35.8642550482
7
TEXTSTYLE_0
40
3.2000000000
1
Date
51
12.0000000000
72
5
11
83.7120000000
21
35.8642550482
100
AcDbText
0
TEXT
5
30C
100
AcDbEntity
8
0
100
AcDbText
62
2
6
CONTINUOUS
10
60.7162500000
20
35.7875795036
7
TEXTSTYLE_0
40
3.3500000000
1
Signature
51
12.0000000000
72
5
11
74.2837500000
21
35.7875795036
100
AcDbText
0
TEXT
5
30D
100
AcDbEntity
8
0
100
AcDbText
62
2
6
CONTINUOUS
10
38.2920000000
20
35.8642550482
7
TEXTSTYLE_0
40
3.2000000000
1
N document.
51
12.0000000000
72
5
11
58.7080000000
21
35.8642550482
100
AcDbText
0
TEXT
5
30E
100
AcDbEntity
8
0
100
AcDbText
62
2
6
CONTINUOUS
10
27.3600000000
20
35.8642550482
7
TEXTSTYLE_0
40
3.2000000000
1
Sheet
51
12.0000000000
72
5
11
36.6400000000
21
35.8642550482
100
AcDbText
0
TEXT
5
30F
100
AcDbEntity
8
0
100
AcDbText
62
2
6
CONTINUOUS
10
20.7160000000
20
35.8642550482
7
TEXTSTYLE_0
40
3.2000000000
1
Chg
51
12.0000000000
72
5
11
26.2840000000
21
35.8642550482
100
AcDbText
0
TEXT
5
310
100
AcDbEntity
8
0
100
AcDbText
62
2
6
CONTINUOUS
10
190.9750000000
20
40.7875795036
7
TEXTSTYLE_0
40
3.3500000000
1
Scale
51
12.0000000000
72
5
11
201.0250000000
21
40.7875795036
100
AcDbText
0
TEXT
5
311
100
AcDbEntity
8
0
100
AcDbText
62
2
6
CONTINUOUS
10
174.4800000000
20
40.7875795036
7
TEXTSTYLE_0
40
3.3500000000
1
Mass
51
12.0000000000
72
5
11
182.5200000000
21
40.7875795036
100
AcDbText
0
TEXT
5
312
100
AcDbEntity
8
0
100
AcDbText
62
2
6
CONTINUOUS
10
158.4800000000
20
40.7875795036
7
TEXTSTYLE_0
40
3.3500000000
1
Type
51
12.0000000000
72
5
11
166.5200000000
21
40.7875795036
100
AcDbText
0
TEXT
5
313
100
AcDbEntity
8
0
100
AcDbText
62
2
6
CONTINUOUS
10
111.4000000000
20
48.4106376205
7
TEXTSTYLE_0
40
8.0000000000
1
IPCS.05.210.01
51
12.0000000000
72
5
11
178.6000000000
21
48.4106376205
100
AcDbText
0
TEXT
5
314
100
AcDbEntity
8
0
100
AcDbText
62
2
6
CONTINUOUS
10
21.5902539016
20
78.9197186519
7
TEXTSTYLE_0
40
3.6000000000
1
1. H14, h14, %%pIT14/2 
51
12.0000000000
72
5
11
72.5902539016
21
78.9197186519
100
AcDbText
0
TEXT
5
315
100
AcDbEntity
8
0
100
AcDbText
62
2
6
CONTINUOUS
10
21.5902539016
20
73.3990794396
7
TEXTSTYLE_0
40
3.6000000000
1
2. Nonindicated tolerances of shape and location of surfaces
51
12.0000000000
72
5
11
161.9902539016
21
73.3990794396
100
AcDbText
0
TEXT
5
316
100
AcDbEntity
8
0
100
AcDbText
62
2
6
CONTINUOUS
10
21.5902539016
20
67.8784402274
7
TEXTSTYLE_0
40
3.6000000000
1
   in accordance with OST 1.00022-80.
51
12.0000000000
72
5
11
108.1702539016
21
67.8784402274
100
AcDbText
0
TEXT
5
317
100
AcDbEntity
8
0
100
AcDbText
62
2
6
CONTINUOUS
10
21.5902539016
20
62.3578010151
7
TEXTSTYLE_0
40
3.6000000000
1
3. Coating: Kd9.
51
12.0000000000
72
5
11
59.0302539016
21
62.3578010151
100
AcDbText
0
INSERT
5
318
100
AcDbEntity
8
0
100
AcDbBlockReference
62
2
6
CONTINUOUS
2
UGOL_BL0
10
0.0000000000
20
0.0000000000
0
INSERT
5
319
100
AcDbEntity
8
0
100
AcDbBlockReference
62
2
6
CONTINUOUS
2
STANDARD_BL1
10
0.0000000000
20
0.0000000000
0
INSERT
5
31A
100
AcDbEntity
8
0
100
AcDbBlockReference
62
2
6
CONTINUOUS
2
STANDARD_BL2
10
0.0000000000
20
0.0000000000
0
LINE
5
31B
100
AcDbEntity
8
0
100
AcDbLine
62
7
6
CONTINUOUS
10
-0.0000000000
20
0.0000000000
11
210.0000000000
21
0.0000000000
0
LINE
5
31C
100
AcDbEntity
8
0
100
AcDbLine
62
7
6
CONTINUOUS
10
205.0000000000
20
5.0000000000
11
20.0000000000
21
5.0000000000
0
LINE
5
31D
100
AcDbEntity
8
0
100
AcDbLine
62
7
6
CONTINUOUS
10
-0.0000000000
20
297.0000000000
11
-0.0000000000
21
0.0000000000
0
LINE
5
31E
100
AcDbEntity
8
0
100
AcDbLine
62
7
6
CONTINUOUS
10
20.0000000000
20
5.0000000000
11
20.0000000000
21
292.3498994289
0
LINE
5
31F
100
AcDbEntity
8
0
100
AcDbLine
62
7
6
CONTINUOUS
10
205.0000000000
20
5.0000000000
11
205.0000000000
21
292.3498994289
0
LINE
5
320
100
AcDbEntity
8
0
100
AcDbLine
62
7
6
CONTINUOUS
10
210.0000000000
20
297.0000000000
11
210.0000000000
21
0.0000000000
0
LINE
5
321
100
AcDbEntity
8
0
100
AcDbLine
62
7
6
CONTINUOUS
10
205.0000000000
20
292.3498994289
11
20.0000000000
21
292.3498994289
0
LINE
5
322
100
AcDbEntity
8
0
100
AcDbLine
62
7
6
CONTINUOUS
10
-0.0000000000
20
297.0000000000
11
210.0000000000
21
297.0000000000
0
LINE
5
323
100
AcDbEntity
8
0
100
AcDbLine
62
7
6
CONTINUOUS
10
54.3718574399
20
169.7576187761
11
54.3718574399
21
204.7576187761
0
LINE
5
324
100
AcDbEntity
8
0
100
AcDbLine
62
7
6
CONTINUOUS
10
56.8718574399
20
207.2576187761
11
54.3718574399
21
204.7576187761
0
LINE
5
325
100
AcDbEntity
8
0
100
AcDbLine
62
7
6
CONTINUOUS
10
54.3718574399
20
169.7576187761
11
56.8718574399
21
167.2576187761
0
LINE
5
326
100
AcDbEntity
8
0
100
AcDbLine
62
2
6
CONTINUOUS
10
60.1143514909
20
207.2576187761
11
54.3718574399
21
201.5151247251
0
LINE
5
327
100
AcDbEntity
8
DEFAULT_1
100
AcDbLine
62
2
6
CENTER
10
65.0418266914
20
209.0176187761
11
65.0418266914
21
106.6112716763
0
LINE
5
328
100
AcDbEntity
8
0
100
AcDbLine
62
2
6
CONTINUOUS
10
64.4902607621
20
207.2576187761
11
56.0372661459
21
198.8046241599
0
LINE
5
329
100
AcDbEntity
8
0
100
AcDbLine
62
2
6
CONTINUOUS
10
68.8661700333
20
207.2576187761
11
60.4131754170
21
198.8046241599
0
LINE
5
32A
100
AcDbEntity
8
0
100
AcDbLine
62
7
6
CONTINUOUS
10
54.3718574399
20
175.1326187761
11
54.7055627871
21
175.7106133923
0
LINE
5
32B
100
AcDbEntity
8
0
100
AcDbLine
62
2
6
CONTINUOUS
10
73.2420793044
20
207.2576187761
11
64.7890846882
21
198.8046241599
0
LINE
5
32C
100
AcDbEntity
8
0
100
AcDbLine
62
7
6
CONTINUOUS
10
54.3718574399
20
199.3826187761
11
54.7055627871
21
198.8046241599
0
LINE
5
32D
100
AcDbEntity
8
0
100
AcDbLine
62
7
6
CONTINUOUS
10
74.3718574399
20
172.2576187761
11
74.3718574399
21
202.2576187761
0
LINE
5
32E
100
AcDbEntity
8
0
100
AcDbLine
62
2
6
CONTINUOUS
10
77.6179885756
20
207.2576187761
11
69.1649939594
21
198.8046241599
0
LINE
5
32F
100
AcDbEntity
8
0
100
AcDbLine
62
2
6
CONTINUOUS
10
81.9938978468
20
207.2576187761
11
76.9938978468
21
202.2576187761
0
LINE
5
330
100
AcDbEntity
8
0
100
AcDbLine
62
2
6
CONTINUOUS
10
74.3718574399
20
199.6355783692
11
73.5409032306
21
198.8046241599
0
LINE
5
331
100
AcDbEntity
8
0
100
AcDbLine
62
2
6
CONTINUOUS
10
86.3698071180
20
207.2576187761
11
81.3698071180
21
202.2576187761
0
LINE
5
332
100
AcDbEntity
8
0
100
AcDbLine
62
2
6
CONTINUOUS
10
54.8228017342
20
175.7106133923
11
54.5454114071
21
175.4332230653
0
LINE
5
333
100
AcDbEntity
8
0
100
AcDbLine
62
2
6
CONTINUOUS
10
90.7457163892
20
207.2576187761
11
85.7457163892
21
202.2576187761
0
LINE
5
334
100
AcDbEntity
8
0
100
AcDbLine
62
2
6
CONTINUOUS
10
59.1987110054
20
175.7106133923
11
54.3718574399
21
170.8837598269
0
LINE
5
335
100
AcDbEntity
8
0
100
AcDbLine
62
2
6
CONTINUOUS
10
95.1216256603
20
207.2576187761
11
90.1216256603
21
202.2576187761
0
LINE
5
336
100
AcDbEntity
8
0
100
AcDbLine
62
2
6
CONTINUOUS
10
63.5746202766
20
175.7106133923
11
55.9967415501
21
168.1327346659
0
LINE
5
337
100
AcDbEntity
8
0
100
AcDbLine
62
2
6
CONTINUOUS
10
99.4975349315
20
207.2576187761
11
94.4975349315
21
202.2576187761
0
LINE
5
338
100
AcDbEntity
8
0
100
AcDbLine
62
2
6
CONTINUOUS
10
67.9505295477
20
175.7106133923
11
59.4975349315
21
167.2576187761
0
LINE
5
339
100
AcDbEntity
8
0
100
AcDbLine
62
7
6
CONTINUOUS
10
56.8718574399
20
167.2576187761
11
151.8718574399
21
167.2576187761
0
LINE
5
33A
100
AcDbEntity
8
0
100
AcDbLine
62
2
6
CONTINUOUS
10
103.8734442027
20
207.2576187761
11
98.8734442027
21
202.2576187761
0
LINE
5
33B
100
AcDbEntity
8
0
100
AcDbLine
62
2
6
CONTINUOUS
10
72.3264388189
20
175.7106133923
11
63.8734442027
21
167.2576187761
0
LINE
5
33C
100
AcDbEntity
8
0
100
AcDbLine
62
2
6
CONTINUOUS
10
108.2493534739
20
207.2576187761
11
103.2493534739
21
202.2576187761
0
LINE
5
33D
100
AcDbEntity
8
0
100
AcDbLine
62
2
6
CONTINUOUS
10
74.3718574399
20
173.3801227421
11
68.2493534739
21
167.2576187761
0
LINE
5
33E
100
AcDbEntity
8
0
100
AcDbLine
62
2
6
CONTINUOUS
10
154.3718574399
20
169.7576187761
11
54.3718574399
21
169.7576187761
0
LINE
5
33F
100
AcDbEntity
8
0
100
AcDbLine
62
7
6
CONTINUOUS
10
154.3718574399
20
169.7576187761
11
166.8718574399
21
169.7576187761
0
LINE
5
340
100
AcDbEntity
8
0
100
AcDbLine
62
7
6
CONTINUOUS
10
154.3718574399
20
171.6326187761
11
166.8718574399
21
171.6326187761
0
LINE
5
341
100
AcDbEntity
8
0
100
AcDbLine
62
2
6
CONTINUOUS
10
112.6252627451
20
207.2576187761
11
107.6252627451
21
202.2576187761
0
LINE
5
342
100
AcDbEntity
8
0
100
AcDbLine
62
2
6
CONTINUOUS
10
77.6252627451
20
172.2576187761
11
72.6252627451
21
167.2576187761
0
LINE
5
343
100
AcDbEntity
8
0
100
AcDbLine
62
7
6
CONTINUOUS
10
74.3718574399
20
172.2576187761
11
154.3718574399
21
172.2576187761
0
LINE
5
344
100
AcDbEntity
8
0
100
AcDbLine
62
7
6
CONTINUOUS
10
54.7055627871
20
175.7106133923
11
74.3718574399
21
175.7106133923
0
LINE
5
345
100
AcDbEntity
8
0
100
AcDbLine
62
2
6
CONTINUOUS
10
117.0011720163
20
207.2576187761
11
112.0011720163
21
202.2576187761
0
LINE
5
346
100
AcDbEntity
8
0
100
AcDbLine
62
2
6
CONTINUOUS
10
82.0011720163
20
172.2576187761
11
77.0011720163
21
167.2576187761
0
LINE
5
347
100
AcDbEntity
8
0
100
AcDbLine
62
2
6
CONTINUOUS
10
121.3770812874
20
207.2576187761
11
116.3770812874
21
202.2576187761
0
LINE
5
348
100
AcDbEntity
8
0
100
AcDbLine
62
2
6
CONTINUOUS
10
86.3770812874
20
172.2576187761
11
81.3770812874
21
167.2576187761
0
LINE
5
349
100
AcDbEntity
8
0
100
AcDbLine
62
7
6
CONTINUOUS
10
54.7055627871
20
181.4841160842
11
74.3718574399
21
181.4841160842
0
LINE
5
34A
100
AcDbEntity
8
0
100
AcDbLine
62
2
6
CONTINUOUS
10
125.7529905586
20
207.2576187761
11
120.7529905586
21
202.2576187761
0
LINE
5
34B
100
AcDbEntity
8
0
100
AcDbLine
62
2
6
CONTINUOUS
10
90.7529905586
20
172.2576187761
11
85.7529905586
21
167.2576187761
0
LINE
5
34C
100
AcDbEntity
8
0
100
AcDbLine
62
2
6
CONTINUOUS
10
130.1288998298
20
207.2576187761
11
125.1288998298
21
202.2576187761
0
LINE
5
34D
100
AcDbEntity
8
0
100
AcDbLine
62
2
6
CONTINUOUS
10
95.1288998298
20
172.2576187761
11
90.1288998298
21
167.2576187761
0
LINE
5
34E
100
AcDbEntity
8
DEFAULT_1
100
AcDbLine
62
2
6
CENTER
10
52.3718574399
20
187.2576187761
11
137.4182427912
21
187.2576187761
0
LINE
5
34F
100
AcDbEntity
8
DEFAULT_1
100
AcDbLine
62
2
6
CENTER
10
142.5715851402
20
187.2576187761
11
169.2398937321
21
187.2576187761
0
LINE
5
350
100
AcDbEntity
8
0
100
AcDbLine
62
2
6
CONTINUOUS
10
134.5048091010
20
207.2576187761
11
129.5048091010
21
202.2576187761
0
LINE
5
351
100
AcDbEntity
8
0
100
AcDbLine
62
2
6
CONTINUOUS
10
99.5048091010
20
172.2576187761
11
94.5048091010
21
167.2576187761
0
LINE
5
352
100
AcDbEntity
8
0
100
AcDbLine
62
2
6
CONTINUOUS
10
138.8807183722
20
207.2576187761
11
133.8807183722
21
202.2576187761
0
LINE
5
353
100
AcDbEntity
8
0
100
AcDbLine
62
2
6
CONTINUOUS
10
103.8807183722
20
172.2576187761
11
98.8807183722
21
167.2576187761
0
LINE
5
354
100
AcDbEntity
8
0
100
AcDbLine
62
7
6
CONTINUOUS
10
54.7055627871
20
193.0311214680
11
74.3718574399
21
193.0311214680
0
LINE
5
355
100
AcDbEntity
8
0
100
AcDbLine
62
2
6
CONTINUOUS
10
143.2566276433
20
207.2576187761
11
138.2566276433
21
202.2576187761
0
LINE
5
356
100
AcDbEntity
8
0
100
AcDbLine
62
2
6
CONTINUOUS
10
108.2566276433
20
172.2576187761
11
103.2566276433
21
167.2576187761
0
LINE
5
357
100
AcDbEntity
8
0
100
AcDbLine
62
2
6
CONTINUOUS
10
147.6325369145
20
207.2576187761
11
142.6325369145
21
202.2576187761
0
LINE
5
358
100
AcDbEntity
8
0
100
AcDbLine
62
2
6
CONTINUOUS
10
112.6325369145
20
172.2576187761
11
107.6325369145
21
167.2576187761
0
LINE
5
359
100
AcDbEntity
8
0
100
AcDbLine
62
7
6
CONTINUOUS
10
54.7055627871
20
198.8046241599
11
74.3718574399
21
198.8046241599
0
LINE
5
35A
100
AcDbEntity
8
0
100
AcDbLine
62
2
6
CONTINUOUS
10
151.9401518128
20
207.1893244032
11
147.0084461857
21
202.2576187761
0
LINE
5
35B
100
AcDbEntity
8
0
100
AcDbLine
62
2
6
CONTINUOUS
10
117.0084461857
20
172.2576187761
11
112.0084461857
21
167.2576187761
0
LINE
5
35C
100
AcDbEntity
8
0
100
AcDbLine
62
7
6
CONTINUOUS
10
74.3718574399
20
202.2576187761
11
154.3718574399
21
202.2576187761
0
LINE
5
35D
100
AcDbEntity
8
0
100
AcDbLine
62
7
6
CONTINUOUS
10
154.3718574399
20
202.8826187761
11
166.8718574399
21
202.8826187761
0
LINE
5
35E
100
AcDbEntity
8
0
100
AcDbLine
62
2
6
CONTINUOUS
10
154.1281064484
20
205.0013697676
11
151.3843554569
21
202.2576187761
0
LINE
5
35F
100
AcDbEntity
8
0
100
AcDbLine
62
2
6
CONTINUOUS
10
121.3843554569
20
172.2576187761
11
116.3843554569
21
167.2576187761
0
LINE
5
360
100
AcDbEntity
8
0
100
AcDbLine
62
7
6
CONTINUOUS
10
166.8718574399
20
204.7576187761
11
154.3718574399
21
204.7576187761
0
LINE
5
361
100
AcDbEntity
8
0
100
AcDbLine
62
2
6
CONTINUOUS
10
154.3718574399
20
204.7576187761
11
54.3718574399
21
204.7576187761
0
LINE
5
362
100
AcDbEntity
8
0
100
AcDbLine
62
7
6
CONTINUOUS
10
151.8718574399
20
207.2576187761
11
56.8718574399
21
207.2576187761
0
LINE
5
363
100
AcDbEntity
8
0
100
AcDbLine
62
2
6
CONTINUOUS
10
158.2602647281
20
204.7576187761
11
156.3852647281
21
202.8826187761
0
LINE
5
364
100
AcDbEntity
8
0
100
AcDbLine
62
2
6
CONTINUOUS
10
125.7602647281
20
172.2576187761
11
120.7602647281
21
167.2576187761
0
LINE
5
365
100
AcDbEntity
8
0
100
AcDbLine
62
2
6
CONTINUOUS
10
162.6361739992
20
204.7576187761
11
160.7611739992
21
202.8826187761
0
LINE
5
366
100
AcDbEntity
8
0
100
AcDbLine
62
2
6
CONTINUOUS
10
130.1361739992
20
172.2576187761
11
125.1361739992
21
167.2576187761
0
LINE
5
367
100
AcDbEntity
8
0
100
AcDbLine
62
2
6
CONTINUOUS
10
166.8718574399
20
204.6173929456
11
165.1370832704
21
202.8826187761
0
LINE
5
368
100
AcDbEntity
8
0
100
AcDbLine
62
2
6
CONTINUOUS
10
134.5120832704
20
172.2576187761
11
129.5120832704
21
167.2576187761
0
LINE
5
369
100
AcDbEntity
8
0
100
AcDbLine
62
2
6
CONTINUOUS
10
138.8879925416
20
172.2576187761
11
133.8879925416
21
167.2576187761
0
LINE
5
36A
100
AcDbEntity
8
0
100
AcDbLine
62
2
6
CONTINUOUS
10
143.2639018128
20
172.2576187761
11
138.2639018128
21
167.2576187761
0
LINE
5
36B
100
AcDbEntity
8
0
100
AcDbLine
62
2
6
CONTINUOUS
10
147.6398110840
20
172.2576187761
11
142.6398110840
21
167.2576187761
0
LINE
5
36C
100
AcDbEntity
8
0
100
AcDbLine
62
2
6
CONTINUOUS
10
152.0157203552
20
172.2576187761
11
147.0157203552
21
167.2576187761
0
LINE
5
36D
100
AcDbEntity
8
0
100
AcDbLine
62
7
6
CONTINUOUS
10
154.3718574399
20
171.6326187761
11
154.3718574399
21
202.8826187761
0
LINE
5
36E
100
AcDbEntity
8
0
100
AcDbLine
62
2
6
CONTINUOUS
10
155.7666296263
20
171.6326187761
11
151.3916296263
21
167.2576187761
0
LINE
5
36F
100
AcDbEntity
8
0
100
AcDbLine
62
7
6
CONTINUOUS
10
151.8718574399
20
167.2576187761
11
154.3718574399
21
169.7576187761
0
LINE
5
370
100
AcDbEntity
8
0
100
AcDbLine
62
7
6
CONTINUOUS
10
154.3718574399
20
204.7576187761
11
151.8718574399
21
207.2576187761
0
LINE
5
371
100
AcDbEntity
8
0
100
AcDbLine
62
2
6
CONTINUOUS
10
160.1425388975
20
171.6326187761
11
158.2675388975
21
169.7576187761
0
LINE
5
372
100
AcDbEntity
8
0
100
AcDbLine
62
2
6
CONTINUOUS
10
164.5184481687
20
171.6326187761
11
162.6434481687
21
169.7576187761
0
LINE
5
373
100
AcDbEntity
8
0
100
AcDbLine
62
7
6
CONTINUOUS
10
166.8718574399
20
169.7576187761
11
166.8718574399
21
204.7576187761
0
LINE
5
374
100
AcDbEntity
8
0
100
AcDbLine
62
2
6
CONTINUOUS
10
50.1864434916
20
139.9904656098
11
51.6604254761
21
141.4644475944
0
LINE
5
375
100
AcDbEntity
8
0
100
AcDbLine
62
2
6
CONTINUOUS
10
45.5437001634
20
130.9952362121
11
60.6577040226
21
146.1092400713
0
LINE
5
376
100
AcDbEntity
8
0
100
AcDbLine
62
2
6
CONTINUOUS
10
45.0607535666
20
126.1598035457
11
65.4933863312
21
146.5924363104
0
LINE
5
377
100
AcDbEntity
8
0
100
AcDbLine
62
7
6
CONTINUOUS
10
55.0418266914
20
132.3847743682
11
55.0418266914
21
120.8377689844
0
LINE
5
378
100
AcDbEntity
8
0
100
AcDbLine
62
2
6
CONTINUOUS
10
45.5327970973
20
122.2793610069
11
55.0418266914
21
131.7883906010
0
LINE
5
379
100
AcDbEntity
8
0
100
AcDbLine
62
2
6
CONTINUOUS
10
56.4528858351
20
133.1994497446
11
69.3736530760
21
146.1202169855
0
LINE
5
37A
100
AcDbEntity
8
0
100
AcDbLine
62
7
6
CONTINUOUS
10
65.0418266914
20
138.1582770601
11
55.0418266914
21
132.3847743682
0
LINE
5
37B
100
AcDbEntity
8
0
100
AcDbLine
62
7
6
CONTINUOUS
10
55.0418266914
20
120.8377689844
11
65.0418266914
21
115.0642662925
0
LINE
5
37C
100
AcDbEntity
8
0
100
AcDbLine
62
2
6
CONTINUOUS
10
46.5739985221
20
118.9680763621
11
55.0418266914
21
127.4359045314
0
LINE
5
37D
100
AcDbEntity
8
0
100
AcDbLine
62
2
6
CONTINUOUS
10
65.4997925236
20
137.8938703636
11
72.6848891694
21
145.0789670093
0
LINE
5
37E
100
AcDbEntity
8
0
100
AcDbLine
62
2
6
CONTINUOUS
10
48.0492344934
20
116.0908262637
11
55.0418266914
21
123.0834184618
0
LINE
5
37F
100
AcDbEntity
8
0
100
AcDbLine
62
2
6
CONTINUOUS
10
68.2591581222
20
136.3007498925
11
75.5621674955
21
143.6037592658
0
LINE
5
380
100
AcDbEntity
8
0
100
AcDbLine
62
2
6
CONTINUOUS
10
49.8914359994
20
113.5805417001
11
56.3775075693
21
120.0666132700
0
LINE
5
381
100
AcDbEntity
8
0
100
AcDbLine
62
2
6
CONTINUOUS
10
71.0185237207
20
134.7076294214
11
78.0725111349
21
141.7616168357
0
LINE
5
382
100
AcDbEntity
8
0
100
AcDbLine
62
2
6
CONTINUOUS
10
52.0724010738
20
111.4090207050
11
59.1368731678
21
118.4734927989
0
LINE
5
383
100
AcDbEntity
8
0
100
AcDbLine
62
2
6
CONTINUOUS
10
73.7778893192
20
133.1145089503
11
80.2440991197
21
139.5807187509
0
LINE
5
384
100
AcDbEntity
8
0
100
AcDbLine
62
2
6
CONTINUOUS
10
54.5923840736
20
109.5765176352
11
61.8962387663
21
116.8803723279
0
LINE
5
385
100
AcDbEntity
8
0
100
AcDbLine
62
2
6
CONTINUOUS
10
75.0418266914
20
130.0259602530
11
82.0766598961
21
137.0607934577
0
LINE
5
386
100
AcDbEntity
8
0
100
AcDbLine
62
2
6
CONTINUOUS
10
57.4801515838
20
108.1117990758
11
64.6556043648
21
115.2872518568
0
LINE
5
387
100
AcDbEntity
8
0
100
AcDbLine
62
2
6
CONTINUOUS
10
75.0418266914
20
125.6734741834
11
83.5414036160
21
134.1730511079
0
LINE
5
388
100
AcDbEntity
8
0
100
AcDbLine
62
7
6
CONTINUOUS
10
75.0418266914
20
120.8377689844
11
75.0418266914
21
132.3847743682
0
LINE
5
389
100
AcDbEntity
8
0
100
AcDbLine
62
2
6
CONTINUOUS
10
60.8035326431
20
107.0826940655
11
73.8985179556
21
120.1776793780
0
LINE
5
38A
100
AcDbEntity
8
0
100
AcDbLine
62
2
6
CONTINUOUS
10
75.0418266914
20
121.3209881138
11
84.5704544691
21
130.8496158915
0
LINE
5
38B
100
AcDbEntity
8
0
100
AcDbLine
62
7
6
CONTINUOUS
10
65.0418266914
20
115.0642662925
11
75.0418266914
21
120.8377689844
0
LINE
5
38C
100
AcDbEntity
8
0
100
AcDbLine
62
7
6
CONTINUOUS
10
75.0418266914
20
132.3847743682
11
65.0418266914
21
138.1582770601
0
LINE
5
38D
100
AcDbEntity
8
0
100
AcDbLine
62
2
6
CONTINUOUS
10
64.6989003969
20
106.6255757497
11
85.0273723494
21
126.9540477022
0
LINE
5
38E
100
AcDbEntity
8
0
100
AcDbLine
62
2
6
CONTINUOUS
10
69.5691773440
20
107.1433666272
11
84.5099698046
21
122.0841590878
0
CIRCLE
5
38F
100
AcDbEntity
8
0
100
AcDbCircle
62
7
6
CONTINUOUS
10
65.0418266914
20
126.6112716763
40
20.0000000000
0
SPLINE
5
390
100
AcDbEntity
8
0
100
AcDbSpline
62
7
6
CONTINUOUS
70
0
71
3
72
14
73
10
74
8
42
0.0000001000
43
0.0000001000
44
0.0000000001
40
0.0000000000
40
0.0000000000
40
0.0000000000
40
0.0000000000
40
0.1503228487
40
0.2922441553
40
0.4309859867
40
0.5690143142
40
0.7077563120
40
0.8496774331
40
1.0000000000
40
1.0000000000
40
1.0000000000
40
1.0000000000
10
54.7055627871
20
193.0311214680
30
0.0000000000
10
54.8684497418
20
192.4668645053
30
0.0000000000
10
55.1532097179
20
191.3601585980
30
0.0000000000
10
55.4524304283
20
189.7014072178
30
0.0000000000
10
55.6049437186
20
188.0705086582
30
0.0000000000
10
55.6049435512
20
186.4447247131
30
0.0000000000
10
55.4524298556
20
184.8138262617
30
0.0000000000
10
55.1532090163
20
183.1550761080
30
0.0000000000
10
54.8684494365
20
182.0483719894
30
0.0000000000
10
54.7055627871
20
181.4841160842
30
0.0000000000
11
54.7055627871
21
193.0311214680
31
0.0000000000
11
55.1397365707
21
191.3235630224
31
0.0000000000
11
55.4309549464
21
189.6858338237
31
0.0000000000
11
55.5798692779
21
188.0665126031
31
0.0000000000
11
55.5798691138
21
186.4487214241
31
0.0000000000
11
55.4309542065
21
184.8293982979
31
0.0000000000
11
55.1397358686
21
183.1916713012
31
0.0000000000
11
54.7055627871
21
181.4841160842
31
0.0000000000
0
SPLINE
5
391
100
AcDbEntity
8
0
100
AcDbSpline
62
7
6
CONTINUOUS
70
0
71
3
72
14
73
10
74
8
42
0.0000001000
43
0.0000001000
44
0.0000000001
40
0.0000000000
40
0.0000000000
40
0.0000000000
40
0.0000000000
40
0.1567803908
40
0.2990431308
40
0.4337967635
40
0.5662018526
40
0.7009549493
40
0.8432153316
40
1.0000000000
40
1.0000000000
40
1.0000000000
40
1.0000000000
10
54.7055627871
20
175.7106133923
30
0.0000000000
10
54.8651981011
20
175.9871098668
30
0.0000000000
10
55.1457897240
20
176.5292445380
30
0.0000000000
10
55.4489369206
20
177.3621631610
30
0.0000000000
10
55.6048592661
20
178.1856406230
30
0.0000000000
10
55.6048600890
20
179.0090792778
30
0.0000000000
10
55.4489406571
20
179.8325512504
30
0.0000000000
10
55.1457952790
20
180.6654734552
30
0.0000000000
10
54.8652024565
20
181.2076120659
30
0.0000000000
10
54.7055627871
20
181.4841160842
30
0.0000000000
11
54.7055627871
21
175.7106133923
31
0.0000000000
11
55.1397277623
21
176.5643723624
31
0.0000000000
11
55.4309524537
21
177.3832480660
31
0.0000000000
11
55.5798687437
21
178.1929120874
31
0.0000000000
11
55.5798695285
21
179.0018089596
31
0.0000000000
11
55.4309555422
21
179.8114700752
31
0.0000000000
11
55.1397382039
21
180.6303331064
31
0.0000000000
11
54.7055627871
21
181.4841160842
31
0.0000000000
0
SPLINE
5
392
100
AcDbEntity
8
0
100
AcDbSpline
62
7
6
CONTINUOUS
70
0
71
3
72
14
73
10
74
8
42
0.0000001000
43
0.0000001000
44
0.0000000001
40
0.0000000000
40
0.0000000000
40
0.0000000000
40
0.0000000000
40
0.1567832437
40
0.2990437105
40
0.4337976322
40
0.5662031910
40
0.7009573917
40
0.8432205842
40
1.0000000000
40
1.0000000000
40
1.0000000000
40
1.0000000000
10
54.7055627871
20
193.0311214680
30
0.0000000000
10
54.8652010055
20
193.3076229731
30
0.0000000000
10
55.1457927713
20
193.8497590066
30
0.0000000000
10
55.4489389559
20
194.6826797751
30
0.0000000000
10
55.6048599647
20
195.5061543674
30
0.0000000000
10
55.6048594754
20
196.3295968717
30
0.0000000000
10
55.4489362696
20
197.1530773091
30
0.0000000000
10
55.1457883770
20
197.9859957861
30
0.0000000000
10
54.8651971079
20
198.5281294057
30
0.0000000000
10
54.7055627871
20
198.8046241599
30
0.0000000000
11
54.7055627871
21
193.0311214680
31
0.0000000000
11
55.1397347252
21
193.8848964475
31
0.0000000000
11
55.4309533837
21
194.7037595547
31
0.0000000000
11
55.5798692358
21
195.5134254490
31
0.0000000000
11
55.5798687694
21
196.3223251892
31
0.0000000000
11
55.4309516117
21
197.1319925767
31
0.0000000000
11
55.1397253814
21
197.9508706643
31
0.0000000000
11
54.7055627871
21
198.8046241599
31
0.0000000000
0
ENDSEC
0
SECTION
2
OBJECTS
0
DICTIONARY
5
393
100
AcDbDictionary
3
ACAD_GROUP
350
394
3
ACAD_MLINESTYLE
350
395
0
DICTIONARY
5
394
102
{ACAD_REACTORS
330
393
102
}
100
AcDbDictionary
0
DICTIONARY
5
395
102
{ACAD_REACTORS
330
393
102
}
100
AcDbDictionary
3
STANDARD
350
396
0
MLINESTYLE
5
396
102
{ACAD_REACTORS
330
395
102
}
100
AcDbMlineStyle
2
STANDARD
70
0
3

62
256
51
90.0
52
90.0
71
2
49
0.5
62
256
6
BYLAYER
49
-0.5
62
256
6
BYLAYER
0
ENDSEC
0
EOF
