999
DXF file: e_05-210-00_vint_pruzhinniy_1.dxf
999
Pro/ENGINEER 2001320 by Parametric Technology Corporation
0
SECTION
2
HEADER
9
$ACADVER
1
AC1014
9
$EXTMAX
10
210.0000000000
20
297.0000000000
9
$EXTMIN
10
0.0000000000
20
0.0000000000
9
$LIMMIN
10
0.0000000000
20
0.0000000000
9
$LIMMAX
10
210.0000000000
20
297.0000000000
9
$VIEWCTR
10
105.0000000000
20
148.5000000000
9
$VIEWSIZE
40
297.0000000000
9
$CLAYER
8
0
9
$LTSCALE
40
19.3600000000
9
$CELTYPE
6
BYLAYER
9
$DIMSCALE
40
1
9
$DIMASZ
40
3.0000000000
9
$DIMEXO
40
2.2000000000
9
$DIMDLI
40
13.3760000000
9
$DIMEXE
40
6.3360000000
9
$DIMCEN
40
3.1680000000
9
$DIMLFAC
40
1.0000000000
9
$DIMTXT
40
3.6000000000
9
$DIMTOL
70
1
9
$DIMTFAC
40
0.6000000000
9
$DIMTP
40
0.0100000000
9
$DIMTM
40
0.0100000000
0
ENDSEC
0
SECTION
2
CLASSES
0
ENDSEC
0
SECTION
2
TABLES
0
TABLE
2
VPORT
5
1F4
100
AcDbSymbolTable
70
2
0
VPORT
5
1F5
100
AcDbSymbolTableRecord
100
AcDbViewportTableRecord
2
*ACTIVE
70
0
10
0.0
20
0.0
11
1.0
21
1.0
12
105.0000000000
22
148.5000000000
13
0.0
23
0.0
14
1.0
24
1.0
15
0.0
25
0.0
16
0.0
26
0.0
36
1.0
17
0.0
27
0.0
37
0.0
40
297.0000000000
41
0.7070707071
42
50.0
43
0.0
44
0.0
50
0.0
51
0.0
71
0
72
100
73
1
74
1
75
0
76
0
77
0
78
0
0
ENDTAB
0
TABLE
2
LTYPE
5
1F6
100
AcDbSymbolTable
70
6
0
LTYPE
5
1F7
100
AcDbSymbolTableRecord
100
AcDbLinetypeTableRecord
2
BYBLOCK
70
0
3

72
65
73
0
40
0.0
0
LTYPE
5
1F8
100
AcDbSymbolTableRecord
100
AcDbLinetypeTableRecord
2
BYLAYER
70
0
3

72
65
73
0
40
0.0
0
LTYPE
5
1F9
100
AcDbSymbolTableRecord
100
AcDbLinetypeTableRecord
2
CONTINUOUS
70
64
3
Solid line
72
65
73
0
40
0
0
LTYPE
5
1FA
100
AcDbSymbolTableRecord
100
AcDbLinetypeTableRecord
2
CENTER
70
64
3
____ _ ____ _ ____ _ ____ _ ____ _ ____ _ ____
72
65
73
4
40
0.6
49
0.375
74
0
49
-0.075
74
0
49
0.075
74
0
49
-0.075
74
0
0
LTYPE
5
1FB
100
AcDbSymbolTableRecord
100
AcDbLinetypeTableRecord
2
HIDDEN
70
64
3
- - - - - - - - - - - - - - - - - - - -
72
65
73
2
40
0.2
49
0.1
74
0
49
-0.1
74
0
0
LTYPE
5
1FC
100
AcDbSymbolTableRecord
100
AcDbLinetypeTableRecord
2
PHANTOM
70
64
3
_____ _ _ _____ _ _ _____ _ _ _____
72
65
73
6
40
0.8
49
0.45
74
0
49
-0.05
74
0
49
0.1
74
0
49
-0.05
74
0
49
0.1
74
0
49
-0.05
74
0
0
LTYPE
5
1FD
100
AcDbSymbolTableRecord
100
AcDbLinetypeTableRecord
2
DOT
70
64
3
. . . . . . . . . . . . . . . . . . . .
72
65
73
2
40
0.2
49
0.1
74
0
49
-0.1
74
0
0
LTYPE
5
1FE
100
AcDbSymbolTableRecord
100
AcDbLinetypeTableRecord
2
DASHED
70
64
3
- - - - - - - - - - - - - - - - - - - -
72
65
73
2
40
0.2
49
0.1
74
0
49
-0.1
74
0
0
ENDTAB
0
TABLE
2
LAYER
5
1FF
100
AcDbSymbolTable
70
36
0
LAYER
5
200
100
AcDbSymbolTableRecord
100
AcDbLayerTableRecord
2
0
70
0
62
7
6
CONTINUOUS
0
LAYER
5
201
100
AcDbSymbolTableRecord
100
AcDbLayerTableRecord
2
DEFAULT_1
70
0
62
7
6
CENTER
0
LAYER
5
202
100
AcDbSymbolTableRecord
100
AcDbLayerTableRecord
2
DEFAULT_2
70
0
62
8
6
HIDDEN
0
LAYER
5
203
100
AcDbSymbolTableRecord
100
AcDbLayerTableRecord
2
DEFAULT_3
70
0
62
7
6
PHANTOM
0
ENDTAB
0
TABLE
2
STYLE
5
204
100
AcDbSymbolTable
70
1
0
STYLE
5
205
100
AcDbSymbolTableRecord
100
AcDbTextStyleTableRecord
2
STANDARD
70
0
40
0.0
41
1.0
50
0.0
71
0
42
0.0
3
txt
4

0
STYLE
5
206
100
AcDbSymbolTableRecord
100
AcDbTextStyleTableRecord
2
TEXTSTYLE_0
70
0
40
0.0
41
0.80
50
0.0
71
0
42
0.2
3
txt
4

0
ENDTAB
0
TABLE
2
VIEW
5
207
100
AcDbSymbolTable
70
0
0
ENDTAB
0
TABLE
2
UCS
5
208
100
AcDbSymbolTable
70
0
0
ENDTAB
0
TABLE
2
APPID
5
209
100
AcDbSymbolTable
70
1
0
APPID
5
20A
100
AcDbSymbolTableRecord
100
AcDbRegAppTableRecord
2
ACAD
70
0
0
ENDTAB
0
TABLE
2
DIMSTYLE
5
20B
100
AcDbSymbolTable
70
1
0
DIMSTYLE
105
20C
100
AcDbSymbolTableRecord
100
AcDbDimStyleTableRecord
2
STANDARD
70
0
3

4

5

6

7

40
1.0
41
0.18
42
0.0625
43
0.38
44
0.18
45
0.0
46
0.0
47
0.0100000000
48
0.0100000000
140
3.6000000000
141
0.09
142
0.0
143
25.4
144
1.0000000000
145
0.0
146
0.6000000000
147
0.09
71
1
72
0
73
1
74
1
75
0
76
0
77
0
78
0
170
0
171
2
172
0
173
0
174
0
175
0
176
0
177
0
178
0
270
2
271
2
272
4
273
2
274
2
340
205
275
0
280
0
281
0
282
0
283
1
284
0
285
0
286
0
287
3
288
0
0
ENDTAB
0
TABLE
2
BLOCK_RECORD
5
20D
100
AcDbSymbolTable
70
0
0
BLOCK_RECORD
5
20E
100
AcDbSymbolTableRecord
100
AcDbBlockTableRecord
2
*MODEL_SPACE
0
BLOCK_RECORD
5
20F
100
AcDbSymbolTableRecord
100
AcDbBlockTableRecord
2
*PAPER_SPACE
0
ENDTAB
0
ENDSEC
0
SECTION
2
BLOCKS
0
BLOCK
5
210
100
AcDbEntity
8
0
100
AcDbBlockBegin
2
*MODEL_SPACE
70
0
10
0.0000000000
20
0.0000000000
3
*MODEL_SPACE
1

3
*MODEL_SPACE
1

0
ENDBLK
5
211
100
AcDbEntity
8
0
100
AcDbBlockEnd
0
BLOCK
5
212
100
AcDbEntity
8
0
100
AcDbBlockBegin
2
*PAPER_SPACE
70
0
10
0.0000000000
20
0.0000000000
3
*PAPER_SPACE
1

3
*PAPER_SPACE
1

0
ENDBLK
5
213
100
AcDbEntity
8
0
100
AcDbBlockEnd
0
ENDSEC
0
SECTION
2
ENTITIES
0
LINE
5
214
100
AcDbEntity
8
0
100
AcDbLine
62
7
6
CONTINUOUS
10
205.0000000000
20
277.0000000000
11
20.0000000000
21
277.0000000000
0
LINE
5
215
100
AcDbEntity
8
0
100
AcDbLine
62
7
6
CONTINUOUS
10
205.0000000000
20
277.0000000000
11
205.0000000000
21
189.0000000000
0
LINE
5
216
100
AcDbEntity
8
0
100
AcDbLine
62
7
6
CONTINUOUS
10
205.0000000000
20
269.0000000000
11
20.0000000000
21
269.0000000000
0
LINE
5
217
100
AcDbEntity
8
0
100
AcDbLine
62
7
6
CONTINUOUS
10
205.0000000000
20
261.0000000000
11
20.0000000000
21
261.0000000000
0
LINE
5
218
100
AcDbEntity
8
0
100
AcDbLine
62
7
6
CONTINUOUS
10
205.0000000000
20
253.0000000000
11
20.0000000000
21
253.0000000000
0
LINE
5
219
100
AcDbEntity
8
0
100
AcDbLine
62
7
6
CONTINUOUS
10
205.0000000000
20
245.0000000000
11
20.0000000000
21
245.0000000000
0
LINE
5
21A
100
AcDbEntity
8
0
100
AcDbLine
62
7
6
CONTINUOUS
10
205.0000000000
20
237.0000000000
11
20.0000000000
21
237.0000000000
0
LINE
5
21B
100
AcDbEntity
8
0
100
AcDbLine
62
7
6
CONTINUOUS
10
205.0000000000
20
229.0000000000
11
20.0000000000
21
229.0000000000
0
LINE
5
21C
100
AcDbEntity
8
0
100
AcDbLine
62
7
6
CONTINUOUS
10
205.0000000000
20
221.0000000000
11
20.0000000000
21
221.0000000000
0
LINE
5
21D
100
AcDbEntity
8
0
100
AcDbLine
62
7
6
CONTINUOUS
10
205.0000000000
20
213.0000000000
11
20.0000000000
21
213.0000000000
0
LINE
5
21E
100
AcDbEntity
8
0
100
AcDbLine
62
7
6
CONTINUOUS
10
205.0000000000
20
205.0000000000
11
20.0000000000
21
205.0000000000
0
LINE
5
21F
100
AcDbEntity
8
0
100
AcDbLine
62
7
6
CONTINUOUS
10
205.0000000000
20
197.0000000000
11
20.0000000000
21
197.0000000000
0
LINE
5
220
100
AcDbEntity
8
0
100
AcDbLine
62
7
6
CONTINUOUS
10
205.0000000000
20
189.0000000000
11
20.0000000000
21
189.0000000000
0
LINE
5
221
100
AcDbEntity
8
0
100
AcDbLine
62
7
6
CONTINUOUS
10
183.0000000000
20
277.0000000000
11
183.0000000000
21
189.0000000000
0
LINE
5
222
100
AcDbEntity
8
0
100
AcDbLine
62
7
6
CONTINUOUS
10
173.0000000000
20
277.0000000000
11
173.0000000000
21
189.0000000000
0
LINE
5
223
100
AcDbEntity
8
0
100
AcDbLine
62
7
6
CONTINUOUS
10
110.0000000000
20
277.0000000000
11
110.0000000000
21
189.0000000000
0
LINE
5
224
100
AcDbEntity
8
0
100
AcDbLine
62
7
6
CONTINUOUS
10
40.0000000000
20
277.0000000000
11
40.0000000000
21
189.0000000000
0
LINE
5
225
100
AcDbEntity
8
0
100
AcDbLine
62
7
6
CONTINUOUS
10
32.0000000000
20
277.0000000000
11
32.0000000000
21
189.0000000000
0
LINE
5
226
100
AcDbEntity
8
0
100
AcDbLine
62
7
6
CONTINUOUS
10
26.0000000000
20
277.0000000000
11
26.0000000000
21
189.0000000000
0
LINE
5
227
100
AcDbEntity
8
0
100
AcDbLine
62
7
6
CONTINUOUS
10
20.0000000000
20
277.0000000000
11
20.0000000000
21
189.0000000000
0
TEXT
5
228
100
AcDbEntity
8
0
100
AcDbText
62
2
6
CONTINUOUS
10
120.5000000000
20
269.9882970257
7
TEXTSTYLE_0
40
5.0000000000
1
%%u Documentation
51
12.0000000000
72
5
11
162.5000000000
21
269.9882970257
100
AcDbText
0
TEXT
5
229
100
AcDbEntity
8
0
100
AcDbText
62
2
6
CONTINUOUS
10
111.4250000000
20
254.4441485128
7
TEXTSTYLE_0
40
5.0000000000
1
Assembly drawing
51
12.0000000000
72
5
11
155.4250000000
21
254.4441485128
100
AcDbText
0
TEXT
5
22A
100
AcDbEntity
8
0
100
AcDbText
62
2
6
CONTINUOUS
10
41.4250000000
20
254.4441485128
7
TEXTSTYLE_0
40
5.0000000000
1
IPCS.05.210.00
51
12.0000000000
72
5
11
86.9250000000
21
254.4441485128
100
AcDbText
0
TEXT
5
22B
100
AcDbEntity
8
0
100
AcDbText
62
2
6
CONTINUOUS
10
86.9250000000
20
254.4441485128
7
TEXTSTYLE_0
40
5.0000000000
1
.AS
51
12.0000000000
72
5
11
96.6750000000
21
254.4441485128
100
AcDbText
0
TEXT
5
22C
100
AcDbEntity
8
0
100
AcDbText
62
2
6
CONTINUOUS
10
20.8400000000
20
255.4195738585
7
TEXTSTYLE_0
40
3.6000000000
1
A4
51
12.0000000000
72
5
11
25.1600000000
21
255.4195738585
100
AcDbText
0
TEXT
5
22D
100
AcDbEntity
8
0
100
AcDbText
62
2
6
CONTINUOUS
10
134.0000000000
20
237.9882970257
7
TEXTSTYLE_0
40
5.0000000000
1
%%uParts
51
12.0000000000
72
5
11
149.0000000000
21
237.9882970257
100
AcDbText
0
TEXT
5
22E
100
AcDbEntity
8
0
100
AcDbText
62
2
6
CONTINUOUS
10
176.5375000000
20
222.9000000000
7
TEXTSTYLE_0
40
4.5000000000
1
1
51
12.0000000000
72
5
11
179.4625000000
21
222.9000000000
100
AcDbText
0
TEXT
5
22F
100
AcDbEntity
8
0
100
AcDbText
62
2
6
CONTINUOUS
10
111.4250000000
20
222.4441485128
7
TEXTSTYLE_0
40
5.0000000000
1
Screw body
51
12.0000000000
72
5
11
138.9250000000
21
222.4441485128
100
AcDbText
0
TEXT
5
230
100
AcDbEntity
8
0
100
AcDbText
62
2
6
CONTINUOUS
10
41.4250000000
20
222.4441485128
7
TEXTSTYLE_0
40
5.0000000000
1
IPCS.05.210.01
51
12.0000000000
72
5
11
86.9250000000
21
222.4441485128
100
AcDbText
0
TEXT
5
231
100
AcDbEntity
8
0
100
AcDbText
62
2
6
CONTINUOUS
10
34.5375000000
20
222.4994673231
7
TEXTSTYLE_0
40
4.5000000000
1
1
51
12.0000000000
72
5
11
37.4625000000
21
222.4994673231
100
AcDbText
0
TEXT
5
232
100
AcDbEntity
8
0
100
AcDbText
62
2
6
CONTINUOUS
10
20.8400000000
20
223.4195738585
7
TEXTSTYLE_0
40
3.6000000000
1
A4
51
12.0000000000
72
5
11
25.1600000000
21
223.4195738585
100
AcDbText
0
TEXT
5
233
100
AcDbEntity
8
0
100
AcDbText
62
2
6
CONTINUOUS
10
176.5375000000
20
214.9000000000
7
TEXTSTYLE_0
40
4.5000000000
1
1
51
12.0000000000
72
5
11
179.4625000000
21
214.9000000000
100
AcDbText
0
TEXT
5
234
100
AcDbEntity
8
0
100
AcDbText
62
2
6
CONTINUOUS
10
111.4250000000
20
214.4441485128
7
TEXTSTYLE_0
40
5.0000000000
1
Ring
51
12.0000000000
72
5
11
122.4250000000
21
214.4441485128
100
AcDbText
0
TEXT
5
235
100
AcDbEntity
8
0
100
AcDbText
62
2
6
CONTINUOUS
10
41.4250000000
20
214.4441485128
7
TEXTSTYLE_0
40
5.0000000000
1
IPCS.05.210.02
51
12.0000000000
72
5
11
86.9250000000
21
214.4441485128
100
AcDbText
0
TEXT
5
236
100
AcDbEntity
8
0
100
AcDbText
62
2
6
CONTINUOUS
10
34.5375000000
20
214.4994673231
7
TEXTSTYLE_0
40
4.5000000000
1
2
51
12.0000000000
72
5
11
37.4625000000
21
214.4994673231
100
AcDbText
0
TEXT
5
237
100
AcDbEntity
8
0
100
AcDbText
62
2
6
CONTINUOUS
10
20.8400000000
20
215.4195738585
7
TEXTSTYLE_0
40
3.6000000000
1
A4
51
12.0000000000
72
5
11
25.1600000000
21
215.4195738585
100
AcDbText
0
TEXT
5
238
100
AcDbEntity
8
0
100
AcDbText
62
2
6
CONTINUOUS
10
176.5375000000
20
206.9000000000
7
TEXTSTYLE_0
40
4.5000000000
1
1
51
12.0000000000
72
5
11
179.4625000000
21
206.9000000000
100
AcDbText
0
TEXT
5
239
100
AcDbEntity
8
0
100
AcDbText
62
2
6
CONTINUOUS
10
111.4250000000
20
206.4441485128
7
TEXTSTYLE_0
40
5.0000000000
1
Spring
51
12.0000000000
72
5
11
127.9250000000
21
206.4441485128
100
AcDbText
0
TEXT
5
23A
100
AcDbEntity
8
0
100
AcDbText
62
2
6
CONTINUOUS
10
41.4250000000
20
206.4441485128
7
TEXTSTYLE_0
40
5.0000000000
1
IPCS.05.210.03
51
12.0000000000
72
5
11
86.9250000000
21
206.4441485128
100
AcDbText
0
TEXT
5
23B
100
AcDbEntity
8
0
100
AcDbText
62
2
6
CONTINUOUS
10
34.5375000000
20
206.4994673231
7
TEXTSTYLE_0
40
4.5000000000
1
3
51
12.0000000000
72
5
11
37.4625000000
21
206.4994673231
100
AcDbText
0
TEXT
5
23C
100
AcDbEntity
8
0
100
AcDbText
62
2
6
CONTINUOUS
10
20.8400000000
20
207.4195738585
7
TEXTSTYLE_0
40
3.6000000000
1
A3
51
12.0000000000
72
5
11
25.1600000000
21
207.4195738585
100
AcDbText
0
TEXT
5
23D
100
AcDbEntity
8
0
100
AcDbText
62
2
6
CONTINUOUS
10
176.5375000000
20
198.9000000000
7
TEXTSTYLE_0
40
4.5000000000
1
1
51
12.0000000000
72
5
11
179.4625000000
21
198.9000000000
100
AcDbText
0
TEXT
5
23E
100
AcDbEntity
8
0
100
AcDbText
62
2
6
CONTINUOUS
10
111.4250000000
20
198.4441485128
7
TEXTSTYLE_0
40
5.0000000000
1
Pin
51
12.0000000000
72
5
11
119.6750000000
21
198.4441485128
100
AcDbText
0
TEXT
5
23F
100
AcDbEntity
8
0
100
AcDbText
62
2
6
CONTINUOUS
10
41.4250000000
20
198.4441485128
7
TEXTSTYLE_0
40
5.0000000000
1
IPCS.05.210.04
51
12.0000000000
72
5
11
86.9250000000
21
198.4441485128
100
AcDbText
0
TEXT
5
240
100
AcDbEntity
8
0
100
AcDbText
62
2
6
CONTINUOUS
10
34.5375000000
20
198.4994673231
7
TEXTSTYLE_0
40
4.5000000000
1
4
51
12.0000000000
72
5
11
37.4625000000
21
198.4994673231
100
AcDbText
0
TEXT
5
241
100
AcDbEntity
8
0
100
AcDbText
62
2
6
CONTINUOUS
10
20.8400000000
20
199.4195738585
7
TEXTSTYLE_0
40
3.6000000000
1
A4
51
12.0000000000
72
5
11
25.1600000000
21
199.4195738585
100
AcDbText
0
LINE
5
242
100
AcDbEntity
8
0
100
AcDbLine
62
7
6
CONTINUOUS
10
205.0000000000
20
5.0000000000
11
20.0000000000
21
5.0000000000
0
LINE
5
243
100
AcDbEntity
8
0
100
AcDbLine
62
7
6
CONTINUOUS
10
205.0000000000
20
5.0000000000
11
205.0000000000
21
45.0000000000
0
LINE
5
244
100
AcDbEntity
8
0
100
AcDbLine
62
7
6
CONTINUOUS
10
85.0000000000
20
10.0000000000
11
20.0000000000
21
10.0000000000
0
LINE
5
245
100
AcDbEntity
8
0
100
AcDbLine
62
7
6
CONTINUOUS
10
85.0000000000
20
15.0000000000
11
20.0000000000
21
15.0000000000
0
LINE
5
246
100
AcDbEntity
8
0
100
AcDbLine
62
7
6
CONTINUOUS
10
205.0000000000
20
20.0000000000
11
155.0000000000
21
20.0000000000
0
LINE
5
247
100
AcDbEntity
8
0
100
AcDbLine
62
7
6
CONTINUOUS
10
85.0000000000
20
20.0000000000
11
20.0000000000
21
20.0000000000
0
LINE
5
248
100
AcDbEntity
8
0
100
AcDbLine
62
7
6
CONTINUOUS
10
205.0000000000
20
25.0000000000
11
155.0000000000
21
25.0000000000
0
LINE
5
249
100
AcDbEntity
8
0
100
AcDbLine
62
7
6
CONTINUOUS
10
85.0000000000
20
25.0000000000
11
20.0000000000
21
25.0000000000
0
LINE
5
24A
100
AcDbEntity
8
0
100
AcDbLine
62
7
6
CONTINUOUS
10
205.0000000000
20
30.0000000000
11
20.0000000000
21
30.0000000000
0
LINE
5
24B
100
AcDbEntity
8
0
100
AcDbLine
62
7
6
CONTINUOUS
10
85.0000000000
20
35.0000000000
11
20.0000000000
21
35.0000000000
0
LINE
5
24C
100
AcDbEntity
8
0
100
AcDbLine
62
7
6
CONTINUOUS
10
85.0000000000
20
40.0000000000
11
20.0000000000
21
40.0000000000
0
LINE
5
24D
100
AcDbEntity
8
0
100
AcDbLine
62
7
6
CONTINUOUS
10
205.0000000000
20
45.0000000000
11
20.0000000000
21
45.0000000000
0
LINE
5
24E
100
AcDbEntity
8
0
100
AcDbLine
62
7
6
CONTINUOUS
10
185.0000000000
20
20.0000000000
11
185.0000000000
21
30.0000000000
0
LINE
5
24F
100
AcDbEntity
8
0
100
AcDbLine
62
7
6
CONTINUOUS
10
170.0000000000
20
20.0000000000
11
170.0000000000
21
30.0000000000
0
LINE
5
250
100
AcDbEntity
8
0
100
AcDbLine
62
7
6
CONTINUOUS
10
165.0000000000
20
20.0000000000
11
165.0000000000
21
25.0000000000
0
LINE
5
251
100
AcDbEntity
8
0
100
AcDbLine
62
7
6
CONTINUOUS
10
160.0000000000
20
20.0000000000
11
160.0000000000
21
25.0000000000
0
LINE
5
252
100
AcDbEntity
8
0
100
AcDbLine
62
7
6
CONTINUOUS
10
155.0000000000
20
5.0000000000
11
155.0000000000
21
30.0000000000
0
LINE
5
253
100
AcDbEntity
8
0
100
AcDbLine
62
7
6
CONTINUOUS
10
85.0000000000
20
5.0000000000
11
85.0000000000
21
45.0000000000
0
LINE
5
254
100
AcDbEntity
8
0
100
AcDbLine
62
7
6
CONTINUOUS
10
75.0000000000
20
5.0000000000
11
75.0000000000
21
45.0000000000
0
LINE
5
255
100
AcDbEntity
8
0
100
AcDbLine
62
7
6
CONTINUOUS
10
60.0000000000
20
5.0000000000
11
60.0000000000
21
45.0000000000
0
LINE
5
256
100
AcDbEntity
8
0
100
AcDbLine
62
7
6
CONTINUOUS
10
37.0000000000
20
5.0000000000
11
37.0000000000
21
45.0000000000
0
LINE
5
257
100
AcDbEntity
8
0
100
AcDbLine
62
7
6
CONTINUOUS
10
27.0000000000
20
30.0000000000
11
27.0000000000
21
45.0000000000
0
LINE
5
258
100
AcDbEntity
8
0
100
AcDbLine
62
7
6
CONTINUOUS
10
20.0000000000
20
5.0000000000
11
20.0000000000
21
45.0000000000
0
TEXT
5
259
100
AcDbEntity
8
0
100
AcDbText
62
2
6
CONTINUOUS
10
172.3000000000
20
8.9218079180
7
TEXTSTYLE_0
40
7.0000000000
1
PNPI
51
12.0000000000
72
5
11
187.7000000000
21
8.9218079180
100
AcDbText
0
TEXT
5
25A
100
AcDbEntity
8
0
100
AcDbText
62
2
6
CONTINUOUS
10
92.7000000000
20
13.9218079180
7
TEXTSTYLE_0
40
7.0000000000
1
Spring screw
51
12.0000000000
72
5
11
147.3000000000
21
13.9218079180
100
AcDbText
0
TEXT
5
25B
100
AcDbEntity
8
0
100
AcDbText
62
2
6
CONTINUOUS
10
42.3400000000
20
5.8642550482
7
TEXTSTYLE_0
40
3.2000000000
1
Trounov
51
12.0000000000
72
5
11
54.6600000000
21
5.8642550482
100
AcDbText
0
TEXT
5
25C
100
AcDbEntity
8
0
100
AcDbText
62
2
6
CONTINUOUS
10
21.0760000000
20
5.8642550482
7
TEXTSTYLE_0
40
3.2000000000
1
Approved
51
12.0000000000
72
5
11
35.9240000000
21
5.8642550482
100
AcDbText
0
TEXT
5
25D
100
AcDbEntity
8
0
100
AcDbText
62
2
6
CONTINUOUS
10
193.9500000000
20
20.9664891077
7
TEXTSTYLE_0
40
3.0000000000
1
1
51
12.0000000000
72
5
11
196.0500000000
21
20.9664891077
100
AcDbText
0
TEXT
5
25E
100
AcDbEntity
8
0
100
AcDbText
62
2
6
CONTINUOUS
10
176.4500000000
20
20.9664891077
7
TEXTSTYLE_0
40
3.0000000000
1
 
51
12.0000000000
72
5
11
178.5500000000
21
20.9664891077
100
AcDbText
0
TEXT
5
25F
100
AcDbEntity
8
0
100
AcDbText
62
2
6
CONTINUOUS
10
42.3400000000
20
20.8642550482
7
TEXTSTYLE_0
40
3.2000000000
1
Boulkin
51
12.0000000000
72
5
11
54.6600000000
21
20.8642550482
100
AcDbText
0
TEXT
5
260
100
AcDbEntity
8
0
100
AcDbText
62
2
6
CONTINUOUS
10
22.0040000000
20
20.8642550482
7
TEXTSTYLE_0
40
3.2000000000
1
Checked
51
12.0000000000
72
5
11
34.9960000000
21
20.8642550482
100
AcDbText
0
TEXT
5
261
100
AcDbEntity
8
0
100
AcDbText
62
2
6
CONTINUOUS
10
188.9700000000
20
25.7875795036
7
TEXTSTYLE_0
40
3.3500000000
1
Sheets
51
12.0000000000
72
5
11
201.0300000000
21
25.7875795036
100
AcDbText
0
TEXT
5
262
100
AcDbEntity
8
0
100
AcDbText
62
2
6
CONTINUOUS
10
172.4750000000
20
25.7875795036
7
TEXTSTYLE_0
40
3.3500000000
1
Sheet
51
12.0000000000
72
5
11
182.5250000000
21
25.7875795036
100
AcDbText
0
TEXT
5
263
100
AcDbEntity
8
0
100
AcDbText
62
2
6
CONTINUOUS
10
158.4800000000
20
25.7875795036
7
TEXTSTYLE_0
40
3.3500000000
1
Type
51
12.0000000000
72
5
11
166.5200000000
21
25.7875795036
100
AcDbText
0
TEXT
5
264
100
AcDbEntity
8
0
100
AcDbText
62
2
6
CONTINUOUS
10
75.5900000000
20
26.0687231672
7
TEXTSTYLE_0
40
2.8000000000
1
16.7.03
51
12.0000000000
72
5
11
84.4100000000
21
26.0687231672
100
AcDbText
0
TEXT
5
265
100
AcDbEntity
8
0
100
AcDbText
62
2
6
CONTINUOUS
10
39.7000000000
20
25.8642550482
7
TEXTSTYLE_0
40
3.2000000000
1
Schebetova
51
12.0000000000
72
5
11
57.3000000000
21
25.8642550482
100
AcDbText
0
TEXT
5
266
100
AcDbEntity
8
0
100
AcDbText
62
2
6
CONTINUOUS
10
21.0760000000
20
25.8642550482
7
TEXTSTYLE_0
40
3.2000000000
1
Designed
51
12.0000000000
72
5
11
35.9240000000
21
25.8642550482
100
AcDbText
0
TEXT
5
267
100
AcDbEntity
8
0
100
AcDbText
62
2
6
CONTINUOUS
10
113.1500000000
20
33.9218079180
7
TEXTSTYLE_0
40
7.0000000000
1
IPCS.05.210.00
51
12.0000000000
72
5
11
176.8500000000
21
33.9218079180
100
AcDbText
0
TEXT
5
268
100
AcDbEntity
8
0
100
AcDbText
62
2
6
CONTINUOUS
10
76.2880000000
20
30.8642550482
7
TEXTSTYLE_0
40
3.2000000000
1
Date
51
12.0000000000
72
5
11
83.7120000000
21
30.8642550482
100
AcDbText
0
TEXT
5
269
100
AcDbEntity
8
0
100
AcDbText
62
2
6
CONTINUOUS
10
60.7162500000
20
30.7875795036
7
TEXTSTYLE_0
40
3.3500000000
1
Signature
51
12.0000000000
72
5
11
74.2837500000
21
30.7875795036
100
AcDbText
0
TEXT
5
26A
100
AcDbEntity
8
0
100
AcDbText
62
2
6
CONTINUOUS
10
38.2920000000
20
30.8642550482
7
TEXTSTYLE_0
40
3.2000000000
1
N document.
51
12.0000000000
72
5
11
58.7080000000
21
30.8642550482
100
AcDbText
0
TEXT
5
26B
100
AcDbEntity
8
0
100
AcDbText
62
2
6
CONTINUOUS
10
27.3600000000
20
30.8642550482
7
TEXTSTYLE_0
40
3.2000000000
1
Sheet
51
12.0000000000
72
5
11
36.6400000000
21
30.8642550482
100
AcDbText
0
TEXT
5
26C
100
AcDbEntity
8
0
100
AcDbText
62
2
6
CONTINUOUS
10
20.7160000000
20
30.8642550482
7
TEXTSTYLE_0
40
3.2000000000
1
Chg
51
12.0000000000
72
5
11
26.2840000000
21
30.8642550482
100
AcDbText
0
LINE
5
26D
100
AcDbEntity
8
0
100
AcDbLine
62
7
6
CONTINUOUS
10
205.0000000000
20
292.0000000000
11
20.0000000000
21
292.0000000000
0
LINE
5
26E
100
AcDbEntity
8
0
100
AcDbLine
62
7
6
CONTINUOUS
10
205.0000000000
20
292.0000000000
11
205.0000000000
21
45.0000000000
0
LINE
5
26F
100
AcDbEntity
8
0
100
AcDbLine
62
7
6
CONTINUOUS
10
205.0000000000
20
277.0000000000
11
20.0000000000
21
277.0000000000
0
LINE
5
270
100
AcDbEntity
8
0
100
AcDbLine
62
7
6
CONTINUOUS
10
205.0000000000
20
269.0000000000
11
20.0000000000
21
269.0000000000
0
LINE
5
271
100
AcDbEntity
8
0
100
AcDbLine
62
7
6
CONTINUOUS
10
205.0000000000
20
261.0000000000
11
20.0000000000
21
261.0000000000
0
LINE
5
272
100
AcDbEntity
8
0
100
AcDbLine
62
7
6
CONTINUOUS
10
205.0000000000
20
253.0000000000
11
20.0000000000
21
253.0000000000
0
LINE
5
273
100
AcDbEntity
8
0
100
AcDbLine
62
7
6
CONTINUOUS
10
205.0000000000
20
245.0000000000
11
20.0000000000
21
245.0000000000
0
LINE
5
274
100
AcDbEntity
8
0
100
AcDbLine
62
7
6
CONTINUOUS
10
205.0000000000
20
237.0000000000
11
20.0000000000
21
237.0000000000
0
LINE
5
275
100
AcDbEntity
8
0
100
AcDbLine
62
7
6
CONTINUOUS
10
205.0000000000
20
229.0000000000
11
20.0000000000
21
229.0000000000
0
LINE
5
276
100
AcDbEntity
8
0
100
AcDbLine
62
7
6
CONTINUOUS
10
205.0000000000
20
221.0000000000
11
20.0000000000
21
221.0000000000
0
LINE
5
277
100
AcDbEntity
8
0
100
AcDbLine
62
7
6
CONTINUOUS
10
205.0000000000
20
213.0000000000
11
20.0000000000
21
213.0000000000
0
LINE
5
278
100
AcDbEntity
8
0
100
AcDbLine
62
7
6
CONTINUOUS
10
205.0000000000
20
205.0000000000
11
20.0000000000
21
205.0000000000
0
LINE
5
279
100
AcDbEntity
8
0
100
AcDbLine
62
7
6
CONTINUOUS
10
205.0000000000
20
197.0000000000
11
20.0000000000
21
197.0000000000
0
LINE
5
27A
100
AcDbEntity
8
0
100
AcDbLine
62
7
6
CONTINUOUS
10
205.0000000000
20
189.0000000000
11
20.0000000000
21
189.0000000000
0
LINE
5
27B
100
AcDbEntity
8
0
100
AcDbLine
62
7
6
CONTINUOUS
10
205.0000000000
20
181.0000000000
11
20.0000000000
21
181.0000000000
0
LINE
5
27C
100
AcDbEntity
8
0
100
AcDbLine
62
7
6
CONTINUOUS
10
205.0000000000
20
173.0000000000
11
20.0000000000
21
173.0000000000
0
LINE
5
27D
100
AcDbEntity
8
0
100
AcDbLine
62
7
6
CONTINUOUS
10
205.0000000000
20
165.0000000000
11
20.0000000000
21
165.0000000000
0
LINE
5
27E
100
AcDbEntity
8
0
100
AcDbLine
62
7
6
CONTINUOUS
10
205.0000000000
20
157.0000000000
11
20.0000000000
21
157.0000000000
0
LINE
5
27F
100
AcDbEntity
8
0
100
AcDbLine
62
7
6
CONTINUOUS
10
205.0000000000
20
149.0000000000
11
20.0000000000
21
149.0000000000
0
LINE
5
280
100
AcDbEntity
8
0
100
AcDbLine
62
7
6
CONTINUOUS
10
205.0000000000
20
141.0000000000
11
20.0000000000
21
141.0000000000
0
LINE
5
281
100
AcDbEntity
8
0
100
AcDbLine
62
7
6
CONTINUOUS
10
205.0000000000
20
133.0000000000
11
20.0000000000
21
133.0000000000
0
LINE
5
282
100
AcDbEntity
8
0
100
AcDbLine
62
7
6
CONTINUOUS
10
205.0000000000
20
125.0000000000
11
20.0000000000
21
125.0000000000
0
LINE
5
283
100
AcDbEntity
8
0
100
AcDbLine
62
7
6
CONTINUOUS
10
205.0000000000
20
117.0000000000
11
20.0000000000
21
117.0000000000
0
LINE
5
284
100
AcDbEntity
8
0
100
AcDbLine
62
7
6
CONTINUOUS
10
205.0000000000
20
109.0000000000
11
20.0000000000
21
109.0000000000
0
LINE
5
285
100
AcDbEntity
8
0
100
AcDbLine
62
7
6
CONTINUOUS
10
205.0000000000
20
101.0000000000
11
20.0000000000
21
101.0000000000
0
LINE
5
286
100
AcDbEntity
8
0
100
AcDbLine
62
7
6
CONTINUOUS
10
205.0000000000
20
93.0000000000
11
20.0000000000
21
93.0000000000
0
LINE
5
287
100
AcDbEntity
8
0
100
AcDbLine
62
7
6
CONTINUOUS
10
205.0000000000
20
85.0000000000
11
20.0000000000
21
85.0000000000
0
LINE
5
288
100
AcDbEntity
8
0
100
AcDbLine
62
7
6
CONTINUOUS
10
205.0000000000
20
77.0000000000
11
20.0000000000
21
77.0000000000
0
LINE
5
289
100
AcDbEntity
8
0
100
AcDbLine
62
7
6
CONTINUOUS
10
205.0000000000
20
69.0000000000
11
20.0000000000
21
69.0000000000
0
LINE
5
28A
100
AcDbEntity
8
0
100
AcDbLine
62
7
6
CONTINUOUS
10
205.0000000000
20
61.0000000000
11
20.0000000000
21
61.0000000000
0
LINE
5
28B
100
AcDbEntity
8
0
100
AcDbLine
62
7
6
CONTINUOUS
10
205.0000000000
20
53.0000000000
11
20.0000000000
21
53.0000000000
0
LINE
5
28C
100
AcDbEntity
8
0
100
AcDbLine
62
7
6
CONTINUOUS
10
205.0000000000
20
45.0000000000
11
20.0000000000
21
45.0000000000
0
LINE
5
28D
100
AcDbEntity
8
0
100
AcDbLine
62
7
6
CONTINUOUS
10
183.0000000000
20
292.0000000000
11
183.0000000000
21
45.0000000000
0
LINE
5
28E
100
AcDbEntity
8
0
100
AcDbLine
62
7
6
CONTINUOUS
10
173.0000000000
20
292.0000000000
11
173.0000000000
21
45.0000000000
0
LINE
5
28F
100
AcDbEntity
8
0
100
AcDbLine
62
7
6
CONTINUOUS
10
110.0000000000
20
292.0000000000
11
110.0000000000
21
45.0000000000
0
LINE
5
290
100
AcDbEntity
8
0
100
AcDbLine
62
7
6
CONTINUOUS
10
40.0000000000
20
292.0000000000
11
40.0000000000
21
45.0000000000
0
LINE
5
291
100
AcDbEntity
8
0
100
AcDbLine
62
7
6
CONTINUOUS
10
32.0000000000
20
292.0000000000
11
32.0000000000
21
45.0000000000
0
LINE
5
292
100
AcDbEntity
8
0
100
AcDbLine
62
7
6
CONTINUOUS
10
26.0000000000
20
292.0000000000
11
26.0000000000
21
45.0000000000
0
LINE
5
293
100
AcDbEntity
8
0
100
AcDbLine
62
7
6
CONTINUOUS
10
20.0000000000
20
292.0000000000
11
20.0000000000
21
45.0000000000
0
TEXT
5
294
100
AcDbEntity
8
0
100
AcDbText
62
2
6
CONTINUOUS
10
188.0000000000
20
282.4553188103
7
TEXTSTYLE_0
40
4.0000000000
1
Note
51
12.0000000000
72
5
11
200.0000000000
21
282.4553188103
100
AcDbText
0
TEXT
5
295
100
AcDbEntity
8
0
100
AcDbText
62
2
6
CONTINUOUS
10
173.5000000000
20
282.4553188103
7
TEXTSTYLE_0
40
4.0000000000
1
Qty
51
12.0000000000
72
5
11
182.5000000000
21
282.4553188103
100
AcDbText
0
TEXT
5
296
100
AcDbEntity
8
0
100
AcDbText
62
2
6
CONTINUOUS
10
134.0000000000
20
281.9441485128
7
TEXTSTYLE_0
40
5.0000000000
1
Name
51
12.0000000000
72
5
11
149.0000000000
21
281.9441485128
100
AcDbText
0
TEXT
5
297
100
AcDbEntity
8
0
100
AcDbText
62
2
6
CONTINUOUS
10
67.5000000000
20
281.9441485128
7
TEXTSTYLE_0
40
5.0000000000
1
Code
51
12.0000000000
72
5
11
82.5000000000
21
281.9441485128
100
AcDbText
0
TEXT
5
298
100
AcDbEntity
8
0
100
AcDbText
62
2
6
CONTINUOUS
10
36.3711440615
20
279.9500000000
7
TEXTSTYLE_0
40
3.5000000000
1
Pos.
50
90.0000000000
51
12.0000000000
72
5
11
36.3711440615
21
289.0500000000
100
AcDbText
0
TEXT
5
299
100
AcDbEntity
8
0
100
AcDbText
62
2
6
CONTINUOUS
10
30.3711440615
20
279.9500000000
7
TEXTSTYLE_0
40
3.5000000000
1
Zone
50
90.0000000000
51
12.0000000000
72
5
11
30.3711440615
21
289.0500000000
100
AcDbText
0
TEXT
5
29A
100
AcDbEntity
8
0
100
AcDbText
62
2
6
CONTINUOUS
10
24.3711440615
20
277.6750000000
7
TEXTSTYLE_0
40
3.5000000000
1
Format
50
90.0000000000
51
12.0000000000
72
5
11
24.3711440615
21
291.3250000000
100
AcDbText
0
LINE
5
29B
100
AcDbEntity
8
0
100
AcDbLine
62
7
6
CONTINUOUS
10
0.0000000000
20
0.0000000000
11
210.0000000000
21
0.0000000000
0
LINE
5
29C
100
AcDbEntity
8
0
100
AcDbLine
62
7
6
CONTINUOUS
10
0.0000000000
20
0.0000000000
11
0.0000000000
21
297.0000000000
0
LINE
5
29D
100
AcDbEntity
8
0
100
AcDbLine
62
7
6
CONTINUOUS
10
20.0000000000
20
5.0000000000
11
20.0000000000
21
292.0000000000
0
LINE
5
29E
100
AcDbEntity
8
0
100
AcDbLine
62
7
6
CONTINUOUS
10
205.0000000000
20
292.0000000000
11
205.0000000000
21
5.0000000000
0
LINE
5
29F
100
AcDbEntity
8
0
100
AcDbLine
62
7
6
CONTINUOUS
10
210.0000000000
20
0.0000000000
11
210.0000000000
21
297.0000000000
0
LINE
5
2A0
100
AcDbEntity
8
0
100
AcDbLine
62
7
6
CONTINUOUS
10
20.0000000000
20
292.0000000000
11
205.0000000000
21
292.0000000000
0
LINE
5
2A1
100
AcDbEntity
8
0
100
AcDbLine
62
7
6
CONTINUOUS
10
0.0000000000
20
297.0000000000
11
210.0000000000
21
297.0000000000
0
ENDSEC
0
SECTION
2
OBJECTS
0
DICTIONARY
5
2A2
100
AcDbDictionary
3
ACAD_GROUP
350
2A3
3
ACAD_MLINESTYLE
350
2A4
0
DICTIONARY
5
2A3
102
{ACAD_REACTORS
330
2A2
102
}
100
AcDbDictionary
0
DICTIONARY
5
2A4
102
{ACAD_REACTORS
330
2A2
102
}
100
AcDbDictionary
3
STANDARD
350
2A5
0
MLINESTYLE
5
2A5
102
{ACAD_REACTORS
330
2A4
102
}
100
AcDbMlineStyle
2
STANDARD
70
0
3

62
256
51
90.0
52
90.0
71
2
49
0.5
62
256
6
BYLAYER
49
-0.5
62
256
6
BYLAYER
0
ENDSEC
0
EOF
