999
DXF file: e_05-210-04_palec.dxf
999
Pro/ENGINEER 2001320 by Parametric Technology Corporation
0
SECTION
2
HEADER
9
$ACADVER
1
AC1014
9
$EXTMAX
10
210.0000000000
20
297.0000000000
9
$EXTMIN
10
0.0000000000
20
0.0000000000
9
$LIMMIN
10
0.0000000000
20
0.0000000000
9
$LIMMAX
10
210.0000000000
20
297.0000000000
9
$VIEWCTR
10
105.0000000000
20
148.5000000000
9
$VIEWSIZE
40
297.0000000000
9
$CLAYER
8
0
9
$LTSCALE
40
19.3600000000
9
$CELTYPE
6
BYLAYER
9
$DIMSCALE
40
1
9
$DIMASZ
40
3.0000000000
9
$DIMEXO
40
2.2000000000
9
$DIMDLI
40
13.3760000000
9
$DIMEXE
40
6.3360000000
9
$DIMCEN
40
3.1680000000
9
$DIMLFAC
40
1.0000000000
9
$DIMTXT
40
3.6000000000
9
$DIMTOL
70
1
9
$DIMTFAC
40
0.6000000000
9
$DIMTP
40
0.0100000000
9
$DIMTM
40
0.0100000000
0
ENDSEC
0
SECTION
2
CLASSES
0
ENDSEC
0
SECTION
2
TABLES
0
TABLE
2
VPORT
5
1F4
100
AcDbSymbolTable
70
2
0
VPORT
5
1F5
100
AcDbSymbolTableRecord
100
AcDbViewportTableRecord
2
*ACTIVE
70
0
10
0.0
20
0.0
11
1.0
21
1.0
12
105.0000000000
22
148.5000000000
13
0.0
23
0.0
14
1.0
24
1.0
15
0.0
25
0.0
16
0.0
26
0.0
36
1.0
17
0.0
27
0.0
37
0.0
40
297.0000000000
41
0.7070707071
42
50.0
43
0.0
44
0.0
50
0.0
51
0.0
71
0
72
100
73
1
74
1
75
0
76
0
77
0
78
0
0
ENDTAB
0
TABLE
2
LTYPE
5
1F6
100
AcDbSymbolTable
70
6
0
LTYPE
5
1F7
100
AcDbSymbolTableRecord
100
AcDbLinetypeTableRecord
2
BYBLOCK
70
0
3

72
65
73
0
40
0.0
0
LTYPE
5
1F8
100
AcDbSymbolTableRecord
100
AcDbLinetypeTableRecord
2
BYLAYER
70
0
3

72
65
73
0
40
0.0
0
LTYPE
5
1F9
100
AcDbSymbolTableRecord
100
AcDbLinetypeTableRecord
2
CONTINUOUS
70
64
3
Solid line
72
65
73
0
40
0
0
LTYPE
5
1FA
100
AcDbSymbolTableRecord
100
AcDbLinetypeTableRecord
2
CENTER
70
64
3
____ _ ____ _ ____ _ ____ _ ____ _ ____ _ ____
72
65
73
4
40
0.6
49
0.375
74
0
49
-0.075
74
0
49
0.075
74
0
49
-0.075
74
0
0
LTYPE
5
1FB
100
AcDbSymbolTableRecord
100
AcDbLinetypeTableRecord
2
HIDDEN
70
64
3
- - - - - - - - - - - - - - - - - - - -
72
65
73
2
40
0.2
49
0.1
74
0
49
-0.1
74
0
0
LTYPE
5
1FC
100
AcDbSymbolTableRecord
100
AcDbLinetypeTableRecord
2
PHANTOM
70
64
3
_____ _ _ _____ _ _ _____ _ _ _____
72
65
73
6
40
0.8
49
0.45
74
0
49
-0.05
74
0
49
0.1
74
0
49
-0.05
74
0
49
0.1
74
0
49
-0.05
74
0
0
LTYPE
5
1FD
100
AcDbSymbolTableRecord
100
AcDbLinetypeTableRecord
2
DOT
70
64
3
. . . . . . . . . . . . . . . . . . . .
72
65
73
2
40
0.2
49
0.1
74
0
49
-0.1
74
0
0
LTYPE
5
1FE
100
AcDbSymbolTableRecord
100
AcDbLinetypeTableRecord
2
DASHED
70
64
3
- - - - - - - - - - - - - - - - - - - -
72
65
73
2
40
0.2
49
0.1
74
0
49
-0.1
74
0
0
ENDTAB
0
TABLE
2
LAYER
5
1FF
100
AcDbSymbolTable
70
36
0
LAYER
5
200
100
AcDbSymbolTableRecord
100
AcDbLayerTableRecord
2
0
70
0
62
7
6
CONTINUOUS
0
LAYER
5
201
100
AcDbSymbolTableRecord
100
AcDbLayerTableRecord
2
DEFAULT_1
70
0
62
7
6
CENTER
0
LAYER
5
202
100
AcDbSymbolTableRecord
100
AcDbLayerTableRecord
2
DEFAULT_2
70
0
62
8
6
HIDDEN
0
LAYER
5
203
100
AcDbSymbolTableRecord
100
AcDbLayerTableRecord
2
DEFAULT_3
70
0
62
7
6
PHANTOM
0
ENDTAB
0
TABLE
2
STYLE
5
204
100
AcDbSymbolTable
70
1
0
STYLE
5
205
100
AcDbSymbolTableRecord
100
AcDbTextStyleTableRecord
2
STANDARD
70
0
40
0.0
41
1.0
50
0.0
71
0
42
0.0
3
txt
4

0
STYLE
5
206
100
AcDbSymbolTableRecord
100
AcDbTextStyleTableRecord
2
TEXTSTYLE_0
70
0
40
0.0
41
0.80
50
0.0
71
0
42
0.2
3
txt
4

0
ENDTAB
0
TABLE
2
VIEW
5
207
100
AcDbSymbolTable
70
0
0
ENDTAB
0
TABLE
2
UCS
5
208
100
AcDbSymbolTable
70
0
0
ENDTAB
0
TABLE
2
APPID
5
209
100
AcDbSymbolTable
70
1
0
APPID
5
20A
100
AcDbSymbolTableRecord
100
AcDbRegAppTableRecord
2
ACAD
70
0
0
ENDTAB
0
TABLE
2
DIMSTYLE
5
20B
100
AcDbSymbolTable
70
1
0
DIMSTYLE
105
20C
100
AcDbSymbolTableRecord
100
AcDbDimStyleTableRecord
2
STANDARD
70
0
3

4

5

6

7

40
1.0
41
0.18
42
0.0625
43
0.38
44
0.18
45
0.0
46
0.0
47
0.0100000000
48
0.0100000000
140
3.6000000000
141
0.09
142
0.0
143
25.4
144
1.0000000000
145
0.0
146
0.6000000000
147
0.09
71
1
72
0
73
1
74
1
75
0
76
0
77
0
78
0
170
0
171
2
172
0
173
0
174
0
175
0
176
0
177
0
178
0
270
2
271
2
272
4
273
2
274
2
340
205
275
0
280
0
281
0
282
0
283
1
284
0
285
0
286
0
287
3
288
0
0
DIMSTYLE
105
20D
100
AcDbSymbolTableRecord
100
AcDbDimStyleTableRecord
2
DIMSTYLE_1
70
0
3

4

5

6

7

40
1.0
41
0.18
42
0.0625
43
0.38
44
0.18
45
0.0
46
0.0
47
0.2000000000
48
0.2000000000
140
3.6000000000
141
0.09
142
0.0
143
25.4
144
0.4000000000
145
0.0
146
0.0000000000
147
0.09
71
0
72
0
73
1
74
1
75
0
76
0
77
0
78
0
170
0
171
2
172
0
173
0
174
0
175
0
176
0
177
0
178
0
270
2
271
2
272
4
273
2
274
2
340
205
275
0
280
0
281
0
282
0
283
1
284
0
285
0
286
0
287
3
288
0
0
DIMSTYLE
105
20E
100
AcDbSymbolTableRecord
100
AcDbDimStyleTableRecord
2
DIMSTYLE_2
70
0
3

4

5

6

7

40
1.0
41
0.18
42
0.0625
43
0.38
44
0.18
45
0.0
46
0.0
47
-0.0160000000
48
0.0590000000
140
3.6000000000
141
0.09
142
0.0
143
25.4
144
0.4000000000
145
0.0
146
0.0000000000
147
0.09
71
1
72
0
73
1
74
1
75
0
76
0
77
0
78
0
170
0
171
2
172
0
173
0
174
0
175
0
176
0
177
0
178
0
270
2
271
3
272
4
273
2
274
2
340
205
275
0
280
0
281
0
282
0
283
1
284
0
285
0
286
0
287
3
288
0
0
DIMSTYLE
105
20F
100
AcDbSymbolTableRecord
100
AcDbDimStyleTableRecord
2
DIMSTYLE_3
70
0
3

4

5

6

7

40
1.0
41
0.18
42
0.0625
43
0.38
44
0.18
45
0.0
46
0.0
47
0.1000000000
48
0.1000000000
140
3.6000000000
141
0.09
142
0.0
143
25.4
144
0.4000000000
145
0.0
146
0.0000000000
147
0.09
71
0
72
0
73
1
74
1
75
0
76
0
77
0
78
0
170
0
171
2
172
0
173
0
174
0
175
0
176
0
177
0
178
0
270
2
271
2
272
4
273
2
274
2
340
205
275
0
280
0
281
0
282
0
283
1
284
0
285
0
286
0
287
3
288
0
0
DIMSTYLE
105
210
100
AcDbSymbolTableRecord
100
AcDbDimStyleTableRecord
2
DIMSTYLE_4
70
0
3

4

5

6

7

40
1.0
41
0.18
42
0.0625
43
0.38
44
0.18
45
0.0
46
0.0
47
0.3000000000
48
0.3000000000
140
3.6000000000
141
0.09
142
0.0
143
25.4
144
0.4000000000
145
0.0
146
0.0000000000
147
0.09
71
0
72
0
73
1
74
1
75
0
76
0
77
0
78
0
170
0
171
2
172
0
173
0
174
0
175
0
176
0
177
0
178
0
270
2
271
2
272
4
273
2
274
2
340
205
275
0
280
0
281
0
282
0
283
1
284
0
285
0
286
0
287
3
288
0
0
ENDTAB
0
TABLE
2
BLOCK_RECORD
5
211
100
AcDbSymbolTable
70
0
0
BLOCK_RECORD
5
212
100
AcDbSymbolTableRecord
100
AcDbBlockTableRecord
2
*MODEL_SPACE
0
BLOCK_RECORD
5
213
100
AcDbSymbolTableRecord
100
AcDbBlockTableRecord
2
*PAPER_SPACE
0
BLOCK_RECORD
5
214
100
AcDbSymbolTableRecord
100
AcDbBlockTableRecord
2
*D0
0
BLOCK_RECORD
5
215
100
AcDbSymbolTableRecord
100
AcDbBlockTableRecord
2
*D1
0
BLOCK_RECORD
5
216
100
AcDbSymbolTableRecord
100
AcDbBlockTableRecord
2
*D2
0
BLOCK_RECORD
5
217
100
AcDbSymbolTableRecord
100
AcDbBlockTableRecord
2
*D3
0
BLOCK_RECORD
5
218
100
AcDbSymbolTableRecord
100
AcDbBlockTableRecord
2
*D4
0
BLOCK_RECORD
5
219
100
AcDbSymbolTableRecord
100
AcDbBlockTableRecord
2
*D5
0
BLOCK_RECORD
5
21A
100
AcDbSymbolTableRecord
100
AcDbBlockTableRecord
2
*D6
0
BLOCK_RECORD
5
21B
100
AcDbSymbolTableRecord
100
AcDbBlockTableRecord
2
*D7
0
BLOCK_RECORD
5
21C
100
AcDbSymbolTableRecord
100
AcDbBlockTableRecord
2
UGOL_BL0
0
BLOCK_RECORD
5
21D
100
AcDbSymbolTableRecord
100
AcDbBlockTableRecord
2
STANDARD_BL1
0
BLOCK_RECORD
5
21E
100
AcDbSymbolTableRecord
100
AcDbBlockTableRecord
2
STANDARD_BL2
0
ENDTAB
0
ENDSEC
0
SECTION
2
BLOCKS
0
BLOCK
5
21F
100
AcDbEntity
8
0
100
AcDbBlockBegin
2
*MODEL_SPACE
70
0
10
0.0000000000
20
0.0000000000
3
*MODEL_SPACE
1

3
*MODEL_SPACE
1

0
ENDBLK
5
220
100
AcDbEntity
8
0
100
AcDbBlockEnd
0
BLOCK
5
221
100
AcDbEntity
8
0
100
AcDbBlockBegin
2
*PAPER_SPACE
70
0
10
0.0000000000
20
0.0000000000
3
*PAPER_SPACE
1

3
*PAPER_SPACE
1

0
ENDBLK
5
222
100
AcDbEntity
8
0
100
AcDbBlockEnd
0
BLOCK
5
223
100
AcDbEntity
8
0
100
AcDbBlockBegin
62
2
6
CONTINUOUS
2
*D0
70
65
10
0.0000000000
20
0.0000000000
3
*D0
1

0
TEXT
5
224
100
AcDbEntity
8
0
100
AcDbText
62
2
6
CONTINUOUS
10
50.4783723705
20
166.7746437308
7
TEXTSTYLE_0
40
3.6000000000
1
%%c
50
90.0000000000
51
12.0000000000
72
5
11
50.4783723705
21
171.5746437308
100
AcDbText
0
TEXT
5
225
100
AcDbEntity
8
0
100
AcDbText
62
2
6
CONTINUOUS
10
50.4783723705
20
171.5746437308
7
TEXTSTYLE_0
40
3.6000000000
1
8
50
90.0000000000
51
12.0000000000
72
5
11
50.4783723705
21
173.9146437308
100
AcDbText
0
LINE
5
226
100
AcDbEntity
8
0
100
AcDbLine
62
2
6
CONTINUOUS
10
69.6425448804
20
160.3492022631
11
49.3984789059
21
160.3492022631
0
LINE
5
227
100
AcDbEntity
8
0
100
AcDbLine
62
2
6
CONTINUOUS
10
69.6425448804
20
180.3492022631
11
61.0911430995
21
180.3492022631
0
LINE
5
228
100
AcDbEntity
8
0
100
AcDbLine
62
2
6
CONTINUOUS
10
58.5138220259
20
180.3492022631
11
49.3984789059
21
180.3492022631
0
LINE
5
229
100
AcDbEntity
8
0
100
AcDbLine
62
2
6
CONTINUOUS
10
51.3984789059
20
160.3492022631
11
51.3984789059
21
170.3492022631
0
LINE
5
22A
100
AcDbEntity
8
0
100
AcDbLine
62
2
6
CONTINUOUS
10
51.3984789059
20
180.3492022631
11
51.3984789059
21
170.3492022631
0
SOLID
5
22B
100
AcDbEntity
8
0
100
AcDbTrace
62
2
6
CONTINUOUS
10
50.8984789059
20
163.3492022631
11
51.3984789059
21
160.3492022631
12
51.8984789059
22
163.3492022631
13
51.8984789059
23
163.3492022631
0
SOLID
5
22C
100
AcDbEntity
8
0
100
AcDbTrace
62
2
6
CONTINUOUS
10
51.8984789059
20
177.3492022631
11
51.3984789059
21
180.3492022631
12
50.8984789059
22
177.3492022631
13
50.8984789059
23
177.3492022631
0
ENDBLK
5
22D
100
AcDbEntity
8
0
100
AcDbBlockEnd
0
BLOCK
5
22E
100
AcDbEntity
8
0
100
AcDbBlockBegin
62
2
6
CONTINUOUS
2
*D1
70
65
10
0.0000000000
20
0.0000000000
3
*D1
1

0
TEXT
5
22F
100
AcDbEntity
8
0
100
AcDbText
62
2
6
CONTINUOUS
10
175.2732505910
20
192.3888994717
7
TEXTSTYLE_0
40
3.6000000000
1
%%c
50
90.0000000000
51
12.0000000000
72
5
11
175.2732505910
21
197.1888994717
100
AcDbText
0
TEXT
5
230
100
AcDbEntity
8
0
100
AcDbText
62
2
6
CONTINUOUS
10
175.2732505910
20
197.1888994717
7
TEXTSTYLE_0
40
3.6000000000
1
12 f9
50
90.0000000000
51
12.0000000000
72
5
11
175.2732505910
21
208.8888994717
100
AcDbText
0
TEXT
5
231
100
AcDbEntity
8
0
100
AcDbText
62
2
6
CONTINUOUS
10
173.0649949061
20
212.2067210653
7
TEXTSTYLE_0
40
2.1600000000
1
-0,016
50
90.0000000000
51
12.0000000000
72
5
11
173.0649949061
21
222.5747210653
100
AcDbText
0
TEXT
5
232
100
AcDbEntity
8
0
100
AcDbText
62
2
6
CONTINUOUS
10
176.0093358193
20
212.2067210653
7
TEXTSTYLE_0
40
2.1600000000
1
-0,059
50
90.0000000000
51
12.0000000000
72
5
11
176.0093358193
21
222.5747210653
100
AcDbText
0
TEXT
5
233
100
AcDbEntity
8
0
100
AcDbText
62
2
6
CONTINUOUS
10
176.0093358193
20
208.8888994717
7
TEXTSTYLE_0
40
5.1043409132
1
(
50
90.0000000000
51
12.0000000000
72
5
11
176.0093358193
21
212.2067210653
100
AcDbText
0
TEXT
5
234
100
AcDbEntity
8
0
100
AcDbText
62
2
6
CONTINUOUS
10
176.0093358193
20
222.5747210653
7
TEXTSTYLE_0
40
5.1043409132
1
)
50
90.0000000000
51
12.0000000000
72
5
11
176.0093358193
21
225.8925426589
100
AcDbText
0
LINE
5
235
100
AcDbEntity
8
0
100
AcDbLine
62
2
6
CONTINUOUS
10
158.1881214789
20
155.3492022631
11
179.1134636618
21
155.3492022631
0
LINE
5
236
100
AcDbEntity
8
0
100
AcDbLine
62
2
6
CONTINUOUS
10
158.1881214789
20
185.3492022631
11
179.1134636618
21
185.3492022631
0
LINE
5
237
100
AcDbEntity
8
0
100
AcDbLine
62
2
6
CONTINUOUS
10
177.1134636618
20
155.3492022631
11
177.1134636618
21
170.3492022631
0
LINE
5
238
100
AcDbEntity
8
0
100
AcDbLine
62
2
6
CONTINUOUS
10
177.1134636618
20
185.3492022631
11
177.1134636618
21
170.3492022631
0
LINE
5
239
100
AcDbEntity
8
0
100
AcDbLine
62
2
6
CONTINUOUS
10
177.1134636618
20
170.3492022631
11
177.1134636618
21
225.8925426589
0
SOLID
5
23A
100
AcDbEntity
8
0
100
AcDbTrace
62
2
6
CONTINUOUS
10
176.6134636618
20
158.3492022631
11
177.1134636618
21
155.3492022631
12
177.6134636618
22
158.3492022631
13
177.6134636618
23
158.3492022631
0
SOLID
5
23B
100
AcDbEntity
8
0
100
AcDbTrace
62
2
6
CONTINUOUS
10
177.6134636618
20
182.3492022631
11
177.1134636618
21
185.3492022631
12
176.6134636618
22
182.3492022631
13
176.6134636618
23
182.3492022631
0
ENDBLK
5
23C
100
AcDbEntity
8
0
100
AcDbBlockEnd
0
BLOCK
5
23D
100
AcDbEntity
8
0
100
AcDbBlockBegin
62
2
6
CONTINUOUS
2
*D2
70
65
10
0.0000000000
20
0.0000000000
3
*D2
1

0
TEXT
5
23E
100
AcDbEntity
8
0
100
AcDbText
62
2
6
CONTINUOUS
10
77.3335327430
20
197.4156014034
7
TEXTSTYLE_0
40
3.6000000000
1
18
51
12.0000000000
72
5
11
82.0135327430
21
197.4156014034
100
AcDbText
0
LINE
5
23F
100
AcDbEntity
8
0
100
AcDbLine
62
2
6
CONTINUOUS
10
104.6425448804
20
183.8805759002
11
104.6425448804
21
198.4954948680
0
LINE
5
240
100
AcDbEntity
8
0
100
AcDbLine
62
2
6
CONTINUOUS
10
59.6425448804
20
170.3492022631
11
59.6425448804
21
178.2227529175
0
LINE
5
241
100
AcDbEntity
8
0
100
AcDbLine
62
2
6
CONTINUOUS
10
59.6425448804
20
181.9247231868
11
59.6425448804
21
198.4954948680
0
LINE
5
242
100
AcDbEntity
8
0
100
AcDbLine
62
2
6
CONTINUOUS
10
104.6425448804
20
196.4954948680
11
82.1425448804
21
196.4954948680
0
LINE
5
243
100
AcDbEntity
8
0
100
AcDbLine
62
2
6
CONTINUOUS
10
59.6425448804
20
196.4954948680
11
82.1425448804
21
196.4954948680
0
SOLID
5
244
100
AcDbEntity
8
0
100
AcDbTrace
62
2
6
CONTINUOUS
10
101.6425448804
20
195.9954948680
11
104.6425448804
21
196.4954948680
12
101.6425448804
22
196.9954948680
13
101.6425448804
23
196.9954948680
0
SOLID
5
245
100
AcDbEntity
8
0
100
AcDbTrace
62
2
6
CONTINUOUS
10
62.6425448804
20
196.9954948680
11
59.6425448804
21
196.4954948680
12
62.6425448804
22
195.9954948680
13
62.6425448804
23
195.9954948680
0
ENDBLK
5
246
100
AcDbEntity
8
0
100
AcDbBlockEnd
0
BLOCK
5
247
100
AcDbEntity
8
0
100
AcDbBlockBegin
62
2
6
CONTINUOUS
2
*D3
70
65
10
0.0000000000
20
0.0000000000
3
*D3
1

0
TEXT
5
248
100
AcDbEntity
8
0
100
AcDbText
62
2
6
CONTINUOUS
10
169.4022305373
20
161.6657180134
7
TEXTSTYLE_0
40
3.6000000000
1
%%c
50
90.0000000000
51
12.0000000000
72
5
11
169.4022305373
21
166.4657180134
100
AcDbText
0
TEXT
5
249
100
AcDbEntity
8
0
100
AcDbText
62
2
6
CONTINUOUS
10
169.4022305373
20
166.4657180134
7
TEXTSTYLE_0
40
3.6000000000
1
10,5
50
90.0000000000
51
12.0000000000
72
5
11
169.4022305373
21
175.8257180134
100
AcDbText
0
LINE
5
24A
100
AcDbEntity
8
0
100
AcDbLine
62
2
6
CONTINUOUS
10
159.6425448804
20
157.2242022631
11
172.3223370727
21
157.2242022631
0
LINE
5
24B
100
AcDbEntity
8
0
100
AcDbLine
62
2
6
CONTINUOUS
10
170.3223370727
20
157.2242022631
11
170.3223370727
21
168.3304067164
0
LINE
5
24C
100
AcDbEntity
8
0
100
AcDbLine
62
2
6
CONTINUOUS
10
170.3223370727
20
179.4366111697
11
170.3223370727
21
168.3304067164
0
SOLID
5
24D
100
AcDbEntity
8
0
100
AcDbTrace
62
2
6
CONTINUOUS
10
169.8223370727
20
160.2242022631
11
170.3223370727
21
157.2242022631
12
170.8223370727
22
160.2242022631
13
170.8223370727
23
160.2242022631
0
ENDBLK
5
24E
100
AcDbEntity
8
0
100
AcDbBlockEnd
0
BLOCK
5
24F
100
AcDbEntity
8
0
100
AcDbBlockBegin
62
2
6
CONTINUOUS
2
*D4
70
65
10
0.0000000000
20
0.0000000000
3
*D4
1

0
TEXT
5
250
100
AcDbEntity
8
0
100
AcDbText
62
2
6
CONTINUOUS
10
133.4964990268
20
146.8877861792
7
TEXTSTYLE_0
40
3.6000000000
1
20
51
12.0000000000
72
5
11
138.1764990268
21
146.8877861792
100
AcDbText
0
LINE
5
251
100
AcDbEntity
8
0
100
AcDbLine
62
2
6
CONTINUOUS
10
109.6425448804
20
157.7207234121
11
109.6425448804
21
143.9676796438
0
LINE
5
252
100
AcDbEntity
8
0
100
AcDbLine
62
2
6
CONTINUOUS
10
159.6425448804
20
156.7082568518
11
159.6425448804
21
143.9676796438
0
LINE
5
253
100
AcDbEntity
8
0
100
AcDbLine
62
2
6
CONTINUOUS
10
109.6425448804
20
145.9676796438
11
134.6425448804
21
145.9676796438
0
LINE
5
254
100
AcDbEntity
8
0
100
AcDbLine
62
2
6
CONTINUOUS
10
159.6425448804
20
145.9676796438
11
134.6425448804
21
145.9676796438
0
SOLID
5
255
100
AcDbEntity
8
0
100
AcDbTrace
62
2
6
CONTINUOUS
10
112.6425448804
20
146.4676796438
11
109.6425448804
21
145.9676796438
12
112.6425448804
22
145.4676796438
13
112.6425448804
23
145.4676796438
0
SOLID
5
256
100
AcDbEntity
8
0
100
AcDbTrace
62
2
6
CONTINUOUS
10
156.6425448804
20
145.4676796438
11
159.6425448804
21
145.9676796438
12
156.6425448804
22
146.4676796438
13
156.6425448804
23
146.4676796438
0
ENDBLK
5
257
100
AcDbEntity
8
0
100
AcDbBlockEnd
0
BLOCK
5
258
100
AcDbEntity
8
0
100
AcDbBlockBegin
62
2
6
CONTINUOUS
2
*D5
70
65
10
0.0000000000
20
0.0000000000
3
*D5
1

0
TEXT
5
259
100
AcDbEntity
8
0
100
AcDbText
62
2
6
CONTINUOUS
10
52.9873584903
20
188.1670143570
7
TEXTSTYLE_0
40
3.6000000000
1
R
50
-44.7696215117
51
12.0000000000
72
5
11
54.6486280052
21
186.5190508868
100
AcDbText
0
TEXT
5
25A
100
AcDbEntity
8
0
100
AcDbText
62
2
6
CONTINUOUS
10
54.6486280052
20
186.5190508868
7
TEXTSTYLE_0
40
3.6000000000
1
4
50
-44.7696215117
51
12.0000000000
72
5
11
56.3098975200
21
184.8710874166
100
AcDbText
0
LINE
5
25B
100
AcDbEntity
8
0
100
AcDbLine
62
2
6
CONTINUOUS
10
62.5431025093
20
177.3917811955
11
52.3393662002
21
187.5137900246
0
SOLID
5
25C
100
AcDbEntity
8
0
100
AcDbTrace
62
2
6
CONTINUOUS
10
60.0611408514
20
179.1495827566
11
62.5431025093
21
177.3917811955
12
60.7653987446
22
179.8595269937
13
60.7653987446
23
179.8595269937
0
ENDBLK
5
25D
100
AcDbEntity
8
0
100
AcDbBlockEnd
0
BLOCK
5
25E
100
AcDbEntity
8
0
100
AcDbBlockBegin
62
2
6
CONTINUOUS
2
*D6
70
65
10
0.0000000000
20
0.0000000000
3
*D6
1

0
TEXT
5
25F
100
AcDbEntity
8
0
100
AcDbText
62
2
6
CONTINUOUS
10
107.8596977552
20
205.7484005451
7
TEXTSTYLE_0
40
3.6000000000
1
40
51
12.0000000000
72
5
11
112.5396977552
21
205.7484005451
100
AcDbText
0
LINE
5
260
100
AcDbEntity
8
0
100
AcDbLine
62
2
6
CONTINUOUS
10
159.6425448804
20
184.0992022631
11
159.6425448804
21
206.8282940098
0
LINE
5
261
100
AcDbEntity
8
0
100
AcDbLine
62
2
6
CONTINUOUS
10
59.6425448804
20
170.3492022631
11
59.6425448804
21
206.8282940098
0
LINE
5
262
100
AcDbEntity
8
0
100
AcDbLine
62
2
6
CONTINUOUS
10
159.6425448804
20
204.8282940098
11
109.6425448804
21
204.8282940098
0
LINE
5
263
100
AcDbEntity
8
0
100
AcDbLine
62
2
6
CONTINUOUS
10
59.6425448804
20
204.8282940098
11
109.6425448804
21
204.8282940098
0
SOLID
5
264
100
AcDbEntity
8
0
100
AcDbTrace
62
2
6
CONTINUOUS
10
156.6425448804
20
204.3282940098
11
159.6425448804
21
204.8282940098
12
156.6425448804
22
205.3282940098
13
156.6425448804
23
205.3282940098
0
SOLID
5
265
100
AcDbEntity
8
0
100
AcDbTrace
62
2
6
CONTINUOUS
10
62.6425448804
20
205.3282940098
11
59.6425448804
21
204.8282940098
12
62.6425448804
22
204.3282940098
13
62.6425448804
23
204.3282940098
0
ENDBLK
5
266
100
AcDbEntity
8
0
100
AcDbBlockEnd
0
BLOCK
5
267
100
AcDbEntity
8
0
100
AcDbBlockBegin
62
2
6
CONTINUOUS
2
*D7
70
65
10
0.0000000000
20
0.0000000000
3
*D7
1

0
TEXT
5
268
100
AcDbEntity
8
0
100
AcDbText
62
2
6
CONTINUOUS
10
142.7211956877
20
197.4805938156
7
TEXTSTYLE_0
40
3.6000000000
1
x45%%d
51
12.0000000000
72
5
11
152.1411956877
21
197.4805938156
100
AcDbText
0
TEXT
5
269
100
AcDbEntity
8
0
100
AcDbText
62
2
6
CONTINUOUS
10
132.2211956877
20
191.0398480680
7
TEXTSTYLE_0
40
3.6000000000
1
2 chamfers
51
12.0000000000
72
5
11
155.6211956877
21
191.0398480680
100
AcDbText
0
TEXT
5
26A
100
AcDbEntity
8
0
100
AcDbText
62
2
6
CONTINUOUS
10
135.7011956877
20
197.4805938156
7
TEXTSTYLE_0
40
3.6000000000
1
0,5
51
12.0000000000
72
5
11
142.7211956877
21
197.4805938156
100
AcDbText
0
LINE
5
26B
100
AcDbEntity
8
0
100
AcDbLine
62
2
6
CONTINUOUS
10
158.3925448804
20
185.3492022631
11
158.3925448804
21
198.5604872802
0
LINE
5
26C
100
AcDbEntity
8
0
100
AcDbLine
62
2
6
CONTINUOUS
10
159.6425448804
20
184.0992022631
11
159.6425448804
21
198.5604872802
0
LINE
5
26D
100
AcDbEntity
8
0
100
AcDbLine
62
2
6
CONTINUOUS
10
158.3925448804
20
196.5604872802
11
132.2211956877
21
196.5604872802
0
LINE
5
26E
100
AcDbEntity
8
0
100
AcDbLine
62
2
6
CONTINUOUS
10
132.2211956877
20
196.5604872802
11
159.0175448804
21
196.5604872802
0
LINE
5
26F
100
AcDbEntity
8
0
100
AcDbLine
62
2
6
CONTINUOUS
10
159.6425448804
20
196.5604872802
11
162.6425448804
21
196.5604872802
0
LINE
5
270
100
AcDbEntity
8
0
100
AcDbLine
62
2
6
CONTINUOUS
10
162.6425448804
20
196.5604872802
11
159.0175448804
21
196.5604872802
0
SOLID
5
271
100
AcDbEntity
8
0
100
AcDbTrace
62
2
6
CONTINUOUS
10
155.3925448804
20
196.0604872802
11
158.3925448804
21
196.5604872802
12
155.3925448804
22
197.0604872802
13
155.3925448804
23
197.0604872802
0
SOLID
5
272
100
AcDbEntity
8
0
100
AcDbTrace
62
2
6
CONTINUOUS
10
162.6425448804
20
197.0604872802
11
159.6425448804
21
196.5604872802
12
162.6425448804
22
196.0604872802
13
162.6425448804
23
196.0604872802
0
ENDBLK
5
273
100
AcDbEntity
8
0
100
AcDbBlockEnd
0
BLOCK
5
274
100
AcDbEntity
8
0
100
AcDbBlockBegin
62
2
6
CONTINUOUS
2
UGOL_BL0
70
64
10
0.0000000000
20
0.0000000000
3
UGOL_BL0
1

0
TEXT
5
275
100
AcDbEntity
8
0
100
AcDbText
62
2
6
CONTINUOUS
10
191.9119550542
20
275.0389834225
7
TEXTSTYLE_0
40
3.5000000000
1
 
72
5
11
194.1869550542
21
275.0389834225
100
AcDbText
0
TEXT
5
276
100
AcDbEntity
8
0
100
AcDbText
62
2
6
CONTINUOUS
10
172.6413843931
20
278.2860095616
7
TEXTSTYLE_0
40
6.1600000000
1
Rz40
51
15.0000000000
72
5
11
188.6573843931
21
278.2860095616
100
AcDbText
0
TEXT
5
277
100
AcDbEntity
8
0
100
AcDbText
62
2
6
CONTINUOUS
10
188.6566123836
20
268.5620116448
7
TEXTSTYLE_0
40
5.0000000000
1
( )
72
5
11
198.4066123836
21
268.5620116448
100
AcDbText
0
LINE
5
278
100
AcDbEntity
8
0
100
AcDbLine
62
2
6
CONTINUOUS
39
0.5681818182
10
190.6656872036
20
273.7361058323
11
193.6851367354
21
268.5062658323
0
LINE
5
279
100
AcDbEntity
8
0
100
AcDbLine
62
2
6
CONTINUOUS
39
0.5681818182
10
193.6851367354
20
268.5062658323
11
196.7045862672
21
273.7361058323
0
LINE
5
27A
100
AcDbEntity
8
0
100
AcDbLine
62
2
6
CONTINUOUS
39
0.5681818182
10
196.7045862672
20
273.7361058323
11
199.7347052320
21
278.9844258323
0
LINE
5
27B
100
AcDbEntity
8
0
100
AcDbLine
62
2
6
CONTINUOUS
39
0.5681818182
10
179.9649321141
20
276.7273640046
11
184.6148843931
21
268.6734104046
0
LINE
5
27C
100
AcDbEntity
8
0
100
AcDbLine
62
2
6
CONTINUOUS
39
0.5681818182
10
184.6148843931
20
268.6734104046
11
189.2648366721
21
276.7273640046
0
LINE
5
27D
100
AcDbEntity
8
0
100
AcDbLine
62
2
6
CONTINUOUS
39
0.5681818182
10
189.2648366721
20
276.7273640046
11
193.9312198778
21
284.8097768046
0
ENDBLK
5
27E
100
AcDbEntity
8
0
100
AcDbBlockEnd
0
BLOCK
5
27F
100
AcDbEntity
8
0
100
AcDbBlockBegin
62
2
6
CONTINUOUS
2
STANDARD_BL1
70
64
10
0.0000000000
20
0.0000000000
3
STANDARD_BL1
1

0
TEXT
5
280
100
AcDbEntity
8
0
100
AcDbText
62
2
6
CONTINUOUS
10
118.1826126754
20
190.9669550171
7
TEXTSTYLE_0
40
3.6000000000
1
1,6
51
15.0000000000
72
5
11
125.2026126754
21
190.9669550171
100
AcDbText
0
LINE
5
281
100
AcDbEntity
8
0
100
AcDbLine
62
2
6
CONTINUOUS
39
0.5681818182
10
120.1226080968
20
190.0560582631
11
122.8401126754
21
185.3492022631
0
LINE
5
282
100
AcDbEntity
8
0
100
AcDbLine
62
2
6
CONTINUOUS
39
0.5681818182
10
122.8401126754
20
185.3492022631
11
125.5576172540
21
190.0560582631
0
LINE
5
283
100
AcDbEntity
8
0
100
AcDbLine
62
2
6
CONTINUOUS
39
0.5681818182
10
125.5576172540
20
190.0560582631
11
128.2847243223
21
194.7795462631
0
ENDBLK
5
284
100
AcDbEntity
8
0
100
AcDbBlockEnd
0
BLOCK
5
285
100
AcDbEntity
8
0
100
AcDbBlockBegin
62
2
6
CONTINUOUS
2
STANDARD_BL2
70
64
10
0.0000000000
20
0.0000000000
3
STANDARD_BL2
1

0
TEXT
5
286
100
AcDbEntity
8
0
100
AcDbText
62
2
6
CONTINUOUS
10
61.3594284539
20
184.3847460573
7
TEXTSTYLE_0
40
3.6000000000
1
0.8
50
13.9415569710
51
15.0000000000
72
5
11
68.1726332057
21
186.0760890181
100
AcDbText
0
LINE
5
287
100
AcDbEntity
8
0
100
AcDbLine
62
2
6
CONTINUOUS
39
0.5681818182
10
63.4617396841
20
183.9680895768
11
67.2332244236
21
180.0546221373
0
LINE
5
288
100
AcDbEntity
8
0
100
AcDbLine
62
2
6
CONTINUOUS
39
0.5681818182
10
67.2332244236
20
180.0546221373
11
68.7366442733
21
185.2775574514
0
LINE
5
289
100
AcDbEntity
8
0
100
AcDbLine
62
2
6
CONTINUOUS
39
0.5681818182
10
68.7366442733
20
185.2775574514
11
70.2453765607
21
190.5189483673
0
ENDBLK
5
28A
100
AcDbEntity
8
0
100
AcDbBlockEnd
0
ENDSEC
0
SECTION
2
ENTITIES
0
DIMENSION
5
28B
100
AcDbEntity
8
0
100
AcDbDimension
62
2
6
CONTINUOUS
2
*D0
10
51.3984789059
20
180.3492022631
11
48.6783723705
21
170.3446437308
3
DIMSTYLE_1
100
AcDbAlignedDimension
13
69.6425448804
23
160.3492022631
14
69.6425448804
24
180.3492022631
50
90.000000
100
AcDbRotatedDimension
0
DIMENSION
5
28C
100
AcDbEntity
8
0
100
AcDbDimension
62
2
6
CONTINUOUS
2
*D1
10
177.1134636618
20
185.3492022631
11
173.4571653627
21
209.1407210653
3
DIMSTYLE_2
100
AcDbAlignedDimension
13
158.1881214789
23
155.3492022631
14
158.1881214789
24
185.3492022631
50
90.000000
100
AcDbRotatedDimension
0
DIMENSION
5
28D
100
AcDbEntity
8
0
100
AcDbDimension
62
2
6
CONTINUOUS
2
*D2
10
59.6425448804
20
196.4954948680
11
79.6735327430
21
199.2156014034
3
DIMSTYLE_1
100
AcDbAlignedDimension
13
104.6425448804
23
183.8805759002
14
59.6425448804
24
170.3492022631
50
180.000000
100
AcDbRotatedDimension
0
DIMENSION
5
28E
100
AcDbEntity
8
0
100
AcDbDimension
62
2
6
CONTINUOUS
2
*D3
10
170.3223370727
20
179.4366111697
11
167.6022305373
21
168.7457180134
3
DIMSTYLE_1
100
AcDbAlignedDimension
13
159.6425448804
23
157.2242022631
14
169.3223370727
24
179.4366111697
50
90.000000
100
AcDbRotatedDimension
0
DIMENSION
5
28F
100
AcDbEntity
8
0
100
AcDbDimension
62
2
6
CONTINUOUS
2
*D4
10
159.6425448804
20
145.9676796438
11
135.8364990268
21
148.6877861792
3
DIMSTYLE_1
100
AcDbAlignedDimension
13
109.6425448804
23
157.7207234121
14
159.6425448804
24
156.7082568518
100
AcDbRotatedDimension
0
DIMENSION
5
290
100
AcDbEntity
8
0
100
AcDbDimension
62
2
6
CONTINUOUS
2
*D5
10
69.6425448804
20
170.3492022631
11
55.9162922130
21
187.7969505136
70
4
3
DIMSTYLE_3
100
AcDbRadialDimension
15
62.5431025093
25
177.3917811955
0
DIMENSION
5
291
100
AcDbEntity
8
0
100
AcDbDimension
62
2
6
CONTINUOUS
2
*D6
10
59.6425448804
20
204.8282940098
11
110.1996977552
21
207.5484005451
3
DIMSTYLE_4
100
AcDbAlignedDimension
13
159.6425448804
23
184.0992022631
14
59.6425448804
24
170.3492022631
50
180.000000
100
AcDbRotatedDimension
0
DIMENSION
5
292
100
AcDbEntity
8
0
100
AcDbDimension
62
2
6
CONTINUOUS
2
*D7
10
159.6425448804
20
196.5604872802
11
143.9211956877
21
196.0602209418
3
DIMSTYLE_3
100
AcDbAlignedDimension
13
158.3925448804
23
185.3492022631
14
159.6425448804
24
184.0992022631
100
AcDbRotatedDimension
0
LINE
5
293
100
AcDbEntity
8
0
100
AcDbLine
62
7
6
CONTINUOUS
10
90.0000000000
20
278.3498994289
11
20.0000000000
21
278.3498994289
0
LINE
5
294
100
AcDbEntity
8
0
100
AcDbLine
62
7
6
CONTINUOUS
10
90.0000000000
20
278.3498994289
11
90.0000000000
21
292.3498994289
0
LINE
5
295
100
AcDbEntity
8
0
100
AcDbLine
62
7
6
CONTINUOUS
10
90.0000000000
20
292.3498994289
11
20.0000000000
21
292.3498994289
0
LINE
5
296
100
AcDbEntity
8
0
100
AcDbLine
62
7
6
CONTINUOUS
10
20.0000000000
20
278.3498994289
11
20.0000000000
21
292.3498994289
0
TEXT
5
297
100
AcDbEntity
8
0
100
AcDbText
62
2
6
CONTINUOUS
10
79.5000000000
20
288.9280915109
7
TEXTSTYLE_0
40
7.0000000000
1
IPCS.05.210.04
50
180.0000000000
51
12.0000000000
72
5
11
30.5000000000
21
288.9280915109
100
AcDbText
0
LINE
5
298
100
AcDbEntity
8
0
100
AcDbLine
62
7
6
CONTINUOUS
10
205.0000000000
20
5.0000000000
11
20.0000000000
21
5.0000000000
0
LINE
5
299
100
AcDbEntity
8
0
100
AcDbLine
62
7
6
CONTINUOUS
10
205.0000000000
20
5.0000000000
11
205.0000000000
21
60.0000000000
0
LINE
5
29A
100
AcDbEntity
8
0
100
AcDbLine
62
7
6
CONTINUOUS
10
85.0000000000
20
10.0000000000
11
20.0000000000
21
10.0000000000
0
LINE
5
29B
100
AcDbEntity
8
0
100
AcDbLine
62
7
6
CONTINUOUS
10
155.0000000000
20
12.5000000000
11
105.0000000000
21
12.5000000000
0
LINE
5
29C
100
AcDbEntity
8
0
100
AcDbLine
62
7
6
CONTINUOUS
10
85.0000000000
20
15.0000000000
11
20.0000000000
21
15.0000000000
0
LINE
5
29D
100
AcDbEntity
8
0
100
AcDbLine
62
7
6
CONTINUOUS
10
205.0000000000
20
20.0000000000
11
20.0000000000
21
20.0000000000
0
LINE
5
29E
100
AcDbEntity
8
0
100
AcDbLine
62
7
6
CONTINUOUS
10
205.0000000000
20
25.0000000000
11
155.0000000000
21
25.0000000000
0
LINE
5
29F
100
AcDbEntity
8
0
100
AcDbLine
62
7
6
CONTINUOUS
10
85.0000000000
20
25.0000000000
11
20.0000000000
21
25.0000000000
0
LINE
5
2A0
100
AcDbEntity
8
0
100
AcDbLine
62
7
6
CONTINUOUS
10
85.0000000000
20
30.0000000000
11
20.0000000000
21
30.0000000000
0
LINE
5
2A1
100
AcDbEntity
8
0
100
AcDbLine
62
7
6
CONTINUOUS
10
85.0000000000
20
35.0000000000
11
20.0000000000
21
35.0000000000
0
LINE
5
2A2
100
AcDbEntity
8
0
100
AcDbLine
62
7
6
CONTINUOUS
10
205.0000000000
20
40.0000000000
11
155.0000000000
21
40.0000000000
0
LINE
5
2A3
100
AcDbEntity
8
0
100
AcDbLine
62
7
6
CONTINUOUS
10
85.0000000000
20
40.0000000000
11
20.0000000000
21
40.0000000000
0
LINE
5
2A4
100
AcDbEntity
8
0
100
AcDbLine
62
7
6
CONTINUOUS
10
205.0000000000
20
45.0000000000
11
20.0000000000
21
45.0000000000
0
LINE
5
2A5
100
AcDbEntity
8
0
100
AcDbLine
62
7
6
CONTINUOUS
10
85.0000000000
20
50.0000000000
11
20.0000000000
21
50.0000000000
0
LINE
5
2A6
100
AcDbEntity
8
0
100
AcDbLine
62
7
6
CONTINUOUS
10
85.0000000000
20
55.0000000000
11
20.0000000000
21
55.0000000000
0
LINE
5
2A7
100
AcDbEntity
8
0
100
AcDbLine
62
7
6
CONTINUOUS
10
205.0000000000
20
60.0000000000
11
20.0000000000
21
60.0000000000
0
LINE
5
2A8
100
AcDbEntity
8
0
100
AcDbLine
62
7
6
CONTINUOUS
10
187.0000000000
20
25.0000000000
11
187.0000000000
21
45.0000000000
0
LINE
5
2A9
100
AcDbEntity
8
0
100
AcDbLine
62
7
6
CONTINUOUS
10
175.0000000000
20
20.0000000000
11
175.0000000000
21
25.0000000000
0
LINE
5
2AA
100
AcDbEntity
8
0
100
AcDbLine
62
7
6
CONTINUOUS
10
170.0000000000
20
25.0000000000
11
170.0000000000
21
45.0000000000
0
LINE
5
2AB
100
AcDbEntity
8
0
100
AcDbLine
62
7
6
CONTINUOUS
10
165.0000000000
20
25.0000000000
11
165.0000000000
21
40.0000000000
0
LINE
5
2AC
100
AcDbEntity
8
0
100
AcDbLine
62
7
6
CONTINUOUS
10
160.0000000000
20
25.0000000000
11
160.0000000000
21
40.0000000000
0
LINE
5
2AD
100
AcDbEntity
8
0
100
AcDbLine
62
7
6
CONTINUOUS
10
155.0000000000
20
5.0000000000
11
155.0000000000
21
45.0000000000
0
LINE
5
2AE
100
AcDbEntity
8
0
100
AcDbLine
62
7
6
CONTINUOUS
10
85.0000000000
20
5.0000000000
11
85.0000000000
21
60.0000000000
0
LINE
5
2AF
100
AcDbEntity
8
0
100
AcDbLine
62
7
6
CONTINUOUS
10
75.0000000000
20
5.0000000000
11
75.0000000000
21
60.0000000000
0
LINE
5
2B0
100
AcDbEntity
8
0
100
AcDbLine
62
7
6
CONTINUOUS
10
60.0000000000
20
5.0000000000
11
60.0000000000
21
60.0000000000
0
LINE
5
2B1
100
AcDbEntity
8
0
100
AcDbLine
62
7
6
CONTINUOUS
10
37.0000000000
20
5.0000000000
11
37.0000000000
21
60.0000000000
0
LINE
5
2B2
100
AcDbEntity
8
0
100
AcDbLine
62
7
6
CONTINUOUS
10
27.0000000000
20
35.0000000000
11
27.0000000000
21
60.0000000000
0
LINE
5
2B3
100
AcDbEntity
8
0
100
AcDbLine
62
7
6
CONTINUOUS
10
20.0000000000
20
5.0000000000
11
20.0000000000
21
60.0000000000
0
TEXT
5
2B4
100
AcDbEntity
8
0
100
AcDbText
62
2
6
CONTINUOUS
10
172.3000000000
20
8.9218079180
7
TEXTSTYLE_0
40
7.0000000000
1
PNPI
51
12.0000000000
72
5
11
187.7000000000
21
8.9218079180
100
AcDbText
0
TEXT
5
2B5
100
AcDbEntity
8
0
100
AcDbText
62
2
6
CONTINUOUS
10
109.3000000000
20
6.3986166318
7
TEXTSTYLE_0
40
4.6000000000
1
45 GOST 1050-88
51
12.0000000000
72
5
11
150.7000000000
21
6.3986166318
100
AcDbText
0
TEXT
5
2B6
100
AcDbEntity
8
0
100
AcDbText
62
2
6
CONTINUOUS
10
86.7200000000
20
10.1486166318
7
TEXTSTYLE_0
40
4.6000000000
1
Rounds
51
12.0000000000
72
5
11
103.2800000000
21
10.1486166318
100
AcDbText
0
TEXT
5
2B7
100
AcDbEntity
8
0
100
AcDbText
62
2
6
CONTINUOUS
10
42.3400000000
20
5.8642550482
7
TEXTSTYLE_0
40
3.2000000000
1
Trounov
51
12.0000000000
72
5
11
54.6600000000
21
5.8642550482
100
AcDbText
0
TEXT
5
2B8
100
AcDbEntity
8
0
100
AcDbText
62
2
6
CONTINUOUS
10
21.0760000000
20
5.8642550482
7
TEXTSTYLE_0
40
3.2000000000
1
Approved
51
12.0000000000
72
5
11
35.9240000000
21
5.8642550482
100
AcDbText
0
TEXT
5
2B9
100
AcDbEntity
8
0
100
AcDbText
62
2
6
CONTINUOUS
10
109.3000000000
20
13.8986166318
7
TEXTSTYLE_0
40
4.6000000000
1
15 GOST 2590-88
51
12.0000000000
72
5
11
150.7000000000
21
13.8986166318
100
AcDbText
0
TEXT
5
2BA
100
AcDbEntity
8
0
100
AcDbText
62
2
6
CONTINUOUS
10
181.9600000000
20
20.7875795036
7
TEXTSTYLE_0
40
3.3500000000
1
Sheets 1
51
12.0000000000
72
5
11
198.0400000000
21
20.7875795036
100
AcDbText
0
TEXT
5
2BB
100
AcDbEntity
8
0
100
AcDbText
62
2
6
CONTINUOUS
10
159.9750000000
20
20.7875795036
7
TEXTSTYLE_0
40
3.3500000000
1
Sheet
51
12.0000000000
72
5
11
170.0250000000
21
20.7875795036
100
AcDbText
0
TEXT
5
2BC
100
AcDbEntity
8
0
100
AcDbText
62
2
6
CONTINUOUS
10
114.6000000000
20
29.4329782154
7
TEXTSTYLE_0
40
6.0000000000
1
Pin
51
12.0000000000
72
5
11
125.4000000000
21
29.4329782154
100
AcDbText
0
TEXT
5
2BD
100
AcDbEntity
8
0
100
AcDbText
62
2
6
CONTINUOUS
10
189.7000000000
20
28.9218079180
7
TEXTSTYLE_0
40
7.0000000000
1
5:2
51
12.0000000000
72
5
11
202.3000000000
21
28.9218079180
100
AcDbText
0
TEXT
5
2BE
100
AcDbEntity
8
0
100
AcDbText
62
2
6
CONTINUOUS
10
172.2500000000
20
29.9441485128
7
TEXTSTYLE_0
40
5.0000000000
1
0,012
51
12.0000000000
72
5
11
184.7500000000
21
29.9441485128
100
AcDbText
0
TEXT
5
2BF
100
AcDbEntity
8
0
100
AcDbText
62
2
6
CONTINUOUS
10
42.3400000000
20
25.8642550482
7
TEXTSTYLE_0
40
3.2000000000
1
Boulkin
51
12.0000000000
72
5
11
54.6600000000
21
25.8642550482
100
AcDbText
0
TEXT
5
2C0
100
AcDbEntity
8
0
100
AcDbText
62
2
6
CONTINUOUS
10
22.0040000000
20
25.8642550482
7
TEXTSTYLE_0
40
3.2000000000
1
Checked
51
12.0000000000
72
5
11
34.9960000000
21
25.8642550482
100
AcDbText
0
TEXT
5
2C1
100
AcDbEntity
8
0
100
AcDbText
62
2
6
CONTINUOUS
10
75.9050000000
20
31.1709572267
7
TEXTSTYLE_0
40
2.6000000000
1
16.7.03
51
12.0000000000
72
5
11
84.0950000000
21
31.1709572267
100
AcDbText
0
TEXT
5
2C2
100
AcDbEntity
8
0
100
AcDbText
62
2
6
CONTINUOUS
10
39.7000000000
20
30.8642550482
7
TEXTSTYLE_0
40
3.2000000000
1
Schebetova
51
12.0000000000
72
5
11
57.3000000000
21
30.8642550482
100
AcDbText
0
TEXT
5
2C3
100
AcDbEntity
8
0
100
AcDbText
62
2
6
CONTINUOUS
10
21.0760000000
20
30.8642550482
7
TEXTSTYLE_0
40
3.2000000000
1
Designed
51
12.0000000000
72
5
11
35.9240000000
21
30.8642550482
100
AcDbText
0
TEXT
5
2C4
100
AcDbEntity
8
0
100
AcDbText
62
2
6
CONTINUOUS
10
76.2880000000
20
35.8642550482
7
TEXTSTYLE_0
40
3.2000000000
1
Date
51
12.0000000000
72
5
11
83.7120000000
21
35.8642550482
100
AcDbText
0
TEXT
5
2C5
100
AcDbEntity
8
0
100
AcDbText
62
2
6
CONTINUOUS
10
60.7162500000
20
35.7875795036
7
TEXTSTYLE_0
40
3.3500000000
1
Signature
51
12.0000000000
72
5
11
74.2837500000
21
35.7875795036
100
AcDbText
0
TEXT
5
2C6
100
AcDbEntity
8
0
100
AcDbText
62
2
6
CONTINUOUS
10
38.2920000000
20
35.8642550482
7
TEXTSTYLE_0
40
3.2000000000
1
N document.
51
12.0000000000
72
5
11
58.7080000000
21
35.8642550482
100
AcDbText
0
TEXT
5
2C7
100
AcDbEntity
8
0
100
AcDbText
62
2
6
CONTINUOUS
10
27.3600000000
20
35.8642550482
7
TEXTSTYLE_0
40
3.2000000000
1
Sheet
51
12.0000000000
72
5
11
36.6400000000
21
35.8642550482
100
AcDbText
0
TEXT
5
2C8
100
AcDbEntity
8
0
100
AcDbText
62
2
6
CONTINUOUS
10
20.7160000000
20
35.8642550482
7
TEXTSTYLE_0
40
3.2000000000
1
Chg
51
12.0000000000
72
5
11
26.2840000000
21
35.8642550482
100
AcDbText
0
TEXT
5
2C9
100
AcDbEntity
8
0
100
AcDbText
62
2
6
CONTINUOUS
10
190.9750000000
20
40.7875795036
7
TEXTSTYLE_0
40
3.3500000000
1
Scale
51
12.0000000000
72
5
11
201.0250000000
21
40.7875795036
100
AcDbText
0
TEXT
5
2CA
100
AcDbEntity
8
0
100
AcDbText
62
2
6
CONTINUOUS
10
174.4800000000
20
40.7875795036
7
TEXTSTYLE_0
40
3.3500000000
1
Mass
51
12.0000000000
72
5
11
182.5200000000
21
40.7875795036
100
AcDbText
0
TEXT
5
2CB
100
AcDbEntity
8
0
100
AcDbText
62
2
6
CONTINUOUS
10
158.4800000000
20
40.7875795036
7
TEXTSTYLE_0
40
3.3500000000
1
Type
51
12.0000000000
72
5
11
166.5200000000
21
40.7875795036
100
AcDbText
0
TEXT
5
2CC
100
AcDbEntity
8
0
100
AcDbText
62
2
6
CONTINUOUS
10
111.4000000000
20
48.4106376205
7
TEXTSTYLE_0
40
8.0000000000
1
IPCS.05.210.04
51
12.0000000000
72
5
11
178.6000000000
21
48.4106376205
100
AcDbText
0
TEXT
5
2CD
100
AcDbEntity
8
0
100
AcDbText
62
2
6
CONTINUOUS
10
23.0260067114
20
80.3829412917
7
TEXTSTYLE_0
40
3.6000000000
1
1. H14, h14, %%pIT14/2 
51
12.0000000000
72
5
11
74.0260067114
21
80.3829412917
100
AcDbText
0
TEXT
5
2CE
100
AcDbEntity
8
0
100
AcDbText
62
2
6
CONTINUOUS
10
23.0260067114
20
74.8623020794
7
TEXTSTYLE_0
40
3.6000000000
1
2. Nonindicated tolerances of shape and location of surfaces
51
12.0000000000
72
5
11
163.4260067114
21
74.8623020794
100
AcDbText
0
TEXT
5
2CF
100
AcDbEntity
8
0
100
AcDbText
62
2
6
CONTINUOUS
10
23.0260067114
20
69.3416628671
7
TEXTSTYLE_0
40
3.6000000000
1
   in accordance with OST 1.00022-80.
51
12.0000000000
72
5
11
109.6060067114
21
69.3416628671
100
AcDbText
0
TEXT
5
2D0
100
AcDbEntity
8
0
100
AcDbText
62
2
6
CONTINUOUS
10
23.0260067114
20
63.8210236548
7
TEXTSTYLE_0
40
3.6000000000
1
3. Coating: Kd9.
51
12.0000000000
72
5
11
60.4660067114
21
63.8210236548
100
AcDbText
0
SOLID
5
2D1
100
AcDbEntity
8
0
100
AcDbTrace
62
2
6
CONTINUOUS
10
109.6425448804
20
157.2242022631
11
111.3495819332
21
159.7413483654
12
112.0736813690
22
159.0516527751
13
112.0736813690
23
159.0516527751
0
TEXT
5
2D2
100
AcDbEntity
8
0
100
AcDbText
62
2
6
CONTINUOUS
10
115.1885121287
20
163.2577244747
7
TEXTSTYLE_0
40
3.6000000000
1
R 0,1 max
51
12.0000000000
72
5
11
136.2485121287
21
163.2577244747
100
AcDbText
0
INSERT
5
2D3
100
AcDbEntity
8
0
100
AcDbBlockReference
62
2
6
CONTINUOUS
2
UGOL_BL0
10
0.0000000000
20
0.0000000000
0
INSERT
5
2D4
100
AcDbEntity
8
0
100
AcDbBlockReference
62
2
6
CONTINUOUS
2
STANDARD_BL1
10
0.0000000000
20
0.0000000000
0
INSERT
5
2D5
100
AcDbEntity
8
0
100
AcDbBlockReference
62
2
6
CONTINUOUS
2
STANDARD_BL2
10
0.0000000000
20
0.0000000000
0
LINE
5
2D6
100
AcDbEntity
8
0
100
AcDbLine
62
7
6
CONTINUOUS
10
-0.0000000000
20
0.0000000000
11
210.0000000000
21
0.0000000000
0
LINE
5
2D7
100
AcDbEntity
8
0
100
AcDbLine
62
7
6
CONTINUOUS
10
205.0000000000
20
5.0000000000
11
20.0000000000
21
5.0000000000
0
LINE
5
2D8
100
AcDbEntity
8
0
100
AcDbLine
62
7
6
CONTINUOUS
10
-0.0000000000
20
297.0000000000
11
-0.0000000000
21
0.0000000000
0
LINE
5
2D9
100
AcDbEntity
8
0
100
AcDbLine
62
7
6
CONTINUOUS
10
20.0000000000
20
5.0000000000
11
20.0000000000
21
292.3498994289
0
LINE
5
2DA
100
AcDbEntity
8
0
100
AcDbLine
62
7
6
CONTINUOUS
10
205.0000000000
20
5.0000000000
11
205.0000000000
21
292.3498994289
0
LINE
5
2DB
100
AcDbEntity
8
0
100
AcDbLine
62
7
6
CONTINUOUS
10
210.0000000000
20
297.0000000000
11
210.0000000000
21
0.0000000000
0
LINE
5
2DC
100
AcDbEntity
8
0
100
AcDbLine
62
7
6
CONTINUOUS
10
205.0000000000
20
292.3498994289
11
20.0000000000
21
292.3498994289
0
LINE
5
2DD
100
AcDbEntity
8
0
100
AcDbLine
62
7
6
CONTINUOUS
10
-0.0000000000
20
297.0000000000
11
210.0000000000
21
297.0000000000
0
LINE
5
2DE
100
AcDbEntity
8
0
100
AcDbLine
62
9
6
CONTINUOUS
10
69.6425410156
20
180.3492109375
11
69.6425410156
21
170.3492022581
0
LINE
5
2DF
100
AcDbEntity
8
0
100
AcDbLine
62
2
6
CONTINUOUS
10
61.2829351302
20
170.3492022581
11
59.7656306698
21
168.8318977830
0
LINE
5
2E0
100
AcDbEntity
8
0
100
AcDbLine
62
2
6
CONTINUOUS
10
64.9031778449
20
170.3492022581
11
60.6130031942
21
166.0590277192
0
LINE
5
2E1
100
AcDbEntity
8
0
100
AcDbLine
62
2
6
CONTINUOUS
10
68.5234199861
20
170.3492022581
11
62.0363598018
21
163.8621420738
0
LINE
5
2E2
100
AcDbEntity
8
0
100
AcDbLine
62
2
6
CONTINUOUS
10
72.1436630586
20
170.3492022581
11
63.9346407800
21
162.1401799795
0
LINE
5
2E3
100
AcDbEntity
8
0
100
AcDbLine
62
2
6
CONTINUOUS
10
75.7639055176
20
170.3492022581
11
66.3323300033
21
160.9176273224
0
LINE
5
2E4
100
AcDbEntity
8
0
100
AcDbLine
62
2
6
CONTINUOUS
10
79.3841474158
20
170.3492022581
11
69.3950556665
21
160.3601099130
0
LINE
5
2E5
100
AcDbEntity
8
0
100
AcDbLine
62
2
6
CONTINUOUS
10
83.0043898919
20
170.3492022581
11
73.0043898969
21
160.3492022631
0
LINE
5
2E6
100
AcDbEntity
8
0
100
AcDbLine
62
2
6
CONTINUOUS
10
86.6246329644
20
170.3492022581
11
76.6246329694
21
160.3492022631
0
LINE
5
2E7
100
AcDbEntity
8
0
100
AcDbLine
62
2
6
CONTINUOUS
10
90.2448760369
20
170.3492022581
11
80.2448760419
21
160.3492022631
0
LINE
5
2E8
100
AcDbEntity
8
0
100
AcDbLine
62
7
6
CONTINUOUS
10
105.8925448804
20
155.3492022631
11
158.3925448804
21
155.3492022631
0
LINE
5
2E9
100
AcDbEntity
8
0
100
AcDbLine
62
7
6
CONTINUOUS
10
105.8925468750
20
185.3492050781
11
104.6425429688
21
184.0992011719
0
LINE
5
2EA
100
AcDbEntity
8
0
100
AcDbLine
62
2
6
CONTINUOUS
10
93.8651179173
20
170.3492022581
11
83.8651167302
21
160.3492022631
0
LINE
5
2EB
100
AcDbEntity
8
0
100
AcDbLine
62
7
6
CONTINUOUS
10
109.6425448804
20
157.2242022631
11
159.6425448804
21
157.2242022631
0
LINE
5
2EC
100
AcDbEntity
8
0
100
AcDbLine
62
7
6
CONTINUOUS
10
69.6425448804
20
160.3492022631
11
104.6425448804
21
160.3492022631
0
LINE
5
2ED
100
AcDbEntity
8
0
100
AcDbLine
62
7
6
CONTINUOUS
10
104.6425448804
20
156.5992022631
11
105.8925448804
21
155.3492022631
0
LINE
5
2EE
100
AcDbEntity
8
0
100
AcDbLine
62
2
6
CONTINUOUS
10
97.4853597978
20
170.3492022581
11
87.4853598028
21
160.3492022631
0
LINE
5
2EF
100
AcDbEntity
8
0
100
AcDbLine
62
2
6
CONTINUOUS
10
114.5130088924
20
162.3376179393
11
136.2485121287
21
162.3376179393
0
LINE
5
2F0
100
AcDbEntity
8
0
100
AcDbLine
62
7
6
CONTINUOUS
10
104.6425429688
20
184.0992011719
11
104.6425429688
21
170.3492022581
0
LINE
5
2F1
100
AcDbEntity
8
0
100
AcDbLine
62
7
6
CONTINUOUS
10
104.6425448804
20
160.3492022631
11
104.6425448804
21
156.5992022631
0
LINE
5
2F2
100
AcDbEntity
8
0
100
AcDbLine
62
7
6
CONTINUOUS
10
105.8925468750
20
185.3492050781
11
105.8925468750
21
170.3492022581
0
LINE
5
2F3
100
AcDbEntity
8
0
100
AcDbLine
62
2
6
CONTINUOUS
10
101.1056028703
20
170.3492022581
11
91.1056028753
21
160.3492022631
0
LINE
5
2F4
100
AcDbEntity
8
0
100
AcDbLine
62
2
6
CONTINUOUS
10
104.7258455432
20
170.3492022581
11
94.7258459478
21
160.3492022631
0
LINE
5
2F5
100
AcDbEntity
8
0
100
AcDbLine
62
7
6
CONTINUOUS
10
109.6425448804
20
170.3492022581
11
109.6425448804
21
157.2242022631
0
LINE
5
2F6
100
AcDbEntity
8
0
100
AcDbLine
62
2
6
CONTINUOUS
10
108.3460875545
20
170.3492022581
11
98.3460866361
21
160.3492022631
0
LINE
5
2F7
100
AcDbEntity
8
0
100
AcDbLine
62
7
6
CONTINUOUS
10
59.6425448809
20
170.3492022581
11
159.6425429688
21
170.3492022581
0
LINE
5
2F8
100
AcDbEntity
8
DEFAULT_1
100
AcDbLine
62
2
6
CENTER
10
57.6425448804
20
170.3492022631
11
59.6425448809
21
170.3492022581
0
LINE
5
2F9
100
AcDbEntity
8
DEFAULT_1
100
AcDbLine
62
2
6
CENTER
10
159.6425429688
20
170.3492022581
11
161.6425448804
21
170.3492022631
0
LINE
5
2FA
100
AcDbEntity
8
0
100
AcDbLine
62
2
6
CONTINUOUS
10
109.6425448804
20
168.0254169878
11
101.9663297086
21
160.3492022631
0
LINE
5
2FB
100
AcDbEntity
8
0
100
AcDbLine
62
2
6
CONTINUOUS
10
109.6425448804
20
164.4051743624
11
104.6425448804
21
159.4051743624
0
LINE
5
2FC
100
AcDbEntity
8
0
100
AcDbLine
62
2
6
CONTINUOUS
10
109.6425448804
20
160.7849318859
11
105.0496779828
21
156.1920667764
0
LINE
5
2FD
100
AcDbEntity
8
0
100
AcDbLine
62
2
6
CONTINUOUS
10
109.6425448804
20
157.2242022631
11
114.5130088924
21
162.3376179393
0
LINE
5
2FE
100
AcDbEntity
8
0
100
AcDbLine
62
2
6
CONTINUOUS
10
109.7020589261
20
157.2242022631
11
107.8270589261
21
155.3492022631
0
LINE
5
2FF
100
AcDbEntity
8
0
100
AcDbLine
62
7
6
CONTINUOUS
10
104.6425429688
20
180.3492109375
11
69.6425410156
21
180.3492109375
0
LINE
5
300
100
AcDbEntity
8
0
100
AcDbLine
62
2
6
CONTINUOUS
10
113.3223019987
20
157.2242022631
11
111.4473019987
21
155.3492022631
0
LINE
5
301
100
AcDbEntity
8
0
100
AcDbLine
62
2
6
CONTINUOUS
10
116.9425450712
20
157.2242022631
11
115.0675450712
21
155.3492022631
0
LINE
5
302
100
AcDbEntity
8
0
100
AcDbLine
62
2
6
CONTINUOUS
10
120.5627833753
20
157.2242022631
11
118.6877833753
21
155.3492022631
0
LINE
5
303
100
AcDbEntity
8
0
100
AcDbLine
62
7
6
CONTINUOUS
10
158.3925390625
20
185.3492050781
11
105.8925468750
21
185.3492050781
0
LINE
5
304
100
AcDbEntity
8
0
100
AcDbLine
62
2
6
CONTINUOUS
10
124.1830264478
20
157.2242022631
11
122.3080264478
21
155.3492022631
0
LINE
5
305
100
AcDbEntity
8
0
100
AcDbLine
62
2
6
CONTINUOUS
10
127.8032695203
20
157.2242022631
11
125.9282695203
21
155.3492022631
0
LINE
5
306
100
AcDbEntity
8
0
100
AcDbLine
62
2
6
CONTINUOUS
10
131.4235125928
20
157.2242022631
11
129.5485125928
21
155.3492022631
0
LINE
5
307
100
AcDbEntity
8
0
100
AcDbLine
62
2
6
CONTINUOUS
10
135.0437556653
20
157.2242022631
11
133.1687556653
21
155.3492022631
0
LINE
5
308
100
AcDbEntity
8
0
100
AcDbLine
62
2
6
CONTINUOUS
10
138.6639987378
20
157.2242022631
11
136.7889987378
21
155.3492022631
0
LINE
5
309
100
AcDbEntity
8
0
100
AcDbLine
62
2
6
CONTINUOUS
10
142.2842418104
20
157.2242022631
11
140.4092418104
21
155.3492022631
0
LINE
5
30A
100
AcDbEntity
8
0
100
AcDbLine
62
2
6
CONTINUOUS
10
145.9044848829
20
157.2242022631
11
144.0294848829
21
155.3492022631
0
LINE
5
30B
100
AcDbEntity
8
0
100
AcDbLine
62
2
6
CONTINUOUS
10
149.5247279554
20
157.2242022631
11
147.6497279554
21
155.3492022631
0
LINE
5
30C
100
AcDbEntity
8
0
100
AcDbLine
62
2
6
CONTINUOUS
10
153.1449710279
20
157.2242022631
11
151.2699710279
21
155.3492022631
0
LINE
5
30D
100
AcDbEntity
8
0
100
AcDbLine
62
2
6
CONTINUOUS
10
156.7652141004
20
157.2242022631
11
154.8902141004
21
155.3492022631
0
LINE
5
30E
100
AcDbEntity
8
0
100
AcDbLine
62
7
6
CONTINUOUS
10
158.3925448804
20
155.3492022631
11
159.6425448804
21
156.5992022631
0
LINE
5
30F
100
AcDbEntity
8
0
100
AcDbLine
62
7
6
CONTINUOUS
10
159.6425429688
20
184.0992011719
11
158.3925390625
21
185.3492050781
0
LINE
5
310
100
AcDbEntity
8
0
100
AcDbLine
62
7
6
CONTINUOUS
10
158.3925390625
20
185.3492050781
11
158.3925390625
21
170.3492022581
0
LINE
5
311
100
AcDbEntity
8
0
100
AcDbLine
62
7
6
CONTINUOUS
10
159.6425429688
20
184.0992011719
11
159.6425448804
21
156.5992022631
0
ARC
5
312
100
AcDbEntity
8
0
100
AcDbCircle
62
7
6
CONTINUOUS
10
69.6425448804
20
170.3492022631
40
10.0000000000
100
AcDbArc
50
90.0000000000
51
270.0000000000
0
ENDSEC
0
SECTION
2
OBJECTS
0
DICTIONARY
5
313
100
AcDbDictionary
3
ACAD_GROUP
350
314
3
ACAD_MLINESTYLE
350
315
0
DICTIONARY
5
314
102
{ACAD_REACTORS
330
313
102
}
100
AcDbDictionary
0
DICTIONARY
5
315
102
{ACAD_REACTORS
330
313
102
}
100
AcDbDictionary
3
STANDARD
350
316
0
MLINESTYLE
5
316
102
{ACAD_REACTORS
330
315
102
}
100
AcDbMlineStyle
2
STANDARD
70
0
3

62
256
51
90.0
52
90.0
71
2
49
0.5
62
256
6
BYLAYER
49
-0.5
62
256
6
BYLAYER
0
ENDSEC
0
EOF
