  0
SECTION
  2
HEADER
  9
$ACADVER
  1
AC1015
  9
$DWGCODEPAGE
  3
ANSI_1252
  9
$EXTMAX
 10
210.0
 20
297.0
 30
0.0
  9
$EXTMIN
 10
0.0
 20
0.0
 30
0.0
  9
$LIMMIN
 10
0.0
 20
0.0
  9
$LIMMAX
 10
210.0
 20
297.0
  9
$VIEWCTR
 10
105.0
 20
148.5
  9
$VIEWSIZE
 40
297.0
  9
$CLAYER
  8
0
  9
$LTSCALE
 40
19.36
  9
$CELTYPE
  6
BYLAYER
  9
$DIMSCALE
 40
1.0
  9
$DIMASZ
 40
3.0
  9
$DIMEXO
 40
2.2
  9
$DIMDLI
 40
13.376
  9
$DIMEXE
 40
6.336
  9
$DIMCEN
 40
3.168
  9
$DIMLFAC
 40
1.0
  9
$DIMBLK
  1
_FILLED
  9
$DIMTXT
 40
3.5
  9
$DIMTOL
 70
1
  9
$DIMLIM
 70
0
  9
$DIMTFAC
 40
1.0
  9
$DIMTP
 40
0.00001
  9
$DIMTM
 40
0.00001
  9
$PDMODE
 70
3
  9
$PDSIZE
 40
1.0
  9
$HANDSEED
  5
482
  9
$MEASUREMENT
 70
1
  9
$INSUNITS
 70
4
  0
ENDSEC
  0
SECTION
  2
CLASSES
  0
CLASS
  1
ACDBDICTIONARYWDFLT
  2
AcDbDictionaryWithDefault
  3
AutoCAD 2000
 90
0
280
0
281
0
  0
CLASS
  1
ACDBPLACEHOLDER
  2
AcDbPlaceHolder
  3
AutoCAD 2000
 90
0
280
0
281
0
  0
CLASS
  1
LAYOUT
  2
AcDbLayout
  3
AutoCAD 2000
 90
0
280
0
281
0
  0
ENDSEC
  0
SECTION
  2
TABLES
  0
TABLE
  2
VPORT
  5
8
100
AcDbSymbolTable
 70
2
  0
VPORT
  5
1F4
100
AcDbSymbolTableRecord
100
AcDbViewportTableRecord
  2
*ACTIVE
 70
0
 10
0.0
 20
0.0
 11
1.0
 21
1.0
 12
105.0
 22
148.5
 13
0.0
 23
0.0
 14
1.0
 24
1.0
 15
0.0
 25
0.0
 16
0.0
 26
0.0
 36
1.0
 17
0.0
 27
0.0
 37
0.0
 40
297.0
 41
0.7070707071
 42
50.0
 43
0.0
 44
0.0
 50
0.0
 51
0.0
 71
0
 72
100
 73
1
 74
1
 75
0
 76
0
 77
0
 78
0
  0
ENDTAB
  0
TABLE
  2
LTYPE
  5
5
100
AcDbSymbolTable
 70
6
  0
LTYPE
  5
14
100
AcDbSymbolTableRecord
100
AcDbLinetypeTableRecord
  2
BYBLOCK
 70
0
  3

 72
65
 73
0
 40
0.0
  0
LTYPE
  5
15
100
AcDbSymbolTableRecord
100
AcDbLinetypeTableRecord
  2
BYLAYER
 70
0
  3

 72
65
 73
0
 40
0.0
  0
LTYPE
  5
16
100
AcDbSymbolTableRecord
100
AcDbLinetypeTableRecord
  2
CONTINUOUS
 70
64
  3
Solid line
 72
65
 73
0
 40
0.0
  0
LTYPE
  5
1F5
100
AcDbSymbolTableRecord
100
AcDbLinetypeTableRecord
  2
CENTER
 70
64
  3
____ _ ____ _ ____ _ ____ _ ____ _ ____ _ ____
 72
65
 73
4
 40
0.6
 49
0.375
 74
0
 49
-0.075
 74
0
 49
0.075
 74
0
 49
-0.075
 74
0
  0
LTYPE
  5
1F6
100
AcDbSymbolTableRecord
100
AcDbLinetypeTableRecord
  2
HIDDEN
 70
64
  3
- - - - - - - - - - - - - - - - - - - -
 72
65
 73
2
 40
0.2
 49
0.1
 74
0
 49
-0.1
 74
0
  0
LTYPE
  5
1F7
100
AcDbSymbolTableRecord
100
AcDbLinetypeTableRecord
  2
PHANTOM
 70
64
  3
_____ _ _ _____ _ _ _____ _ _ _____
 72
65
 73
6
 40
0.8
 49
0.45
 74
0
 49
-0.05
 74
0
 49
0.1
 74
0
 49
-0.05
 74
0
 49
0.1
 74
0
 49
-0.05
 74
0
  0
LTYPE
  5
1F8
100
AcDbSymbolTableRecord
100
AcDbLinetypeTableRecord
  2
DOT
 70
64
  3
. . . . . . . . . . . . . . . . . . . .
 72
65
 73
2
 40
0.2
 49
0.1
 74
0
 49
-0.1
 74
0
  0
LTYPE
  5
1F9
100
AcDbSymbolTableRecord
100
AcDbLinetypeTableRecord
  2
DASHED
 70
64
  3
- - - - - - - - - - - - - - - - - - - -
 72
65
 73
2
 40
0.2
 49
0.1
 74
0
 49
-0.1
 74
0
  0
ENDTAB
  0
TABLE
  2
LAYER
  5
2
100
AcDbSymbolTable
 70
36
  0
LAYER
  5
10
100
AcDbSymbolTableRecord
100
AcDbLayerTableRecord
  2
0
 70
0
 62
7
  6
CONTINUOUS
370
-3
390
F
  0
LAYER
  5
1FA
100
AcDbSymbolTableRecord
100
AcDbLayerTableRecord
  2
DEFAULT_1
 70
0
 62
7
  6
CENTER
370
-3
390
F
  0
LAYER
  5
1FB
100
AcDbSymbolTableRecord
100
AcDbLayerTableRecord
  2
DEFAULT_2
 70
0
 62
8
  6
HIDDEN
370
-3
390
F
  0
LAYER
  5
1FC
100
AcDbSymbolTableRecord
100
AcDbLayerTableRecord
  2
DEFAULT_3
 70
0
 62
7
  6
PHANTOM
370
-3
390
F
  0
LAYER
  5
1FD
100
AcDbSymbolTableRecord
100
AcDbLayerTableRecord
  2
ALL_AXIS
 70
0
 62
7
  6
CONTINUOUS
370
-3
390
F
  0
LAYER
  5
1FE
100
AcDbSymbolTableRecord
100
AcDbLayerTableRecord
  2
ALL_DIMENSIONS
 70
0
 62
7
  6
CONTINUOUS
370
-3
390
F
  0
LAYER
  5
1FF
100
AcDbSymbolTableRecord
100
AcDbLayerTableRecord
  2
ALL_PLANE
 70
0
 62
7
  6
CONTINUOUS
370
-3
390
F
  0
LAYER
  5
200
100
AcDbSymbolTableRecord
100
AcDbLayerTableRecord
  2
ALL_SURF_FIN
 70
0
 62
7
  6
CONTINUOUS
370
-3
390
F
  0
ENDTAB
  0
TABLE
  2
STYLE
  5
3
100
AcDbSymbolTable
 70
1
  0
STYLE
  5
11
100
AcDbSymbolTableRecord
100
AcDbTextStyleTableRecord
  2
STANDARD
 70
0
 40
0.0
 41
0.7
 50
0.0
 71
0
 42
0.2
  3
txt
  4

  0
ENDTAB
  0
TABLE
  2
VIEW
  5
6
100
AcDbSymbolTable
 70
0
  0
ENDTAB
  0
TABLE
  2
UCS
  5
7
100
AcDbSymbolTable
 70
0
  0
ENDTAB
  0
TABLE
  2
APPID
  5
9
100
AcDbSymbolTable
 70
1
  0
APPID
  5
201
100
AcDbSymbolTableRecord
100
AcDbRegAppTableRecord
  2
ACAD
 70
0
  0
ENDTAB
  0
TABLE
  2
BLOCK_RECORD
  5
1
100
AcDbSymbolTable
 70
0
  0
BLOCK_RECORD
  5
1F
100
AcDbSymbolTableRecord
100
AcDbBlockTableRecord
  2
*MODEL_SPACE
  0
BLOCK_RECORD
  5
1B
100
AcDbSymbolTableRecord
100
AcDbBlockTableRecord
  2
*PAPER_SPACE
  0
BLOCK_RECORD
  5
202
100
AcDbSymbolTableRecord
100
AcDbBlockTableRecord
  2
_FILLED
  0
BLOCK_RECORD
  5
203
100
AcDbSymbolTableRecord
100
AcDbBlockTableRecord
  2
*D0
  0
BLOCK_RECORD
  5
204
100
AcDbSymbolTableRecord
100
AcDbBlockTableRecord
  2
*D1
  0
BLOCK_RECORD
  5
205
100
AcDbSymbolTableRecord
100
AcDbBlockTableRecord
  2
*D2
  0
BLOCK_RECORD
  5
206
100
AcDbSymbolTableRecord
100
AcDbBlockTableRecord
  2
STANDARD_BL0
  0
ENDTAB
  0
TABLE
  2
DIMSTYLE
  5
A
100
AcDbSymbolTable
 70
1
100
AcDbDimStyleTable
 71
0
  0
DIMSTYLE
105
207
100
AcDbSymbolTableRecord
100
AcDbDimStyleTableRecord
  2
STANDARD
 70
0
  3

  4

 40
1.0
 41
3.0
 42
0.0625
 43
0.38
 44
0.18
 45
0.0
 46
0.0
 47
0.00001
 48
0.00001
140
3.5
141
0.09
142
0.0
143
25.4
144
1.0
145
0.0
146
1.0
147
0.09
 71
1.0
 72
0.0
 73
0
 74
0
 75
0
 76
0
 77
1
 78
8
170
0
171
2
172
0
173
0
174
0
175
0
176
0
177
0
178
0
270
2
271
5
272
5
273
2
274
2
275
0
280
0
281
0
282
0
283
1
284
8
285
0
286
0
287
3
288
0
340
11
341
202
342
202
343
202
344
202
  0
DIMSTYLE
105
208
100
AcDbSymbolTableRecord
100
AcDbDimStyleTableRecord
  2
DIMSTYLE_1
 70
0
  3

  4

 40
1.0
 41
3.0
 42
0.0625
 43
0.38
 44
0.18
 45
0.0
 46
0.0
 47
0.3
 48
0.3
140
3.5
141
0.09
142
0.0
143
25.4
144
1.0
145
0.0
146
1.0
147
0.09
 71
0.0
 72
0.0
 73
0
 74
0
 75
0
 76
0
 77
1
 78
8
170
0
171
2
172
0
173
0
174
0
175
0
176
0
177
0
178
0
270
2
271
2
272
2
273
2
274
2
275
0
280
0
281
0
282
0
283
1
284
8
285
0
286
0
287
3
288
0
340
11
341
202
342
202
343
202
344
202
  0
DIMSTYLE
105
209
100
AcDbSymbolTableRecord
100
AcDbDimStyleTableRecord
  2
DIMSTYLE_2
 70
0
  3

  4

 40
1.0
 41
3.0
 42
0.0625
 43
0.38
 44
0.18
 45
0.0
 46
0.0
 47
0.2
 48
0.2
140
3.5
141
0.09
142
0.0
143
25.4
144
1.0
145
0.0
146
1.0
147
0.09
 71
0.0
 72
0.0
 73
0
 74
0
 75
0
 76
0
 77
1
 78
8
170
0
171
2
172
0
173
0
174
0
175
0
176
0
177
0
178
0
270
2
271
2
272
2
273
2
274
2
275
0
280
0
281
0
282
0
283
1
284
8
285
0
286
0
287
3
288
0
340
11
341
202
342
202
343
202
344
202
  0
DIMSTYLE
105
20A
100
AcDbSymbolTableRecord
100
AcDbDimStyleTableRecord
  2
DIMSTYLE_3
 70
0
  3

  4

 40
1.0
 41
3.0
 42
0.0625
 43
0.38
 44
0.18
 45
0.0
 46
0.0
 47
0.2
 48
0.2
140
3.5
141
0.09
142
0.0
143
25.4
144
1.0
145
0.0
146
1.0
147
0.09
 71
0.0
 72
0.0
 73
0
 74
0
 75
0
 76
0
 77
1
 78
8
170
0
171
2
172
0
173
0
174
0
175
0
176
0
177
0
178
0
270
2
271
5
272
5
273
2
274
2
275
0
280
0
281
0
282
0
283
1
284
8
285
0
286
0
287
3
288
0
340
11
341
202
342
202
343
202
344
202
  0
ENDTAB
  0
ENDSEC
  0
SECTION
  2
BLOCKS
  0
BLOCK
  5
20
100
AcDbEntity
  8
0
100
AcDbBlockBegin
  2
*MODEL_SPACE
 70
0
 10
0.0
 20
0.0
 30
0.0
  3
*MODEL_SPACE
  1

  0
ENDBLK
  5
21
100
AcDbEntity
  8
0
100
AcDbBlockEnd
  0
BLOCK
  5
1C
100
AcDbEntity
  8
0
100
AcDbBlockBegin
  2
*PAPER_SPACE
 70
0
 10
0.0
 20
0.0
 30
0.0
  3
*PAPER_SPACE
  1

  0
ENDBLK
  5
1D
100
AcDbEntity
  8
0
100
AcDbBlockEnd
  0
BLOCK
  5
20B
100
AcDbEntity
  8
ALL_DIMENSIONS
100
AcDbBlockBegin
 62
2
  6
CONTINUOUS
  2
*D0
 70
65
 10
0.0
 20
0.0
  3
*D0
  1

  0
LINE
  5
20C
100
AcDbEntity
  8
ALL_DIMENSIONS
100
AcDbLine
 62
2
  6
CONTINUOUS
 10
119.3461538462
 20
220.0384615385
 11
144.2936
 21
220.0384615385
  0
LINE
  5
20D
100
AcDbEntity
  8
ALL_DIMENSIONS
100
AcDbLine
 62
2
  6
CONTINUOUS
 10
119.3461538462
 20
160.0384615385
 11
144.2936
 21
160.0384615385
  0
LINE
  5
20E
100
AcDbEntity
  8
ALL_DIMENSIONS
100
AcDbLine
 62
2
  6
CONTINUOUS
 10
142.2936
 20
220.0384615385
 11
142.2936
 21
190.0384615385
  0
LINE
  5
20F
100
AcDbEntity
  8
ALL_DIMENSIONS
100
AcDbLine
 62
2
  6
CONTINUOUS
 10
142.2936
 20
160.0384615385
 11
142.2936
 21
190.0384615385
  0
INSERT
  5
210
100
AcDbEntity
  8
ALL_DIMENSIONS
100
AcDbBlockReference
 62
2
  6
CONTINUOUS
  2
_FILLED
 10
142.2936
 20
220.0384615385
 41
3.0
 42
3.0
 43
3.0
 50
90.0
  0
INSERT
  5
211
100
AcDbEntity
  8
ALL_DIMENSIONS
100
AcDbBlockReference
 62
2
  6
CONTINUOUS
  2
_FILLED
 10
142.2936
 20
160.0384615385
 41
3.0
 42
3.0
 43
3.0
 50
270.0
  0
ENDBLK
  5
212
100
AcDbEntity
  8
0
  6
BYBLOCK
 62
0
100
AcDbBlockEnd
  0
BLOCK
  5
213
100
AcDbEntity
  8
ALL_DIMENSIONS
100
AcDbBlockBegin
 62
2
  6
CONTINUOUS
  2
*D1
 70
65
 10
0.0
 20
0.0
  3
*D1
  1

  0
LINE
  5
214
100
AcDbEntity
  8
ALL_DIMENSIONS
100
AcDbLine
 62
2
  6
CONTINUOUS
 10
119.3461538462
 20
196.0384615385
 11
135.9992
 21
196.0384615385
  0
LINE
  5
215
100
AcDbEntity
  8
ALL_DIMENSIONS
100
AcDbLine
 62
2
  6
CONTINUOUS
 10
119.3461538462
 20
184.0384615385
 11
135.9992
 21
184.0384615385
  0
LINE
  5
216
100
AcDbEntity
  8
ALL_DIMENSIONS
100
AcDbLine
 62
2
  6
CONTINUOUS
 10
133.9992
 20
196.0384615385
 11
133.9992
 21
190.0384615385
  0
LINE
  5
217
100
AcDbEntity
  8
ALL_DIMENSIONS
100
AcDbLine
 62
2
  6
CONTINUOUS
 10
133.9992
 20
190.0384615385
 11
133.9992
 21
212.357374359
  0
LINE
  5
218
100
AcDbEntity
  8
ALL_DIMENSIONS
100
AcDbLine
 62
2
  6
CONTINUOUS
 10
133.9992
 20
184.0384615385
 11
133.9992
 21
190.0384615385
  0
INSERT
  5
219
100
AcDbEntity
  8
ALL_DIMENSIONS
100
AcDbBlockReference
 62
2
  6
CONTINUOUS
  2
_FILLED
 10
133.9992
 20
196.0384615385
 41
3.0
 42
3.0
 43
3.0
 50
90.0
  0
INSERT
  5
21A
100
AcDbEntity
  8
ALL_DIMENSIONS
100
AcDbBlockReference
 62
2
  6
CONTINUOUS
  2
_FILLED
 10
133.9992
 20
184.0384615385
 41
3.0
 42
3.0
 43
3.0
 50
270.0
  0
ENDBLK
  5
21B
100
AcDbEntity
  8
0
  6
BYBLOCK
 62
0
100
AcDbBlockEnd
  0
BLOCK
  5
21C
100
AcDbEntity
  8
ALL_DIMENSIONS
100
AcDbBlockBegin
 62
2
  6
CONTINUOUS
  2
*D2
 70
65
 10
0.0
 20
0.0
  3
*D2
  1

  0
LINE
  5
21D
100
AcDbEntity
  8
ALL_DIMENSIONS
100
AcDbLine
 62
2
  6
CONTINUOUS
 10
109.3461538462
 20
160.0384615385
 11
109.3461538462
 21
147.1355384615
  0
LINE
  5
21E
100
AcDbEntity
  8
ALL_DIMENSIONS
100
AcDbLine
 62
2
  6
CONTINUOUS
 10
119.3461538462
 20
160.0384615385
 11
119.3461538462
 21
147.1355384615
  0
LINE
  5
21F
100
AcDbEntity
  8
ALL_DIMENSIONS
100
AcDbLine
 62
2
  6
CONTINUOUS
 10
109.3461538462
 20
149.1355384615
 11
105.3461538462
 21
149.1355384615
  0
LINE
  5
220
100
AcDbEntity
  8
ALL_DIMENSIONS
100
AcDbLine
 62
2
  6
CONTINUOUS
 10
105.3461538462
 20
149.1355384615
 11
114.3461538462
 21
149.1355384615
  0
LINE
  5
221
100
AcDbEntity
  8
ALL_DIMENSIONS
100
AcDbLine
 62
2
  6
CONTINUOUS
 10
119.3461538462
 20
149.1355384615
 11
123.3461538462
 21
149.1355384615
  0
LINE
  5
222
100
AcDbEntity
  8
ALL_DIMENSIONS
100
AcDbLine
 62
2
  6
CONTINUOUS
 10
123.3461538462
 20
149.1355384615
 11
114.3461538462
 21
149.1355384615
  0
INSERT
  5
223
100
AcDbEntity
  8
ALL_DIMENSIONS
100
AcDbBlockReference
 62
2
  6
CONTINUOUS
  2
_FILLED
 10
109.3461538462
 20
149.1355384615
 41
3.0
 42
3.0
 43
3.0
  0
INSERT
  5
224
100
AcDbEntity
  8
ALL_DIMENSIONS
100
AcDbBlockReference
 62
2
  6
CONTINUOUS
  2
_FILLED
 10
119.3461538462
 20
149.1355384615
 41
3.0
 42
3.0
 43
3.0
 50
180.0
  0
ENDBLK
  5
225
100
AcDbEntity
  8
0
  6
BYBLOCK
 62
0
100
AcDbBlockEnd
  0
BLOCK
  5
226
100
AcDbEntity
  8
0
100
AcDbBlockBegin
 62
2
  6
CONTINUOUS
  2
STANDARD_BL0
 70
64
 10
180.4783514781
 20
281.4064904607
  3
STANDARD_BL0
  1

  0
LWPOLYLINE
  5
227
100
AcDbEntity
  8
0
100
AcDbPolyline
 62
2
  6
CONTINUOUS
 90
7
 70
0
 43
0.3333333333
 10
172.1086796875
 20
282.1836015625
 10
173.3840351563
 20
288.1836074219
 10
174.7340273438
 20
288.1836074219
 10
174.9714726563
 20
287.1836171875
 10
174.75890625
 20
286.1836054688
 10
174.0963496094
 20
285.1836152344
 10
172.7463574219
 20
285.1836152344
  0
LWPOLYLINE
  5
228
100
AcDbEntity
  8
0
100
AcDbPolyline
 62
2
  6
CONTINUOUS
 90
2
 70
0
 43
0.3333333333
 10
173.646359375
 20
285.1836152344
 10
173.9086835938
 20
282.1836015625
  0
LWPOLYLINE
  5
229
100
AcDbEntity
  8
0
100
AcDbPolyline
 62
2
  6
CONTINUOUS
 90
6
 70
0
 43
0.3333333333
 10
176.3463652344
 20
285.1836152344
 10
176.5589101562
 20
286.1836054688
 10
178.3589140625
 20
286.1836054688
 10
175.7086875
 20
282.1836015625
 10
177.5086914062
 20
282.1836015625
 10
177.7212363281
 20
283.1836132813
  0
LWPOLYLINE
  5
22A
100
AcDbEntity
  8
0
100
AcDbPolyline
 62
2
  6
CONTINUOUS
 90
9
 70
0
 43
0.3333333333
 10
179.7586855469
 20
282.1836015625
 10
180.6586875
 20
282.1836015625
 10
181.3212441406
 20
283.1836132813
 10
181.5338105469
 20
284.1836035156
 10
181.2963652344
 20
285.1836152344
 10
180.3963632812
 20
285.1836152344
 10
179.7338066406
 20
284.1836035156
 10
179.5212402344
 20
283.1836132813
 10
179.7586855469
 20
282.1836015625
  0
LWPOLYLINE
  5
22B
100
AcDbEntity
  8
0
100
AcDbPolyline
 62
2
  6
CONTINUOUS
 90
8
 70
0
 43
0.3333333333
 10
181.2963652344
 20
285.1836152344
 10
181.958921875
 20
286.1836054688
 10
182.1714667969
 20
287.1836171875
 10
181.9340214844
 20
288.1836074219
 10
181.0340195313
 20
288.1836074219
 10
180.3714628906
 20
287.1836171875
 10
180.1589179687
 20
286.1836054688
 10
180.3963632812
 20
285.1836152344
  0
LWPOLYLINE
  5
22C
100
AcDbEntity
  8
0
100
AcDbPolyline
 62
2
  6
CONTINUOUS
 90
9
 70
0
 43
0.3333333333
 10
183.3586933594
 20
282.1836015625
 10
183.1212480469
 20
283.1836132813
 10
183.9714707031
 20
287.1836171875
 10
184.6340273438
 20
288.1836074219
 10
185.5340292969
 20
288.1836074219
 10
185.7714746094
 20
287.1836171875
 10
184.9212519531
 20
283.1836132813
 10
184.2586953125
 20
282.1836015625
 10
183.3586933594
 20
282.1836015625
  0
LWPOLYLINE
  5
22D
100
AcDbEntity
  8
0
100
AcDbPolyline
 62
2
  6
CONTINUOUS
 90
2
 70
0
 43
0.25
 10
181.9118804077
 20
274.6293734994
 10
178.4223515932
 20
280.6734147007
  0
LWPOLYLINE
  5
22E
100
AcDbEntity
  8
0
100
AcDbPolyline
 62
2
  6
CONTINUOUS
 90
2
 70
0
 43
0.25
 10
181.9118804077
 20
274.6293734994
 10
188.8480232688
 20
286.6431253433
  0
ENDBLK
  5
22F
100
AcDbEntity
  8
0
  6
BYBLOCK
 62
0
100
AcDbBlockEnd
  0
BLOCK
  5
230
100
AcDbEntity
  8
0
100
AcDbBlockBegin
  2
_FILLED
 70
64
 10
0.0
 20
0.0
  3
_FILLED
  1

  0
SOLID
  5
231
100
AcDbEntity
  8
0
  6
BYBLOCK
 62
0
100
AcDbTrace
 10
0.0
 20
0.0
 11
-1.0
 21
0.1666666667
 12
-1.0
 22
-0.1666666667
 13
-1.0
 23
-0.1666666667
  0
ENDBLK
  5
232
100
AcDbEntity
  8
0
  6
BYBLOCK
 62
0
100
AcDbBlockEnd
  0
ENDSEC
  0
SECTION
  2
ENTITIES
  0
DIMENSION
  5
233
100
AcDbEntity
  8
ALL_DIMENSIONS
100
AcDbDimension
 62
2
  6
CONTINUOUS
  2
*D0
 10
142.2936
 20
160.0384615385
 11
141.4186
 21
185.2551282051
 70
160
 42
60.0
  1
%%c<>
  3
DIMSTYLE_1
100
AcDbAlignedDimension
 13
119.3461538462
 23
220.0384615385
 14
119.3461538462
 24
160.0384615385
 50
270.0
100
AcDbRotatedDimension
  0
DIMENSION
  5
234
100
AcDbEntity
  8
ALL_DIMENSIONS
100
AcDbDimension
 62
2
  6
CONTINUOUS
  2
*D1
 10
133.9992
 20
184.0384615385
 11
133.1242
 21
202.7907076923
 70
160
 42
12.0
  1
%%c<>
  3
DIMSTYLE_2
100
AcDbAlignedDimension
 13
119.3461538462
 23
196.0384615385
 14
119.3461538462
 24
184.0384615385
 50
270.0
100
AcDbRotatedDimension
  0
DIMENSION
  5
235
100
AcDbEntity
  8
ALL_DIMENSIONS
100
AcDbDimension
 62
2
  6
CONTINUOUS
  2
*D2
 10
119.3461538462
 20
149.1355384615
 11
109.4461538462
 21
150.0105384615
 70
160
 42
10.0
  1
 (8)
  3
DIMSTYLE_3
100
AcDbAlignedDimension
 13
109.3461538462
 23
160.0384615385
 14
119.3461538462
 24
160.0384615385
100
AcDbRotatedDimension
  0
LINE
  5
236
100
AcDbEntity
  8
0
100
AcDbLine
 62
7
  6
CONTINUOUS
 10
8.0
 20
5.0
 11
8.0
 21
150.0
  0
LINE
  5
237
100
AcDbEntity
  8
0
100
AcDbLine
 62
7
  6
CONTINUOUS
 10
8.0
 20
5.0
 11
20.0
 21
5.0
  0
LINE
  5
238
100
AcDbEntity
  8
0
100
AcDbLine
 62
7
  6
CONTINUOUS
 10
13.0
 20
5.0
 11
13.0
 21
150.0
  0
LINE
  5
239
100
AcDbEntity
  8
0
100
AcDbLine
 62
7
  6
CONTINUOUS
 10
20.0
 20
5.0
 11
20.0
 21
150.0
  0
LINE
  5
23A
100
AcDbEntity
  8
0
100
AcDbLine
 62
7
  6
CONTINUOUS
 10
8.0
 20
30.0
 11
20.0
 21
30.0
  0
LINE
  5
23B
100
AcDbEntity
  8
0
100
AcDbLine
 62
7
  6
CONTINUOUS
 10
8.0
 20
65.0
 11
20.0
 21
65.0
  0
LINE
  5
23C
100
AcDbEntity
  8
0
100
AcDbLine
 62
7
  6
CONTINUOUS
 10
8.0
 20
90.0
 11
20.0
 21
90.0
  0
LINE
  5
23D
100
AcDbEntity
  8
0
100
AcDbLine
 62
7
  6
CONTINUOUS
 10
8.0
 20
115.0
 11
20.0
 21
115.0
  0
LINE
  5
23E
100
AcDbEntity
  8
0
100
AcDbLine
 62
7
  6
CONTINUOUS
 10
8.0
 20
150.0
 11
20.0
 21
150.0
  0
LWPOLYLINE
  5
23F
100
AcDbEntity
  8
0
100
AcDbPolyline
 62
2
  6
CONTINUOUS
 90
4
 70
0
 43
0.25
 10
9.294097168
 20
5.8157061768
 10
11.7940942383
 20
5.1458334351
 10
9.294097168
 20
6.8157064819
 10
11.7940942383
 20
6.1458330688
  0
LWPOLYLINE
  5
240
100
AcDbEntity
  8
0
100
AcDbPolyline
 62
2
  6
CONTINUOUS
 90
2
 70
0
 43
0.25
 10
11.7940942383
 20
7.145833374
 10
10.1274277344
 20
7.5924156494
  0
LWPOLYLINE
  5
241
100
AcDbEntity
  8
0
100
AcDbPolyline
 62
2
  6
CONTINUOUS
 90
2
 70
0
 43
0.25
 10
10.9607636719
 20
7.3691245117
 10
10.9607636719
 20
8.3691241455
  0
LWPOLYLINE
  5
242
100
AcDbEntity
  8
0
100
AcDbPolyline
 62
2
  6
CONTINUOUS
 90
2
 70
0
 43
0.25
 10
10.1274277344
 20
8.5924152832
 10
11.7940942383
 20
8.1458330078
  0
LWPOLYLINE
  5
243
100
AcDbEntity
  8
0
100
AcDbPolyline
 62
2
  6
CONTINUOUS
 90
12
 70
0
 43
0.25
 10
10.5440957031
 20
9.4807700195
 10
9.7107597656
 20
10.2040609741
 10
9.294097168
 20
10.315706543
 10
9.294097168
 20
10.0657062988
 10
9.7107597656
 20
9.7040604858
 10
11.3774262695
 20
9.2574788818
 10
11.7940942383
 20
9.3958335571
 10
11.7940942383
 20
9.895833374
 10
11.3774262695
 20
10.2574785156
 10
10.5440957031
 20
10.4807696533
 10
10.1274277344
 20
10.3424156494
 10
10.1274277344
 20
9.8424151611
  0
LWPOLYLINE
  5
244
100
AcDbEntity
  8
0
100
AcDbPolyline
 62
2
  6
CONTINUOUS
 90
5
 70
0
 43
0.25
 10
11.7940942383
 20
11.270833374
 10
11.7940942383
 20
11.145833252
 10
11.5857602539
 20
11.2016563721
 10
11.5857602539
 20
11.3266564941
 10
11.7940942383
 20
11.270833374
  0
LWPOLYLINE
  5
245
100
AcDbEntity
  8
0
100
AcDbPolyline
 62
2
  6
CONTINUOUS
 90
4
 70
0
 43
0.25
 10
11.7940942383
 20
13.3541665039
 10
9.294097168
 20
14.024039917
 10
11.7940942383
 20
15.0208330078
 10
9.294097168
 20
15.6907064209
  0
LWPOLYLINE
  5
246
100
AcDbEntity
  8
0
100
AcDbPolyline
 62
2
  6
CONTINUOUS
 90
2
 70
0
 43
0.25
 10
11.7940942383
 20
19.8541661377
 10
10.1274277344
 20
20.3007484131
  0
LWPOLYLINE
  5
247
100
AcDbEntity
  8
0
100
AcDbPolyline
 62
2
  6
CONTINUOUS
 90
5
 70
0
 43
0.25
 10
10.5440957031
 20
20.1891035156
 10
10.1274277344
 20
20.5507486572
 10
10.1274277344
 20
21.0507491455
 10
10.5440957031
 20
21.1891031494
 10
11.7940942383
 20
20.8541671143
  0
LWPOLYLINE
  5
248
100
AcDbEntity
  8
0
100
AcDbPolyline
 62
2
  6
CONTINUOUS
 90
9
 70
0
 43
0.25
 10
11.3774262695
 20
21.9658116455
 10
11.7940942383
 20
22.1041669922
 10
11.7940942383
 20
22.6041674805
 10
11.3774262695
 20
22.9658112793
 10
10.5440957031
 20
23.1891037598
 10
10.1274277344
 20
23.0507497559
 10
10.1274277344
 20
22.5507492676
 10
10.5440957031
 20
22.1891027832
 10
11.3774262695
 20
21.9658116455
  0
LWPOLYLINE
  5
249
100
AcDbEntity
  8
0
100
AcDbPolyline
 62
2
  6
CONTINUOUS
 90
11
 70
0
 43
0.25
 10
10.5440957031
 20
25.1891030273
 10
10.1274277344
 20
25.0507490234
 10
10.1274277344
 20
24.5507485352
 10
10.5440957031
 20
24.1891020508
 10
11.3774262695
 20
23.9658122559
 10
11.7940942383
 20
24.1041662598
 10
11.7940942383
 20
24.604166748
 10
11.3774262695
 20
24.9658132324
 10
9.7107597656
 20
25.4123928223
 10
9.294097168
 20
25.2740388184
 10
9.294097168
 20
24.7740383301
  0
LWPOLYLINE
  5
24A
100
AcDbEntity
  8
0
100
AcDbPolyline
 62
2
  6
CONTINUOUS
 90
3
 70
0
 43
0.25
 10
11.7940942383
 20
25.8541679688
 10
10.1274277344
 20
26.8007480469
 10
11.7940942383
 20
26.8541662598
  0
LWPOLYLINE
  5
24B
100
AcDbEntity
  8
0
100
AcDbPolyline
 62
2
  6
CONTINUOUS
 90
5
 70
0
 43
0.25
 10
11.7940942383
 20
27.9791660156
 10
11.7940942383
 20
27.8541672363
 10
11.5857602539
 20
27.9099890137
 10
11.5857602539
 20
28.0349904785
 10
11.7940942383
 20
27.9791660156
  0
LWPOLYLINE
  5
24C
100
AcDbEntity
  8
0
100
AcDbPolyline
 62
2
  6
CONTINUOUS
 90
4
 70
0
 43
0.25
 10
11.7940942383
 20
33.5000004883
 10
9.294097168
 20
34.1698725586
 10
9.294097168
 20
35.1698735352
 10
11.7940942383
 20
34.4999987793
  0
LWPOLYLINE
  5
24D
100
AcDbEntity
  8
0
100
AcDbPolyline
 62
2
  6
CONTINUOUS
 90
9
 70
0
 43
0.25
 10
11.3774262695
 20
35.6116459961
 10
11.7940942383
 20
35.75
 10
11.7940942383
 20
36.2500004883
 10
11.3774262695
 20
36.6116442871
 10
10.5440957031
 20
36.8349367676
 10
10.1274277344
 20
36.6965827637
 10
10.1274277344
 20
36.1965822754
 10
10.5440957031
 20
35.834935791
 10
11.3774262695
 20
35.6116459961
  0
LWPOLYLINE
  5
24E
100
AcDbEntity
  8
0
100
AcDbPolyline
 62
2
  6
CONTINUOUS
 90
11
 70
0
 43
0.25
 10
10.5440957031
 20
38.8349360352
 10
10.1274277344
 20
38.6965820313
 10
10.1274277344
 20
38.196581543
 10
10.5440957031
 20
37.8349377441
 10
11.3774262695
 20
37.6116452637
 10
11.7940942383
 20
37.7499992676
 10
11.7940942383
 20
38.2499997559
 10
11.3774262695
 20
38.6116462402
 10
9.7107597656
 20
39.0582285156
 10
9.294097168
 20
38.9198718262
 10
9.294097168
 20
38.4198740234
  0
LWPOLYLINE
  5
24F
100
AcDbEntity
  8
0
100
AcDbPolyline
 62
2
  6
CONTINUOUS
 90
2
 70
0
 43
0.25
 10
11.7940942383
 20
39.5000009766
 10
10.1274277344
 20
39.946583252
  0
LWPOLYLINE
  5
250
100
AcDbEntity
  8
0
100
AcDbPolyline
 62
2
  6
CONTINUOUS
 90
5
 70
0
 43
0.25
 10
10.5440957031
 20
39.8349370117
 10
10.1274277344
 20
40.1965808105
 10
10.1274277344
 20
40.6965812988
 10
10.5440957031
 20
40.8349353027
 10
11.7940942383
 20
40.4999992676
  0
LWPOLYLINE
  5
251
100
AcDbEntity
  8
0
100
AcDbPolyline
 62
2
  6
CONTINUOUS
 90
5
 70
0
 43
0.25
 10
10.1274277344
 20
41.9465825195
 10
11.3774262695
 20
41.6116464844
 10
11.7940942383
 20
41.7500004883
 10
11.7940942383
 20
42.0000007324
 10
10.9607636719
 20
42.7232910156
  0
LWPOLYLINE
  5
252
100
AcDbEntity
  8
0
100
AcDbPolyline
 62
2
  6
CONTINUOUS
 90
2
 70
0
 43
0.25
 10
10.1274277344
 20
42.9465808105
 10
11.7940942383
 20
42.5000012207
  0
LWPOLYLINE
  5
253
100
AcDbEntity
  8
0
100
AcDbPolyline
 62
2
  6
CONTINUOUS
 90
8
 70
0
 43
0.25
 10
10.5440957031
 20
44.8349365234
 10
10.1274277344
 20
44.6965825195
 10
10.1274277344
 20
44.1965820313
 10
10.5440957031
 20
43.8349355469
 10
11.3774262695
 20
43.611645752
 10
11.7940942383
 20
43.7499997559
 10
11.7940942383
 20
44.2500002441
 10
11.3774262695
 20
44.6116467285
  0
LWPOLYLINE
  5
254
100
AcDbEntity
  8
0
100
AcDbPolyline
 62
2
  6
CONTINUOUS
 90
9
 70
0
 43
0.25
 10
10.1274277344
 20
45.9465810547
 10
11.3774262695
 20
45.6116450195
 10
11.7940942383
 20
45.7499990234
 10
11.7940942383
 20
46.2499995117
 10
11.3774262695
 20
46.6116459961
 10
10.9607636719
 20
46.7232895508
 10
10.5440957031
 20
46.5849355469
 10
10.5440957031
 20
46.0849350586
 10
10.9607636719
 20
45.7232885742
  0
LWPOLYLINE
  5
255
100
AcDbEntity
  8
0
100
AcDbPolyline
 62
2
  6
CONTINUOUS
 90
5
 70
0
 43
0.25
 10
10.1274277344
 20
49.9465795898
 10
11.3774262695
 20
49.6116435547
 10
11.7940942383
 20
49.7499975586
 10
11.7940942383
 20
50.0000004883
 10
10.9607636719
 20
50.723293457
  0
LWPOLYLINE
  5
256
100
AcDbEntity
  8
0
100
AcDbPolyline
 62
2
  6
CONTINUOUS
 90
2
 70
0
 43
0.25
 10
10.1274277344
 20
50.9465805664
 10
11.7940942383
 20
50.5000009766
  0
LWPOLYLINE
  5
257
100
AcDbEntity
  8
0
100
AcDbPolyline
 62
2
  6
CONTINUOUS
 90
11
 70
0
 43
0.25
 10
10.5440957031
 20
54.8349355469
 10
10.1274277344
 20
54.696581543
 10
10.1274277344
 20
54.1965810547
 10
10.5440957031
 20
53.8349345703
 10
11.3774262695
 20
53.6116474609
 10
11.7940942383
 20
53.7500014648
 10
11.7940942383
 20
54.2500019531
 10
11.3774262695
 20
54.6116430664
 10
9.7107597656
 20
55.0582280273
 10
9.294097168
 20
54.9198740234
 10
9.294097168
 20
54.4198735352
  0
LWPOLYLINE
  5
258
100
AcDbEntity
  8
0
100
AcDbPolyline
 62
2
  6
CONTINUOUS
 90
8
 70
0
 43
0.25
 10
10.5440957031
 20
56.8349375
 10
10.1274277344
 20
56.6965834961
 10
10.1274277344
 20
56.1965830078
 10
10.5440957031
 20
55.8349365234
 10
11.3774262695
 20
55.611644043
 10
11.7940942383
 20
55.7499980469
 10
11.7940942383
 20
56.2499985352
 10
11.3774262695
 20
56.6116450195
  0
LWPOLYLINE
  5
259
100
AcDbEntity
  8
0
100
AcDbPolyline
 62
2
  6
CONTINUOUS
 90
3
 70
0
 43
0.25
 10
10.1274277344
 20
56.9465810547
 10
11.3774262695
 20
56.6116450195
 10
11.7940942383
 20
56.6249975586
  0
LWPOLYLINE
  5
25A
100
AcDbEntity
  8
0
100
AcDbPolyline
 62
2
  6
CONTINUOUS
 90
2
 70
0
 43
0.25
 10
11.7940942383
 20
57.5000024414
 10
10.1274277344
 20
57.9465820313
  0
LWPOLYLINE
  5
25B
100
AcDbEntity
  8
0
100
AcDbPolyline
 62
2
  6
CONTINUOUS
 90
4
 70
0
 43
0.25
 10
10.5440957031
 20
57.8349384766
 10
10.1274277344
 20
58.1965795898
 10
10.5440957031
 20
58.3349389648
 10
11.7940942383
 20
57.9999975586
  0
LWPOLYLINE
  5
25C
100
AcDbEntity
  8
0
100
AcDbPolyline
 62
2
  6
CONTINUOUS
 90
4
 70
0
 43
0.25
 10
10.5440957031
 20
58.3349389648
 10
10.1274277344
 20
58.6965800781
 10
10.5440957031
 20
58.834934082
 10
11.7940942383
 20
58.4999980469
  0
LWPOLYLINE
  5
25D
100
AcDbEntity
  8
0
100
AcDbPolyline
 62
2
  6
CONTINUOUS
 90
8
 70
0
 43
0.25
 10
10.5440957031
 20
60.8349360352
 10
10.1274277344
 20
60.6965820313
 10
10.1274277344
 20
60.196581543
 10
10.5440957031
 20
59.8349350586
 10
11.3774262695
 20
59.6116479492
 10
11.7940942383
 20
59.7500019531
 10
11.7940942383
 20
60.2500024414
 10
11.3774262695
 20
60.6116435547
  0
LWPOLYLINE
  5
25E
100
AcDbEntity
  8
0
100
AcDbPolyline
 62
2
  6
CONTINUOUS
 90
3
 70
0
 43
0.25
 10
10.1274277344
 20
60.9465795898
 10
11.3774262695
 20
60.6116435547
 10
11.7940942383
 20
60.6250014648
  0
LWPOLYLINE
  5
25F
100
AcDbEntity
  8
0
100
AcDbPolyline
 62
2
  6
CONTINUOUS
 90
10
 70
0
 43
0.25
 10
11.7940942383
 20
66.1458359375
 10
11.7940942383
 20
66.8958339844
 10
11.3774262695
 20
67.2574804688
 10
10.9607636719
 20
67.3691240234
 10
10.5440957031
 20
67.2307700195
 10
10.1274277344
 20
67.5924165039
 10
9.7107597656
 20
67.7040600586
 10
9.294097168
 20
67.5657060547
 10
9.294097168
 20
66.8157080078
 10
11.7940942383
 20
66.1458359375
  0
LWPOLYLINE
  5
260
100
AcDbEntity
  8
0
100
AcDbPolyline
 62
2
  6
CONTINUOUS
 90
2
 70
0
 43
0.25
 10
10.5440957031
 20
66.4807719727
 10
10.5440957031
 20
67.2307700195
  0
LWPOLYLINE
  5
261
100
AcDbEntity
  8
0
100
AcDbPolyline
 62
2
  6
CONTINUOUS
 90
9
 70
0
 43
0.25
 10
11.3774262695
 20
68.2574814453
 10
11.7940942383
 20
68.3958354492
 10
11.7940942383
 20
68.8958359375
 10
11.3774262695
 20
69.2574770508
 10
10.9607636719
 20
69.1191230469
 10
10.5440957031
 20
69.4807695313
 10
10.1274277344
 20
69.3424155273
 10
10.1274277344
 20
68.8424150391
 10
10.5440957031
 20
68.4807685547
  0
LWPOLYLINE
  5
262
100
AcDbEntity
  8
0
100
AcDbPolyline
 62
2
  6
CONTINUOUS
 90
2
 70
0
 43
0.25
 10
10.9607636719
 20
68.8691254883
 10
10.9607636719
 20
69.1191230469
  0
LWPOLYLINE
  5
263
100
AcDbEntity
  8
0
100
AcDbPolyline
 62
2
  6
CONTINUOUS
 90
8
 70
0
 43
0.25
 10
10.5440957031
 20
71.4807714844
 10
10.1274277344
 20
71.3424174805
 10
10.1274277344
 20
70.8424169922
 10
10.5440957031
 20
70.4807705078
 10
11.3774262695
 20
70.2574780273
 10
11.7940942383
 20
70.3958320313
 10
11.7940942383
 20
70.8958325195
 10
11.3774262695
 20
71.2574790039
  0
LWPOLYLINE
  5
264
100
AcDbEntity
  8
0
100
AcDbPolyline
 62
2
  6
CONTINUOUS
 90
3
 70
0
 43
0.25
 10
10.1274277344
 20
71.5924150391
 10
11.3774262695
 20
71.2574790039
 10
11.7940942383
 20
71.270831543
  0
LWPOLYLINE
  5
265
100
AcDbEntity
  8
0
100
AcDbPolyline
 62
2
  6
CONTINUOUS
 90
5
 70
0
 43
0.25
 10
11.7940942383
 20
72.1458310547
 10
10.1274277344
 20
72.5924160156
 10
10.9607636719
 20
72.8691240234
 10
10.1274277344
 20
73.5924169922
 10
11.7940942383
 20
73.1458320313
  0
LWPOLYLINE
  5
266
100
AcDbEntity
  8
0
100
AcDbPolyline
 62
2
  6
CONTINUOUS
 90
5
 70
0
 43
0.25
 10
11.7940942383
 20
74.2708344727
 10
11.7940942383
 20
74.1458330078
 10
11.5857602539
 20
74.2016547852
 10
11.5857602539
 20
74.32665625
 10
11.7940942383
 20
74.2708344727
  0
LWPOLYLINE
  5
267
100
AcDbEntity
  8
0
100
AcDbPolyline
 62
2
  6
CONTINUOUS
 90
5
 70
0
 43
0.25
 10
10.1274277344
 20
78.5924165039
 10
11.3774262695
 20
78.2574804688
 10
11.7940942383
 20
78.3958344727
 10
11.7940942383
 20
78.6458320313
 10
10.9607636719
 20
79.369125
  0
LWPOLYLINE
  5
268
100
AcDbEntity
  8
0
100
AcDbPolyline
 62
2
  6
CONTINUOUS
 90
2
 70
0
 43
0.25
 10
10.1274277344
 20
79.5924174805
 10
11.7940942383
 20
79.1458325195
  0
LWPOLYLINE
  5
269
100
AcDbEntity
  8
0
100
AcDbPolyline
 62
2
  6
CONTINUOUS
 90
2
 70
0
 43
0.25
 10
11.7940942383
 20
80.1458334961
 10
10.1274277344
 20
80.5924130859
  0
LWPOLYLINE
  5
26A
100
AcDbEntity
  8
0
100
AcDbPolyline
 62
2
  6
CONTINUOUS
 90
2
 70
0
 43
0.25
 10
10.9607636719
 20
80.3691259766
 10
10.9607636719
 20
81.3691269531
  0
LWPOLYLINE
  5
26B
100
AcDbEntity
  8
0
100
AcDbPolyline
 62
2
  6
CONTINUOUS
 90
2
 70
0
 43
0.25
 10
10.1274277344
 20
81.5924140625
 10
11.7940942383
 20
81.1458344727
  0
LWPOLYLINE
  5
26C
100
AcDbEntity
  8
0
100
AcDbPolyline
 62
2
  6
CONTINUOUS
 90
12
 70
0
 43
0.25
 10
10.5440957031
 20
82.4807714844
 10
9.7107597656
 20
83.204059082
 10
9.294097168
 20
83.3157080078
 10
9.294097168
 20
83.0657050781
 10
9.7107597656
 20
82.7040585938
 10
11.3774262695
 20
82.2574790039
 10
11.7940942383
 20
82.3958330078
 10
11.7940942383
 20
82.8958334961
 10
11.3774262695
 20
83.2574799805
 10
10.5440957031
 20
83.4807724609
 10
10.1274277344
 20
83.3424130859
 10
10.1274277344
 20
82.8424179688
  0
LWPOLYLINE
  5
26D
100
AcDbEntity
  8
0
100
AcDbPolyline
 62
2
  6
CONTINUOUS
 90
5
 70
0
 43
0.25
 10
11.7940942383
 20
84.2708334961
 10
11.7940942383
 20
84.1458320313
 10
11.5857602539
 20
84.2016538086
 10
11.5857602539
 20
84.3266552734
 10
11.7940942383
 20
84.2708334961
  0
LWPOLYLINE
  5
26E
100
AcDbEntity
  8
0
100
AcDbPolyline
 62
2
  6
CONTINUOUS
 90
4
 70
0
 43
0.25
 10
11.7940942383
 20
86.3541679688
 10
9.294097168
 20
87.0240400391
 10
11.7940942383
 20
88.0208344727
 10
9.294097168
 20
88.690706543
  0
LWPOLYLINE
  5
26F
100
AcDbEntity
  8
0
100
AcDbPolyline
 62
2
  6
CONTINUOUS
 90
4
 70
0
 43
0.25
 10
9.294097168
 20
90.8157099609
 10
11.7940942383
 20
90.1458378906
 10
9.294097168
 20
91.8157109375
 10
11.7940942383
 20
91.145828125
  0
LWPOLYLINE
  5
270
100
AcDbEntity
  8
0
100
AcDbPolyline
 62
2
  6
CONTINUOUS
 90
2
 70
0
 43
0.25
 10
11.7940942383
 20
92.1458291016
 10
10.1274277344
 20
92.5924140625
  0
LWPOLYLINE
  5
271
100
AcDbEntity
  8
0
100
AcDbPolyline
 62
2
  6
CONTINUOUS
 90
2
 70
0
 43
0.25
 10
10.9607636719
 20
92.3691269531
 10
10.9607636719
 20
93.3691279297
  0
LWPOLYLINE
  5
272
100
AcDbEntity
  8
0
100
AcDbPolyline
 62
2
  6
CONTINUOUS
 90
2
 70
0
 43
0.25
 10
10.1274277344
 20
93.5924150391
 10
11.7940942383
 20
93.1458300781
  0
LWPOLYLINE
  5
273
100
AcDbEntity
  8
0
100
AcDbPolyline
 62
2
  6
CONTINUOUS
 90
12
 70
0
 43
0.25
 10
10.5440957031
 20
94.4807724609
 10
9.7107597656
 20
95.2040654297
 10
9.294097168
 20
95.3157089844
 10
9.294097168
 20
95.0657060547
 10
9.7107597656
 20
94.7040595703
 10
11.3774262695
 20
94.2574746094
 10
11.7940942383
 20
94.3958339844
 10
11.7940942383
 20
94.8958291016
 10
11.3774262695
 20
95.2574755859
 10
10.5440957031
 20
95.4807734375
 10
10.1274277344
 20
95.3424140625
 10
10.1274277344
 20
94.8424189453
  0
LWPOLYLINE
  5
274
100
AcDbEntity
  8
0
100
AcDbPolyline
 62
2
  6
CONTINUOUS
 90
5
 70
0
 43
0.25
 10
11.7940942383
 20
96.2708291016
 10
11.7940942383
 20
96.1458330078
 10
11.5857602539
 20
96.2016601563
 10
11.5857602539
 20
96.32665625
 10
11.7940942383
 20
96.2708291016
  0
LWPOLYLINE
  5
275
100
AcDbEntity
  8
0
100
AcDbPolyline
 62
2
  6
CONTINUOUS
 90
4
 70
0
 43
0.25
 10
11.7940942383
 20
98.3541689453
 10
9.294097168
 20
99.0240410156
 10
11.7940942383
 20
100.0208300781
 10
9.294097168
 20
100.6907021484
  0
LWPOLYLINE
  5
276
100
AcDbEntity
  8
0
100
AcDbPolyline
 62
2
  6
CONTINUOUS
 90
11
 70
0
 43
0.25
 10
10.5440957031
 20
106.1891015625
 10
10.1274277344
 20
106.0507529297
 10
10.1274277344
 20
105.5507470703
 10
10.5440957031
 20
105.1891005859
 10
11.3774262695
 20
104.9658134766
 10
11.7940942383
 20
105.1041621094
 10
11.7940942383
 20
105.6041679688
 10
11.3774262695
 20
105.9658144531
 10
9.7107597656
 20
106.4123994141
 10
9.294097168
 20
106.2740400391
 10
9.294097168
 20
105.7740449219
  0
LWPOLYLINE
  5
277
100
AcDbEntity
  8
0
100
AcDbPolyline
 62
2
  6
CONTINUOUS
 90
2
 70
0
 43
0.25
 10
10.1274277344
 20
107.3007460938
 10
11.7940942383
 20
107.3541669922
  0
LWPOLYLINE
  5
278
100
AcDbEntity
  8
0
100
AcDbPolyline
 62
2
  6
CONTINUOUS
 90
3
 70
0
 43
0.25
 10
12.6274301758
 20
106.6308740234
 10
12.6274301758
 20
106.8808769531
 10
10.1274277344
 20
108.3007470703
  0
LWPOLYLINE
  5
279
100
AcDbEntity
  8
0
100
AcDbPolyline
 62
2
  6
CONTINUOUS
 90
10
 70
0
 43
0.25
 10
10.1274277344
 20
110.0507460938
 10
10.1274277344
 20
109.5507509766
 10
10.5440957031
 20
109.1891044922
 10
11.3774262695
 20
108.9658173828
 10
11.7940942383
 20
109.1041660156
 10
11.7940942383
 20
109.604171875
 10
11.3774262695
 20
109.9658076172
 10
10.5440957031
 20
110.1891054688
 10
9.294097168
 20
109.7740380859
 10
9.294097168
 20
110.5240361328
  0
LWPOLYLINE
  5
27A
100
AcDbEntity
  8
0
100
AcDbPolyline
 62
2
  6
CONTINUOUS
 90
3
 70
0
 43
0.25
 10
11.7940942383
 20
110.8541650391
 10
10.1274277344
 20
111.8007451172
 10
11.7940942383
 20
111.8541660156
  0
LWPOLYLINE
  5
27B
100
AcDbEntity
  8
0
100
AcDbPolyline
 62
2
  6
CONTINUOUS
 90
5
 70
0
 43
0.25
 10
11.7940942383
 20
112.9791630859
 10
11.7940942383
 20
112.8541669922
 10
11.5857602539
 20
112.9099941406
 10
11.5857602539
 20
113.0349902344
 10
11.7940942383
 20
112.9791630859
  0
LWPOLYLINE
  5
27C
100
AcDbEntity
  8
0
100
AcDbPolyline
 62
2
  6
CONTINUOUS
 90
4
 70
0
 43
0.25
 10
11.7940942383
 20
118.5000029297
 10
9.294097168
 20
119.169875
 10
9.294097168
 20
120.1698759766
 10
11.7940942383
 20
119.5000039063
  0
LWPOLYLINE
  5
27D
100
AcDbEntity
  8
0
100
AcDbPolyline
 62
2
  6
CONTINUOUS
 90
9
 70
0
 43
0.25
 10
11.3774262695
 20
120.6116484375
 10
11.7940942383
 20
120.7499970703
 10
11.7940942383
 20
121.2500029297
 10
11.3774262695
 20
121.6116494141
 10
10.5440957031
 20
121.8349365234
 10
10.1274277344
 20
121.6965771484
 10
10.1274277344
 20
121.1965820313
 10
10.5440957031
 20
120.8349355469
 10
11.3774262695
 20
120.6116484375
  0
LWPOLYLINE
  5
27E
100
AcDbEntity
  8
0
100
AcDbPolyline
 62
2
  6
CONTINUOUS
 90
11
 70
0
 43
0.25
 10
10.5440957031
 20
123.8349384766
 10
10.1274277344
 20
123.6965791016
 10
10.1274277344
 20
123.1965839844
 10
10.5440957031
 20
122.8349375
 10
11.3774262695
 20
122.6116503906
 10
11.7940942383
 20
122.7499990234
 10
11.7940942383
 20
123.2500048828
 10
11.3774262695
 20
123.611640625
 10
9.7107597656
 20
124.0582255859
 10
9.294097168
 20
123.9198769531
 10
9.294097168
 20
123.4198710938
  0
LWPOLYLINE
  5
27F
100
AcDbEntity
  8
0
100
AcDbPolyline
 62
2
  6
CONTINUOUS
 90
2
 70
0
 43
0.25
 10
11.7940942383
 20
124.4999980469
 10
10.1274277344
 20
124.9465830078
  0
LWPOLYLINE
  5
280
100
AcDbEntity
  8
0
100
AcDbPolyline
 62
2
  6
CONTINUOUS
 90
5
 70
0
 43
0.25
 10
10.5440957031
 20
124.8349394531
 10
10.1274277344
 20
125.1965859375
 10
10.1274277344
 20
125.6965810547
 10
10.5440957031
 20
125.8349404297
 10
11.7940942383
 20
125.4999990234
  0
LWPOLYLINE
  5
281
100
AcDbEntity
  8
0
100
AcDbPolyline
 62
2
  6
CONTINUOUS
 90
5
 70
0
 43
0.25
 10
10.1274277344
 20
126.9465849609
 10
11.3774262695
 20
126.6116435547
 10
11.7940942383
 20
126.7500029297
 10
11.7940942383
 20
126.9999951172
 10
10.9607636719
 20
127.7232880859
  0
LWPOLYLINE
  5
282
100
AcDbEntity
  8
0
100
AcDbPolyline
 62
2
  6
CONTINUOUS
 90
2
 70
0
 43
0.25
 10
10.1274277344
 20
127.9465859375
 10
11.7940942383
 20
127.5000009766
  0
LWPOLYLINE
  5
283
100
AcDbEntity
  8
0
100
AcDbPolyline
 62
2
  6
CONTINUOUS
 90
8
 70
0
 43
0.25
 10
10.5440957031
 20
129.8349335938
 10
10.1274277344
 20
129.6965849609
 10
10.1274277344
 20
129.1965791016
 10
10.5440957031
 20
128.8349326172
 10
11.3774262695
 20
128.6116455078
 10
11.7940942383
 20
128.7500048828
 10
11.7940942383
 20
129.25
 10
11.3774262695
 20
129.6116464844
  0
LWPOLYLINE
  5
284
100
AcDbEntity
  8
0
100
AcDbPolyline
 62
2
  6
CONTINUOUS
 90
9
 70
0
 43
0.25
 10
10.1274277344
 20
130.946578125
 10
11.3774262695
 20
130.6116474609
 10
11.7940942383
 20
130.7499960938
 10
11.7940942383
 20
131.2500019531
 10
11.3774262695
 20
131.6116484375
 10
10.9607636719
 20
131.7232919922
 10
10.5440957031
 20
131.5849326172
 10
10.5440957031
 20
131.0849375
 10
10.9607636719
 20
130.7232910156
  0
LWPOLYLINE
  5
285
100
AcDbEntity
  8
0
100
AcDbPolyline
 62
2
  6
CONTINUOUS
 90
5
 70
0
 43
0.25
 10
10.1274277344
 20
134.9465820313
 10
11.3774262695
 20
134.611640625
 10
11.7940942383
 20
134.75
 10
11.7940942383
 20
135.0000029297
 10
10.9607636719
 20
135.7232958984
  0
LWPOLYLINE
  5
286
100
AcDbEntity
  8
0
100
AcDbPolyline
 62
2
  6
CONTINUOUS
 90
2
 70
0
 43
0.25
 10
10.1274277344
 20
135.9465830078
 10
11.7940942383
 20
135.4999980469
  0
LWPOLYLINE
  5
287
100
AcDbEntity
  8
0
100
AcDbPolyline
 62
2
  6
CONTINUOUS
 90
11
 70
0
 43
0.25
 10
10.5440957031
 20
139.8349326172
 10
10.1274277344
 20
139.6965839844
 10
10.1274277344
 20
139.196578125
 10
10.5440957031
 20
138.8349316406
 10
11.3774262695
 20
138.6116445313
 10
11.7940942383
 20
138.7500039063
 10
11.7940942383
 20
139.2499990234
 10
11.3774262695
 20
139.6116455078
 10
9.7107597656
 20
140.0582304688
 10
9.294097168
 20
139.9198710938
 10
9.294097168
 20
139.4198759766
  0
LWPOLYLINE
  5
288
100
AcDbEntity
  8
0
100
AcDbPolyline
 62
2
  6
CONTINUOUS
 90
8
 70
0
 43
0.25
 10
10.5440957031
 20
141.8349345703
 10
10.1274277344
 20
141.6965859375
 10
10.1274277344
 20
141.1965800781
 10
10.5440957031
 20
140.8349335938
 10
11.3774262695
 20
140.6116464844
 10
11.7940942383
 20
140.7499951172
 10
11.7940942383
 20
141.2500009766
 10
11.3774262695
 20
141.6116474609
  0
LWPOLYLINE
  5
289
100
AcDbEntity
  8
0
100
AcDbPolyline
 62
2
  6
CONTINUOUS
 90
3
 70
0
 43
0.25
 10
10.1274277344
 20
141.946578125
 10
11.3774262695
 20
141.6116474609
 10
11.7940942383
 20
141.625
  0
LWPOLYLINE
  5
28A
100
AcDbEntity
  8
0
100
AcDbPolyline
 62
2
  6
CONTINUOUS
 90
2
 70
0
 43
0.25
 10
11.7940942383
 20
142.5000048828
 10
10.1274277344
 20
142.9465791016
  0
LWPOLYLINE
  5
28B
100
AcDbEntity
  8
0
100
AcDbPolyline
 62
2
  6
CONTINUOUS
 90
4
 70
0
 43
0.25
 10
10.5440957031
 20
142.8349355469
 10
10.1274277344
 20
143.1965820313
 10
10.5440957031
 20
143.3349414063
 10
11.7940942383
 20
143.0
  0
LWPOLYLINE
  5
28C
100
AcDbEntity
  8
0
100
AcDbPolyline
 62
2
  6
CONTINUOUS
 90
4
 70
0
 43
0.25
 10
10.5440957031
 20
143.3349414063
 10
10.1274277344
 20
143.6965771484
 10
10.5440957031
 20
143.8349365234
 10
11.7940942383
 20
143.4999951172
  0
LWPOLYLINE
  5
28D
100
AcDbEntity
  8
0
100
AcDbPolyline
 62
2
  6
CONTINUOUS
 90
8
 70
0
 43
0.25
 10
10.5440957031
 20
145.8349384766
 10
10.1274277344
 20
145.6965791016
 10
10.1274277344
 20
145.1965839844
 10
10.5440957031
 20
144.8349375
 10
11.3774262695
 20
144.6116503906
 10
11.7940942383
 20
144.7499990234
 10
11.7940942383
 20
145.2500048828
 10
11.3774262695
 20
145.611640625
  0
LWPOLYLINE
  5
28E
100
AcDbEntity
  8
0
100
AcDbPolyline
 62
2
  6
CONTINUOUS
 90
3
 70
0
 43
0.25
 10
10.1274277344
 20
145.9465820313
 10
11.3774262695
 20
145.611640625
 10
11.7940942383
 20
145.6250039063
  0
LINE
  5
28F
100
AcDbEntity
  8
0
100
AcDbLine
 62
7
  6
CONTINUOUS
 10
90.0
 20
278.3498994289
 11
20.0
 21
278.3498994289
  0
LINE
  5
290
100
AcDbEntity
  8
0
100
AcDbLine
 62
7
  6
CONTINUOUS
 10
90.0
 20
278.3498994289
 11
90.0
 21
292.3498994289
  0
LINE
  5
291
100
AcDbEntity
  8
0
100
AcDbLine
 62
7
  6
CONTINUOUS
 10
90.0
 20
292.3498994289
 11
20.0
 21
292.3498994289
  0
LINE
  5
292
100
AcDbEntity
  8
0
100
AcDbLine
 62
7
  6
CONTINUOUS
 10
20.0
 20
278.3498994289
 11
20.0
 21
292.3498994289
  0
LWPOLYLINE
  5
293
100
AcDbEntity
  8
0
100
AcDbPolyline
 62
2
  6
CONTINUOUS
 90
4
 70
0
 43
0.25
 10
79.7621005859
 20
281.9280878906
 10
81.2500009766
 20
288.9280839844
 10
78.0121015625
 20
281.9280878906
 10
79.5000019531
 20
288.9280839844
  0
LWPOLYLINE
  5
294
100
AcDbEntity
  8
0
100
AcDbPolyline
 62
2
  6
CONTINUOUS
 90
6
 70
0
 43
0.25
 10
77.7500029297
 20
288.9280839844
 10
76.4375009766
 20
288.9280839844
 10
75.7520205078
 20
287.7614179688
 10
75.5040371094
 20
286.5947519531
 10
75.6935507812
 20
285.4280859375
 10
77.0060527344
 20
285.4280859375
  0
LWPOLYLINE
  5
295
100
AcDbEntity
  8
0
100
AcDbPolyline
 62
2
  6
CONTINUOUS
 90
3
 70
0
 43
0.25
 10
77.7500029297
 20
288.9280839844
 10
76.2621025391
 20
281.9280878906
 10
74.9496005859
 20
281.9280878906
  0
LWPOLYLINE
  5
296
100
AcDbEntity
  8
0
100
AcDbPolyline
 62
2
  6
CONTINUOUS
 90
7
 70
0
 43
0.25
 10
74.2500048828
 20
288.9280839844
 10
72.7621044922
 20
281.9280878906
 10
71.4496025391
 20
281.9280878906
 10
71.2600888672
 20
283.0947539063
 10
71.5080722656
 20
284.2614199219
 10
72.1935527344
 20
285.4280859375
 10
73.5060546875
 20
285.4280859375
  0
LWPOLYLINE
  5
297
100
AcDbEntity
  8
0
100
AcDbPolyline
 62
2
  6
CONTINUOUS
 90
10
 70
0
 43
0.25
 10
69.5100898437
 20
283.0947539063
 10
68.824609375
 20
281.9280878906
 10
67.9496044922
 20
281.9280878906
 10
67.7600908203
 20
283.0947539063
 10
68.256046875
 20
285.4280859375
 10
68.9415380859
 20
286.5947519531
 10
69.8165322266
 20
286.5947519531
 10
70.5020126953
 20
287.7614179688
 10
70.7499960937
 20
288.9280839844
 10
68.9999970703
 20
288.9280839844
  0
LWPOLYLINE
  5
298
100
AcDbEntity
  8
0
100
AcDbPolyline
 62
2
  6
CONTINUOUS
 90
5
 70
0
 43
0.25
 10
67.0312548828
 20
288.9280839844
 10
67.2499980469
 20
288.9280839844
 10
67.1260117187
 20
288.3447617188
 10
66.9072578125
 20
288.3447617188
 10
67.0312548828
 20
288.9280839844
  0
LWPOLYLINE
  5
299
100
AcDbEntity
  8
0
100
AcDbPolyline
 62
2
  6
CONTINUOUS
 90
9
 70
0
 43
0.25
 10
63.3125029297
 20
288.9280839844
 10
63.5020166016
 20
287.7614179688
 10
62.5100830078
 20
283.0947539063
 10
61.8246025391
 20
281.9280878906
 10
60.9496083984
 20
281.9280878906
 10
60.7600839844
 20
283.0947539063
 10
61.7520175781
 20
287.7614179688
 10
62.4374980469
 20
288.9280839844
 10
63.3125029297
 20
288.9280839844
  0
LWPOLYLINE
  5
29A
100
AcDbEntity
  8
0
100
AcDbPolyline
 62
2
  6
CONTINUOUS
 90
9
 70
0
 43
0.25
 10
59.8125048828
 20
288.9280839844
 10
60.0020185547
 20
287.7614179688
 10
59.0100849609
 20
283.0947539063
 10
58.3246044922
 20
281.9280878906
 10
57.4495996094
 20
281.9280878906
 10
57.2600859375
 20
283.0947539063
 10
58.2520195312
 20
287.7614179688
 10
58.9375
 20
288.9280839844
 10
59.8125048828
 20
288.9280839844
  0
LWPOLYLINE
  5
29B
100
AcDbEntity
  8
0
100
AcDbPolyline
 62
2
  6
CONTINUOUS
 90
5
 70
0
 43
0.25
 10
56.53125
 20
288.9280839844
 10
56.7500039062
 20
288.9280839844
 10
56.6260068359
 20
288.3447617188
 10
56.4072636719
 20
288.3447617188
 10
56.53125
 20
288.9280839844
  0
LWPOLYLINE
  5
29C
100
AcDbEntity
  8
0
100
AcDbPolyline
 62
2
  6
CONTINUOUS
 90
3
 70
0
 43
0.25
 10
51.1643242187
 20
284.2614199219
 10
50.2308496094
 20
281.9280878906
 10
51.71875
 20
288.9280839844
  0
LWPOLYLINE
  5
29D
100
AcDbEntity
  8
0
100
AcDbPolyline
 62
2
  6
CONTINUOUS
 90
2
 70
0
 43
0.25
 10
52.1562470703
 20
288.9280839844
 10
51.2812529297
 20
288.9280839844
  0
LWPOLYLINE
  5
29E
100
AcDbEntity
  8
0
100
AcDbPolyline
 62
2
  6
CONTINUOUS
 90
10
 70
0
 43
0.25
 10
48.5100908203
 20
283.0947539063
 10
47.8245996094
 20
281.9280878906
 10
46.9496054687
 20
281.9280878906
 10
46.7600917969
 20
283.0947539063
 10
47.2560478516
 20
285.4280859375
 10
47.9415390625
 20
286.5947519531
 10
48.8165332031
 20
286.5947519531
 10
49.5020136719
 20
287.7614179688
 10
49.7499970703
 20
288.9280839844
 10
47.9999980469
 20
288.9280839844
  0
LWPOLYLINE
  5
29F
100
AcDbEntity
  8
0
100
AcDbPolyline
 62
2
  6
CONTINUOUS
 90
10
 70
0
 43
0.25
 10
45.0100820312
 20
283.0947539063
 10
44.3246015625
 20
281.9280878906
 10
43.4496074219
 20
281.9280878906
 10
43.2600830078
 20
283.0947539063
 10
43.7560498047
 20
285.4280859375
 10
44.4415302734
 20
286.5947519531
 10
45.3165351562
 20
286.5947519531
 10
46.002015625
 20
287.7614179688
 10
46.2499990234
 20
288.9280839844
 10
44.5
 20
288.9280839844
  0
LWPOLYLINE
  5
2A0
100
AcDbEntity
  8
0
100
AcDbPolyline
 62
2
  6
CONTINUOUS
 90
3
 70
0
 43
0.25
 10
40.6643193359
 20
284.2614199219
 10
39.7308554687
 20
281.9280878906
 10
41.2187451172
 20
288.9280839844
  0
LWPOLYLINE
  5
2A1
100
AcDbEntity
  8
0
100
AcDbPolyline
 62
2
  6
CONTINUOUS
 90
2
 70
0
 43
0.25
 10
41.6562529297
 20
288.9280839844
 10
40.7812480469
 20
288.9280839844
  0
LWPOLYLINE
  5
2A2
100
AcDbEntity
  8
0
100
AcDbPolyline
 62
2
  6
CONTINUOUS
 90
5
 70
0
 43
0.25
 10
39.0312490234
 20
288.9280839844
 10
39.2500029297
 20
288.9280839844
 10
39.1260058594
 20
288.3447617188
 10
38.9072626953
 20
288.3447617188
 10
39.0312490234
 20
288.9280839844
  0
LWPOLYLINE
  5
2A3
100
AcDbEntity
  8
0
100
AcDbPolyline
 62
2
  6
CONTINUOUS
 90
9
 70
0
 43
0.25
 10
35.3124970703
 20
288.9280839844
 10
35.5020214844
 20
287.7614179688
 10
34.5100878906
 20
283.0947539063
 10
33.8246074219
 20
281.9280878906
 10
32.9496025391
 20
281.9280878906
 10
32.7600888672
 20
283.0947539063
 10
33.7520224609
 20
287.7614179688
 10
34.4375029297
 20
288.9280839844
 10
35.3124970703
 20
288.9280839844
  0
LWPOLYLINE
  5
2A4
100
AcDbEntity
  8
0
100
AcDbPolyline
 62
2
  6
CONTINUOUS
 90
10
 70
0
 43
0.25
 10
31.0100898437
 20
283.0947539063
 10
30.324609375
 20
281.9280878906
 10
29.4496044922
 20
281.9280878906
 10
29.2600908203
 20
283.0947539063
 10
29.756046875
 20
285.4280859375
 10
30.4415380859
 20
286.5947519531
 10
31.3165322266
 20
286.5947519531
 10
32.0020126953
 20
287.7614179688
 10
32.2499960937
 20
288.9280839844
 10
30.4999970703
 20
288.9280839844
  0
LINE
  5
2A5
100
AcDbEntity
  8
0
100
AcDbLine
 62
7
  6
CONTINUOUS
 10
8.0
 20
172.3498994289
 11
8.0
 21
292.3498994289
  0
LINE
  5
2A6
100
AcDbEntity
  8
0
100
AcDbLine
 62
7
  6
CONTINUOUS
 10
8.0
 20
172.3498994289
 11
20.0
 21
172.3498994289
  0
LINE
  5
2A7
100
AcDbEntity
  8
0
100
AcDbLine
 62
7
  6
CONTINUOUS
 10
13.0
 20
172.3498994289
 11
13.0
 21
292.3498994289
  0
LINE
  5
2A8
100
AcDbEntity
  8
0
100
AcDbLine
 62
7
  6
CONTINUOUS
 10
20.0
 20
172.3498994289
 11
20.0
 21
292.3498994289
  0
LINE
  5
2A9
100
AcDbEntity
  8
0
100
AcDbLine
 62
7
  6
CONTINUOUS
 10
8.0
 20
232.3498994289
 11
20.0
 21
232.3498994289
  0
LINE
  5
2AA
100
AcDbEntity
  8
0
100
AcDbLine
 62
7
  6
CONTINUOUS
 10
8.0
 20
292.3498994289
 11
20.0
 21
292.3498994289
  0
LWPOLYLINE
  5
2AB
100
AcDbEntity
  8
0
100
AcDbPolyline
 62
2
  6
CONTINUOUS
 90
8
 70
0
 43
0.25
 10
9.7107597656
 20
196.5539511719
 10
9.294097168
 20
196.4156132813
 10
9.294097168
 20
195.9156074219
 10
9.7107597656
 20
195.5539609375
 10
11.3774262695
 20
195.1073867188
 10
11.7940942383
 20
195.2457246094
 10
11.7940942383
 20
195.7457304688
 10
11.3774262695
 20
196.1073769531
  0
LWPOLYLINE
  5
2AC
100
AcDbEntity
  8
0
100
AcDbPolyline
 62
2
  6
CONTINUOUS
 90
2
 70
0
 43
0.25
 10
11.7940942383
 20
196.995734375
 10
10.1274277344
 20
197.4423085938
  0
LWPOLYLINE
  5
2AD
100
AcDbEntity
  8
0
100
AcDbPolyline
 62
2
  6
CONTINUOUS
 90
5
 70
0
 43
0.25
 10
10.5440957031
 20
197.3306757813
 10
10.1274277344
 20
197.6923222656
 10
10.1274277344
 20
198.1923066406
 10
10.5440957031
 20
198.3306660156
 10
11.7940942383
 20
197.9957246094
  0
LWPOLYLINE
  5
2AE
100
AcDbEntity
  8
0
100
AcDbPolyline
 62
2
  6
CONTINUOUS
 90
2
 70
0
 43
0.25
 10
12.6274301758
 20
198.7724492188
 10
10.1274277344
 20
199.4423105469
  0
LWPOLYLINE
  5
2AF
100
AcDbEntity
  8
0
100
AcDbPolyline
 62
2
  6
CONTINUOUS
 90
7
 70
0
 43
0.25
 10
11.7940942383
 20
198.9957363281
 10
11.7940942383
 20
199.745734375
 10
11.3774262695
 20
200.1073808594
 10
10.5440957031
 20
200.3306679688
 10
10.1274277344
 20
200.1923085938
 10
10.1274277344
 20
199.6923242188
 10
10.5440957031
 20
199.3306777344
  0
LWPOLYLINE
  5
2B0
100
AcDbEntity
  8
0
100
AcDbPolyline
 62
2
  6
CONTINUOUS
 90
8
 70
0
 43
0.25
 10
10.5440957031
 20
202.3306699219
 10
10.1274277344
 20
202.1923105469
 10
10.1274277344
 20
201.6923046875
 10
10.5440957031
 20
201.3306796875
 10
11.3774262695
 20
201.1073710938
 10
11.7940942383
 20
201.2457304688
 10
11.7940942383
 20
201.7457363281
 10
11.3774262695
 20
202.1073828125
  0
LWPOLYLINE
  5
2B1
100
AcDbEntity
  8
0
100
AcDbPolyline
 62
2
  6
CONTINUOUS
 90
3
 70
0
 43
0.25
 10
10.1274277344
 20
202.4423242188
 10
11.3774262695
 20
202.1073828125
 10
11.7940942383
 20
202.1207246094
  0
LWPOLYLINE
  5
2B2
100
AcDbEntity
  8
0
100
AcDbPolyline
 62
2
  6
CONTINUOUS
 90
12
 70
0
 43
0.25
 10
10.5440957031
 20
203.3306601563
 10
9.7107597656
 20
204.053953125
 10
9.294097168
 20
204.1656074219
 10
9.294097168
 20
203.9156152344
 10
9.7107597656
 20
203.55396875
 10
11.3774262695
 20
203.1073730469
 10
11.7940942383
 20
203.2457324219
 10
11.7940942383
 20
203.7457382813
 10
11.3774262695
 20
204.1073847656
 10
10.5440957031
 20
204.330671875
 10
10.1274277344
 20
204.1923125
 10
10.1274277344
 20
203.6923066406
  0
LWPOLYLINE
  5
2B3
100
AcDbEntity
  8
0
100
AcDbPolyline
 62
2
  6
CONTINUOUS
 90
5
 70
0
 43
0.25
 10
11.7940942383
 20
205.1207382813
 10
11.7940942383
 20
204.9957421875
 10
11.5857602539
 20
205.0515585938
 10
11.5857602539
 20
205.1765546875
 10
11.7940942383
 20
205.1207382813
  0
LWPOLYLINE
  5
2B4
100
AcDbEntity
  8
0
100
AcDbPolyline
 62
2
  6
CONTINUOUS
 90
4
 70
0
 43
0.25
 10
11.7940942383
 20
207.2040566406
 10
9.294097168
 20
207.8739394531
 10
11.7940942383
 20
208.8707285156
 10
9.294097168
 20
209.5406113281
  0
LWPOLYLINE
  5
2B5
100
AcDbEntity
  8
0
100
AcDbPolyline
 62
2
  6
CONTINUOUS
 90
4
 70
0
 43
0.25
 10
11.7940942383
 20
249.349890625
 10
9.294097168
 20
250.0197734375
 10
9.294097168
 20
251.0197636719
 10
11.7940942383
 20
250.3499023438
  0
LWPOLYLINE
  5
2B6
100
AcDbEntity
  8
0
100
AcDbPolyline
 62
2
  6
CONTINUOUS
 90
10
 70
0
 43
0.25
 10
10.9607636719
 20
251.5731796875
 10
10.9607636719
 20
252.3231992188
 10
10.5440957031
 20
252.6848457031
 10
10.1274277344
 20
252.5464863281
 10
10.1274277344
 20
252.0464804688
 10
10.5440957031
 20
251.6848339844
 10
11.3774262695
 20
251.461546875
 10
11.7940942383
 20
251.59990625
 10
11.7940942383
 20
252.099890625
 10
11.3774262695
 20
252.4615371094
  0
LWPOLYLINE
  5
2B7
100
AcDbEntity
  8
0
100
AcDbPolyline
 62
2
  6
CONTINUOUS
 90
2
 70
0
 43
0.25
 10
12.6274301758
 20
253.1266074219
 10
10.1274277344
 20
253.7964902344
  0
LWPOLYLINE
  5
2B8
100
AcDbEntity
  8
0
100
AcDbPolyline
 62
2
  6
CONTINUOUS
 90
7
 70
0
 43
0.25
 10
11.7940942383
 20
253.3498945313
 10
11.7940942383
 20
254.0998925781
 10
11.3774262695
 20
254.4615390625
 10
10.5440957031
 20
254.6848261719
 10
10.1274277344
 20
254.5464882813
 10
10.1274277344
 20
254.0464824219
 10
10.5440957031
 20
253.6848359375
  0
LWPOLYLINE
  5
2B9
100
AcDbEntity
  8
0
100
AcDbPolyline
 62
2
  6
CONTINUOUS
 90
12
 70
0
 43
0.25
 10
10.5440957031
 20
255.6848378906
 10
9.7107597656
 20
256.4081308594
 10
9.294097168
 20
256.5197636719
 10
9.294097168
 20
256.2697714844
 10
9.7107597656
 20
255.908125
 10
11.3774262695
 20
255.4615507813
 10
11.7940942383
 20
255.5999101563
 10
11.7940942383
 20
256.0998945313
 10
11.3774262695
 20
256.4615410156
 10
10.5440957031
 20
256.684828125
 10
10.1274277344
 20
256.5464902344
 10
10.1274277344
 20
256.046484375
  0
LWPOLYLINE
  5
2BA
100
AcDbEntity
  8
0
100
AcDbPolyline
 62
2
  6
CONTINUOUS
 90
5
 70
0
 43
0.25
 10
11.7940942383
 20
257.4748945313
 10
11.7940942383
 20
257.3498984375
 10
11.5857602539
 20
257.4057148438
 10
11.5857602539
 20
257.5307324219
 10
11.7940942383
 20
257.4748945313
  0
LWPOLYLINE
  5
2BB
100
AcDbEntity
  8
0
100
AcDbPolyline
 62
2
  6
CONTINUOUS
 90
2
 70
0
 43
0.25
 10
11.7940942383
 20
261.3499023438
 10
10.1274277344
 20
261.7964765625
  0
LWPOLYLINE
  5
2BC
100
AcDbEntity
  8
0
100
AcDbPolyline
 62
2
  6
CONTINUOUS
 90
5
 70
0
 43
0.25
 10
10.5440957031
 20
261.68484375
 10
10.1274277344
 20
262.0464902344
 10
10.1274277344
 20
262.5464746094
 10
10.5440957031
 20
262.6848339844
 10
11.7940942383
 20
262.3498925781
  0
LWPOLYLINE
  5
2BD
100
AcDbEntity
  8
0
100
AcDbPolyline
 62
2
  6
CONTINUOUS
 90
2
 70
0
 43
0.25
 10
12.6274301758
 20
263.1266171875
 10
10.1274277344
 20
263.7964785156
  0
LWPOLYLINE
  5
2BE
100
AcDbEntity
  8
0
100
AcDbPolyline
 62
2
  6
CONTINUOUS
 90
7
 70
0
 43
0.25
 10
11.7940942383
 20
263.3499042969
 10
11.7940942383
 20
264.0999023438
 10
11.3774262695
 20
264.4615488281
 10
10.5440957031
 20
264.6848359375
 10
10.1274277344
 20
264.5464765625
 10
10.1274277344
 20
264.0464707031
 10
10.5440957031
 20
263.6848457031
  0
LWPOLYLINE
  5
2BF
100
AcDbEntity
  8
0
100
AcDbPolyline
 62
2
  6
CONTINUOUS
 90
5
 70
0
 43
0.25
 10
10.1274277344
 20
265.7964804688
 10
11.3774262695
 20
265.4615390625
 10
11.7940942383
 20
265.5998984375
 10
11.7940942383
 20
265.849890625
 10
10.9607636719
 20
266.5731835938
  0
LWPOLYLINE
  5
2C0
100
AcDbEntity
  8
0
100
AcDbPolyline
 62
2
  6
CONTINUOUS
 90
2
 70
0
 43
0.25
 10
10.1274277344
 20
266.7964707031
 10
11.7940942383
 20
266.3498964844
  0
LWPOLYLINE
  5
2C1
100
AcDbEntity
  8
0
100
AcDbPolyline
 62
2
  6
CONTINUOUS
 90
5
 70
0
 43
0.25
 10
11.7940942383
 20
267.3499082031
 10
10.1274277344
 20
267.7964824219
 10
10.9607636719
 20
268.0731796875
 10
10.1274277344
 20
268.7964726563
 10
11.7940942383
 20
268.3498984375
  0
LWPOLYLINE
  5
2C2
100
AcDbEntity
  8
0
100
AcDbPolyline
 62
2
  6
CONTINUOUS
 90
10
 70
0
 43
0.25
 10
10.9607636719
 20
269.5731972656
 10
10.9607636719
 20
270.3231953125
 10
10.5440957031
 20
270.6848417969
 10
10.1274277344
 20
270.5464824219
 10
10.1274277344
 20
270.0464765625
 10
10.5440957031
 20
269.6848300781
 10
11.3774262695
 20
269.4615429688
 10
11.7940942383
 20
269.5999023438
 10
11.7940942383
 20
270.0999082031
 10
11.3774262695
 20
270.4615546875
  0
LWPOLYLINE
  5
2C3
100
AcDbEntity
  8
0
100
AcDbPolyline
 62
2
  6
CONTINUOUS
 90
2
 70
0
 43
0.25
 10
11.7940942383
 20
271.349890625
 10
10.1274277344
 20
271.7964863281
  0
LWPOLYLINE
  5
2C4
100
AcDbEntity
  8
0
100
AcDbPolyline
 62
2
  6
CONTINUOUS
 90
2
 70
0
 43
0.25
 10
10.9607636719
 20
271.5731992188
 10
10.9607636719
 20
272.5731894531
  0
LWPOLYLINE
  5
2C5
100
AcDbEntity
  8
0
100
AcDbPolyline
 62
2
  6
CONTINUOUS
 90
2
 70
0
 43
0.25
 10
10.1274277344
 20
272.7964765625
 10
11.7940942383
 20
272.3499023438
  0
LWPOLYLINE
  5
2C6
100
AcDbEntity
  8
0
100
AcDbPolyline
 62
2
  6
CONTINUOUS
 90
5
 70
0
 43
0.25
 10
11.7940942383
 20
273.4749101563
 10
11.7940942383
 20
273.3498925781
 10
11.5857602539
 20
273.4057304688
 10
11.5857602539
 20
273.5307265625
 10
11.7940942383
 20
273.4749101563
  0
LINE
  5
2C7
100
AcDbEntity
  8
0
100
AcDbLine
 62
7
  6
CONTINUOUS
 10
205.0
 20
5.0
 11
20.0
 21
5.0
  0
LINE
  5
2C8
100
AcDbEntity
  8
0
100
AcDbLine
 62
7
  6
CONTINUOUS
 10
205.0
 20
5.0
 11
205.0
 21
60.0
  0
LINE
  5
2C9
100
AcDbEntity
  8
0
100
AcDbLine
 62
7
  6
CONTINUOUS
 10
85.0
 20
10.0
 11
20.0
 21
10.0
  0
LINE
  5
2CA
100
AcDbEntity
  8
0
100
AcDbLine
 62
7
  6
CONTINUOUS
 10
85.0
 20
15.0
 11
20.0
 21
15.0
  0
LINE
  5
2CB
100
AcDbEntity
  8
0
100
AcDbLine
 62
7
  6
CONTINUOUS
 10
205.0
 20
20.0
 11
20.0
 21
20.0
  0
LINE
  5
2CC
100
AcDbEntity
  8
0
100
AcDbLine
 62
7
  6
CONTINUOUS
 10
205.0
 20
25.0
 11
155.0
 21
25.0
  0
LINE
  5
2CD
100
AcDbEntity
  8
0
100
AcDbLine
 62
7
  6
CONTINUOUS
 10
85.0
 20
25.0
 11
20.0
 21
25.0
  0
LINE
  5
2CE
100
AcDbEntity
  8
0
100
AcDbLine
 62
7
  6
CONTINUOUS
 10
85.0
 20
30.0
 11
20.0
 21
30.0
  0
LINE
  5
2CF
100
AcDbEntity
  8
0
100
AcDbLine
 62
7
  6
CONTINUOUS
 10
85.0
 20
35.0
 11
20.0
 21
35.0
  0
LINE
  5
2D0
100
AcDbEntity
  8
0
100
AcDbLine
 62
7
  6
CONTINUOUS
 10
205.0
 20
40.0
 11
155.0
 21
40.0
  0
LINE
  5
2D1
100
AcDbEntity
  8
0
100
AcDbLine
 62
7
  6
CONTINUOUS
 10
85.0
 20
40.0
 11
20.0
 21
40.0
  0
LINE
  5
2D2
100
AcDbEntity
  8
0
100
AcDbLine
 62
7
  6
CONTINUOUS
 10
205.0
 20
45.0
 11
20.0
 21
45.0
  0
LINE
  5
2D3
100
AcDbEntity
  8
0
100
AcDbLine
 62
7
  6
CONTINUOUS
 10
85.0
 20
50.0
 11
20.0
 21
50.0
  0
LINE
  5
2D4
100
AcDbEntity
  8
0
100
AcDbLine
 62
7
  6
CONTINUOUS
 10
85.0
 20
55.0
 11
20.0
 21
55.0
  0
LINE
  5
2D5
100
AcDbEntity
  8
0
100
AcDbLine
 62
7
  6
CONTINUOUS
 10
205.0
 20
60.0
 11
20.0
 21
60.0
  0
LINE
  5
2D6
100
AcDbEntity
  8
0
100
AcDbLine
 62
7
  6
CONTINUOUS
 10
187.0
 20
25.0
 11
187.0
 21
45.0
  0
LINE
  5
2D7
100
AcDbEntity
  8
0
100
AcDbLine
 62
7
  6
CONTINUOUS
 10
175.0
 20
20.0
 11
175.0
 21
25.0
  0
LINE
  5
2D8
100
AcDbEntity
  8
0
100
AcDbLine
 62
7
  6
CONTINUOUS
 10
170.0
 20
25.0
 11
170.0
 21
45.0
  0
LINE
  5
2D9
100
AcDbEntity
  8
0
100
AcDbLine
 62
7
  6
CONTINUOUS
 10
165.0
 20
25.0
 11
165.0
 21
40.0
  0
LINE
  5
2DA
100
AcDbEntity
  8
0
100
AcDbLine
 62
7
  6
CONTINUOUS
 10
160.0
 20
25.0
 11
160.0
 21
40.0
  0
LINE
  5
2DB
100
AcDbEntity
  8
0
100
AcDbLine
 62
7
  6
CONTINUOUS
 10
155.0
 20
5.0
 11
155.0
 21
45.0
  0
LINE
  5
2DC
100
AcDbEntity
  8
0
100
AcDbLine
 62
7
  6
CONTINUOUS
 10
85.0
 20
5.0
 11
85.0
 21
60.0
  0
LINE
  5
2DD
100
AcDbEntity
  8
0
100
AcDbLine
 62
7
  6
CONTINUOUS
 10
75.0
 20
5.0
 11
75.0
 21
60.0
  0
LINE
  5
2DE
100
AcDbEntity
  8
0
100
AcDbLine
 62
7
  6
CONTINUOUS
 10
60.0
 20
5.0
 11
60.0
 21
60.0
  0
LINE
  5
2DF
100
AcDbEntity
  8
0
100
AcDbLine
 62
7
  6
CONTINUOUS
 10
37.0
 20
5.0
 11
37.0
 21
60.0
  0
LINE
  5
2E0
100
AcDbEntity
  8
0
100
AcDbLine
 62
7
  6
CONTINUOUS
 10
27.0
 20
35.0
 11
27.0
 21
60.0
  0
LINE
  5
2E1
100
AcDbEntity
  8
0
100
AcDbLine
 62
7
  6
CONTINUOUS
 10
20.0
 20
5.0
 11
20.0
 21
60.0
  0
LWPOLYLINE
  5
2E2
100
AcDbEntity
  8
0
100
AcDbPolyline
 62
2
  6
CONTINUOUS
 90
4
 70
0
 43
0.25
 10
165.6000097656
 20
9.4329780273
 10
166.87534375
 20
15.4329785156
 10
168.6753476562
 20
15.4329785156
 10
167.3999921875
 20
9.4329780273
  0
LWPOLYLINE
  5
2E3
100
AcDbEntity
  8
0
100
AcDbPolyline
 62
2
  6
CONTINUOUS
 90
4
 70
0
 43
0.25
 10
170.4753300781
 20
15.4329785156
 10
169.1999960938
 20
9.4329780273
 10
172.2753339844
 20
15.4329785156
 10
171.0
 20
9.4329780273
  0
LWPOLYLINE
  5
2E4
100
AcDbEntity
  8
0
100
AcDbPolyline
 62
2
  6
CONTINUOUS
 90
7
 70
0
 43
0.25
 10
174.6000078125
 20
9.4329780273
 10
175.8753417969
 20
15.4329785156
 10
174.5253496094
 20
15.4329785156
 10
173.8627929688
 20
14.4329788818
 10
173.6502265625
 20
13.4329779053
 10
173.887671875
 20
12.4329782715
 10
175.2376640625
 20
12.4329782715
  0
LWPOLYLINE
  5
2E5
100
AcDbEntity
  8
0
100
AcDbPolyline
 62
2
  6
CONTINUOUS
 90
2
 70
0
 43
0.25
 10
172.8000039063
 20
9.4329780273
 10
174.7876738281
 20
12.4329782715
  0
LWPOLYLINE
  5
2E6
100
AcDbEntity
  8
0
100
AcDbPolyline
 62
2
  6
CONTINUOUS
 90
11
 70
0
 43
0.25
 10
178.5753476562
 20
15.4329785156
 10
178.1253359375
 20
15.4329785156
 10
177.4627792969
 20
14.4329788818
 10
177.0376679687
 20
12.4329782715
 10
177.2751132812
 20
11.4329786377
 10
178.1751152344
 20
11.4329786377
 10
178.837671875
 20
12.4329782715
 10
179.2627832031
 20
14.4329788818
 10
179.0253378906
 20
15.4329785156
 10
178.5753476562
 20
15.4329785156
 10
177.2999921875
 20
9.4329780273
  0
LWPOLYLINE
  5
2E7
100
AcDbEntity
  8
0
100
AcDbPolyline
 62
2
  6
CONTINUOUS
 90
7
 70
0
 43
0.25
 10
183.6000058594
 20
9.4329780273
 10
184.8753398438
 20
15.4329785156
 10
186.2253320313
 20
15.4329785156
 10
186.4627773437
 20
14.4329788818
 10
186.2502324219
 20
13.4329779053
 10
185.5876757813
 20
12.4329782715
 10
184.2376621094
 20
12.4329782715
  0
LWPOLYLINE
  5
2E8
100
AcDbEntity
  8
0
100
AcDbPolyline
 62
2
  6
CONTINUOUS
 90
3
 70
0
 43
0.25
 10
187.1999921875
 20
9.4329780273
 10
189.3753496094
 20
15.4329785156
 10
188.9999960938
 20
9.4329780273
  0
LWPOLYLINE
  5
2E9
100
AcDbEntity
  8
0
100
AcDbPolyline
 62
2
  6
CONTINUOUS
 90
2
 70
0
 43
0.25
 10
188.0751152344
 20
11.4329786377
 10
188.9751171875
 20
11.4329786377
  0
LWPOLYLINE
  5
2EA
100
AcDbEntity
  8
0
100
AcDbPolyline
 62
2
  6
CONTINUOUS
 90
2
 70
0
 43
0.25
 10
190.8
 20
9.4329780273
 10
192.0753339844
 20
15.4329785156
  0
LWPOLYLINE
  5
2EB
100
AcDbEntity
  8
0
100
AcDbPolyline
 62
2
  6
CONTINUOUS
 90
2
 70
0
 43
0.25
 10
191.4376777344
 20
12.4329782715
 10
193.2376601562
 20
12.4329782715
  0
LWPOLYLINE
  5
2EC
100
AcDbEntity
  8
0
100
AcDbPolyline
 62
2
  6
CONTINUOUS
 90
2
 70
0
 43
0.25
 10
193.8753378906
 20
15.4329785156
 10
192.6000039063
 20
9.4329780273
  0
LWPOLYLINE
  5
2ED
100
AcDbEntity
  8
0
100
AcDbPolyline
 62
2
  6
CONTINUOUS
 90
11
 70
0
 43
0.25
 10
173.2451601562
 20
3.9724663086
 10
173.0001523437
 20
3.9724663086
 10
172.6559726562
 20
3.5057994995
 10
172.4575859375
 20
2.572466217
 10
172.6033789062
 20
2.1057995758
 10
173.0933945313
 20
2.1057995758
 10
173.4375742188
 20
2.572466217
 10
173.6359609375
 20
3.5057994995
 10
173.4901679688
 20
3.9724663086
 10
173.2451601562
 20
3.9724663086
 10
172.65
 20
1.1724662094
  0
LWPOLYLINE
  5
2EE
100
AcDbEntity
  8
0
100
AcDbPolyline
 62
2
  6
CONTINUOUS
 90
9
 70
0
 43
0.25
 10
174.2191972656
 20
1.6391329346
 10
174.3649902344
 20
1.1724662094
 10
174.8550058594
 20
1.1724662094
 10
175.1991855469
 20
1.6391329346
 10
175.3975722656
 20
2.572466217
 10
175.2517792969
 20
3.0391330261
 10
174.7617636719
 20
3.0391330261
 10
174.4175839844
 20
2.572466217
 10
174.2191972656
 20
1.6391329346
  0
LWPOLYLINE
  5
2EF
100
AcDbEntity
  8
0
100
AcDbPolyline
 62
2
  6
CONTINUOUS
 90
2
 70
0
 43
0.25
 10
175.8816152344
 20
0.239132885
 10
176.4767753906
 20
3.0391330261
  0
LWPOLYLINE
  5
2F0
100
AcDbEntity
  8
0
100
AcDbPolyline
 62
2
  6
CONTINUOUS
 90
7
 70
0
 43
0.25
 10
176.0800019531
 20
1.1724662094
 10
176.8150039062
 20
1.1724662094
 10
177.1591835937
 20
1.6391329346
 10
177.3575703125
 20
2.572466217
 10
177.2117773437
 20
3.0391330261
 10
176.7217617188
 20
3.0391330261
 10
176.3775820313
 20
2.572466217
  0
LWPOLYLINE
  5
2F1
100
AcDbEntity
  8
0
100
AcDbPolyline
 62
2
  6
CONTINUOUS
 90
5
 70
0
 43
0.25
 10
178.04
 20
1.1724662094
 10
178.4367734375
 20
3.0391330261
 10
178.7283808594
 20
2.1057995758
 10
179.4167617188
 20
3.0391330261
 10
179.0200097656
 20
1.1724662094
  0
LWPOLYLINE
  5
2F2
100
AcDbEntity
  8
0
100
AcDbPolyline
 62
2
  6
CONTINUOUS
 90
8
 70
0
 43
0.25
 10
181.2775878906
 20
2.572466217
 10
181.1317734375
 20
3.0391330261
 10
180.6417792969
 20
3.0391330261
 10
180.297578125
 20
2.572466217
 10
180.0991914062
 20
1.6391329346
 10
180.2450058594
 20
1.1724662094
 10
180.735
 20
1.1724662094
 10
181.0792011719
 20
1.6391329346
  0
LWPOLYLINE
  5
2F3
100
AcDbEntity
  8
0
100
AcDbPolyline
 62
2
  6
CONTINUOUS
 90
3
 70
0
 43
0.25
 10
181.37678125
 20
3.0391330261
 10
181.0792011719
 20
1.6391329346
 10
181.1024902344
 20
1.1724662094
  0
LWPOLYLINE
  5
2F4
100
AcDbEntity
  8
0
100
AcDbPolyline
 62
2
  6
CONTINUOUS
 90
2
 70
0
 43
0.25
 10
181.9599960937
 20
1.1724662094
 10
182.3567695312
 20
3.0391330261
  0
LWPOLYLINE
  5
2F5
100
AcDbEntity
  8
0
100
AcDbPolyline
 62
2
  6
CONTINUOUS
 90
4
 70
0
 43
0.25
 10
182.2575761719
 20
2.572466217
 10
182.6017773438
 20
3.0391330261
 10
182.7475703125
 20
2.572466217
 10
182.4499902344
 20
1.1724662094
  0
LWPOLYLINE
  5
2F6
100
AcDbEntity
  8
0
100
AcDbPolyline
 62
2
  6
CONTINUOUS
 90
4
 70
0
 43
0.25
 10
182.7475703125
 20
2.572466217
 10
183.0917714844
 20
3.0391330261
 10
183.2375859375
 20
2.572466217
 10
182.9400058594
 20
1.1724662094
  0
LWPOLYLINE
  5
2F7
100
AcDbEntity
  8
0
100
AcDbPolyline
 62
2
  6
CONTINUOUS
 90
3
 70
0
 43
0.25
 10
185.8799921875
 20
1.1724662094
 10
186.9651679688
 20
3.9724663086
 10
186.8600019531
 20
1.1724662094
  0
LWPOLYLINE
  5
2F8
100
AcDbEntity
  8
0
100
AcDbPolyline
 62
2
  6
CONTINUOUS
 90
2
 70
0
 43
0.25
 10
186.3233867188
 20
2.1057995758
 10
186.8133808594
 20
2.1057995758
  0
LWPOLYLINE
  5
2F9
100
AcDbEntity
  8
0
100
AcDbPolyline
 62
2
  6
CONTINUOUS
 90
8
 70
0
 43
0.25
 10
97.2606513672
 20
14.1108153076
 10
97.1565380859
 20
14.9441485596
 10
96.5940341797
 20
14.9441485596
 10
96.1356542969
 20
14.1108153076
 10
95.4271318359
 20
10.7774816284
 10
95.5312451172
 20
9.9441483765
 10
96.0937490234
 20
9.9441483765
 10
96.5521289062
 20
10.7774816284
  0
LWPOLYLINE
  5
2FA
100
AcDbEntity
  8
0
100
AcDbPolyline
 62
2
  6
CONTINUOUS
 90
2
 70
0
 43
0.25
 10
97.4999980469
 20
9.9441483765
 10
98.2085205078
 20
13.2774820557
  0
LWPOLYLINE
  5
2FB
100
AcDbEntity
  8
0
100
AcDbPolyline
 62
2
  6
CONTINUOUS
 90
4
 70
0
 43
0.25
 10
98.0313925781
 20
12.4441488037
 10
98.4897724609
 20
13.2774820557
 10
98.5938964844
 20
12.4441488037
 10
98.0625019531
 20
9.9441483765
  0
LWPOLYLINE
  5
2FC
100
AcDbEntity
  8
0
100
AcDbPolyline
 62
2
  6
CONTINUOUS
 90
4
 70
0
 43
0.25
 10
98.5938964844
 20
12.4441488037
 10
99.0522763672
 20
13.2774820557
 10
99.1563896484
 20
12.4441488037
 10
98.6249951172
 20
9.9441483765
  0
LWPOLYLINE
  5
2FD
100
AcDbEntity
  8
0
100
AcDbPolyline
 62
2
  6
CONTINUOUS
 90
8
 70
0
 43
0.25
 10
101.4063945312
 20
12.4441488037
 10
101.3022705078
 20
13.2774820557
 10
100.7397666016
 20
13.2774820557
 10
100.2813867187
 20
12.4441488037
 10
99.9271308594
 20
10.7774816284
 10
100.0312548828
 20
9.9441483765
 10
100.5937480469
 20
9.9441483765
 10
101.0521279297
 20
10.7774816284
  0
LWPOLYLINE
  5
2FE
100
AcDbEntity
  8
0
100
AcDbPolyline
 62
2
  6
CONTINUOUS
 90
3
 70
0
 43
0.25
 10
101.5835224609
 20
13.2774820557
 10
101.0521279297
 20
10.7774816284
 10
101.0156259766
 20
9.9441483765
  0
LWPOLYLINE
  5
2FF
100
AcDbEntity
  8
0
100
AcDbPolyline
 62
2
  6
CONTINUOUS
 90
3
 70
0
 43
0.25
 10
101.9999970703
 20
9.9441483765
 10
103.2710234375
 20
13.2774820557
 10
103.1250048828
 20
9.9441483765
  0
LWPOLYLINE
  5
300
100
AcDbEntity
  8
0
100
AcDbPolyline
 62
2
  6
CONTINUOUS
 90
9
 70
0
 43
0.25
 10
104.9585244141
 20
13.2774820557
 10
104.4271298828
 20
10.7774816284
 10
104.5312539062
 20
9.9441483765
 10
105.0937470703
 20
9.9441483765
 10
105.5521269531
 20
10.7774816284
 10
105.729265625
 20
11.6108155518
 10
105.6251416016
 20
12.4441488037
 10
105.0626376953
 20
12.4441488037
 10
104.6042578125
 20
11.6108155518
  0
LWPOLYLINE
  5
301
100
AcDbEntity
  8
0
100
AcDbPolyline
 62
2
  6
CONTINUOUS
 90
10
 70
0
 43
0.25
 10
109.6356621094
 20
14.1108153076
 10
110.09403125
 20
14.9441485596
 10
110.6565351562
 20
14.9441485596
 10
110.7606484375
 20
14.1108153076
 10
110.4063925781
 20
12.4441488037
 10
109.9480019531
 20
11.6108155518
 10
109.3855195313
 20
11.6108155518
 10
108.9271289062
 20
10.7774816284
 10
108.7500009766
 20
9.9441483765
 10
109.8749980469
 20
9.9441483765
  0
LWPOLYLINE
  5
302
100
AcDbEntity
  8
0
100
AcDbPolyline
 62
2
  6
CONTINUOUS
 90
9
 70
0
 43
0.25
 10
111.2812578125
 20
9.9441483765
 10
111.1771230469
 20
10.7774816284
 10
111.88565625
 20
14.1108153076
 10
112.3440253906
 20
14.9441485596
 10
112.9065292969
 20
14.9441485596
 10
113.0106425781
 20
14.1108153076
 10
112.3021308594
 20
10.7774816284
 10
111.8437402344
 20
9.9441483765
 10
111.2812578125
 20
9.9441483765
  0
LWPOLYLINE
  5
303
100
AcDbEntity
  8
0
100
AcDbPolyline
 62
2
  6
CONTINUOUS
 90
3
 70
0
 43
0.25
 10
115.4999941406
 20
9.9441483765
 10
116.5627832031
 20
14.9441485596
 10
117.6877910156
 20
14.9441485596
  0
LWPOLYLINE
  5
304
100
AcDbEntity
  8
0
100
AcDbPolyline
 62
2
  6
CONTINUOUS
 90
9
 70
0
 43
0.25
 10
118.0312402344
 20
9.9441483765
 10
117.9271269531
 20
10.7774816284
 10
118.6356601563
 20
14.1108153076
 10
119.0940292969
 20
14.9441485596
 10
119.6565332031
 20
14.9441485596
 10
119.7606464844
 20
14.1108153076
 10
119.0521347656
 20
10.7774816284
 10
118.5937441406
 20
9.9441483765
 10
118.0312402344
 20
9.9441483765
  0
LWPOLYLINE
  5
305
100
AcDbEntity
  8
0
100
AcDbPolyline
 62
2
  6
CONTINUOUS
 90
8
 70
0
 43
0.25
 10
122.0106621094
 20
14.1108153076
 10
121.9065273437
 20
14.9441485596
 10
121.3440234375
 20
14.9441485596
 10
120.8856542969
 20
14.1108153076
 10
120.1771210938
 20
10.7774816284
 10
120.2812558594
 20
9.9441483765
 10
120.8437597656
 20
9.9441483765
 10
121.3021289063
 20
10.7774816284
  0
LWPOLYLINE
  5
306
100
AcDbEntity
  8
0
100
AcDbPolyline
 62
2
  6
CONTINUOUS
 90
2
 70
0
 43
0.25
 10
123.3127871094
 20
14.9441485596
 10
124.4377734375
 20
14.9441485596
  0
LWPOLYLINE
  5
307
100
AcDbEntity
  8
0
100
AcDbPolyline
 62
2
  6
CONTINUOUS
 90
2
 70
0
 43
0.25
 10
123.8752910156
 20
14.9441485596
 10
122.8125019531
 20
9.9441483765
  0
LWPOLYLINE
  5
308
100
AcDbEntity
  8
0
100
AcDbPolyline
 62
2
  6
CONTINUOUS
 90
3
 70
0
 43
0.25
 10
128.1616386719
 20
13.2774820557
 10
128.7971679687
 20
14.9441485596
 10
127.7343789062
 20
9.9441483765
  0
LWPOLYLINE
  5
309
100
AcDbEntity
  8
0
100
AcDbPolyline
 62
2
  6
CONTINUOUS
 90
2
 70
0
 43
0.25
 10
127.4531269531
 20
9.9441483765
 10
128.0156308594
 20
9.9441483765
  0
LWPOLYLINE
  5
30A
100
AcDbEntity
  8
0
100
AcDbPolyline
 62
2
  6
CONTINUOUS
 90
9
 70
0
 43
0.25
 10
129.2812539062
 20
9.9441483765
 10
129.177140625
 20
10.7774816284
 10
129.8856523438
 20
14.1108153076
 10
130.3440429687
 20
14.9441485596
 10
130.9065253906
 20
14.9441485596
 10
131.0106601563
 20
14.1108153076
 10
130.3021269531
 20
10.7774816284
 10
129.8437578125
 20
9.9441483765
 10
129.2812539062
 20
9.9441483765
  0
LWPOLYLINE
  5
30B
100
AcDbEntity
  8
0
100
AcDbPolyline
 62
2
  6
CONTINUOUS
 90
9
 70
0
 43
0.25
 10
131.4271347656
 20
10.7774816284
 10
131.5312480469
 20
9.9441483765
 10
132.0937519531
 20
9.9441483765
 10
132.5521210938
 20
10.7774816284
 10
132.9063984375
 20
12.4441488037
 10
132.8022636719
 20
13.2774820557
 10
131.9585292969
 20
13.2774820557
 10
132.3127851562
 20
14.9441485596
 10
133.4377929687
 20
14.9441485596
  0
LWPOLYLINE
  5
30C
100
AcDbEntity
  8
0
100
AcDbPolyline
 62
2
  6
CONTINUOUS
 90
9
 70
0
 43
0.25
 10
133.7812421875
 20
9.9441483765
 10
133.6771289063
 20
10.7774816284
 10
134.3856621094
 20
14.1108153076
 10
134.84403125
 20
14.9441485596
 10
135.4065351562
 20
14.9441485596
 10
135.5106484375
 20
14.1108153076
 10
134.8021367188
 20
10.7774816284
 10
134.3437460937
 20
9.9441483765
 10
133.7812421875
 20
9.9441483765
  0
LWPOLYLINE
  5
30D
100
AcDbEntity
  8
0
100
AcDbPolyline
 62
2
  6
CONTINUOUS
 90
2
 70
0
 43
0.25
 10
136.8438828125
 20
12.4441488037
 10
137.968890625
 20
12.4441488037
  0
LWPOLYLINE
  5
30E
100
AcDbEntity
  8
0
100
AcDbPolyline
 62
2
  6
CONTINUOUS
 90
9
 70
0
 43
0.25
 10
138.2812519531
 20
9.9441483765
 10
138.8437558594
 20
9.9441483765
 10
139.302125
 20
10.7774816284
 10
139.4792636719
 20
11.6108155518
 10
139.3751503906
 20
12.4441488037
 10
138.8126464844
 20
12.4441488037
 10
138.3542558594
 20
11.6108155518
 10
138.1771386719
 20
10.7774816284
 10
138.2812519531
 20
9.9441483765
  0
LWPOLYLINE
  5
30F
100
AcDbEntity
  8
0
100
AcDbPolyline
 62
2
  6
CONTINUOUS
 90
8
 70
0
 43
0.25
 10
139.3751503906
 20
12.4441488037
 10
139.8335195313
 20
13.2774820557
 10
140.0106582031
 20
14.1108153076
 10
139.9065234375
 20
14.9441485596
 10
139.3440410156
 20
14.9441485596
 10
138.8856503906
 20
14.1108153076
 10
138.7085117188
 20
13.2774820557
 10
138.8126464844
 20
12.4441488037
  0
LWPOLYLINE
  5
310
100
AcDbEntity
  8
0
100
AcDbPolyline
 62
2
  6
CONTINUOUS
 90
9
 70
0
 43
0.25
 10
140.5312460937
 20
9.9441483765
 10
141.09375
 20
9.9441483765
 10
141.552140625
 20
10.7774816284
 10
141.7292578125
 20
11.6108155518
 10
141.6251445312
 20
12.4441488037
 10
141.062640625
 20
12.4441488037
 10
140.6042714844
 20
11.6108155518
 10
140.4271328125
 20
10.7774816284
 10
140.5312460937
 20
9.9441483765
  0
LWPOLYLINE
  5
311
100
AcDbEntity
  8
0
100
AcDbPolyline
 62
2
  6
CONTINUOUS
 90
8
 70
0
 43
0.25
 10
141.6251445312
 20
12.4441488037
 10
142.0835136719
 20
13.2774820557
 10
142.2606523438
 20
14.1108153076
 10
142.1565390625
 20
14.9441485596
 10
141.5940351562
 20
14.9441485596
 10
141.1356445312
 20
14.1108153076
 10
140.9585273438
 20
13.2774820557
 10
141.062640625
 20
12.4441488037
  0
LWPOLYLINE
  5
312
100
AcDbEntity
  8
0
100
AcDbPolyline
 62
2
  6
CONTINUOUS
 90
6
 70
0
 43
0.25
 10
38.45
 20
5.7875797729
 10
39.2037470703
 20
5.7875797729
 10
39.5736757812
 20
6.3459130249
 10
39.6923554687
 20
6.9042462769
 10
39.5597861328
 20
7.4625795288
 10
38.8060283203
 20
7.4625795288
  0
LWPOLYLINE
  5
313
100
AcDbEntity
  8
0
100
AcDbPolyline
 62
2
  6
CONTINUOUS
 90
3
 70
0
 43
0.25
 10
38.45
 20
5.7875797729
 10
39.1620673828
 20
9.1375792847
 10
39.9158144531
 20
9.1375792847
  0
LWPOLYLINE
  5
314
100
AcDbEntity
  8
0
100
AcDbPolyline
 62
2
  6
CONTINUOUS
 90
2
 70
0
 43
0.25
 10
40.9347109375
 20
8.0209127808
 10
40.9625009766
 20
5.7875797729
  0
LWPOLYLINE
  5
315
100
AcDbEntity
  8
0
100
AcDbPolyline
 62
2
  6
CONTINUOUS
 90
3
 70
0
 43
0.25
 10
40.2226435547
 20
4.6709129333
 10
40.4738925781
 20
4.6709129333
 10
41.9397070312
 20
8.0209127808
  0
LWPOLYLINE
  5
316
100
AcDbEntity
  8
0
100
AcDbPolyline
 62
2
  6
CONTINUOUS
 90
3
 70
0
 43
0.25
 10
42.4699951172
 20
5.7875797729
 10
43.4472119141
 20
8.0209127808
 10
43.4750019531
 20
5.7875797729
  0
LWPOLYLINE
  5
317
100
AcDbEntity
  8
0
100
AcDbPolyline
 62
2
  6
CONTINUOUS
 90
2
 70
0
 43
0.25
 10
44.9547060547
 20
8.0209127808
 10
44.4799980469
 20
5.7875797729
  0
LWPOLYLINE
  5
318
100
AcDbEntity
  8
0
100
AcDbPolyline
 62
2
  6
CONTINUOUS
 90
2
 70
0
 43
0.25
 10
44.5986777344
 20
6.3459130249
 10
45.9597128906
 20
8.0209127808
  0
LWPOLYLINE
  5
319
100
AcDbEntity
  8
0
100
AcDbPolyline
 62
2
  6
CONTINUOUS
 90
2
 70
0
 43
0.25
 10
45.0942255859
 20
6.9042462769
 10
45.4850048828
 20
5.7875797729
  0
LWPOLYLINE
  5
31A
100
AcDbEntity
  8
0
100
AcDbPolyline
 62
2
  6
CONTINUOUS
 90
5
 70
0
 43
0.25
 10
46.9647089844
 20
8.0209127808
 10
46.6086806641
 20
6.3459130249
 10
46.74125
 20
5.7875797729
 10
46.9924990234
 20
5.7875797729
 10
47.7323564453
 20
6.9042462769
  0
LWPOLYLINE
  5
31B
100
AcDbEntity
  8
0
100
AcDbPolyline
 62
2
  6
CONTINUOUS
 90
2
 70
0
 43
0.25
 10
47.9697050781
 20
8.0209127808
 10
47.4949970703
 20
5.7875797729
  0
LWPOLYLINE
  5
31C
100
AcDbEntity
  8
0
100
AcDbPolyline
 62
2
  6
CONTINUOUS
 90
2
 70
0
 43
0.25
 10
48.5000039062
 20
5.7875797729
 10
48.9747119141
 20
8.0209127808
  0
LWPOLYLINE
  5
31D
100
AcDbEntity
  8
0
100
AcDbPolyline
 62
2
  6
CONTINUOUS
 90
2
 70
0
 43
0.25
 10
48.7373525391
 20
6.9042462769
 10
49.742359375
 20
6.9042462769
  0
LWPOLYLINE
  5
31E
100
AcDbEntity
  8
0
100
AcDbPolyline
 62
2
  6
CONTINUOUS
 90
2
 70
0
 43
0.25
 10
49.9797080078
 20
8.0209127808
 10
49.505
 20
5.7875797729
  0
LWPOLYLINE
  5
31F
100
AcDbEntity
  8
0
100
AcDbPolyline
 62
2
  6
CONTINUOUS
 90
3
 70
0
 43
0.25
 10
52.5199990234
 20
5.7875797729
 10
53.7345644531
 20
9.1375792847
 10
53.5249951172
 20
5.7875797729
  0
LWPOLYLINE
  5
320
100
AcDbEntity
  8
0
100
AcDbPolyline
 62
2
  6
CONTINUOUS
 90
2
 70
0
 43
0.25
 10
53.0086074219
 20
6.9042462769
 10
53.5111054687
 20
6.9042462769
  0
LWPOLYLINE
  5
321
100
AcDbEntity
  8
0
100
AcDbPolyline
 62
2
  6
CONTINUOUS
 90
5
 70
0
 43
0.25
 10
54.6556210937
 20
5.7875797729
 10
54.5300019531
 20
5.7875797729
 10
54.5893417969
 20
6.0667463989
 10
54.7149609375
 20
6.0667463989
 10
54.6556210937
 20
5.7875797729
  0
LWPOLYLINE
  5
322
100
AcDbEntity
  8
0
100
AcDbPolyline
 62
2
  6
CONTINUOUS
 90
4
 70
0
 43
0.25
 10
56.5400048828
 20
5.7875797729
 10
57.2520615234
 20
9.1375792847
 10
58.2570683594
 20
9.1375792847
 10
57.5450009766
 20
5.7875797729
  0
LWPOLYLINE
  5
323
100
AcDbEntity
  8
0
100
AcDbPolyline
 62
2
  6
CONTINUOUS
 90
5
 70
0
 43
0.25
 10
24.5986796875
 20
6.3459130249
 10
24.7312490234
 20
5.7875797729
 10
25.2337470703
 20
5.7875797729
 10
25.6036757812
 20
6.3459130249
 10
26.1970634766
 20
9.1375792847
  0
LWPOLYLINE
  5
324
100
AcDbEntity
  8
0
100
AcDbPolyline
 62
2
  6
CONTINUOUS
 90
4
 70
0
 43
0.25
 10
25.1920673828
 20
9.1375792847
 10
24.9547080078
 20
8.0209127808
 10
25.0872773437
 20
7.4625795288
 10
25.8410351562
 20
7.4625795288
  0
LWPOLYLINE
  5
325
100
AcDbEntity
  8
0
100
AcDbPolyline
 62
2
  6
CONTINUOUS
 90
2
 70
0
 43
0.25
 10
26.4900029297
 20
5.7875797729
 10
26.9647109375
 20
8.0209127808
  0
LWPOLYLINE
  5
326
100
AcDbEntity
  8
0
100
AcDbPolyline
 62
2
  6
CONTINUOUS
 90
4
 70
0
 43
0.25
 10
26.84603125
 20
7.4625795288
 10
27.2159599609
 20
8.0209127808
 10
27.3485292969
 20
7.4625795288
 10
26.9925009766
 20
5.7875797729
  0
LWPOLYLINE
  5
327
100
AcDbEntity
  8
0
100
AcDbPolyline
 62
2
  6
CONTINUOUS
 90
4
 70
0
 43
0.25
 10
27.3485292969
 20
7.4625795288
 10
27.7184580078
 20
8.0209127808
 10
27.8510273437
 20
7.4625795288
 10
27.4949990234
 20
5.7875797729
  0
LWPOLYLINE
  5
328
100
AcDbEntity
  8
0
100
AcDbPolyline
 62
2
  6
CONTINUOUS
 90
12
 70
0
 43
0.25
 10
28.8560341797
 20
7.4625795288
 10
29.5958916016
 20
8.5792460327
 10
29.7145605469
 20
9.1375792847
 10
29.4633115234
 20
9.1375792847
 10
29.0933828125
 20
8.5792460327
 10
28.6186748047
 20
6.3459130249
 10
28.7512548828
 20
5.7875797729
 10
29.2537529297
 20
5.7875797729
 10
29.6236816406
 20
6.3459130249
 10
29.8610302734
 20
7.4625795288
 10
29.7284609375
 20
8.0209127808
 10
29.2259628906
 20
8.0209127808
  0
LWPOLYLINE
  5
329
100
AcDbEntity
  8
0
100
AcDbPolyline
 62
2
  6
CONTINUOUS
 90
5
 70
0
 43
0.25
 10
30.6356279297
 20
5.7875797729
 10
30.5099980469
 20
5.7875797729
 10
30.5693378906
 20
6.0667463989
 10
30.6949677734
 20
6.0667463989
 10
30.6356279297
 20
5.7875797729
  0
LWPOLYLINE
  5
32A
100
AcDbEntity
  8
0
100
AcDbPolyline
 62
2
  6
CONTINUOUS
 90
2
 70
0
 43
0.25
 10
20.4600048828
 20
10.7875792847
 10
21.1720615234
 20
14.1375794678
  0
LWPOLYLINE
  5
32B
100
AcDbEntity
  8
0
100
AcDbPolyline
 62
2
  6
CONTINUOUS
 90
2
 70
0
 43
0.25
 10
20.8160332031
 20
12.4625797119
 10
21.8210292969
 20
12.4625797119
  0
LWPOLYLINE
  5
32C
100
AcDbEntity
  8
0
100
AcDbPolyline
 62
2
  6
CONTINUOUS
 90
2
 70
0
 43
0.25
 10
22.1770683594
 20
14.1375794678
 10
21.4650009766
 20
10.7875792847
  0
LWPOLYLINE
  5
32D
100
AcDbEntity
  8
0
100
AcDbPolyline
 62
2
  6
CONTINUOUS
 90
5
 70
0
 43
0.25
 10
22.5956269531
 20
10.7875792847
 10
22.4699970703
 20
10.7875792847
 10
22.5293369141
 20
11.0667459106
 10
22.6549667969
 20
11.0667459106
 10
22.5956269531
 20
10.7875792847
  0
LWPOLYLINE
  5
32E
100
AcDbEntity
  8
0
100
AcDbPolyline
 62
2
  6
CONTINUOUS
 90
2
 70
0
 43
0.25
 10
24.9547080078
 20
13.0209129639
 10
24.48
 20
10.7875792847
  0
LWPOLYLINE
  5
32F
100
AcDbEntity
  8
0
100
AcDbPolyline
 62
2
  6
CONTINUOUS
 90
2
 70
0
 43
0.25
 10
24.5986796875
 20
11.345913208
 10
25.9597148437
 20
13.0209129639
  0
LWPOLYLINE
  5
330
100
AcDbEntity
  8
0
100
AcDbPolyline
 62
2
  6
CONTINUOUS
 90
2
 70
0
 43
0.25
 10
25.0942275391
 20
11.90424646
 10
25.4849960937
 20
10.7875792847
  0
LWPOLYLINE
  5
331
100
AcDbEntity
  8
0
100
AcDbPolyline
 62
2
  6
CONTINUOUS
 90
9
 70
0
 43
0.25
 10
26.6086826172
 20
11.345913208
 10
26.7412519531
 20
10.7875792847
 10
27.24375
 20
10.7875792847
 10
27.6136787109
 20
11.345913208
 10
27.8510273437
 20
12.4625797119
 10
27.7184580078
 20
13.0209129639
 10
27.2159599609
 20
13.0209129639
 10
26.84603125
 20
12.4625797119
 10
26.6086826172
 20
11.345913208
  0
LWPOLYLINE
  5
332
100
AcDbEntity
  8
0
100
AcDbPolyline
 62
2
  6
CONTINUOUS
 90
2
 70
0
 43
0.25
 10
28.4999951172
 20
10.7875792847
 10
28.9747138672
 20
13.0209129639
  0
LWPOLYLINE
  5
333
100
AcDbEntity
  8
0
100
AcDbPolyline
 62
2
  6
CONTINUOUS
 90
2
 70
0
 43
0.25
 10
28.7373544922
 20
11.90424646
 10
29.7423505859
 20
11.90424646
  0
LWPOLYLINE
  5
334
100
AcDbEntity
  8
0
100
AcDbPolyline
 62
2
  6
CONTINUOUS
 90
2
 70
0
 43
0.25
 10
29.9797099609
 20
13.0209129639
 10
29.5050019531
 20
10.7875792847
  0
LWPOLYLINE
  5
335
100
AcDbEntity
  8
0
100
AcDbPolyline
 62
2
  6
CONTINUOUS
 90
2
 70
0
 43
0.25
 10
30.5099980469
 20
10.7875792847
 10
30.9847060547
 20
13.0209129639
  0
LWPOLYLINE
  5
336
100
AcDbEntity
  8
0
100
AcDbPolyline
 62
2
  6
CONTINUOUS
 90
4
 70
0
 43
0.25
 10
30.8660371094
 20
12.4625797119
 10
31.2359550781
 20
13.0209129639
 10
31.3685351562
 20
12.4625797119
 10
31.0124960937
 20
10.7875792847
  0
LWPOLYLINE
  5
337
100
AcDbEntity
  8
0
100
AcDbPolyline
 62
2
  6
CONTINUOUS
 90
4
 70
0
 43
0.25
 10
31.3685351562
 20
12.4625797119
 10
31.7384638672
 20
13.0209129639
 10
31.8710332031
 20
12.4625797119
 10
31.5150048828
 20
10.7875792847
  0
LWPOLYLINE
  5
338
100
AcDbEntity
  8
0
100
AcDbPolyline
 62
2
  6
CONTINUOUS
 90
2
 70
0
 43
0.25
 10
32.2826416016
 20
9.6709127808
 10
32.9947089844
 20
13.0209129639
  0
LWPOLYLINE
  5
339
100
AcDbEntity
  8
0
100
AcDbPolyline
 62
2
  6
CONTINUOUS
 90
7
 70
0
 43
0.25
 10
32.5200009766
 20
10.7875792847
 10
33.2737480469
 20
10.7875792847
 10
33.6436767578
 20
11.345913208
 10
33.8810361328
 20
12.4625797119
 10
33.7484560547
 20
13.0209129639
 10
33.2459580078
 20
13.0209129639
 10
32.8760292969
 20
12.4625797119
  0
LWPOLYLINE
  5
33A
100
AcDbEntity
  8
0
100
AcDbPolyline
 62
2
  6
CONTINUOUS
 90
5
 70
0
 43
0.25
 10
34.6556230469
 20
10.7875792847
 10
34.5300039062
 20
10.7875792847
 10
34.58934375
 20
11.0667459106
 10
34.7149628906
 20
11.0667459106
 10
34.6556230469
 20
10.7875792847
  0
LWPOLYLINE
  5
33B
100
AcDbEntity
  8
0
100
AcDbPolyline
 62
2
  6
CONTINUOUS
 90
3
 70
0
 43
0.25
 10
181.9599960937
 20
20.7875789795
 10
183.1745722656
 20
24.137579834
 10
182.9649921875
 20
20.7875789795
  0
LWPOLYLINE
  5
33C
100
AcDbEntity
  8
0
100
AcDbPolyline
 62
2
  6
CONTINUOUS
 90
5
 70
0
 43
0.25
 10
184.4447070313
 20
23.0209133301
 10
184.0886679688
 20
21.3459122314
 10
184.2212480469
 20
20.7875789795
 10
184.4725078125
 20
20.7875789795
 10
185.2123652344
 20
21.9042468262
  0
LWPOLYLINE
  5
33D
100
AcDbEntity
  8
0
100
AcDbPolyline
 62
2
  6
CONTINUOUS
 90
2
 70
0
 43
0.25
 10
185.449703125
 20
23.0209133301
 10
184.9750058594
 20
20.7875789795
  0
LWPOLYLINE
  5
33E
100
AcDbEntity
  8
0
100
AcDbPolyline
 62
2
  6
CONTINUOUS
 90
8
 70
0
 43
0.25
 10
187.3410371094
 20
22.4625800781
 10
187.2084570312
 20
23.0209133301
 10
186.7059589844
 20
23.0209133301
 10
186.3360410156
 20
22.4625800781
 10
186.0986816406
 20
21.3459122314
 10
186.2312402344
 20
20.7875789795
 10
186.7337597656
 20
20.7875789795
 10
187.1036777344
 20
21.3459122314
  0
LWPOLYLINE
  5
33F
100
AcDbEntity
  8
0
100
AcDbPolyline
 62
2
  6
CONTINUOUS
 90
2
 70
0
 43
0.25
 10
187.9899941406
 20
20.7875789795
 10
188.4647128906
 20
23.0209133301
  0
LWPOLYLINE
  5
340
100
AcDbEntity
  8
0
100
AcDbPolyline
 62
2
  6
CONTINUOUS
 90
4
 70
0
 43
0.25
 10
188.3460332031
 20
22.4625800781
 10
188.7159511719
 20
23.0209133301
 10
188.84853125
 20
22.4625800781
 10
188.4924921875
 20
20.7875789795
  0
LWPOLYLINE
  5
341
100
AcDbEntity
  8
0
100
AcDbPolyline
 62
2
  6
CONTINUOUS
 90
4
 70
0
 43
0.25
 10
188.84853125
 20
22.4625800781
 10
189.2184492188
 20
23.0209133301
 10
189.3510292969
 20
22.4625800781
 10
188.9949902344
 20
20.7875789795
  0
LWPOLYLINE
  5
342
100
AcDbEntity
  8
0
100
AcDbPolyline
 62
2
  6
CONTINUOUS
 90
9
 70
0
 43
0.25
 10
190.1186875
 20
21.3459122314
 10
190.2512460937
 20
20.7875789795
 10
190.7537441406
 20
20.7875789795
 10
191.1236835937
 20
21.3459122314
 10
191.3610429688
 20
22.4625800781
 10
191.2284628906
 20
23.0209133301
 10
190.7259648438
 20
23.0209133301
 10
190.3560253906
 20
22.4625800781
 10
190.1186875
 20
21.3459122314
  0
LWPOLYLINE
  5
343
100
AcDbEntity
  8
0
100
AcDbPolyline
 62
2
  6
CONTINUOUS
 90
12
 70
0
 43
0.25
 10
192.3660390625
 20
22.4625800781
 10
193.1058964844
 20
23.579246582
 10
193.2245546875
 20
24.137579834
 10
192.9733164063
 20
24.137579834
 10
192.6033769531
 20
23.579246582
 10
192.1286796875
 20
21.3459122314
 10
192.2612597656
 20
20.7875789795
 10
192.7637578125
 20
20.7875789795
 10
193.1336757812
 20
21.3459122314
 10
193.3710351562
 20
22.4625800781
 10
193.2384550781
 20
23.0209133301
 10
192.7359570313
 20
23.0209133301
  0
LWPOLYLINE
  5
344
100
AcDbEntity
  8
0
100
AcDbPolyline
 62
2
  6
CONTINUOUS
 90
3
 70
0
 43
0.25
 10
197.1328417969
 20
23.0209133301
 10
197.6214394531
 20
24.137579834
 10
196.9093828125
 20
20.7875789795
  0
LWPOLYLINE
  5
345
100
AcDbEntity
  8
0
100
AcDbPolyline
 62
2
  6
CONTINUOUS
 90
2
 70
0
 43
0.25
 10
196.6581230469
 20
20.7875789795
 10
197.1606210938
 20
20.7875789795
  0
LWPOLYLINE
  5
346
100
AcDbEntity
  8
0
100
AcDbPolyline
 62
2
  6
CONTINUOUS
 90
3
 70
0
 43
0.25
 10
160.9800097656
 20
20.7875789795
 10
162.1945644531
 20
24.137579834
 10
161.9850058594
 20
20.7875789795
  0
LWPOLYLINE
  5
347
100
AcDbEntity
  8
0
100
AcDbPolyline
 62
2
  6
CONTINUOUS
 90
5
 70
0
 43
0.25
 10
163.4646992187
 20
23.0209133301
 10
163.1086816406
 20
21.3459122314
 10
163.2412402344
 20
20.7875789795
 10
163.4925
 20
20.7875789795
 10
164.2323574219
 20
21.9042468262
  0
LWPOLYLINE
  5
348
100
AcDbEntity
  8
0
100
AcDbPolyline
 62
2
  6
CONTINUOUS
 90
2
 70
0
 43
0.25
 10
164.4697167969
 20
23.0209133301
 10
163.9949980469
 20
20.7875789795
  0
LWPOLYLINE
  5
349
100
AcDbEntity
  8
0
100
AcDbPolyline
 62
2
  6
CONTINUOUS
 90
8
 70
0
 43
0.25
 10
166.3610292969
 20
22.4625800781
 10
166.2284492188
 20
23.0209133301
 10
165.7259511719
 20
23.0209133301
 10
165.3560332031
 20
22.4625800781
 10
165.1186738281
 20
21.3459122314
 10
165.2512539062
 20
20.7875789795
 10
165.7537519531
 20
20.7875789795
 10
166.1236699219
 20
21.3459122314
  0
LWPOLYLINE
  5
34A
100
AcDbEntity
  8
0
100
AcDbPolyline
 62
2
  6
CONTINUOUS
 90
2
 70
0
 43
0.25
 10
167.0100078125
 20
20.7875789795
 10
167.4847050781
 20
23.0209133301
  0
LWPOLYLINE
  5
34B
100
AcDbEntity
  8
0
100
AcDbPolyline
 62
2
  6
CONTINUOUS
 90
4
 70
0
 43
0.25
 10
167.3660253906
 20
22.4625800781
 10
167.7359648438
 20
23.0209133301
 10
167.8685234375
 20
22.4625800781
 10
167.5125058594
 20
20.7875789795
  0
LWPOLYLINE
  5
34C
100
AcDbEntity
  8
0
100
AcDbPolyline
 62
2
  6
CONTINUOUS
 90
4
 70
0
 43
0.25
 10
167.8685234375
 20
22.4625800781
 10
168.2384628906
 20
23.0209133301
 10
168.3710429688
 20
22.4625800781
 10
168.0150039063
 20
20.7875789795
  0
LWPOLYLINE
  5
34D
100
AcDbEntity
  8
0
100
AcDbPolyline
 62
2
  6
CONTINUOUS
 90
4
 70
0
 43
0.25
 10
112.2753398438
 20
35.432979248
 10
111.0000058594
 20
29.4329787598
 10
112.8000097656
 20
29.4329787598
 10
114.07534375
 20
35.432979248
  0
LWPOLYLINE
  5
34E
100
AcDbEntity
  8
0
100
AcDbPolyline
 62
2
  6
CONTINUOUS
 90
2
 70
0
 43
0.25
 10
113.1753417969
 20
35.432979248
 10
111.9000078125
 20
29.4329787598
  0
LWPOLYLINE
  5
34F
100
AcDbEntity
  8
0
100
AcDbPolyline
 62
2
  6
CONTINUOUS
 90
8
 70
0
 43
0.25
 10
117.0376738281
 20
32.4329790039
 10
116.8002285156
 20
33.4329772949
 10
115.9002265625
 20
33.4329772949
 10
115.2376699219
 20
32.4329790039
 10
114.8125585938
 20
30.4329770508
 10
115.0500039063
 20
29.4329787598
 10
115.9500058594
 20
29.4329787598
 10
116.6125625
 20
30.4329770508
  0
LWPOLYLINE
  5
350
100
AcDbEntity
  8
0
100
AcDbPolyline
 62
2
  6
CONTINUOUS
 90
3
 70
0
 43
0.25
 10
117.25021875
 20
33.4329772949
 10
116.6125625
 20
30.4329770508
 10
116.6250019531
 20
29.4329787598
  0
LWPOLYLINE
  5
351
100
AcDbEntity
  8
0
100
AcDbPolyline
 62
2
  6
CONTINUOUS
 90
5
 70
0
 43
0.25
 10
119.0502226562
 20
33.4329772949
 10
118.4125664062
 20
30.4329770508
 10
118.6499902344
 20
29.4329787598
 10
119.1000019531
 20
29.4329787598
 10
120.4251152344
 20
31.4329780273
  0
LWPOLYLINE
  5
352
100
AcDbEntity
  8
0
100
AcDbPolyline
 62
2
  6
CONTINUOUS
 90
2
 70
0
 43
0.25
 10
120.8502265625
 20
33.4329772949
 10
120.0000039062
 20
29.4329787598
  0
LWPOLYLINE
  5
353
100
AcDbEntity
  8
0
100
AcDbPolyline
 62
2
  6
CONTINUOUS
 90
2
 70
0
 43
0.25
 10
119.500234375
 20
33.4329772949
 10
120.4002363281
 20
33.4329772949
  0
LWPOLYLINE
  5
354
100
AcDbEntity
  8
0
100
AcDbPolyline
 62
2
  6
CONTINUOUS
 90
10
 70
0
 43
0.25
 10
124.0002226563
 20
33.4329772949
 10
123.1002207031
 20
33.4329772949
 10
122.4376640625
 20
32.4329790039
 10
122.0125527344
 20
30.4329770508
 10
122.2499980469
 20
29.4329787598
 10
123.15
 20
29.4329787598
 10
123.8125566406
 20
30.4329770508
 10
124.2376679688
 20
32.4329790039
 10
123.5253320313
 20
35.432979248
 10
124.8753457031
 20
35.432979248
  0
LWPOLYLINE
  5
355
100
AcDbEntity
  8
0
100
AcDbPolyline
 62
2
  6
CONTINUOUS
 90
8
 70
0
 43
0.25
 10
127.8376757813
 20
32.4329790039
 10
127.6002304688
 20
33.4329772949
 10
126.7002285156
 20
33.4329772949
 10
126.037671875
 20
32.4329790039
 10
125.6125605469
 20
30.4329770508
 10
125.8500058594
 20
29.4329787598
 10
126.7500078125
 20
29.4329787598
 10
127.4125644531
 20
30.4329770508
  0
LWPOLYLINE
  5
356
100
AcDbEntity
  8
0
100
AcDbPolyline
 62
2
  6
CONTINUOUS
 90
3
 70
0
 43
0.25
 10
128.0502207031
 20
33.4329772949
 10
127.4125644531
 20
30.4329770508
 10
127.4250039063
 20
29.4329787598
  0
LWPOLYLINE
  5
357
100
AcDbEntity
  8
0
100
AcDbPolyline
 62
2
  6
CONTINUOUS
 90
2
 70
0
 43
0.25
 10
21.1720615234
 20
24.137579834
 10
22.1770683594
 20
24.137579834
  0
LWPOLYLINE
  5
358
100
AcDbEntity
  8
0
100
AcDbPolyline
 62
2
  6
CONTINUOUS
 90
2
 70
0
 43
0.25
 10
21.6745595703
 20
24.137579834
 10
20.9625029297
 20
20.7875789795
  0
LWPOLYLINE
  5
359
100
AcDbEntity
  8
0
100
AcDbPolyline
 62
2
  6
CONTINUOUS
 90
5
 70
0
 43
0.25
 10
22.5956269531
 20
20.7875789795
 10
22.4699970703
 20
20.7875789795
 10
22.5293369141
 20
21.0667456055
 10
22.6549667969
 20
21.0667456055
 10
22.5956269531
 20
20.7875789795
  0
LWPOLYLINE
  5
35A
100
AcDbEntity
  8
0
100
AcDbPolyline
 62
2
  6
CONTINUOUS
 90
2
 70
0
 43
0.25
 10
24.9547080078
 20
23.0209133301
 10
24.48
 20
20.7875789795
  0
LWPOLYLINE
  5
35B
100
AcDbEntity
  8
0
100
AcDbPolyline
 62
2
  6
CONTINUOUS
 90
2
 70
0
 43
0.25
 10
24.5986796875
 20
21.3459122314
 10
25.9597148437
 20
23.0209133301
  0
LWPOLYLINE
  5
35C
100
AcDbEntity
  8
0
100
AcDbPolyline
 62
2
  6
CONTINUOUS
 90
2
 70
0
 43
0.25
 10
25.0942275391
 20
21.9042468262
 10
25.4849960937
 20
20.7875789795
  0
LWPOLYLINE
  5
35D
100
AcDbEntity
  8
0
100
AcDbPolyline
 62
2
  6
CONTINUOUS
 90
9
 70
0
 43
0.25
 10
26.6086826172
 20
21.3459122314
 10
26.7412519531
 20
20.7875789795
 10
27.24375
 20
20.7875789795
 10
27.6136787109
 20
21.3459122314
 10
27.8510273437
 20
22.4625800781
 10
27.7184580078
 20
23.0209133301
 10
27.2159599609
 20
23.0209133301
 10
26.84603125
 20
22.4625800781
 10
26.6086826172
 20
21.3459122314
  0
LWPOLYLINE
  5
35E
100
AcDbEntity
  8
0
100
AcDbPolyline
 62
2
  6
CONTINUOUS
 90
2
 70
0
 43
0.25
 10
28.4999951172
 20
20.7875789795
 10
28.9747138672
 20
23.0209133301
  0
LWPOLYLINE
  5
35F
100
AcDbEntity
  8
0
100
AcDbPolyline
 62
2
  6
CONTINUOUS
 90
2
 70
0
 43
0.25
 10
28.7373544922
 20
21.9042468262
 10
29.7423505859
 20
21.9042468262
  0
LWPOLYLINE
  5
360
100
AcDbEntity
  8
0
100
AcDbPolyline
 62
2
  6
CONTINUOUS
 90
2
 70
0
 43
0.25
 10
29.9797099609
 20
23.0209133301
 10
29.5050019531
 20
20.7875789795
  0
LWPOLYLINE
  5
361
100
AcDbEntity
  8
0
100
AcDbPolyline
 62
2
  6
CONTINUOUS
 90
2
 70
0
 43
0.25
 10
30.5099980469
 20
20.7875789795
 10
30.9847060547
 20
23.0209133301
  0
LWPOLYLINE
  5
362
100
AcDbEntity
  8
0
100
AcDbPolyline
 62
2
  6
CONTINUOUS
 90
4
 70
0
 43
0.25
 10
30.8660371094
 20
22.4625800781
 10
31.2359550781
 20
23.0209133301
 10
31.3685351562
 20
22.4625800781
 10
31.0124960937
 20
20.7875789795
  0
LWPOLYLINE
  5
363
100
AcDbEntity
  8
0
100
AcDbPolyline
 62
2
  6
CONTINUOUS
 90
4
 70
0
 43
0.25
 10
31.3685351562
 20
22.4625800781
 10
31.7384638672
 20
23.0209133301
 10
31.8710332031
 20
22.4625800781
 10
31.5150048828
 20
20.7875789795
  0
LWPOLYLINE
  5
364
100
AcDbEntity
  8
0
100
AcDbPolyline
 62
2
  6
CONTINUOUS
 90
2
 70
0
 43
0.25
 10
32.2826416016
 20
19.6709124756
 10
32.9947089844
 20
23.0209133301
  0
LWPOLYLINE
  5
365
100
AcDbEntity
  8
0
100
AcDbPolyline
 62
2
  6
CONTINUOUS
 90
7
 70
0
 43
0.25
 10
32.5200009766
 20
20.7875789795
 10
33.2737480469
 20
20.7875789795
 10
33.6436767578
 20
21.3459122314
 10
33.8810361328
 20
22.4625800781
 10
33.7484560547
 20
23.0209133301
 10
33.2459580078
 20
23.0209133301
 10
32.8760292969
 20
22.4625800781
  0
LWPOLYLINE
  5
366
100
AcDbEntity
  8
0
100
AcDbPolyline
 62
2
  6
CONTINUOUS
 90
5
 70
0
 43
0.25
 10
34.6556230469
 20
20.7875789795
 10
34.5300039062
 20
20.7875789795
 10
34.58934375
 20
21.0667456055
 10
34.7149628906
 20
21.0667456055
 10
34.6556230469
 20
20.7875789795
  0
LWPOLYLINE
  5
367
100
AcDbEntity
  8
0
100
AcDbPolyline
 62
2
  6
CONTINUOUS
 90
3
 70
0
 43
0.25
 10
192.0044355469
 20
33.5884758301
 10
193.0253945312
 20
35.9218078613
 10
191.5374941406
 20
28.921809082
  0
LWPOLYLINE
  5
368
100
AcDbEntity
  8
0
100
AcDbPolyline
 62
2
  6
CONTINUOUS
 90
2
 70
0
 43
0.25
 10
191.0125019531
 20
28.921809082
 10
192.0625078125
 20
28.921809082
  0
LWPOLYLINE
  5
369
100
AcDbEntity
  8
0
100
AcDbPolyline
 62
2
  6
CONTINUOUS
 90
5
 70
0
 43
0.25
 10
195.0304453125
 20
33.0051401367
 10
194.7679492187
 20
33.0051401367
 10
194.8919355469
 20
33.5884758301
 10
195.1544316406
 20
33.5884758301
 10
195.0304453125
 20
33.0051401367
  0
LWPOLYLINE
  5
36A
100
AcDbEntity
  8
0
100
AcDbPolyline
 62
2
  6
CONTINUOUS
 90
5
 70
0
 43
0.25
 10
194.1624980469
 20
28.921809082
 10
193.9000019531
 20
28.921809082
 10
194.0239882812
 20
29.5051420898
 10
194.286484375
 20
29.5051420898
 10
194.1624980469
 20
28.921809082
  0
LWPOLYLINE
  5
36B
100
AcDbEntity
  8
0
100
AcDbPolyline
 62
2
  6
CONTINUOUS
 90
3
 70
0
 43
0.25
 10
200.4044394531
 20
33.5884758301
 10
201.4253984375
 20
35.9218078613
 10
199.9374980469
 20
28.921809082
  0
LWPOLYLINE
  5
36C
100
AcDbEntity
  8
0
100
AcDbPolyline
 62
2
  6
CONTINUOUS
 90
2
 70
0
 43
0.25
 10
199.4125058594
 20
28.921809082
 10
200.4624902344
 20
28.921809082
  0
LWPOLYLINE
  5
36D
100
AcDbEntity
  8
0
100
AcDbPolyline
 62
2
  6
CONTINUOUS
 90
9
 70
0
 43
0.25
 10
173.8124980469
 20
29.9441484375
 10
173.677125
 20
30.7774816895
 10
174.3856582031
 20
34.1108146973
 10
174.8752871094
 20
34.9441479492
 10
175.5002890625
 20
34.9441479492
 10
175.6356621094
 20
34.1108146973
 10
174.9271289063
 20
30.7774816895
 10
174.4375
 20
29.9441484375
 10
173.8124980469
 20
29.9441484375
  0
LWPOLYLINE
  5
36E
100
AcDbEntity
  8
0
100
AcDbPolyline
 62
2
  6
CONTINUOUS
 90
6
 70
0
 43
0.25
 10
176.15625
 20
29.9441484375
 10
175.9999941406
 20
29.9441484375
 10
176.0885742187
 20
30.3608164063
 10
176.2448085938
 20
30.3608164063
 10
176.15625
 20
29.9441484375
 10
175.8228769531
 20
29.1108151855
  0
LWPOLYLINE
  5
36F
100
AcDbEntity
  8
0
100
AcDbPolyline
 62
2
  6
CONTINUOUS
 90
10
 70
0
 43
0.25
 10
179.3856523438
 20
34.1108146973
 10
179.87528125
 20
34.9441479492
 10
180.5002832031
 20
34.9441479492
 10
180.63565625
 20
34.1108146973
 10
180.2814003906
 20
32.4441481934
 10
179.7917714844
 20
31.6108149414
 10
179.1667695313
 20
31.6108149414
 10
178.677140625
 20
30.7774816895
 10
178.5000019531
 20
29.9441484375
 10
179.7500058594
 20
29.9441484375
  0
LWPOLYLINE
  5
370
100
AcDbEntity
  8
0
100
AcDbPolyline
 62
2
  6
CONTINUOUS
 90
3
 70
0
 43
0.25
 10
182.4897792969
 20
33.2774814453
 10
183.1565253906
 20
34.9441479492
 10
182.0937578125
 20
29.9441484375
  0
LWPOLYLINE
  5
371
100
AcDbEntity
  8
0
100
AcDbPolyline
 62
2
  6
CONTINUOUS
 90
2
 70
0
 43
0.25
 10
181.7812460937
 20
29.9441484375
 10
182.4062480469
 20
29.9441484375
  0
LWPOLYLINE
  5
372
100
AcDbEntity
  8
0
100
AcDbPolyline
 62
2
  6
CONTINUOUS
 90
6
 70
0
 43
0.25
 10
38.45
 20
25.787579834
 10
39.2037470703
 20
25.787579834
 10
39.5736757812
 20
26.3459130859
 10
39.6923554687
 20
26.9042463379
 10
39.5597861328
 20
27.4625795898
 10
38.8060283203
 20
27.4625795898
  0
LWPOLYLINE
  5
373
100
AcDbEntity
  8
0
100
AcDbPolyline
 62
2
  6
CONTINUOUS
 90
3
 70
0
 43
0.25
 10
38.45
 20
25.787579834
 10
39.1620673828
 20
29.1375793457
 10
39.9158144531
 20
29.1375793457
  0
LWPOLYLINE
  5
374
100
AcDbEntity
  8
0
100
AcDbPolyline
 62
2
  6
CONTINUOUS
 90
2
 70
0
 43
0.25
 10
40.9347109375
 20
28.0209128418
 10
40.9625009766
 20
25.787579834
  0
LWPOLYLINE
  5
375
100
AcDbEntity
  8
0
100
AcDbPolyline
 62
2
  6
CONTINUOUS
 90
3
 70
0
 43
0.25
 10
40.2226435547
 20
24.6709133301
 10
40.4738925781
 20
24.6709133301
 10
41.9397070312
 20
28.0209128418
  0
LWPOLYLINE
  5
376
100
AcDbEntity
  8
0
100
AcDbPolyline
 62
2
  6
CONTINUOUS
 90
3
 70
0
 43
0.25
 10
42.4699951172
 20
25.787579834
 10
43.4472119141
 20
28.0209128418
 10
43.4750019531
 20
25.787579834
  0
LWPOLYLINE
  5
377
100
AcDbEntity
  8
0
100
AcDbPolyline
 62
2
  6
CONTINUOUS
 90
2
 70
0
 43
0.25
 10
44.9547060547
 20
28.0209128418
 10
44.4799980469
 20
25.787579834
  0
LWPOLYLINE
  5
378
100
AcDbEntity
  8
0
100
AcDbPolyline
 62
2
  6
CONTINUOUS
 90
2
 70
0
 43
0.25
 10
44.5986777344
 20
26.3459130859
 10
45.9597128906
 20
28.0209128418
  0
LWPOLYLINE
  5
379
100
AcDbEntity
  8
0
100
AcDbPolyline
 62
2
  6
CONTINUOUS
 90
2
 70
0
 43
0.25
 10
45.0942255859
 20
26.9042463379
 10
45.4850048828
 20
25.787579834
  0
LWPOLYLINE
  5
37A
100
AcDbEntity
  8
0
100
AcDbPolyline
 62
2
  6
CONTINUOUS
 90
5
 70
0
 43
0.25
 10
46.9647089844
 20
28.0209128418
 10
46.6086806641
 20
26.3459130859
 10
46.74125
 20
25.787579834
 10
46.9924990234
 20
25.787579834
 10
47.7323564453
 20
26.9042463379
  0
LWPOLYLINE
  5
37B
100
AcDbEntity
  8
0
100
AcDbPolyline
 62
2
  6
CONTINUOUS
 90
2
 70
0
 43
0.25
 10
47.9697050781
 20
28.0209128418
 10
47.4949970703
 20
25.787579834
  0
LWPOLYLINE
  5
37C
100
AcDbEntity
  8
0
100
AcDbPolyline
 62
2
  6
CONTINUOUS
 90
2
 70
0
 43
0.25
 10
48.5000039062
 20
25.787579834
 10
48.9747119141
 20
28.0209128418
  0
LWPOLYLINE
  5
37D
100
AcDbEntity
  8
0
100
AcDbPolyline
 62
2
  6
CONTINUOUS
 90
2
 70
0
 43
0.25
 10
48.7373525391
 20
26.9042463379
 10
49.742359375
 20
26.9042463379
  0
LWPOLYLINE
  5
37E
100
AcDbEntity
  8
0
100
AcDbPolyline
 62
2
  6
CONTINUOUS
 90
2
 70
0
 43
0.25
 10
49.9797080078
 20
28.0209128418
 10
49.505
 20
25.787579834
  0
LWPOLYLINE
  5
37F
100
AcDbEntity
  8
0
100
AcDbPolyline
 62
2
  6
CONTINUOUS
 90
3
 70
0
 43
0.25
 10
52.5199990234
 20
25.787579834
 10
53.7345644531
 20
29.1375793457
 10
53.5249951172
 20
25.787579834
  0
LWPOLYLINE
  5
380
100
AcDbEntity
  8
0
100
AcDbPolyline
 62
2
  6
CONTINUOUS
 90
2
 70
0
 43
0.25
 10
53.0086074219
 20
26.9042463379
 10
53.5111054687
 20
26.9042463379
  0
LWPOLYLINE
  5
381
100
AcDbEntity
  8
0
100
AcDbPolyline
 62
2
  6
CONTINUOUS
 90
5
 70
0
 43
0.25
 10
54.6556210937
 20
25.787579834
 10
54.5300019531
 20
25.787579834
 10
54.5893417969
 20
26.0667451172
 10
54.7149609375
 20
26.0667451172
 10
54.6556210937
 20
25.787579834
  0
LWPOLYLINE
  5
382
100
AcDbEntity
  8
0
100
AcDbPolyline
 62
2
  6
CONTINUOUS
 90
4
 70
0
 43
0.25
 10
56.5400048828
 20
25.787579834
 10
57.2520615234
 20
29.1375793457
 10
58.2570683594
 20
29.1375793457
 10
57.5450009766
 20
25.787579834
  0
LWPOLYLINE
  5
383
100
AcDbEntity
  8
0
100
AcDbPolyline
 62
2
  6
CONTINUOUS
 90
4
 70
0
 43
0.25
 10
23.4750039062
 20
25.787579834
 10
24.1870605469
 20
29.1375793457
 10
25.1920673828
 20
29.1375793457
 10
24.48
 20
25.787579834
  0
LWPOLYLINE
  5
384
100
AcDbEntity
  8
0
100
AcDbPolyline
 62
2
  6
CONTINUOUS
 90
2
 70
0
 43
0.25
 10
25.2476474609
 20
24.6709133301
 10
25.9597148437
 20
28.0209128418
  0
LWPOLYLINE
  5
385
100
AcDbEntity
  8
0
100
AcDbPolyline
 62
2
  6
CONTINUOUS
 90
7
 70
0
 43
0.25
 10
25.4849960937
 20
25.787579834
 10
26.2387539062
 20
25.787579834
 10
26.6086826172
 20
26.3459130859
 10
26.84603125
 20
27.4625795898
 10
26.7134619141
 20
28.0209128418
 10
26.2109638672
 20
28.0209128418
 10
25.8410351562
 20
27.4625795898
  0
LWPOLYLINE
  5
386
100
AcDbEntity
  8
0
100
AcDbPolyline
 62
2
  6
CONTINUOUS
 90
9
 70
0
 43
0.25
 10
27.6136787109
 20
26.3459130859
 10
27.7462480469
 20
25.787579834
 10
28.2487460937
 20
25.787579834
 10
28.6186748047
 20
26.3459130859
 10
28.8560341797
 20
27.4625795898
 10
28.7234648437
 20
28.0209128418
 10
28.2209560547
 20
28.0209128418
 10
27.8510273437
 20
27.4625795898
 10
27.6136787109
 20
26.3459130859
  0
LWPOLYLINE
  5
387
100
AcDbEntity
  8
0
100
AcDbPolyline
 62
2
  6
CONTINUOUS
 90
12
 70
0
 43
0.25
 10
29.8610302734
 20
27.4625795898
 10
30.6008876953
 20
28.5792460938
 10
30.7195673828
 20
29.1375793457
 10
30.4683183594
 20
29.1375793457
 10
30.0983896484
 20
28.5792460938
 10
29.6236816406
 20
26.3459130859
 10
29.7562509766
 20
25.787579834
 10
30.2587490234
 20
25.787579834
 10
30.6286777344
 20
26.3459130859
 10
30.8660371094
 20
27.4625795898
 10
30.7334570312
 20
28.0209128418
 10
30.2309589844
 20
28.0209128418
  0
LWPOLYLINE
  5
388
100
AcDbEntity
  8
0
100
AcDbPolyline
 62
2
  6
CONTINUOUS
 90
5
 70
0
 43
0.25
 10
31.6406240234
 20
25.787579834
 10
31.5150048828
 20
25.787579834
 10
31.5743339844
 20
26.0667451172
 10
31.6999638672
 20
26.0667451172
 10
31.6406240234
 20
25.787579834
  0
LWPOLYLINE
  5
389
100
AcDbEntity
  8
0
100
AcDbPolyline
 62
2
  6
CONTINUOUS
 90
3
 70
0
 43
0.25
 10
76.6602939453
 20
32.8576418457
 10
76.9670048828
 20
33.624309082
 10
76.4781279297
 20
31.324307373
  0
LWPOLYLINE
  5
38A
100
AcDbEntity
  8
0
100
AcDbPolyline
 62
2
  6
CONTINUOUS
 90
2
 70
0
 43
0.25
 10
76.3343759766
 20
31.324307373
 10
76.6218798828
 20
31.324307373
  0
LWPOLYLINE
  5
38B
100
AcDbEntity
  8
0
100
AcDbPolyline
 62
2
  6
CONTINUOUS
 90
9
 70
0
 43
0.25
 10
77.2687529297
 20
31.324307373
 10
77.5562460937
 20
31.324307373
 10
77.7814775391
 20
31.707642334
 10
77.8629570312
 20
32.0909746094
 10
77.8006953125
 20
32.4743095703
 10
77.5131914062
 20
32.4743095703
 10
77.2879599609
 20
32.0909746094
 10
77.2064804687
 20
31.707642334
 10
77.2687529297
 20
31.324307373
  0
LWPOLYLINE
  5
38C
100
AcDbEntity
  8
0
100
AcDbPolyline
 62
2
  6
CONTINUOUS
 90
8
 70
0
 43
0.25
 10
77.8006953125
 20
32.4743095703
 10
78.0259160156
 20
32.8576418457
 10
78.1073955078
 20
33.2409741211
 10
78.0451337891
 20
33.624309082
 10
77.7576298828
 20
33.624309082
 10
77.5323984375
 20
33.2409741211
 10
77.4509189453
 20
32.8576418457
 10
77.5131914062
 20
32.4743095703
  0
LWPOLYLINE
  5
38D
100
AcDbEntity
  8
0
100
AcDbPolyline
 62
2
  6
CONTINUOUS
 90
5
 70
0
 43
0.25
 10
78.3468710937
 20
31.324307373
 10
78.2749951172
 20
31.324307373
 10
78.3157402344
 20
31.5159748535
 10
78.3876162109
 20
31.5159748535
 10
78.3468710937
 20
31.324307373
  0
LWPOLYLINE
  5
38E
100
AcDbEntity
  8
0
100
AcDbPolyline
 62
2
  6
CONTINUOUS
 90
9
 70
0
 43
0.25
 10
79.9138769531
 20
33.624309082
 10
80.4888847656
 20
33.624309082
 10
80.038421875
 20
32.8576418457
 10
80.1821738281
 20
32.8576418457
 10
80.2444355469
 20
32.4743095703
 10
80.0814765625
 20
31.707642334
 10
79.8562451172
 20
31.324307373
 10
79.5687519531
 20
31.324307373
 10
79.5064794922
 20
31.707642334
  0
LWPOLYLINE
  5
38F
100
AcDbEntity
  8
0
100
AcDbPolyline
 62
2
  6
CONTINUOUS
 90
5
 70
0
 43
0.25
 10
80.6468701172
 20
31.324307373
 10
80.5750048828
 20
31.324307373
 10
80.6157392578
 20
31.5159748535
 10
80.6876152344
 20
31.5159748535
 10
80.6468701172
 20
31.324307373
  0
LWPOLYLINE
  5
390
100
AcDbEntity
  8
0
100
AcDbPolyline
 62
2
  6
CONTINUOUS
 90
9
 70
0
 43
0.25
 10
81.8687509766
 20
31.324307373
 10
81.8064785156
 20
31.707642334
 10
82.1323964844
 20
33.2409741211
 10
82.3576279297
 20
33.624309082
 10
82.6451318359
 20
33.624309082
 10
82.7074042969
 20
33.2409741211
 10
82.3814755859
 20
31.707642334
 10
82.1562548828
 20
31.324307373
 10
81.8687509766
 20
31.324307373
  0
LWPOLYLINE
  5
391
100
AcDbEntity
  8
0
100
AcDbPolyline
 62
2
  6
CONTINUOUS
 90
9
 70
0
 43
0.25
 10
83.0187451172
 20
31.324307373
 10
83.3062490234
 20
31.324307373
 10
83.5314804687
 20
31.707642334
 10
83.6129599609
 20
32.0909746094
 10
83.5506875
 20
32.4743095703
 10
83.2631943359
 20
32.4743095703
 10
83.0379628906
 20
32.0909746094
 10
82.9564833984
 20
31.707642334
 10
83.0187451172
 20
31.324307373
  0
LWPOLYLINE
  5
392
100
AcDbEntity
  8
0
100
AcDbPolyline
 62
2
  6
CONTINUOUS
 90
8
 70
0
 43
0.25
 10
83.5506875
 20
32.4743095703
 10
83.7759189453
 20
32.8576418457
 10
83.8573984375
 20
33.2409741211
 10
83.7951259766
 20
33.624309082
 10
83.5076328125
 20
33.624309082
 10
83.2824013672
 20
33.2409741211
 10
83.200921875
 20
32.8576418457
 10
83.2631943359
 20
32.4743095703
  0
LWPOLYLINE
  5
393
100
AcDbEntity
  8
0
100
AcDbPolyline
 62
2
  6
CONTINUOUS
 90
6
 70
0
 43
0.25
 10
38.45
 20
30.7875793457
 10
39.2037470703
 20
30.7875793457
 10
39.5736757812
 20
31.3459125977
 10
39.6923554687
 20
31.9042458496
 10
39.5597861328
 20
32.4625791016
 10
38.8060283203
 20
32.4625791016
  0
LWPOLYLINE
  5
394
100
AcDbEntity
  8
0
100
AcDbPolyline
 62
2
  6
CONTINUOUS
 90
3
 70
0
 43
0.25
 10
38.45
 20
30.7875793457
 10
39.1620673828
 20
34.1375788574
 10
39.9158144531
 20
34.1375788574
  0
LWPOLYLINE
  5
395
100
AcDbEntity
  8
0
100
AcDbPolyline
 62
2
  6
CONTINUOUS
 90
2
 70
0
 43
0.25
 10
40.9347109375
 20
33.0209123535
 10
40.9625009766
 20
30.7875793457
  0
LWPOLYLINE
  5
396
100
AcDbEntity
  8
0
100
AcDbPolyline
 62
2
  6
CONTINUOUS
 90
3
 70
0
 43
0.25
 10
40.2226435547
 20
29.6709128418
 10
40.4738925781
 20
29.6709128418
 10
41.9397070312
 20
33.0209123535
  0
LWPOLYLINE
  5
397
100
AcDbEntity
  8
0
100
AcDbPolyline
 62
2
  6
CONTINUOUS
 90
3
 70
0
 43
0.25
 10
42.4699951172
 20
30.7875793457
 10
43.4472119141
 20
33.0209123535
 10
43.4750019531
 20
30.7875793457
  0
LWPOLYLINE
  5
398
100
AcDbEntity
  8
0
100
AcDbPolyline
 62
2
  6
CONTINUOUS
 90
2
 70
0
 43
0.25
 10
44.9547060547
 20
33.0209123535
 10
44.4799980469
 20
30.7875793457
  0
LWPOLYLINE
  5
399
100
AcDbEntity
  8
0
100
AcDbPolyline
 62
2
  6
CONTINUOUS
 90
2
 70
0
 43
0.25
 10
44.5986777344
 20
31.3459125977
 10
45.9597128906
 20
33.0209123535
  0
LWPOLYLINE
  5
39A
100
AcDbEntity
  8
0
100
AcDbPolyline
 62
2
  6
CONTINUOUS
 90
2
 70
0
 43
0.25
 10
45.0942255859
 20
31.9042458496
 10
45.4850048828
 20
30.7875793457
  0
LWPOLYLINE
  5
39B
100
AcDbEntity
  8
0
100
AcDbPolyline
 62
2
  6
CONTINUOUS
 90
5
 70
0
 43
0.25
 10
46.9647089844
 20
33.0209123535
 10
46.6086806641
 20
31.3459125977
 10
46.74125
 20
30.7875793457
 10
46.9924990234
 20
30.7875793457
 10
47.7323564453
 20
31.9042458496
  0
LWPOLYLINE
  5
39C
100
AcDbEntity
  8
0
100
AcDbPolyline
 62
2
  6
CONTINUOUS
 90
2
 70
0
 43
0.25
 10
47.9697050781
 20
33.0209123535
 10
47.4949970703
 20
30.7875793457
  0
LWPOLYLINE
  5
39D
100
AcDbEntity
  8
0
100
AcDbPolyline
 62
2
  6
CONTINUOUS
 90
2
 70
0
 43
0.25
 10
48.5000039062
 20
30.7875793457
 10
48.9747119141
 20
33.0209123535
  0
LWPOLYLINE
  5
39E
100
AcDbEntity
  8
0
100
AcDbPolyline
 62
2
  6
CONTINUOUS
 90
2
 70
0
 43
0.25
 10
48.7373525391
 20
31.9042458496
 10
49.742359375
 20
31.9042458496
  0
LWPOLYLINE
  5
39F
100
AcDbEntity
  8
0
100
AcDbPolyline
 62
2
  6
CONTINUOUS
 90
2
 70
0
 43
0.25
 10
49.9797080078
 20
33.0209123535
 10
49.505
 20
30.7875793457
  0
LWPOLYLINE
  5
3A0
100
AcDbEntity
  8
0
100
AcDbPolyline
 62
2
  6
CONTINUOUS
 90
3
 70
0
 43
0.25
 10
52.5199990234
 20
30.7875793457
 10
53.7345644531
 20
34.1375788574
 10
53.5249951172
 20
30.7875793457
  0
LWPOLYLINE
  5
3A1
100
AcDbEntity
  8
0
100
AcDbPolyline
 62
2
  6
CONTINUOUS
 90
2
 70
0
 43
0.25
 10
53.0086074219
 20
31.9042458496
 10
53.5111054687
 20
31.9042458496
  0
LWPOLYLINE
  5
3A2
100
AcDbEntity
  8
0
100
AcDbPolyline
 62
2
  6
CONTINUOUS
 90
5
 70
0
 43
0.25
 10
54.6556210937
 20
30.7875793457
 10
54.5300019531
 20
30.7875793457
 10
54.5893417969
 20
31.0667473145
 10
54.7149609375
 20
31.0667473145
 10
54.6556210937
 20
30.7875793457
  0
LWPOLYLINE
  5
3A3
100
AcDbEntity
  8
0
100
AcDbPolyline
 62
2
  6
CONTINUOUS
 90
3
 70
0
 43
0.25
 10
56.5400048828
 20
30.7875793457
 10
57.7545595703
 20
34.1375788574
 10
57.5450009766
 20
30.7875793457
  0
LWPOLYLINE
  5
3A4
100
AcDbEntity
  8
0
100
AcDbPolyline
 62
2
  6
CONTINUOUS
 90
2
 70
0
 43
0.25
 10
57.0286025391
 20
31.9042458496
 10
57.5311005859
 20
31.9042458496
  0
LWPOLYLINE
  5
3A5
100
AcDbEntity
  8
0
100
AcDbPolyline
 62
2
  6
CONTINUOUS
 90
7
 70
0
 43
0.25
 10
21.4650009766
 20
30.7875793457
 10
22.1770683594
 20
34.1375788574
 10
22.9308154297
 20
34.1375788574
 10
23.0633847656
 20
33.5792456055
 10
22.9447050781
 20
33.0209123535
 10
22.5747871094
 20
32.4625791016
 10
21.8210292969
 20
32.4625791016
  0
LWPOLYLINE
  5
3A6
100
AcDbEntity
  8
0
100
AcDbPolyline
 62
2
  6
CONTINUOUS
 90
8
 70
0
 43
0.25
 10
24.8360283203
 20
32.4625791016
 10
24.7034589844
 20
33.0209123535
 10
24.2009609375
 20
33.0209123535
 10
23.8310322266
 20
32.4625791016
 10
23.5936728516
 20
31.3459125977
 10
23.7262529297
 20
30.7875793457
 10
24.2287509766
 20
30.7875793457
 10
24.5986796875
 20
31.3459125977
  0
LWPOLYLINE
  5
3A7
100
AcDbEntity
  8
0
100
AcDbPolyline
 62
2
  6
CONTINUOUS
 90
3
 70
0
 43
0.25
 10
24.9547080078
 20
33.0209123535
 10
24.5986796875
 20
31.3459125977
 10
24.6056298828
 20
30.7875793457
  0
LWPOLYLINE
  5
3A8
100
AcDbEntity
  8
0
100
AcDbPolyline
 62
2
  6
CONTINUOUS
 90
9
 70
0
 43
0.25
 10
25.6036757812
 20
31.3459125977
 10
25.7362451172
 20
30.7875793457
 10
26.2387539062
 20
30.7875793457
 10
26.6086826172
 20
31.3459125977
 10
26.4761025391
 20
31.9042458496
 10
26.84603125
 20
32.4625791016
 10
26.7134619141
 20
33.0209123535
 10
26.2109638672
 20
33.0209123535
 10
25.8410351562
 20
32.4625791016
  0
LWPOLYLINE
  5
3A9
100
AcDbEntity
  8
0
100
AcDbPolyline
 62
2
  6
CONTINUOUS
 90
2
 70
0
 43
0.25
 10
26.2248535156
 20
31.9042458496
 10
26.4761025391
 20
31.9042458496
  0
LWPOLYLINE
  5
3AA
100
AcDbEntity
  8
0
100
AcDbPolyline
 62
2
  6
CONTINUOUS
 90
2
 70
0
 43
0.25
 10
27.2576503906
 20
29.6709128418
 10
27.9697070312
 20
33.0209123535
  0
LWPOLYLINE
  5
3AB
100
AcDbEntity
  8
0
100
AcDbPolyline
 62
2
  6
CONTINUOUS
 90
7
 70
0
 43
0.25
 10
27.4949990234
 20
30.7875793457
 10
28.2487460937
 20
30.7875793457
 10
28.6186748047
 20
31.3459125977
 10
28.8560341797
 20
32.4625791016
 10
28.7234648437
 20
33.0209123535
 10
28.2209560547
 20
33.0209123535
 10
27.8510273437
 20
32.4625791016
  0
LWPOLYLINE
  5
3AC
100
AcDbEntity
  8
0
100
AcDbPolyline
 62
2
  6
CONTINUOUS
 90
8
 70
0
 43
0.25
 10
30.8660371094
 20
32.4625791016
 10
30.7334570312
 20
33.0209123535
 10
30.2309589844
 20
33.0209123535
 10
29.8610302734
 20
32.4625791016
 10
29.6236816406
 20
31.3459125977
 10
29.7562509766
 20
30.7875793457
 10
30.2587490234
 20
30.7875793457
 10
30.6286777344
 20
31.3459125977
  0
LWPOLYLINE
  5
3AD
100
AcDbEntity
  8
0
100
AcDbPolyline
 62
2
  6
CONTINUOUS
 90
3
 70
0
 43
0.25
 10
30.9847060547
 20
33.0209123535
 10
30.6286777344
 20
31.3459125977
 10
30.6356279297
 20
30.7875793457
  0
LWPOLYLINE
  5
3AE
100
AcDbEntity
  8
0
100
AcDbPolyline
 62
2
  6
CONTINUOUS
 90
10
 70
0
 43
0.25
 10
32.7434599609
 20
33.0209123535
 10
32.2409619141
 20
33.0209123535
 10
31.8710332031
 20
32.4625791016
 10
31.6336738281
 20
31.3459125977
 10
31.7662539062
 20
30.7875793457
 10
32.2687519531
 20
30.7875793457
 10
32.6386806641
 20
31.3459125977
 10
32.8760292969
 20
32.4625791016
 10
32.4783105469
 20
34.1375788574
 10
33.2320683594
 20
34.1375788574
  0
LWPOLYLINE
  5
3AF
100
AcDbEntity
  8
0
100
AcDbPolyline
 62
2
  6
CONTINUOUS
 90
5
 70
0
 43
0.25
 10
33.6506269531
 20
30.7875793457
 10
33.5249970703
 20
30.7875793457
 10
33.5843369141
 20
31.0667473145
 10
33.7099667969
 20
31.0667473145
 10
33.6506269531
 20
30.7875793457
  0
LWPOLYLINE
  5
3B0
100
AcDbEntity
  8
0
100
AcDbPolyline
 62
2
  6
CONTINUOUS
 90
5
 70
0
 43
0.25
 10
76.2312509766
 20
35.7875788574
 10
76.7652988281
 20
38.300079834
 10
77.3201865234
 20
39.1375783691
 10
77.6970654297
 20
39.1375783691
 10
76.9849980469
 20
35.7875788574
  0
LWPOLYLINE
  5
3B1
100
AcDbEntity
  8
0
100
AcDbPolyline
 62
2
  6
CONTINUOUS
 90
4
 70
0
 43
0.25
 10
75.9869521484
 20
35.2292456055
 10
75.9800019531
 20
35.7875788574
 10
77.2362470703
 20
35.7875788574
 10
76.9919482422
 20
35.2292456055
  0
LWPOLYLINE
  5
3B2
100
AcDbEntity
  8
0
100
AcDbPolyline
 62
2
  6
CONTINUOUS
 90
8
 70
0
 43
0.25
 10
79.3510292969
 20
37.4625786133
 10
79.2184599609
 20
38.0209118652
 10
78.7159619141
 20
38.0209118652
 10
78.3460332031
 20
37.4625786133
 10
78.1086738281
 20
36.3459121094
 10
78.2412539062
 20
35.7875788574
 10
78.7437519531
 20
35.7875788574
 10
79.1136806641
 20
36.3459121094
  0
LWPOLYLINE
  5
3B3
100
AcDbEntity
  8
0
100
AcDbPolyline
 62
2
  6
CONTINUOUS
 90
3
 70
0
 43
0.25
 10
79.4697089844
 20
38.0209118652
 10
79.1136806641
 20
36.3459121094
 10
79.1206201172
 20
35.7875788574
  0
LWPOLYLINE
  5
3B4
100
AcDbEntity
  8
0
100
AcDbPolyline
 62
2
  6
CONTINUOUS
 90
2
 70
0
 43
0.25
 10
79.9999970703
 20
35.7875788574
 10
80.4747050781
 20
38.0209118652
  0
LWPOLYLINE
  5
3B5
100
AcDbEntity
  8
0
100
AcDbPolyline
 62
2
  6
CONTINUOUS
 90
4
 70
0
 43
0.25
 10
80.3560361328
 20
37.4625786133
 10
80.7259648437
 20
38.0209118652
 10
80.8585341797
 20
37.4625786133
 10
80.5024951172
 20
35.7875788574
  0
LWPOLYLINE
  5
3B6
100
AcDbEntity
  8
0
100
AcDbPolyline
 62
2
  6
CONTINUOUS
 90
4
 70
0
 43
0.25
 10
80.8585341797
 20
37.4625786133
 10
81.2284628906
 20
38.0209118652
 10
81.3610322266
 20
37.4625786133
 10
81.0050039062
 20
35.7875788574
  0
LWPOLYLINE
  5
3B7
100
AcDbEntity
  8
0
100
AcDbPolyline
 62
2
  6
CONTINUOUS
 90
8
 70
0
 43
0.25
 10
83.3710351562
 20
37.4625786133
 10
83.2384550781
 20
38.0209118652
 10
82.7359570312
 20
38.0209118652
 10
82.3660283203
 20
37.4625786133
 10
82.1286796875
 20
36.3459121094
 10
82.2612490234
 20
35.7875788574
 10
82.7637470703
 20
35.7875788574
 10
83.1336757812
 20
36.3459121094
  0
LWPOLYLINE
  5
3B8
100
AcDbEntity
  8
0
100
AcDbPolyline
 62
2
  6
CONTINUOUS
 90
3
 70
0
 43
0.25
 10
83.4897148437
 20
38.0209118652
 10
83.1336757812
 20
36.3459121094
 10
83.1406259766
 20
35.7875788574
  0
LWPOLYLINE
  5
3B9
100
AcDbEntity
  8
0
100
AcDbPolyline
 62
2
  6
CONTINUOUS
 90
4
 70
0
 43
0.25
 10
62.4749990234
 20
35.7875788574
 10
63.1870664062
 20
39.1375783691
 10
64.1920625
 20
39.1375783691
 10
63.4799951172
 20
35.7875788574
  0
LWPOLYLINE
  5
3BA
100
AcDbEntity
  8
0
100
AcDbPolyline
 62
2
  6
CONTINUOUS
 90
9
 70
0
 43
0.25
 10
64.6036816406
 20
36.3459121094
 10
64.7362509766
 20
35.7875788574
 10
65.2387490234
 20
35.7875788574
 10
65.6086777344
 20
36.3459121094
 10
65.8460371094
 20
37.4625786133
 10
65.7134570312
 20
38.0209118652
 10
65.2109589844
 20
38.0209118652
 10
64.8410302734
 20
37.4625786133
 10
64.6036816406
 20
36.3459121094
  0
LWPOLYLINE
  5
3BB
100
AcDbEntity
  8
0
100
AcDbPolyline
 62
2
  6
CONTINUOUS
 90
11
 70
0
 43
0.25
 10
67.8560292969
 20
37.4625786133
 10
67.7234599609
 20
38.0209118652
 10
67.2209619141
 20
38.0209118652
 10
66.8510332031
 20
37.4625786133
 10
66.6136738281
 20
36.3459121094
 10
66.7462539062
 20
35.7875788574
 10
67.2487519531
 20
35.7875788574
 10
67.6186806641
 20
36.3459121094
 10
68.0933886719
 20
38.5792451172
 10
67.9608193359
 20
39.1375783691
 10
67.4583105469
 20
39.1375783691
  0
LWPOLYLINE
  5
3BC
100
AcDbEntity
  8
0
100
AcDbPolyline
 62
2
  6
CONTINUOUS
 90
2
 70
0
 43
0.25
 10
68.5049970703
 20
35.7875788574
 10
68.9797050781
 20
38.0209118652
  0
LWPOLYLINE
  5
3BD
100
AcDbEntity
  8
0
100
AcDbPolyline
 62
2
  6
CONTINUOUS
 90
5
 70
0
 43
0.25
 10
68.8610361328
 20
37.4625786133
 10
69.2309648437
 20
38.0209118652
 10
69.7334628906
 20
38.0209118652
 10
69.8660322266
 20
37.4625786133
 10
69.5100039062
 20
35.7875788574
  0
LWPOLYLINE
  5
3BE
100
AcDbEntity
  8
0
100
AcDbPolyline
 62
2
  6
CONTINUOUS
 90
5
 70
0
 43
0.25
 10
70.6406298828
 20
35.7875788574
 10
70.515
 20
35.7875788574
 10
70.5743398437
 20
36.0667468262
 10
70.6999589844
 20
36.0667468262
 10
70.6406298828
 20
35.7875788574
  0
LWPOLYLINE
  5
3BF
100
AcDbEntity
  8
0
100
AcDbPolyline
 62
2
  6
CONTINUOUS
 90
4
 70
0
 43
0.25
 10
40.4600029297
 20
35.7875788574
 10
41.1720595703
 20
39.1375783691
 10
41.4649990234
 20
35.7875788574
 10
42.1770664062
 20
39.1375783691
  0
LWPOLYLINE
  5
3C0
100
AcDbEntity
  8
0
100
AcDbPolyline
 62
2
  6
CONTINUOUS
 90
11
 70
0
 43
0.25
 10
45.8410332031
 20
37.4625786133
 10
45.7084638672
 20
38.0209118652
 10
45.2059550781
 20
38.0209118652
 10
44.8360371094
 20
37.4625786133
 10
44.5986777344
 20
36.3459121094
 10
44.7312470703
 20
35.7875788574
 10
45.2337451172
 20
35.7875788574
 10
45.6036738281
 20
36.3459121094
 10
46.0783818359
 20
38.5792451172
 10
45.9458125
 20
39.1375783691
 10
45.4433144531
 20
39.1375783691
  0
LWPOLYLINE
  5
3C1
100
AcDbEntity
  8
0
100
AcDbPolyline
 62
2
  6
CONTINUOUS
 90
9
 70
0
 43
0.25
 10
46.6086806641
 20
36.3459121094
 10
46.74125
 20
35.7875788574
 10
47.2437480469
 20
35.7875788574
 10
47.6136767578
 20
36.3459121094
 10
47.8510361328
 20
37.4625786133
 10
47.7184560547
 20
38.0209118652
 10
47.2159580078
 20
38.0209118652
 10
46.8460292969
 20
37.4625786133
 10
46.6086806641
 20
36.3459121094
  0
LWPOLYLINE
  5
3C2
100
AcDbEntity
  8
0
100
AcDbPolyline
 62
2
  6
CONTINUOUS
 90
2
 70
0
 43
0.25
 10
48.9747119141
 20
38.0209118652
 10
48.5000039062
 20
35.7875788574
  0
LWPOLYLINE
  5
3C3
100
AcDbEntity
  8
0
100
AcDbPolyline
 62
2
  6
CONTINUOUS
 90
2
 70
0
 43
0.25
 10
48.6186728516
 20
36.3459121094
 10
49.9797080078
 20
38.0209118652
  0
LWPOLYLINE
  5
3C4
100
AcDbEntity
  8
0
100
AcDbPolyline
 62
2
  6
CONTINUOUS
 90
2
 70
0
 43
0.25
 10
49.1142314453
 20
36.9042453613
 10
49.505
 20
35.7875788574
  0
LWPOLYLINE
  5
3C5
100
AcDbEntity
  8
0
100
AcDbPolyline
 62
2
  6
CONTINUOUS
 90
2
 70
0
 43
0.25
 10
50.9847148437
 20
38.0209118652
 10
51.0125048828
 20
35.7875788574
  0
LWPOLYLINE
  5
3C6
100
AcDbEntity
  8
0
100
AcDbPolyline
 62
2
  6
CONTINUOUS
 90
3
 70
0
 43
0.25
 10
50.2726474609
 20
34.6709123535
 10
50.5238964844
 20
34.6709123535
 10
51.9897109375
 20
38.0209118652
  0
LWPOLYLINE
  5
3C7
100
AcDbEntity
  8
0
100
AcDbPolyline
 62
2
  6
CONTINUOUS
 90
5
 70
0
 43
0.25
 10
52.5199990234
 20
35.7875788574
 10
52.9947070312
 20
38.0209118652
 10
53.2598564453
 20
36.9042453613
 10
53.9997138672
 20
38.0209118652
 10
53.5249951172
 20
35.7875788574
  0
LWPOLYLINE
  5
3C8
100
AcDbEntity
  8
0
100
AcDbPolyline
 62
2
  6
CONTINUOUS
 90
5
 70
0
 43
0.25
 10
54.6556210937
 20
35.7875788574
 10
54.5300019531
 20
35.7875788574
 10
54.5893417969
 20
36.0667468262
 10
54.7149609375
 20
36.0667468262
 10
54.6556210937
 20
35.7875788574
  0
LWPOLYLINE
  5
3C9
100
AcDbEntity
  8
0
100
AcDbPolyline
 62
2
  6
CONTINUOUS
 90
3
 70
0
 43
0.25
 10
27.9799980469
 20
35.7875788574
 10
29.1945634766
 20
39.1375783691
 10
28.9850048828
 20
35.7875788574
  0
LWPOLYLINE
  5
3CA
100
AcDbEntity
  8
0
100
AcDbPolyline
 62
2
  6
CONTINUOUS
 90
5
 70
0
 43
0.25
 10
30.4647089844
 20
38.0209118652
 10
30.1086806641
 20
36.3459121094
 10
30.24125
 20
35.7875788574
 10
30.4924990234
 20
35.7875788574
 10
31.2323564453
 20
36.9042453613
  0
LWPOLYLINE
  5
3CB
100
AcDbEntity
  8
0
100
AcDbPolyline
 62
2
  6
CONTINUOUS
 90
2
 70
0
 43
0.25
 10
31.4697050781
 20
38.0209118652
 10
30.9949970703
 20
35.7875788574
  0
LWPOLYLINE
  5
3CC
100
AcDbEntity
  8
0
100
AcDbPolyline
 62
2
  6
CONTINUOUS
 90
8
 70
0
 43
0.25
 10
33.3610283203
 20
37.4625786133
 10
33.2284589844
 20
38.0209118652
 10
32.7259609375
 20
38.0209118652
 10
32.3560322266
 20
37.4625786133
 10
32.1186728516
 20
36.3459121094
 10
32.2512529297
 20
35.7875788574
 10
32.7537509766
 20
35.7875788574
 10
33.1236796875
 20
36.3459121094
  0
LWPOLYLINE
  5
3CD
100
AcDbEntity
  8
0
100
AcDbPolyline
 62
2
  6
CONTINUOUS
 90
2
 70
0
 43
0.25
 10
34.0099960937
 20
35.7875788574
 10
34.4847148437
 20
38.0209118652
  0
LWPOLYLINE
  5
3CE
100
AcDbEntity
  8
0
100
AcDbPolyline
 62
2
  6
CONTINUOUS
 90
4
 70
0
 43
0.25
 10
34.3660351562
 20
37.4625786133
 10
34.7359638672
 20
38.0209118652
 10
34.8685332031
 20
37.4625786133
 10
34.5125048828
 20
35.7875788574
  0
LWPOLYLINE
  5
3CF
100
AcDbEntity
  8
0
100
AcDbPolyline
 62
2
  6
CONTINUOUS
 90
4
 70
0
 43
0.25
 10
34.8685332031
 20
37.4625786133
 10
35.2384619141
 20
38.0209118652
 10
35.37103125
 20
37.4625786133
 10
35.0150029297
 20
35.7875788574
  0
LWPOLYLINE
  5
3D0
100
AcDbEntity
  8
0
100
AcDbPolyline
 62
2
  6
CONTINUOUS
 90
4
 70
0
 43
0.25
 10
21.1970693359
 20
39.1375783691
 10
20.4850019531
 20
35.7875788574
 10
22.2020654297
 20
39.1375783691
 10
21.4899980469
 20
35.7875788574
  0
LWPOLYLINE
  5
3D1
100
AcDbEntity
  8
0
100
AcDbPolyline
 62
2
  6
CONTINUOUS
 90
9
 70
0
 43
0.25
 10
22.6136738281
 20
36.3459121094
 10
22.7462539062
 20
35.7875788574
 10
23.2487519531
 20
35.7875788574
 10
23.6186806641
 20
36.3459121094
 10
23.4861005859
 20
36.9042453613
 10
23.8560292969
 20
37.4625786133
 10
23.7234599609
 20
38.0209118652
 10
23.2209619141
 20
38.0209118652
 10
22.8510332031
 20
37.4625786133
  0
LWPOLYLINE
  5
3D2
100
AcDbEntity
  8
0
100
AcDbPolyline
 62
2
  6
CONTINUOUS
 90
2
 70
0
 43
0.25
 10
23.2348515625
 20
36.9042453613
 10
23.4861005859
 20
36.9042453613
  0
LWPOLYLINE
  5
3D3
100
AcDbEntity
  8
0
100
AcDbPolyline
 62
2
  6
CONTINUOUS
 90
5
 70
0
 43
0.25
 10
24.5049970703
 20
35.7875788574
 10
24.9797050781
 20
38.0209118652
 10
25.2448544922
 20
36.9042453613
 10
25.9847119141
 20
38.0209118652
 10
25.5100039062
 20
35.7875788574
  0
LWPOLYLINE
  5
3D4
100
AcDbEntity
  8
0
100
AcDbPolyline
 62
2
  6
CONTINUOUS
 90
5
 70
0
 43
0.25
 10
188.9649980469
 20
40.7875783691
 10
189.6770546875
 20
44.1375805664
 10
189.7048554688
 20
41.904244873
 10
190.6820722656
 20
44.1375805664
 10
189.9699941406
 20
40.7875783691
  0
LWPOLYLINE
  5
3D5
100
AcDbEntity
  8
0
100
AcDbPolyline
 62
2
  6
CONTINUOUS
 90
8
 70
0
 43
0.25
 10
192.3360253906
 20
42.4625808105
 10
192.2034667969
 20
43.0209140625
 10
191.70096875
 20
43.0209140625
 10
191.3310292969
 20
42.4625808105
 10
191.0936699219
 20
41.3459116211
 10
191.22625
 20
40.7875783691
 10
191.7287480469
 20
40.7875783691
 10
192.0986875
 20
41.3459116211
  0
LWPOLYLINE
  5
3D6
100
AcDbEntity
  8
0
100
AcDbPolyline
 62
2
  6
CONTINUOUS
 90
3
 70
0
 43
0.25
 10
192.4547050781
 20
43.0209140625
 10
192.0986875
 20
41.3459116211
 10
192.1056269531
 20
40.7875783691
  0
LWPOLYLINE
  5
3D7
100
AcDbEntity
  8
0
100
AcDbPolyline
 62
2
  6
CONTINUOUS
 90
8
 70
0
 43
0.25
 10
194.3460390625
 20
42.4625808105
 10
194.2134589844
 20
43.0209140625
 10
193.7109609375
 20
43.0209140625
 10
193.3410429687
 20
42.4625808105
 10
193.1036835937
 20
41.3459116211
 10
193.2362421875
 20
40.7875783691
 10
193.7387402344
 20
40.7875783691
 10
194.1086796875
 20
41.3459116211
  0
LWPOLYLINE
  5
3D8
100
AcDbEntity
  8
0
100
AcDbPolyline
 62
2
  6
CONTINUOUS
 90
7
 70
0
 43
0.25
 10
195.4697148437
 20
43.0209140625
 10
195.1136757813
 20
41.3459116211
 10
195.2462558594
 20
40.7875783691
 10
195.6161738281
 20
41.3459116211
 10
195.7487539063
 20
40.7875783691
 10
196.118671875
 20
41.3459116211
 10
196.4747109375
 20
43.0209140625
  0
LWPOLYLINE
  5
3D9
100
AcDbEntity
  8
0
100
AcDbPolyline
 62
2
  6
CONTINUOUS
 90
2
 70
0
 43
0.25
 10
195.9722128906
 20
43.0209140625
 10
195.6161738281
 20
41.3459116211
  0
LWPOLYLINE
  5
3DA
100
AcDbEntity
  8
0
100
AcDbPolyline
 62
2
  6
CONTINUOUS
 90
2
 70
0
 43
0.25
 10
196.118671875
 20
41.3459116211
 10
196.1256328125
 20
40.7875783691
  0
LWPOLYLINE
  5
3DB
100
AcDbEntity
  8
0
100
AcDbPolyline
 62
2
  6
CONTINUOUS
 90
2
 70
0
 43
0.25
 10
197.0050097656
 20
40.7875783691
 10
197.4797070313
 20
43.0209140625
  0
LWPOLYLINE
  5
3DC
100
AcDbEntity
  8
0
100
AcDbPolyline
 62
2
  6
CONTINUOUS
 90
4
 70
0
 43
0.25
 10
197.3610273438
 20
42.4625808105
 10
197.7309667969
 20
43.0209140625
 10
197.8635253906
 20
42.4625808105
 10
197.5075078125
 20
40.7875783691
  0
LWPOLYLINE
  5
3DD
100
AcDbEntity
  8
0
100
AcDbPolyline
 62
2
  6
CONTINUOUS
 90
4
 70
0
 43
0.25
 10
197.8635253906
 20
42.4625808105
 10
198.2334648438
 20
43.0209140625
 10
198.3660234375
 20
42.4625808105
 10
198.0100058594
 20
40.7875783691
  0
LWPOLYLINE
  5
3DE
100
AcDbEntity
  8
0
100
AcDbPolyline
 62
2
  6
CONTINUOUS
 90
8
 70
0
 43
0.25
 10
200.3760371094
 20
42.4625808105
 10
200.2434570313
 20
43.0209140625
 10
199.7409589844
 20
43.0209140625
 10
199.3710410156
 20
42.4625808105
 10
199.1336816406
 20
41.3459116211
 10
199.2662402344
 20
40.7875783691
 10
199.7687597656
 20
40.7875783691
 10
200.1386777344
 20
41.3459116211
  0
LWPOLYLINE
  5
3DF
100
AcDbEntity
  8
0
100
AcDbPolyline
 62
2
  6
CONTINUOUS
 90
3
 70
0
 43
0.25
 10
200.4947167969
 20
43.0209140625
 10
200.1386777344
 20
41.3459116211
 10
200.1456171875
 20
40.7875783691
  0
LWPOLYLINE
  5
3E0
100
AcDbEntity
  8
0
100
AcDbPolyline
 62
2
  6
CONTINUOUS
 90
10
 70
0
 43
0.25
 10
202.2534492187
 20
43.0209140625
 10
201.7509511719
 20
43.0209140625
 10
201.3810332031
 20
42.4625808105
 10
201.1436738281
 20
41.3459116211
 10
201.2762539062
 20
40.7875783691
 10
201.7787519531
 20
40.7875783691
 10
202.1486699219
 20
41.3459116211
 10
202.3860292969
 20
42.4625808105
 10
201.9883105469
 20
44.1375805664
 10
202.7420683594
 20
44.1375805664
  0
LWPOLYLINE
  5
3E1
100
AcDbEntity
  8
0
100
AcDbPolyline
 62
2
  6
CONTINUOUS
 90
5
 70
0
 43
0.25
 10
173.475
 20
40.7875783691
 10
174.1870566406
 20
44.1375805664
 10
174.2148574219
 20
41.904244873
 10
175.1920742188
 20
44.1375805664
 10
174.4799960938
 20
40.7875783691
  0
LWPOLYLINE
  5
3E2
100
AcDbEntity
  8
0
100
AcDbPolyline
 62
2
  6
CONTINUOUS
 90
8
 70
0
 43
0.25
 10
176.8460273437
 20
42.4625808105
 10
176.71346875
 20
43.0209140625
 10
176.2109492187
 20
43.0209140625
 10
175.84103125
 20
42.4625808105
 10
175.603671875
 20
41.3459116211
 10
175.7362519531
 20
40.7875783691
 10
176.23875
 20
40.7875783691
 10
176.6086679687
 20
41.3459116211
  0
LWPOLYLINE
  5
3E3
100
AcDbEntity
  8
0
100
AcDbPolyline
 62
2
  6
CONTINUOUS
 90
3
 70
0
 43
0.25
 10
176.9647070312
 20
43.0209140625
 10
176.6086679687
 20
41.3459116211
 10
176.6156289063
 20
40.7875783691
  0
LWPOLYLINE
  5
3E4
100
AcDbEntity
  8
0
100
AcDbPolyline
 62
2
  6
CONTINUOUS
 90
8
 70
0
 43
0.25
 10
178.8560410156
 20
42.4625808105
 10
178.7234609375
 20
43.0209140625
 10
178.2209628906
 20
43.0209140625
 10
177.8510234375
 20
42.4625808105
 10
177.6136855469
 20
41.3459116211
 10
177.7462441406
 20
40.7875783691
 10
178.2487421875
 20
40.7875783691
 10
178.6186816406
 20
41.3459116211
  0
LWPOLYLINE
  5
3E5
100
AcDbEntity
  8
0
100
AcDbPolyline
 62
2
  6
CONTINUOUS
 90
8
 70
0
 43
0.25
 10
180.8660332031
 20
42.4625808105
 10
180.733453125
 20
43.0209140625
 10
180.2309550781
 20
43.0209140625
 10
179.8610371094
 20
42.4625808105
 10
179.6236777344
 20
41.3459116211
 10
179.7562578125
 20
40.7875783691
 10
180.2587558594
 20
40.7875783691
 10
180.6286738281
 20
41.3459116211
  0
LWPOLYLINE
  5
3E6
100
AcDbEntity
  8
0
100
AcDbPolyline
 62
2
  6
CONTINUOUS
 90
8
 70
0
 43
0.25
 10
182.8760253906
 20
42.4625808105
 10
182.7434667969
 20
43.0209140625
 10
182.24096875
 20
43.0209140625
 10
181.8710292969
 20
42.4625808105
 10
181.6336699219
 20
41.3459116211
 10
181.76625
 20
40.7875783691
 10
182.2687480469
 20
40.7875783691
 10
182.6386875
 20
41.3459116211
  0
LWPOLYLINE
  5
3E7
100
AcDbEntity
  8
0
100
AcDbPolyline
 62
2
  6
CONTINUOUS
 90
3
 70
0
 43
0.25
 10
182.9947050781
 20
43.0209140625
 10
182.6386875
 20
41.3459116211
 10
182.6456269531
 20
40.7875783691
  0
LWPOLYLINE
  5
3E8
100
AcDbEntity
  8
0
100
AcDbPolyline
 62
2
  6
CONTINUOUS
 90
3
 70
0
 43
0.25
 10
158.4800019531
 20
40.7875783691
 10
159.6945566406
 20
44.1375805664
 10
159.4849980469
 20
40.7875783691
  0
LWPOLYLINE
  5
3E9
100
AcDbEntity
  8
0
100
AcDbPolyline
 62
2
  6
CONTINUOUS
 90
5
 70
0
 43
0.25
 10
160.9647128906
 20
43.0209140625
 10
160.6086738281
 20
41.3459116211
 10
160.7412539062
 20
40.7875783691
 10
160.9924921875
 20
40.7875783691
 10
161.7323496094
 20
41.904244873
  0
LWPOLYLINE
  5
3EA
100
AcDbEntity
  8
0
100
AcDbPolyline
 62
2
  6
CONTINUOUS
 90
2
 70
0
 43
0.25
 10
161.9697089844
 20
43.0209140625
 10
161.4949902344
 20
40.7875783691
  0
LWPOLYLINE
  5
3EB
100
AcDbEntity
  8
0
100
AcDbPolyline
 62
2
  6
CONTINUOUS
 90
2
 70
0
 43
0.25
 10
162.5000078125
 20
40.7875783691
 10
162.9747050781
 20
43.0209140625
  0
LWPOLYLINE
  5
3EC
100
AcDbEntity
  8
0
100
AcDbPolyline
 62
2
  6
CONTINUOUS
 90
4
 70
0
 43
0.25
 10
162.8560253906
 20
42.4625808105
 10
163.2259648438
 20
43.0209140625
 10
163.3585234375
 20
42.4625808105
 10
163.0025058594
 20
40.7875783691
  0
LWPOLYLINE
  5
3ED
100
AcDbEntity
  8
0
100
AcDbPolyline
 62
2
  6
CONTINUOUS
 90
4
 70
0
 43
0.25
 10
163.3585234375
 20
42.4625808105
 10
163.7284628906
 20
43.0209140625
 10
163.8610429687
 20
42.4625808105
 10
163.5050039062
 20
40.7875783691
  0
LWPOLYLINE
  5
3EE
100
AcDbEntity
  8
0
100
AcDbPolyline
 62
2
  6
CONTINUOUS
 90
5
 70
0
 43
0.25
 10
164.6356191406
 20
40.7875783691
 10
164.51
 20
40.7875783691
 10
164.5693398437
 20
41.0667463379
 10
164.6949589844
 20
41.0667463379
 10
164.6356191406
 20
40.7875783691
  0
LWPOLYLINE
  5
3EF
100
AcDbEntity
  8
0
100
AcDbPolyline
 62
2
  6
CONTINUOUS
 90
4
 70
0
 43
0.25
 10
110.7004492187
 20
56.410637207
 10
109.0000039062
 20
48.4106401367
 10
113.1004472656
 20
56.410637207
 10
111.4000019531
 20
48.4106401367
  0
LWPOLYLINE
  5
3F0
100
AcDbEntity
  8
0
100
AcDbPolyline
 62
2
  6
CONTINUOUS
 90
6
 70
0
 43
0.25
 10
113.8
 20
48.4106401367
 10
115.6000039062
 20
48.4106401367
 10
116.4833984375
 20
49.7439711914
 10
116.7668203125
 20
51.0773022461
 10
116.4502265625
 20
52.4106386719
 10
114.6502226562
 20
52.4106386719
  0
LWPOLYLINE
  5
3F1
100
AcDbEntity
  8
0
100
AcDbPolyline
 62
2
  6
CONTINUOUS
 90
3
 70
0
 43
0.25
 10
113.8
 20
48.4106401367
 10
115.5004453125
 20
56.410637207
 10
117.3004492188
 20
56.410637207
  0
LWPOLYLINE
  5
3F2
100
AcDbEntity
  8
0
100
AcDbPolyline
 62
2
  6
CONTINUOUS
 90
7
 70
0
 43
0.25
 10
118.5999960937
 20
48.4106401367
 10
120.3004628906
 20
56.410637207
 10
122.1004453125
 20
56.410637207
 10
122.4170390625
 20
55.0773061523
 10
122.1336386719
 20
53.7439697266
 10
121.2502226563
 20
52.4106386719
 10
119.45021875
 20
52.4106386719
  0
LWPOLYLINE
  5
3F3
100
AcDbEntity
  8
0
100
AcDbPolyline
 62
2
  6
CONTINUOUS
 90
10
 70
0
 43
0.25
 10
124.8170371094
 20
55.0773061523
 10
125.700453125
 20
56.410637207
 10
126.9004628906
 20
56.410637207
 10
127.2170351562
 20
55.0773061523
 10
126.650234375
 20
52.4106386719
 10
125.7668183594
 20
51.0773022461
 10
124.5668085937
 20
51.0773022461
 10
123.6834140625
 20
49.7439711914
 10
123.3999921875
 20
48.4106401367
 10
125.7999902344
 20
48.4106401367
  0
LWPOLYLINE
  5
3F4
100
AcDbEntity
  8
0
100
AcDbPolyline
 62
2
  6
CONTINUOUS
 90
5
 70
0
 43
0.25
 10
128.4999960937
 20
48.4106401367
 10
128.2000097656
 20
48.4106401367
 10
128.3416992187
 20
49.0773056641
 10
128.6417070312
 20
49.0773056641
 10
128.4999960937
 20
48.4106401367
  0
LWPOLYLINE
  5
3F5
100
AcDbEntity
  8
0
100
AcDbPolyline
 62
2
  6
CONTINUOUS
 90
9
 70
0
 43
0.25
 10
133.6
 20
48.4106401367
 10
133.28340625
 20
49.7439711914
 10
134.4170507813
 20
55.0773061523
 10
135.3004453125
 20
56.410637207
 10
136.5004550781
 20
56.410637207
 10
136.8170488281
 20
55.0773061523
 10
135.6834042969
 20
49.7439711914
 10
134.8000097656
 20
48.4106401367
 10
133.6
 20
48.4106401367
  0
LWPOLYLINE
  5
3F6
100
AcDbEntity
  8
0
100
AcDbPolyline
 62
2
  6
CONTINUOUS
 90
9
 70
0
 43
0.25
 10
138.3999960937
 20
48.4106401367
 10
138.0834023437
 20
49.7439711914
 10
139.217046875
 20
55.0773061523
 10
140.1004628906
 20
56.410637207
 10
141.3004511719
 20
56.410637207
 10
141.6170449219
 20
55.0773061523
 10
140.4834003906
 20
49.7439711914
 10
139.6000058594
 20
48.4106401367
 10
138.3999960937
 20
48.4106401367
  0
LWPOLYLINE
  5
3F7
100
AcDbEntity
  8
0
100
AcDbPolyline
 62
2
  6
CONTINUOUS
 90
5
 70
0
 43
0.25
 10
142.9000058594
 20
48.4106401367
 10
142.5999980469
 20
48.4106401367
 10
142.7417089844
 20
49.0773056641
 10
143.0416953125
 20
49.0773056641
 10
142.9000058594
 20
48.4106401367
  0
LWPOLYLINE
  5
3F8
100
AcDbEntity
  8
0
100
AcDbPolyline
 62
2
  6
CONTINUOUS
 90
3
 70
0
 43
0.25
 10
150.0336347656
 20
53.7439697266
 10
151.2004511719
 20
56.410637207
 10
149.5000058594
 20
48.4106401367
  0
LWPOLYLINE
  5
3F9
100
AcDbEntity
  8
0
100
AcDbPolyline
 62
2
  6
CONTINUOUS
 90
2
 70
0
 43
0.25
 10
148.8999902344
 20
48.4106401367
 10
150.1
 20
48.4106401367
  0
LWPOLYLINE
  5
3FA
100
AcDbEntity
  8
0
100
AcDbPolyline
 62
2
  6
CONTINUOUS
 90
10
 70
0
 43
0.25
 10
153.6170351562
 20
55.0773061523
 10
154.5004511719
 20
56.410637207
 10
155.7004609375
 20
56.410637207
 10
156.0170332031
 20
55.0773061523
 10
155.4502324219
 20
52.4106386719
 10
154.5668164062
 20
51.0773022461
 10
153.366828125
 20
51.0773022461
 10
152.4834121094
 20
49.7439711914
 10
152.1999902344
 20
48.4106401367
 10
154.6000097656
 20
48.4106401367
  0
LWPOLYLINE
  5
3FB
100
AcDbEntity
  8
0
100
AcDbPolyline
 62
2
  6
CONTINUOUS
 90
10
 70
0
 43
0.25
 10
158.4170527344
 20
55.0773061523
 10
159.3004472656
 20
56.410637207
 10
160.5004570312
 20
56.410637207
 10
160.8170507813
 20
55.0773061523
 10
160.2502285156
 20
52.4106386719
 10
159.3668125
 20
51.0773022461
 10
158.1668242188
 20
51.0773022461
 10
157.2834082031
 20
49.7439711914
 10
157.0000078125
 20
48.4106401367
 10
159.4000058594
 20
48.4106401367
  0
LWPOLYLINE
  5
3FC
100
AcDbEntity
  8
0
100
AcDbPolyline
 62
2
  6
CONTINUOUS
 90
3
 70
0
 43
0.25
 10
164.4336445313
 20
53.7439697266
 10
165.6004609375
 20
56.410637207
 10
163.8999941406
 20
48.4106401367
  0
LWPOLYLINE
  5
3FD
100
AcDbEntity
  8
0
100
AcDbPolyline
 62
2
  6
CONTINUOUS
 90
2
 70
0
 43
0.25
 10
163.3
 20
48.4106401367
 10
164.5000097656
 20
48.4106401367
  0
LWPOLYLINE
  5
3FE
100
AcDbEntity
  8
0
100
AcDbPolyline
 62
2
  6
CONTINUOUS
 90
5
 70
0
 43
0.25
 10
166.9000078125
 20
48.4106401367
 10
166.6
 20
48.4106401367
 10
166.7417109375
 20
49.0773056641
 10
167.0416972656
 20
49.0773056641
 10
166.9000078125
 20
48.4106401367
  0
LWPOLYLINE
  5
3FF
100
AcDbEntity
  8
0
100
AcDbPolyline
 62
2
  6
CONTINUOUS
 90
9
 70
0
 43
0.25
 10
171.9999902344
 20
48.4106401367
 10
171.6834179688
 20
49.7439711914
 10
172.8170410156
 20
55.0773061523
 10
173.7004570312
 20
56.410637207
 10
174.9004453125
 20
56.410637207
 10
175.2170390625
 20
55.0773061523
 10
174.0834160156
 20
49.7439711914
 10
173.2
 20
48.4106401367
 10
171.9999902344
 20
48.4106401367
  0
LWPOLYLINE
  5
400
100
AcDbEntity
  8
0
100
AcDbPolyline
 62
2
  6
CONTINUOUS
 90
10
 70
0
 43
0.25
 10
177.6170371094
 20
55.0773061523
 10
178.500453125
 20
56.410637207
 10
179.7004628906
 20
56.410637207
 10
180.0170351562
 20
55.0773061523
 10
179.450234375
 20
52.4106386719
 10
178.5668183594
 20
51.0773022461
 10
177.3668085937
 20
51.0773022461
 10
176.4834140625
 20
49.7439711914
 10
176.1999921875
 20
48.4106401367
 10
178.5999902344
 20
48.4106401367
  0
INSERT
  5
401
100
AcDbEntity
  8
0
100
AcDbBlockReference
 62
2
  6
CONTINUOUS
  2
STANDARD_BL0
 10
180.4783514781
 20
281.4064904607
  0
LINE
  5
402
100
AcDbEntity
  8
0
100
AcDbLine
 62
7
  6
CONTINUOUS
 10
-0.0
 20
0.0
 11
210.0
 21
0.0
  0
LINE
  5
403
100
AcDbEntity
  8
0
100
AcDbLine
 62
7
  6
CONTINUOUS
 10
205.0
 20
5.0
 11
20.0
 21
5.0
  0
LINE
  5
404
100
AcDbEntity
  8
0
100
AcDbLine
 62
7
  6
CONTINUOUS
 10
-0.0
 20
297.0
 11
-0.0
 21
0.0
  0
LINE
  5
405
100
AcDbEntity
  8
0
100
AcDbLine
 62
7
  6
CONTINUOUS
 10
20.0
 20
5.0
 11
20.0
 21
292.3498994289
  0
LWPOLYLINE
  5
406
100
AcDbEntity
  8
0
100
AcDbPolyline
 62
2
  6
CONTINUOUS
 90
8
 70
0
 43
0.2499999924
 10
37.1216533203
 20
71.0999824219
 10
36.939390625
 20
71.6833208008
 10
36.3268925781
 20
71.6833208008
 10
35.8966464844
 20
71.0999824219
 10
35.6486630859
 20
69.9333164063
 10
35.8309257812
 20
69.3499833984
 10
36.4434238281
 20
69.3499833984
 10
36.8736699219
 20
69.9333164063
  0
LWPOLYLINE
  5
407
100
AcDbEntity
  8
0
100
AcDbPolyline
 62
2
  6
CONTINUOUS
 90
9
 70
0
 43
0.2499999924
 10
38.0986660156
 20
69.9333164063
 10
38.2809287109
 20
69.3499833984
 10
38.8934267578
 20
69.3499833984
 10
39.3236728516
 20
69.9333164063
 10
39.1414101562
 20
70.5166494141
 10
39.57165625
 20
71.0999824219
 10
39.3893935547
 20
71.6833208008
 10
38.7768955078
 20
71.6833208008
 10
38.3466494141
 20
71.0999824219
  0
LWPOLYLINE
  5
408
100
AcDbEntity
  8
0
100
AcDbPolyline
 62
2
  6
CONTINUOUS
 90
5
 70
0
 43
0.2499999924
 10
111.6278007812
 20
69.3499833984
 10
111.4746816406
 20
69.3499833984
 10
111.5366640625
 20
69.6416499023
 10
111.6898046875
 20
69.6416499023
 10
111.6278007812
 20
69.3499833984
  0
LWPOLYLINE
  5
409
100
AcDbEntity
  8
0
100
AcDbPolyline
 62
2
  6
CONTINUOUS
 90
5
 70
0
 43
0.2499999924
 10
28.3277978516
 20
69.3499833984
 10
28.1746787109
 20
69.3499833984
 10
28.236671875
 20
69.6416499023
 10
28.3898017578
 20
69.6416499023
 10
28.3277978516
 20
69.3499833984
  0
LWPOLYLINE
  5
40A
100
AcDbEntity
  8
0
100
AcDbPolyline
 62
2
  6
CONTINUOUS
 90
7
 70
0
 43
0.2499999924
 10
45.3246777344
 20
69.3499833984
 10
46.2434248047
 20
69.3499833984
 10
46.6736708984
 20
69.9333164063
 10
46.9216542969
 20
71.0999824219
 10
46.7393916016
 20
71.6833208008
 10
46.1268935547
 20
71.6833208008
 10
45.6966474609
 20
71.0999824219
  0
LWPOLYLINE
  5
40B
100
AcDbEntity
  8
0
100
AcDbPolyline
 62
2
  6
CONTINUOUS
 90
7
 70
0
 43
0.2499999924
 10
104.1246728516
 20
69.3499833984
 10
105.0434306641
 20
69.3499833984
 10
105.4736660156
 20
69.9333164063
 10
105.7216494141
 20
71.0999824219
 10
105.5393974609
 20
71.6833208008
 10
104.9268886719
 20
71.6833208008
 10
104.4966533203
 20
71.0999824219
  0
LWPOLYLINE
  5
40C
100
AcDbEntity
  8
0
100
AcDbPolyline
 62
2
  6
CONTINUOUS
 90
2
 70
0
 43
0.2499999924
 10
38.8351611328
 20
70.5166494141
 10
39.1414101562
 20
70.5166494141
  0
LWPOLYLINE
  5
40D
100
AcDbEntity
  8
0
100
AcDbPolyline
 62
2
  6
CONTINUOUS
 90
10
 70
0
 43
0.2499999924
 10
43.1226582031
 20
70.5166494141
 10
44.0414052734
 20
70.5166494141
 10
44.4716513672
 20
71.0999824219
 10
44.2893886719
 20
71.6833208008
 10
43.676890625
 20
71.6833208008
 10
43.2466552734
 20
71.0999824219
 10
42.998671875
 20
69.9333164063
 10
43.1809238281
 20
69.3499833984
 10
43.793421875
 20
69.3499833984
 10
44.2236679687
 20
69.9333164063
  0
LWPOLYLINE
  5
40E
100
AcDbEntity
  8
0
100
AcDbPolyline
 62
2
  6
CONTINUOUS
 90
10
 70
0
 43
0.2499999924
 10
92.1226630859
 20
70.5166494141
 10
93.0414101562
 20
70.5166494141
 10
93.47165625
 20
71.0999824219
 10
93.2893935547
 20
71.6833208008
 10
92.6768955078
 20
71.6833208008
 10
92.2466494141
 20
71.0999824219
 10
91.9986660156
 20
69.9333164063
 10
92.1809287109
 20
69.3499833984
 10
92.7934267578
 20
69.3499833984
 10
93.2236728516
 20
69.9333164063
  0
LWPOLYLINE
  5
40F
100
AcDbEntity
  8
0
100
AcDbPolyline
 62
2
  6
CONTINUOUS
 90
2
 70
0
 43
0.2499999924
 10
78.1591513672
 20
71.0999824219
 10
79.3841474609
 20
71.0999824219
  0
LWPOLYLINE
  5
410
100
AcDbEntity
  8
0
100
AcDbPolyline
 62
2
  6
CONTINUOUS
 90
10
 70
0
 43
0.2499999924
 10
100.6393916016
 20
71.6833208008
 10
100.0268935547
 20
71.6833208008
 10
99.5966474609
 20
71.0999824219
 10
99.3486640625
 20
69.9333164063
 10
99.5309267578
 20
69.3499833984
 10
100.1434248047
 20
69.3499833984
 10
100.5736708984
 20
69.9333164063
 10
100.8216542969
 20
71.0999824219
 10
100.2748769531
 20
72.8499868164
 10
101.1936240234
 20
72.8499868164
  0
LWPOLYLINE
  5
411
100
AcDbEntity
  8
0
100
AcDbPolyline
 62
2
  6
CONTINUOUS
 90
10
 70
0
 43
0.2499999924
 10
66.3393935547
 20
71.6833208008
 10
65.7268955078
 20
71.6833208008
 10
65.2966494141
 20
71.0999824219
 10
65.0486660156
 20
69.9333164063
 10
65.2309287109
 20
69.3499833984
 10
65.8434267578
 20
69.3499833984
 10
66.2736728516
 20
69.9333164063
 10
66.52165625
 20
71.0999824219
 10
65.9748789062
 20
72.8499868164
 10
66.8936259766
 20
72.8499868164
  0
LWPOLYLINE
  5
412
100
AcDbEntity
  8
0
100
AcDbPolyline
 62
2
  6
CONTINUOUS
 90
5
 70
0
 43
0.2499999924
 10
76.5111386719
 20
74.7172744141
 10
76.3580087891
 20
74.7172744141
 10
76.4200019531
 20
75.008940918
 10
76.5731318359
 20
75.008940918
 10
76.5111386719
 20
74.7172744141
  0
LWPOLYLINE
  5
413
100
AcDbEntity
  8
0
100
AcDbPolyline
 62
2
  6
CONTINUOUS
 90
6
 70
0
 43
0.2499999924
 10
52.8278056641
 20
74.7172744141
 10
52.6746757812
 20
74.7172744141
 10
52.7366689453
 20
75.008940918
 10
52.8897988281
 20
75.008940918
 10
52.8278056641
 20
74.7172744141
 10
52.5506894531
 20
74.1339414063
  0
LWPOLYLINE
  5
414
100
AcDbEntity
  8
0
100
AcDbPolyline
 62
2
  6
CONTINUOUS
 90
6
 70
0
 43
0.2499999924
 10
40.5778017578
 20
74.7172744141
 10
40.424671875
 20
74.7172744141
 10
40.4866757812
 20
75.008940918
 10
40.6397949219
 20
75.008940918
 10
40.5778017578
 20
74.7172744141
 10
40.3006855469
 20
74.1339414063
  0
LWPOLYLINE
  5
415
100
AcDbEntity
  8
0
100
AcDbPolyline
 62
2
  6
CONTINUOUS
 90
5
 70
0
 43
0.2499999924
 10
28.3277978516
 20
74.7172744141
 10
28.1746787109
 20
74.7172744141
 10
28.236671875
 20
75.008940918
 10
28.3898017578
 20
75.008940918
 10
28.3277978516
 20
74.7172744141
  0
LWPOLYLINE
  5
416
100
AcDbEntity
  8
0
100
AcDbPolyline
 62
2
  6
CONTINUOUS
 90
2
 70
0
 43
0.2499999924
 10
26.4903037109
 20
74.7172744141
 10
27.1028017578
 20
74.7172744141
  0
LWPOLYLINE
  5
417
100
AcDbEntity
  8
0
100
AcDbPolyline
 62
2
  6
CONTINUOUS
 90
2
 70
0
 43
0.2499999924
 10
36.2903046875
 20
74.7172744141
 10
36.9028027344
 20
74.7172744141
  0
LWPOLYLINE
  5
418
100
AcDbEntity
  8
0
100
AcDbPolyline
 62
2
  6
CONTINUOUS
 90
2
 70
0
 43
0.2499999924
 10
48.5402978516
 20
74.7172744141
 10
49.1528066406
 20
74.7172744141
  0
LWPOLYLINE
  5
419
100
AcDbEntity
  8
0
100
AcDbPolyline
 62
2
  6
CONTINUOUS
 90
2
 70
0
 43
0.2499999924
 10
57.5746816406
 20
74.7172744141
 10
61.0746796875
 20
74.7172744141
  0
LWPOLYLINE
  5
41A
100
AcDbEntity
  8
0
100
AcDbPolyline
 62
2
  6
CONTINUOUS
 90
2
 70
0
 43
0.2499999924
 10
61.6580126953
 20
74.7172744141
 10
62.2705107422
 20
74.7172744141
  0
LWPOLYLINE
  5
41B
100
AcDbEntity
  8
0
100
AcDbPolyline
 62
2
  6
CONTINUOUS
 90
2
 70
0
 43
0.2499999924
 10
67.3236357422
 20
74.7172744141
 10
67.9361337891
 20
74.7172744141
  0
LWPOLYLINE
  5
41C
100
AcDbEntity
  8
0
100
AcDbPolyline
 62
2
  6
CONTINUOUS
 90
2
 70
0
 43
0.2499999924
 10
60.7320361328
 20
70.5166494141
 10
61.2496806641
 20
69.3499833984
  0
LWPOLYLINE
  5
41D
100
AcDbEntity
  8
0
100
AcDbPolyline
 62
2
  6
CONTINUOUS
 90
2
 70
0
 43
0.2499999924
 10
33.4466542969
 20
76.4672734375
 10
34.6716503906
 20
76.4672734375
  0
LWPOLYLINE
  5
41E
100
AcDbEntity
  8
0
100
AcDbPolyline
 62
2
  6
CONTINUOUS
 90
2
 70
0
 43
0.2499999924
 10
57.9466513672
 20
76.4672734375
 10
61.4466494141
 20
76.4672734375
  0
LWPOLYLINE
  5
41F
100
AcDbEntity
  8
0
100
AcDbPolyline
 62
2
  6
CONTINUOUS
 90
2
 70
0
 43
0.2499999924
 10
62.4019628906
 20
78.2172724609
 10
63.0144609375
 20
78.2172724609
  0
LWPOLYLINE
  5
420
100
AcDbEntity
  8
0
100
AcDbPolyline
 62
2
  6
CONTINUOUS
 90
2
 70
0
 43
0.2499999924
 10
64.8519550781
 20
78.2172724609
 10
66.0769619141
 20
78.2172724609
  0
LWPOLYLINE
  5
421
100
AcDbEntity
  8
0
100
AcDbPolyline
 62
2
  6
CONTINUOUS
 90
2
 70
0
 43
0.2499999924
 10
68.0820341797
 20
70.5166494141
 10
68.5996787109
 20
69.3499833984
  0
LWPOLYLINE
  5
422
100
AcDbEntity
  8
0
100
AcDbPolyline
 62
2
  6
CONTINUOUS
 90
8
 70
0
 43
0.2499999924
 10
59.1716474609
 20
71.0999824219
 10
58.9893955078
 20
71.6833208008
 10
58.3768974609
 20
71.6833208008
 10
57.9466513672
 20
71.0999824219
 10
57.6986679687
 20
69.9333164063
 10
57.8809306641
 20
69.3499833984
 10
58.4934287109
 20
69.3499833984
 10
58.9236640625
 20
69.9333164063
  0
LWPOLYLINE
  5
423
100
AcDbEntity
  8
0
100
AcDbPolyline
 62
2
  6
CONTINUOUS
 90
9
 70
0
 43
0.2499999924
 10
62.5986630859
 20
69.9333164063
 10
62.7809257812
 20
69.3499833984
 10
63.3934238281
 20
69.3499833984
 10
63.8236699219
 20
69.9333164063
 10
64.0716533203
 20
71.0999824219
 10
63.889390625
 20
71.6833208008
 10
63.2768925781
 20
71.6833208008
 10
62.8466464844
 20
71.0999824219
 10
62.5986630859
 20
69.9333164063
  0
LWPOLYLINE
  5
424
100
AcDbEntity
  8
0
100
AcDbPolyline
 62
2
  6
CONTINUOUS
 90
2
 70
0
 43
0.2499999924
 10
33.0746738281
 20
74.7172744141
 10
33.8186240234
 20
78.2172724609
  0
LWPOLYLINE
  5
425
100
AcDbEntity
  8
0
100
AcDbPolyline
 62
2
  6
CONTINUOUS
 90
7
 70
0
 43
0.2499999924
 10
33.0746738281
 20
69.3499833984
 10
33.8186240234
 20
72.8499868164
 10
34.7373710937
 20
72.8499868164
 10
34.9196337891
 20
72.2666538086
 10
34.7956474609
 20
71.6833208008
 10
34.3654013672
 20
71.0999824219
 10
33.4466542969
 20
71.0999824219
  0
LWPOLYLINE
  5
426
100
AcDbEntity
  8
0
100
AcDbPolyline
 62
2
  6
CONTINUOUS
 90
2
 70
0
 43
0.2499999924
 10
35.0436201172
 20
78.2172724609
 10
34.2996806641
 20
74.7172744141
  0
LWPOLYLINE
  5
427
100
AcDbEntity
  8
0
100
AcDbPolyline
 62
2
  6
CONTINUOUS
 90
3
 70
0
 43
0.2499999924
 10
37.2456396484
 20
71.6833208008
 10
36.8736699219
 20
69.9333164063
 10
36.9028027344
 20
69.3499833984
  0
LWPOLYLINE
  5
428
100
AcDbEntity
  8
0
100
AcDbPolyline
 62
2
  6
CONTINUOUS
 90
4
 70
0
 43
0.2499999924
 10
38.8934267578
 20
74.7172744141
 10
39.6373769531
 20
78.2172724609
 10
38.0986660156
 20
75.3006074219
 10
39.3236728516
 20
75.3006074219
  0
LWPOLYLINE
  5
429
100
AcDbEntity
  8
0
100
AcDbPolyline
 62
2
  6
CONTINUOUS
 90
8
 70
0
 43
0.2499999924
 10
71.4216513672
 20
71.0999824219
 10
71.2393886719
 20
71.6833208008
 10
70.626890625
 20
71.6833208008
 10
70.1966552734
 20
71.0999824219
 10
69.948671875
 20
69.9333164063
 10
70.1309238281
 20
69.3499833984
 10
70.743421875
 20
69.3499833984
 10
71.1736679687
 20
69.9333164063
  0
LWPOLYLINE
  5
42A
100
AcDbEntity
  8
0
100
AcDbPolyline
 62
2
  6
CONTINUOUS
 90
2
 70
0
 43
0.2499999924
 10
72.7706445312
 20
71.6833208008
 10
73.4996738281
 20
69.3499833984
  0
LWPOLYLINE
  5
42B
100
AcDbEntity
  8
0
100
AcDbPolyline
 62
2
  6
CONTINUOUS
 90
5
 70
0
 43
0.2499999924
 10
40.424671875
 20
69.3499833984
 10
40.9206386719
 20
71.6833208008
 10
41.2851640625
 20
70.5166494141
 10
42.1456455078
 20
71.6833208008
 10
41.6496787109
 20
69.3499833984
  0
LWPOLYLINE
  5
42C
100
AcDbEntity
  8
0
100
AcDbPolyline
 62
2
  6
CONTINUOUS
 90
2
 70
0
 43
0.2499999924
 10
46.0686279297
 20
78.2172724609
 10
45.3246777344
 20
74.7172744141
  0
LWPOLYLINE
  5
42D
100
AcDbEntity
  8
0
100
AcDbPolyline
 62
2
  6
CONTINUOUS
 90
2
 70
0
 43
0.2499999924
 10
45.0766943359
 20
68.1833173828
 10
45.8206445312
 20
71.6833208008
  0
LWPOLYLINE
  5
42E
100
AcDbEntity
  8
0
100
AcDbPolyline
 62
2
  6
CONTINUOUS
 90
9
 70
0
 43
0.2499999924
 10
48.2706474609
 20
71.6833208008
 10
47.8986669922
 20
69.9333164063
 10
48.0809296875
 20
69.3499833984
 10
48.3871787109
 20
69.3499833984
 10
48.8174140625
 20
69.9333164063
 10
48.9414111328
 20
70.5166494141
 10
48.7591484375
 20
71.0999824219
 10
48.4528994141
 20
71.0999824219
 10
48.0226640625
 20
70.5166494141
  0
LWPOLYLINE
  5
42F
100
AcDbEntity
  8
0
100
AcDbPolyline
 62
2
  6
CONTINUOUS
 90
2
 70
0
 43
0.2499999924
 10
49.4956435547
 20
71.6833208008
 10
48.9996767578
 20
69.3499833984
  0
LWPOLYLINE
  5
430
100
AcDbEntity
  8
0
100
AcDbPolyline
 62
2
  6
CONTINUOUS
 90
4
 70
0
 43
0.2499999924
 10
51.1434306641
 20
74.7172744141
 10
51.8873701172
 20
78.2172724609
 10
50.3486699219
 20
75.3006074219
 10
51.5736660156
 20
75.3006074219
  0
LWPOLYLINE
  5
431
100
AcDbEntity
  8
0
100
AcDbPolyline
 62
2
  6
CONTINUOUS
 90
3
 70
0
 43
0.2499999924
 10
26.9862705078
 20
77.0506064453
 10
27.5405029297
 20
78.2172724609
 10
26.7965527344
 20
74.7172744141
  0
LWPOLYLINE
  5
432
100
AcDbEntity
  8
0
100
AcDbPolyline
 62
2
  6
CONTINUOUS
 90
9
 70
0
 43
0.2499999924
 10
84.6486679687
 20
69.9333164063
 10
84.8309306641
 20
69.3499833984
 10
85.4434287109
 20
69.3499833984
 10
85.8736640625
 20
69.9333164063
 10
86.1216474609
 20
71.0999824219
 10
85.9393955078
 20
71.6833208008
 10
85.3268974609
 20
71.6833208008
 10
84.8966513672
 20
71.0999824219
 10
84.6486679687
 20
69.9333164063
  0
LWPOLYLINE
  5
433
100
AcDbEntity
  8
0
100
AcDbPolyline
 62
2
  6
CONTINUOUS
 90
8
 70
0
 43
0.2499999924
 10
88.5716503906
 20
71.0999824219
 10
88.3893876953
 20
71.6833208008
 10
87.7768896484
 20
71.6833208008
 10
87.3466542969
 20
71.0999824219
 10
87.0986708984
 20
69.9333164063
 10
87.2809228516
 20
69.3499833984
 10
87.8934316406
 20
69.3499833984
 10
88.3236669922
 20
69.9333164063
  0
LWPOLYLINE
  5
434
100
AcDbEntity
  8
0
100
AcDbPolyline
 62
2
  6
CONTINUOUS
 90
2
 70
0
 43
0.2499999924
 10
60.0686201172
 20
78.2172724609
 10
59.3246806641
 20
74.7172744141
  0
LWPOLYLINE
  5
435
100
AcDbEntity
  8
0
100
AcDbPolyline
 62
2
  6
CONTINUOUS
 90
2
 70
0
 43
0.2499999924
 10
60.520640625
 20
71.6833208008
 10
60.0246738281
 20
69.3499833984
  0
LWPOLYLINE
  5
436
100
AcDbEntity
  8
0
100
AcDbPolyline
 62
2
  6
CONTINUOUS
 90
2
 70
0
 43
0.2499999924
 10
62.7082119141
 20
78.2172724609
 10
61.9642617187
 20
74.7172744141
  0
LWPOLYLINE
  5
437
100
AcDbEntity
  8
0
100
AcDbPolyline
 62
2
  6
CONTINUOUS
 90
2
 70
0
 43
0.2499999924
 10
65.464453125
 20
78.2172724609
 10
64.7205136719
 20
74.7172744141
  0
LWPOLYLINE
  5
438
100
AcDbEntity
  8
0
100
AcDbPolyline
 62
2
  6
CONTINUOUS
 90
3
 70
0
 43
0.2499999924
 10
36.7862714844
 20
77.0506064453
 10
37.3405039062
 20
78.2172724609
 10
36.5965537109
 20
74.7172744141
  0
LWPOLYLINE
  5
439
100
AcDbEntity
  8
0
100
AcDbPolyline
 62
2
  6
CONTINUOUS
 90
2
 70
0
 43
0.2499999924
 10
107.2820380859
 20
70.5166494141
 10
107.799671875
 20
69.3499833984
  0
LWPOLYLINE
  5
43A
100
AcDbEntity
  8
0
100
AcDbPolyline
 62
2
  6
CONTINUOUS
 90
8
 70
0
 43
0.2499999924
 10
98.3716513672
 20
71.0999824219
 10
98.1893886719
 20
71.6833208008
 10
97.576890625
 20
71.6833208008
 10
97.1466552734
 20
71.0999824219
 10
96.898671875
 20
69.9333164063
 10
97.0809238281
 20
69.3499833984
 10
97.693421875
 20
69.3499833984
 10
98.1236679687
 20
69.9333164063
  0
LWPOLYLINE
  5
43B
100
AcDbEntity
  8
0
100
AcDbPolyline
 62
2
  6
CONTINUOUS
 90
9
 70
0
 43
0.2499999924
 10
101.7986669922
 20
69.9333164063
 10
101.9809296875
 20
69.3499833984
 10
102.5934277344
 20
69.3499833984
 10
103.0236630859
 20
69.9333164063
 10
103.2716464844
 20
71.0999824219
 10
103.0893945312
 20
71.6833208008
 10
102.4768964844
 20
71.6833208008
 10
102.0466503906
 20
71.0999824219
 10
101.7986669922
 20
69.9333164063
  0
LWPOLYLINE
  5
43C
100
AcDbEntity
  8
0
100
AcDbPolyline
 62
2
  6
CONTINUOUS
 90
2
 70
0
 43
0.2499999924
 10
67.8706386719
 20
71.6833208008
 10
67.374671875
 20
69.3499833984
  0
LWPOLYLINE
  5
43D
100
AcDbEntity
  8
0
100
AcDbPolyline
 62
2
  6
CONTINUOUS
 90
4
 70
0
 43
0.2499999924
 10
69.9267578125
 20
74.7172744141
 10
70.6707080078
 20
78.2172724609
 10
69.1319970703
 20
75.3006074219
 10
70.3570039062
 20
75.3006074219
  0
LWPOLYLINE
  5
43E
100
AcDbEntity
  8
0
100
AcDbPolyline
 62
2
  6
CONTINUOUS
 90
3
 70
0
 43
0.2499999924
 10
71.5456376953
 20
71.6833208008
 10
71.1736679687
 20
69.9333164063
 10
71.2028007812
 20
69.3499833984
  0
LWPOLYLINE
  5
43F
100
AcDbEntity
  8
0
100
AcDbPolyline
 62
2
  6
CONTINUOUS
 90
3
 70
0
 43
0.2499999924
 10
49.0362646484
 20
77.0506064453
 10
49.5904970703
 20
78.2172724609
 10
48.846546875
 20
74.7172744141
  0
LWPOLYLINE
  5
440
100
AcDbEntity
  8
0
100
AcDbPolyline
 62
2
  6
CONTINUOUS
 90
10
 70
0
 43
0.2499999924
 10
26.3446289062
 20
72.2666538086
 10
26.774875
 20
72.8499868164
 10
27.3873730469
 20
72.8499868164
 10
27.5696357422
 20
72.2666538086
 10
27.3216523437
 20
71.0999824219
 10
26.89140625
 20
70.5166494141
 10
26.2789082031
 20
70.5166494141
 10
25.8486728516
 20
69.9333164063
 10
25.7246757812
 20
69.3499833984
 10
26.949671875
 20
69.3499833984
  0
LWPOLYLINE
  5
441
100
AcDbEntity
  8
0
100
AcDbPolyline
 62
2
  6
CONTINUOUS
 90
2
 70
0
 43
0.2499999924
 10
82.0746787109
 20
69.3499833984
 10
82.5706455078
 20
71.6833208008
  0
LWPOLYLINE
  5
442
100
AcDbEntity
  8
0
100
AcDbPolyline
 62
2
  6
CONTINUOUS
 90
3
 70
0
 43
0.2499999924
 10
67.8196025391
 20
77.0506064453
 10
68.3738349609
 20
78.2172724609
 10
67.6298847656
 20
74.7172744141
  0
LWPOLYLINE
  5
443
100
AcDbEntity
  8
0
100
AcDbPolyline
 62
2
  6
CONTINUOUS
 90
5
 70
0
 43
0.2499999924
 10
45.5726611328
 20
75.8839404297
 10
46.4331425781
 20
77.0506064453
 10
46.7393916016
 20
77.0506064453
 10
46.9216542969
 20
76.4672734375
 10
46.5496738281
 20
74.7172744141
  0
LWPOLYLINE
  5
444
100
AcDbEntity
  8
0
100
AcDbPolyline
 62
2
  6
CONTINUOUS
 90
2
 70
0
 43
0.2499999924
 10
71.4580136719
 20
74.7172744141
 10
73.4269599609
 20
78.2172724609
  0
LWPOLYLINE
  5
445
100
AcDbEntity
  8
0
100
AcDbPolyline
 62
2
  6
CONTINUOUS
 90
12
 70
0
 43
0.2499999924
 10
53.04665625
 20
71.0999824219
 10
53.9071376953
 20
72.2666538086
 10
54.0311240234
 20
72.8499868164
 10
53.724875
 20
72.8499868164
 10
53.2946289062
 20
72.2666538086
 10
52.7986728516
 20
69.9333164063
 10
52.9809248047
 20
69.3499833984
 10
53.5934228516
 20
69.3499833984
 10
54.0236689453
 20
69.9333164063
 10
54.2716523437
 20
71.0999824219
 10
54.0893896484
 20
71.6833208008
 10
53.4768916016
 20
71.6833208008
  0
LWPOLYLINE
  5
446
100
AcDbEntity
  8
0
100
AcDbPolyline
 62
2
  6
CONTINUOUS
 90
2
 70
0
 43
0.2499999924
 10
103.8766894531
 20
68.1833173828
 10
104.6206396484
 20
71.6833208008
  0
LWPOLYLINE
  5
447
100
AcDbEntity
  8
0
100
AcDbPolyline
 62
2
  6
CONTINUOUS
 90
2
 70
0
 43
0.2499999924
 10
107.0706425781
 20
71.6833208008
 10
106.5746757812
 20
69.3499833984
  0
LWPOLYLINE
  5
448
100
AcDbEntity
  8
0
100
AcDbPolyline
 62
2
  6
CONTINUOUS
 90
5
 70
0
 43
0.2499999924
 10
109.5206347656
 20
71.6833208008
 10
109.1486650391
 20
69.9333164063
 10
109.3309277344
 20
69.3499833984
 10
109.6371875
 20
69.3499833984
 10
110.4976582031
 20
70.5166494141
  0
LWPOLYLINE
  5
449
100
AcDbEntity
  8
0
100
AcDbPolyline
 62
2
  6
CONTINUOUS
 90
2
 70
0
 43
0.2499999924
 10
110.7456523437
 20
71.6833208008
 10
110.2496855469
 20
69.3499833984
  0
LWPOLYLINE
  5
44A
100
AcDbEntity
  8
0
100
AcDbPolyline
 62
2
  6
CONTINUOUS
 90
3
 70
0
 43
0.2499999924
 10
89.4246767578
 20
69.3499833984
 10
90.5331416016
 20
71.6833208008
 10
90.6496728516
 20
69.3499833984
  0
LWPOLYLINE
  5
44B
100
AcDbEntity
  8
0
100
AcDbPolyline
 62
2
  6
CONTINUOUS
 90
10
 70
0
 43
0.2499999924
 10
74.5279697266
 20
77.6339394531
 10
74.9582050781
 20
78.2172724609
 10
75.570703125
 20
78.2172724609
 10
75.7529658203
 20
77.6339394531
 10
75.5049824219
 20
76.4672734375
 10
75.0747470703
 20
75.8839404297
 10
74.4622382812
 20
75.8839404297
 10
74.0320029297
 20
75.3006074219
 10
73.9080058594
 20
74.7172744141
 10
75.1330126953
 20
74.7172744141
  0
LWPOLYLINE
  5
44C
100
AcDbEntity
  8
0
100
AcDbPolyline
 62
2
  6
CONTINUOUS
 90
2
 70
0
 43
0.2499999924
 10
72.2746777344
 20
69.3499833984
 10
73.995640625
 20
71.6833208008
  0
LWPOLYLINE
  5
44D
100
AcDbEntity
  8
0
100
AcDbPolyline
 62
2
  6
CONTINUOUS
 90
2
 70
0
 43
0.2499999924
 10
60.1486708984
 20
69.9333164063
 10
61.7456474609
 20
71.6833208008
  0
LWPOLYLINE
  5
44E
100
AcDbEntity
  8
0
100
AcDbPolyline
 62
2
  6
CONTINUOUS
 90
2
 70
0
 43
0.2499999924
 10
67.4986689453
 20
69.9333164063
 10
69.0956455078
 20
71.6833208008
  0
LWPOLYLINE
  5
44F
100
AcDbEntity
  8
0
100
AcDbPolyline
 62
2
  6
CONTINUOUS
 90
5
 70
0
 43
0.2499999924
 10
82.4466484375
 20
71.0999824219
 10
82.8768945312
 20
71.6833208008
 10
83.4893925781
 20
71.6833208008
 10
83.6716552734
 20
71.0999824219
 10
83.2996748047
 20
69.3499833984
  0
LWPOLYLINE
  5
450
100
AcDbEntity
  8
0
100
AcDbPolyline
 62
2
  6
CONTINUOUS
 90
2
 70
0
 43
0.2499999924
 10
106.6986728516
 20
69.9333164063
 10
108.2956386719
 20
71.6833208008
  0
LINE
  5
451
100
AcDbEntity
  8
0
100
AcDbLine
 62
7
  6
CONTINUOUS
 10
205.0
 20
5.0
 11
205.0
 21
292.3498994289
  0
LINE
  5
452
100
AcDbEntity
  8
0
100
AcDbLine
 62
7
  6
CONTINUOUS
 10
210.0
 20
297.0
 11
210.0
 21
0.0
  0
LINE
  5
453
100
AcDbEntity
  8
0
100
AcDbLine
 62
7
  6
CONTINUOUS
 10
205.0
 20
292.3498994289
 11
20.0
 21
292.3498994289
  0
LINE
  5
454
100
AcDbEntity
  8
0
100
AcDbLine
 62
7
  6
CONTINUOUS
 10
-0.0
 20
297.0
 11
210.0
 21
297.0
  0
LWPOLYLINE
  5
455
100
AcDbEntity
  8
ALL_DIMENSIONS
100
AcDbPolyline
 62
2
  6
CONTINUOUS
 90
9
 70
0
 43
0.2499999924
 10
114.6524140625
 20
150.0105341797
 10
115.2649121094
 20
150.0105341797
 10
115.5711503906
 20
150.5938671875
 10
115.5711503906
 20
151.1772001953
 10
115.2649121094
 20
151.7605332031
 10
114.6524140625
 20
151.7605332031
 10
114.3461542969
 20
151.1772001953
 10
114.3461542969
 20
150.5938671875
 10
114.6524140625
 20
150.0105341797
  0
LINE
  5
456
100
AcDbEntity
  8
ALL_AXIS
100
AcDbLine
 62
7
  6
CONTINUOUS
 10
119.3461538462
 20
160.0384615385
 11
109.3461538462
 21
160.0384615385
  0
LINE
  5
457
100
AcDbEntity
  8
0
100
AcDbLine
 62
7
  6
CONTINUOUS
 10
119.3461538462
 20
160.0384615385
 11
109.3461538462
 21
160.0384615385
  0
LINE
  5
458
100
AcDbEntity
  8
0
100
AcDbLine
 62
2
  6
CONTINUOUS
 10
109.3461538462
 20
217.8112247425
 11
111.5733906421
 21
220.0384615385
  0
LINE
  5
459
100
AcDbEntity
  8
0
100
AcDbLine
 62
2
  6
CONTINUOUS
 10
109.3461538462
 20
214.5806169709
 11
114.8039984137
 21
220.0384615385
  0
LINE
  5
45A
100
AcDbEntity
  8
0
100
AcDbLine
 62
2
  6
CONTINUOUS
 10
109.3461538462
 20
211.3500091993
 11
118.0346061854
 21
220.0384615385
  0
LINE
  5
45B
100
AcDbEntity
  8
0
100
AcDbLine
 62
2
  6
CONTINUOUS
 10
109.3461538462
 20
208.1194014276
 11
119.3461538462
 21
218.1194014276
  0
LINE
  5
45C
100
AcDbEntity
  8
0
100
AcDbLine
 62
2
  6
CONTINUOUS
 10
109.3461538462
 20
204.888793656
 11
119.3461538462
 21
214.888793656
  0
LWPOLYLINE
  5
45D
100
AcDbEntity
  8
ALL_DIMENSIONS
100
AcDbPolyline
 62
2
  6
CONTINUOUS
 90
6
 70
0
 43
0.2499999924
 10
116.7961464844
 20
153.5105429688
 10
117.10240625
 20
152.9272099609
 10
117.2555253906
 20
152.3438769531
 10
117.2555253906
 20
151.1772001953
 10
117.10240625
 20
150.5938671875
 10
116.7961464844
 20
150.0105341797
  0
LINE
  5
45E
100
AcDbEntity
  8
0
100
AcDbLine
 62
2
  6
CONTINUOUS
 10
109.3461538462
 20
201.6581858844
 11
119.3461538462
 21
211.6581858844
  0
LINE
  5
45F
100
AcDbEntity
  8
0
100
AcDbLine
 62
2
  6
CONTINUOUS
 10
109.3461538462
 20
198.4275781128
 11
119.3461538462
 21
208.4275781128
  0
LINE
  5
460
100
AcDbEntity
  8
0
100
AcDbLine
 62
2
  6
CONTINUOUS
 10
110.1876450435
 20
196.0384615385
 11
119.3461538462
 21
205.1969703412
  0
LINE
  5
461
100
AcDbEntity
  8
0
100
AcDbLine
 62
7
  6
CONTINUOUS
 10
119.3461538462
 20
184.0384615385
 11
109.3461538462
 21
184.0384615385
  0
LINE
  5
462
100
AcDbEntity
  8
0
100
AcDbLine
 62
7
  6
CONTINUOUS
 10
109.3461538462
 20
160.0384615385
 11
109.3461538462
 21
184.0384615385
  0
LINE
  5
463
100
AcDbEntity
  8
ALL_AXIS
100
AcDbLine
 62
7
  6
CONTINUOUS
 10
109.3461538462
 20
184.0384615385
 11
109.3461538462
 21
196.0384615385
  0
LINE
  5
464
100
AcDbEntity
  8
0
100
AcDbLine
 62
7
  6
CONTINUOUS
 10
109.3461538462
 20
196.0384615385
 11
109.3461538462
 21
220.0384615385
  0
LINE
  5
465
100
AcDbEntity
  8
0
100
AcDbLine
 62
2
  6
CONTINUOUS
 10
113.4182528151
 20
196.0384615385
 11
119.3461538462
 21
201.9663625695
  0
LINE
  5
466
100
AcDbEntity
  8
0
100
AcDbLine
 62
2
  6
CONTINUOUS
 10
116.6488605867
 20
196.0384615385
 11
119.3461538462
 21
198.7357547979
  0
LINE
  5
467
100
AcDbEntity
  8
ALL_AXIS
100
AcDbLine
 62
7
  6
CENTER
 10
107.3461538462
 20
190.0384615385
 11
121.3461538462
 21
190.0384615385
  0
LINE
  5
468
100
AcDbEntity
  8
0
100
AcDbLine
 62
2
  6
CONTINUOUS
 10
109.3461538462
 20
182.2745392547
 11
111.1100761299
 21
184.0384615385
  0
LINE
  5
469
100
AcDbEntity
  8
0
100
AcDbLine
 62
2
  6
CONTINUOUS
 10
109.3461538462
 20
179.043931483
 11
114.3406839016
 21
184.0384615385
  0
LWPOLYLINE
  5
46A
100
AcDbEntity
  8
ALL_DIMENSIONS
100
AcDbPolyline
 62
2
  6
CONTINUOUS
 90
13
 70
0
 43
0.2499999924
 10
139.6686054688
 20
185.255125
 10
138.7935898438
 20
185.546796875
 10
138.2102675781
 20
186.1301191406
 10
137.9185957031
 20
187.0051347656
 10
138.2102675781
 20
187.8801289063
 10
138.7935898438
 20
188.4634511719
 10
139.6686054688
 20
188.7551230469
 10
140.5435996094
 20
188.4634511719
 10
141.1269433594
 20
187.8801289063
 10
141.41859375
 20
187.0051347656
 10
141.1269433594
 20
186.1301191406
 10
140.5435996094
 20
185.546796875
 10
139.6686054688
 20
185.255125
  0
LINE
  5
46B
100
AcDbEntity
  8
0
100
AcDbLine
 62
7
  6
CONTINUOUS
 10
119.3461538462
 20
160.0384615385
 11
119.3461538462
 21
184.0384615385
  0
LINE
  5
46C
100
AcDbEntity
  8
ALL_AXIS
100
AcDbLine
 62
7
  6
CONTINUOUS
 10
119.3461538462
 20
184.0384615385
 11
119.3461538462
 21
196.0384615385
  0
LINE
  5
46D
100
AcDbEntity
  8
0
100
AcDbLine
 62
7
  6
CONTINUOUS
 10
119.3461538462
 20
196.0384615385
 11
119.3461538462
 21
220.0384615385
  0
LINE
  5
46E
100
AcDbEntity
  8
0
100
AcDbLine
 62
7
  6
CONTINUOUS
 10
119.3461538462
 20
196.0384615385
 11
109.3461538462
 21
196.0384615385
  0
LINE
  5
46F
100
AcDbEntity
  8
0
100
AcDbLine
 62
2
  6
CONTINUOUS
 10
109.3461538462
 20
175.8133237114
 11
117.5712916732
 21
184.0384615385
  0
LINE
  5
470
100
AcDbEntity
  8
0
100
AcDbLine
 62
2
  6
CONTINUOUS
 10
109.3461538462
 20
172.5827159398
 11
119.3461538462
 21
182.5827159398
  0
LWPOLYLINE
  5
471
100
AcDbEntity
  8
ALL_DIMENSIONS
100
AcDbPolyline
 62
2
  6
CONTINUOUS
 90
12
 70
0
 43
0.2499999924
 10
138.5019394531
 20
191.1467851563
 10
137.9185957031
 20
190.840546875
 10
137.9185957031
 20
190.2280488281
 10
138.5019394531
 20
189.9217890625
 10
140.8352714844
 20
189.9217890625
 10
141.41859375
 20
190.2280488281
 10
141.41859375
 20
190.840546875
 10
140.8352714844
 20
191.1467851563
 10
139.6686054688
 20
191.1467851563
 10
139.0852617187
 20
190.840546875
 10
139.0852617187
 20
190.2280488281
 10
139.6686054688
 20
189.9217890625
  0
LWPOLYLINE
  5
472
100
AcDbEntity
  8
ALL_DIMENSIONS
100
AcDbPolyline
 62
2
  6
CONTINUOUS
 90
9
 70
0
 43
0.2499999924
 10
141.41859375
 20
192.6780410156
 10
140.8352714844
 20
192.3718027344
 10
138.5019394531
 20
192.3718027344
 10
137.9185957031
 20
192.6780410156
 10
137.9185957031
 20
193.2905390625
 10
138.5019394531
 20
193.5967988281
 10
140.8352714844
 20
193.5967988281
 10
141.41859375
 20
193.2905390625
 10
141.41859375
 20
192.6780410156
  0
LWPOLYLINE
  5
473
100
AcDbEntity
  8
ALL_DIMENSIONS
100
AcDbPolyline
 62
2
  6
CONTINUOUS
 90
2
 70
0
 43
0.2499999924
 10
142.293609375
 20
185.546796875
 10
137.0436015625
 20
188.4634511719
  0
LINE
  5
474
100
AcDbEntity
  8
0
100
AcDbLine
 62
2
  6
CONTINUOUS
 10
109.3461538462
 20
169.3521081682
 11
119.3461538462
 21
179.3521081682
  0
LINE
  5
475
100
AcDbEntity
  8
0
100
AcDbLine
 62
2
  6
CONTINUOUS
 10
109.3461538462
 20
166.1215003966
 11
119.3461538462
 21
176.1215003966
  0
LWPOLYLINE
  5
476
100
AcDbEntity
  8
ALL_DIMENSIONS
100
AcDbPolyline
 62
2
  6
CONTINUOUS
 90
6
 70
0
 43
0.2499999924
 10
113.1211582031
 20
153.5105429688
 10
112.8148984375
 20
152.9272099609
 10
112.6617792969
 20
152.3438769531
 10
112.6617792969
 20
151.1772001953
 10
112.8148984375
 20
150.5938671875
 10
113.1211582031
 20
150.0105341797
  0
LINE
  5
477
100
AcDbEntity
  8
0
100
AcDbLine
 62
2
  6
CONTINUOUS
 10
109.3461538462
 20
162.8908926249
 11
119.3461538462
 21
172.8908926249
  0
LINE
  5
478
100
AcDbEntity
  8
0
100
AcDbLine
 62
2
  6
CONTINUOUS
 10
109.7243305313
 20
160.0384615385
 11
119.3461538462
 21
169.6602848533
  0
LWPOLYLINE
  5
479
100
AcDbEntity
  8
ALL_DIMENSIONS
100
AcDbPolyline
 62
2
  6
CONTINUOUS
 90
13
 70
0
 43
0.2499999924
 10
131.3741972656
 20
202.7907148438
 10
130.499203125
 20
203.0823652344
 10
129.915859375
 20
203.6657089844
 10
129.6242089844
 20
204.540703125
 10
129.915859375
 20
205.4156972656
 10
130.499203125
 20
205.9990410156
 10
131.3741972656
 20
206.2907128906
 10
132.2491914062
 20
205.9990410156
 10
132.8325351563
 20
205.4156972656
 10
133.1242070312
 20
204.540703125
 10
132.8325351563
 20
203.6657089844
 10
132.2491914062
 20
203.0823652344
 10
131.3741972656
 20
202.7907148438
  0
LWPOLYLINE
  5
47A
100
AcDbEntity
  8
ALL_DIMENSIONS
100
AcDbPolyline
 62
2
  6
CONTINUOUS
 90
2
 70
0
 43
0.2499999924
 10
133.1242070312
 20
208.2229960938
 10
133.1242070312
 20
208.8354941406
  0
LWPOLYLINE
  5
47B
100
AcDbEntity
  8
ALL_DIMENSIONS
100
AcDbPolyline
 62
2
  6
CONTINUOUS
 90
8
 70
0
 43
0.2499999924
 10
115.2649121094
 20
151.7605332031
 10
115.5711503906
 20
152.3438769531
 10
115.5711503906
 20
152.9272099609
 10
115.2649121094
 20
153.5105429688
 10
114.6524140625
 20
153.5105429688
 10
114.3461542969
 20
152.9272099609
 10
114.3461542969
 20
152.3438769531
 10
114.6524140625
 20
151.7605332031
  0
LINE
  5
47C
100
AcDbEntity
  8
0
100
AcDbLine
 62
2
  6
CONTINUOUS
 10
112.9549383029
 20
160.0384615385
 11
119.3461538462
 21
166.4296770817
  0
LINE
  5
47D
100
AcDbEntity
  8
0
100
AcDbLine
 62
2
  6
CONTINUOUS
 10
116.1855460745
 20
160.0384615385
 11
119.3461538462
 21
163.1990693101
  0
LWPOLYLINE
  5
47E
100
AcDbEntity
  8
ALL_DIMENSIONS
100
AcDbPolyline
 62
2
  6
CONTINUOUS
 90
3
 70
0
 43
0.2499999924
 10
130.790875
 20
208.2229960938
 10
129.6242089844
 20
208.5292558594
 10
133.1242070312
 20
208.5292558594
  0
LWPOLYLINE
  5
47F
100
AcDbEntity
  8
ALL_DIMENSIONS
100
AcDbPolyline
 62
2
  6
CONTINUOUS
 90
2
 70
0
 43
0.2499999924
 10
133.9992011719
 20
203.0823652344
 10
128.7491933594
 20
205.9990410156
  0
LWPOLYLINE
  5
480
100
AcDbEntity
  8
ALL_DIMENSIONS
100
AcDbPolyline
 62
2
  6
CONTINUOUS
 90
10
 70
0
 43
0.2499999924
 10
130.20753125
 20
209.9073710938
 10
129.6242089844
 20
210.2136308594
 10
129.6242089844
 20
210.8261289063
 10
130.20753125
 20
211.1323671875
 10
131.3741972656
 20
211.1323671875
 10
131.9575410156
 20
210.8261289063
 10
131.9575410156
 20
210.2136308594
 10
132.5408632812
 20
209.9073710938
 10
133.1242070312
 20
209.9073710938
 10
133.1242070312
 20
211.1323671875
  0
LINE
  5
481
100
AcDbEntity
  8
0
100
AcDbLine
 62
7
  6
CONTINUOUS
 10
119.3461538462
 20
220.0384615385
 11
109.3461538462
 21
220.0384615385
  0
ENDSEC
  0
SECTION
  2
OBJECTS
  0
DICTIONARY
  5
C
100
AcDbDictionary
280
0
281
1
  3
ACAD_GROUP
350
D
  3
ACAD_MLINESTYLE
350
17
  3
ACAD_LAYOUT
350
1A
  3
ACAD_PLOTSETTINGS
350
19
  3
ACAD_PLOTSTYLENAME
350
E
  0
DICTIONARY
  5
D
102
{ACAD_REACTORS
330
C
102
}
100
AcDbDictionary
280
0
281
1
  0
ACDBDICTIONARYWDFLT
  5
E
102
{ACAD_REACTORS
330
C
102
}
100
AcDbDictionary
281
1
  3
Normal
350
F
100
AcDbDictionaryWithDefault
340
F
  0
DICTIONARY
  5
17
102
{ACAD_REACTORS
330
C
102
}
100
AcDbDictionary
280
0
281
1
  3
Standard
350
18
  0
DICTIONARY
  5
19
102
{ACAD_REACTORS
330
C
102
}
100
AcDbDictionary
281
1
  0
DICTIONARY
  5
1A
102
{ACAD_REACTORS
330
C
102
}
100
AcDbDictionary
281
1
  3
Layout1
350
1E
  3
Model
350
22
  0
ACDBPLACEHOLDER
  5
F
102
{ACAD_REACTORS
330
E
102
}
  0
MLINESTYLE
  5
18
102
{ACAD_REACTORS
330
17
102
}
100
AcDbMlineStyle
  2
STANDARD
 70
0
  3

 62
256
 51
90.0
 52
90.0
 71
2
 49
0.5
 62
256
  6
BYLAYER
 49
-0.5
 62
256
  6
BYLAYER
  0
LAYOUT
  5
1E
102
{ACAD_REACTORS
330
1A
102
}
100
AcDbPlotSettings
  1

  2

  4

  6

 40
0.0
 41
0.0
 42
0.0
 43
0.0
 44
0.0
 45
0.0
 46
0.0
 47
0.0
 48
0.0
 49
0.0
140
0.0
141
0.0
142
1.0
143
1.0
 70
0
 72
0
 73
0
 74
0
  7

 75
0
147
1.0
148
0.0
149
0.0
100
AcDbLayout
  1
Layout1
 70
0
 71
0
 10
0.0
 20
0.0
 11
0.0
 21
0.0
 12
0.0
 22
0.0
 32
0.0
 14
0.0
 24
0.0
 34
0.0
 15
0.0
 25
0.0
 35
0.0
146
0.0
 13
0.0
 23
0.0
 33
0.0
 16
0.0
 26
0.0
 36
0.0
 17
0.0
 27
0.0
 37
0.0
 76
0
330
1B
331
0
345
0
346
0
  0
LAYOUT
  5
22
102
{ACAD_REACTORS
330
1A
102
}
100
AcDbPlotSettings
  1

  2

  4

  6

 40
0.0
 41
0.0
 42
0.0
 43
0.0
 44
0.0
 45
0.0
 46
0.0
 47
0.0
 48
0.0
 49
0.0
140
0.0
141
0.0
142
1.0
143
1.0
 70
0
 72
0
 73
0
 74
0
  7

 75
0
147
1.0
148
0.0
149
0.0
100
AcDbLayout
  1
Model
 70
0
 71
0
 10
0.0
 20
0.0
 11
0.0
 21
0.0
 12
0.0
 22
0.0
 32
0.0
 14
0.0
 24
0.0
 34
0.0
 15
0.0
 25
0.0
 35
0.0
146
0.0
 13
0.0
 23
0.0
 33
0.0
 16
0.0
 26
0.0
 36
0.0
 17
0.0
 27
0.0
 37
0.0
 76
0
330
1F
331
0
345
0
346
0
  0
ENDSEC
  0
EOF
