  0
SECTION
  2
HEADER
  9
$ACADVER
  1
AC1015
  9
$DWGCODEPAGE
  3
ANSI_1251
  9
$EXTMAX
 10
210.0
 20
297.0
 30
0.0
  9
$EXTMIN
 10
0.0
 20
0.0
 30
0.0
  9
$LIMMIN
 10
0.0
 20
0.0
  9
$LIMMAX
 10
210.0
 20
297.0
  9
$VIEWCTR
 10
105.0
 20
148.5
  9
$VIEWSIZE
 40
297.0
  9
$CLAYER
  8
0
  9
$LTSCALE
 40
19.36
  9
$CELTYPE
  6
BYLAYER
  9
$DIMSCALE
 40
1.0
  9
$DIMASZ
 40
3.0
  9
$DIMEXO
 40
2.2
  9
$DIMDLI
 40
13.376
  9
$DIMEXE
 40
6.336
  9
$DIMCEN
 40
3.168
  9
$DIMLFAC
 40
1.0
  9
$DIMBLK
  1
_FILLED
  9
$DIMTXT
 40
3.6
  9
$DIMTOL
 70
1
  9
$DIMLIM
 70
0
  9
$DIMTFAC
 40
1.0
  9
$DIMTP
 40
0.00001
  9
$DIMTM
 40
0.00001
  9
$PDMODE
 70
3
  9
$PDSIZE
 40
0.3125
  9
$HANDSEED
  5
49B
  9
$TILEMODE
 70
1
  9
$MEASUREMENT
 70
1
  9
$INSUNITS
 70
4
  0
ENDSEC
  0
SECTION
  2
CLASSES
  0
CLASS
  1
ACDBDICTIONARYWDFLT
  2
AcDbDictionaryWithDefault
  3
AutoCAD 2000
 90
0
280
0
281
0
  0
CLASS
  1
ACDBPLACEHOLDER
  2
AcDbPlaceHolder
  3
AutoCAD 2000
 90
0
280
0
281
0
  0
CLASS
  1
LAYOUT
  2
AcDbLayout
  3
AutoCAD 2000
 90
0
280
0
281
0
  0
ENDSEC
  0
SECTION
  2
TABLES
  0
TABLE
  2
VPORT
  5
8
100
AcDbSymbolTable
 70
2
  0
VPORT
  5
1F4
100
AcDbSymbolTableRecord
100
AcDbViewportTableRecord
  2
*ACTIVE
 70
0
 10
0.0
 20
0.0
 11
1.0
 21
1.0
 12
105.0
 22
148.5
 13
0.0
 23
0.0
 14
1.0
 24
1.0
 15
0.0
 25
0.0
 16
0.0
 26
0.0
 36
1.0
 17
0.0
 27
0.0
 37
0.0
 40
297.0
 41
0.7070707071
 42
50.0
 43
0.0
 44
0.0
 50
0.0
 51
0.0
 71
0
 72
100
 73
1
 74
1
 75
0
 76
0
 77
0
 78
0
  0
ENDTAB
  0
TABLE
  2
LTYPE
  5
5
100
AcDbSymbolTable
 70
6
  0
LTYPE
  5
14
100
AcDbSymbolTableRecord
100
AcDbLinetypeTableRecord
  2
BYBLOCK
 70
0
  3

 72
65
 73
0
 40
0.0
  0
LTYPE
  5
15
100
AcDbSymbolTableRecord
100
AcDbLinetypeTableRecord
  2
BYLAYER
 70
0
  3

 72
65
 73
0
 40
0.0
  0
LTYPE
  5
16
100
AcDbSymbolTableRecord
100
AcDbLinetypeTableRecord
  2
CONTINUOUS
 70
64
  3
Solid line
 72
65
 73
0
 40
0.0
  0
LTYPE
  5
1F5
100
AcDbSymbolTableRecord
100
AcDbLinetypeTableRecord
  2
CENTER
 70
64
  3
____ _ ____ _ ____ _ ____ _ ____ _ ____ _ ____
 72
65
 73
4
 40
0.6
 49
0.375
 74
0
 49
-0.075
 74
0
 49
0.075
 74
0
 49
-0.075
 74
0
  0
LTYPE
  5
1F6
100
AcDbSymbolTableRecord
100
AcDbLinetypeTableRecord
  2
HIDDEN
 70
64
  3
- - - - - - - - - - - - - - - - - - - -
 72
65
 73
2
 40
0.2
 49
0.1
 74
0
 49
-0.1
 74
0
  0
LTYPE
  5
1F7
100
AcDbSymbolTableRecord
100
AcDbLinetypeTableRecord
  2
PHANTOM
 70
64
  3
_____ _ _ _____ _ _ _____ _ _ _____
 72
65
 73
6
 40
0.8
 49
0.45
 74
0
 49
-0.05
 74
0
 49
0.1
 74
0
 49
-0.05
 74
0
 49
0.1
 74
0
 49
-0.05
 74
0
  0
LTYPE
  5
1F8
100
AcDbSymbolTableRecord
100
AcDbLinetypeTableRecord
  2
DOT
 70
64
  3
. . . . . . . . . . . . . . . . . . . .
 72
65
 73
2
 40
0.2
 49
0.1
 74
0
 49
-0.1
 74
0
  0
LTYPE
  5
1F9
100
AcDbSymbolTableRecord
100
AcDbLinetypeTableRecord
  2
DASHED
 70
64
  3
- - - - - - - - - - - - - - - - - - - -
 72
65
 73
2
 40
0.2
 49
0.1
 74
0
 49
-0.1
 74
0
  0
ENDTAB
  0
TABLE
  2
LAYER
  5
2
100
AcDbSymbolTable
 70
36
  0
LAYER
  5
10
100
AcDbSymbolTableRecord
100
AcDbLayerTableRecord
  2
0
 70
0
 62
7
  6
CONTINUOUS
370
-3
390
F
  0
LAYER
  5
1FA
100
AcDbSymbolTableRecord
100
AcDbLayerTableRecord
  2
DEFAULT_1
 70
0
 62
7
  6
CENTER
370
-3
390
F
  0
LAYER
  5
1FB
100
AcDbSymbolTableRecord
100
AcDbLayerTableRecord
  2
DEFAULT_2
 70
0
 62
8
  6
HIDDEN
370
-3
390
F
  0
LAYER
  5
1FC
100
AcDbSymbolTableRecord
100
AcDbLayerTableRecord
  2
DEFAULT_3
 70
0
 62
7
  6
PHANTOM
370
-3
390
F
  0
LAYER
  5
1FD
100
AcDbSymbolTableRecord
100
AcDbLayerTableRecord
  2
ALL_AXIS
 70
0
 62
7
  6
CONTINUOUS
370
-3
390
F
  0
LAYER
  5
1FE
100
AcDbSymbolTableRecord
100
AcDbLayerTableRecord
  2
ALL_DIMENSIONS
 70
0
 62
7
  6
CONTINUOUS
370
-3
390
F
  0
LAYER
  5
1FF
100
AcDbSymbolTableRecord
100
AcDbLayerTableRecord
  2
ALL_GTOL
 70
0
 62
7
  6
CONTINUOUS
370
-3
390
F
  0
LAYER
  5
200
100
AcDbSymbolTableRecord
100
AcDbLayerTableRecord
  2
ALL_PLANE
 70
0
 62
7
  6
CONTINUOUS
370
-3
390
F
  0
LAYER
  5
201
100
AcDbSymbolTableRecord
100
AcDbLayerTableRecord
  2
ALL_SURF_FIN
 70
0
 62
7
  6
CONTINUOUS
370
-3
390
F
  0
ENDTAB
  0
TABLE
  2
STYLE
  5
3
100
AcDbSymbolTable
 70
1
  0
STYLE
  5
11
100
AcDbSymbolTableRecord
100
AcDbTextStyleTableRecord
  2
STANDARD
 70
0
 40
0.0
 41
0.7
 50
0.0
 71
0
 42
0.2
  3
txt
  4

  0
STYLE
  5
202
100
AcDbSymbolTableRecord
100
AcDbTextStyleTableRecord
  2
TEXTSTYLE_1
 70
0
 40
0.0
 41
0.8
 50
0.0
 71
0
 42
0.2
  3
gdt
  4

  0
STYLE
  5
203
100
AcDbSymbolTableRecord
100
AcDbTextStyleTableRecord
  2
TEXTSTYLE_2
 70
0
 40
0.0
 41
0.8
 50
0.0
 71
0
 42
0.2
  3
txt
  4

  0
STYLE
  5
204
100
AcDbSymbolTableRecord
100
AcDbTextStyleTableRecord
  2
TEXTSTYLE_3
 70
0
 40
0.0
 41
0.5
 50
0.0
 71
0
 42
0.2
  3
txt
  4

  0
STYLE
  5
205
100
AcDbSymbolTableRecord
100
AcDbTextStyleTableRecord
  2
TEXTSTYLE_4
 70
0
 40
0.0
 41
0.6
 50
0.0
 71
0
 42
0.2
  3
txt
  4

  0
STYLE
  5
206
100
AcDbSymbolTableRecord
100
AcDbTextStyleTableRecord
  2
TEXTSTYLE_5
 70
0
 40
0.0
 41
0.45
 50
0.0
 71
0
 42
0.2
  3
txt
  4

  0
ENDTAB
  0
TABLE
  2
VIEW
  5
6
100
AcDbSymbolTable
 70
0
  0
ENDTAB
  0
TABLE
  2
UCS
  5
7
100
AcDbSymbolTable
 70
0
  0
ENDTAB
  0
TABLE
  2
APPID
  5
9
100
AcDbSymbolTable
 70
1
  0
APPID
  5
207
100
AcDbSymbolTableRecord
100
AcDbRegAppTableRecord
  2
ACAD
 70
0
  0
ENDTAB
  0
TABLE
  2
BLOCK_RECORD
  5
1
100
AcDbSymbolTable
 70
0
  0
BLOCK_RECORD
  5
208
100
AcDbSymbolTableRecord
100
AcDbBlockTableRecord
  2
*Model_Space
  0
BLOCK_RECORD
  5
209
100
AcDbSymbolTableRecord
100
AcDbBlockTableRecord
  2
*Paper_Space
  0
BLOCK_RECORD
  5
20A
100
AcDbSymbolTableRecord
100
AcDbBlockTableRecord
  2
_FILLED
  0
BLOCK_RECORD
  5
20B
100
AcDbSymbolTableRecord
100
AcDbBlockTableRecord
  2
*D0
  0
BLOCK_RECORD
  5
20C
100
AcDbSymbolTableRecord
100
AcDbBlockTableRecord
  2
*D1
  0
BLOCK_RECORD
  5
20D
100
AcDbSymbolTableRecord
100
AcDbBlockTableRecord
  2
SYM_8_BL2
  0
BLOCK_RECORD
  5
20E
100
AcDbSymbolTableRecord
100
AcDbBlockTableRecord
  2
SF0_BL1
  0
BLOCK_RECORD
  5
20F
100
AcDbSymbolTableRecord
100
AcDbBlockTableRecord
  2
SF1_BL0
  0
ENDTAB
  0
TABLE
  2
DIMSTYLE
  5
A
100
AcDbSymbolTable
 70
1
100
AcDbDimStyleTable
 71
0
  0
DIMSTYLE
105
210
100
AcDbSymbolTableRecord
100
AcDbDimStyleTableRecord
  2
STANDARD
 70
0
  3

  4

 40
1.0
 41
3.0
 42
0.0625
 43
0.38
 44
0.18
 45
0.0
 46
0.0
 47
0.00001
 48
0.00001
140
3.6
141
0.09
142
0.0
143
25.4
144
1.0
145
0.0
146
1.0
147
0.09
 71
1.0
 72
0.0
 73
0
 74
0
 75
0
 76
0
 77
1
 78
8
170
0
171
2
172
0
173
0
174
0
175
0
176
0
177
0
178
0
270
2
271
5
272
5
273
2
274
2
275
0
280
0
281
0
282
0
283
1
284
8
285
0
286
0
287
3
288
0
340
11
341
20A
342
20A
343
20A
344
20A
  0
DIMSTYLE
105
211
100
AcDbSymbolTableRecord
100
AcDbDimStyleTableRecord
  2
DIMSTYLE_1
 70
0
  3

  4

 40
1.0
 41
3.0
 42
0.0625
 43
0.38
 44
0.18
 45
0.0
 46
0.0
 47
0.8
 48
0.8
140
3.6
141
0.09
142
0.0
143
25.4
144
2.0
145
0.0
146
1.0
147
0.09
 71
0.0
 72
0.0
 73
0
 74
0
 75
0
 76
0
 77
1
 78
8
170
0
171
2
172
0
173
0
174
0
175
0
176
0
177
0
178
0
270
2
271
4
272
4
273
2
274
2
275
0
280
0
281
0
282
0
283
1
284
8
285
0
286
0
287
3
288
0
340
11
341
20A
342
20A
343
20A
344
20A
  0
DIMSTYLE
105
212
100
AcDbSymbolTableRecord
100
AcDbDimStyleTableRecord
  2
DIMSTYLE_2
 70
0
  3

  4

 40
1.0
 41
3.0
 42
0.0625
 43
0.38
 44
0.18
 45
0.0
 46
0.0
 47
0.3
 48
0.3
140
3.6
141
0.09
142
0.0
143
25.4
144
2.0
145
0.0
146
1.0
147
0.09
 71
0.0
 72
0.0
 73
0
 74
0
 75
0
 76
0
 77
1
 78
8
170
0
171
2
172
0
173
0
174
0
175
0
176
0
177
0
178
0
270
2
271
4
272
4
273
2
274
2
275
0
280
0
281
0
282
0
283
1
284
8
285
0
286
0
287
3
288
0
340
11
341
20A
342
20A
343
20A
344
20A
  0
ENDTAB
  0
ENDSEC
  0
SECTION
  2
BLOCKS
  0
BLOCK
  5
20
100
AcDbEntity
  8
0
100
AcDbBlockBegin
  2
*Model_Space
 70
0
 10
0.0
 20
0.0
 30
0.0
  3
*Model_Space
  1

  0
ENDBLK
  5
21
100
AcDbEntity
  8
0
100
AcDbBlockEnd
  0
BLOCK
  5
1C
100
AcDbEntity
  8
0
100
AcDbBlockBegin
  2
*Paper_Space
 70
0
 10
0.0
 20
0.0
 30
0.0
  3
*Paper_Space
  1

  0
ENDBLK
  5
1D
100
AcDbEntity
  8
0
100
AcDbBlockEnd
  0
BLOCK
  5
213
100
AcDbEntity
  8
ALL_SURF_FIN
100
AcDbBlockBegin
 62
2
  6
CONTINUOUS
  2
SYM_8_BL2
 70
64
 10
186.1055065347
 20
281.2724948171
  3
SYM_8_BL2
  1

  0
LWPOLYLINE
  5
214
100
AcDbEntity
  8
ALL_SURF_FIN
100
AcDbPolyline
 62
2
  6
CONTINUOUS
 90
2
 70
0
 43
0.3065438449
 10
178.0182370554
 20
274.754311237
 10
173.7394627368
 20
282.1653657509
  0
LWPOLYLINE
  5
215
100
AcDbEntity
  8
ALL_SURF_FIN
100
AcDbPolyline
 62
2
  6
CONTINUOUS
 90
2
 70
0
 43
0.3065438449
 10
178.0182370554
 20
274.754311237
 10
186.5231646606
 20
289.4852779639
  0
LWPOLYLINE
  5
216
100
AcDbEntity
  8
ALL_SURF_FIN
100
AcDbPolyline
 62
2
  6
CONTINUOUS
 90
2
 70
1
 43
0.3065438449
 10
175.5478855508
 20
279.6950142463
 42
1.0
 10
180.4885885601
 20
279.6950142463
 42
1.0
  0
LWPOLYLINE
  5
217
100
AcDbEntity
  8
ALL_SURF_FIN
100
AcDbPolyline
 62
2
  6
CONTINUOUS
 90
2
 70
0
 43
0.3065438449
 10
192.8015985958
 20
274.4594418165
 10
189.9490823834
 20
279.4001448258
  0
LWPOLYLINE
  5
218
100
AcDbEntity
  8
ALL_SURF_FIN
100
AcDbPolyline
 62
2
  6
CONTINUOUS
 90
2
 70
0
 43
0.3065438449
 10
192.8015985958
 20
274.4594418165
 10
198.4715503326
 20
284.2800863011
  0
LWPOLYLINE
  5
219
100
AcDbEntity
  8
ALL_SURF_FIN
100
AcDbPolyline
 62
2
  6
CONTINUOUS
 90
2
 70
0
 43
0.3065438449
 10
189.7699583918
 20
282.0763463676
 42
0.4331635666
 10
189.6912089346
 20
274.5015798737
  0
LWPOLYLINE
  5
21A
100
AcDbEntity
  8
ALL_SURF_FIN
100
AcDbPolyline
 62
2
  6
CONTINUOUS
 90
2
 70
0
 43
0.3065438449
 10
198.2379241209
 20
274.3245365331
 42
0.3724585057
 10
198.176105301
 20
281.878834844
  0
ENDBLK
  5
21B
100
AcDbEntity
  8
0
  6
BYBLOCK
 62
0
100
AcDbBlockEnd
  0
BLOCK
  5
21C
100
AcDbEntity
  8
ALL_SURF_FIN
100
AcDbBlockBegin
 62
2
  6
CONTINUOUS
  2
SF0_BL1
 70
64
 10
62.8043003618
 20
168.5858728569
  3
SF0_BL1
  1

  0
LWPOLYLINE
  5
21D
100
AcDbEntity
  8
ALL_SURF_FIN
100
AcDbPolyline
 62
2
  6
CONTINUOUS
 90
2
 70
0
 43
0.1894058697
 10
62.8126163618
 20
166.6110650351
 10
67.5194723618
 20
169.3285696137
  0
LWPOLYLINE
  5
21E
100
AcDbEntity
  8
ALL_SURF_FIN
100
AcDbPolyline
 62
2
  6
CONTINUOUS
 90
2
 70
0
 43
0.1894058697
 10
67.5194723618
 20
169.3285696137
 10
62.8126163618
 20
172.0460741923
  0
LWPOLYLINE
  5
21F
100
AcDbEntity
  8
ALL_SURF_FIN
100
AcDbPolyline
 62
2
  6
CONTINUOUS
 90
2
 70
0
 43
0.1894058697
 10
62.8126163618
 20
172.0460741923
 10
58.0891283618
 20
174.7731812606
  0
LWPOLYLINE
  5
220
100
AcDbEntity
  8
ALL_SURF_FIN
100
AcDbPolyline
 62
2
  6
CONTINUOUS
 90
3
 70
0
 43
0.2
 10
59.5017226563
 20
163.0416455078
 10
58.3017236328
 20
163.6781845703
 10
61.9017207031
 20
162.7135683594
  0
LWPOLYLINE
  5
221
100
AcDbEntity
  8
ALL_SURF_FIN
100
AcDbPolyline
 62
2
  6
CONTINUOUS
 90
2
 70
0
 43
0.2
 10
61.9017207031
 20
162.3985644531
 10
61.9017207031
 20
163.0285722656
  0
LWPOLYLINE
  5
222
100
AcDbEntity
  8
ALL_SURF_FIN
100
AcDbPolyline
 62
2
  6
CONTINUOUS
 90
10
 70
0
 43
0.2
 10
58.9017177734
 20
164.9349130859
 10
58.3017236328
 20
165.4106845703
 10
58.3017236328
 20
166.0406816406
 10
58.9017177734
 20
166.1949179688
 10
60.1017167969
 20
165.8733828125
 10
60.7017216797
 20
165.3976113281
 10
60.7017216797
 20
164.7676035156
 10
61.3017158203
 20
164.2918427734
 10
61.9017207031
 20
164.1310644531
 10
61.9017207031
 20
165.3910693359
  0
LWPOLYLINE
  5
223
100
AcDbEntity
  8
ALL_SURF_FIN
100
AcDbPolyline
 62
2
  6
CONTINUOUS
 90
5
 70
0
 43
0.2
 10
61.9017207031
 20
166.8085654297
 10
61.9017207031
 20
166.6510742188
 10
61.6017236328
 20
166.7314580078
 10
61.6017236328
 20
166.8889492188
 10
61.9017207031
 20
166.8085654297
  0
LWPOLYLINE
  5
224
100
AcDbEntity
  8
ALL_SURF_FIN
100
AcDbPolyline
 62
2
  6
CONTINUOUS
 90
9
 70
0
 43
0.2
 10
61.3017158203
 20
169.3318408203
 10
61.9017207031
 20
169.4860664063
 10
61.9017207031
 20
170.1160742188
 10
61.3017158203
 20
170.5918349609
 10
60.1017167969
 20
170.9133808594
 10
59.5017226563
 20
170.7591445313
 10
59.5017226563
 20
169.8141435547
 10
58.3017236328
 20
170.1356894531
 10
58.3017236328
 20
171.3956835938
  0
ENDBLK
  5
225
100
AcDbEntity
  8
0
  6
BYBLOCK
 62
0
100
AcDbBlockEnd
  0
BLOCK
  5
226
100
AcDbEntity
  8
ALL_SURF_FIN
100
AcDbBlockBegin
 62
2
  6
CONTINUOUS
  2
SF1_BL0
 70
64
 10
176.875191055
 20
165.4530007965
  3
SF1_BL0
  1

  0
LWPOLYLINE
  5
227
100
AcDbEntity
  8
ALL_SURF_FIN
100
AcDbPolyline
 62
2
  6
CONTINUOUS
 90
2
 70
0
 43
0.1894058697
 10
176.866875055
 20
167.1817525843
 10
172.160019055
 20
164.4642480057
  0
LWPOLYLINE
  5
228
100
AcDbEntity
  8
ALL_SURF_FIN
100
AcDbPolyline
 62
2
  6
CONTINUOUS
 90
2
 70
0
 43
0.1894058697
 10
172.160019055
 20
164.4642480057
 10
176.866875055
 20
161.746743427
  0
LWPOLYLINE
  5
229
100
AcDbEntity
  8
ALL_SURF_FIN
100
AcDbPolyline
 62
2
  6
CONTINUOUS
 90
2
 70
0
 43
0.1894058697
 10
176.866875055
 20
161.746743427
 10
181.590363055
 20
159.0196363587
  0
LWPOLYLINE
  5
22A
100
AcDbEntity
  8
ALL_SURF_FIN
100
AcDbPolyline
 62
2
  6
CONTINUOUS
 90
3
 70
0
 43
0.2
 10
179.104765625
 20
163.5323271484
 10
177.9047558594
 20
164.1688662109
 10
181.5047636719
 20
163.20425
  0
LWPOLYLINE
  5
22B
100
AcDbEntity
  8
ALL_SURF_FIN
100
AcDbPolyline
 62
2
  6
CONTINUOUS
 90
2
 70
0
 43
0.2
 10
181.5047636719
 20
162.8892460938
 10
181.5047636719
 20
163.5192431641
  0
LWPOLYLINE
  5
22C
100
AcDbEntity
  8
ALL_SURF_FIN
100
AcDbPolyline
 62
2
  6
CONTINUOUS
 90
10
 70
0
 43
0.2
 10
178.5047714844
 20
165.4255947266
 10
177.9047558594
 20
165.9013662109
 10
177.9047558594
 20
166.5313632813
 10
178.5047714844
 20
166.6855996094
 10
179.7047597656
 20
166.3640537109
 10
180.3047753906
 20
165.8882822266
 10
180.3047753906
 20
165.2582851563
 10
180.9047695313
 20
164.7825136719
 10
181.5047636719
 20
164.6217460938
 10
181.5047636719
 20
165.8817509766
  0
LWPOLYLINE
  5
22D
100
AcDbEntity
  8
ALL_SURF_FIN
100
AcDbPolyline
 62
2
  6
CONTINUOUS
 90
5
 70
0
 43
0.2
 10
181.5047636719
 20
167.2992470703
 10
181.5047636719
 20
167.1417451172
 10
181.2047558594
 20
167.2221289063
 10
181.2047558594
 20
167.3796308594
 10
181.5047636719
 20
167.2992470703
  0
LWPOLYLINE
  5
22E
100
AcDbEntity
  8
ALL_SURF_FIN
100
AcDbPolyline
 62
2
  6
CONTINUOUS
 90
9
 70
0
 43
0.2
 10
180.9047695313
 20
169.8225224609
 10
181.5047636719
 20
169.9767480469
 10
181.5047636719
 20
170.6067451172
 10
180.9047695313
 20
171.0825166016
 10
179.7047597656
 20
171.4040517578
 10
179.104765625
 20
171.2498261719
 10
179.104765625
 20
170.3048251953
 10
177.9047558594
 20
170.6263603516
 10
177.9047558594
 20
171.8863652344
  0
ENDBLK
  5
22F
100
AcDbEntity
  8
0
  6
BYBLOCK
 62
0
100
AcDbBlockEnd
  0
BLOCK
  5
230
100
AcDbEntity
  8
0
100
AcDbBlockBegin
  2
_FILLED
 70
64
 10
0.0
 20
0.0
  3
_FILLED
  1

  0
SOLID
  5
231
100
AcDbEntity
  8
0
  6
BYBLOCK
 62
0
100
AcDbTrace
 10
0.0
 20
0.0
 11
-1.0
 21
0.1666666667
 12
-1.0
 22
-0.1666666667
 13
-1.0
 23
-0.1666666667
  0
ENDBLK
  5
232
100
AcDbEntity
  8
0
  6
BYBLOCK
 62
0
100
AcDbBlockEnd
  0
BLOCK
  5
233
100
AcDbEntity
  8
ALL_DIMENSIONS
100
AcDbBlockBegin
 62
2
  6
CONTINUOUS
  2
*D0
 70
65
 10
0.0
 20
0.0
  3
*D0
  1

  0
LINE
  5
234
100
AcDbEntity
  8
ALL_DIMENSIONS
100
AcDbLine
 62
2
  6
CONTINUOUS
 10
67.5194723618
 20
181.0446751413
 11
67.5194723618
 21
146.1151758794
  0
LINE
  5
235
100
AcDbEntity
  8
ALL_DIMENSIONS
100
AcDbLine
 62
2
  6
CONTINUOUS
 10
172.160019055
 20
180.6909062971
 11
172.160019055
 21
146.1151758794
  0
LINE
  5
236
100
AcDbEntity
  8
ALL_DIMENSIONS
100
AcDbLine
 62
2
  6
CONTINUOUS
 10
67.5194723618
 20
148.1151758794
 11
119.8397457084
 21
148.1151758794
  0
LINE
  5
237
100
AcDbEntity
  8
ALL_DIMENSIONS
100
AcDbLine
 62
2
  6
CONTINUOUS
 10
172.160019055
 20
148.1151758794
 11
119.8397457084
 21
148.1151758794
  0
INSERT
  5
238
100
AcDbEntity
  8
ALL_DIMENSIONS
100
AcDbBlockReference
 62
2
  6
CONTINUOUS
  2
_FILLED
 10
67.5194723618
 20
148.1151758794
 41
3.0
 42
3.0
 43
3.0
 50
180.0
  0
INSERT
  5
239
100
AcDbEntity
  8
ALL_DIMENSIONS
100
AcDbBlockReference
 62
2
  6
CONTINUOUS
  2
_FILLED
 10
172.160019055
 20
148.1151758794
 41
3.0
 42
3.0
 43
3.0
  0
ENDBLK
  5
23A
100
AcDbEntity
  8
0
  6
BYBLOCK
 62
0
100
AcDbBlockEnd
  0
BLOCK
  5
23B
100
AcDbEntity
  8
ALL_DIMENSIONS
100
AcDbBlockBegin
 62
2
  6
CONTINUOUS
  2
*D1
 70
65
 10
0.0
 20
0.0
  3
*D1
  1

  0
LINE
  5
23C
100
AcDbEntity
  8
ALL_DIMENSIONS
100
AcDbLine
 62
2
  6
CONTINUOUS
 10
67.5194723618
 20
231.9849246231
 11
49.9890201005
 21
231.9849246231
  0
LINE
  5
23D
100
AcDbEntity
  8
ALL_DIMENSIONS
100
AcDbLine
 62
2
  6
CONTINUOUS
 10
67.5194723618
 20
180.9849246231
 11
49.9890201005
 21
180.9849246231
  0
LINE
  5
23E
100
AcDbEntity
  8
ALL_DIMENSIONS
100
AcDbLine
 62
2
  6
CONTINUOUS
 10
51.9890201005
 20
231.9849246231
 11
51.9890201005
 21
206.4849246231
  0
LINE
  5
23F
100
AcDbEntity
  8
ALL_DIMENSIONS
100
AcDbLine
 62
2
  6
CONTINUOUS
 10
51.9890201005
 20
180.9849246231
 11
51.9890201005
 21
206.4849246231
  0
INSERT
  5
240
100
AcDbEntity
  8
ALL_DIMENSIONS
100
AcDbBlockReference
 62
2
  6
CONTINUOUS
  2
_FILLED
 10
51.9890201005
 20
231.9849246231
 41
3.0
 42
3.0
 43
3.0
 50
90.0
  0
INSERT
  5
241
100
AcDbEntity
  8
ALL_DIMENSIONS
100
AcDbBlockReference
 62
2
  6
CONTINUOUS
  2
_FILLED
 10
51.9890201005
 20
180.9849246231
 41
3.0
 42
3.0
 43
3.0
 50
270.0
  0
ENDBLK
  5
242
100
AcDbEntity
  8
0
  6
BYBLOCK
 62
0
100
AcDbBlockEnd
  0
ENDSEC
  0
SECTION
  2
ENTITIES
  0
DIMENSION
  5
243
100
AcDbEntity
  8
ALL_DIMENSIONS
100
AcDbDimension
 62
2
  6
CONTINUOUS
  2
*D0
 10
172.160019055
 20
148.1151758794
 11
113.5397457084
 21
149.0151758794
 70
160
 71
2
 42
996.2
  3
DIMSTYLE_1
100
AcDbAlignedDimension
 13
67.5194723618
 23
181.0446751413
 14
172.160019055
 24
180.6909062971
100
AcDbRotatedDimension
  0
INSERT
  5
244
100
AcDbEntity
  8
ALL_SURF_FIN
100
AcDbBlockReference
 62
2
  6
CONTINUOUS
  2
SF1_BL0
 10
176.875191055
 20
165.4530007965
  0
INSERT
  5
245
100
AcDbEntity
  8
ALL_SURF_FIN
100
AcDbBlockReference
 62
2
  6
CONTINUOUS
  2
SF0_BL1
 10
62.8043003618
 20
168.5858728569
  0
DIMENSION
  5
246
100
AcDbEntity
  8
ALL_DIMENSIONS
100
AcDbDimension
 62
2
  6
CONTINUOUS
  2
*D1
 10
51.9890201005
 20
180.9849246231
 11
51.0890201005
 21
201.5153567839
 70
160
 71
2
 42
102.0
  1
%%c<>
  3
DIMSTYLE_2
100
AcDbAlignedDimension
 13
67.5194723618
 23
231.9849246231
 14
67.5194723618
 24
180.9849246231
 50
270.0
100
AcDbRotatedDimension
  0
LINE
  5
247
100
AcDbEntity
  8
0
100
AcDbLine
 62
7
  6
CONTINUOUS
 10
8.0
 20
5.0
 11
8.0
 21
150.0
  0
LINE
  5
248
100
AcDbEntity
  8
0
100
AcDbLine
 62
7
  6
CONTINUOUS
 10
8.0
 20
5.0
 11
20.0
 21
5.0
  0
LINE
  5
249
100
AcDbEntity
  8
0
100
AcDbLine
 62
7
  6
CONTINUOUS
 10
13.0
 20
5.0
 11
13.0
 21
150.0
  0
LINE
  5
24A
100
AcDbEntity
  8
0
100
AcDbLine
 62
7
  6
CONTINUOUS
 10
20.0
 20
5.0
 11
20.0
 21
150.0
  0
LINE
  5
24B
100
AcDbEntity
  8
0
100
AcDbLine
 62
7
  6
CONTINUOUS
 10
8.0
 20
30.0
 11
20.0
 21
30.0
  0
LINE
  5
24C
100
AcDbEntity
  8
0
100
AcDbLine
 62
7
  6
CONTINUOUS
 10
8.0
 20
65.0
 11
20.0
 21
65.0
  0
LINE
  5
24D
100
AcDbEntity
  8
0
100
AcDbLine
 62
7
  6
CONTINUOUS
 10
8.0
 20
90.0
 11
20.0
 21
90.0
  0
LINE
  5
24E
100
AcDbEntity
  8
0
100
AcDbLine
 62
7
  6
CONTINUOUS
 10
8.0
 20
115.0
 11
20.0
 21
115.0
  0
LINE
  5
24F
100
AcDbEntity
  8
0
100
AcDbLine
 62
7
  6
CONTINUOUS
 10
8.0
 20
150.0
 11
20.0
 21
150.0
  0
LWPOLYLINE
  5
250
100
AcDbEntity
  8
0
100
AcDbPolyline
 62
2
  6
CONTINUOUS
 90
4
 70
0
 43
0.2
 10
9.294097168
 20
5.8157061768
 10
11.7940942383
 20
5.1458334351
 10
9.294097168
 20
6.8157064819
 10
11.7940942383
 20
6.1458330688
  0
LWPOLYLINE
  5
251
100
AcDbEntity
  8
0
100
AcDbPolyline
 62
2
  6
CONTINUOUS
 90
2
 70
0
 43
0.2
 10
11.7940942383
 20
7.145833374
 10
10.1274277344
 20
7.5924156494
  0
LWPOLYLINE
  5
252
100
AcDbEntity
  8
0
100
AcDbPolyline
 62
2
  6
CONTINUOUS
 90
2
 70
0
 43
0.2
 10
10.9607636719
 20
7.3691245117
 10
10.9607636719
 20
8.3691241455
  0
LWPOLYLINE
  5
253
100
AcDbEntity
  8
0
100
AcDbPolyline
 62
2
  6
CONTINUOUS
 90
2
 70
0
 43
0.2
 10
10.1274277344
 20
8.5924152832
 10
11.7940942383
 20
8.1458330078
  0
LWPOLYLINE
  5
254
100
AcDbEntity
  8
0
100
AcDbPolyline
 62
2
  6
CONTINUOUS
 90
12
 70
0
 43
0.2
 10
10.5440957031
 20
9.4807700195
 10
9.7107597656
 20
10.2040609741
 10
9.294097168
 20
10.315706543
 10
9.294097168
 20
10.0657062988
 10
9.7107597656
 20
9.7040604858
 10
11.3774262695
 20
9.2574788818
 10
11.7940942383
 20
9.3958335571
 10
11.7940942383
 20
9.895833374
 10
11.3774262695
 20
10.2574785156
 10
10.5440957031
 20
10.4807696533
 10
10.1274277344
 20
10.3424156494
 10
10.1274277344
 20
9.8424151611
  0
LWPOLYLINE
  5
255
100
AcDbEntity
  8
0
100
AcDbPolyline
 62
2
  6
CONTINUOUS
 90
5
 70
0
 43
0.2
 10
11.7940942383
 20
11.270833374
 10
11.7940942383
 20
11.145833252
 10
11.5857602539
 20
11.2016563721
 10
11.5857602539
 20
11.3266564941
 10
11.7940942383
 20
11.270833374
  0
LWPOLYLINE
  5
256
100
AcDbEntity
  8
0
100
AcDbPolyline
 62
2
  6
CONTINUOUS
 90
4
 70
0
 43
0.2
 10
11.7940942383
 20
13.3541665039
 10
9.294097168
 20
14.024039917
 10
11.7940942383
 20
15.0208330078
 10
9.294097168
 20
15.6907064209
  0
LWPOLYLINE
  5
257
100
AcDbEntity
  8
0
100
AcDbPolyline
 62
2
  6
CONTINUOUS
 90
2
 70
0
 43
0.2
 10
11.7940942383
 20
19.8541661377
 10
10.1274277344
 20
20.3007484131
  0
LWPOLYLINE
  5
258
100
AcDbEntity
  8
0
100
AcDbPolyline
 62
2
  6
CONTINUOUS
 90
5
 70
0
 43
0.2
 10
10.5440957031
 20
20.1891035156
 10
10.1274277344
 20
20.5507486572
 10
10.1274277344
 20
21.0507491455
 10
10.5440957031
 20
21.1891031494
 10
11.7940942383
 20
20.8541671143
  0
LWPOLYLINE
  5
259
100
AcDbEntity
  8
0
100
AcDbPolyline
 62
2
  6
CONTINUOUS
 90
9
 70
0
 43
0.2
 10
11.3774262695
 20
21.9658116455
 10
11.7940942383
 20
22.1041669922
 10
11.7940942383
 20
22.6041674805
 10
11.3774262695
 20
22.9658112793
 10
10.5440957031
 20
23.1891037598
 10
10.1274277344
 20
23.0507497559
 10
10.1274277344
 20
22.5507492676
 10
10.5440957031
 20
22.1891027832
 10
11.3774262695
 20
21.9658116455
  0
LWPOLYLINE
  5
25A
100
AcDbEntity
  8
0
100
AcDbPolyline
 62
2
  6
CONTINUOUS
 90
11
 70
0
 43
0.2
 10
10.5440957031
 20
25.1891030273
 10
10.1274277344
 20
25.0507490234
 10
10.1274277344
 20
24.5507485352
 10
10.5440957031
 20
24.1891020508
 10
11.3774262695
 20
23.9658122559
 10
11.7940942383
 20
24.1041662598
 10
11.7940942383
 20
24.604166748
 10
11.3774262695
 20
24.9658132324
 10
9.7107597656
 20
25.4123928223
 10
9.294097168
 20
25.2740388184
 10
9.294097168
 20
24.7740383301
  0
LWPOLYLINE
  5
25B
100
AcDbEntity
  8
0
100
AcDbPolyline
 62
2
  6
CONTINUOUS
 90
3
 70
0
 43
0.2
 10
11.7940942383
 20
25.8541679688
 10
10.1274277344
 20
26.8007480469
 10
11.7940942383
 20
26.8541662598
  0
LWPOLYLINE
  5
25C
100
AcDbEntity
  8
0
100
AcDbPolyline
 62
2
  6
CONTINUOUS
 90
5
 70
0
 43
0.2
 10
11.7940942383
 20
27.9791660156
 10
11.7940942383
 20
27.8541672363
 10
11.5857602539
 20
27.9099890137
 10
11.5857602539
 20
28.0349904785
 10
11.7940942383
 20
27.9791660156
  0
LWPOLYLINE
  5
25D
100
AcDbEntity
  8
0
100
AcDbPolyline
 62
2
  6
CONTINUOUS
 90
4
 70
0
 43
0.2
 10
11.7940942383
 20
33.5000004883
 10
9.294097168
 20
34.1698725586
 10
9.294097168
 20
35.1698735352
 10
11.7940942383
 20
34.4999987793
  0
LWPOLYLINE
  5
25E
100
AcDbEntity
  8
0
100
AcDbPolyline
 62
2
  6
CONTINUOUS
 90
9
 70
0
 43
0.2
 10
11.3774262695
 20
35.6116459961
 10
11.7940942383
 20
35.75
 10
11.7940942383
 20
36.2500004883
 10
11.3774262695
 20
36.6116442871
 10
10.5440957031
 20
36.8349367676
 10
10.1274277344
 20
36.6965827637
 10
10.1274277344
 20
36.1965822754
 10
10.5440957031
 20
35.834935791
 10
11.3774262695
 20
35.6116459961
  0
LWPOLYLINE
  5
25F
100
AcDbEntity
  8
0
100
AcDbPolyline
 62
2
  6
CONTINUOUS
 90
11
 70
0
 43
0.2
 10
10.5440957031
 20
38.8349360352
 10
10.1274277344
 20
38.6965820313
 10
10.1274277344
 20
38.196581543
 10
10.5440957031
 20
37.8349377441
 10
11.3774262695
 20
37.6116452637
 10
11.7940942383
 20
37.7499992676
 10
11.7940942383
 20
38.2499997559
 10
11.3774262695
 20
38.6116462402
 10
9.7107597656
 20
39.0582285156
 10
9.294097168
 20
38.9198718262
 10
9.294097168
 20
38.4198740234
  0
LWPOLYLINE
  5
260
100
AcDbEntity
  8
0
100
AcDbPolyline
 62
2
  6
CONTINUOUS
 90
2
 70
0
 43
0.2
 10
11.7940942383
 20
39.5000009766
 10
10.1274277344
 20
39.946583252
  0
LWPOLYLINE
  5
261
100
AcDbEntity
  8
0
100
AcDbPolyline
 62
2
  6
CONTINUOUS
 90
5
 70
0
 43
0.2
 10
10.5440957031
 20
39.8349370117
 10
10.1274277344
 20
40.1965808105
 10
10.1274277344
 20
40.6965812988
 10
10.5440957031
 20
40.8349353027
 10
11.7940942383
 20
40.4999992676
  0
LWPOLYLINE
  5
262
100
AcDbEntity
  8
0
100
AcDbPolyline
 62
2
  6
CONTINUOUS
 90
5
 70
0
 43
0.2
 10
10.1274277344
 20
41.9465825195
 10
11.3774262695
 20
41.6116464844
 10
11.7940942383
 20
41.7500004883
 10
11.7940942383
 20
42.0000007324
 10
10.9607636719
 20
42.7232910156
  0
LWPOLYLINE
  5
263
100
AcDbEntity
  8
0
100
AcDbPolyline
 62
2
  6
CONTINUOUS
 90
2
 70
0
 43
0.2
 10
10.1274277344
 20
42.9465808105
 10
11.7940942383
 20
42.5000012207
  0
LWPOLYLINE
  5
264
100
AcDbEntity
  8
0
100
AcDbPolyline
 62
2
  6
CONTINUOUS
 90
8
 70
0
 43
0.2
 10
10.5440957031
 20
44.8349365234
 10
10.1274277344
 20
44.6965825195
 10
10.1274277344
 20
44.1965820313
 10
10.5440957031
 20
43.8349355469
 10
11.3774262695
 20
43.611645752
 10
11.7940942383
 20
43.7499997559
 10
11.7940942383
 20
44.2500002441
 10
11.3774262695
 20
44.6116467285
  0
LWPOLYLINE
  5
265
100
AcDbEntity
  8
0
100
AcDbPolyline
 62
2
  6
CONTINUOUS
 90
9
 70
0
 43
0.2
 10
10.1274277344
 20
45.9465810547
 10
11.3774262695
 20
45.6116450195
 10
11.7940942383
 20
45.7499990234
 10
11.7940942383
 20
46.2499995117
 10
11.3774262695
 20
46.6116459961
 10
10.9607636719
 20
46.7232895508
 10
10.5440957031
 20
46.5849355469
 10
10.5440957031
 20
46.0849350586
 10
10.9607636719
 20
45.7232885742
  0
LWPOLYLINE
  5
266
100
AcDbEntity
  8
0
100
AcDbPolyline
 62
2
  6
CONTINUOUS
 90
5
 70
0
 43
0.2
 10
10.1274277344
 20
49.9465795898
 10
11.3774262695
 20
49.6116435547
 10
11.7940942383
 20
49.7499975586
 10
11.7940942383
 20
50.0000004883
 10
10.9607636719
 20
50.723293457
  0
LWPOLYLINE
  5
267
100
AcDbEntity
  8
0
100
AcDbPolyline
 62
2
  6
CONTINUOUS
 90
2
 70
0
 43
0.2
 10
10.1274277344
 20
50.9465805664
 10
11.7940942383
 20
50.5000009766
  0
LWPOLYLINE
  5
268
100
AcDbEntity
  8
0
100
AcDbPolyline
 62
2
  6
CONTINUOUS
 90
11
 70
0
 43
0.2
 10
10.5440957031
 20
54.8349355469
 10
10.1274277344
 20
54.696581543
 10
10.1274277344
 20
54.1965810547
 10
10.5440957031
 20
53.8349345703
 10
11.3774262695
 20
53.6116474609
 10
11.7940942383
 20
53.7500014648
 10
11.7940942383
 20
54.2500019531
 10
11.3774262695
 20
54.6116430664
 10
9.7107597656
 20
55.0582280273
 10
9.294097168
 20
54.9198740234
 10
9.294097168
 20
54.4198735352
  0
LWPOLYLINE
  5
269
100
AcDbEntity
  8
0
100
AcDbPolyline
 62
2
  6
CONTINUOUS
 90
8
 70
0
 43
0.2
 10
10.5440957031
 20
56.8349375
 10
10.1274277344
 20
56.6965834961
 10
10.1274277344
 20
56.1965830078
 10
10.5440957031
 20
55.8349365234
 10
11.3774262695
 20
55.611644043
 10
11.7940942383
 20
55.7499980469
 10
11.7940942383
 20
56.2499985352
 10
11.3774262695
 20
56.6116450195
  0
LWPOLYLINE
  5
26A
100
AcDbEntity
  8
0
100
AcDbPolyline
 62
2
  6
CONTINUOUS
 90
3
 70
0
 43
0.2
 10
10.1274277344
 20
56.9465810547
 10
11.3774262695
 20
56.6116450195
 10
11.7940942383
 20
56.6249975586
  0
LWPOLYLINE
  5
26B
100
AcDbEntity
  8
0
100
AcDbPolyline
 62
2
  6
CONTINUOUS
 90
2
 70
0
 43
0.2
 10
11.7940942383
 20
57.5000024414
 10
10.1274277344
 20
57.9465820313
  0
LWPOLYLINE
  5
26C
100
AcDbEntity
  8
0
100
AcDbPolyline
 62
2
  6
CONTINUOUS
 90
4
 70
0
 43
0.2
 10
10.5440957031
 20
57.8349384766
 10
10.1274277344
 20
58.1965795898
 10
10.5440957031
 20
58.3349389648
 10
11.7940942383
 20
57.9999975586
  0
LWPOLYLINE
  5
26D
100
AcDbEntity
  8
0
100
AcDbPolyline
 62
2
  6
CONTINUOUS
 90
4
 70
0
 43
0.2
 10
10.5440957031
 20
58.3349389648
 10
10.1274277344
 20
58.6965800781
 10
10.5440957031
 20
58.834934082
 10
11.7940942383
 20
58.4999980469
  0
LWPOLYLINE
  5
26E
100
AcDbEntity
  8
0
100
AcDbPolyline
 62
2
  6
CONTINUOUS
 90
8
 70
0
 43
0.2
 10
10.5440957031
 20
60.8349360352
 10
10.1274277344
 20
60.6965820313
 10
10.1274277344
 20
60.196581543
 10
10.5440957031
 20
59.8349350586
 10
11.3774262695
 20
59.6116479492
 10
11.7940942383
 20
59.7500019531
 10
11.7940942383
 20
60.2500024414
 10
11.3774262695
 20
60.6116435547
  0
LWPOLYLINE
  5
26F
100
AcDbEntity
  8
0
100
AcDbPolyline
 62
2
  6
CONTINUOUS
 90
3
 70
0
 43
0.2
 10
10.1274277344
 20
60.9465795898
 10
11.3774262695
 20
60.6116435547
 10
11.7940942383
 20
60.6250014648
  0
LWPOLYLINE
  5
270
100
AcDbEntity
  8
0
100
AcDbPolyline
 62
2
  6
CONTINUOUS
 90
10
 70
0
 43
0.2
 10
11.7940942383
 20
66.1458359375
 10
11.7940942383
 20
66.8958339844
 10
11.3774262695
 20
67.2574804688
 10
10.9607636719
 20
67.3691240234
 10
10.5440957031
 20
67.2307700195
 10
10.1274277344
 20
67.5924165039
 10
9.7107597656
 20
67.7040600586
 10
9.294097168
 20
67.5657060547
 10
9.294097168
 20
66.8157080078
 10
11.7940942383
 20
66.1458359375
  0
LWPOLYLINE
  5
271
100
AcDbEntity
  8
0
100
AcDbPolyline
 62
2
  6
CONTINUOUS
 90
2
 70
0
 43
0.2
 10
10.5440957031
 20
66.4807719727
 10
10.5440957031
 20
67.2307700195
  0
LWPOLYLINE
  5
272
100
AcDbEntity
  8
0
100
AcDbPolyline
 62
2
  6
CONTINUOUS
 90
9
 70
0
 43
0.2
 10
11.3774262695
 20
68.2574814453
 10
11.7940942383
 20
68.3958354492
 10
11.7940942383
 20
68.8958359375
 10
11.3774262695
 20
69.2574770508
 10
10.9607636719
 20
69.1191230469
 10
10.5440957031
 20
69.4807695313
 10
10.1274277344
 20
69.3424155273
 10
10.1274277344
 20
68.8424150391
 10
10.5440957031
 20
68.4807685547
  0
LWPOLYLINE
  5
273
100
AcDbEntity
  8
0
100
AcDbPolyline
 62
2
  6
CONTINUOUS
 90
2
 70
0
 43
0.2
 10
10.9607636719
 20
68.8691254883
 10
10.9607636719
 20
69.1191230469
  0
LWPOLYLINE
  5
274
100
AcDbEntity
  8
0
100
AcDbPolyline
 62
2
  6
CONTINUOUS
 90
8
 70
0
 43
0.2
 10
10.5440957031
 20
71.4807714844
 10
10.1274277344
 20
71.3424174805
 10
10.1274277344
 20
70.8424169922
 10
10.5440957031
 20
70.4807705078
 10
11.3774262695
 20
70.2574780273
 10
11.7940942383
 20
70.3958320313
 10
11.7940942383
 20
70.8958325195
 10
11.3774262695
 20
71.2574790039
  0
LWPOLYLINE
  5
275
100
AcDbEntity
  8
0
100
AcDbPolyline
 62
2
  6
CONTINUOUS
 90
3
 70
0
 43
0.2
 10
10.1274277344
 20
71.5924150391
 10
11.3774262695
 20
71.2574790039
 10
11.7940942383
 20
71.270831543
  0
LWPOLYLINE
  5
276
100
AcDbEntity
  8
0
100
AcDbPolyline
 62
2
  6
CONTINUOUS
 90
5
 70
0
 43
0.2
 10
11.7940942383
 20
72.1458310547
 10
10.1274277344
 20
72.5924160156
 10
10.9607636719
 20
72.8691240234
 10
10.1274277344
 20
73.5924169922
 10
11.7940942383
 20
73.1458320313
  0
LWPOLYLINE
  5
277
100
AcDbEntity
  8
0
100
AcDbPolyline
 62
2
  6
CONTINUOUS
 90
5
 70
0
 43
0.2
 10
11.7940942383
 20
74.2708344727
 10
11.7940942383
 20
74.1458330078
 10
11.5857602539
 20
74.2016547852
 10
11.5857602539
 20
74.32665625
 10
11.7940942383
 20
74.2708344727
  0
LWPOLYLINE
  5
278
100
AcDbEntity
  8
0
100
AcDbPolyline
 62
2
  6
CONTINUOUS
 90
5
 70
0
 43
0.2
 10
10.1274277344
 20
78.5924165039
 10
11.3774262695
 20
78.2574804688
 10
11.7940942383
 20
78.3958344727
 10
11.7940942383
 20
78.6458320313
 10
10.9607636719
 20
79.369125
  0
LWPOLYLINE
  5
279
100
AcDbEntity
  8
0
100
AcDbPolyline
 62
2
  6
CONTINUOUS
 90
2
 70
0
 43
0.2
 10
10.1274277344
 20
79.5924174805
 10
11.7940942383
 20
79.1458325195
  0
LWPOLYLINE
  5
27A
100
AcDbEntity
  8
0
100
AcDbPolyline
 62
2
  6
CONTINUOUS
 90
2
 70
0
 43
0.2
 10
11.7940942383
 20
80.1458334961
 10
10.1274277344
 20
80.5924130859
  0
LWPOLYLINE
  5
27B
100
AcDbEntity
  8
0
100
AcDbPolyline
 62
2
  6
CONTINUOUS
 90
2
 70
0
 43
0.2
 10
10.9607636719
 20
80.3691259766
 10
10.9607636719
 20
81.3691269531
  0
LWPOLYLINE
  5
27C
100
AcDbEntity
  8
0
100
AcDbPolyline
 62
2
  6
CONTINUOUS
 90
2
 70
0
 43
0.2
 10
10.1274277344
 20
81.5924140625
 10
11.7940942383
 20
81.1458344727
  0
LWPOLYLINE
  5
27D
100
AcDbEntity
  8
0
100
AcDbPolyline
 62
2
  6
CONTINUOUS
 90
12
 70
0
 43
0.2
 10
10.5440957031
 20
82.4807714844
 10
9.7107597656
 20
83.204059082
 10
9.294097168
 20
83.3157080078
 10
9.294097168
 20
83.0657050781
 10
9.7107597656
 20
82.7040585938
 10
11.3774262695
 20
82.2574790039
 10
11.7940942383
 20
82.3958330078
 10
11.7940942383
 20
82.8958334961
 10
11.3774262695
 20
83.2574799805
 10
10.5440957031
 20
83.4807724609
 10
10.1274277344
 20
83.3424130859
 10
10.1274277344
 20
82.8424179688
  0
LWPOLYLINE
  5
27E
100
AcDbEntity
  8
0
100
AcDbPolyline
 62
2
  6
CONTINUOUS
 90
5
 70
0
 43
0.2
 10
11.7940942383
 20
84.2708334961
 10
11.7940942383
 20
84.1458320313
 10
11.5857602539
 20
84.2016538086
 10
11.5857602539
 20
84.3266552734
 10
11.7940942383
 20
84.2708334961
  0
LWPOLYLINE
  5
27F
100
AcDbEntity
  8
0
100
AcDbPolyline
 62
2
  6
CONTINUOUS
 90
4
 70
0
 43
0.2
 10
11.7940942383
 20
86.3541679688
 10
9.294097168
 20
87.0240400391
 10
11.7940942383
 20
88.0208344727
 10
9.294097168
 20
88.690706543
  0
LWPOLYLINE
  5
280
100
AcDbEntity
  8
0
100
AcDbPolyline
 62
2
  6
CONTINUOUS
 90
4
 70
0
 43
0.2
 10
9.294097168
 20
90.8157099609
 10
11.7940942383
 20
90.1458378906
 10
9.294097168
 20
91.8157109375
 10
11.7940942383
 20
91.145828125
  0
LWPOLYLINE
  5
281
100
AcDbEntity
  8
0
100
AcDbPolyline
 62
2
  6
CONTINUOUS
 90
2
 70
0
 43
0.2
 10
11.7940942383
 20
92.1458291016
 10
10.1274277344
 20
92.5924140625
  0
LWPOLYLINE
  5
282
100
AcDbEntity
  8
0
100
AcDbPolyline
 62
2
  6
CONTINUOUS
 90
2
 70
0
 43
0.2
 10
10.9607636719
 20
92.3691269531
 10
10.9607636719
 20
93.3691279297
  0
LWPOLYLINE
  5
283
100
AcDbEntity
  8
0
100
AcDbPolyline
 62
2
  6
CONTINUOUS
 90
2
 70
0
 43
0.2
 10
10.1274277344
 20
93.5924150391
 10
11.7940942383
 20
93.1458300781
  0
LWPOLYLINE
  5
284
100
AcDbEntity
  8
0
100
AcDbPolyline
 62
2
  6
CONTINUOUS
 90
12
 70
0
 43
0.2
 10
10.5440957031
 20
94.4807724609
 10
9.7107597656
 20
95.2040654297
 10
9.294097168
 20
95.3157089844
 10
9.294097168
 20
95.0657060547
 10
9.7107597656
 20
94.7040595703
 10
11.3774262695
 20
94.2574746094
 10
11.7940942383
 20
94.3958339844
 10
11.7940942383
 20
94.8958291016
 10
11.3774262695
 20
95.2574755859
 10
10.5440957031
 20
95.4807734375
 10
10.1274277344
 20
95.3424140625
 10
10.1274277344
 20
94.8424189453
  0
LWPOLYLINE
  5
285
100
AcDbEntity
  8
0
100
AcDbPolyline
 62
2
  6
CONTINUOUS
 90
5
 70
0
 43
0.2
 10
11.7940942383
 20
96.2708291016
 10
11.7940942383
 20
96.1458330078
 10
11.5857602539
 20
96.2016601563
 10
11.5857602539
 20
96.32665625
 10
11.7940942383
 20
96.2708291016
  0
LWPOLYLINE
  5
286
100
AcDbEntity
  8
0
100
AcDbPolyline
 62
2
  6
CONTINUOUS
 90
4
 70
0
 43
0.2
 10
11.7940942383
 20
98.3541689453
 10
9.294097168
 20
99.0240410156
 10
11.7940942383
 20
100.0208300781
 10
9.294097168
 20
100.6907021484
  0
LWPOLYLINE
  5
287
100
AcDbEntity
  8
0
100
AcDbPolyline
 62
2
  6
CONTINUOUS
 90
11
 70
0
 43
0.2
 10
10.5440957031
 20
106.1891015625
 10
10.1274277344
 20
106.0507529297
 10
10.1274277344
 20
105.5507470703
 10
10.5440957031
 20
105.1891005859
 10
11.3774262695
 20
104.9658134766
 10
11.7940942383
 20
105.1041621094
 10
11.7940942383
 20
105.6041679688
 10
11.3774262695
 20
105.9658144531
 10
9.7107597656
 20
106.4123994141
 10
9.294097168
 20
106.2740400391
 10
9.294097168
 20
105.7740449219
  0
LWPOLYLINE
  5
288
100
AcDbEntity
  8
0
100
AcDbPolyline
 62
2
  6
CONTINUOUS
 90
2
 70
0
 43
0.2
 10
10.1274277344
 20
107.3007460938
 10
11.7940942383
 20
107.3541669922
  0
LWPOLYLINE
  5
289
100
AcDbEntity
  8
0
100
AcDbPolyline
 62
2
  6
CONTINUOUS
 90
3
 70
0
 43
0.2
 10
12.6274301758
 20
106.6308740234
 10
12.6274301758
 20
106.8808769531
 10
10.1274277344
 20
108.3007470703
  0
LWPOLYLINE
  5
28A
100
AcDbEntity
  8
0
100
AcDbPolyline
 62
2
  6
CONTINUOUS
 90
10
 70
0
 43
0.2
 10
10.1274277344
 20
110.0507460938
 10
10.1274277344
 20
109.5507509766
 10
10.5440957031
 20
109.1891044922
 10
11.3774262695
 20
108.9658173828
 10
11.7940942383
 20
109.1041660156
 10
11.7940942383
 20
109.604171875
 10
11.3774262695
 20
109.9658076172
 10
10.5440957031
 20
110.1891054688
 10
9.294097168
 20
109.7740380859
 10
9.294097168
 20
110.5240361328
  0
LWPOLYLINE
  5
28B
100
AcDbEntity
  8
0
100
AcDbPolyline
 62
2
  6
CONTINUOUS
 90
3
 70
0
 43
0.2
 10
11.7940942383
 20
110.8541650391
 10
10.1274277344
 20
111.8007451172
 10
11.7940942383
 20
111.8541660156
  0
LWPOLYLINE
  5
28C
100
AcDbEntity
  8
0
100
AcDbPolyline
 62
2
  6
CONTINUOUS
 90
5
 70
0
 43
0.2
 10
11.7940942383
 20
112.9791630859
 10
11.7940942383
 20
112.8541669922
 10
11.5857602539
 20
112.9099941406
 10
11.5857602539
 20
113.0349902344
 10
11.7940942383
 20
112.9791630859
  0
LWPOLYLINE
  5
28D
100
AcDbEntity
  8
0
100
AcDbPolyline
 62
2
  6
CONTINUOUS
 90
4
 70
0
 43
0.2
 10
11.7940942383
 20
118.5000029297
 10
9.294097168
 20
119.169875
 10
9.294097168
 20
120.1698759766
 10
11.7940942383
 20
119.5000039063
  0
LWPOLYLINE
  5
28E
100
AcDbEntity
  8
0
100
AcDbPolyline
 62
2
  6
CONTINUOUS
 90
9
 70
0
 43
0.2
 10
11.3774262695
 20
120.6116484375
 10
11.7940942383
 20
120.7499970703
 10
11.7940942383
 20
121.2500029297
 10
11.3774262695
 20
121.6116494141
 10
10.5440957031
 20
121.8349365234
 10
10.1274277344
 20
121.6965771484
 10
10.1274277344
 20
121.1965820313
 10
10.5440957031
 20
120.8349355469
 10
11.3774262695
 20
120.6116484375
  0
LWPOLYLINE
  5
28F
100
AcDbEntity
  8
0
100
AcDbPolyline
 62
2
  6
CONTINUOUS
 90
11
 70
0
 43
0.2
 10
10.5440957031
 20
123.8349384766
 10
10.1274277344
 20
123.6965791016
 10
10.1274277344
 20
123.1965839844
 10
10.5440957031
 20
122.8349375
 10
11.3774262695
 20
122.6116503906
 10
11.7940942383
 20
122.7499990234
 10
11.7940942383
 20
123.2500048828
 10
11.3774262695
 20
123.611640625
 10
9.7107597656
 20
124.0582255859
 10
9.294097168
 20
123.9198769531
 10
9.294097168
 20
123.4198710938
  0
LWPOLYLINE
  5
290
100
AcDbEntity
  8
0
100
AcDbPolyline
 62
2
  6
CONTINUOUS
 90
2
 70
0
 43
0.2
 10
11.7940942383
 20
124.4999980469
 10
10.1274277344
 20
124.9465830078
  0
LWPOLYLINE
  5
291
100
AcDbEntity
  8
0
100
AcDbPolyline
 62
2
  6
CONTINUOUS
 90
5
 70
0
 43
0.2
 10
10.5440957031
 20
124.8349394531
 10
10.1274277344
 20
125.1965859375
 10
10.1274277344
 20
125.6965810547
 10
10.5440957031
 20
125.8349404297
 10
11.7940942383
 20
125.4999990234
  0
LWPOLYLINE
  5
292
100
AcDbEntity
  8
0
100
AcDbPolyline
 62
2
  6
CONTINUOUS
 90
5
 70
0
 43
0.2
 10
10.1274277344
 20
126.9465849609
 10
11.3774262695
 20
126.6116435547
 10
11.7940942383
 20
126.7500029297
 10
11.7940942383
 20
126.9999951172
 10
10.9607636719
 20
127.7232880859
  0
LWPOLYLINE
  5
293
100
AcDbEntity
  8
0
100
AcDbPolyline
 62
2
  6
CONTINUOUS
 90
2
 70
0
 43
0.2
 10
10.1274277344
 20
127.9465859375
 10
11.7940942383
 20
127.5000009766
  0
LWPOLYLINE
  5
294
100
AcDbEntity
  8
0
100
AcDbPolyline
 62
2
  6
CONTINUOUS
 90
8
 70
0
 43
0.2
 10
10.5440957031
 20
129.8349335938
 10
10.1274277344
 20
129.6965849609
 10
10.1274277344
 20
129.1965791016
 10
10.5440957031
 20
128.8349326172
 10
11.3774262695
 20
128.6116455078
 10
11.7940942383
 20
128.7500048828
 10
11.7940942383
 20
129.25
 10
11.3774262695
 20
129.6116464844
  0
LWPOLYLINE
  5
295
100
AcDbEntity
  8
0
100
AcDbPolyline
 62
2
  6
CONTINUOUS
 90
9
 70
0
 43
0.2
 10
10.1274277344
 20
130.946578125
 10
11.3774262695
 20
130.6116474609
 10
11.7940942383
 20
130.7499960938
 10
11.7940942383
 20
131.2500019531
 10
11.3774262695
 20
131.6116484375
 10
10.9607636719
 20
131.7232919922
 10
10.5440957031
 20
131.5849326172
 10
10.5440957031
 20
131.0849375
 10
10.9607636719
 20
130.7232910156
  0
LWPOLYLINE
  5
296
100
AcDbEntity
  8
0
100
AcDbPolyline
 62
2
  6
CONTINUOUS
 90
5
 70
0
 43
0.2
 10
10.1274277344
 20
134.9465820313
 10
11.3774262695
 20
134.611640625
 10
11.7940942383
 20
134.75
 10
11.7940942383
 20
135.0000029297
 10
10.9607636719
 20
135.7232958984
  0
LWPOLYLINE
  5
297
100
AcDbEntity
  8
0
100
AcDbPolyline
 62
2
  6
CONTINUOUS
 90
2
 70
0
 43
0.2
 10
10.1274277344
 20
135.9465830078
 10
11.7940942383
 20
135.4999980469
  0
LWPOLYLINE
  5
298
100
AcDbEntity
  8
0
100
AcDbPolyline
 62
2
  6
CONTINUOUS
 90
11
 70
0
 43
0.2
 10
10.5440957031
 20
139.8349326172
 10
10.1274277344
 20
139.6965839844
 10
10.1274277344
 20
139.196578125
 10
10.5440957031
 20
138.8349316406
 10
11.3774262695
 20
138.6116445313
 10
11.7940942383
 20
138.7500039063
 10
11.7940942383
 20
139.2499990234
 10
11.3774262695
 20
139.6116455078
 10
9.7107597656
 20
140.0582304688
 10
9.294097168
 20
139.9198710938
 10
9.294097168
 20
139.4198759766
  0
LWPOLYLINE
  5
299
100
AcDbEntity
  8
0
100
AcDbPolyline
 62
2
  6
CONTINUOUS
 90
8
 70
0
 43
0.2
 10
10.5440957031
 20
141.8349345703
 10
10.1274277344
 20
141.6965859375
 10
10.1274277344
 20
141.1965800781
 10
10.5440957031
 20
140.8349335938
 10
11.3774262695
 20
140.6116464844
 10
11.7940942383
 20
140.7499951172
 10
11.7940942383
 20
141.2500009766
 10
11.3774262695
 20
141.6116474609
  0
LWPOLYLINE
  5
29A
100
AcDbEntity
  8
0
100
AcDbPolyline
 62
2
  6
CONTINUOUS
 90
3
 70
0
 43
0.2
 10
10.1274277344
 20
141.946578125
 10
11.3774262695
 20
141.6116474609
 10
11.7940942383
 20
141.625
  0
LWPOLYLINE
  5
29B
100
AcDbEntity
  8
0
100
AcDbPolyline
 62
2
  6
CONTINUOUS
 90
2
 70
0
 43
0.2
 10
11.7940942383
 20
142.5000048828
 10
10.1274277344
 20
142.9465791016
  0
LWPOLYLINE
  5
29C
100
AcDbEntity
  8
0
100
AcDbPolyline
 62
2
  6
CONTINUOUS
 90
4
 70
0
 43
0.2
 10
10.5440957031
 20
142.8349355469
 10
10.1274277344
 20
143.1965820313
 10
10.5440957031
 20
143.3349414063
 10
11.7940942383
 20
143.0
  0
LWPOLYLINE
  5
29D
100
AcDbEntity
  8
0
100
AcDbPolyline
 62
2
  6
CONTINUOUS
 90
4
 70
0
 43
0.2
 10
10.5440957031
 20
143.3349414063
 10
10.1274277344
 20
143.6965771484
 10
10.5440957031
 20
143.8349365234
 10
11.7940942383
 20
143.4999951172
  0
LWPOLYLINE
  5
29E
100
AcDbEntity
  8
0
100
AcDbPolyline
 62
2
  6
CONTINUOUS
 90
8
 70
0
 43
0.2
 10
10.5440957031
 20
145.8349384766
 10
10.1274277344
 20
145.6965791016
 10
10.1274277344
 20
145.1965839844
 10
10.5440957031
 20
144.8349375
 10
11.3774262695
 20
144.6116503906
 10
11.7940942383
 20
144.7499990234
 10
11.7940942383
 20
145.2500048828
 10
11.3774262695
 20
145.611640625
  0
LWPOLYLINE
  5
29F
100
AcDbEntity
  8
0
100
AcDbPolyline
 62
2
  6
CONTINUOUS
 90
3
 70
0
 43
0.2
 10
10.1274277344
 20
145.9465820313
 10
11.3774262695
 20
145.611640625
 10
11.7940942383
 20
145.6250039063
  0
LINE
  5
2A0
100
AcDbEntity
  8
0
100
AcDbLine
 62
7
  6
CONTINUOUS
 10
90.0
 20
278.3498994289
 11
20.0
 21
278.3498994289
  0
LINE
  5
2A1
100
AcDbEntity
  8
0
100
AcDbLine
 62
7
  6
CONTINUOUS
 10
90.0
 20
278.3498994289
 11
90.0
 21
292.3498994289
  0
LINE
  5
2A2
100
AcDbEntity
  8
0
100
AcDbLine
 62
7
  6
CONTINUOUS
 10
90.0
 20
292.3498994289
 11
20.0
 21
292.3498994289
  0
LINE
  5
2A3
100
AcDbEntity
  8
0
100
AcDbLine
 62
7
  6
CONTINUOUS
 10
20.0
 20
278.3498994289
 11
20.0
 21
292.3498994289
  0
LWPOLYLINE
  5
2A4
100
AcDbEntity
  8
0
100
AcDbPolyline
 62
2
  6
CONTINUOUS
 90
4
 70
0
 43
0.2
 10
78.0121015625
 20
281.9280878906
 10
79.5000019531
 20
288.9280839844
 10
76.2621025391
 20
281.9280878906
 10
77.7500029297
 20
288.9280839844
  0
LWPOLYLINE
  5
2A5
100
AcDbEntity
  8
0
100
AcDbPolyline
 62
2
  6
CONTINUOUS
 90
6
 70
0
 43
0.2
 10
76.0000039063
 20
288.9280839844
 10
74.6875019531
 20
288.9280839844
 10
74.0020214844
 20
287.7614179688
 10
73.7540380859
 20
286.5947519531
 10
73.9435517578
 20
285.4280859375
 10
75.2560537109
 20
285.4280859375
  0
LWPOLYLINE
  5
2A6
100
AcDbEntity
  8
0
100
AcDbPolyline
 62
2
  6
CONTINUOUS
 90
3
 70
0
 43
0.2
 10
76.0000039063
 20
288.9280839844
 10
74.5121035156
 20
281.9280878906
 10
73.1996015625
 20
281.9280878906
  0
LWPOLYLINE
  5
2A7
100
AcDbEntity
  8
0
100
AcDbPolyline
 62
2
  6
CONTINUOUS
 90
7
 70
0
 43
0.2
 10
72.4999951172
 20
288.9280839844
 10
71.0121054688
 20
281.9280878906
 10
69.6996035156
 20
281.9280878906
 10
69.5100898438
 20
283.0947539063
 10
69.7580732422
 20
284.2614199219
 10
70.4435537109
 20
285.4280859375
 10
71.7560556641
 20
285.4280859375
  0
LWPOLYLINE
  5
2A8
100
AcDbEntity
  8
0
100
AcDbPolyline
 62
2
  6
CONTINUOUS
 90
10
 70
0
 43
0.2
 10
67.7600908203
 20
283.0947539063
 10
67.0745996094
 20
281.9280878906
 10
66.1996054688
 20
281.9280878906
 10
66.0100917969
 20
283.0947539063
 10
66.5060478516
 20
285.4280859375
 10
67.1915390625
 20
286.5947519531
 10
68.0665332031
 20
286.5947519531
 10
68.7520136719
 20
287.7614179688
 10
68.9999970703
 20
288.9280839844
 10
67.2499980469
 20
288.9280839844
  0
LWPOLYLINE
  5
2A9
100
AcDbEntity
  8
0
100
AcDbPolyline
 62
2
  6
CONTINUOUS
 90
5
 70
0
 43
0.2
 10
65.2812451172
 20
288.9280839844
 10
65.4999990234
 20
288.9280839844
 10
65.3760126953
 20
288.3447617188
 10
65.1572587891
 20
288.3447617188
 10
65.2812451172
 20
288.9280839844
  0
LWPOLYLINE
  5
2AA
100
AcDbEntity
  8
0
100
AcDbPolyline
 62
2
  6
CONTINUOUS
 90
9
 70
0
 43
0.2
 10
61.5625039063
 20
288.9280839844
 10
61.7520175781
 20
287.7614179688
 10
60.7600839844
 20
283.0947539063
 10
60.0746035156
 20
281.9280878906
 10
59.199609375
 20
281.9280878906
 10
59.0100849609
 20
283.0947539063
 10
60.0020185547
 20
287.7614179688
 10
60.6874990234
 20
288.9280839844
 10
61.5625039063
 20
288.9280839844
  0
LWPOLYLINE
  5
2AB
100
AcDbEntity
  8
0
100
AcDbPolyline
 62
2
  6
CONTINUOUS
 90
3
 70
0
 43
0.2
 10
56.4143212891
 20
284.2614199219
 10
55.4808574219
 20
281.9280878906
 10
56.9687470703
 20
288.9280839844
  0
LWPOLYLINE
  5
2AC
100
AcDbEntity
  8
0
100
AcDbPolyline
 62
2
  6
CONTINUOUS
 90
2
 70
0
 43
0.2
 10
57.4062548828
 20
288.9280839844
 10
56.53125
 20
288.9280839844
  0
LWPOLYLINE
  5
2AD
100
AcDbEntity
  8
0
100
AcDbPolyline
 62
2
  6
CONTINUOUS
 90
5
 70
0
 43
0.2
 10
54.7812509766
 20
288.9280839844
 10
55.0000048828
 20
288.9280839844
 10
54.8760078125
 20
288.3447617188
 10
54.6572539063
 20
288.3447617188
 10
54.7812509766
 20
288.9280839844
  0
LWPOLYLINE
  5
2AE
100
AcDbEntity
  8
0
100
AcDbPolyline
 62
2
  6
CONTINUOUS
 90
3
 70
0
 43
0.2
 10
49.4143144531
 20
284.2614199219
 10
48.4808505859
 20
281.9280878906
 10
49.9687509766
 20
288.9280839844
  0
LWPOLYLINE
  5
2AF
100
AcDbEntity
  8
0
100
AcDbPolyline
 62
2
  6
CONTINUOUS
 90
2
 70
0
 43
0.2
 10
50.4062480469
 20
288.9280839844
 10
49.5312539063
 20
288.9280839844
  0
LWPOLYLINE
  5
2B0
100
AcDbEntity
  8
0
100
AcDbPolyline
 62
2
  6
CONTINUOUS
 90
9
 70
0
 43
0.2
 10
47.5625009766
 20
288.9280839844
 10
47.7520146484
 20
287.7614179688
 10
46.7600917969
 20
283.0947539063
 10
46.0746005859
 20
281.9280878906
 10
45.1996064453
 20
281.9280878906
 10
45.0100820313
 20
283.0947539063
 10
46.002015625
 20
287.7614179688
 10
46.6874960938
 20
288.9280839844
 10
47.5625009766
 20
288.9280839844
  0
LWPOLYLINE
  5
2B1
100
AcDbEntity
  8
0
100
AcDbPolyline
 62
2
  6
CONTINUOUS
 90
9
 70
0
 43
0.2
 10
44.0625029297
 20
288.9280839844
 10
44.2520166016
 20
287.7614179688
 10
43.2600830078
 20
283.0947539063
 10
42.5746025391
 20
281.9280878906
 10
41.6996083984
 20
281.9280878906
 10
41.5100839844
 20
283.0947539063
 10
42.5020175781
 20
287.7614179688
 10
43.1874980469
 20
288.9280839844
 10
44.0625029297
 20
288.9280839844
  0
LWPOLYLINE
  5
2B2
100
AcDbEntity
  8
0
100
AcDbPolyline
 62
2
  6
CONTINUOUS
 90
5
 70
0
 43
0.2
 10
40.7812480469
 20
288.9280839844
 10
41.0000019531
 20
288.9280839844
 10
40.8760048828
 20
288.3447617188
 10
40.6572617188
 20
288.3447617188
 10
40.7812480469
 20
288.9280839844
  0
LWPOLYLINE
  5
2B3
100
AcDbEntity
  8
0
100
AcDbPolyline
 62
2
  6
CONTINUOUS
 90
9
 70
0
 43
0.2
 10
37.0624960938
 20
288.9280839844
 10
37.2520205078
 20
287.7614179688
 10
36.2600869141
 20
283.0947539063
 10
35.5746064453
 20
281.9280878906
 10
34.6996015625
 20
281.9280878906
 10
34.5100878906
 20
283.0947539063
 10
35.5020214844
 20
287.7614179688
 10
36.1875019531
 20
288.9280839844
 10
37.0624960938
 20
288.9280839844
  0
LWPOLYLINE
  5
2B4
100
AcDbEntity
  8
0
100
AcDbPolyline
 62
2
  6
CONTINUOUS
 90
9
 70
0
 43
0.2
 10
33.5624980469
 20
288.9280839844
 10
32.6875039063
 20
288.9280839844
 10
32.0020126953
 20
287.7614179688
 10
31.7540400391
 20
286.5947519531
 10
31.9435537109
 20
285.4280859375
 10
32.8185478516
 20
285.4280859375
 10
33.5040390625
 20
286.5947519531
 10
33.7520224609
 20
287.7614179688
 10
33.5624980469
 20
288.9280839844
  0
LWPOLYLINE
  5
2B5
100
AcDbEntity
  8
0
100
AcDbPolyline
 62
2
  6
CONTINUOUS
 90
8
 70
0
 43
0.2
 10
31.9435537109
 20
285.4280859375
 10
31.2580732422
 20
284.2614199219
 10
31.0100898438
 20
283.0947539063
 10
31.1996035156
 20
281.9280878906
 10
32.0746083984
 20
281.9280878906
 10
32.7600888672
 20
283.0947539063
 10
33.0080722656
 20
284.2614199219
 10
32.8185478516
 20
285.4280859375
  0
LINE
  5
2B6
100
AcDbEntity
  8
0
100
AcDbLine
 62
7
  6
CONTINUOUS
 10
8.0
 20
172.3498994289
 11
8.0
 21
292.3498994289
  0
LINE
  5
2B7
100
AcDbEntity
  8
0
100
AcDbLine
 62
7
  6
CONTINUOUS
 10
8.0
 20
172.3498994289
 11
20.0
 21
172.3498994289
  0
LINE
  5
2B8
100
AcDbEntity
  8
0
100
AcDbLine
 62
7
  6
CONTINUOUS
 10
13.0
 20
172.3498994289
 11
13.0
 21
292.3498994289
  0
LINE
  5
2B9
100
AcDbEntity
  8
0
100
AcDbLine
 62
7
  6
CONTINUOUS
 10
20.0
 20
172.3498994289
 11
20.0
 21
292.3498994289
  0
LINE
  5
2BA
100
AcDbEntity
  8
0
100
AcDbLine
 62
7
  6
CONTINUOUS
 10
8.0
 20
232.3498994289
 11
20.0
 21
232.3498994289
  0
LINE
  5
2BB
100
AcDbEntity
  8
0
100
AcDbLine
 62
7
  6
CONTINUOUS
 10
8.0
 20
292.3498994289
 11
20.0
 21
292.3498994289
  0
LWPOLYLINE
  5
2BC
100
AcDbEntity
  8
0
100
AcDbPolyline
 62
2
  6
CONTINUOUS
 90
8
 70
0
 43
0.2
 10
9.7107597656
 20
196.5539511719
 10
9.294097168
 20
196.4156132813
 10
9.294097168
 20
195.9156074219
 10
9.7107597656
 20
195.5539609375
 10
11.3774262695
 20
195.1073867188
 10
11.7940942383
 20
195.2457246094
 10
11.7940942383
 20
195.7457304688
 10
11.3774262695
 20
196.1073769531
  0
LWPOLYLINE
  5
2BD
100
AcDbEntity
  8
0
100
AcDbPolyline
 62
2
  6
CONTINUOUS
 90
2
 70
0
 43
0.2
 10
11.7940942383
 20
196.995734375
 10
10.1274277344
 20
197.4423085938
  0
LWPOLYLINE
  5
2BE
100
AcDbEntity
  8
0
100
AcDbPolyline
 62
2
  6
CONTINUOUS
 90
5
 70
0
 43
0.2
 10
10.5440957031
 20
197.3306757813
 10
10.1274277344
 20
197.6923222656
 10
10.1274277344
 20
198.1923066406
 10
10.5440957031
 20
198.3306660156
 10
11.7940942383
 20
197.9957246094
  0
LWPOLYLINE
  5
2BF
100
AcDbEntity
  8
0
100
AcDbPolyline
 62
2
  6
CONTINUOUS
 90
2
 70
0
 43
0.2
 10
12.6274301758
 20
198.7724492188
 10
10.1274277344
 20
199.4423105469
  0
LWPOLYLINE
  5
2C0
100
AcDbEntity
  8
0
100
AcDbPolyline
 62
2
  6
CONTINUOUS
 90
7
 70
0
 43
0.2
 10
11.7940942383
 20
198.9957363281
 10
11.7940942383
 20
199.745734375
 10
11.3774262695
 20
200.1073808594
 10
10.5440957031
 20
200.3306679688
 10
10.1274277344
 20
200.1923085938
 10
10.1274277344
 20
199.6923242188
 10
10.5440957031
 20
199.3306777344
  0
LWPOLYLINE
  5
2C1
100
AcDbEntity
  8
0
100
AcDbPolyline
 62
2
  6
CONTINUOUS
 90
8
 70
0
 43
0.2
 10
10.5440957031
 20
202.3306699219
 10
10.1274277344
 20
202.1923105469
 10
10.1274277344
 20
201.6923046875
 10
10.5440957031
 20
201.3306796875
 10
11.3774262695
 20
201.1073710938
 10
11.7940942383
 20
201.2457304688
 10
11.7940942383
 20
201.7457363281
 10
11.3774262695
 20
202.1073828125
  0
LWPOLYLINE
  5
2C2
100
AcDbEntity
  8
0
100
AcDbPolyline
 62
2
  6
CONTINUOUS
 90
3
 70
0
 43
0.2
 10
10.1274277344
 20
202.4423242188
 10
11.3774262695
 20
202.1073828125
 10
11.7940942383
 20
202.1207246094
  0
LWPOLYLINE
  5
2C3
100
AcDbEntity
  8
0
100
AcDbPolyline
 62
2
  6
CONTINUOUS
 90
12
 70
0
 43
0.2
 10
10.5440957031
 20
203.3306601563
 10
9.7107597656
 20
204.053953125
 10
9.294097168
 20
204.1656074219
 10
9.294097168
 20
203.9156152344
 10
9.7107597656
 20
203.55396875
 10
11.3774262695
 20
203.1073730469
 10
11.7940942383
 20
203.2457324219
 10
11.7940942383
 20
203.7457382813
 10
11.3774262695
 20
204.1073847656
 10
10.5440957031
 20
204.330671875
 10
10.1274277344
 20
204.1923125
 10
10.1274277344
 20
203.6923066406
  0
LWPOLYLINE
  5
2C4
100
AcDbEntity
  8
0
100
AcDbPolyline
 62
2
  6
CONTINUOUS
 90
5
 70
0
 43
0.2
 10
11.7940942383
 20
205.1207382813
 10
11.7940942383
 20
204.9957421875
 10
11.5857602539
 20
205.0515585938
 10
11.5857602539
 20
205.1765546875
 10
11.7940942383
 20
205.1207382813
  0
LWPOLYLINE
  5
2C5
100
AcDbEntity
  8
0
100
AcDbPolyline
 62
2
  6
CONTINUOUS
 90
4
 70
0
 43
0.2
 10
11.7940942383
 20
207.2040566406
 10
9.294097168
 20
207.8739394531
 10
11.7940942383
 20
208.8707285156
 10
9.294097168
 20
209.5406113281
  0
LWPOLYLINE
  5
2C6
100
AcDbEntity
  8
0
100
AcDbPolyline
 62
2
  6
CONTINUOUS
 90
4
 70
0
 43
0.2
 10
11.7940942383
 20
249.349890625
 10
9.294097168
 20
250.0197734375
 10
9.294097168
 20
251.0197636719
 10
11.7940942383
 20
250.3499023438
  0
LWPOLYLINE
  5
2C7
100
AcDbEntity
  8
0
100
AcDbPolyline
 62
2
  6
CONTINUOUS
 90
10
 70
0
 43
0.2
 10
10.9607636719
 20
251.5731796875
 10
10.9607636719
 20
252.3231992188
 10
10.5440957031
 20
252.6848457031
 10
10.1274277344
 20
252.5464863281
 10
10.1274277344
 20
252.0464804688
 10
10.5440957031
 20
251.6848339844
 10
11.3774262695
 20
251.461546875
 10
11.7940942383
 20
251.59990625
 10
11.7940942383
 20
252.099890625
 10
11.3774262695
 20
252.4615371094
  0
LWPOLYLINE
  5
2C8
100
AcDbEntity
  8
0
100
AcDbPolyline
 62
2
  6
CONTINUOUS
 90
2
 70
0
 43
0.2
 10
12.6274301758
 20
253.1266074219
 10
10.1274277344
 20
253.7964902344
  0
LWPOLYLINE
  5
2C9
100
AcDbEntity
  8
0
100
AcDbPolyline
 62
2
  6
CONTINUOUS
 90
7
 70
0
 43
0.2
 10
11.7940942383
 20
253.3498945313
 10
11.7940942383
 20
254.0998925781
 10
11.3774262695
 20
254.4615390625
 10
10.5440957031
 20
254.6848261719
 10
10.1274277344
 20
254.5464882813
 10
10.1274277344
 20
254.0464824219
 10
10.5440957031
 20
253.6848359375
  0
LWPOLYLINE
  5
2CA
100
AcDbEntity
  8
0
100
AcDbPolyline
 62
2
  6
CONTINUOUS
 90
12
 70
0
 43
0.2
 10
10.5440957031
 20
255.6848378906
 10
9.7107597656
 20
256.4081308594
 10
9.294097168
 20
256.5197636719
 10
9.294097168
 20
256.2697714844
 10
9.7107597656
 20
255.908125
 10
11.3774262695
 20
255.4615507813
 10
11.7940942383
 20
255.5999101563
 10
11.7940942383
 20
256.0998945313
 10
11.3774262695
 20
256.4615410156
 10
10.5440957031
 20
256.684828125
 10
10.1274277344
 20
256.5464902344
 10
10.1274277344
 20
256.046484375
  0
LWPOLYLINE
  5
2CB
100
AcDbEntity
  8
0
100
AcDbPolyline
 62
2
  6
CONTINUOUS
 90
5
 70
0
 43
0.2
 10
11.7940942383
 20
257.4748945313
 10
11.7940942383
 20
257.3498984375
 10
11.5857602539
 20
257.4057148438
 10
11.5857602539
 20
257.5307324219
 10
11.7940942383
 20
257.4748945313
  0
LWPOLYLINE
  5
2CC
100
AcDbEntity
  8
0
100
AcDbPolyline
 62
2
  6
CONTINUOUS
 90
2
 70
0
 43
0.2
 10
11.7940942383
 20
261.3499023438
 10
10.1274277344
 20
261.7964765625
  0
LWPOLYLINE
  5
2CD
100
AcDbEntity
  8
0
100
AcDbPolyline
 62
2
  6
CONTINUOUS
 90
5
 70
0
 43
0.2
 10
10.5440957031
 20
261.68484375
 10
10.1274277344
 20
262.0464902344
 10
10.1274277344
 20
262.5464746094
 10
10.5440957031
 20
262.6848339844
 10
11.7940942383
 20
262.3498925781
  0
LWPOLYLINE
  5
2CE
100
AcDbEntity
  8
0
100
AcDbPolyline
 62
2
  6
CONTINUOUS
 90
2
 70
0
 43
0.2
 10
12.6274301758
 20
263.1266171875
 10
10.1274277344
 20
263.7964785156
  0
LWPOLYLINE
  5
2CF
100
AcDbEntity
  8
0
100
AcDbPolyline
 62
2
  6
CONTINUOUS
 90
7
 70
0
 43
0.2
 10
11.7940942383
 20
263.3499042969
 10
11.7940942383
 20
264.0999023438
 10
11.3774262695
 20
264.4615488281
 10
10.5440957031
 20
264.6848359375
 10
10.1274277344
 20
264.5464765625
 10
10.1274277344
 20
264.0464707031
 10
10.5440957031
 20
263.6848457031
  0
LWPOLYLINE
  5
2D0
100
AcDbEntity
  8
0
100
AcDbPolyline
 62
2
  6
CONTINUOUS
 90
5
 70
0
 43
0.2
 10
10.1274277344
 20
265.7964804688
 10
11.3774262695
 20
265.4615390625
 10
11.7940942383
 20
265.5998984375
 10
11.7940942383
 20
265.849890625
 10
10.9607636719
 20
266.5731835938
  0
LWPOLYLINE
  5
2D1
100
AcDbEntity
  8
0
100
AcDbPolyline
 62
2
  6
CONTINUOUS
 90
2
 70
0
 43
0.2
 10
10.1274277344
 20
266.7964707031
 10
11.7940942383
 20
266.3498964844
  0
LWPOLYLINE
  5
2D2
100
AcDbEntity
  8
0
100
AcDbPolyline
 62
2
  6
CONTINUOUS
 90
5
 70
0
 43
0.2
 10
11.7940942383
 20
267.3499082031
 10
10.1274277344
 20
267.7964824219
 10
10.9607636719
 20
268.0731796875
 10
10.1274277344
 20
268.7964726563
 10
11.7940942383
 20
268.3498984375
  0
LWPOLYLINE
  5
2D3
100
AcDbEntity
  8
0
100
AcDbPolyline
 62
2
  6
CONTINUOUS
 90
10
 70
0
 43
0.2
 10
10.9607636719
 20
269.5731972656
 10
10.9607636719
 20
270.3231953125
 10
10.5440957031
 20
270.6848417969
 10
10.1274277344
 20
270.5464824219
 10
10.1274277344
 20
270.0464765625
 10
10.5440957031
 20
269.6848300781
 10
11.3774262695
 20
269.4615429688
 10
11.7940942383
 20
269.5999023438
 10
11.7940942383
 20
270.0999082031
 10
11.3774262695
 20
270.4615546875
  0
LWPOLYLINE
  5
2D4
100
AcDbEntity
  8
0
100
AcDbPolyline
 62
2
  6
CONTINUOUS
 90
2
 70
0
 43
0.2
 10
11.7940942383
 20
271.349890625
 10
10.1274277344
 20
271.7964863281
  0
LWPOLYLINE
  5
2D5
100
AcDbEntity
  8
0
100
AcDbPolyline
 62
2
  6
CONTINUOUS
 90
2
 70
0
 43
0.2
 10
10.9607636719
 20
271.5731992188
 10
10.9607636719
 20
272.5731894531
  0
LWPOLYLINE
  5
2D6
100
AcDbEntity
  8
0
100
AcDbPolyline
 62
2
  6
CONTINUOUS
 90
2
 70
0
 43
0.2
 10
10.1274277344
 20
272.7964765625
 10
11.7940942383
 20
272.3499023438
  0
LWPOLYLINE
  5
2D7
100
AcDbEntity
  8
0
100
AcDbPolyline
 62
2
  6
CONTINUOUS
 90
5
 70
0
 43
0.2
 10
11.7940942383
 20
273.4749101563
 10
11.7940942383
 20
273.3498925781
 10
11.5857602539
 20
273.4057304688
 10
11.5857602539
 20
273.5307265625
 10
11.7940942383
 20
273.4749101563
  0
LINE
  5
2D8
100
AcDbEntity
  8
0
100
AcDbLine
 62
7
  6
CONTINUOUS
 10
205.0
 20
5.0
 11
20.0
 21
5.0
  0
LINE
  5
2D9
100
AcDbEntity
  8
0
100
AcDbLine
 62
7
  6
CONTINUOUS
 10
205.0
 20
5.0
 11
205.0
 21
60.0
  0
LINE
  5
2DA
100
AcDbEntity
  8
0
100
AcDbLine
 62
7
  6
CONTINUOUS
 10
85.0
 20
10.0
 11
20.0
 21
10.0
  0
LINE
  5
2DB
100
AcDbEntity
  8
0
100
AcDbLine
 62
7
  6
CONTINUOUS
 10
155.0
 20
12.5
 11
100.0
 21
12.5
  0
LINE
  5
2DC
100
AcDbEntity
  8
0
100
AcDbLine
 62
7
  6
CONTINUOUS
 10
85.0
 20
15.0
 11
20.0
 21
15.0
  0
LINE
  5
2DD
100
AcDbEntity
  8
0
100
AcDbLine
 62
7
  6
CONTINUOUS
 10
205.0
 20
20.0
 11
20.0
 21
20.0
  0
LINE
  5
2DE
100
AcDbEntity
  8
0
100
AcDbLine
 62
7
  6
CONTINUOUS
 10
205.0
 20
25.0
 11
155.0
 21
25.0
  0
LINE
  5
2DF
100
AcDbEntity
  8
0
100
AcDbLine
 62
7
  6
CONTINUOUS
 10
85.0
 20
25.0
 11
20.0
 21
25.0
  0
LINE
  5
2E0
100
AcDbEntity
  8
0
100
AcDbLine
 62
7
  6
CONTINUOUS
 10
85.0
 20
30.0
 11
20.0
 21
30.0
  0
LINE
  5
2E1
100
AcDbEntity
  8
0
100
AcDbLine
 62
7
  6
CONTINUOUS
 10
85.0
 20
35.0
 11
20.0
 21
35.0
  0
LINE
  5
2E2
100
AcDbEntity
  8
0
100
AcDbLine
 62
7
  6
CONTINUOUS
 10
205.0
 20
40.0
 11
155.0
 21
40.0
  0
LINE
  5
2E3
100
AcDbEntity
  8
0
100
AcDbLine
 62
7
  6
CONTINUOUS
 10
85.0
 20
40.0
 11
20.0
 21
40.0
  0
LINE
  5
2E4
100
AcDbEntity
  8
0
100
AcDbLine
 62
7
  6
CONTINUOUS
 10
205.0
 20
45.0
 11
20.0
 21
45.0
  0
LINE
  5
2E5
100
AcDbEntity
  8
0
100
AcDbLine
 62
7
  6
CONTINUOUS
 10
85.0
 20
50.0
 11
20.0
 21
50.0
  0
LINE
  5
2E6
100
AcDbEntity
  8
0
100
AcDbLine
 62
7
  6
CONTINUOUS
 10
85.0
 20
55.0
 11
20.0
 21
55.0
  0
LINE
  5
2E7
100
AcDbEntity
  8
0
100
AcDbLine
 62
7
  6
CONTINUOUS
 10
205.0
 20
60.0
 11
20.0
 21
60.0
  0
LINE
  5
2E8
100
AcDbEntity
  8
0
100
AcDbLine
 62
7
  6
CONTINUOUS
 10
187.0
 20
25.0
 11
187.0
 21
45.0
  0
LINE
  5
2E9
100
AcDbEntity
  8
0
100
AcDbLine
 62
7
  6
CONTINUOUS
 10
175.0
 20
20.0
 11
175.0
 21
25.0
  0
LINE
  5
2EA
100
AcDbEntity
  8
0
100
AcDbLine
 62
7
  6
CONTINUOUS
 10
170.0
 20
25.0
 11
170.0
 21
45.0
  0
LINE
  5
2EB
100
AcDbEntity
  8
0
100
AcDbLine
 62
7
  6
CONTINUOUS
 10
165.0
 20
25.0
 11
165.0
 21
40.0
  0
LINE
  5
2EC
100
AcDbEntity
  8
0
100
AcDbLine
 62
7
  6
CONTINUOUS
 10
160.0
 20
25.0
 11
160.0
 21
40.0
  0
LINE
  5
2ED
100
AcDbEntity
  8
0
100
AcDbLine
 62
7
  6
CONTINUOUS
 10
155.0
 20
5.0
 11
155.0
 21
45.0
  0
LINE
  5
2EE
100
AcDbEntity
  8
0
100
AcDbLine
 62
7
  6
CONTINUOUS
 10
85.0
 20
5.0
 11
85.0
 21
60.0
  0
LINE
  5
2EF
100
AcDbEntity
  8
0
100
AcDbLine
 62
7
  6
CONTINUOUS
 10
75.0
 20
5.0
 11
75.0
 21
60.0
  0
LINE
  5
2F0
100
AcDbEntity
  8
0
100
AcDbLine
 62
7
  6
CONTINUOUS
 10
60.0
 20
5.0
 11
60.0
 21
60.0
  0
LINE
  5
2F1
100
AcDbEntity
  8
0
100
AcDbLine
 62
7
  6
CONTINUOUS
 10
37.0
 20
5.0
 11
37.0
 21
60.0
  0
LINE
  5
2F2
100
AcDbEntity
  8
0
100
AcDbLine
 62
7
  6
CONTINUOUS
 10
27.0
 20
35.0
 11
27.0
 21
60.0
  0
LINE
  5
2F3
100
AcDbEntity
  8
0
100
AcDbLine
 62
7
  6
CONTINUOUS
 10
20.0
 20
5.0
 11
20.0
 21
60.0
  0
LWPOLYLINE
  5
2F4
100
AcDbEntity
  8
0
100
AcDbPolyline
 62
2
  6
CONTINUOUS
 90
4
 70
0
 43
0.2
 10
165.6000097656
 20
9.4329780273
 10
166.87534375
 20
15.4329785156
 10
168.6753476563
 20
15.4329785156
 10
167.3999921875
 20
9.4329780273
  0
LWPOLYLINE
  5
2F5
100
AcDbEntity
  8
0
100
AcDbPolyline
 62
2
  6
CONTINUOUS
 90
4
 70
0
 43
0.2
 10
170.4753300781
 20
15.4329785156
 10
169.1999960938
 20
9.4329780273
 10
172.2753339844
 20
15.4329785156
 10
171.0
 20
9.4329780273
  0
LWPOLYLINE
  5
2F6
100
AcDbEntity
  8
0
100
AcDbPolyline
 62
2
  6
CONTINUOUS
 90
7
 70
0
 43
0.2
 10
174.6000078125
 20
9.4329780273
 10
175.8753417969
 20
15.4329785156
 10
174.5253496094
 20
15.4329785156
 10
173.8627929688
 20
14.4329788818
 10
173.6502265625
 20
13.4329779053
 10
173.887671875
 20
12.4329782715
 10
175.2376640625
 20
12.4329782715
  0
LWPOLYLINE
  5
2F7
100
AcDbEntity
  8
0
100
AcDbPolyline
 62
2
  6
CONTINUOUS
 90
2
 70
0
 43
0.2
 10
172.8000039063
 20
9.4329780273
 10
174.7876738281
 20
12.4329782715
  0
LWPOLYLINE
  5
2F8
100
AcDbEntity
  8
0
100
AcDbPolyline
 62
2
  6
CONTINUOUS
 90
11
 70
0
 43
0.2
 10
178.5753476563
 20
15.4329785156
 10
178.1253359375
 20
15.4329785156
 10
177.4627792969
 20
14.4329788818
 10
177.0376679688
 20
12.4329782715
 10
177.2751132813
 20
11.4329786377
 10
178.1751152344
 20
11.4329786377
 10
178.837671875
 20
12.4329782715
 10
179.2627832031
 20
14.4329788818
 10
179.0253378906
 20
15.4329785156
 10
178.5753476563
 20
15.4329785156
 10
177.2999921875
 20
9.4329780273
  0
LWPOLYLINE
  5
2F9
100
AcDbEntity
  8
0
100
AcDbPolyline
 62
2
  6
CONTINUOUS
 90
7
 70
0
 43
0.2
 10
183.6000058594
 20
9.4329780273
 10
184.8753398438
 20
15.4329785156
 10
186.2253320313
 20
15.4329785156
 10
186.4627773438
 20
14.4329788818
 10
186.2502324219
 20
13.4329779053
 10
185.5876757813
 20
12.4329782715
 10
184.2376621094
 20
12.4329782715
  0
LWPOLYLINE
  5
2FA
100
AcDbEntity
  8
0
100
AcDbPolyline
 62
2
  6
CONTINUOUS
 90
3
 70
0
 43
0.2
 10
187.1999921875
 20
9.4329780273
 10
189.3753496094
 20
15.4329785156
 10
188.9999960938
 20
9.4329780273
  0
LWPOLYLINE
  5
2FB
100
AcDbEntity
  8
0
100
AcDbPolyline
 62
2
  6
CONTINUOUS
 90
2
 70
0
 43
0.2
 10
188.0751152344
 20
11.4329786377
 10
188.9751171875
 20
11.4329786377
  0
LWPOLYLINE
  5
2FC
100
AcDbEntity
  8
0
100
AcDbPolyline
 62
2
  6
CONTINUOUS
 90
2
 70
0
 43
0.2
 10
190.8
 20
9.4329780273
 10
192.0753339844
 20
15.4329785156
  0
LWPOLYLINE
  5
2FD
100
AcDbEntity
  8
0
100
AcDbPolyline
 62
2
  6
CONTINUOUS
 90
2
 70
0
 43
0.2
 10
191.4376777344
 20
12.4329782715
 10
193.2376601563
 20
12.4329782715
  0
LWPOLYLINE
  5
2FE
100
AcDbEntity
  8
0
100
AcDbPolyline
 62
2
  6
CONTINUOUS
 90
2
 70
0
 43
0.2
 10
193.8753378906
 20
15.4329785156
 10
192.6000039063
 20
9.4329780273
  0
LWPOLYLINE
  5
2FF
100
AcDbEntity
  8
0
100
AcDbPolyline
 62
2
  6
CONTINUOUS
 90
11
 70
0
 43
0.2
 10
173.2451601563
 20
3.9724663086
 10
173.0001523438
 20
3.9724663086
 10
172.6559726563
 20
3.5057994995
 10
172.4575859375
 20
2.572466217
 10
172.6033789063
 20
2.1057995758
 10
173.0933945313
 20
2.1057995758
 10
173.4375742188
 20
2.572466217
 10
173.6359609375
 20
3.5057994995
 10
173.4901679688
 20
3.9724663086
 10
173.2451601563
 20
3.9724663086
 10
172.65
 20
1.1724662094
  0
LWPOLYLINE
  5
300
100
AcDbEntity
  8
0
100
AcDbPolyline
 62
2
  6
CONTINUOUS
 90
9
 70
0
 43
0.2
 10
174.2191972656
 20
1.6391329346
 10
174.3649902344
 20
1.1724662094
 10
174.8550058594
 20
1.1724662094
 10
175.1991855469
 20
1.6391329346
 10
175.3975722656
 20
2.572466217
 10
175.2517792969
 20
3.0391330261
 10
174.7617636719
 20
3.0391330261
 10
174.4175839844
 20
2.572466217
 10
174.2191972656
 20
1.6391329346
  0
LWPOLYLINE
  5
301
100
AcDbEntity
  8
0
100
AcDbPolyline
 62
2
  6
CONTINUOUS
 90
2
 70
0
 43
0.2
 10
175.8816152344
 20
0.239132885
 10
176.4767753906
 20
3.0391330261
  0
LWPOLYLINE
  5
302
100
AcDbEntity
  8
0
100
AcDbPolyline
 62
2
  6
CONTINUOUS
 90
7
 70
0
 43
0.2
 10
176.0800019531
 20
1.1724662094
 10
176.8150039063
 20
1.1724662094
 10
177.1591835938
 20
1.6391329346
 10
177.3575703125
 20
2.572466217
 10
177.2117773438
 20
3.0391330261
 10
176.7217617188
 20
3.0391330261
 10
176.3775820313
 20
2.572466217
  0
LWPOLYLINE
  5
303
100
AcDbEntity
  8
0
100
AcDbPolyline
 62
2
  6
CONTINUOUS
 90
5
 70
0
 43
0.2
 10
178.04
 20
1.1724662094
 10
178.4367734375
 20
3.0391330261
 10
178.7283808594
 20
2.1057995758
 10
179.4167617188
 20
3.0391330261
 10
179.0200097656
 20
1.1724662094
  0
LWPOLYLINE
  5
304
100
AcDbEntity
  8
0
100
AcDbPolyline
 62
2
  6
CONTINUOUS
 90
8
 70
0
 43
0.2
 10
181.2775878906
 20
2.572466217
 10
181.1317734375
 20
3.0391330261
 10
180.6417792969
 20
3.0391330261
 10
180.297578125
 20
2.572466217
 10
180.0991914063
 20
1.6391329346
 10
180.2450058594
 20
1.1724662094
 10
180.735
 20
1.1724662094
 10
181.0792011719
 20
1.6391329346
  0
LWPOLYLINE
  5
305
100
AcDbEntity
  8
0
100
AcDbPolyline
 62
2
  6
CONTINUOUS
 90
3
 70
0
 43
0.2
 10
181.37678125
 20
3.0391330261
 10
181.0792011719
 20
1.6391329346
 10
181.1024902344
 20
1.1724662094
  0
LWPOLYLINE
  5
306
100
AcDbEntity
  8
0
100
AcDbPolyline
 62
2
  6
CONTINUOUS
 90
2
 70
0
 43
0.2
 10
181.9599960938
 20
1.1724662094
 10
182.3567695313
 20
3.0391330261
  0
LWPOLYLINE
  5
307
100
AcDbEntity
  8
0
100
AcDbPolyline
 62
2
  6
CONTINUOUS
 90
4
 70
0
 43
0.2
 10
182.2575761719
 20
2.572466217
 10
182.6017773438
 20
3.0391330261
 10
182.7475703125
 20
2.572466217
 10
182.4499902344
 20
1.1724662094
  0
LWPOLYLINE
  5
308
100
AcDbEntity
  8
0
100
AcDbPolyline
 62
2
  6
CONTINUOUS
 90
4
 70
0
 43
0.2
 10
182.7475703125
 20
2.572466217
 10
183.0917714844
 20
3.0391330261
 10
183.2375859375
 20
2.572466217
 10
182.9400058594
 20
1.1724662094
  0
LWPOLYLINE
  5
309
100
AcDbEntity
  8
0
100
AcDbPolyline
 62
2
  6
CONTINUOUS
 90
3
 70
0
 43
0.2
 10
185.8799921875
 20
1.1724662094
 10
186.9651679688
 20
3.9724663086
 10
186.8600019531
 20
1.1724662094
  0
LWPOLYLINE
  5
30A
100
AcDbEntity
  8
0
100
AcDbPolyline
 62
2
  6
CONTINUOUS
 90
2
 70
0
 43
0.2
 10
186.3233867188
 20
2.1057995758
 10
186.8133808594
 20
2.1057995758
  0
LWPOLYLINE
  5
30B
100
AcDbEntity
  8
0
100
AcDbPolyline
 62
2
  6
CONTINUOUS
 90
10
 70
0
 43
0.2
 10
109.5000097656
 20
6.1941487427
 10
110.3437441406
 20
6.1941487427
 10
110.8021347656
 20
7.0274819946
 10
110.9792519531
 20
7.8608152466
 10
110.8751386719
 20
8.6941484985
 10
111.3335292969
 20
9.5274817505
 10
111.5106464844
 20
10.3608150024
 10
111.4065332031
 20
11.1941482544
 10
110.5627773438
 20
11.1941482544
 10
109.5000097656
 20
6.1941487427
  0
LWPOLYLINE
  5
30C
100
AcDbEntity
  8
0
100
AcDbPolyline
 62
2
  6
CONTINUOUS
 90
2
 70
0
 43
0.2
 10
110.0313828125
 20
8.6941484985
 10
110.8751386719
 20
8.6941484985
  0
LWPOLYLINE
  5
30D
100
AcDbEntity
  8
0
100
AcDbPolyline
 62
2
  6
CONTINUOUS
 90
10
 70
0
 43
0.2
 10
112.6356542969
 20
10.3608150024
 10
113.0940234375
 20
11.1941482544
 10
113.6565273438
 20
11.1941482544
 10
113.7606621094
 20
10.3608150024
 10
113.4063847656
 20
8.6941484985
 10
112.948015625
 20
7.8608152466
 10
112.3855117188
 20
7.8608152466
 10
111.9271210938
 20
7.0274819946
 10
111.7500039063
 20
6.1941487427
 10
112.8749902344
 20
6.1941487427
  0
LWPOLYLINE
  5
30E
100
AcDbEntity
  8
0
100
AcDbPolyline
 62
2
  6
CONTINUOUS
 90
9
 70
0
 43
0.2
 10
114.28125
 20
6.1941487427
 10
114.1771367188
 20
7.0274819946
 10
114.8856484375
 20
10.3608150024
 10
115.3440390625
 20
11.1941482544
 10
115.9065429688
 20
11.1941482544
 10
116.01065625
 20
10.3608150024
 10
115.3021230469
 20
7.0274819946
 10
114.8437539063
 20
6.1941487427
 10
114.28125
 20
6.1941487427
  0
LWPOLYLINE
  5
30F
100
AcDbEntity
  8
0
100
AcDbPolyline
 62
2
  6
CONTINUOUS
 90
3
 70
0
 43
0.2
 10
118.5000078125
 20
6.1941487427
 10
119.5627753906
 20
11.1941482544
 10
120.6877832031
 20
11.1941482544
  0
LWPOLYLINE
  5
310
100
AcDbEntity
  8
0
100
AcDbPolyline
 62
2
  6
CONTINUOUS
 90
9
 70
0
 43
0.2
 10
121.0312539063
 20
6.1941487427
 10
120.927140625
 20
7.0274819946
 10
121.6356523438
 20
10.3608150024
 10
122.0940429688
 20
11.1941482544
 10
122.6565253906
 20
11.1941482544
 10
122.7606601563
 20
10.3608150024
 10
122.0521269531
 20
7.0274819946
 10
121.5937578125
 20
6.1941487427
 10
121.0312539063
 20
6.1941487427
  0
LWPOLYLINE
  5
311
100
AcDbEntity
  8
0
100
AcDbPolyline
 62
2
  6
CONTINUOUS
 90
8
 70
0
 43
0.2
 10
125.0106542969
 20
10.3608150024
 10
124.9065410156
 20
11.1941482544
 10
124.3440371094
 20
11.1941482544
 10
123.8856464844
 20
10.3608150024
 10
123.1771347656
 20
7.0274819946
 10
123.2812480469
 20
6.1941487427
 10
123.8437519531
 20
6.1941487427
 10
124.3021210938
 20
7.0274819946
  0
LWPOLYLINE
  5
312
100
AcDbEntity
  8
0
100
AcDbPolyline
 62
2
  6
CONTINUOUS
 90
2
 70
0
 43
0.2
 10
126.3127792969
 20
11.1941482544
 10
127.4377871094
 20
11.1941482544
  0
LWPOLYLINE
  5
313
100
AcDbEntity
  8
0
100
AcDbPolyline
 62
2
  6
CONTINUOUS
 90
2
 70
0
 43
0.2
 10
126.8752832031
 20
11.1941482544
 10
125.8124941406
 20
6.1941487427
  0
LWPOLYLINE
  5
314
100
AcDbEntity
  8
0
100
AcDbPolyline
 62
2
  6
CONTINUOUS
 90
9
 70
0
 43
0.2
 10
130.0312519531
 20
6.1941487427
 10
130.5937558594
 20
6.1941487427
 10
131.052125
 20
7.0274819946
 10
131.2292636719
 20
7.8608152466
 10
131.1251503906
 20
8.6941484985
 10
130.5626464844
 20
8.6941484985
 10
130.1042558594
 20
7.8608152466
 10
129.9271386719
 20
7.0274819946
 10
130.0312519531
 20
6.1941487427
  0
LWPOLYLINE
  5
315
100
AcDbEntity
  8
0
100
AcDbPolyline
 62
2
  6
CONTINUOUS
 90
8
 70
0
 43
0.2
 10
131.1251503906
 20
8.6941484985
 10
131.5835195313
 20
9.5274817505
 10
131.7606582031
 20
10.3608150024
 10
131.6565234375
 20
11.1941482544
 10
131.0940410156
 20
11.1941482544
 10
130.6356503906
 20
10.3608150024
 10
130.4585117188
 20
9.5274817505
 10
130.5626464844
 20
8.6941484985
  0
LWPOLYLINE
  5
316
100
AcDbEntity
  8
0
100
AcDbPolyline
 62
2
  6
CONTINUOUS
 90
4
 70
0
 43
0.2
 10
132.2812460938
 20
6.1941487427
 10
134.1877910156
 20
11.1941482544
 10
133.0627832031
 20
11.1941482544
 10
132.8856445313
 20
10.3608150024
  0
LWPOLYLINE
  5
317
100
AcDbEntity
  8
0
100
AcDbPolyline
 62
2
  6
CONTINUOUS
 90
9
 70
0
 43
0.2
 10
135.3127773438
 20
11.1941482544
 10
136.4377851563
 20
11.1941482544
 10
135.5210253906
 20
9.5274817505
 10
135.8022773438
 20
9.5274817505
 10
135.906390625
 20
8.6941484985
 10
135.5521347656
 20
7.0274819946
 10
135.0937441406
 20
6.1941487427
 10
134.5312402344
 20
6.1941487427
 10
134.4271269531
 20
7.0274819946
  0
LWPOLYLINE
  5
318
100
AcDbEntity
  8
0
100
AcDbPolyline
 62
2
  6
CONTINUOUS
 90
3
 70
0
 43
0.2
 10
137.91165625
 20
9.5274817505
 10
138.5471640625
 20
11.1941482544
 10
137.484375
 20
6.1941487427
  0
LWPOLYLINE
  5
319
100
AcDbEntity
  8
0
100
AcDbPolyline
 62
2
  6
CONTINUOUS
 90
2
 70
0
 43
0.2
 10
137.2031230469
 20
6.1941487427
 10
137.7656269531
 20
6.1941487427
  0
LWPOLYLINE
  5
31A
100
AcDbEntity
  8
0
100
AcDbPolyline
 62
2
  6
CONTINUOUS
 90
2
 70
0
 43
0.2
 10
139.8438964844
 20
8.6941484985
 10
140.9688828125
 20
8.6941484985
  0
LWPOLYLINE
  5
31B
100
AcDbEntity
  8
0
100
AcDbPolyline
 62
2
  6
CONTINUOUS
 90
4
 70
0
 43
0.2
 10
141.2812441406
 20
6.1941487427
 10
143.1877890625
 20
11.1941482544
 10
142.06278125
 20
11.1941482544
 10
141.8856425781
 20
10.3608150024
  0
LWPOLYLINE
  5
31C
100
AcDbEntity
  8
0
100
AcDbPolyline
 62
2
  6
CONTINUOUS
 90
4
 70
0
 43
0.2
 10
144.0937421875
 20
6.1941487427
 10
145.15653125
 20
11.1941482544
 10
143.427125
 20
7.0274819946
 10
144.5521328125
 20
7.0274819946
  0
LWPOLYLINE
  5
31D
100
AcDbEntity
  8
0
100
AcDbPolyline
 62
2
  6
CONTINUOUS
 90
2
 70
0
 43
0.2
 10
87.3127841797
 20
14.9441485596
 10
88.5627880859
 20
14.9441485596
  0
LWPOLYLINE
  5
31E
100
AcDbEntity
  8
0
100
AcDbPolyline
 62
2
  6
CONTINUOUS
 90
2
 70
0
 43
0.2
 10
87.9377861328
 20
14.9441485596
 10
86.8749970703
 20
9.9441483765
  0
LWPOLYLINE
  5
31F
100
AcDbEntity
  8
0
100
AcDbPolyline
 62
2
  6
CONTINUOUS
 90
2
 70
0
 43
0.2
 10
88.3957363281
 20
8.2774818726
 10
89.4585253906
 20
13.2774820557
  0
LWPOLYLINE
  5
320
100
AcDbEntity
  8
0
100
AcDbPolyline
 62
2
  6
CONTINUOUS
 90
7
 70
0
 43
0.2
 10
88.7500029297
 20
9.9441483765
 10
89.6874951172
 20
9.9441483765
 10
90.1771347656
 20
10.7774816284
 10
90.531390625
 20
12.4441488037
 10
90.3960175781
 20
13.2774820557
 10
89.7710263672
 20
13.2774820557
 10
89.2813867188
 20
12.4441488037
  0
LWPOLYLINE
  5
321
100
AcDbEntity
  8
0
100
AcDbPolyline
 62
2
  6
CONTINUOUS
 90
2
 70
0
 43
0.2
 10
91.9585224609
 20
13.2774820557
 10
91.8750019531
 20
9.9441483765
  0
LWPOLYLINE
  5
322
100
AcDbEntity
  8
0
100
AcDbPolyline
 62
2
  6
CONTINUOUS
 90
3
 70
0
 43
0.2
 10
90.8957441406
 20
8.2774818726
 10
91.208234375
 20
8.2774818726
 10
93.2085263672
 20
13.2774820557
  0
LWPOLYLINE
  5
323
100
AcDbEntity
  8
0
100
AcDbPolyline
 62
2
  6
CONTINUOUS
 90
10
 70
0
 43
0.2
 10
95.3960224609
 20
13.2774820557
 10
94.7710205078
 20
13.2774820557
 10
94.2813916016
 20
12.4441488037
 10
93.9271357422
 20
10.7774816284
 10
94.0624980469
 20
9.9441483765
 10
94.6875
 20
9.9441483765
 10
95.1771289063
 20
10.7774816284
 10
95.5313955078
 20
12.4441488037
 10
95.1252871094
 20
14.9441485596
 10
96.0627792969
 20
14.9441485596
  0
LWPOLYLINE
  5
324
100
AcDbEntity
  8
0
100
AcDbPolyline
 62
2
  6
CONTINUOUS
 90
8
 70
0
 43
0.2
 10
98.0313925781
 20
12.4441488037
 10
97.8960195313
 20
13.2774820557
 10
97.2710175781
 20
13.2774820557
 10
96.7813886719
 20
12.4441488037
 10
96.4271328125
 20
10.7774816284
 10
96.5624951172
 20
9.9441483765
 10
97.1874970703
 20
9.9441483765
 10
97.6771259766
 20
10.7774816284
  0
LWPOLYLINE
  5
325
100
AcDbEntity
  8
0
100
AcDbPolyline
 62
2
  6
CONTINUOUS
 90
3
 70
0
 43
0.2
 10
98.2085205078
 20
13.2774820557
 10
97.6771259766
 20
10.7774816284
 10
97.6562539063
 20
9.9441483765
  0
LWPOLYLINE
  5
326
100
AcDbEntity
  8
0
100
AcDbPolyline
 62
2
  6
CONTINUOUS
 90
6
 70
0
 43
0.2
 10
42.4699951172
 20
5.7875797729
 10
43.2237529297
 20
5.7875797729
 10
43.5936816406
 20
6.3459130249
 10
43.7123505859
 20
6.9042462769
 10
43.57978125
 20
7.4625795288
 10
42.8260341797
 20
7.4625795288
  0
LWPOLYLINE
  5
327
100
AcDbEntity
  8
0
100
AcDbPolyline
 62
2
  6
CONTINUOUS
 90
3
 70
0
 43
0.2
 10
42.4699951172
 20
5.7875797729
 10
43.1820625
 20
9.1375792847
 10
43.9358095703
 20
9.1375792847
  0
LWPOLYLINE
  5
328
100
AcDbEntity
  8
0
100
AcDbPolyline
 62
2
  6
CONTINUOUS
 90
2
 70
0
 43
0.2
 10
44.9547060547
 20
8.0209127808
 10
44.9824960938
 20
5.7875797729
  0
LWPOLYLINE
  5
329
100
AcDbEntity
  8
0
100
AcDbPolyline
 62
2
  6
CONTINUOUS
 90
3
 70
0
 43
0.2
 10
44.2426494141
 20
4.6709129333
 10
44.4938984375
 20
4.6709129333
 10
45.9597128906
 20
8.0209127808
  0
LWPOLYLINE
  5
32A
100
AcDbEntity
  8
0
100
AcDbPolyline
 62
2
  6
CONTINUOUS
 90
3
 70
0
 43
0.2
 10
46.4900009766
 20
5.7875797729
 10
47.4672070313
 20
8.0209127808
 10
47.4949970703
 20
5.7875797729
  0
LWPOLYLINE
  5
32B
100
AcDbEntity
  8
0
100
AcDbPolyline
 62
2
  6
CONTINUOUS
 90
2
 70
0
 43
0.2
 10
48.9747119141
 20
8.0209127808
 10
48.5000039063
 20
5.7875797729
  0
LWPOLYLINE
  5
32C
100
AcDbEntity
  8
0
100
AcDbPolyline
 62
2
  6
CONTINUOUS
 90
2
 70
0
 43
0.2
 10
48.6186728516
 20
6.3459130249
 10
49.9797080078
 20
8.0209127808
  0
LWPOLYLINE
  5
32D
100
AcDbEntity
  8
0
100
AcDbPolyline
 62
2
  6
CONTINUOUS
 90
2
 70
0
 43
0.2
 10
49.1142314453
 20
6.9042462769
 10
49.505
 20
5.7875797729
  0
LWPOLYLINE
  5
32E
100
AcDbEntity
  8
0
100
AcDbPolyline
 62
2
  6
CONTINUOUS
 90
5
 70
0
 43
0.2
 10
50.9847148438
 20
8.0209127808
 10
50.6286757813
 20
6.3459130249
 10
50.7612451172
 20
5.7875797729
 10
51.0125048828
 20
5.7875797729
 10
51.7523515625
 20
6.9042462769
  0
LWPOLYLINE
  5
32F
100
AcDbEntity
  8
0
100
AcDbPolyline
 62
2
  6
CONTINUOUS
 90
2
 70
0
 43
0.2
 10
51.9897109375
 20
8.0209127808
 10
51.5150029297
 20
5.7875797729
  0
LWPOLYLINE
  5
330
100
AcDbEntity
  8
0
100
AcDbPolyline
 62
2
  6
CONTINUOUS
 90
2
 70
0
 43
0.2
 10
52.5199990234
 20
5.7875797729
 10
52.9947070313
 20
8.0209127808
  0
LWPOLYLINE
  5
331
100
AcDbEntity
  8
0
100
AcDbPolyline
 62
2
  6
CONTINUOUS
 90
2
 70
0
 43
0.2
 10
52.7573583984
 20
6.9042462769
 10
53.7623544922
 20
6.9042462769
  0
LWPOLYLINE
  5
332
100
AcDbEntity
  8
0
100
AcDbPolyline
 62
2
  6
CONTINUOUS
 90
2
 70
0
 43
0.2
 10
53.9997138672
 20
8.0209127808
 10
53.5249951172
 20
5.7875797729
  0
LWPOLYLINE
  5
333
100
AcDbEntity
  8
0
100
AcDbPolyline
 62
2
  6
CONTINUOUS
 90
5
 70
0
 43
0.2
 10
24.5986796875
 20
6.3459130249
 10
24.7312490234
 20
5.7875797729
 10
25.2337470703
 20
5.7875797729
 10
25.6036757813
 20
6.3459130249
 10
26.1970634766
 20
9.1375792847
  0
LWPOLYLINE
  5
334
100
AcDbEntity
  8
0
100
AcDbPolyline
 62
2
  6
CONTINUOUS
 90
4
 70
0
 43
0.2
 10
25.1920673828
 20
9.1375792847
 10
24.9547080078
 20
8.0209127808
 10
25.0872773438
 20
7.4625795288
 10
25.8410351563
 20
7.4625795288
  0
LWPOLYLINE
  5
335
100
AcDbEntity
  8
0
100
AcDbPolyline
 62
2
  6
CONTINUOUS
 90
2
 70
0
 43
0.2
 10
26.4900029297
 20
5.7875797729
 10
26.9647109375
 20
8.0209127808
  0
LWPOLYLINE
  5
336
100
AcDbEntity
  8
0
100
AcDbPolyline
 62
2
  6
CONTINUOUS
 90
4
 70
0
 43
0.2
 10
26.84603125
 20
7.4625795288
 10
27.2159599609
 20
8.0209127808
 10
27.3485292969
 20
7.4625795288
 10
26.9925009766
 20
5.7875797729
  0
LWPOLYLINE
  5
337
100
AcDbEntity
  8
0
100
AcDbPolyline
 62
2
  6
CONTINUOUS
 90
4
 70
0
 43
0.2
 10
27.3485292969
 20
7.4625795288
 10
27.7184580078
 20
8.0209127808
 10
27.8510273438
 20
7.4625795288
 10
27.4949990234
 20
5.7875797729
  0
LWPOLYLINE
  5
338
100
AcDbEntity
  8
0
100
AcDbPolyline
 62
2
  6
CONTINUOUS
 90
12
 70
0
 43
0.2
 10
28.8560341797
 20
7.4625795288
 10
29.5958916016
 20
8.5792460327
 10
29.7145605469
 20
9.1375792847
 10
29.4633115234
 20
9.1375792847
 10
29.0933828125
 20
8.5792460327
 10
28.6186748047
 20
6.3459130249
 10
28.7512548828
 20
5.7875797729
 10
29.2537529297
 20
5.7875797729
 10
29.6236816406
 20
6.3459130249
 10
29.8610302734
 20
7.4625795288
 10
29.7284609375
 20
8.0209127808
 10
29.2259628906
 20
8.0209127808
  0
LWPOLYLINE
  5
339
100
AcDbEntity
  8
0
100
AcDbPolyline
 62
2
  6
CONTINUOUS
 90
5
 70
0
 43
0.2
 10
30.6356279297
 20
5.7875797729
 10
30.5099980469
 20
5.7875797729
 10
30.5693378906
 20
6.0667463989
 10
30.6949677734
 20
6.0667463989
 10
30.6356279297
 20
5.7875797729
  0
LWPOLYLINE
  5
33A
100
AcDbEntity
  8
0
100
AcDbPolyline
 62
2
  6
CONTINUOUS
 90
2
 70
0
 43
0.2
 10
20.4600048828
 20
10.7875792847
 10
21.1720615234
 20
14.1375794678
  0
LWPOLYLINE
  5
33B
100
AcDbEntity
  8
0
100
AcDbPolyline
 62
2
  6
CONTINUOUS
 90
2
 70
0
 43
0.2
 10
20.8160332031
 20
12.4625797119
 10
21.8210292969
 20
12.4625797119
  0
LWPOLYLINE
  5
33C
100
AcDbEntity
  8
0
100
AcDbPolyline
 62
2
  6
CONTINUOUS
 90
2
 70
0
 43
0.2
 10
22.1770683594
 20
14.1375794678
 10
21.4650009766
 20
10.7875792847
  0
LWPOLYLINE
  5
33D
100
AcDbEntity
  8
0
100
AcDbPolyline
 62
2
  6
CONTINUOUS
 90
5
 70
0
 43
0.2
 10
22.5956269531
 20
10.7875792847
 10
22.4699970703
 20
10.7875792847
 10
22.5293369141
 20
11.0667459106
 10
22.6549667969
 20
11.0667459106
 10
22.5956269531
 20
10.7875792847
  0
LWPOLYLINE
  5
33E
100
AcDbEntity
  8
0
100
AcDbPolyline
 62
2
  6
CONTINUOUS
 90
2
 70
0
 43
0.2
 10
24.9547080078
 20
13.0209129639
 10
24.48
 20
10.7875792847
  0
LWPOLYLINE
  5
33F
100
AcDbEntity
  8
0
100
AcDbPolyline
 62
2
  6
CONTINUOUS
 90
2
 70
0
 43
0.2
 10
24.5986796875
 20
11.345913208
 10
25.9597148438
 20
13.0209129639
  0
LWPOLYLINE
  5
340
100
AcDbEntity
  8
0
100
AcDbPolyline
 62
2
  6
CONTINUOUS
 90
2
 70
0
 43
0.2
 10
25.0942275391
 20
11.90424646
 10
25.4849960938
 20
10.7875792847
  0
LWPOLYLINE
  5
341
100
AcDbEntity
  8
0
100
AcDbPolyline
 62
2
  6
CONTINUOUS
 90
9
 70
0
 43
0.2
 10
26.6086826172
 20
11.345913208
 10
26.7412519531
 20
10.7875792847
 10
27.24375
 20
10.7875792847
 10
27.6136787109
 20
11.345913208
 10
27.8510273438
 20
12.4625797119
 10
27.7184580078
 20
13.0209129639
 10
27.2159599609
 20
13.0209129639
 10
26.84603125
 20
12.4625797119
 10
26.6086826172
 20
11.345913208
  0
LWPOLYLINE
  5
342
100
AcDbEntity
  8
0
100
AcDbPolyline
 62
2
  6
CONTINUOUS
 90
2
 70
0
 43
0.2
 10
28.4999951172
 20
10.7875792847
 10
28.9747138672
 20
13.0209129639
  0
LWPOLYLINE
  5
343
100
AcDbEntity
  8
0
100
AcDbPolyline
 62
2
  6
CONTINUOUS
 90
2
 70
0
 43
0.2
 10
28.7373544922
 20
11.90424646
 10
29.7423505859
 20
11.90424646
  0
LWPOLYLINE
  5
344
100
AcDbEntity
  8
0
100
AcDbPolyline
 62
2
  6
CONTINUOUS
 90
2
 70
0
 43
0.2
 10
29.9797099609
 20
13.0209129639
 10
29.5050019531
 20
10.7875792847
  0
LWPOLYLINE
  5
345
100
AcDbEntity
  8
0
100
AcDbPolyline
 62
2
  6
CONTINUOUS
 90
2
 70
0
 43
0.2
 10
30.5099980469
 20
10.7875792847
 10
30.9847060547
 20
13.0209129639
  0
LWPOLYLINE
  5
346
100
AcDbEntity
  8
0
100
AcDbPolyline
 62
2
  6
CONTINUOUS
 90
4
 70
0
 43
0.2
 10
30.8660371094
 20
12.4625797119
 10
31.2359550781
 20
13.0209129639
 10
31.3685351563
 20
12.4625797119
 10
31.0124960938
 20
10.7875792847
  0
LWPOLYLINE
  5
347
100
AcDbEntity
  8
0
100
AcDbPolyline
 62
2
  6
CONTINUOUS
 90
4
 70
0
 43
0.2
 10
31.3685351563
 20
12.4625797119
 10
31.7384638672
 20
13.0209129639
 10
31.8710332031
 20
12.4625797119
 10
31.5150048828
 20
10.7875792847
  0
LWPOLYLINE
  5
348
100
AcDbEntity
  8
0
100
AcDbPolyline
 62
2
  6
CONTINUOUS
 90
2
 70
0
 43
0.2
 10
32.2826416016
 20
9.6709127808
 10
32.9947089844
 20
13.0209129639
  0
LWPOLYLINE
  5
349
100
AcDbEntity
  8
0
100
AcDbPolyline
 62
2
  6
CONTINUOUS
 90
7
 70
0
 43
0.2
 10
32.5200009766
 20
10.7875792847
 10
33.2737480469
 20
10.7875792847
 10
33.6436767578
 20
11.345913208
 10
33.8810361328
 20
12.4625797119
 10
33.7484560547
 20
13.0209129639
 10
33.2459580078
 20
13.0209129639
 10
32.8760292969
 20
12.4625797119
  0
LWPOLYLINE
  5
34A
100
AcDbEntity
  8
0
100
AcDbPolyline
 62
2
  6
CONTINUOUS
 90
5
 70
0
 43
0.2
 10
34.6556230469
 20
10.7875792847
 10
34.5300039063
 20
10.7875792847
 10
34.58934375
 20
11.0667459106
 10
34.7149628906
 20
11.0667459106
 10
34.6556230469
 20
10.7875792847
  0
LWPOLYLINE
  5
34B
100
AcDbEntity
  8
0
100
AcDbPolyline
 62
2
  6
CONTINUOUS
 90
3
 70
0
 43
0.2
 10
106.4897695313
 20
17.0274816895
 10
107.1565371094
 20
18.6941481934
 10
106.0937480469
 20
13.6941486816
  0
LWPOLYLINE
  5
34C
100
AcDbEntity
  8
0
100
AcDbPolyline
 62
2
  6
CONTINUOUS
 90
2
 70
0
 43
0.2
 10
105.7812470703
 20
13.6941486816
 10
106.4062490234
 20
13.6941486816
  0
LWPOLYLINE
  5
34D
100
AcDbEntity
  8
0
100
AcDbPolyline
 62
2
  6
CONTINUOUS
 90
9
 70
0
 43
0.2
 10
107.8124980469
 20
13.6941486816
 10
107.6771357422
 20
14.5274819336
 10
108.3856474609
 20
17.8608149414
 10
108.8752871094
 20
18.6941481934
 10
109.5002890625
 20
18.6941481934
 10
109.6356621094
 20
17.8608149414
 10
108.9271289063
 20
14.5274819336
 10
108.4375
 20
13.6941486816
 10
107.8124980469
 20
13.6941486816
  0
LWPOLYLINE
  5
34E
100
AcDbEntity
  8
0
100
AcDbPolyline
 62
2
  6
CONTINUOUS
 90
10
 70
0
 43
0.2
 10
110.8856445313
 20
17.8608149414
 10
111.3752734375
 20
18.6941481934
 10
112.0002753906
 20
18.6941481934
 10
112.1356484375
 20
17.8608149414
 10
111.7813925781
 20
16.1941484375
 10
111.2917636719
 20
15.3608151855
 10
110.6667617188
 20
15.3608151855
 10
110.1771328125
 20
14.5274819336
 10
109.9999941406
 20
13.6941486816
 10
111.2499980469
 20
13.6941486816
  0
LWPOLYLINE
  5
34F
100
AcDbEntity
  8
0
100
AcDbPolyline
 62
2
  6
CONTINUOUS
 90
2
 70
0
 43
0.2
 10
112.5000019531
 20
13.6941486816
 10
114.4585175781
 20
17.0274816895
  0
LWPOLYLINE
  5
350
100
AcDbEntity
  8
0
100
AcDbPolyline
 62
2
  6
CONTINUOUS
 90
2
 70
0
 43
0.2
 10
113.2085136719
 20
17.0274816895
 10
113.7500058594
 20
13.6941486816
  0
LWPOLYLINE
  5
351
100
AcDbEntity
  8
0
100
AcDbPolyline
 62
2
  6
CONTINUOUS
 90
9
 70
0
 43
0.2
 10
116.0627773438
 20
18.6941481934
 10
117.31278125
 20
18.6941481934
 10
116.3335234375
 20
17.0274816895
 10
116.6460136719
 20
17.0274816895
 10
116.7813867188
 20
16.1941484375
 10
116.4271308594
 20
14.5274819336
 10
115.9375019531
 20
13.6941486816
 10
115.3125
 20
13.6941486816
 10
115.1771269531
 20
14.5274819336
  0
LWPOLYLINE
  5
352
100
AcDbEntity
  8
0
100
AcDbPolyline
 62
2
  6
CONTINUOUS
 90
3
 70
0
 43
0.2
 10
120.0000039063
 20
13.6941486816
 10
121.0627929688
 20
18.6941481934
 10
122.3127753906
 20
18.6941481934
  0
LWPOLYLINE
  5
353
100
AcDbEntity
  8
0
100
AcDbPolyline
 62
2
  6
CONTINUOUS
 90
9
 70
0
 43
0.2
 10
122.8125019531
 20
13.6941486816
 10
122.6771289063
 20
14.5274819336
 10
123.3856621094
 20
17.8608149414
 10
123.8752910156
 20
18.6941481934
 10
124.5002929688
 20
18.6941481934
 10
124.6356445313
 20
17.8608149414
 10
123.9271328125
 20
14.5274819336
 10
123.4375039063
 20
13.6941486816
 10
122.8125019531
 20
13.6941486816
  0
LWPOLYLINE
  5
354
100
AcDbEntity
  8
0
100
AcDbPolyline
 62
2
  6
CONTINUOUS
 90
8
 70
0
 43
0.2
 10
127.1356523438
 20
17.8608149414
 10
127.0002792969
 20
18.6941481934
 10
126.3752773438
 20
18.6941481934
 10
125.8856484375
 20
17.8608149414
 10
125.1771367188
 20
14.5274819336
 10
125.3125097656
 20
13.6941486816
 10
125.9374902344
 20
13.6941486816
 10
126.427140625
 20
14.5274819336
  0
LWPOLYLINE
  5
355
100
AcDbEntity
  8
0
100
AcDbPolyline
 62
2
  6
CONTINUOUS
 90
2
 70
0
 43
0.2
 10
128.5627734375
 20
18.6941481934
 10
129.8127773438
 20
18.6941481934
  0
LWPOLYLINE
  5
356
100
AcDbEntity
  8
0
100
AcDbPolyline
 62
2
  6
CONTINUOUS
 90
2
 70
0
 43
0.2
 10
129.1877753906
 20
18.6941481934
 10
128.1250078125
 20
13.6941486816
  0
LWPOLYLINE
  5
357
100
AcDbEntity
  8
0
100
AcDbPolyline
 62
2
  6
CONTINUOUS
 90
9
 70
0
 43
0.2
 10
132.8124902344
 20
13.6941486816
 10
133.4374921875
 20
13.6941486816
 10
133.9271210938
 20
14.5274819336
 10
134.1042597656
 20
15.3608151855
 10
133.9688867188
 20
16.1941484375
 10
133.3438847656
 20
16.1941484375
 10
132.8542558594
 20
15.3608151855
 10
132.6771386719
 20
14.5274819336
 10
132.8124902344
 20
13.6941486816
  0
LWPOLYLINE
  5
358
100
AcDbEntity
  8
0
100
AcDbPolyline
 62
2
  6
CONTINUOUS
 90
8
 70
0
 43
0.2
 10
133.9688867188
 20
16.1941484375
 10
134.458515625
 20
17.0274816895
 10
134.6356542969
 20
17.8608149414
 10
134.50028125
 20
18.6941481934
 10
133.8752792969
 20
18.6941481934
 10
133.3856503906
 20
17.8608149414
 10
133.2085117188
 20
17.0274816895
 10
133.3438847656
 20
16.1941484375
  0
LWPOLYLINE
  5
359
100
AcDbEntity
  8
0
100
AcDbPolyline
 62
2
  6
CONTINUOUS
 90
4
 70
0
 43
0.2
 10
135.3124980469
 20
13.6941486816
 10
137.3127792969
 20
18.6941481934
 10
136.0627753906
 20
18.6941481934
 10
135.8856582031
 20
17.8608149414
  0
LWPOLYLINE
  5
35A
100
AcDbEntity
  8
0
100
AcDbPolyline
 62
2
  6
CONTINUOUS
 90
9
 70
0
 43
0.2
 10
138.5627832031
 20
18.6941481934
 10
139.8127871094
 20
18.6941481934
 10
138.8335292969
 20
17.0274816895
 10
139.1460195313
 20
17.0274816895
 10
139.2813925781
 20
16.1941484375
 10
138.9271367188
 20
14.5274819336
 10
138.4375078125
 20
13.6941486816
 10
137.8125058594
 20
13.6941486816
 10
137.6771328125
 20
14.5274819336
  0
LWPOLYLINE
  5
35B
100
AcDbEntity
  8
0
100
AcDbPolyline
 62
2
  6
CONTINUOUS
 90
10
 70
0
 43
0.2
 10
140.8856523438
 20
17.8608149414
 10
141.37528125
 20
18.6941481934
 10
142.0002832031
 20
18.6941481934
 10
142.13565625
 20
17.8608149414
 10
141.7814003906
 20
16.1941484375
 10
141.2917714844
 20
15.3608151855
 10
140.6667695313
 20
15.3608151855
 10
140.177140625
 20
14.5274819336
 10
140.0000019531
 20
13.6941486816
 10
141.2500058594
 20
13.6941486816
  0
LWPOLYLINE
  5
35C
100
AcDbEntity
  8
0
100
AcDbPolyline
 62
2
  6
CONTINUOUS
 90
2
 70
0
 43
0.2
 10
143.6563847656
 20
16.1941484375
 10
144.9063886719
 20
16.1941484375
  0
LWPOLYLINE
  5
35D
100
AcDbEntity
  8
0
100
AcDbPolyline
 62
2
  6
CONTINUOUS
 90
4
 70
0
 43
0.2
 10
145.3125078125
 20
13.6941486816
 10
147.3127890625
 20
18.6941481934
 10
146.0627851563
 20
18.6941481934
 10
145.8856464844
 20
17.8608149414
  0
LWPOLYLINE
  5
35E
100
AcDbEntity
  8
0
100
AcDbPolyline
 62
2
  6
CONTINUOUS
 90
9
 70
0
 43
0.2
 10
147.8124941406
 20
13.6941486816
 10
148.4374960938
 20
13.6941486816
 10
148.927125
 20
14.5274819336
 10
149.1042636719
 20
15.3608151855
 10
148.968890625
 20
16.1941484375
 10
148.3438886719
 20
16.1941484375
 10
147.8542597656
 20
15.3608151855
 10
147.6771210938
 20
14.5274819336
 10
147.8124941406
 20
13.6941486816
  0
LWPOLYLINE
  5
35F
100
AcDbEntity
  8
0
100
AcDbPolyline
 62
2
  6
CONTINUOUS
 90
8
 70
0
 43
0.2
 10
148.968890625
 20
16.1941484375
 10
149.4585195313
 20
17.0274816895
 10
149.6356582031
 20
17.8608149414
 10
149.5002851563
 20
18.6941481934
 10
148.8752832031
 20
18.6941481934
 10
148.3856542969
 20
17.8608149414
 10
148.208515625
 20
17.0274816895
 10
148.3438886719
 20
16.1941484375
  0
LWPOLYLINE
  5
360
100
AcDbEntity
  8
0
100
AcDbPolyline
 62
2
  6
CONTINUOUS
 90
3
 70
0
 43
0.2
 10
181.9599960938
 20
20.7875789795
 10
183.1745722656
 20
24.137579834
 10
182.9649921875
 20
20.7875789795
  0
LWPOLYLINE
  5
361
100
AcDbEntity
  8
0
100
AcDbPolyline
 62
2
  6
CONTINUOUS
 90
5
 70
0
 43
0.2
 10
184.4447070313
 20
23.0209133301
 10
184.0886679688
 20
21.3459122314
 10
184.2212480469
 20
20.7875789795
 10
184.4725078125
 20
20.7875789795
 10
185.2123652344
 20
21.9042468262
  0
LWPOLYLINE
  5
362
100
AcDbEntity
  8
0
100
AcDbPolyline
 62
2
  6
CONTINUOUS
 90
2
 70
0
 43
0.2
 10
185.449703125
 20
23.0209133301
 10
184.9750058594
 20
20.7875789795
  0
LWPOLYLINE
  5
363
100
AcDbEntity
  8
0
100
AcDbPolyline
 62
2
  6
CONTINUOUS
 90
8
 70
0
 43
0.2
 10
187.3410371094
 20
22.4625800781
 10
187.2084570313
 20
23.0209133301
 10
186.7059589844
 20
23.0209133301
 10
186.3360410156
 20
22.4625800781
 10
186.0986816406
 20
21.3459122314
 10
186.2312402344
 20
20.7875789795
 10
186.7337597656
 20
20.7875789795
 10
187.1036777344
 20
21.3459122314
  0
LWPOLYLINE
  5
364
100
AcDbEntity
  8
0
100
AcDbPolyline
 62
2
  6
CONTINUOUS
 90
2
 70
0
 43
0.2
 10
187.9899941406
 20
20.7875789795
 10
188.4647128906
 20
23.0209133301
  0
LWPOLYLINE
  5
365
100
AcDbEntity
  8
0
100
AcDbPolyline
 62
2
  6
CONTINUOUS
 90
4
 70
0
 43
0.2
 10
188.3460332031
 20
22.4625800781
 10
188.7159511719
 20
23.0209133301
 10
188.84853125
 20
22.4625800781
 10
188.4924921875
 20
20.7875789795
  0
LWPOLYLINE
  5
366
100
AcDbEntity
  8
0
100
AcDbPolyline
 62
2
  6
CONTINUOUS
 90
4
 70
0
 43
0.2
 10
188.84853125
 20
22.4625800781
 10
189.2184492188
 20
23.0209133301
 10
189.3510292969
 20
22.4625800781
 10
188.9949902344
 20
20.7875789795
  0
LWPOLYLINE
  5
367
100
AcDbEntity
  8
0
100
AcDbPolyline
 62
2
  6
CONTINUOUS
 90
9
 70
0
 43
0.2
 10
190.1186875
 20
21.3459122314
 10
190.2512460938
 20
20.7875789795
 10
190.7537441406
 20
20.7875789795
 10
191.1236835938
 20
21.3459122314
 10
191.3610429688
 20
22.4625800781
 10
191.2284628906
 20
23.0209133301
 10
190.7259648438
 20
23.0209133301
 10
190.3560253906
 20
22.4625800781
 10
190.1186875
 20
21.3459122314
  0
LWPOLYLINE
  5
368
100
AcDbEntity
  8
0
100
AcDbPolyline
 62
2
  6
CONTINUOUS
 90
12
 70
0
 43
0.2
 10
192.3660390625
 20
22.4625800781
 10
193.1058964844
 20
23.579246582
 10
193.2245546875
 20
24.137579834
 10
192.9733164063
 20
24.137579834
 10
192.6033769531
 20
23.579246582
 10
192.1286796875
 20
21.3459122314
 10
192.2612597656
 20
20.7875789795
 10
192.7637578125
 20
20.7875789795
 10
193.1336757813
 20
21.3459122314
 10
193.3710351563
 20
22.4625800781
 10
193.2384550781
 20
23.0209133301
 10
192.7359570313
 20
23.0209133301
  0
LWPOLYLINE
  5
369
100
AcDbEntity
  8
0
100
AcDbPolyline
 62
2
  6
CONTINUOUS
 90
3
 70
0
 43
0.2
 10
197.1328417969
 20
23.0209133301
 10
197.6214394531
 20
24.137579834
 10
196.9093828125
 20
20.7875789795
  0
LWPOLYLINE
  5
36A
100
AcDbEntity
  8
0
100
AcDbPolyline
 62
2
  6
CONTINUOUS
 90
2
 70
0
 43
0.2
 10
196.6581230469
 20
20.7875789795
 10
197.1606210938
 20
20.7875789795
  0
LWPOLYLINE
  5
36B
100
AcDbEntity
  8
0
100
AcDbPolyline
 62
2
  6
CONTINUOUS
 90
3
 70
0
 43
0.2
 10
160.9800097656
 20
20.7875789795
 10
162.1945644531
 20
24.137579834
 10
161.9850058594
 20
20.7875789795
  0
LWPOLYLINE
  5
36C
100
AcDbEntity
  8
0
100
AcDbPolyline
 62
2
  6
CONTINUOUS
 90
5
 70
0
 43
0.2
 10
163.4646992188
 20
23.0209133301
 10
163.1086816406
 20
21.3459122314
 10
163.2412402344
 20
20.7875789795
 10
163.4925
 20
20.7875789795
 10
164.2323574219
 20
21.9042468262
  0
LWPOLYLINE
  5
36D
100
AcDbEntity
  8
0
100
AcDbPolyline
 62
2
  6
CONTINUOUS
 90
2
 70
0
 43
0.2
 10
164.4697167969
 20
23.0209133301
 10
163.9949980469
 20
20.7875789795
  0
LWPOLYLINE
  5
36E
100
AcDbEntity
  8
0
100
AcDbPolyline
 62
2
  6
CONTINUOUS
 90
8
 70
0
 43
0.2
 10
166.3610292969
 20
22.4625800781
 10
166.2284492188
 20
23.0209133301
 10
165.7259511719
 20
23.0209133301
 10
165.3560332031
 20
22.4625800781
 10
165.1186738281
 20
21.3459122314
 10
165.2512539063
 20
20.7875789795
 10
165.7537519531
 20
20.7875789795
 10
166.1236699219
 20
21.3459122314
  0
LWPOLYLINE
  5
36F
100
AcDbEntity
  8
0
100
AcDbPolyline
 62
2
  6
CONTINUOUS
 90
2
 70
0
 43
0.2
 10
167.0100078125
 20
20.7875789795
 10
167.4847050781
 20
23.0209133301
  0
LWPOLYLINE
  5
370
100
AcDbEntity
  8
0
100
AcDbPolyline
 62
2
  6
CONTINUOUS
 90
4
 70
0
 43
0.2
 10
167.3660253906
 20
22.4625800781
 10
167.7359648438
 20
23.0209133301
 10
167.8685234375
 20
22.4625800781
 10
167.5125058594
 20
20.7875789795
  0
LWPOLYLINE
  5
371
100
AcDbEntity
  8
0
100
AcDbPolyline
 62
2
  6
CONTINUOUS
 90
4
 70
0
 43
0.2
 10
167.8685234375
 20
22.4625800781
 10
168.2384628906
 20
23.0209133301
 10
168.3710429688
 20
22.4625800781
 10
168.0150039063
 20
20.7875789795
  0
LWPOLYLINE
  5
372
100
AcDbEntity
  8
0
100
AcDbPolyline
 62
2
  6
CONTINUOUS
 90
8
 70
0
 43
0.2
 10
112.0627734375
 20
34.4329782715
 10
111.8253496094
 20
35.432979248
 10
110.9253476563
 20
35.432979248
 10
110.2627910156
 20
34.4329782715
 10
109.412546875
 20
30.4329770508
 10
109.6499921875
 20
29.4329787598
 10
110.5499941406
 20
29.4329787598
 10
111.2125507813
 20
30.4329770508
  0
LWPOLYLINE
  5
373
100
AcDbEntity
  8
0
100
AcDbPolyline
 62
2
  6
CONTINUOUS
 90
2
 70
0
 43
0.2
 10
112.8000097656
 20
29.4329787598
 10
113.6502324219
 20
33.4329772949
  0
LWPOLYLINE
  5
374
100
AcDbEntity
  8
0
100
AcDbPolyline
 62
2
  6
CONTINUOUS
 90
4
 70
0
 43
0.2
 10
113.4376660156
 20
32.4329790039
 10
114.1002226563
 20
33.4329772949
 10
114.3376679688
 20
32.4329790039
 10
113.6999902344
 20
29.4329787598
  0
LWPOLYLINE
  5
375
100
AcDbEntity
  8
0
100
AcDbPolyline
 62
2
  6
CONTINUOUS
 90
4
 70
0
 43
0.2
 10
114.3376679688
 20
32.4329790039
 10
115.0002246094
 20
33.4329772949
 10
115.2376699219
 20
32.4329790039
 10
114.5999921875
 20
29.4329787598
  0
LWPOLYLINE
  5
376
100
AcDbEntity
  8
0
100
AcDbPolyline
 62
2
  6
CONTINUOUS
 90
9
 70
0
 43
0.2
 10
116.6125625
 20
30.4329770508
 10
116.8500078125
 20
29.4329787598
 10
117.7500097656
 20
29.4329787598
 10
118.4125664063
 20
30.4329770508
 10
118.8376777344
 20
32.4329790039
 10
118.6002324219
 20
33.4329772949
 10
117.7002304688
 20
33.4329772949
 10
117.0376738281
 20
32.4329790039
 10
116.6125625
 20
30.4329770508
  0
LWPOLYLINE
  5
377
100
AcDbEntity
  8
0
100
AcDbPolyline
 62
2
  6
CONTINUOUS
 90
5
 70
0
 43
0.2
 10
120.8502265625
 20
33.4329772949
 10
120.2125488281
 20
30.4329770508
 10
120.4499941406
 20
29.4329787598
 10
120.9000058594
 20
29.4329787598
 10
122.2251191406
 20
31.4329780273
  0
LWPOLYLINE
  5
378
100
AcDbEntity
  8
0
100
AcDbPolyline
 62
2
  6
CONTINUOUS
 90
2
 70
0
 43
0.2
 10
122.6502304688
 20
33.4329772949
 10
121.8000078125
 20
29.4329787598
  0
LWPOLYLINE
  5
379
100
AcDbEntity
  8
0
100
AcDbPolyline
 62
2
  6
CONTINUOUS
 90
2
 70
0
 43
0.2
 10
121.3002167969
 20
33.4329772949
 10
122.20021875
 20
33.4329772949
  0
LWPOLYLINE
  5
37A
100
AcDbEntity
  8
0
100
AcDbPolyline
 62
2
  6
CONTINUOUS
 90
2
 70
0
 43
0.2
 10
124.450234375
 20
33.4329772949
 10
123.5999902344
 20
29.4329787598
  0
LWPOLYLINE
  5
37B
100
AcDbEntity
  8
0
100
AcDbPolyline
 62
2
  6
CONTINUOUS
 90
2
 70
0
 43
0.2
 10
123.8125566406
 20
30.4329770508
 10
126.2502167969
 20
33.4329772949
  0
LWPOLYLINE
  5
37C
100
AcDbEntity
  8
0
100
AcDbPolyline
 62
2
  6
CONTINUOUS
 90
2
 70
0
 43
0.2
 10
124.7001191406
 20
31.4329780273
 10
125.3999941406
 20
29.4329787598
  0
LWPOLYLINE
  5
37D
100
AcDbEntity
  8
0
100
AcDbPolyline
 62
2
  6
CONTINUOUS
 90
8
 70
0
 43
0.2
 10
129.6376796875
 20
32.4329790039
 10
129.400234375
 20
33.4329772949
 10
128.5002324219
 20
33.4329772949
 10
127.8376757813
 20
32.4329790039
 10
127.4125644531
 20
30.4329770508
 10
127.6500097656
 20
29.4329787598
 10
128.5499902344
 20
29.4329787598
 10
129.212546875
 20
30.4329770508
  0
LWPOLYLINE
  5
37E
100
AcDbEntity
  8
0
100
AcDbPolyline
 62
2
  6
CONTINUOUS
 90
3
 70
0
 43
0.2
 10
129.8502246094
 20
33.4329772949
 10
129.212546875
 20
30.4329770508
 10
129.2250078125
 20
29.4329787598
  0
LWPOLYLINE
  5
37F
100
AcDbEntity
  8
0
100
AcDbPolyline
 62
2
  6
CONTINUOUS
 90
2
 70
0
 43
0.2
 10
21.1720615234
 20
24.137579834
 10
22.1770683594
 20
24.137579834
  0
LWPOLYLINE
  5
380
100
AcDbEntity
  8
0
100
AcDbPolyline
 62
2
  6
CONTINUOUS
 90
2
 70
0
 43
0.2
 10
21.6745595703
 20
24.137579834
 10
20.9625029297
 20
20.7875789795
  0
LWPOLYLINE
  5
381
100
AcDbEntity
  8
0
100
AcDbPolyline
 62
2
  6
CONTINUOUS
 90
5
 70
0
 43
0.2
 10
22.5956269531
 20
20.7875789795
 10
22.4699970703
 20
20.7875789795
 10
22.5293369141
 20
21.0667456055
 10
22.6549667969
 20
21.0667456055
 10
22.5956269531
 20
20.7875789795
  0
LWPOLYLINE
  5
382
100
AcDbEntity
  8
0
100
AcDbPolyline
 62
2
  6
CONTINUOUS
 90
2
 70
0
 43
0.2
 10
24.9547080078
 20
23.0209133301
 10
24.48
 20
20.7875789795
  0
LWPOLYLINE
  5
383
100
AcDbEntity
  8
0
100
AcDbPolyline
 62
2
  6
CONTINUOUS
 90
2
 70
0
 43
0.2
 10
24.5986796875
 20
21.3459122314
 10
25.9597148438
 20
23.0209133301
  0
LWPOLYLINE
  5
384
100
AcDbEntity
  8
0
100
AcDbPolyline
 62
2
  6
CONTINUOUS
 90
2
 70
0
 43
0.2
 10
25.0942275391
 20
21.9042468262
 10
25.4849960938
 20
20.7875789795
  0
LWPOLYLINE
  5
385
100
AcDbEntity
  8
0
100
AcDbPolyline
 62
2
  6
CONTINUOUS
 90
9
 70
0
 43
0.2
 10
26.6086826172
 20
21.3459122314
 10
26.7412519531
 20
20.7875789795
 10
27.24375
 20
20.7875789795
 10
27.6136787109
 20
21.3459122314
 10
27.8510273438
 20
22.4625800781
 10
27.7184580078
 20
23.0209133301
 10
27.2159599609
 20
23.0209133301
 10
26.84603125
 20
22.4625800781
 10
26.6086826172
 20
21.3459122314
  0
LWPOLYLINE
  5
386
100
AcDbEntity
  8
0
100
AcDbPolyline
 62
2
  6
CONTINUOUS
 90
2
 70
0
 43
0.2
 10
28.4999951172
 20
20.7875789795
 10
28.9747138672
 20
23.0209133301
  0
LWPOLYLINE
  5
387
100
AcDbEntity
  8
0
100
AcDbPolyline
 62
2
  6
CONTINUOUS
 90
2
 70
0
 43
0.2
 10
28.7373544922
 20
21.9042468262
 10
29.7423505859
 20
21.9042468262
  0
LWPOLYLINE
  5
388
100
AcDbEntity
  8
0
100
AcDbPolyline
 62
2
  6
CONTINUOUS
 90
2
 70
0
 43
0.2
 10
29.9797099609
 20
23.0209133301
 10
29.5050019531
 20
20.7875789795
  0
LWPOLYLINE
  5
389
100
AcDbEntity
  8
0
100
AcDbPolyline
 62
2
  6
CONTINUOUS
 90
2
 70
0
 43
0.2
 10
30.5099980469
 20
20.7875789795
 10
30.9847060547
 20
23.0209133301
  0
LWPOLYLINE
  5
38A
100
AcDbEntity
  8
0
100
AcDbPolyline
 62
2
  6
CONTINUOUS
 90
4
 70
0
 43
0.2
 10
30.8660371094
 20
22.4625800781
 10
31.2359550781
 20
23.0209133301
 10
31.3685351563
 20
22.4625800781
 10
31.0124960938
 20
20.7875789795
  0
LWPOLYLINE
  5
38B
100
AcDbEntity
  8
0
100
AcDbPolyline
 62
2
  6
CONTINUOUS
 90
4
 70
0
 43
0.2
 10
31.3685351563
 20
22.4625800781
 10
31.7384638672
 20
23.0209133301
 10
31.8710332031
 20
22.4625800781
 10
31.5150048828
 20
20.7875789795
  0
LWPOLYLINE
  5
38C
100
AcDbEntity
  8
0
100
AcDbPolyline
 62
2
  6
CONTINUOUS
 90
2
 70
0
 43
0.2
 10
32.2826416016
 20
19.6709124756
 10
32.9947089844
 20
23.0209133301
  0
LWPOLYLINE
  5
38D
100
AcDbEntity
  8
0
100
AcDbPolyline
 62
2
  6
CONTINUOUS
 90
7
 70
0
 43
0.2
 10
32.5200009766
 20
20.7875789795
 10
33.2737480469
 20
20.7875789795
 10
33.6436767578
 20
21.3459122314
 10
33.8810361328
 20
22.4625800781
 10
33.7484560547
 20
23.0209133301
 10
33.2459580078
 20
23.0209133301
 10
32.8760292969
 20
22.4625800781
  0
LWPOLYLINE
  5
38E
100
AcDbEntity
  8
0
100
AcDbPolyline
 62
2
  6
CONTINUOUS
 90
5
 70
0
 43
0.2
 10
34.6556230469
 20
20.7875789795
 10
34.5300039063
 20
20.7875789795
 10
34.58934375
 20
21.0667456055
 10
34.7149628906
 20
21.0667456055
 10
34.6556230469
 20
20.7875789795
  0
LWPOLYLINE
  5
38F
100
AcDbEntity
  8
0
100
AcDbPolyline
 62
2
  6
CONTINUOUS
 90
3
 70
0
 43
0.2
 10
192.0044355469
 20
33.5884758301
 10
193.0253945313
 20
35.9218078613
 10
191.5374941406
 20
28.921809082
  0
LWPOLYLINE
  5
390
100
AcDbEntity
  8
0
100
AcDbPolyline
 62
2
  6
CONTINUOUS
 90
2
 70
0
 43
0.2
 10
191.0125019531
 20
28.921809082
 10
192.0625078125
 20
28.921809082
  0
LWPOLYLINE
  5
391
100
AcDbEntity
  8
0
100
AcDbPolyline
 62
2
  6
CONTINUOUS
 90
5
 70
0
 43
0.2
 10
195.0304453125
 20
33.0051401367
 10
194.7679492188
 20
33.0051401367
 10
194.8919355469
 20
33.5884758301
 10
195.1544316406
 20
33.5884758301
 10
195.0304453125
 20
33.0051401367
  0
LWPOLYLINE
  5
392
100
AcDbEntity
  8
0
100
AcDbPolyline
 62
2
  6
CONTINUOUS
 90
5
 70
0
 43
0.2
 10
194.1624980469
 20
28.921809082
 10
193.9000019531
 20
28.921809082
 10
194.0239882813
 20
29.5051420898
 10
194.286484375
 20
29.5051420898
 10
194.1624980469
 20
28.921809082
  0
LWPOLYLINE
  5
393
100
AcDbEntity
  8
0
100
AcDbPolyline
 62
2
  6
CONTINUOUS
 90
10
 70
0
 43
0.2
 10
199.3399101563
 20
34.7551418457
 10
200.1128964844
 20
35.9218078613
 10
201.1629023438
 20
35.9218078613
 10
201.439921875
 20
34.7551418457
 10
200.9439550781
 20
32.4218071289
 10
200.17096875
 20
31.2551411133
 10
199.1209628906
 20
31.2551411133
 10
198.3479765625
 20
30.0884750977
 10
198.1000039063
 20
28.921809082
 10
200.1999941406
 20
28.921809082
  0
LWPOLYLINE
  5
394
100
AcDbEntity
  8
0
100
AcDbPolyline
 62
2
  6
CONTINUOUS
 90
4
 70
0
 43
0.2
 10
173.8124980469
 20
29.9441484375
 10
175.8127792969
 20
34.9441479492
 10
174.5627753906
 20
34.9441479492
 10
174.3856582031
 20
34.1108146973
  0
LWPOLYLINE
  5
395
100
AcDbEntity
  8
0
100
AcDbPolyline
 62
2
  6
CONTINUOUS
 90
6
 70
0
 43
0.2
 10
176.15625
 20
29.9441484375
 10
175.9999941406
 20
29.9441484375
 10
176.0885742188
 20
30.3608164063
 10
176.2448085938
 20
30.3608164063
 10
176.15625
 20
29.9441484375
 10
175.8228769531
 20
29.1108151855
  0
LWPOLYLINE
  5
396
100
AcDbEntity
  8
0
100
AcDbPolyline
 62
2
  6
CONTINUOUS
 90
9
 70
0
 43
0.2
 10
179.5627910156
 20
34.9441479492
 10
180.8127734375
 20
34.9441479492
 10
179.833515625
 20
33.2774814453
 10
180.1460273438
 20
33.2774814453
 10
180.2814003906
 20
32.4441481934
 10
179.9271230469
 20
30.7774816895
 10
179.4374941406
 20
29.9441484375
 10
178.8124921875
 20
29.9441484375
 10
178.677140625
 20
30.7774816895
  0
LWPOLYLINE
  5
397
100
AcDbEntity
  8
0
100
AcDbPolyline
 62
2
  6
CONTINUOUS
 90
9
 70
0
 43
0.2
 10
181.3125
 20
29.9441484375
 10
181.1771269531
 20
30.7774816895
 10
181.8856601563
 20
34.1108146973
 10
182.3752890625
 20
34.9441479492
 10
183.0002910156
 20
34.9441479492
 10
183.1356425781
 20
34.1108146973
 10
182.4271308594
 20
30.7774816895
 10
181.9375019531
 20
29.9441484375
 10
181.3125
 20
29.9441484375
  0
LWPOLYLINE
  5
398
100
AcDbEntity
  8
0
100
AcDbPolyline
 62
2
  6
CONTINUOUS
 90
6
 70
0
 43
0.2
 10
42.4699951172
 20
25.787579834
 10
43.2237529297
 20
25.787579834
 10
43.5936816406
 20
26.3459130859
 10
43.7123505859
 20
26.9042463379
 10
43.57978125
 20
27.4625795898
 10
42.8260341797
 20
27.4625795898
  0
LWPOLYLINE
  5
399
100
AcDbEntity
  8
0
100
AcDbPolyline
 62
2
  6
CONTINUOUS
 90
3
 70
0
 43
0.2
 10
42.4699951172
 20
25.787579834
 10
43.1820625
 20
29.1375793457
 10
43.9358095703
 20
29.1375793457
  0
LWPOLYLINE
  5
39A
100
AcDbEntity
  8
0
100
AcDbPolyline
 62
2
  6
CONTINUOUS
 90
2
 70
0
 43
0.2
 10
44.9547060547
 20
28.0209128418
 10
44.9824960938
 20
25.787579834
  0
LWPOLYLINE
  5
39B
100
AcDbEntity
  8
0
100
AcDbPolyline
 62
2
  6
CONTINUOUS
 90
3
 70
0
 43
0.2
 10
44.2426494141
 20
24.6709133301
 10
44.4938984375
 20
24.6709133301
 10
45.9597128906
 20
28.0209128418
  0
LWPOLYLINE
  5
39C
100
AcDbEntity
  8
0
100
AcDbPolyline
 62
2
  6
CONTINUOUS
 90
3
 70
0
 43
0.2
 10
46.4900009766
 20
25.787579834
 10
47.4672070313
 20
28.0209128418
 10
47.4949970703
 20
25.787579834
  0
LWPOLYLINE
  5
39D
100
AcDbEntity
  8
0
100
AcDbPolyline
 62
2
  6
CONTINUOUS
 90
2
 70
0
 43
0.2
 10
48.9747119141
 20
28.0209128418
 10
48.5000039063
 20
25.787579834
  0
LWPOLYLINE
  5
39E
100
AcDbEntity
  8
0
100
AcDbPolyline
 62
2
  6
CONTINUOUS
 90
2
 70
0
 43
0.2
 10
48.6186728516
 20
26.3459130859
 10
49.9797080078
 20
28.0209128418
  0
LWPOLYLINE
  5
39F
100
AcDbEntity
  8
0
100
AcDbPolyline
 62
2
  6
CONTINUOUS
 90
2
 70
0
 43
0.2
 10
49.1142314453
 20
26.9042463379
 10
49.505
 20
25.787579834
  0
LWPOLYLINE
  5
3A0
100
AcDbEntity
  8
0
100
AcDbPolyline
 62
2
  6
CONTINUOUS
 90
5
 70
0
 43
0.2
 10
50.9847148438
 20
28.0209128418
 10
50.6286757813
 20
26.3459130859
 10
50.7612451172
 20
25.787579834
 10
51.0125048828
 20
25.787579834
 10
51.7523515625
 20
26.9042463379
  0
LWPOLYLINE
  5
3A1
100
AcDbEntity
  8
0
100
AcDbPolyline
 62
2
  6
CONTINUOUS
 90
2
 70
0
 43
0.2
 10
51.9897109375
 20
28.0209128418
 10
51.5150029297
 20
25.787579834
  0
LWPOLYLINE
  5
3A2
100
AcDbEntity
  8
0
100
AcDbPolyline
 62
2
  6
CONTINUOUS
 90
2
 70
0
 43
0.2
 10
52.5199990234
 20
25.787579834
 10
52.9947070313
 20
28.0209128418
  0
LWPOLYLINE
  5
3A3
100
AcDbEntity
  8
0
100
AcDbPolyline
 62
2
  6
CONTINUOUS
 90
2
 70
0
 43
0.2
 10
52.7573583984
 20
26.9042463379
 10
53.7623544922
 20
26.9042463379
  0
LWPOLYLINE
  5
3A4
100
AcDbEntity
  8
0
100
AcDbPolyline
 62
2
  6
CONTINUOUS
 90
2
 70
0
 43
0.2
 10
53.9997138672
 20
28.0209128418
 10
53.5249951172
 20
25.787579834
  0
LWPOLYLINE
  5
3A5
100
AcDbEntity
  8
0
100
AcDbPolyline
 62
2
  6
CONTINUOUS
 90
4
 70
0
 43
0.2
 10
23.4750039063
 20
25.787579834
 10
24.1870605469
 20
29.1375793457
 10
25.1920673828
 20
29.1375793457
 10
24.48
 20
25.787579834
  0
LWPOLYLINE
  5
3A6
100
AcDbEntity
  8
0
100
AcDbPolyline
 62
2
  6
CONTINUOUS
 90
2
 70
0
 43
0.2
 10
25.2476474609
 20
24.6709133301
 10
25.9597148438
 20
28.0209128418
  0
LWPOLYLINE
  5
3A7
100
AcDbEntity
  8
0
100
AcDbPolyline
 62
2
  6
CONTINUOUS
 90
7
 70
0
 43
0.2
 10
25.4849960938
 20
25.787579834
 10
26.2387539063
 20
25.787579834
 10
26.6086826172
 20
26.3459130859
 10
26.84603125
 20
27.4625795898
 10
26.7134619141
 20
28.0209128418
 10
26.2109638672
 20
28.0209128418
 10
25.8410351563
 20
27.4625795898
  0
LWPOLYLINE
  5
3A8
100
AcDbEntity
  8
0
100
AcDbPolyline
 62
2
  6
CONTINUOUS
 90
9
 70
0
 43
0.2
 10
27.6136787109
 20
26.3459130859
 10
27.7462480469
 20
25.787579834
 10
28.2487460938
 20
25.787579834
 10
28.6186748047
 20
26.3459130859
 10
28.8560341797
 20
27.4625795898
 10
28.7234648438
 20
28.0209128418
 10
28.2209560547
 20
28.0209128418
 10
27.8510273438
 20
27.4625795898
 10
27.6136787109
 20
26.3459130859
  0
LWPOLYLINE
  5
3A9
100
AcDbEntity
  8
0
100
AcDbPolyline
 62
2
  6
CONTINUOUS
 90
12
 70
0
 43
0.2
 10
29.8610302734
 20
27.4625795898
 10
30.6008876953
 20
28.5792460938
 10
30.7195673828
 20
29.1375793457
 10
30.4683183594
 20
29.1375793457
 10
30.0983896484
 20
28.5792460938
 10
29.6236816406
 20
26.3459130859
 10
29.7562509766
 20
25.787579834
 10
30.2587490234
 20
25.787579834
 10
30.6286777344
 20
26.3459130859
 10
30.8660371094
 20
27.4625795898
 10
30.7334570313
 20
28.0209128418
 10
30.2309589844
 20
28.0209128418
  0
LWPOLYLINE
  5
3AA
100
AcDbEntity
  8
0
100
AcDbPolyline
 62
2
  6
CONTINUOUS
 90
5
 70
0
 43
0.2
 10
31.6406240234
 20
25.787579834
 10
31.5150048828
 20
25.787579834
 10
31.5743339844
 20
26.0667451172
 10
31.6999638672
 20
26.0667451172
 10
31.6406240234
 20
25.787579834
  0
LWPOLYLINE
  5
3AB
100
AcDbEntity
  8
0
100
AcDbPolyline
 62
2
  6
CONTINUOUS
 90
10
 70
0
 43
0.2
 10
76.3824042969
 20
33.2409741211
 10
76.607625
 20
33.624309082
 10
76.8951289063
 20
33.624309082
 10
76.9574013672
 20
33.2409741211
 10
76.7944423828
 20
32.4743095703
 10
76.5692109375
 20
32.0909746094
 10
76.2817070313
 20
32.0909746094
 10
76.0564755859
 20
31.707642334
 10
75.9749960938
 20
31.324307373
 10
76.5500039063
 20
31.324307373
  0
LWPOLYLINE
  5
3AC
100
AcDbEntity
  8
0
100
AcDbPolyline
 62
2
  6
CONTINUOUS
 90
4
 70
0
 43
0.2
 10
77.5562460938
 20
31.324307373
 10
78.0451337891
 20
33.624309082
 10
77.2064804688
 20
31.707642334
 10
77.7814775391
 20
31.707642334
  0
LWPOLYLINE
  5
3AD
100
AcDbEntity
  8
0
100
AcDbPolyline
 62
2
  6
CONTINUOUS
 90
5
 70
0
 43
0.2
 10
78.3468710938
 20
31.324307373
 10
78.2749951172
 20
31.324307373
 10
78.3157402344
 20
31.5159748535
 10
78.3876162109
 20
31.5159748535
 10
78.3468710938
 20
31.324307373
  0
LWPOLYLINE
  5
3AE
100
AcDbEntity
  8
0
100
AcDbPolyline
 62
2
  6
CONTINUOUS
 90
3
 70
0
 43
0.2
 10
80.1102978516
 20
32.8576418457
 10
80.4170087891
 20
33.624309082
 10
79.9281210938
 20
31.324307373
  0
LWPOLYLINE
  5
3AF
100
AcDbEntity
  8
0
100
AcDbPolyline
 62
2
  6
CONTINUOUS
 90
2
 70
0
 43
0.2
 10
79.7843798828
 20
31.324307373
 10
80.0718730469
 20
31.324307373
  0
LWPOLYLINE
  5
3B0
100
AcDbEntity
  8
0
100
AcDbPolyline
 62
2
  6
CONTINUOUS
 90
5
 70
0
 43
0.2
 10
80.6468701172
 20
31.324307373
 10
80.5750048828
 20
31.324307373
 10
80.6157392578
 20
31.5159748535
 10
80.6876152344
 20
31.5159748535
 10
80.6468701172
 20
31.324307373
  0
LWPOLYLINE
  5
3B1
100
AcDbEntity
  8
0
100
AcDbPolyline
 62
2
  6
CONTINUOUS
 90
9
 70
0
 43
0.2
 10
81.8687509766
 20
31.324307373
 10
81.8064785156
 20
31.707642334
 10
82.1323964844
 20
33.2409741211
 10
82.3576279297
 20
33.624309082
 10
82.6451318359
 20
33.624309082
 10
82.7074042969
 20
33.2409741211
 10
82.3814755859
 20
31.707642334
 10
82.1562548828
 20
31.324307373
 10
81.8687509766
 20
31.324307373
  0
LWPOLYLINE
  5
3B2
100
AcDbEntity
  8
0
100
AcDbPolyline
 62
2
  6
CONTINUOUS
 90
4
 70
0
 43
0.2
 10
83.0187451172
 20
31.324307373
 10
83.9388779297
 20
33.624309082
 10
83.3638808594
 20
33.624309082
 10
83.2824013672
 20
33.2409741211
  0
LWPOLYLINE
  5
3B3
100
AcDbEntity
  8
0
100
AcDbPolyline
 62
2
  6
CONTINUOUS
 90
6
 70
0
 43
0.2
 10
39.4549960938
 20
30.7875793457
 10
40.2087539063
 20
30.7875793457
 10
40.5786826172
 20
31.3459125977
 10
40.6973515625
 20
31.9042458496
 10
40.5647822266
 20
32.4625791016
 10
39.8110351563
 20
32.4625791016
  0
LWPOLYLINE
  5
3B4
100
AcDbEntity
  8
0
100
AcDbPolyline
 62
2
  6
CONTINUOUS
 90
3
 70
0
 43
0.2
 10
39.4549960938
 20
30.7875793457
 10
40.1670634766
 20
34.1375788574
 10
40.9208105469
 20
34.1375788574
  0
LWPOLYLINE
  5
3B5
100
AcDbEntity
  8
0
100
AcDbPolyline
 62
2
  6
CONTINUOUS
 90
2
 70
0
 43
0.2
 10
41.9397070313
 20
33.0209123535
 10
41.9674970703
 20
30.7875793457
  0
LWPOLYLINE
  5
3B6
100
AcDbEntity
  8
0
100
AcDbPolyline
 62
2
  6
CONTINUOUS
 90
3
 70
0
 43
0.2
 10
41.2276503906
 20
29.6709128418
 10
41.4788994141
 20
29.6709128418
 10
42.9447138672
 20
33.0209123535
  0
LWPOLYLINE
  5
3B7
100
AcDbEntity
  8
0
100
AcDbPolyline
 62
2
  6
CONTINUOUS
 90
3
 70
0
 43
0.2
 10
43.4750019531
 20
30.7875793457
 10
44.4522080078
 20
33.0209123535
 10
44.4799980469
 20
30.7875793457
  0
LWPOLYLINE
  5
3B8
100
AcDbEntity
  8
0
100
AcDbPolyline
 62
2
  6
CONTINUOUS
 90
2
 70
0
 43
0.2
 10
45.9597128906
 20
33.0209123535
 10
45.4850048828
 20
30.7875793457
  0
LWPOLYLINE
  5
3B9
100
AcDbEntity
  8
0
100
AcDbPolyline
 62
2
  6
CONTINUOUS
 90
2
 70
0
 43
0.2
 10
45.6036738281
 20
31.3459125977
 10
46.9647089844
 20
33.0209123535
  0
LWPOLYLINE
  5
3BA
100
AcDbEntity
  8
0
100
AcDbPolyline
 62
2
  6
CONTINUOUS
 90
2
 70
0
 43
0.2
 10
46.0992324219
 20
31.9042458496
 10
46.4900009766
 20
30.7875793457
  0
LWPOLYLINE
  5
3BB
100
AcDbEntity
  8
0
100
AcDbPolyline
 62
2
  6
CONTINUOUS
 90
5
 70
0
 43
0.2
 10
47.9697050781
 20
33.0209123535
 10
47.6136767578
 20
31.3459125977
 10
47.7462460938
 20
30.7875793457
 10
47.9974951172
 20
30.7875793457
 10
48.7373525391
 20
31.9042458496
  0
LWPOLYLINE
  5
3BC
100
AcDbEntity
  8
0
100
AcDbPolyline
 62
2
  6
CONTINUOUS
 90
2
 70
0
 43
0.2
 10
48.9747119141
 20
33.0209123535
 10
48.5000039063
 20
30.7875793457
  0
LWPOLYLINE
  5
3BD
100
AcDbEntity
  8
0
100
AcDbPolyline
 62
2
  6
CONTINUOUS
 90
2
 70
0
 43
0.2
 10
49.505
 20
30.7875793457
 10
49.9797080078
 20
33.0209123535
  0
LWPOLYLINE
  5
3BE
100
AcDbEntity
  8
0
100
AcDbPolyline
 62
2
  6
CONTINUOUS
 90
2
 70
0
 43
0.2
 10
49.742359375
 20
31.9042458496
 10
50.7473554688
 20
31.9042458496
  0
LWPOLYLINE
  5
3BF
100
AcDbEntity
  8
0
100
AcDbPolyline
 62
2
  6
CONTINUOUS
 90
2
 70
0
 43
0.2
 10
50.9847148438
 20
33.0209123535
 10
50.5099960938
 20
30.7875793457
  0
LWPOLYLINE
  5
3C0
100
AcDbEntity
  8
0
100
AcDbPolyline
 62
2
  6
CONTINUOUS
 90
3
 70
0
 43
0.2
 10
53.5249951172
 20
30.7875793457
 10
54.7395605469
 20
34.1375788574
 10
54.5300019531
 20
30.7875793457
  0
LWPOLYLINE
  5
3C1
100
AcDbEntity
  8
0
100
AcDbPolyline
 62
2
  6
CONTINUOUS
 90
2
 70
0
 43
0.2
 10
54.0136035156
 20
31.9042458496
 10
54.5161015625
 20
31.9042458496
  0
LWPOLYLINE
  5
3C2
100
AcDbEntity
  8
0
100
AcDbPolyline
 62
2
  6
CONTINUOUS
 90
5
 70
0
 43
0.2
 10
55.6606279297
 20
30.7875793457
 10
55.5349980469
 20
30.7875793457
 10
55.5943378906
 20
31.0667473145
 10
55.7199677734
 20
31.0667473145
 10
55.6606279297
 20
30.7875793457
  0
LWPOLYLINE
  5
3C3
100
AcDbEntity
  8
0
100
AcDbPolyline
 62
2
  6
CONTINUOUS
 90
7
 70
0
 43
0.2
 10
21.4650009766
 20
30.7875793457
 10
22.1770683594
 20
34.1375788574
 10
22.9308154297
 20
34.1375788574
 10
23.0633847656
 20
33.5792456055
 10
22.9447050781
 20
33.0209123535
 10
22.5747871094
 20
32.4625791016
 10
21.8210292969
 20
32.4625791016
  0
LWPOLYLINE
  5
3C4
100
AcDbEntity
  8
0
100
AcDbPolyline
 62
2
  6
CONTINUOUS
 90
8
 70
0
 43
0.2
 10
24.8360283203
 20
32.4625791016
 10
24.7034589844
 20
33.0209123535
 10
24.2009609375
 20
33.0209123535
 10
23.8310322266
 20
32.4625791016
 10
23.5936728516
 20
31.3459125977
 10
23.7262529297
 20
30.7875793457
 10
24.2287509766
 20
30.7875793457
 10
24.5986796875
 20
31.3459125977
  0
LWPOLYLINE
  5
3C5
100
AcDbEntity
  8
0
100
AcDbPolyline
 62
2
  6
CONTINUOUS
 90
3
 70
0
 43
0.2
 10
24.9547080078
 20
33.0209123535
 10
24.5986796875
 20
31.3459125977
 10
24.6056298828
 20
30.7875793457
  0
LWPOLYLINE
  5
3C6
100
AcDbEntity
  8
0
100
AcDbPolyline
 62
2
  6
CONTINUOUS
 90
9
 70
0
 43
0.2
 10
25.6036757813
 20
31.3459125977
 10
25.7362451172
 20
30.7875793457
 10
26.2387539063
 20
30.7875793457
 10
26.6086826172
 20
31.3459125977
 10
26.4761025391
 20
31.9042458496
 10
26.84603125
 20
32.4625791016
 10
26.7134619141
 20
33.0209123535
 10
26.2109638672
 20
33.0209123535
 10
25.8410351563
 20
32.4625791016
  0
LWPOLYLINE
  5
3C7
100
AcDbEntity
  8
0
100
AcDbPolyline
 62
2
  6
CONTINUOUS
 90
2
 70
0
 43
0.2
 10
26.2248535156
 20
31.9042458496
 10
26.4761025391
 20
31.9042458496
  0
LWPOLYLINE
  5
3C8
100
AcDbEntity
  8
0
100
AcDbPolyline
 62
2
  6
CONTINUOUS
 90
2
 70
0
 43
0.2
 10
27.2576503906
 20
29.6709128418
 10
27.9697070313
 20
33.0209123535
  0
LWPOLYLINE
  5
3C9
100
AcDbEntity
  8
0
100
AcDbPolyline
 62
2
  6
CONTINUOUS
 90
7
 70
0
 43
0.2
 10
27.4949990234
 20
30.7875793457
 10
28.2487460938
 20
30.7875793457
 10
28.6186748047
 20
31.3459125977
 10
28.8560341797
 20
32.4625791016
 10
28.7234648438
 20
33.0209123535
 10
28.2209560547
 20
33.0209123535
 10
27.8510273438
 20
32.4625791016
  0
LWPOLYLINE
  5
3CA
100
AcDbEntity
  8
0
100
AcDbPolyline
 62
2
  6
CONTINUOUS
 90
8
 70
0
 43
0.2
 10
30.8660371094
 20
32.4625791016
 10
30.7334570313
 20
33.0209123535
 10
30.2309589844
 20
33.0209123535
 10
29.8610302734
 20
32.4625791016
 10
29.6236816406
 20
31.3459125977
 10
29.7562509766
 20
30.7875793457
 10
30.2587490234
 20
30.7875793457
 10
30.6286777344
 20
31.3459125977
  0
LWPOLYLINE
  5
3CB
100
AcDbEntity
  8
0
100
AcDbPolyline
 62
2
  6
CONTINUOUS
 90
3
 70
0
 43
0.2
 10
30.9847060547
 20
33.0209123535
 10
30.6286777344
 20
31.3459125977
 10
30.6356279297
 20
30.7875793457
  0
LWPOLYLINE
  5
3CC
100
AcDbEntity
  8
0
100
AcDbPolyline
 62
2
  6
CONTINUOUS
 90
10
 70
0
 43
0.2
 10
32.7434599609
 20
33.0209123535
 10
32.2409619141
 20
33.0209123535
 10
31.8710332031
 20
32.4625791016
 10
31.6336738281
 20
31.3459125977
 10
31.7662539063
 20
30.7875793457
 10
32.2687519531
 20
30.7875793457
 10
32.6386806641
 20
31.3459125977
 10
32.8760292969
 20
32.4625791016
 10
32.4783105469
 20
34.1375788574
 10
33.2320683594
 20
34.1375788574
  0
LWPOLYLINE
  5
3CD
100
AcDbEntity
  8
0
100
AcDbPolyline
 62
2
  6
CONTINUOUS
 90
5
 70
0
 43
0.2
 10
33.6506269531
 20
30.7875793457
 10
33.5249970703
 20
30.7875793457
 10
33.5843369141
 20
31.0667473145
 10
33.7099667969
 20
31.0667473145
 10
33.6506269531
 20
30.7875793457
  0
LWPOLYLINE
  5
3CE
100
AcDbEntity
  8
0
100
AcDbPolyline
 62
2
  6
CONTINUOUS
 90
5
 70
0
 43
0.2
 10
76.2312509766
 20
35.7875788574
 10
76.7652988281
 20
38.300079834
 10
77.3201865234
 20
39.1375783691
 10
77.6970654297
 20
39.1375783691
 10
76.9849980469
 20
35.7875788574
  0
LWPOLYLINE
  5
3CF
100
AcDbEntity
  8
0
100
AcDbPolyline
 62
2
  6
CONTINUOUS
 90
4
 70
0
 43
0.2
 10
75.9869521484
 20
35.2292456055
 10
75.9800019531
 20
35.7875788574
 10
77.2362470703
 20
35.7875788574
 10
76.9919482422
 20
35.2292456055
  0
LWPOLYLINE
  5
3D0
100
AcDbEntity
  8
0
100
AcDbPolyline
 62
2
  6
CONTINUOUS
 90
8
 70
0
 43
0.2
 10
79.3510292969
 20
37.4625786133
 10
79.2184599609
 20
38.0209118652
 10
78.7159619141
 20
38.0209118652
 10
78.3460332031
 20
37.4625786133
 10
78.1086738281
 20
36.3459121094
 10
78.2412539063
 20
35.7875788574
 10
78.7437519531
 20
35.7875788574
 10
79.1136806641
 20
36.3459121094
  0
LWPOLYLINE
  5
3D1
100
AcDbEntity
  8
0
100
AcDbPolyline
 62
2
  6
CONTINUOUS
 90
3
 70
0
 43
0.2
 10
79.4697089844
 20
38.0209118652
 10
79.1136806641
 20
36.3459121094
 10
79.1206201172
 20
35.7875788574
  0
LWPOLYLINE
  5
3D2
100
AcDbEntity
  8
0
100
AcDbPolyline
 62
2
  6
CONTINUOUS
 90
2
 70
0
 43
0.2
 10
79.9999970703
 20
35.7875788574
 10
80.4747050781
 20
38.0209118652
  0
LWPOLYLINE
  5
3D3
100
AcDbEntity
  8
0
100
AcDbPolyline
 62
2
  6
CONTINUOUS
 90
4
 70
0
 43
0.2
 10
80.3560361328
 20
37.4625786133
 10
80.7259648438
 20
38.0209118652
 10
80.8585341797
 20
37.4625786133
 10
80.5024951172
 20
35.7875788574
  0
LWPOLYLINE
  5
3D4
100
AcDbEntity
  8
0
100
AcDbPolyline
 62
2
  6
CONTINUOUS
 90
4
 70
0
 43
0.2
 10
80.8585341797
 20
37.4625786133
 10
81.2284628906
 20
38.0209118652
 10
81.3610322266
 20
37.4625786133
 10
81.0050039063
 20
35.7875788574
  0
LWPOLYLINE
  5
3D5
100
AcDbEntity
  8
0
100
AcDbPolyline
 62
2
  6
CONTINUOUS
 90
8
 70
0
 43
0.2
 10
83.3710351563
 20
37.4625786133
 10
83.2384550781
 20
38.0209118652
 10
82.7359570313
 20
38.0209118652
 10
82.3660283203
 20
37.4625786133
 10
82.1286796875
 20
36.3459121094
 10
82.2612490234
 20
35.7875788574
 10
82.7637470703
 20
35.7875788574
 10
83.1336757813
 20
36.3459121094
  0
LWPOLYLINE
  5
3D6
100
AcDbEntity
  8
0
100
AcDbPolyline
 62
2
  6
CONTINUOUS
 90
3
 70
0
 43
0.2
 10
83.4897148438
 20
38.0209118652
 10
83.1336757813
 20
36.3459121094
 10
83.1406259766
 20
35.7875788574
  0
LWPOLYLINE
  5
3D7
100
AcDbEntity
  8
0
100
AcDbPolyline
 62
2
  6
CONTINUOUS
 90
4
 70
0
 43
0.2
 10
62.4749990234
 20
35.7875788574
 10
63.1870664063
 20
39.1375783691
 10
64.1920625
 20
39.1375783691
 10
63.4799951172
 20
35.7875788574
  0
LWPOLYLINE
  5
3D8
100
AcDbEntity
  8
0
100
AcDbPolyline
 62
2
  6
CONTINUOUS
 90
9
 70
0
 43
0.2
 10
64.6036816406
 20
36.3459121094
 10
64.7362509766
 20
35.7875788574
 10
65.2387490234
 20
35.7875788574
 10
65.6086777344
 20
36.3459121094
 10
65.8460371094
 20
37.4625786133
 10
65.7134570313
 20
38.0209118652
 10
65.2109589844
 20
38.0209118652
 10
64.8410302734
 20
37.4625786133
 10
64.6036816406
 20
36.3459121094
  0
LWPOLYLINE
  5
3D9
100
AcDbEntity
  8
0
100
AcDbPolyline
 62
2
  6
CONTINUOUS
 90
11
 70
0
 43
0.2
 10
67.8560292969
 20
37.4625786133
 10
67.7234599609
 20
38.0209118652
 10
67.2209619141
 20
38.0209118652
 10
66.8510332031
 20
37.4625786133
 10
66.6136738281
 20
36.3459121094
 10
66.7462539063
 20
35.7875788574
 10
67.2487519531
 20
35.7875788574
 10
67.6186806641
 20
36.3459121094
 10
68.0933886719
 20
38.5792451172
 10
67.9608193359
 20
39.1375783691
 10
67.4583105469
 20
39.1375783691
  0
LWPOLYLINE
  5
3DA
100
AcDbEntity
  8
0
100
AcDbPolyline
 62
2
  6
CONTINUOUS
 90
2
 70
0
 43
0.2
 10
68.5049970703
 20
35.7875788574
 10
68.9797050781
 20
38.0209118652
  0
LWPOLYLINE
  5
3DB
100
AcDbEntity
  8
0
100
AcDbPolyline
 62
2
  6
CONTINUOUS
 90
5
 70
0
 43
0.2
 10
68.8610361328
 20
37.4625786133
 10
69.2309648438
 20
38.0209118652
 10
69.7334628906
 20
38.0209118652
 10
69.8660322266
 20
37.4625786133
 10
69.5100039063
 20
35.7875788574
  0
LWPOLYLINE
  5
3DC
100
AcDbEntity
  8
0
100
AcDbPolyline
 62
2
  6
CONTINUOUS
 90
5
 70
0
 43
0.2
 10
70.6406298828
 20
35.7875788574
 10
70.515
 20
35.7875788574
 10
70.5743398438
 20
36.0667468262
 10
70.6999589844
 20
36.0667468262
 10
70.6406298828
 20
35.7875788574
  0
LWPOLYLINE
  5
3DD
100
AcDbEntity
  8
0
100
AcDbPolyline
 62
2
  6
CONTINUOUS
 90
4
 70
0
 43
0.2
 10
40.4600029297
 20
35.7875788574
 10
41.1720595703
 20
39.1375783691
 10
41.4649990234
 20
35.7875788574
 10
42.1770664063
 20
39.1375783691
  0
LWPOLYLINE
  5
3DE
100
AcDbEntity
  8
0
100
AcDbPolyline
 62
2
  6
CONTINUOUS
 90
11
 70
0
 43
0.2
 10
45.8410332031
 20
37.4625786133
 10
45.7084638672
 20
38.0209118652
 10
45.2059550781
 20
38.0209118652
 10
44.8360371094
 20
37.4625786133
 10
44.5986777344
 20
36.3459121094
 10
44.7312470703
 20
35.7875788574
 10
45.2337451172
 20
35.7875788574
 10
45.6036738281
 20
36.3459121094
 10
46.0783818359
 20
38.5792451172
 10
45.9458125
 20
39.1375783691
 10
45.4433144531
 20
39.1375783691
  0
LWPOLYLINE
  5
3DF
100
AcDbEntity
  8
0
100
AcDbPolyline
 62
2
  6
CONTINUOUS
 90
9
 70
0
 43
0.2
 10
46.6086806641
 20
36.3459121094
 10
46.74125
 20
35.7875788574
 10
47.2437480469
 20
35.7875788574
 10
47.6136767578
 20
36.3459121094
 10
47.8510361328
 20
37.4625786133
 10
47.7184560547
 20
38.0209118652
 10
47.2159580078
 20
38.0209118652
 10
46.8460292969
 20
37.4625786133
 10
46.6086806641
 20
36.3459121094
  0
LWPOLYLINE
  5
3E0
100
AcDbEntity
  8
0
100
AcDbPolyline
 62
2
  6
CONTINUOUS
 90
2
 70
0
 43
0.2
 10
48.9747119141
 20
38.0209118652
 10
48.5000039063
 20
35.7875788574
  0
LWPOLYLINE
  5
3E1
100
AcDbEntity
  8
0
100
AcDbPolyline
 62
2
  6
CONTINUOUS
 90
2
 70
0
 43
0.2
 10
48.6186728516
 20
36.3459121094
 10
49.9797080078
 20
38.0209118652
  0
LWPOLYLINE
  5
3E2
100
AcDbEntity
  8
0
100
AcDbPolyline
 62
2
  6
CONTINUOUS
 90
2
 70
0
 43
0.2
 10
49.1142314453
 20
36.9042453613
 10
49.505
 20
35.7875788574
  0
LWPOLYLINE
  5
3E3
100
AcDbEntity
  8
0
100
AcDbPolyline
 62
2
  6
CONTINUOUS
 90
2
 70
0
 43
0.2
 10
50.9847148438
 20
38.0209118652
 10
51.0125048828
 20
35.7875788574
  0
LWPOLYLINE
  5
3E4
100
AcDbEntity
  8
0
100
AcDbPolyline
 62
2
  6
CONTINUOUS
 90
3
 70
0
 43
0.2
 10
50.2726474609
 20
34.6709123535
 10
50.5238964844
 20
34.6709123535
 10
51.9897109375
 20
38.0209118652
  0
LWPOLYLINE
  5
3E5
100
AcDbEntity
  8
0
100
AcDbPolyline
 62
2
  6
CONTINUOUS
 90
5
 70
0
 43
0.2
 10
52.5199990234
 20
35.7875788574
 10
52.9947070313
 20
38.0209118652
 10
53.2598564453
 20
36.9042453613
 10
53.9997138672
 20
38.0209118652
 10
53.5249951172
 20
35.7875788574
  0
LWPOLYLINE
  5
3E6
100
AcDbEntity
  8
0
100
AcDbPolyline
 62
2
  6
CONTINUOUS
 90
5
 70
0
 43
0.2
 10
54.6556210938
 20
35.7875788574
 10
54.5300019531
 20
35.7875788574
 10
54.5893417969
 20
36.0667468262
 10
54.7149609375
 20
36.0667468262
 10
54.6556210938
 20
35.7875788574
  0
LWPOLYLINE
  5
3E7
100
AcDbEntity
  8
0
100
AcDbPolyline
 62
2
  6
CONTINUOUS
 90
3
 70
0
 43
0.2
 10
27.9799980469
 20
35.7875788574
 10
29.1945634766
 20
39.1375783691
 10
28.9850048828
 20
35.7875788574
  0
LWPOLYLINE
  5
3E8
100
AcDbEntity
  8
0
100
AcDbPolyline
 62
2
  6
CONTINUOUS
 90
5
 70
0
 43
0.2
 10
30.4647089844
 20
38.0209118652
 10
30.1086806641
 20
36.3459121094
 10
30.24125
 20
35.7875788574
 10
30.4924990234
 20
35.7875788574
 10
31.2323564453
 20
36.9042453613
  0
LWPOLYLINE
  5
3E9
100
AcDbEntity
  8
0
100
AcDbPolyline
 62
2
  6
CONTINUOUS
 90
2
 70
0
 43
0.2
 10
31.4697050781
 20
38.0209118652
 10
30.9949970703
 20
35.7875788574
  0
LWPOLYLINE
  5
3EA
100
AcDbEntity
  8
0
100
AcDbPolyline
 62
2
  6
CONTINUOUS
 90
8
 70
0
 43
0.2
 10
33.3610283203
 20
37.4625786133
 10
33.2284589844
 20
38.0209118652
 10
32.7259609375
 20
38.0209118652
 10
32.3560322266
 20
37.4625786133
 10
32.1186728516
 20
36.3459121094
 10
32.2512529297
 20
35.7875788574
 10
32.7537509766
 20
35.7875788574
 10
33.1236796875
 20
36.3459121094
  0
LWPOLYLINE
  5
3EB
100
AcDbEntity
  8
0
100
AcDbPolyline
 62
2
  6
CONTINUOUS
 90
2
 70
0
 43
0.2
 10
34.0099960938
 20
35.7875788574
 10
34.4847148438
 20
38.0209118652
  0
LWPOLYLINE
  5
3EC
100
AcDbEntity
  8
0
100
AcDbPolyline
 62
2
  6
CONTINUOUS
 90
4
 70
0
 43
0.2
 10
34.3660351563
 20
37.4625786133
 10
34.7359638672
 20
38.0209118652
 10
34.8685332031
 20
37.4625786133
 10
34.5125048828
 20
35.7875788574
  0
LWPOLYLINE
  5
3ED
100
AcDbEntity
  8
0
100
AcDbPolyline
 62
2
  6
CONTINUOUS
 90
4
 70
0
 43
0.2
 10
34.8685332031
 20
37.4625786133
 10
35.2384619141
 20
38.0209118652
 10
35.37103125
 20
37.4625786133
 10
35.0150029297
 20
35.7875788574
  0
LWPOLYLINE
  5
3EE
100
AcDbEntity
  8
0
100
AcDbPolyline
 62
2
  6
CONTINUOUS
 90
4
 70
0
 43
0.2
 10
21.1970693359
 20
39.1375783691
 10
20.4850019531
 20
35.7875788574
 10
22.2020654297
 20
39.1375783691
 10
21.4899980469
 20
35.7875788574
  0
LWPOLYLINE
  5
3EF
100
AcDbEntity
  8
0
100
AcDbPolyline
 62
2
  6
CONTINUOUS
 90
9
 70
0
 43
0.2
 10
22.6136738281
 20
36.3459121094
 10
22.7462539063
 20
35.7875788574
 10
23.2487519531
 20
35.7875788574
 10
23.6186806641
 20
36.3459121094
 10
23.4861005859
 20
36.9042453613
 10
23.8560292969
 20
37.4625786133
 10
23.7234599609
 20
38.0209118652
 10
23.2209619141
 20
38.0209118652
 10
22.8510332031
 20
37.4625786133
  0
LWPOLYLINE
  5
3F0
100
AcDbEntity
  8
0
100
AcDbPolyline
 62
2
  6
CONTINUOUS
 90
2
 70
0
 43
0.2
 10
23.2348515625
 20
36.9042453613
 10
23.4861005859
 20
36.9042453613
  0
LWPOLYLINE
  5
3F1
100
AcDbEntity
  8
0
100
AcDbPolyline
 62
2
  6
CONTINUOUS
 90
5
 70
0
 43
0.2
 10
24.5049970703
 20
35.7875788574
 10
24.9797050781
 20
38.0209118652
 10
25.2448544922
 20
36.9042453613
 10
25.9847119141
 20
38.0209118652
 10
25.5100039063
 20
35.7875788574
  0
LWPOLYLINE
  5
3F2
100
AcDbEntity
  8
0
100
AcDbPolyline
 62
2
  6
CONTINUOUS
 90
5
 70
0
 43
0.2
 10
188.9649980469
 20
40.7875783691
 10
189.6770546875
 20
44.1375805664
 10
189.7048554688
 20
41.904244873
 10
190.6820722656
 20
44.1375805664
 10
189.9699941406
 20
40.7875783691
  0
LWPOLYLINE
  5
3F3
100
AcDbEntity
  8
0
100
AcDbPolyline
 62
2
  6
CONTINUOUS
 90
8
 70
0
 43
0.2
 10
192.3360253906
 20
42.4625808105
 10
192.2034667969
 20
43.0209140625
 10
191.70096875
 20
43.0209140625
 10
191.3310292969
 20
42.4625808105
 10
191.0936699219
 20
41.3459116211
 10
191.22625
 20
40.7875783691
 10
191.7287480469
 20
40.7875783691
 10
192.0986875
 20
41.3459116211
  0
LWPOLYLINE
  5
3F4
100
AcDbEntity
  8
0
100
AcDbPolyline
 62
2
  6
CONTINUOUS
 90
3
 70
0
 43
0.2
 10
192.4547050781
 20
43.0209140625
 10
192.0986875
 20
41.3459116211
 10
192.1056269531
 20
40.7875783691
  0
LWPOLYLINE
  5
3F5
100
AcDbEntity
  8
0
100
AcDbPolyline
 62
2
  6
CONTINUOUS
 90
8
 70
0
 43
0.2
 10
194.3460390625
 20
42.4625808105
 10
194.2134589844
 20
43.0209140625
 10
193.7109609375
 20
43.0209140625
 10
193.3410429688
 20
42.4625808105
 10
193.1036835938
 20
41.3459116211
 10
193.2362421875
 20
40.7875783691
 10
193.7387402344
 20
40.7875783691
 10
194.1086796875
 20
41.3459116211
  0
LWPOLYLINE
  5
3F6
100
AcDbEntity
  8
0
100
AcDbPolyline
 62
2
  6
CONTINUOUS
 90
7
 70
0
 43
0.2
 10
195.4697148438
 20
43.0209140625
 10
195.1136757813
 20
41.3459116211
 10
195.2462558594
 20
40.7875783691
 10
195.6161738281
 20
41.3459116211
 10
195.7487539063
 20
40.7875783691
 10
196.118671875
 20
41.3459116211
 10
196.4747109375
 20
43.0209140625
  0
LWPOLYLINE
  5
3F7
100
AcDbEntity
  8
0
100
AcDbPolyline
 62
2
  6
CONTINUOUS
 90
2
 70
0
 43
0.2
 10
195.9722128906
 20
43.0209140625
 10
195.6161738281
 20
41.3459116211
  0
LWPOLYLINE
  5
3F8
100
AcDbEntity
  8
0
100
AcDbPolyline
 62
2
  6
CONTINUOUS
 90
2
 70
0
 43
0.2
 10
196.118671875
 20
41.3459116211
 10
196.1256328125
 20
40.7875783691
  0
LWPOLYLINE
  5
3F9
100
AcDbEntity
  8
0
100
AcDbPolyline
 62
2
  6
CONTINUOUS
 90
2
 70
0
 43
0.2
 10
197.0050097656
 20
40.7875783691
 10
197.4797070313
 20
43.0209140625
  0
LWPOLYLINE
  5
3FA
100
AcDbEntity
  8
0
100
AcDbPolyline
 62
2
  6
CONTINUOUS
 90
4
 70
0
 43
0.2
 10
197.3610273438
 20
42.4625808105
 10
197.7309667969
 20
43.0209140625
 10
197.8635253906
 20
42.4625808105
 10
197.5075078125
 20
40.7875783691
  0
LWPOLYLINE
  5
3FB
100
AcDbEntity
  8
0
100
AcDbPolyline
 62
2
  6
CONTINUOUS
 90
4
 70
0
 43
0.2
 10
197.8635253906
 20
42.4625808105
 10
198.2334648438
 20
43.0209140625
 10
198.3660234375
 20
42.4625808105
 10
198.0100058594
 20
40.7875783691
  0
LWPOLYLINE
  5
3FC
100
AcDbEntity
  8
0
100
AcDbPolyline
 62
2
  6
CONTINUOUS
 90
8
 70
0
 43
0.2
 10
200.3760371094
 20
42.4625808105
 10
200.2434570313
 20
43.0209140625
 10
199.7409589844
 20
43.0209140625
 10
199.3710410156
 20
42.4625808105
 10
199.1336816406
 20
41.3459116211
 10
199.2662402344
 20
40.7875783691
 10
199.7687597656
 20
40.7875783691
 10
200.1386777344
 20
41.3459116211
  0
LWPOLYLINE
  5
3FD
100
AcDbEntity
  8
0
100
AcDbPolyline
 62
2
  6
CONTINUOUS
 90
3
 70
0
 43
0.2
 10
200.4947167969
 20
43.0209140625
 10
200.1386777344
 20
41.3459116211
 10
200.1456171875
 20
40.7875783691
  0
LWPOLYLINE
  5
3FE
100
AcDbEntity
  8
0
100
AcDbPolyline
 62
2
  6
CONTINUOUS
 90
10
 70
0
 43
0.2
 10
202.2534492188
 20
43.0209140625
 10
201.7509511719
 20
43.0209140625
 10
201.3810332031
 20
42.4625808105
 10
201.1436738281
 20
41.3459116211
 10
201.2762539063
 20
40.7875783691
 10
201.7787519531
 20
40.7875783691
 10
202.1486699219
 20
41.3459116211
 10
202.3860292969
 20
42.4625808105
 10
201.9883105469
 20
44.1375805664
 10
202.7420683594
 20
44.1375805664
  0
LWPOLYLINE
  5
3FF
100
AcDbEntity
  8
0
100
AcDbPolyline
 62
2
  6
CONTINUOUS
 90
5
 70
0
 43
0.2
 10
173.475
 20
40.7875783691
 10
174.1870566406
 20
44.1375805664
 10
174.2148574219
 20
41.904244873
 10
175.1920742188
 20
44.1375805664
 10
174.4799960938
 20
40.7875783691
  0
LWPOLYLINE
  5
400
100
AcDbEntity
  8
0
100
AcDbPolyline
 62
2
  6
CONTINUOUS
 90
8
 70
0
 43
0.2
 10
176.8460273438
 20
42.4625808105
 10
176.71346875
 20
43.0209140625
 10
176.2109492188
 20
43.0209140625
 10
175.84103125
 20
42.4625808105
 10
175.603671875
 20
41.3459116211
 10
175.7362519531
 20
40.7875783691
 10
176.23875
 20
40.7875783691
 10
176.6086679688
 20
41.3459116211
  0
LWPOLYLINE
  5
401
100
AcDbEntity
  8
0
100
AcDbPolyline
 62
2
  6
CONTINUOUS
 90
3
 70
0
 43
0.2
 10
176.9647070313
 20
43.0209140625
 10
176.6086679688
 20
41.3459116211
 10
176.6156289063
 20
40.7875783691
  0
LWPOLYLINE
  5
402
100
AcDbEntity
  8
0
100
AcDbPolyline
 62
2
  6
CONTINUOUS
 90
8
 70
0
 43
0.2
 10
178.8560410156
 20
42.4625808105
 10
178.7234609375
 20
43.0209140625
 10
178.2209628906
 20
43.0209140625
 10
177.8510234375
 20
42.4625808105
 10
177.6136855469
 20
41.3459116211
 10
177.7462441406
 20
40.7875783691
 10
178.2487421875
 20
40.7875783691
 10
178.6186816406
 20
41.3459116211
  0
LWPOLYLINE
  5
403
100
AcDbEntity
  8
0
100
AcDbPolyline
 62
2
  6
CONTINUOUS
 90
8
 70
0
 43
0.2
 10
180.8660332031
 20
42.4625808105
 10
180.733453125
 20
43.0209140625
 10
180.2309550781
 20
43.0209140625
 10
179.8610371094
 20
42.4625808105
 10
179.6236777344
 20
41.3459116211
 10
179.7562578125
 20
40.7875783691
 10
180.2587558594
 20
40.7875783691
 10
180.6286738281
 20
41.3459116211
  0
LWPOLYLINE
  5
404
100
AcDbEntity
  8
0
100
AcDbPolyline
 62
2
  6
CONTINUOUS
 90
8
 70
0
 43
0.2
 10
182.8760253906
 20
42.4625808105
 10
182.7434667969
 20
43.0209140625
 10
182.24096875
 20
43.0209140625
 10
181.8710292969
 20
42.4625808105
 10
181.6336699219
 20
41.3459116211
 10
181.76625
 20
40.7875783691
 10
182.2687480469
 20
40.7875783691
 10
182.6386875
 20
41.3459116211
  0
LWPOLYLINE
  5
405
100
AcDbEntity
  8
0
100
AcDbPolyline
 62
2
  6
CONTINUOUS
 90
3
 70
0
 43
0.2
 10
182.9947050781
 20
43.0209140625
 10
182.6386875
 20
41.3459116211
 10
182.6456269531
 20
40.7875783691
  0
LWPOLYLINE
  5
406
100
AcDbEntity
  8
0
100
AcDbPolyline
 62
2
  6
CONTINUOUS
 90
3
 70
0
 43
0.2
 10
158.4800019531
 20
40.7875783691
 10
159.6945566406
 20
44.1375805664
 10
159.4849980469
 20
40.7875783691
  0
LWPOLYLINE
  5
407
100
AcDbEntity
  8
0
100
AcDbPolyline
 62
2
  6
CONTINUOUS
 90
5
 70
0
 43
0.2
 10
160.9647128906
 20
43.0209140625
 10
160.6086738281
 20
41.3459116211
 10
160.7412539063
 20
40.7875783691
 10
160.9924921875
 20
40.7875783691
 10
161.7323496094
 20
41.904244873
  0
LWPOLYLINE
  5
408
100
AcDbEntity
  8
0
100
AcDbPolyline
 62
2
  6
CONTINUOUS
 90
2
 70
0
 43
0.2
 10
161.9697089844
 20
43.0209140625
 10
161.4949902344
 20
40.7875783691
  0
LWPOLYLINE
  5
409
100
AcDbEntity
  8
0
100
AcDbPolyline
 62
2
  6
CONTINUOUS
 90
2
 70
0
 43
0.2
 10
162.5000078125
 20
40.7875783691
 10
162.9747050781
 20
43.0209140625
  0
LWPOLYLINE
  5
40A
100
AcDbEntity
  8
0
100
AcDbPolyline
 62
2
  6
CONTINUOUS
 90
4
 70
0
 43
0.2
 10
162.8560253906
 20
42.4625808105
 10
163.2259648438
 20
43.0209140625
 10
163.3585234375
 20
42.4625808105
 10
163.0025058594
 20
40.7875783691
  0
LWPOLYLINE
  5
40B
100
AcDbEntity
  8
0
100
AcDbPolyline
 62
2
  6
CONTINUOUS
 90
4
 70
0
 43
0.2
 10
163.3585234375
 20
42.4625808105
 10
163.7284628906
 20
43.0209140625
 10
163.8610429688
 20
42.4625808105
 10
163.5050039063
 20
40.7875783691
  0
LWPOLYLINE
  5
40C
100
AcDbEntity
  8
0
100
AcDbPolyline
 62
2
  6
CONTINUOUS
 90
5
 70
0
 43
0.2
 10
164.6356191406
 20
40.7875783691
 10
164.51
 20
40.7875783691
 10
164.5693398438
 20
41.0667463379
 10
164.6949589844
 20
41.0667463379
 10
164.6356191406
 20
40.7875783691
  0
LWPOLYLINE
  5
40D
100
AcDbEntity
  8
0
100
AcDbPolyline
 62
2
  6
CONTINUOUS
 90
4
 70
0
 43
0.2
 10
113.1004472656
 20
56.410637207
 10
111.4000019531
 20
48.4106401367
 10
115.5004453125
 20
56.410637207
 10
113.8
 20
48.4106401367
  0
LWPOLYLINE
  5
40E
100
AcDbEntity
  8
0
100
AcDbPolyline
 62
2
  6
CONTINUOUS
 90
6
 70
0
 43
0.2
 10
116.1999980469
 20
48.4106401367
 10
118.0000019531
 20
48.4106401367
 10
118.8834179688
 20
49.7439711914
 10
119.1668183594
 20
51.0773022461
 10
118.8502246094
 20
52.4106386719
 10
117.0502207031
 20
52.4106386719
  0
LWPOLYLINE
  5
40F
100
AcDbEntity
  8
0
100
AcDbPolyline
 62
2
  6
CONTINUOUS
 90
3
 70
0
 43
0.2
 10
116.1999980469
 20
48.4106401367
 10
117.9004433594
 20
56.410637207
 10
119.7004472656
 20
56.410637207
  0
LWPOLYLINE
  5
410
100
AcDbEntity
  8
0
100
AcDbPolyline
 62
2
  6
CONTINUOUS
 90
7
 70
0
 43
0.2
 10
120.9999941406
 20
48.4106401367
 10
122.7004609375
 20
56.410637207
 10
124.5004433594
 20
56.410637207
 10
124.8170371094
 20
55.0773061523
 10
124.5336367188
 20
53.7439697266
 10
123.6502207031
 20
52.4106386719
 10
121.8502167969
 20
52.4106386719
  0
LWPOLYLINE
  5
411
100
AcDbEntity
  8
0
100
AcDbPolyline
 62
2
  6
CONTINUOUS
 90
10
 70
0
 43
0.2
 10
127.2170351563
 20
55.0773061523
 10
128.1004511719
 20
56.410637207
 10
129.3004609375
 20
56.410637207
 10
129.6170332031
 20
55.0773061523
 10
129.0502324219
 20
52.4106386719
 10
128.1668164063
 20
51.0773022461
 10
126.966828125
 20
51.0773022461
 10
126.0834121094
 20
49.7439711914
 10
125.7999902344
 20
48.4106401367
 10
128.2000097656
 20
48.4106401367
  0
LWPOLYLINE
  5
412
100
AcDbEntity
  8
0
100
AcDbPolyline
 62
2
  6
CONTINUOUS
 90
5
 70
0
 43
0.2
 10
130.8999941406
 20
48.4106401367
 10
130.6000078125
 20
48.4106401367
 10
130.7416972656
 20
49.0773056641
 10
131.0417050781
 20
49.0773056641
 10
130.8999941406
 20
48.4106401367
  0
LWPOLYLINE
  5
413
100
AcDbEntity
  8
0
100
AcDbPolyline
 62
2
  6
CONTINUOUS
 90
9
 70
0
 43
0.2
 10
135.9999980469
 20
48.4106401367
 10
135.6834042969
 20
49.7439711914
 10
136.8170488281
 20
55.0773061523
 10
137.7004433594
 20
56.410637207
 10
138.900453125
 20
56.410637207
 10
139.217046875
 20
55.0773061523
 10
138.0834023438
 20
49.7439711914
 10
137.2000078125
 20
48.4106401367
 10
135.9999980469
 20
48.4106401367
  0
LWPOLYLINE
  5
414
100
AcDbEntity
  8
0
100
AcDbPolyline
 62
2
  6
CONTINUOUS
 90
3
 70
0
 43
0.2
 10
142.833640625
 20
53.7439697266
 10
144.0004570313
 20
56.410637207
 10
142.2999902344
 20
48.4106401367
  0
LWPOLYLINE
  5
415
100
AcDbEntity
  8
0
100
AcDbPolyline
 62
2
  6
CONTINUOUS
 90
2
 70
0
 43
0.2
 10
141.6999960938
 20
48.4106401367
 10
142.9000058594
 20
48.4106401367
  0
LWPOLYLINE
  5
416
100
AcDbEntity
  8
0
100
AcDbPolyline
 62
2
  6
CONTINUOUS
 90
5
 70
0
 43
0.2
 10
145.3000039063
 20
48.4106401367
 10
144.9999960938
 20
48.4106401367
 10
145.1417070313
 20
49.0773056641
 10
145.4417148438
 20
49.0773056641
 10
145.3000039063
 20
48.4106401367
  0
LWPOLYLINE
  5
417
100
AcDbEntity
  8
0
100
AcDbPolyline
 62
2
  6
CONTINUOUS
 90
3
 70
0
 43
0.2
 10
152.4336328125
 20
53.7439697266
 10
153.6004492188
 20
56.410637207
 10
151.9000039063
 20
48.4106401367
  0
LWPOLYLINE
  5
418
100
AcDbEntity
  8
0
100
AcDbPolyline
 62
2
  6
CONTINUOUS
 90
2
 70
0
 43
0.2
 10
151.3000097656
 20
48.4106401367
 10
152.4999980469
 20
48.4106401367
  0
LWPOLYLINE
  5
419
100
AcDbEntity
  8
0
100
AcDbPolyline
 62
2
  6
CONTINUOUS
 90
9
 70
0
 43
0.2
 10
155.2000039063
 20
48.4106401367
 10
154.8834101563
 20
49.7439711914
 10
156.0170332031
 20
55.0773061523
 10
156.9004492188
 20
56.410637207
 10
158.1004589844
 20
56.410637207
 10
158.4170527344
 20
55.0773061523
 10
157.2834082031
 20
49.7439711914
 10
156.3999921875
 20
48.4106401367
 10
155.2000039063
 20
48.4106401367
  0
LWPOLYLINE
  5
41A
100
AcDbEntity
  8
0
100
AcDbPolyline
 62
2
  6
CONTINUOUS
 90
9
 70
0
 43
0.2
 10
160.0
 20
48.4106401367
 10
159.68340625
 20
49.7439711914
 10
160.8170507813
 20
55.0773061523
 10
161.7004453125
 20
56.410637207
 10
162.9004550781
 20
56.410637207
 10
163.2170488281
 20
55.0773061523
 10
162.0834042969
 20
49.7439711914
 10
161.2000097656
 20
48.4106401367
 10
160.0
 20
48.4106401367
  0
LWPOLYLINE
  5
41B
100
AcDbEntity
  8
0
100
AcDbPolyline
 62
2
  6
CONTINUOUS
 90
5
 70
0
 43
0.2
 10
164.5000097656
 20
48.4106401367
 10
164.2000019531
 20
48.4106401367
 10
164.3417128906
 20
49.0773056641
 10
164.6416992188
 20
49.0773056641
 10
164.5000097656
 20
48.4106401367
  0
LWPOLYLINE
  5
41C
100
AcDbEntity
  8
0
100
AcDbPolyline
 62
2
  6
CONTINUOUS
 90
9
 70
0
 43
0.2
 10
169.5999921875
 20
48.4106401367
 10
169.2833984375
 20
49.7439711914
 10
170.4170429688
 20
55.0773061523
 10
171.3004589844
 20
56.410637207
 10
172.5004472656
 20
56.410637207
 10
172.8170410156
 20
55.0773061523
 10
171.6834179688
 20
49.7439711914
 10
170.8000019531
 20
48.4106401367
 10
169.5999921875
 20
48.4106401367
  0
LWPOLYLINE
  5
41D
100
AcDbEntity
  8
0
100
AcDbPolyline
 62
2
  6
CONTINUOUS
 90
9
 70
0
 43
0.2
 10
174.4000097656
 20
48.4106401367
 10
175.5999980469
 20
48.4106401367
 10
176.4834140625
 20
49.7439711914
 10
176.7668144531
 20
51.0773022461
 10
176.4502207031
 20
52.4106386719
 10
175.2502324219
 20
52.4106386719
 10
174.3668164063
 20
51.0773022461
 10
174.0834160156
 20
49.7439711914
 10
174.4000097656
 20
48.4106401367
  0
LWPOLYLINE
  5
41E
100
AcDbEntity
  8
0
100
AcDbPolyline
 62
2
  6
CONTINUOUS
 90
8
 70
0
 43
0.2
 10
176.4502207031
 20
52.4106386719
 10
177.3336367188
 20
53.7439697266
 10
177.6170371094
 20
55.0773061523
 10
177.3004433594
 20
56.410637207
 10
176.1004550781
 20
56.410637207
 10
175.2170390625
 20
55.0773061523
 10
174.9336386719
 20
53.7439697266
 10
175.2502324219
 20
52.4106386719
  0
INSERT
  5
41F
100
AcDbEntity
  8
ALL_SURF_FIN
100
AcDbBlockReference
 62
2
  6
CONTINUOUS
  2
SYM_8_BL2
 10
186.1055065347
 20
281.2724948171
  0
LINE
  5
420
100
AcDbEntity
  8
0
100
AcDbLine
 62
7
  6
CONTINUOUS
 10
-0.0
 20
0.0
 11
210.0
 21
0.0
  0
LINE
  5
421
100
AcDbEntity
  8
0
100
AcDbLine
 62
7
  6
CONTINUOUS
 10
205.0
 20
5.0
 11
20.0
 21
5.0
  0
LINE
  5
422
100
AcDbEntity
  8
0
100
AcDbLine
 62
7
  6
CONTINUOUS
 10
-0.0
 20
297.0
 11
-0.0
 21
0.0
  0
LINE
  5
423
100
AcDbEntity
  8
0
100
AcDbLine
 62
7
  6
CONTINUOUS
 10
20.0
 20
5.0
 11
20.0
 21
292.3498994289
  0
LWPOLYLINE
  5
424
100
AcDbEntity
  8
0
100
AcDbPolyline
 62
2
  6
CONTINUOUS
 90
5
 70
0
 43
0.1999999981
 10
69.5835126953
 20
71.4543994141
 10
69.4260107422
 20
71.4543994141
 10
69.4897763672
 20
71.7544018555
 10
69.6472783203
 20
71.7544018555
 10
69.5835126953
 20
71.4543994141
  0
LWPOLYLINE
  5
425
100
AcDbEntity
  8
0
100
AcDbPolyline
 62
2
  6
CONTINUOUS
 90
6
 70
0
 43
0.1999999981
 10
52.783515625
 20
71.4543994141
 10
52.6260136719
 20
71.4543994141
 10
52.6897792969
 20
71.7544018555
 10
52.84728125
 20
71.7544018555
 10
52.783515625
 20
71.4543994141
 10
52.4984824219
 20
70.8543999023
  0
LWPOLYLINE
  5
426
100
AcDbEntity
  8
0
100
AcDbPolyline
 62
2
  6
CONTINUOUS
 90
6
 70
0
 43
0.1999999981
 10
42.7035087891
 20
71.4543994141
 10
42.5460175781
 20
71.4543994141
 10
42.6097832031
 20
71.7544018555
 10
42.7672851563
 20
71.7544018555
 10
42.7035087891
 20
71.4543994141
 10
42.4184755859
 20
70.8543999023
  0
LWPOLYLINE
  5
427
100
AcDbEntity
  8
0
100
AcDbPolyline
 62
2
  6
CONTINUOUS
 90
2
 70
0
 43
0.1999999981
 10
38.2935185547
 20
71.4543994141
 10
38.923515625
 20
71.4543994141
  0
LWPOLYLINE
  5
428
100
AcDbEntity
  8
0
100
AcDbPolyline
 62
2
  6
CONTINUOUS
 90
2
 70
0
 43
0.1999999981
 10
48.3735146484
 20
71.4543994141
 10
49.0035117188
 20
71.4543994141
  0
LWPOLYLINE
  5
429
100
AcDbEntity
  8
0
100
AcDbPolyline
 62
2
  6
CONTINUOUS
 90
2
 70
0
 43
0.1999999981
 10
55.1460126953
 20
71.4543994141
 10
58.7460097656
 20
71.4543994141
  0
LWPOLYLINE
  5
42A
100
AcDbEntity
  8
0
100
AcDbPolyline
 62
2
  6
CONTINUOUS
 90
2
 70
0
 43
0.1999999981
 10
35.3686142578
 20
73.2544033203
 10
36.6286191406
 20
73.2544033203
  0
LWPOLYLINE
  5
42B
100
AcDbEntity
  8
0
100
AcDbPolyline
 62
2
  6
CONTINUOUS
 90
2
 70
0
 43
0.1999999981
 10
55.5286171875
 20
73.2544033203
 10
59.1286142578
 20
73.2544033203
  0
LWPOLYLINE
  5
42C
100
AcDbEntity
  8
0
100
AcDbPolyline
 62
2
  6
CONTINUOUS
 90
2
 70
0
 43
0.1999999981
 10
59.8561503906
 20
73.854402832
 10
60.8011513672
 20
73.854402832
  0
LWPOLYLINE
  5
42D
100
AcDbEntity
  8
0
100
AcDbPolyline
 62
2
  6
CONTINUOUS
 90
2
 70
0
 43
0.1999999981
 10
34.9860097656
 20
71.4543994141
 10
35.75121875
 20
75.0544018555
  0
LWPOLYLINE
  5
42E
100
AcDbEntity
  8
0
100
AcDbPolyline
 62
2
  6
CONTINUOUS
 90
2
 70
0
 43
0.1999999981
 10
37.0112128906
 20
75.0544018555
 10
36.2460146484
 20
71.4543994141
  0
LWPOLYLINE
  5
42F
100
AcDbEntity
  8
0
100
AcDbPolyline
 62
2
  6
CONTINUOUS
 90
4
 70
0
 43
0.1999999981
 10
40.9710087891
 20
71.4543994141
 10
41.7362177734
 20
75.0544018555
 10
40.1535498047
 20
72.0543989258
 10
41.4135439453
 20
72.0543989258
  0
LWPOLYLINE
  5
430
100
AcDbEntity
  8
0
100
AcDbPolyline
 62
2
  6
CONTINUOUS
 90
2
 70
0
 43
0.1999999981
 10
45.8312148438
 20
75.0544018555
 10
45.0660166016
 20
71.4543994141
  0
LWPOLYLINE
  5
431
100
AcDbEntity
  8
0
100
AcDbPolyline
 62
2
  6
CONTINUOUS
 90
4
 70
0
 43
0.1999999981
 10
51.051015625
 20
71.4543994141
 10
51.8162138672
 20
75.0544018555
 10
50.2335458984
 20
72.0543989258
 10
51.4935507813
 20
72.0543989258
  0
LWPOLYLINE
  5
432
100
AcDbEntity
  8
0
100
AcDbPolyline
 62
2
  6
CONTINUOUS
 90
2
 70
0
 43
0.1999999981
 10
57.7112148438
 20
75.0544018555
 10
56.9460166016
 20
71.4543994141
  0
LWPOLYLINE
  5
433
100
AcDbEntity
  8
0
100
AcDbPolyline
 62
2
  6
CONTINUOUS
 90
4
 70
0
 43
0.1999999981
 10
60.4262167969
 20
75.0544018555
 10
59.7885498047
 20
72.0543989258
 10
59.9760117188
 20
71.4543994141
 10
60.418546875
 20
72.0543989258
  0
LWPOLYLINE
  5
434
100
AcDbEntity
  8
0
100
AcDbPolyline
 62
2
  6
CONTINUOUS
 90
3
 70
0
 43
0.1999999981
 10
38.8036542969
 20
73.854402832
 10
39.3737207031
 20
75.0544018555
 10
38.6085117188
 20
71.4543994141
  0
LWPOLYLINE
  5
435
100
AcDbEntity
  8
0
100
AcDbPolyline
 62
2
  6
CONTINUOUS
 90
3
 70
0
 43
0.1999999981
 10
48.8836503906
 20
73.854402832
 10
49.4537167969
 20
75.0544018555
 10
48.6885185547
 20
71.4543994141
  0
LWPOLYLINE
  5
436
100
AcDbEntity
  8
0
100
AcDbPolyline
 62
2
  6
CONTINUOUS
 90
5
 70
0
 43
0.1999999981
 10
45.3210791016
 20
72.6543984375
 10
46.2061494141
 20
73.854402832
 10
46.5211533203
 20
73.854402832
 10
46.7086152344
 20
73.2544033203
 10
46.3260107422
 20
71.4543994141
  0
LWPOLYLINE
  5
437
100
AcDbEntity
  8
0
100
AcDbPolyline
 62
2
  6
CONTINUOUS
 90
2
 70
0
 43
0.1999999981
 10
64.3860126953
 20
71.4543994141
 10
66.4112158203
 20
75.0544018555
  0
LWPOLYLINE
  5
438
100
AcDbEntity
  8
0
100
AcDbPolyline
 62
2
  6
CONTINUOUS
 90
10
 70
0
 43
0.1999999981
 10
62.5036806641
 20
71.6940791016
 10
62.9462158203
 20
72.2940786133
 10
63.5762128906
 20
72.2940786133
 10
63.7636855469
 20
71.6940791016
 10
63.5086123047
 20
70.4940800781
 10
63.0660771484
 20
69.8940805664
 10
62.4360800781
 20
69.8940805664
 10
61.9935449219
 20
69.2940810547
 10
61.8660136719
 20
68.694081543
 10
63.1260185547
 20
68.694081543
  0
LWPOLYLINE
  5
439
100
AcDbEntity
  8
0
100
AcDbPolyline
 62
2
  6
CONTINUOUS
 90
10
 70
0
 43
0.1999999981
 10
67.5436787109
 20
74.4544023438
 10
67.9862138672
 20
75.0544018555
 10
68.6162216797
 20
75.0544018555
 10
68.8036835938
 20
74.4544023438
 10
68.5486103516
 20
73.2544033203
 10
68.1060859375
 20
72.6543984375
 10
67.476078125
 20
72.6543984375
 10
67.0335429688
 20
72.0543989258
 10
66.9060117188
 20
71.4543994141
 10
68.1660166016
 20
71.4543994141
  0
LINE
  5
43A
100
AcDbEntity
  8
0
100
AcDbLine
 62
7
  6
CONTINUOUS
 10
205.0
 20
5.0
 11
205.0
 21
292.3498994289
  0
LINE
  5
43B
100
AcDbEntity
  8
0
100
AcDbLine
 62
7
  6
CONTINUOUS
 10
210.0
 20
297.0
 11
210.0
 21
0.0
  0
LINE
  5
43C
100
AcDbEntity
  8
0
100
AcDbLine
 62
7
  6
CONTINUOUS
 10
205.0
 20
292.3498994289
 11
20.0
 21
292.3498994289
  0
LINE
  5
43D
100
AcDbEntity
  8
0
100
AcDbLine
 62
7
  6
CONTINUOUS
 10
-0.0
 20
297.0
 11
210.0
 21
297.0
  0
LWPOLYLINE
  5
43E
100
AcDbEntity
  8
ALL_DIMENSIONS
100
AcDbPolyline
 62
2
  6
CONTINUOUS
 90
2
 70
0
 43
0.1999999981
 10
51.0890214844
 20
207.1028652344
 10
51.0890214844
 20
207.7328515625
  0
LWPOLYLINE
  5
43F
100
AcDbEntity
  8
ALL_DIMENSIONS
100
AcDbPolyline
 62
2
  6
CONTINUOUS
 90
6
 70
0
 43
0.1999999981
 10
121.2572480469
 20
149.0151738281
 10
121.0997460938
 20
149.0151738281
 10
121.0997460938
 20
149.3151708984
 10
121.2572480469
 20
149.3151708984
 10
121.2572480469
 20
149.0151738281
 10
121.0997460938
 20
148.4151796875
  0
LINE
  5
440
100
AcDbEntity
  8
ALL_AXIS
100
AcDbLine
 62
7
  6
CONTINUOUS
 10
67.5194723618
 20
231.9849246231
 11
67.5194723618
 21
180.9849246231
  0
LINE
  5
441
100
AcDbEntity
  8
ALL_AXIS
100
AcDbLine
 62
7
  6
CONTINUOUS
 10
67.5194723618
 20
180.9849246231
 11
97.225687377
 21
180.9849246231
  0
LWPOLYLINE
  5
442
100
AcDbEntity
  8
ALL_DIMENSIONS
100
AcDbPolyline
 62
2
  6
CONTINUOUS
 90
2
 70
0
 43
0.1999999981
 10
51.9890234375
 20
201.8153671875
 10
46.5890224609
 20
204.815359375
  0
LWPOLYLINE
  5
443
100
AcDbEntity
  8
ALL_DIMENSIONS
100
AcDbPolyline
 62
2
  6
CONTINUOUS
 90
9
 70
0
 43
0.1999999981
 10
51.0890214844
 20
209.1503476563
 10
50.4890166016
 20
208.8353652344
 10
48.0890185547
 20
208.8353652344
 10
47.4890244141
 20
209.1503476563
 10
47.4890244141
 20
209.7803554688
 10
48.0890185547
 20
210.095359375
 10
50.4890166016
 20
210.095359375
 10
51.0890214844
 20
209.7803554688
 10
51.0890214844
 20
209.1503476563
  0
LINE
  5
444
100
AcDbEntity
  8
0
100
AcDbLine
 62
7
  6
CONTINUOUS
 10
97.225687377
 20
181.8083499688
 11
91.2941331988
 21
183.8251753146
  0
LINE
  5
445
100
AcDbEntity
  8
0
100
AcDbLine
 62
7
  6
CONTINUOUS
 10
91.2941331988
 20
183.8251753146
 11
84.9461304442
 21
186.3552246231
  0
LINE
  5
446
100
AcDbEntity
  8
0
100
AcDbLine
 62
7
  6
CONTINUOUS
 10
84.9461304442
 20
186.3552246231
 11
80.5399925508
 21
188.848394771
  0
LINE
  5
447
100
AcDbEntity
  8
0
100
AcDbLine
 62
7
  6
CONTINUOUS
 10
80.5399925508
 20
188.848394771
 11
78.288636567
 21
191.2748742894
  0
LWPOLYLINE
  5
448
100
AcDbEntity
  8
ALL_DIMENSIONS
100
AcDbPolyline
 62
2
  6
CONTINUOUS
 90
13
 70
0
 43
0.1999999981
 10
49.2890175781
 20
201.515359375
 10
48.389015625
 20
201.8153671875
 10
47.7890214844
 20
202.4153613281
 10
47.4890244141
 20
203.3153632813
 10
47.7890214844
 20
204.2153652344
 10
48.389015625
 20
204.815359375
 10
49.2890175781
 20
205.1153671875
 10
50.1890195313
 20
204.815359375
 10
50.7890244141
 20
204.2153652344
 10
51.0890214844
 20
203.3153632813
 10
50.7890244141
 20
202.4153613281
 10
50.1890195313
 20
201.8153671875
 10
49.2890175781
 20
201.515359375
  0
LWPOLYLINE
  5
449
100
AcDbEntity
  8
ALL_DIMENSIONS
100
AcDbPolyline
 62
2
  6
CONTINUOUS
 90
10
 70
0
 43
0.1999999981
 10
48.0890185547
 20
211.3553535156
 10
47.4890244141
 20
211.6703574219
 10
47.4890244141
 20
212.3003652344
 10
48.0890185547
 20
212.6153476563
 10
49.2890175781
 20
212.6153476563
 10
49.8890224609
 20
212.3003652344
 10
49.8890224609
 20
211.6703574219
 10
50.4890166016
 20
211.3553535156
 10
51.0890214844
 20
211.3553535156
 10
51.0890214844
 20
212.6153476563
  0
LINE
  5
44A
100
AcDbEntity
  8
0
100
AcDbLine
 62
7
  6
CONTINUOUS
 10
78.288636567
 20
191.2748742894
 11
77.8686304442
 21
193.7349246231
  0
LINE
  5
44B
100
AcDbEntity
  8
0
100
AcDbLine
 62
7
  6
CONTINUOUS
 10
77.8686304442
 20
193.7349246231
 11
78.978162122
 21
196.2841964636
  0
LWPOLYLINE
  5
44C
100
AcDbEntity
  8
ALL_DIMENSIONS
100
AcDbPolyline
 62
2
  6
CONTINUOUS
 90
3
 70
0
 43
0.1999999981
 10
48.6890234375
 20
207.1028652344
 10
47.4890244141
 20
207.4178476563
 10
51.0890214844
 20
207.4178476563
  0
LWPOLYLINE
  5
44D
100
AcDbEntity
  8
ALL_DIMENSIONS
100
AcDbPolyline
 62
2
  6
CONTINUOUS
 90
12
 70
0
 43
0.1999999981
 10
113.5397382813
 20
149.6151787109
 10
113.8547421875
 20
149.0151738281
 10
114.48475
 20
149.0151738281
 10
114.7997539063
 20
149.6151787109
 10
114.7997539063
 20
152.0151767578
 10
114.48475
 20
152.6151708984
 10
113.8547421875
 20
152.6151708984
 10
113.5397382813
 20
152.0151767578
 10
113.5397382813
 20
150.8151777344
 10
113.8547421875
 20
150.2151728516
 10
114.48475
 20
150.2151728516
 10
114.7997539063
 20
150.8151777344
  0
LWPOLYLINE
  5
44E
100
AcDbEntity
  8
ALL_DIMENSIONS
100
AcDbPolyline
 62
2
  6
CONTINUOUS
 90
12
 70
0
 43
0.1999999981
 10
116.0597480469
 20
149.6151787109
 10
116.3747519531
 20
149.0151738281
 10
117.0047382813
 20
149.0151738281
 10
117.3197421875
 20
149.6151787109
 10
117.3197421875
 20
152.0151767578
 10
117.0047382813
 20
152.6151708984
 10
116.3747519531
 20
152.6151708984
 10
116.0597480469
 20
152.0151767578
 10
116.0597480469
 20
150.8151777344
 10
116.3747519531
 20
150.2151728516
 10
117.0047382813
 20
150.2151728516
 10
117.3197421875
 20
150.8151777344
  0
LINE
  5
44F
100
AcDbEntity
  8
0
100
AcDbLine
 62
7
  6
CONTINUOUS
 10
78.978162122
 20
196.2841964636
 11
81.4018994945
 21
198.7998974888
  0
LWPOLYLINE
  5
450
100
AcDbEntity
  8
ALL_DIMENSIONS
100
AcDbPolyline
 62
2
  6
CONTINUOUS
 90
12
 70
0
 43
0.1999999981
 10
119.8397519531
 20
152.0151767578
 10
119.5247480469
 20
152.6151708984
 10
118.8947402344
 20
152.6151708984
 10
118.5797363281
 20
152.0151767578
 10
118.5797363281
 20
149.6151787109
 10
118.8947402344
 20
149.0151738281
 10
119.5247480469
 20
149.0151738281
 10
119.8397519531
 20
149.6151787109
 10
119.8397519531
 20
150.8151777344
 10
119.5247480469
 20
151.415171875
 10
118.8947402344
 20
151.415171875
 10
118.5797363281
 20
150.8151777344
  0
LINE
  5
451
100
AcDbEntity
  8
0
100
AcDbLine
 62
7
  6
CONTINUOUS
 10
81.4018994945
 20
198.7998974888
 11
84.9461304442
 21
201.1146246231
  0
LINE
  5
452
100
AcDbEntity
  8
0
100
AcDbLine
 62
7
  6
CONTINUOUS
 10
97.225687377
 20
180.9849246231
 11
97.225687377
 21
181.8083499688
  0
LINE
  5
453
100
AcDbEntity
  8
0
100
AcDbLine
 62
7
  6
CONTINUOUS
 10
84.9461304442
 20
201.1146246231
 11
89.3979379225
 21
203.1093448909
  0
LINE
  5
454
100
AcDbEntity
  8
0
100
AcDbLine
 62
7
  6
CONTINUOUS
 10
89.3979379225
 20
203.1093448909
 11
94.467585157
 21
204.8585057163
  0
LINE
  5
455
100
AcDbEntity
  8
0
100
AcDbLine
 62
7
  6
CONTINUOUS
 10
105.2246466308
 20
208.1113939335
 11
110.2942647648
 21
209.8606051625
  0
LINE
  5
456
100
AcDbEntity
  8
0
100
AcDbLine
 62
7
  6
CONTINUOUS
 10
94.467585157
 20
204.8585057163
 11
105.2246466308
 21
208.1113939335
  0
LINE
  5
457
100
AcDbEntity
  8
0
100
AcDbLine
 62
7
  6
CONTINUOUS
 10
110.2942647648
 20
209.8606051625
 11
114.7461304442
 21
211.8552246231
  0
LINE
  5
458
100
AcDbEntity
  8
0
100
AcDbLine
 62
7
  6
CONTINUOUS
 10
114.7461304442
 20
211.8552246231
 11
118.290535997
 21
214.1696493359
  0
LINE
  5
459
100
AcDbEntity
  8
0
100
AcDbLine
 62
7
  6
CONTINUOUS
 10
118.290535997
 20
214.1696493359
 11
120.7143606711
 21
216.6851991502
  0
LINE
  5
45A
100
AcDbEntity
  8
0
100
AcDbLine
 62
7
  6
CONTINUOUS
 10
120.7143606711
 20
216.6851991502
 11
121.8236304442
 21
219.2349246231
  0
LINE
  5
45B
100
AcDbEntity
  8
ALL_AXIS
100
AcDbLine
 62
7
  6
CONTINUOUS
 10
67.5194723618
 20
231.9849246231
 11
99.8461304442
 21
231.9849246231
  0
LINE
  5
45C
100
AcDbEntity
  8
0
100
AcDbLine
 62
7
  6
CONTINUOUS
 10
102.4702692785
 20
231.1550980208
 11
99.8461304442
 21
231.9849246231
  0
LINE
  5
45D
100
AcDbEntity
  8
0
100
AcDbLine
 62
7
  6
CONTINUOUS
 10
108.4006303351
 20
229.1403392225
 11
102.4702692785
 21
231.1550980208
  0
LINE
  5
45E
100
AcDbEntity
  8
0
100
AcDbLine
 62
7
  6
CONTINUOUS
 10
114.7461304442
 20
226.6146246231
 11
108.4006303351
 21
229.1403392225
  0
LINE
  5
45F
100
AcDbEntity
  8
0
100
AcDbLine
 62
7
  6
CONTINUOUS
 10
119.1512789196
 20
224.1231681975
 11
114.7461304442
 21
226.6146246231
  0
LINE
  5
460
100
AcDbEntity
  8
0
100
AcDbLine
 62
7
  6
CONTINUOUS
 10
121.4029550092
 20
221.6961342395
 11
119.1512789196
 21
224.1231681975
  0
LINE
  5
461
100
AcDbEntity
  8
0
100
AcDbLine
 62
7
  6
CONTINUOUS
 10
121.8236304442
 20
219.2349246231
 11
121.4029550092
 21
221.6961342395
  0
LWPOLYLINE
  5
462
100
AcDbEntity
  8
ALL_DIMENSIONS
100
AcDbPolyline
 62
2
  6
CONTINUOUS
 90
10
 70
0
 43
0.1999999981
 10
123.6197558594
 20
152.0151767578
 10
123.9347382813
 20
152.6151708984
 10
124.5647460938
 20
152.6151708984
 10
124.87975
 20
152.0151767578
 10
124.87975
 20
150.8151777344
 10
124.5647460938
 20
150.2151728516
 10
123.9347382813
 20
150.2151728516
 10
123.6197558594
 20
149.6151787109
 10
123.6197558594
 20
149.0151738281
 10
124.87975
 20
149.0151738281
  0
LINE
  5
463
100
AcDbEntity
  8
0
100
AcDbLine
 62
7
  6
CONTINUOUS
 10
97.8686304442
 20
193.7349246231
 11
98.288636567
 21
191.2748742894
  0
LINE
  5
464
100
AcDbEntity
  8
0
100
AcDbLine
 62
7
  6
CONTINUOUS
 10
98.288636567
 20
191.2748742894
 11
100.5399925508
 21
188.848394771
  0
LINE
  5
465
100
AcDbEntity
  8
0
100
AcDbLine
 62
7
  6
CONTINUOUS
 10
104.9461304442
 20
186.3552246231
 11
111.2941331988
 21
183.8251753146
  0
LINE
  5
466
100
AcDbEntity
  8
0
100
AcDbLine
 62
7
  6
CONTINUOUS
 10
100.5399925508
 20
188.848394771
 11
104.9461304442
 21
186.3552246231
  0
LINE
  5
467
100
AcDbEntity
  8
0
100
AcDbLine
 62
7
  6
CONTINUOUS
 10
98.978162122
 20
196.2841964636
 11
97.8686304442
 21
193.7349246231
  0
LINE
  5
468
100
AcDbEntity
  8
0
100
AcDbLine
 62
7
  6
CONTINUOUS
 10
111.2941331988
 20
183.8251753146
 11
117.225687377
 21
181.8083499688
  0
LINE
  5
469
100
AcDbEntity
  8
ALL_AXIS
100
AcDbLine
 62
7
  6
CONTINUOUS
 10
117.225687377
 20
180.9849246231
 11
165.7223014602
 21
180.9849246231
  0
LINE
  5
46A
100
AcDbEntity
  8
0
100
AcDbLine
 62
7
  6
CONTINUOUS
 10
165.7223014602
 20
180.9849246231
 11
172.160019055
 21
180.9849246231
  0
LINE
  5
46B
100
AcDbEntity
  8
0
100
AcDbLine
 62
7
  6
CONTINUOUS
 10
165.4159414006
 20
182.4849246231
 11
172.160019055
 21
182.4849246231
  0
LINE
  5
46C
100
AcDbEntity
  8
0
100
AcDbLine
 62
7
  6
CONTINUOUS
 10
117.225687377
 20
181.8083499688
 11
117.225687377
 21
180.9849246231
  0
LINE
  5
46D
100
AcDbEntity
  8
0
100
AcDbLine
 62
7
  6
CONTINUOUS
 10
101.4018994945
 20
198.7998974888
 11
98.978162122
 21
196.2841964636
  0
LINE
  5
46E
100
AcDbEntity
  8
0
100
AcDbLine
 62
7
  6
CONTINUOUS
 10
104.9461304442
 20
201.1146246231
 11
101.4018994945
 21
198.7998974888
  0
LINE
  5
46F
100
AcDbEntity
  8
0
100
AcDbLine
 62
7
  6
CONTINUOUS
 10
109.3979379225
 20
203.1093448909
 11
104.9461304442
 21
201.1146246231
  0
LINE
  5
470
100
AcDbEntity
  8
0
100
AcDbLine
 62
7
  6
CONTINUOUS
 10
140.7143606711
 20
216.6851991502
 11
138.290535997
 21
214.1696493359
  0
LINE
  5
471
100
AcDbEntity
  8
0
100
AcDbLine
 62
7
  6
CONTINUOUS
 10
138.290535997
 20
214.1696493359
 11
134.7461304442
 21
211.8552246231
  0
LINE
  5
472
100
AcDbEntity
  8
0
100
AcDbLine
 62
7
  6
CONTINUOUS
 10
134.7461304442
 20
211.8552246231
 11
130.2942647648
 21
209.8606051625
  0
LINE
  5
473
100
AcDbEntity
  8
0
100
AcDbLine
 62
7
  6
CONTINUOUS
 10
114.467585157
 20
204.8585057163
 11
109.3979379225
 21
203.1093448909
  0
LINE
  5
474
100
AcDbEntity
  8
0
100
AcDbLine
 62
7
  6
CONTINUOUS
 10
130.2942647648
 20
209.8606051625
 11
125.2246466308
 21
208.1113939335
  0
LINE
  5
475
100
AcDbEntity
  8
0
100
AcDbLine
 62
7
  6
CONTINUOUS
 10
125.2246466308
 20
208.1113939335
 11
114.467585157
 21
204.8585057163
  0
LINE
  5
476
100
AcDbEntity
  8
ALL_AXIS
100
AcDbLine
 62
2
  6
CENTER
 10
62.3770992366
 20
206.4849246231
 11
180.7236641221
 21
206.4849246231
  0
LINE
  5
477
100
AcDbEntity
  8
0
100
AcDbLine
 62
7
  6
CONTINUOUS
 10
141.8236304442
 20
219.2349246231
 11
140.7143606711
 21
216.6851991502
  0
LINE
  5
478
100
AcDbEntity
  8
0
100
AcDbLine
 62
2
  6
CONTINUOUS
 10
161.6833401603
 20
230.7703289104
 11
162.897935873
 21
231.9849246231
  0
LINE
  5
479
100
AcDbEntity
  8
0
100
AcDbLine
 62
2
  6
CONTINUOUS
 10
162.8121494353
 20
230.4849246231
 11
164.3121494353
 21
231.9849246231
  0
LINE
  5
47A
100
AcDbEntity
  8
0
100
AcDbLine
 62
2
  6
CONTINUOUS
 10
164.2263629977
 20
230.4849246231
 11
165.7263629977
 21
231.9849246231
  0
LINE
  5
47B
100
AcDbEntity
  8
0
100
AcDbLine
 62
2
  6
CONTINUOUS
 10
165.6405765601
 20
230.4849246231
 11
167.1405765601
 21
231.9849246231
  0
LINE
  5
47C
100
AcDbEntity
  8
0
100
AcDbLine
 62
2
  6
CONTINUOUS
 10
167.0547901225
 20
230.4849246231
 11
168.5547901225
 21
231.9849246231
  0
LINE
  5
47D
100
AcDbEntity
  8
0
100
AcDbLine
 62
2
  6
CONTINUOUS
 10
168.4690036848
 20
230.4849246231
 11
169.9690036848
 21
231.9849246231
  0
LINE
  5
47E
100
AcDbEntity
  8
0
100
AcDbLine
 62
2
  6
CONTINUOUS
 10
169.8832172472
 20
230.4849246231
 11
171.3832172472
 21
231.9849246231
  0
LINE
  5
47F
100
AcDbEntity
  8
0
100
AcDbLine
 62
2
  6
CONTINUOUS
 10
171.2974308096
 20
230.4849246231
 11
172.160019055
 21
231.3475128685
  0
LINE
  5
480
100
AcDbEntity
  8
0
100
AcDbLine
 62
7
  6
CONTINUOUS
 10
141.4029550092
 20
221.6961342395
 11
141.8236304442
 21
219.2349246231
  0
LINE
  5
481
100
AcDbEntity
  8
0
100
AcDbLine
 62
7
  6
CONTINUOUS
 10
162.3956770507
 20
231.9849246231
 11
160.3262640213
 21
228.4563972827
  0
LINE
  5
482
100
AcDbEntity
  8
0
100
AcDbLine
 62
7
  6
CONTINUOUS
 10
139.1512789196
 20
224.1231681975
 11
141.4029550092
 21
221.6961342395
  0
LINE
  5
483
100
AcDbEntity
  8
0
100
AcDbLine
 62
7
  6
CONTINUOUS
 10
134.7461304442
 20
226.6146246231
 11
139.1512789196
 21
224.1231681975
  0
LINE
  5
484
100
AcDbEntity
  8
0
100
AcDbLine
 62
7
  6
CONTINUOUS
 10
160.3262640213
 20
228.4563972827
 11
158.1286723213
 21
220.5506080402
  0
LINE
  5
485
100
AcDbEntity
  8
0
100
AcDbLine
 62
7
  6
CONTINUOUS
 10
119.8461304442
 20
231.9849246231
 11
122.4702692785
 21
231.1550980208
  0
LINE
  5
486
100
AcDbEntity
  8
0
100
AcDbLine
 62
7
  6
CONTINUOUS
 10
122.4702692785
 20
231.1550980208
 11
128.4006303351
 21
229.1403392225
  0
LINE
  5
487
100
AcDbEntity
  8
0
100
AcDbLine
 62
7
  6
CONTINUOUS
 10
128.4006303351
 20
229.1403392225
 11
134.7461304442
 21
226.6146246231
  0
LINE
  5
488
100
AcDbEntity
  8
0
100
AcDbLine
 62
7
  6
CONTINUOUS
 10
158.1286723213
 20
220.5506080402
 11
158.5253872737
 21
212.9590842195
  0
LINE
  5
489
100
AcDbEntity
  8
0
100
AcDbLine
 62
7
  6
CONTINUOUS
 10
161.5159560666
 20
230.4849246231
 11
172.160019055
 21
230.4849246231
  0
LINE
  5
48A
100
AcDbEntity
  8
0
100
AcDbLine
 62
7
  6
CONTINUOUS
 10
158.5253872737
 20
212.9590842195
 11
160.6307490441
 21
205.704443805
  0
LINE
  5
48B
100
AcDbEntity
  8
ALL_AXIS
100
AcDbLine
 62
7
  6
CONTINUOUS
 10
119.8461304442
 20
231.9849246231
 11
172.160019055
 21
231.9849246231
  0
LINE
  5
48C
100
AcDbEntity
  8
0
100
AcDbLine
 62
7
  6
CONTINUOUS
 10
162.3956770507
 20
231.9849246231
 11
172.160019055
 21
231.9849246231
  0
LINE
  5
48D
100
AcDbEntity
  8
0
100
AcDbLine
 62
7
  6
CONTINUOUS
 10
160.6307490441
 20
205.704443805
 11
162.8833255877
 21
197.6829899497
  0
LINE
  5
48E
100
AcDbEntity
  8
0
100
AcDbLine
 62
7
  6
CONTINUOUS
 10
164.3359260584
 20
187.7728953041
 11
165.7223014602
 21
180.9849246231
  0
LINE
  5
48F
100
AcDbEntity
  8
0
100
AcDbLine
 62
7
  6
CONTINUOUS
 10
162.8833255877
 20
197.6829899497
 11
164.3359260584
 21
187.7728953041
  0
LINE
  5
490
100
AcDbEntity
  8
0
100
AcDbLine
 62
7
  6
CONTINUOUS
 10
172.160019055
 20
231.9849246231
 11
172.160019055
 21
230.4849246231
  0
LINE
  5
491
100
AcDbEntity
  8
ALL_AXIS
100
AcDbLine
 62
7
  6
CONTINUOUS
 10
172.160019055
 20
230.4849246231
 11
172.160019055
 21
182.4849246231
  0
LINE
  5
492
100
AcDbEntity
  8
0
100
AcDbLine
 62
7
  6
CONTINUOUS
 10
172.160019055
 20
182.4849246231
 11
172.160019055
 21
180.9849246231
  0
LINE
  5
493
100
AcDbEntity
  8
0
100
AcDbLine
 62
2
  6
CONTINUOUS
 10
165.4681608472
 20
182.2292477896
 11
165.7238376808
 21
182.4849246231
  0
LINE
  5
494
100
AcDbEntity
  8
0
100
AcDbLine
 62
2
  6
CONTINUOUS
 10
165.7080125584
 20
181.0548859384
 11
167.1380512431
 21
182.4849246231
  0
LINE
  5
495
100
AcDbEntity
  8
0
100
AcDbLine
 62
2
  6
CONTINUOUS
 10
167.0522648055
 20
180.9849246231
 11
168.5522648055
 21
182.4849246231
  0
LINE
  5
496
100
AcDbEntity
  8
0
100
AcDbLine
 62
2
  6
CONTINUOUS
 10
168.4664783679
 20
180.9849246231
 11
169.9664783679
 21
182.4849246231
  0
LINE
  5
497
100
AcDbEntity
  8
0
100
AcDbLine
 62
2
  6
CONTINUOUS
 10
169.8806919303
 20
180.9849246231
 11
171.3806919303
 21
182.4849246231
  0
LINE
  5
498
100
AcDbEntity
  8
0
100
AcDbLine
 62
2
  6
CONTINUOUS
 10
171.2949054926
 20
180.9849246231
 11
172.160019055
 21
181.8500381855
  0
ENDSEC
  0
SECTION
  2
OBJECTS
  0
DICTIONARY
  5
C
100
AcDbDictionary
280
0
281
1
  3
ACAD_GROUP
350
D
  3
ACAD_MLINESTYLE
350
17
  3
ACAD_LAYOUT
350
1A
  3
ACAD_PLOTSETTINGS
350
19
  3
ACAD_PLOTSTYLENAME
350
E
  0
DICTIONARY
  5
D
102
{ACAD_REACTORS
330
C
102
}
100
AcDbDictionary
280
0
281
1
  0
ACDBDICTIONARYWDFLT
  5
E
102
{ACAD_REACTORS
330
C
102
}
100
AcDbDictionary
281
1
  3
Normal
350
F
100
AcDbDictionaryWithDefault
340
F
  0
DICTIONARY
  5
17
102
{ACAD_REACTORS
330
C
102
}
100
AcDbDictionary
280
0
281
1
  3
Standard
350
18
  0
DICTIONARY
  5
19
102
{ACAD_REACTORS
330
C
102
}
100
AcDbDictionary
281
1
  0
DICTIONARY
  5
1A
102
{ACAD_REACTORS
330
C
102
}
100
AcDbDictionary
281
1
  3
Model
350
499
  3
Layout1
350
49A
  0
ACDBPLACEHOLDER
  5
F
102
{ACAD_REACTORS
330
E
102
}
  0
MLINESTYLE
  5
18
102
{ACAD_REACTORS
330
17
102
}
100
AcDbMlineStyle
  2
STANDARD
 70
0
  3

 62
256
 51
90.0
 52
90.0
 71
2
 49
0.5
 62
256
  6
BYLAYER
 49
-0.5
 62
256
  6
BYLAYER
  0
LAYOUT
  5
499
102
{ACAD_REACTORS
330
1A
102
}
100
AcDbPlotSettings
  1

  2
none_device
  4

  6

 40
0.0
 41
0.0
 42
0.0
 43
0.0
 44
210.0
 45
297.0
 46
0.0
 47
0.0
 48
0.0
 49
0.0
140
0.0
141
0.0
142
1.0
143
1.0
 70
1024
 72
1
 73
0
 74
0
  7

 75
0
147
1.0
148
0.0
149
0.0
100
AcDbLayout
  1
Model
 70
0
 71
0
 10
0.0
 20
0.0
 11
210.0
 21
297.0
 12
0.0
 22
0.0
 32
0.0
 14
0.0
 24
0.0
 34
0.0
 15
0.0
 25
0.0
 35
0.0
146
0.0
 13
0.0
 23
0.0
 33
0.0
 16
1.0
 26
0.0
 36
0.0
 17
0.0
 27
1.0
 37
0.0
 76
0
330
208
345
0
346
0
  0
LAYOUT
  5
49A
102
{ACAD_REACTORS
330
1A
102
}
100
AcDbPlotSettings
  1

  2
none_device
  4

  6

 40
0.0
 41
0.0
 42
0.0
 43
0.0
 44
210.0
 45
297.0
 46
0.0
 47
0.0
 48
0.0
 49
0.0
140
0.0
141
0.0
142
1.0
143
1.0
 70
0
 72
1
 73
0
 74
0
  7

 75
0
147
1.0
148
0.0
149
0.0
100
AcDbLayout
  1
Layout1
 70
0
 71
1
 10
0.0
 20
0.0
 11
210.0
 21
297.0
 12
0.0
 22
0.0
 32
0.0
 14
0.0
 24
0.0
 34
0.0
 15
0.0
 25
0.0
 35
0.0
146
0.0
 13
0.0
 23
0.0
 33
0.0
 16
1.0
 26
0.0
 36
0.0
 17
0.0
 27
1.0
 37
0.0
 76
0
330
209
345
0
346
0
  0
ENDSEC
  0
EOF
