  0
SECTION
  2
HEADER
  9
$ACADVER
  1
AC1015
  9
$DWGCODEPAGE
  3
ANSI_1252
  9
$EXTMAX
 10
210.0
 20
297.0
 30
0.0
  9
$EXTMIN
 10
0.0
 20
0.0
 30
0.0
  9
$LIMMIN
 10
0.0
 20
0.0
  9
$LIMMAX
 10
210.0
 20
297.0
  9
$VIEWCTR
 10
105.0
 20
148.5
  9
$VIEWSIZE
 40
297.0
  9
$CLAYER
  8
0
  9
$LTSCALE
 40
19.36
  9
$CELTYPE
  6
BYLAYER
  9
$DIMSCALE
 40
1.0
  9
$DIMASZ
 40
5.0
  9
$DIMEXO
 40
2.2
  9
$DIMDLI
 40
13.376
  9
$DIMEXE
 40
6.336
  9
$DIMCEN
 40
3.168
  9
$DIMLFAC
 40
1.0
  9
$DIMBLK
  1
_FILLED
  9
$DIMTXT
 40
4.0
  9
$DIMTOL
 70
1
  9
$DIMLIM
 70
0
  9
$DIMTFAC
 40
1.0
  9
$DIMTP
 40
0.00004
  9
$DIMTM
 40
0.00004
  9
$PDMODE
 70
3
  9
$PDSIZE
 40
0.3125
  9
$HANDSEED
  5
3B2
  9
$MEASUREMENT
 70
1
  9
$INSUNITS
 70
4
  0
ENDSEC
  0
SECTION
  2
CLASSES
  0
CLASS
  1
ACDBDICTIONARYWDFLT
  2
AcDbDictionaryWithDefault
  3
AutoCAD 2000
 90
0
280
0
281
0
  0
CLASS
  1
ACDBPLACEHOLDER
  2
AcDbPlaceHolder
  3
AutoCAD 2000
 90
0
280
0
281
0
  0
CLASS
  1
LAYOUT
  2
AcDbLayout
  3
AutoCAD 2000
 90
0
280
0
281
0
  0
ENDSEC
  0
SECTION
  2
TABLES
  0
TABLE
  2
VPORT
  5
8
100
AcDbSymbolTable
 70
2
  0
VPORT
  5
1F4
100
AcDbSymbolTableRecord
100
AcDbViewportTableRecord
  2
*ACTIVE
 70
0
 10
0.0
 20
0.0
 11
1.0
 21
1.0
 12
105.0
 22
148.5
 13
0.0
 23
0.0
 14
1.0
 24
1.0
 15
0.0
 25
0.0
 16
0.0
 26
0.0
 36
1.0
 17
0.0
 27
0.0
 37
0.0
 40
297.0
 41
0.7070707071
 42
50.0
 43
0.0
 44
0.0
 50
0.0
 51
0.0
 71
0
 72
100
 73
1
 74
1
 75
0
 76
0
 77
0
 78
0
  0
ENDTAB
  0
TABLE
  2
LTYPE
  5
5
100
AcDbSymbolTable
 70
6
  0
LTYPE
  5
14
100
AcDbSymbolTableRecord
100
AcDbLinetypeTableRecord
  2
BYBLOCK
 70
0
  3

 72
65
 73
0
 40
0.0
  0
LTYPE
  5
15
100
AcDbSymbolTableRecord
100
AcDbLinetypeTableRecord
  2
BYLAYER
 70
0
  3

 72
65
 73
0
 40
0.0
  0
LTYPE
  5
16
100
AcDbSymbolTableRecord
100
AcDbLinetypeTableRecord
  2
CONTINUOUS
 70
64
  3
Solid line
 72
65
 73
0
 40
0.0
  0
LTYPE
  5
1F5
100
AcDbSymbolTableRecord
100
AcDbLinetypeTableRecord
  2
CENTER
 70
64
  3
____ _ ____ _ ____ _ ____ _ ____ _ ____ _ ____
 72
65
 73
4
 40
0.6
 49
0.375
 74
0
 49
-0.075
 74
0
 49
0.075
 74
0
 49
-0.075
 74
0
  0
LTYPE
  5
1F6
100
AcDbSymbolTableRecord
100
AcDbLinetypeTableRecord
  2
HIDDEN
 70
64
  3
- - - - - - - - - - - - - - - - - - - -
 72
65
 73
2
 40
0.2
 49
0.1
 74
0
 49
-0.1
 74
0
  0
LTYPE
  5
1F7
100
AcDbSymbolTableRecord
100
AcDbLinetypeTableRecord
  2
PHANTOM
 70
64
  3
_____ _ _ _____ _ _ _____ _ _ _____
 72
65
 73
6
 40
0.8
 49
0.45
 74
0
 49
-0.05
 74
0
 49
0.1
 74
0
 49
-0.05
 74
0
 49
0.1
 74
0
 49
-0.05
 74
0
  0
LTYPE
  5
1F8
100
AcDbSymbolTableRecord
100
AcDbLinetypeTableRecord
  2
DOT
 70
64
  3
. . . . . . . . . . . . . . . . . . . .
 72
65
 73
2
 40
0.2
 49
0.1
 74
0
 49
-0.1
 74
0
  0
LTYPE
  5
1F9
100
AcDbSymbolTableRecord
100
AcDbLinetypeTableRecord
  2
DASHED
 70
64
  3
- - - - - - - - - - - - - - - - - - - -
 72
65
 73
2
 40
0.2
 49
0.1
 74
0
 49
-0.1
 74
0
  0
ENDTAB
  0
TABLE
  2
LAYER
  5
2
100
AcDbSymbolTable
 70
36
  0
LAYER
  5
10
100
AcDbSymbolTableRecord
100
AcDbLayerTableRecord
  2
0
 70
0
 62
7
  6
CONTINUOUS
370
-3
390
F
  0
LAYER
  5
1FA
100
AcDbSymbolTableRecord
100
AcDbLayerTableRecord
  2
DEFAULT_1
 70
0
 62
7
  6
CENTER
370
-3
390
F
  0
LAYER
  5
1FB
100
AcDbSymbolTableRecord
100
AcDbLayerTableRecord
  2
DEFAULT_2
 70
0
 62
8
  6
HIDDEN
370
-3
390
F
  0
LAYER
  5
1FC
100
AcDbSymbolTableRecord
100
AcDbLayerTableRecord
  2
DEFAULT_3
 70
0
 62
7
  6
PHANTOM
370
-3
390
F
  0
LAYER
  5
1FD
100
AcDbSymbolTableRecord
100
AcDbLayerTableRecord
  2
_2D_DELETED_OBJS
 70
0
 62
7
  6
CONTINUOUS
370
-3
390
F
  0
LAYER
  5
1FE
100
AcDbSymbolTableRecord
100
AcDbLayerTableRecord
  2
_BLACK_HOLE
 70
0
 62
7
  6
CONTINUOUS
370
-3
390
F
  0
LAYER
  5
1FF
100
AcDbSymbolTableRecord
100
AcDbLayerTableRecord
  2
ALL_AXIS
 70
0
 62
7
  6
CONTINUOUS
370
-3
390
F
  0
LAYER
  5
200
100
AcDbSymbolTableRecord
100
AcDbLayerTableRecord
  2
ALL_CHAMFER
 70
0
 62
7
  6
CONTINUOUS
370
-3
390
F
  0
LAYER
  5
201
100
AcDbSymbolTableRecord
100
AcDbLayerTableRecord
  2
ALL_CSYS
 70
0
 62
7
  6
CONTINUOUS
370
-3
390
F
  0
LAYER
  5
202
100
AcDbSymbolTableRecord
100
AcDbLayerTableRecord
  2
ALL_DIMENSIONS
 70
0
 62
7
  6
CONTINUOUS
370
-3
390
F
  0
LAYER
  5
203
100
AcDbSymbolTableRecord
100
AcDbLayerTableRecord
  2
ALL_GTOL
 70
0
 62
7
  6
CONTINUOUS
370
-3
390
F
  0
LAYER
  5
204
100
AcDbSymbolTableRecord
100
AcDbLayerTableRecord
  2
ALL_HOLE
 70
0
 62
7
  6
CONTINUOUS
370
-3
390
F
  0
LAYER
  5
205
100
AcDbSymbolTableRecord
100
AcDbLayerTableRecord
  2
ALL_PLANE
 70
0
 62
7
  6
CONTINUOUS
370
-3
390
F
  0
LAYER
  5
206
100
AcDbSymbolTableRecord
100
AcDbLayerTableRecord
  2
ALL_QUILT
 70
0
 62
7
  6
CONTINUOUS
370
-3
390
F
  0
LAYER
  5
207
100
AcDbSymbolTableRecord
100
AcDbLayerTableRecord
  2
ALL_ROUND
 70
0
 62
7
  6
CONTINUOUS
370
-3
390
F
  0
LAYER
  5
208
100
AcDbSymbolTableRecord
100
AcDbLayerTableRecord
  2
ALL_SURF_FIN
 70
0
 62
7
  6
CONTINUOUS
370
-3
390
F
  0
LAYER
  5
209
100
AcDbSymbolTableRecord
100
AcDbLayerTableRecord
  2
ALL_THREADS
 70
0
 62
7
  6
CONTINUOUS
370
-3
390
F
  0
LAYER
  5
20A
100
AcDbSymbolTableRecord
100
AcDbLayerTableRecord
  2
BLANK_DIM
 70
0
 62
7
  6
CONTINUOUS
370
-3
390
F
  0
LAYER
  5
20B
100
AcDbSymbolTableRecord
100
AcDbLayerTableRecord
  2
DATUMS
 70
0
 62
7
  6
CONTINUOUS
370
-3
390
F
  0
LAYER
  5
20C
100
AcDbSymbolTableRecord
100
AcDbLayerTableRecord
  2
XSEC_DATUMS
 70
0
 62
7
  6
CONTINUOUS
370
-3
390
F
  0
ENDTAB
  0
TABLE
  2
STYLE
  5
3
100
AcDbSymbolTable
 70
1
  0
STYLE
  5
11
100
AcDbSymbolTableRecord
100
AcDbTextStyleTableRecord
  2
STANDARD
 70
0
 40
0.0
 41
0.75
 50
0.0
 71
0
 42
0.2
  3
txt
  4

  0
ENDTAB
  0
TABLE
  2
VIEW
  5
6
100
AcDbSymbolTable
 70
0
  0
ENDTAB
  0
TABLE
  2
UCS
  5
7
100
AcDbSymbolTable
 70
0
  0
ENDTAB
  0
TABLE
  2
APPID
  5
9
100
AcDbSymbolTable
 70
1
  0
APPID
  5
20D
100
AcDbSymbolTableRecord
100
AcDbRegAppTableRecord
  2
ACAD
 70
0
  0
ENDTAB
  0
TABLE
  2
BLOCK_RECORD
  5
1
100
AcDbSymbolTable
 70
0
  0
BLOCK_RECORD
  5
1F
100
AcDbSymbolTableRecord
100
AcDbBlockTableRecord
  2
*MODEL_SPACE
  0
BLOCK_RECORD
  5
1B
100
AcDbSymbolTableRecord
100
AcDbBlockTableRecord
  2
*PAPER_SPACE
  0
ENDTAB
  0
TABLE
  2
DIMSTYLE
  5
A
100
AcDbSymbolTable
 70
1
100
AcDbDimStyleTable
 71
0
  0
DIMSTYLE
105
20E
100
AcDbSymbolTableRecord
100
AcDbDimStyleTableRecord
  2
STANDARD
 70
0
  3

  4

 40
1.0
 41
5.0
 42
0.0625
 43
0.38
 44
0.18
 45
0.0
 46
0.0
 47
0.00004
 48
0.00004
140
4.0
141
0.09
142
0.0
143
25.4
144
1.0
145
0.0
146
1.0
147
0.09
 71
1.0
 72
0.0
 73
0
 74
0
 75
0
 76
0
 77
1
 78
8
170
0
171
2
172
0
173
0
174
0
175
0
176
0
177
0
178
0
270
2
271
5
272
5
273
2
274
2
275
0
280
0
281
0
282
0
283
1
284
8
285
0
286
0
287
3
288
0
340
11
  0
ENDTAB
  0
ENDSEC
  0
SECTION
  2
BLOCKS
  0
BLOCK
  5
20
100
AcDbEntity
  8
0
100
AcDbBlockBegin
  2
*MODEL_SPACE
 70
0
 10
0.0
 20
0.0
 30
0.0
  3
*MODEL_SPACE
  1

  0
ENDBLK
  5
21
100
AcDbEntity
  8
0
100
AcDbBlockEnd
  0
BLOCK
  5
1C
100
AcDbEntity
  8
0
100
AcDbBlockBegin
  2
*PAPER_SPACE
 70
0
 10
0.0
 20
0.0
 30
0.0
  3
*PAPER_SPACE
  1

  0
ENDBLK
  5
1D
100
AcDbEntity
  8
0
100
AcDbBlockEnd
  0
ENDSEC
  0
SECTION
  2
ENTITIES
  0
LINE
  5
20F
100
AcDbEntity
  8
0
100
AcDbLine
 62
7
  6
CONTINUOUS
 10
205.0
 20
292.0
 11
20.0
 21
292.0
  0
LINE
  5
210
100
AcDbEntity
  8
0
100
AcDbLine
 62
7
  6
CONTINUOUS
 10
205.0
 20
292.0
 11
205.0
 21
53.0
  0
LINE
  5
211
100
AcDbEntity
  8
0
100
AcDbLine
 62
7
  6
CONTINUOUS
 10
205.0
 20
277.0
 11
20.0
 21
277.0
  0
LINE
  5
212
100
AcDbEntity
  8
0
100
AcDbLine
 62
7
  6
CONTINUOUS
 10
205.0
 20
269.0
 11
20.0
 21
269.0
  0
LINE
  5
213
100
AcDbEntity
  8
0
100
AcDbLine
 62
7
  6
CONTINUOUS
 10
205.0
 20
261.0
 11
20.0
 21
261.0
  0
LINE
  5
214
100
AcDbEntity
  8
0
100
AcDbLine
 62
7
  6
CONTINUOUS
 10
205.0
 20
253.0
 11
20.0
 21
253.0
  0
LINE
  5
215
100
AcDbEntity
  8
0
100
AcDbLine
 62
7
  6
CONTINUOUS
 10
205.0
 20
245.0
 11
20.0
 21
245.0
  0
LINE
  5
216
100
AcDbEntity
  8
0
100
AcDbLine
 62
7
  6
CONTINUOUS
 10
205.0
 20
237.0
 11
20.0
 21
237.0
  0
LINE
  5
217
100
AcDbEntity
  8
0
100
AcDbLine
 62
7
  6
CONTINUOUS
 10
205.0
 20
229.0
 11
20.0
 21
229.0
  0
LINE
  5
218
100
AcDbEntity
  8
0
100
AcDbLine
 62
7
  6
CONTINUOUS
 10
205.0
 20
221.0
 11
20.0
 21
221.0
  0
LINE
  5
219
100
AcDbEntity
  8
0
100
AcDbLine
 62
7
  6
CONTINUOUS
 10
205.0
 20
213.0
 11
20.0
 21
213.0
  0
LINE
  5
21A
100
AcDbEntity
  8
0
100
AcDbLine
 62
7
  6
CONTINUOUS
 10
205.0
 20
205.0
 11
20.0
 21
205.0
  0
LINE
  5
21B
100
AcDbEntity
  8
0
100
AcDbLine
 62
7
  6
CONTINUOUS
 10
205.0
 20
197.0
 11
20.0
 21
197.0
  0
LINE
  5
21C
100
AcDbEntity
  8
0
100
AcDbLine
 62
7
  6
CONTINUOUS
 10
205.0
 20
189.0
 11
20.0
 21
189.0
  0
LINE
  5
21D
100
AcDbEntity
  8
0
100
AcDbLine
 62
7
  6
CONTINUOUS
 10
205.0
 20
181.0
 11
20.0
 21
181.0
  0
LINE
  5
21E
100
AcDbEntity
  8
0
100
AcDbLine
 62
7
  6
CONTINUOUS
 10
205.0
 20
173.0
 11
20.0
 21
173.0
  0
LINE
  5
21F
100
AcDbEntity
  8
0
100
AcDbLine
 62
7
  6
CONTINUOUS
 10
205.0
 20
165.0
 11
20.0
 21
165.0
  0
LINE
  5
220
100
AcDbEntity
  8
0
100
AcDbLine
 62
7
  6
CONTINUOUS
 10
205.0
 20
157.0
 11
20.0
 21
157.0
  0
LINE
  5
221
100
AcDbEntity
  8
0
100
AcDbLine
 62
7
  6
CONTINUOUS
 10
205.0
 20
149.0
 11
20.0
 21
149.0
  0
LINE
  5
222
100
AcDbEntity
  8
0
100
AcDbLine
 62
7
  6
CONTINUOUS
 10
205.0
 20
141.0
 11
20.0
 21
141.0
  0
LINE
  5
223
100
AcDbEntity
  8
0
100
AcDbLine
 62
7
  6
CONTINUOUS
 10
205.0
 20
133.0
 11
20.0
 21
133.0
  0
LINE
  5
224
100
AcDbEntity
  8
0
100
AcDbLine
 62
7
  6
CONTINUOUS
 10
205.0
 20
125.0
 11
20.0
 21
125.0
  0
LINE
  5
225
100
AcDbEntity
  8
0
100
AcDbLine
 62
7
  6
CONTINUOUS
 10
205.0
 20
117.0
 11
20.0
 21
117.0
  0
LINE
  5
226
100
AcDbEntity
  8
0
100
AcDbLine
 62
7
  6
CONTINUOUS
 10
205.0
 20
109.0
 11
20.0
 21
109.0
  0
LINE
  5
227
100
AcDbEntity
  8
0
100
AcDbLine
 62
7
  6
CONTINUOUS
 10
205.0
 20
101.0
 11
20.0
 21
101.0
  0
LINE
  5
228
100
AcDbEntity
  8
0
100
AcDbLine
 62
7
  6
CONTINUOUS
 10
205.0
 20
93.0
 11
20.0
 21
93.0
  0
LINE
  5
229
100
AcDbEntity
  8
0
100
AcDbLine
 62
7
  6
CONTINUOUS
 10
205.0
 20
85.0
 11
20.0
 21
85.0
  0
LINE
  5
22A
100
AcDbEntity
  8
0
100
AcDbLine
 62
7
  6
CONTINUOUS
 10
205.0
 20
77.0
 11
20.0
 21
77.0
  0
LINE
  5
22B
100
AcDbEntity
  8
0
100
AcDbLine
 62
7
  6
CONTINUOUS
 10
205.0
 20
69.0
 11
20.0
 21
69.0
  0
LINE
  5
22C
100
AcDbEntity
  8
0
100
AcDbLine
 62
7
  6
CONTINUOUS
 10
205.0
 20
61.0
 11
20.0
 21
61.0
  0
LINE
  5
22D
100
AcDbEntity
  8
0
100
AcDbLine
 62
7
  6
CONTINUOUS
 10
205.0
 20
53.0
 11
20.0
 21
53.0
  0
LINE
  5
22E
100
AcDbEntity
  8
0
100
AcDbLine
 62
7
  6
CONTINUOUS
 10
183.0
 20
292.0
 11
183.0
 21
53.0
  0
LINE
  5
22F
100
AcDbEntity
  8
0
100
AcDbLine
 62
7
  6
CONTINUOUS
 10
173.0
 20
292.0
 11
173.0
 21
53.0
  0
LINE
  5
230
100
AcDbEntity
  8
0
100
AcDbLine
 62
7
  6
CONTINUOUS
 10
110.0
 20
292.0
 11
110.0
 21
53.0
  0
LINE
  5
231
100
AcDbEntity
  8
0
100
AcDbLine
 62
7
  6
CONTINUOUS
 10
40.0
 20
292.0
 11
40.0
 21
53.0
  0
LINE
  5
232
100
AcDbEntity
  8
0
100
AcDbLine
 62
7
  6
CONTINUOUS
 10
32.0
 20
292.0
 11
32.0
 21
53.0
  0
LINE
  5
233
100
AcDbEntity
  8
0
100
AcDbLine
 62
7
  6
CONTINUOUS
 10
26.0
 20
292.0
 11
26.0
 21
53.0
  0
LINE
  5
234
100
AcDbEntity
  8
0
100
AcDbLine
 62
7
  6
CONTINUOUS
 10
20.0
 20
292.0
 11
20.0
 21
53.0
  0
LWPOLYLINE
  5
235
100
AcDbEntity
  8
0
100
AcDbPolyline
 62
2
  6
CONTINUOUS
 90
4
 70
0
 43
0.35
 10
184.9999921875
 20
285.5223378906
 10
185.8502363281
 20
289.5223417969
 10
187.3502324219
 20
289.5223417969
 10
186.5000097656
 20
285.5223378906
  0
LWPOLYLINE
  5
236
100
AcDbEntity
  8
0
100
AcDbPolyline
 62
2
  6
CONTINUOUS
 90
2
 70
0
 43
0.35
 10
187.7165839844
 20
284.1890175781
 10
188.566828125
 20
288.189
  0
LWPOLYLINE
  5
237
100
AcDbEntity
  8
0
100
AcDbPolyline
 62
2
  6
CONTINUOUS
 90
7
 70
0
 43
0.35
 10
188.0000058594
 20
285.5223378906
 10
189.1249921875
 20
285.5223378906
 10
189.6417128906
 20
286.1889980469
 10
189.9251132813
 20
287.5223398438
 10
189.6918144531
 20
288.189
 10
188.9418164063
 20
288.189
 10
188.4251171875
 20
287.5223398438
  0
LWPOLYLINE
  5
238
100
AcDbEntity
  8
0
100
AcDbPolyline
 62
2
  6
CONTINUOUS
 90
5
 70
0
 43
0.35
 10
191.5668203125
 20
288.189
 10
191.1417089844
 20
286.1889980469
 10
191.3750078125
 20
285.5223378906
 10
191.7499960938
 20
285.5223378906
 10
192.7834160156
 20
286.8556796875
  0
LWPOLYLINE
  5
239
100
AcDbEntity
  8
0
100
AcDbPolyline
 62
2
  6
CONTINUOUS
 90
2
 70
0
 43
0.35
 10
193.0668164063
 20
288.189
 10
192.4999941406
 20
285.5223378906
  0
LWPOLYLINE
  5
23A
100
AcDbEntity
  8
0
100
AcDbPolyline
 62
2
  6
CONTINUOUS
 90
5
 70
0
 43
0.35
 10
193.9999902344
 20
285.5223378906
 10
194.5668125
 20
288.189
 10
195.0334101562
 20
286.8556796875
 10
196.0668085937
 20
288.189
 10
195.5000078125
 20
285.5223378906
  0
LWPOLYLINE
  5
23B
100
AcDbEntity
  8
0
100
AcDbPolyline
 62
2
  6
CONTINUOUS
 90
10
 70
0
 43
0.35
 10
197.2834042969
 20
286.8556796875
 10
198.4084121094
 20
286.8556796875
 10
198.9251113281
 20
287.5223398438
 10
198.6918125
 20
288.189
 10
197.9418144531
 20
288.189
 10
197.4251152344
 20
287.5223398438
 10
197.1417148438
 20
286.1889980469
 10
197.3749921875
 20
285.5223378906
 10
198.1249902344
 20
285.5223378906
 10
198.6417109375
 20
286.1889980469
  0
LWPOLYLINE
  5
23C
100
AcDbEntity
  8
0
100
AcDbPolyline
 62
2
  6
CONTINUOUS
 90
2
 70
0
 43
0.35
 10
201.1751054687
 20
287.5223398438
 10
202.6751230469
 20
287.5223398438
  0
LWPOLYLINE
  5
23D
100
AcDbEntity
  8
0
100
AcDbPolyline
 62
2
  6
CONTINUOUS
 90
4
 70
0
 43
0.35
 10
187.0668105469
 20
282.054953125
 10
186.9251210937
 20
281.3882929688
 10
187.1583984375
 20
280.7216328125
 10
188.0959121094
 20
280.7216328125
  0
LWPOLYLINE
  5
23E
100
AcDbEntity
  8
0
100
AcDbPolyline
 62
2
  6
CONTINUOUS
 90
2
 70
0
 43
0.35
 10
188.3793125
 20
282.054953125
 10
187.8124902344
 20
279.3882910156
  0
LWPOLYLINE
  5
23F
100
AcDbEntity
  8
0
100
AcDbPolyline
 62
2
  6
CONTINUOUS
 90
8
 70
0
 43
0.35
 10
191.425109375
 20
281.3882929688
 10
191.1918105469
 20
282.054953125
 10
190.4418125
 20
282.054953125
 10
189.9251132813
 20
281.3882929688
 10
189.6417128906
 20
280.0549726563
 10
189.8749902344
 20
279.3882910156
 10
190.6250097656
 20
279.3882910156
 10
191.1417089844
 20
280.0549726563
  0
LWPOLYLINE
  5
240
100
AcDbEntity
  8
0
100
AcDbPolyline
 62
2
  6
CONTINUOUS
 90
3
 70
0
 43
0.35
 10
191.5668203125
 20
282.054953125
 10
191.1417089844
 20
280.0549726563
 10
191.1874921875
 20
279.3882910156
  0
LWPOLYLINE
  5
241
100
AcDbEntity
  8
0
100
AcDbPolyline
 62
2
  6
CONTINUOUS
 90
2
 70
0
 43
0.35
 10
192.4999941406
 20
279.3882910156
 10
193.0668164063
 20
282.054953125
  0
LWPOLYLINE
  5
242
100
AcDbEntity
  8
0
100
AcDbPolyline
 62
2
  6
CONTINUOUS
 90
2
 70
0
 43
0.35
 10
192.7834160156
 20
280.7216328125
 10
194.2834121094
 20
280.7216328125
  0
LWPOLYLINE
  5
243
100
AcDbEntity
  8
0
100
AcDbPolyline
 62
2
  6
CONTINUOUS
 90
2
 70
0
 43
0.35
 10
194.5668125
 20
282.054953125
 10
193.9999902344
 20
279.3882910156
  0
LWPOLYLINE
  5
244
100
AcDbEntity
  8
0
100
AcDbPolyline
 62
2
  6
CONTINUOUS
 90
5
 70
0
 43
0.35
 10
196.0668085937
 20
282.054953125
 10
195.6416972656
 20
280.0549726563
 10
195.8749960938
 20
279.3882910156
 10
196.2500058594
 20
279.3882910156
 10
197.2834042969
 20
280.7216328125
  0
LWPOLYLINE
  5
245
100
AcDbEntity
  8
0
100
AcDbPolyline
 62
2
  6
CONTINUOUS
 90
2
 70
0
 43
0.35
 10
197.5668261719
 20
282.054953125
 10
197.0000039062
 20
279.3882910156
  0
LWPOLYLINE
  5
246
100
AcDbEntity
  8
0
100
AcDbPolyline
 62
2
  6
CONTINUOUS
 90
10
 70
0
 43
0.35
 10
198.7834003906
 20
280.7216328125
 10
199.9084082031
 20
280.7216328125
 10
200.4251074219
 20
281.3882929688
 10
200.1918085937
 20
282.054953125
 10
199.4418105469
 20
282.054953125
 10
198.9251113281
 20
281.3882929688
 10
198.6417109375
 20
280.0549726563
 10
198.8750097656
 20
279.3882910156
 10
199.6250078125
 20
279.3882910156
 10
200.1417070312
 20
280.0549726563
  0
LWPOLYLINE
  5
247
100
AcDbEntity
  8
0
100
AcDbPolyline
 62
2
  6
CONTINUOUS
 90
2
 70
0
 43
0.35
 10
174.4249960938
 20
282.7109140625
 10
175.1689570312
 20
286.2109121094
  0
LWPOLYLINE
  5
248
100
AcDbEntity
  8
0
100
AcDbPolyline
 62
2
  6
CONTINUOUS
 90
3
 70
0
 43
0.35
 10
174.7969765625
 20
284.4609023438
 10
175.1251074219
 20
284.4609023438
 10
176.4814375
 20
286.2109121094
  0
LWPOLYLINE
  5
249
100
AcDbEntity
  8
0
100
AcDbPolyline
 62
2
  6
CONTINUOUS
 90
2
 70
0
 43
0.35
 10
175.7374980469
 20
282.7109140625
 10
175.1251074219
 20
284.4609023438
  0
LWPOLYLINE
  5
24A
100
AcDbEntity
  8
0
100
AcDbPolyline
 62
2
  6
CONTINUOUS
 90
9
 70
0
 43
0.35
 10
177.1739863281
 20
283.2942363281
 10
177.3781308594
 20
282.7109140625
 10
178.0343710938
 20
282.7109140625
 10
178.4864882812
 20
283.2942363281
 10
178.7344824219
 20
284.4609023438
 10
178.5303378906
 20
285.0442460938
 10
177.8740976563
 20
285.0442460938
 10
177.4219804688
 20
284.4609023438
 10
177.1739863281
 20
283.2942363281
  0
LWPOLYLINE
  5
24B
100
AcDbEntity
  8
0
100
AcDbPolyline
 62
2
  6
CONTINUOUS
 90
3
 70
0
 43
0.35
 10
179.6750039063
 20
282.7109140625
 10
180.8272109375
 20
285.0442460938
 10
180.9875058594
 20
282.7109140625
  0
LWPOLYLINE
  5
24C
100
AcDbEntity
  8
0
100
AcDbPolyline
 62
2
  6
CONTINUOUS
 90
5
 70
0
 43
0.35
 10
182.4640625
 20
282.7109140625
 10
182.3000078125
 20
282.7109140625
 10
182.3619902344
 20
283.0025644531
 10
182.5260664063
 20
283.0025644531
 10
182.4640625
 20
282.7109140625
  0
LWPOLYLINE
  5
24D
100
AcDbEntity
  8
0
100
AcDbPolyline
 62
2
  6
CONTINUOUS
 90
2
 70
0
 43
0.35
 10
118.9999921875
 20
281.9441582031
 10
120.06278125
 20
286.9441523438
  0
LWPOLYLINE
  5
24E
100
AcDbEntity
  8
0
100
AcDbPolyline
 62
2
  6
CONTINUOUS
 90
2
 70
0
 43
0.35
 10
119.5313867187
 20
284.4441445313
 10
121.4063925781
 20
284.4441445313
  0
LWPOLYLINE
  5
24F
100
AcDbEntity
  8
0
100
AcDbPolyline
 62
2
  6
CONTINUOUS
 90
2
 70
0
 43
0.35
 10
121.9377871094
 20
286.9441523438
 10
120.8749980469
 20
281.9441582031
  0
LWPOLYLINE
  5
250
100
AcDbEntity
  8
0
100
AcDbPolyline
 62
2
  6
CONTINUOUS
 90
8
 70
0
 43
0.35
 10
125.1563828125
 20
284.4441445313
 10
124.8647753906
 20
285.2774804688
 10
123.9272617188
 20
285.2774804688
 10
123.2813984375
 20
284.4441445313
 10
122.9271210938
 20
282.7774726563
 10
123.21875
 20
281.9441582031
 10
124.1562421875
 20
281.9441582031
 10
124.8021269531
 20
282.7774726563
  0
LWPOLYLINE
  5
251
100
AcDbEntity
  8
0
100
AcDbPolyline
 62
2
  6
CONTINUOUS
 90
3
 70
0
 43
0.35
 10
125.3335214844
 20
285.2774804688
 10
124.8021269531
 20
282.7774726563
 10
124.8593828125
 20
281.9441582031
  0
LWPOLYLINE
  5
252
100
AcDbEntity
  8
0
100
AcDbPolyline
 62
2
  6
CONTINUOUS
 90
5
 70
0
 43
0.35
 10
127.2085273437
 20
285.2774804688
 10
126.6771328125
 20
282.7774726563
 10
126.9687402344
 20
281.9441582031
 10
127.4375078125
 20
281.9441582031
 10
128.7292558594
 20
283.6108085938
  0
LWPOLYLINE
  5
253
100
AcDbEntity
  8
0
100
AcDbPolyline
 62
2
  6
CONTINUOUS
 90
2
 70
0
 43
0.35
 10
129.0835117188
 20
285.2774804688
 10
128.375
 20
281.9441582031
  0
LWPOLYLINE
  5
254
100
AcDbEntity
  8
0
100
AcDbPolyline
 62
2
  6
CONTINUOUS
 90
5
 70
0
 43
0.35
 10
130.2500058594
 20
281.9441582031
 10
130.9585175781
 20
285.2774804688
 10
131.5417539062
 20
283.6108085938
 10
132.8335234375
 20
285.2774804688
 10
132.1249902344
 20
281.9441582031
  0
LWPOLYLINE
  5
255
100
AcDbEntity
  8
0
100
AcDbPolyline
 62
2
  6
CONTINUOUS
 90
10
 70
0
 43
0.35
 10
134.3542519531
 20
283.6108085938
 10
135.7605117188
 20
283.6108085938
 10
136.4063964844
 20
284.4441445313
 10
136.1147675781
 20
285.2774804688
 10
135.1772753906
 20
285.2774804688
 10
134.531390625
 20
284.4441445313
 10
134.1771347656
 20
282.7774726563
 10
134.4687421875
 20
281.9441582031
 10
135.4062558594
 20
281.9441582031
 10
136.052140625
 20
282.7774726563
  0
LWPOLYLINE
  5
256
100
AcDbEntity
  8
0
100
AcDbPolyline
 62
2
  6
CONTINUOUS
 90
2
 70
0
 43
0.35
 10
137.7500078125
 20
281.9441582031
 10
138.4585195313
 20
285.2774804688
  0
LWPOLYLINE
  5
257
100
AcDbEntity
  8
0
100
AcDbPolyline
 62
2
  6
CONTINUOUS
 90
2
 70
0
 43
0.35
 10
138.1042636719
 20
283.6108085938
 10
139.9792695313
 20
283.6108085938
  0
LWPOLYLINE
  5
258
100
AcDbEntity
  8
0
100
AcDbPolyline
 62
2
  6
CONTINUOUS
 90
2
 70
0
 43
0.35
 10
140.3335253906
 20
285.2774804688
 10
139.6249921875
 20
281.9441582031
  0
LWPOLYLINE
  5
259
100
AcDbEntity
  8
0
100
AcDbPolyline
 62
2
  6
CONTINUOUS
 90
9
 70
0
 43
0.35
 10
141.6771367188
 20
282.7774726563
 10
141.9687441406
 20
281.9441582031
 10
142.9062578125
 20
281.9441582031
 10
143.5521210938
 20
282.7774726563
 10
143.9063984375
 20
284.4441445313
 10
143.6147695313
 20
285.2774804688
 10
142.6772773438
 20
285.2774804688
 10
142.0313925781
 20
284.4441445313
 10
141.6771367188
 20
282.7774726563
  0
LWPOLYLINE
  5
25A
100
AcDbEntity
  8
0
100
AcDbPolyline
 62
2
  6
CONTINUOUS
 90
12
 70
0
 43
0.35
 10
145.7813828125
 20
284.4441445313
 10
147.0731523438
 20
286.1108164063
 10
147.2502910156
 20
286.9441523438
 10
146.7815234375
 20
286.9441523438
 10
146.1356601563
 20
286.1108164063
 10
145.4271269531
 20
282.7774726563
 10
145.7187558594
 20
281.9441582031
 10
146.6562480469
 20
281.9441582031
 10
147.3021328125
 20
282.7774726563
 10
147.6563886719
 20
284.4441445313
 10
147.36478125
 20
285.2774804688
 10
146.4272675781
 20
285.2774804688
  0
LWPOLYLINE
  5
25B
100
AcDbEntity
  8
0
100
AcDbPolyline
 62
2
  6
CONTINUOUS
 90
8
 70
0
 43
0.35
 10
151.4064003906
 20
284.4441445313
 10
151.1147714844
 20
285.2774804688
 10
150.1772792969
 20
285.2774804688
 10
149.5313945312
 20
284.4441445313
 10
149.1771386719
 20
282.7774726563
 10
149.4687460937
 20
281.9441582031
 10
150.4062597656
 20
281.9441582031
 10
151.0521230469
 20
282.7774726563
  0
LWPOLYLINE
  5
25C
100
AcDbEntity
  8
0
100
AcDbPolyline
 62
2
  6
CONTINUOUS
 90
3
 70
0
 43
0.35
 10
151.5835175781
 20
285.2774804688
 10
151.0521230469
 20
282.7774726563
 10
151.1093789062
 20
281.9441582031
  0
LWPOLYLINE
  5
25D
100
AcDbEntity
  8
0
100
AcDbPolyline
 62
2
  6
CONTINUOUS
 90
2
 70
0
 43
0.35
 10
152.7499902344
 20
281.9441582031
 10
153.4585234375
 20
285.2774804688
  0
LWPOLYLINE
  5
25E
100
AcDbEntity
  8
0
100
AcDbPolyline
 62
2
  6
CONTINUOUS
 90
2
 70
0
 43
0.35
 10
153.1042675781
 20
283.6108085938
 10
154.9792519531
 20
283.6108085938
  0
LWPOLYLINE
  5
25F
100
AcDbEntity
  8
0
100
AcDbPolyline
 62
2
  6
CONTINUOUS
 90
2
 70
0
 43
0.35
 10
155.3335292969
 20
285.2774804688
 10
154.6249960937
 20
281.9441582031
  0
LWPOLYLINE
  5
260
100
AcDbEntity
  8
0
100
AcDbPolyline
 62
2
  6
CONTINUOUS
 90
5
 70
0
 43
0.35
 10
157.2085136719
 20
285.2774804688
 10
156.677140625
 20
282.7774726563
 10
156.9687480469
 20
281.9441582031
 10
157.4374941406
 20
281.9441582031
 10
158.7292636719
 20
283.6108085938
  0
LWPOLYLINE
  5
261
100
AcDbEntity
  8
0
100
AcDbPolyline
 62
2
  6
CONTINUOUS
 90
2
 70
0
 43
0.35
 10
159.0835195313
 20
285.2774804688
 10
158.3750078125
 20
281.9441582031
  0
LWPOLYLINE
  5
262
100
AcDbEntity
  8
0
100
AcDbPolyline
 62
2
  6
CONTINUOUS
 90
10
 70
0
 43
0.35
 10
160.6042695313
 20
283.6108085938
 10
162.0105078125
 20
283.6108085938
 10
162.6563925781
 20
284.4441445313
 10
162.3647636719
 20
285.2774804688
 10
161.4272714844
 20
285.2774804688
 10
160.7813867187
 20
284.4441445313
 10
160.4271308594
 20
282.7774726563
 10
160.7187597656
 20
281.9441582031
 10
161.6562519531
 20
281.9441582031
 10
162.3021367188
 20
282.7774726563
  0
LWPOLYLINE
  5
263
100
AcDbEntity
  8
0
100
AcDbPolyline
 62
2
  6
CONTINUOUS
 90
9
 70
0
 43
0.35
 10
54.8437490234
 20
281.9441582031
 10
54.5521308594
 20
282.7774726563
 10
55.2606533203
 20
286.1108164063
 10
55.9065380859
 20
286.9441523438
 10
56.8440302734
 20
286.9441523438
 10
57.1356484375
 20
286.1108164063
 10
56.4271259766
 20
282.7774726563
 10
55.7812519531
 20
281.9441582031
 10
54.8437490234
 20
281.9441582031
  0
LWPOLYLINE
  5
264
100
AcDbEntity
  8
0
100
AcDbPolyline
 62
2
  6
CONTINUOUS
 90
10
 70
0
 43
0.35
 10
60.2397753906
 20
285.2774804688
 10
59.3022724609
 20
285.2774804688
 10
58.6563876953
 20
284.4441445313
 10
58.3021318359
 20
282.7774726563
 10
58.59375
 20
281.9441582031
 10
59.5312529297
 20
281.9441582031
 10
60.1771269531
 20
282.7774726563
 10
60.5313935547
 20
284.4441445313
 10
59.6565283203
 20
286.9441523438
 10
61.0627880859
 20
286.9441523438
  0
LWPOLYLINE
  5
265
100
AcDbEntity
  8
0
100
AcDbPolyline
 62
2
  6
CONTINUOUS
 90
9
 70
0
 43
0.35
 10
62.0521328125
 20
282.7774726563
 10
62.3437509766
 20
281.9441582031
 10
63.2812539062
 20
281.9441582031
 10
63.9271279297
 20
282.7774726563
 10
64.2813945312
 20
284.4441445313
 10
63.9897763672
 20
285.2774804688
 10
63.0522734375
 20
285.2774804688
 10
62.4063886719
 20
284.4441445313
 10
62.0521328125
 20
282.7774726563
  0
LWPOLYLINE
  5
266
100
AcDbEntity
  8
0
100
AcDbPolyline
 62
2
  6
CONTINUOUS
 90
9
 70
0
 43
0.35
 10
65.8021337891
 20
282.7774726563
 10
66.0937519531
 20
281.9441582031
 10
67.0312548828
 20
281.9441582031
 10
67.6771289062
 20
282.7774726563
 10
67.3855107422
 20
283.6108085938
 10
68.0313955078
 20
284.4441445313
 10
67.7397666016
 20
285.2774804688
 10
66.8022744141
 20
285.2774804688
 10
66.1563896484
 20
284.4441445313
  0
LWPOLYLINE
  5
267
100
AcDbEntity
  8
0
100
AcDbPolyline
 62
2
  6
CONTINUOUS
 90
2
 70
0
 43
0.35
 10
66.9167646484
 20
283.6108085938
 10
67.3855107422
 20
283.6108085938
  0
LWPOLYLINE
  5
268
100
AcDbEntity
  8
0
100
AcDbPolyline
 62
2
  6
CONTINUOUS
 90
2
 70
0
 43
0.35
 10
69.3749960937
 20
281.9441582031
 10
70.0835185547
 20
285.2774804688
  0
LWPOLYLINE
  5
269
100
AcDbEntity
  8
0
100
AcDbPolyline
 62
2
  6
CONTINUOUS
 90
2
 70
0
 43
0.35
 10
69.7292626953
 20
283.6108085938
 10
71.6042578125
 20
283.6108085938
  0
LWPOLYLINE
  5
26A
100
AcDbEntity
  8
0
100
AcDbPolyline
 62
2
  6
CONTINUOUS
 90
2
 70
0
 43
0.35
 10
71.9585244141
 20
285.2774804688
 10
71.2500019531
 20
281.9441582031
  0
LWPOLYLINE
  5
26B
100
AcDbEntity
  8
0
100
AcDbPolyline
 62
2
  6
CONTINUOUS
 90
8
 70
0
 43
0.35
 10
75.5313867187
 20
284.4441445313
 10
75.2397685547
 20
285.2774804688
 10
74.3022763672
 20
285.2774804688
 10
73.6563916016
 20
284.4441445313
 10
73.3021357422
 20
282.7774726563
 10
73.5937539062
 20
281.9441582031
 10
74.5312460937
 20
281.9441582031
 10
75.1771308594
 20
282.7774726563
  0
LWPOLYLINE
  5
26C
100
AcDbEntity
  8
0
100
AcDbPolyline
 62
2
  6
CONTINUOUS
 90
3
 70
0
 43
0.35
 10
75.7085253906
 20
285.2774804688
 10
75.1771308594
 20
282.7774726563
 10
75.2343759766
 20
281.9441582031
  0
LWPOLYLINE
  5
26D
100
AcDbEntity
  8
0
100
AcDbPolyline
 62
2
  6
CONTINUOUS
 90
4
 70
0
 43
0.35
 10
77.5835205078
 20
285.2774804688
 10
77.4063925781
 20
284.4441445313
 10
77.6980107422
 20
283.6108085938
 10
78.8698867187
 20
283.6108085938
  0
LWPOLYLINE
  5
26E
100
AcDbEntity
  8
0
100
AcDbPolyline
 62
2
  6
CONTINUOUS
 90
2
 70
0
 43
0.35
 10
79.2241425781
 20
285.2774804688
 10
78.5156201172
 20
281.9441582031
  0
LWPOLYLINE
  5
26F
100
AcDbEntity
  8
0
100
AcDbPolyline
 62
2
  6
CONTINUOUS
 90
10
 70
0
 43
0.35
 10
80.979265625
 20
283.6108085938
 10
82.3855146484
 20
283.6108085938
 10
83.0313886719
 20
284.4441445313
 10
82.7397705078
 20
285.2774804688
 10
81.8022675781
 20
285.2774804688
 10
81.1563935547
 20
284.4441445313
 10
80.8021269531
 20
282.7774726563
 10
81.0937451172
 20
281.9441582031
 10
82.0312480469
 20
281.9441582031
 10
82.6771328125
 20
282.7774726563
  0
LWPOLYLINE
  5
270
100
AcDbEntity
  8
0
100
AcDbPolyline
 62
2
  6
CONTINUOUS
 90
2
 70
0
 43
0.35
 10
84.375
 20
281.9441582031
 10
85.0835224609
 20
285.2774804688
  0
LWPOLYLINE
  5
271
100
AcDbEntity
  8
0
100
AcDbPolyline
 62
2
  6
CONTINUOUS
 90
2
 70
0
 43
0.35
 10
84.7292558594
 20
283.6108085938
 10
86.6042617187
 20
283.6108085938
  0
LWPOLYLINE
  5
272
100
AcDbEntity
  8
0
100
AcDbPolyline
 62
2
  6
CONTINUOUS
 90
2
 70
0
 43
0.35
 10
86.9585175781
 20
285.2774804688
 10
86.2499951172
 20
281.9441582031
  0
LWPOLYLINE
  5
273
100
AcDbEntity
  8
0
100
AcDbPolyline
 62
2
  6
CONTINUOUS
 90
5
 70
0
 43
0.35
 10
88.8335234375
 20
285.2774804688
 10
88.3021289062
 20
282.7774726563
 10
88.5937470703
 20
281.9441582031
 10
89.0625039062
 20
281.9441582031
 10
90.3542626953
 20
283.6108085938
  0
LWPOLYLINE
  5
274
100
AcDbEntity
  8
0
100
AcDbPolyline
 62
2
  6
CONTINUOUS
 90
2
 70
0
 43
0.35
 10
90.7085185547
 20
285.2774804688
 10
89.9999960937
 20
281.9441582031
  0
LWPOLYLINE
  5
275
100
AcDbEntity
  8
0
100
AcDbPolyline
 62
2
  6
CONTINUOUS
 90
10
 70
0
 43
0.35
 10
92.2292578125
 20
283.6108085938
 10
93.6355068359
 20
283.6108085938
 10
94.2813916016
 20
284.4441445313
 10
93.9897734375
 20
285.2774804688
 10
93.0522705078
 20
285.2774804688
 10
92.4063964844
 20
284.4441445313
 10
92.0521298828
 20
282.7774726563
 10
92.3437480469
 20
281.9441582031
 10
93.2812509766
 20
281.9441582031
 10
93.9271357422
 20
282.7774726563
  0
LWPOLYLINE
  5
276
100
AcDbEntity
  8
0
100
AcDbPolyline
 62
2
  6
CONTINUOUS
 90
4
 70
0
 43
0.35
 10
36.1086435547
 20
279.95
 10
32.6086455078
 20
280.6939394531
 10
32.6086455078
 20
281.8314511719
 10
36.1086435547
 20
281.0874902344
  0
LWPOLYLINE
  5
277
100
AcDbEntity
  8
0
100
AcDbPolyline
 62
2
  6
CONTINUOUS
 90
9
 70
0
 43
0.35
 10
35.5253105469
 20
282.3489882813
 10
36.1086435547
 20
282.5093691406
 10
36.1086435547
 20
283.078125
 10
35.5253105469
 20
283.4865
 10
34.3586445312
 20
283.7344726563
 10
33.7753115234
 20
283.5740917969
 10
33.7753115234
 20
283.0053359375
 10
34.3586445312
 20
282.5969824219
 10
35.5253105469
 20
282.3489882813
  0
LWPOLYLINE
  5
278
100
AcDbEntity
  8
0
100
AcDbPolyline
 62
2
  6
CONTINUOUS
 90
9
 70
0
 43
0.35
 10
35.5253105469
 20
284.6239902344
 10
36.1086435547
 20
284.7843710938
 10
36.1086435547
 20
285.3531269531
 10
35.5253105469
 20
285.7615019531
 10
34.9419775391
 20
285.6010996094
 10
34.3586445312
 20
286.0094746094
 10
33.7753115234
 20
285.84909375
 10
33.7753115234
 20
285.2803378906
 10
34.3586445312
 20
284.871984375
  0
LWPOLYLINE
  5
279
100
AcDbEntity
  8
0
100
AcDbPolyline
 62
2
  6
CONTINUOUS
 90
2
 70
0
 43
0.35
 10
34.9419775391
 20
285.3167324219
 10
34.9419775391
 20
285.6010996094
  0
LWPOLYLINE
  5
27A
100
AcDbEntity
  8
0
100
AcDbPolyline
 62
2
  6
CONTINUOUS
 90
5
 70
0
 43
0.35
 10
36.1086435547
 20
286.9171894531
 10
36.1086435547
 20
286.7750058594
 10
35.8169824219
 20
286.8369882813
 10
35.8169824219
 20
286.9791933594
 10
36.1086435547
 20
286.9171894531
  0
LWPOLYLINE
  5
27B
100
AcDbEntity
  8
0
100
AcDbPolyline
 62
2
  6
CONTINUOUS
 90
11
 70
0
 43
0.35
 10
29.5253154297
 20
280.0739863281
 10
30.1086484375
 20
280.2343671875
 10
30.1086484375
 20
280.8031230469
 10
29.5253154297
 20
281.2114980469
 10
28.9419824219
 20
281.335484375
 10
28.3586494141
 20
281.1751035156
 10
27.7753056641
 20
281.5834570313
 10
27.1919726562
 20
281.7074648438
 10
26.6086396484
 20
281.5470625
 10
26.6086396484
 20
280.978328125
 10
27.1919726562
 20
280.569953125
  0
LWPOLYLINE
  5
27C
100
AcDbEntity
  8
0
100
AcDbPolyline
 62
2
  6
CONTINUOUS
 90
2
 70
0
 43
0.35
 10
28.3586494141
 20
280.8907148438
 10
28.3586494141
 20
281.1751035156
  0
LWPOLYLINE
  5
27D
100
AcDbEntity
  8
0
100
AcDbPolyline
 62
2
  6
CONTINUOUS
 90
9
 70
0
 43
0.35
 10
29.5253154297
 20
282.3489882813
 10
30.1086484375
 20
282.5093691406
 10
30.1086484375
 20
283.078125
 10
29.5253154297
 20
283.4865
 10
28.3586494141
 20
283.7344726563
 10
27.7753056641
 20
283.5740917969
 10
27.7753056641
 20
283.0053359375
 10
28.3586494141
 20
282.5969824219
 10
29.5253154297
 20
282.3489882813
  0
LWPOLYLINE
  5
27E
100
AcDbEntity
  8
0
100
AcDbPolyline
 62
2
  6
CONTINUOUS
 90
2
 70
0
 43
0.35
 10
30.1086484375
 20
284.5000039063
 10
27.7753056641
 20
284.9959707031
  0
LWPOLYLINE
  5
27F
100
AcDbEntity
  8
0
100
AcDbPolyline
 62
2
  6
CONTINUOUS
 90
2
 70
0
 43
0.35
 10
28.9419824219
 20
284.7479765625
 10
28.9419824219
 20
285.8854882813
  0
LWPOLYLINE
  5
280
100
AcDbEntity
  8
0
100
AcDbPolyline
 62
2
  6
CONTINUOUS
 90
2
 70
0
 43
0.35
 10
27.7753056641
 20
286.1334609375
 10
30.1086484375
 20
285.6374941406
  0
LWPOLYLINE
  5
281
100
AcDbEntity
  8
0
100
AcDbPolyline
 62
2
  6
CONTINUOUS
 90
8
 70
0
 43
0.35
 10
28.3586494141
 20
288.2844765625
 10
27.7753056641
 20
288.1240957031
 10
27.7753056641
 20
287.5553398438
 10
28.3586494141
 20
287.1469648438
 10
29.5253154297
 20
286.8989921875
 10
30.1086484375
 20
287.0593730469
 10
30.1086484375
 20
287.6281289063
 10
29.5253154297
 20
288.0364824219
  0
LWPOLYLINE
  5
282
100
AcDbEntity
  8
0
100
AcDbPolyline
 62
2
  6
CONTINUOUS
 90
3
 70
0
 43
0.35
 10
27.7753056641
 20
288.4084628906
 10
29.5253154297
 20
288.0364824219
 10
30.1086484375
 20
288.0546796875
  0
LWPOLYLINE
  5
283
100
AcDbEntity
  8
0
100
AcDbPolyline
 62
2
  6
CONTINUOUS
 90
11
 70
0
 43
0.35
 10
20.6086445312
 20
278.9876933594
 10
20.6086445312
 20
278.7033261719
 10
21.1919775391
 20
278.2949511719
 10
22.3586435547
 20
278.0469785156
 10
22.9419765625
 20
278.207359375
 10
22.9419765625
 20
278.7761152344
 10
22.3586435547
 20
279.18446875
 10
21.1919775391
 20
279.4324628906
 10
20.6086445312
 20
279.2720820313
 10
20.6086445312
 20
278.9876933594
 10
24.1086425781
 20
278.2437539063
  0
LWPOLYLINE
  5
284
100
AcDbEntity
  8
0
100
AcDbPolyline
 62
2
  6
CONTINUOUS
 90
9
 70
0
 43
0.35
 10
23.5253095703
 20
280.0739863281
 10
24.1086425781
 20
280.2343671875
 10
24.1086425781
 20
280.8031230469
 10
23.5253095703
 20
281.2114980469
 10
22.3586435547
 20
281.4594707031
 10
21.7753105469
 20
281.2990898438
 10
21.7753105469
 20
280.7303339844
 10
22.3586435547
 20
280.3219804688
 10
23.5253095703
 20
280.0739863281
  0
LWPOLYLINE
  5
285
100
AcDbEntity
  8
0
100
AcDbPolyline
 62
2
  6
CONTINUOUS
 90
2
 70
0
 43
0.35
 10
25.2753085937
 20
281.9770078125
 10
21.7753105469
 20
282.72096875
  0
LWPOLYLINE
  5
286
100
AcDbEntity
  8
0
100
AcDbPolyline
 62
2
  6
CONTINUOUS
 90
7
 70
0
 43
0.35
 10
24.1086425781
 20
282.2250019531
 10
24.1086425781
 20
283.078125
 10
23.5253095703
 20
283.4865
 10
22.3586435547
 20
283.7344726563
 10
21.7753105469
 20
283.5740917969
 10
21.7753105469
 20
283.0053359375
 10
22.3586435547
 20
282.5969824219
  0
LWPOLYLINE
  5
287
100
AcDbEntity
  8
0
100
AcDbPolyline
 62
2
  6
CONTINUOUS
 90
5
 70
0
 43
0.35
 10
24.1086425781
 20
284.5000039063
 10
21.7753105469
 20
284.9959707031
 10
22.9419765625
 20
285.3167324219
 10
21.7753105469
 20
286.1334609375
 10
24.1086425781
 20
285.6374941406
  0
LWPOLYLINE
  5
288
100
AcDbEntity
  8
0
100
AcDbPolyline
 62
2
  6
CONTINUOUS
 90
8
 70
0
 43
0.35
 10
22.3586435547
 20
288.2844765625
 10
21.7753105469
 20
288.1240957031
 10
21.7753105469
 20
287.5553398438
 10
22.3586435547
 20
287.1469648438
 10
23.5253095703
 20
286.8989921875
 10
24.1086425781
 20
287.0593730469
 10
24.1086425781
 20
287.6281289063
 10
23.5253095703
 20
288.0364824219
  0
LWPOLYLINE
  5
289
100
AcDbEntity
  8
0
100
AcDbPolyline
 62
2
  6
CONTINUOUS
 90
3
 70
0
 43
0.35
 10
21.7753105469
 20
288.4084628906
 10
23.5253095703
 20
288.0364824219
 10
24.1086425781
 20
288.0546796875
  0
LWPOLYLINE
  5
28A
100
AcDbEntity
  8
0
100
AcDbPolyline
 62
2
  6
CONTINUOUS
 90
2
 70
0
 43
0.35
 10
24.1086425781
 20
289.0500078125
 10
21.7753105469
 20
289.5459746094
  0
LWPOLYLINE
  5
28B
100
AcDbEntity
  8
0
100
AcDbPolyline
 62
2
  6
CONTINUOUS
 90
4
 70
0
 43
0.35
 10
22.3586435547
 20
289.4219667969
 10
21.7753105469
 20
289.8303417969
 10
22.3586435547
 20
289.9907226563
 10
24.1086425781
 20
289.6187421875
  0
LWPOLYLINE
  5
28C
100
AcDbEntity
  8
0
100
AcDbPolyline
 62
2
  6
CONTINUOUS
 90
4
 70
0
 43
0.35
 10
22.3586435547
 20
289.9907226563
 10
21.7753105469
 20
290.3990976563
 10
22.3586435547
 20
290.5594785156
 10
24.1086425781
 20
290.1874980469
  0
LWPOLYLINE
  5
28D
100
AcDbEntity
  8
0
100
AcDbPolyline
 62
2
  6
CONTINUOUS
 90
4
 70
0
 43
0.35
 10
112.4877773438
 20
274.9882910156
 10
111.4250097656
 20
269.988296875
 10
112.6249980469
 20
269.988296875
 10
113.6877871094
 20
274.9882910156
  0
LWPOLYLINE
  5
28E
100
AcDbEntity
  8
0
100
AcDbPolyline
 62
2
  6
CONTINUOUS
 90
2
 70
0
 43
0.35
 10
113.0877929687
 20
274.9882910156
 10
112.0250039062
 20
269.988296875
  0
LWPOLYLINE
  5
28F
100
AcDbEntity
  8
0
100
AcDbPolyline
 62
2
  6
CONTINUOUS
 90
8
 70
0
 43
0.35
 10
115.556390625
 20
272.4883046875
 10
115.4335214844
 20
273.321640625
 10
114.8335273437
 20
273.321640625
 10
114.3563808594
 20
272.4883046875
 10
114.002125
 20
270.8216328125
 10
114.1249941406
 20
269.988296875
 10
114.7250097656
 20
269.988296875
 10
115.2021347656
 20
270.8216328125
  0
LWPOLYLINE
  5
290
100
AcDbEntity
  8
0
100
AcDbPolyline
 62
2
  6
CONTINUOUS
 90
3
 70
0
 43
0.35
 10
115.7335292969
 20
273.321640625
 10
115.2021347656
 20
270.8216328125
 10
115.175
 20
269.988296875
  0
LWPOLYLINE
  5
291
100
AcDbEntity
  8
0
100
AcDbPolyline
 62
2
  6
CONTINUOUS
 90
5
 70
0
 43
0.35
 10
116.9335175781
 20
273.321640625
 10
116.4021230469
 20
270.8216328125
 10
116.5249921875
 20
269.988296875
 10
116.825
 20
269.988296875
 10
117.7792714844
 20
271.65496875
  0
LWPOLYLINE
  5
292
100
AcDbEntity
  8
0
100
AcDbPolyline
 62
2
  6
CONTINUOUS
 90
2
 70
0
 43
0.35
 10
118.1335273437
 20
273.321640625
 10
117.4249941406
 20
269.988296875
  0
LWPOLYLINE
  5
293
100
AcDbEntity
  8
0
100
AcDbPolyline
 62
2
  6
CONTINUOUS
 90
2
 70
0
 43
0.35
 10
117.2335253906
 20
273.321640625
 10
117.8335195312
 20
273.321640625
  0
LWPOLYLINE
  5
294
100
AcDbEntity
  8
0
100
AcDbPolyline
 62
2
  6
CONTINUOUS
 90
10
 70
0
 43
0.35
 10
120.2335175781
 20
273.321640625
 10
119.6335234375
 20
273.321640625
 10
119.1563984375
 20
272.4883046875
 10
118.8021210938
 20
270.8216328125
 10
118.9249902344
 20
269.988296875
 10
119.5250058594
 20
269.988296875
 10
120.0021308594
 20
270.8216328125
 10
120.3563867188
 20
272.4883046875
 10
119.9877792969
 20
274.9882910156
 10
120.88778125
 20
274.9882910156
  0
LWPOLYLINE
  5
295
100
AcDbEntity
  8
0
100
AcDbPolyline
 62
2
  6
CONTINUOUS
 90
8
 70
0
 43
0.35
 10
122.7563847656
 20
272.4883046875
 10
122.633515625
 20
273.321640625
 10
122.0335214844
 20
273.321640625
 10
121.5563964844
 20
272.4883046875
 10
121.202140625
 20
270.8216328125
 10
121.3250097656
 20
269.988296875
 10
121.9250039063
 20
269.988296875
 10
122.4021289063
 20
270.8216328125
  0
LWPOLYLINE
  5
296
100
AcDbEntity
  8
0
100
AcDbPolyline
 62
2
  6
CONTINUOUS
 90
3
 70
0
 43
0.35
 10
122.9335234375
 20
273.321640625
 10
122.4021289063
 20
270.8216328125
 10
122.3749941406
 20
269.988296875
  0
LWPOLYLINE
  5
297
100
AcDbEntity
  8
0
100
AcDbPolyline
 62
2
  6
CONTINUOUS
 90
9
 70
0
 43
0.35
 10
126.1250058594
 20
269.988296875
 10
126.725
 20
269.988296875
 10
127.202125
 20
270.8216328125
 10
127.3792636719
 20
271.65496875
 10
127.2563945312
 20
272.4883046875
 10
126.6564003906
 20
272.4883046875
 10
126.1792539062
 20
271.65496875
 10
126.0021367187
 20
270.8216328125
 10
126.1250058594
 20
269.988296875
  0
LWPOLYLINE
  5
298
100
AcDbEntity
  8
0
100
AcDbPolyline
 62
2
  6
CONTINUOUS
 90
8
 70
0
 43
0.35
 10
127.2563945312
 20
272.4883046875
 10
127.7335195312
 20
273.321640625
 10
127.9106582031
 20
274.1549550781
 10
127.7877890625
 20
274.9882910156
 10
127.1877734375
 20
274.9882910156
 10
126.7106484375
 20
274.1549550781
 10
126.53353125
 20
273.321640625
 10
126.6564003906
 20
272.4883046875
  0
LWPOLYLINE
  5
299
100
AcDbEntity
  8
0
100
AcDbPolyline
 62
2
  6
CONTINUOUS
 90
3
 70
0
 43
0.35
 10
34.6267373047
 20
273.4994667969
 10
35.3111972656
 20
274.9994628906
 10
34.3546914062
 20
270.4994746094
  0
LWPOLYLINE
  5
29A
100
AcDbEntity
  8
0
100
AcDbPolyline
 62
2
  6
CONTINUOUS
 90
2
 70
0
 43
0.35
 10
33.9890595703
 20
270.4994746094
 10
34.7203125
 20
270.4994746094
  0
LWPOLYLINE
  5
29B
100
AcDbEntity
  8
0
100
AcDbPolyline
 62
2
  6
CONTINUOUS
 90
9
 70
0
 43
0.35
 10
36.9565029297
 20
274.9994628906
 10
38.4190087891
 20
274.9994628906
 10
37.3689169922
 20
273.4994667969
 10
37.7345488281
 20
273.4994667969
 10
37.9407558594
 20
272.74946875
 10
37.6219169922
 20
271.2494726563
 10
37.0968710937
 20
270.4994746094
 10
36.3656289062
 20
270.4994746094
 10
36.159421875
 20
271.2494726563
  0
LWPOLYLINE
  5
29C
100
AcDbEntity
  8
0
100
AcDbPolyline
 62
2
  6
CONTINUOUS
 90
4
 70
0
 43
0.35
 10
177.634375
 20
262.9
 10
178.5908808594
 20
267.4000097656
 10
176.6969257813
 20
263.6499980469
 10
178.1594101563
 20
263.6499980469
  0
LWPOLYLINE
  5
29D
100
AcDbEntity
  8
0
100
AcDbPolyline
 62
2
  6
CONTINUOUS
 90
3
 70
0
 43
0.35
 10
111.4250097656
 20
261.9882890625
 10
112.4877773438
 20
266.9883046875
 10
113.6877871094
 20
266.9883046875
  0
LWPOLYLINE
  5
29E
100
AcDbEntity
  8
0
100
AcDbPolyline
 62
2
  6
CONTINUOUS
 90
9
 70
0
 43
0.35
 10
114.1249941406
 20
261.9882890625
 10
114.002125
 20
262.821625
 10
114.7106582031
 20
266.15496875
 10
115.1877832031
 20
266.9883046875
 10
115.7877773437
 20
266.9883046875
 10
115.9106464844
 20
266.15496875
 10
115.2021347656
 20
262.821625
 10
114.7250097656
 20
261.9882890625
 10
114.1249941406
 20
261.9882890625
  0
LWPOLYLINE
  5
29F
100
AcDbEntity
  8
0
100
AcDbPolyline
 62
2
  6
CONTINUOUS
 90
8
 70
0
 43
0.35
 10
118.3106445312
 20
266.15496875
 10
118.1877753906
 20
266.9883046875
 10
117.58778125
 20
266.9883046875
 10
117.11065625
 20
266.15496875
 10
116.4021230469
 20
262.821625
 10
116.5249921875
 20
261.9882890625
 10
117.1250078125
 20
261.9882890625
 10
117.6021328125
 20
262.821625
  0
LWPOLYLINE
  5
2A0
100
AcDbEntity
  8
0
100
AcDbPolyline
 62
2
  6
CONTINUOUS
 90
2
 70
0
 43
0.35
 10
119.6877929687
 20
266.9883046875
 10
120.88778125
 20
266.9883046875
  0
LWPOLYLINE
  5
2A1
100
AcDbEntity
  8
0
100
AcDbPolyline
 62
2
  6
CONTINUOUS
 90
2
 70
0
 43
0.35
 10
120.2877871094
 20
266.9883046875
 10
119.2249980469
 20
261.9882890625
  0
LWPOLYLINE
  5
2A2
100
AcDbEntity
  8
0
100
AcDbPolyline
 62
2
  6
CONTINUOUS
 90
3
 70
0
 43
0.35
 10
124.9928867187
 20
265.3216328125
 10
125.6909140625
 20
266.9883046875
 10
124.628125
 20
261.9882890625
  0
LWPOLYLINE
  5
2A3
100
AcDbEntity
  8
0
100
AcDbPolyline
 62
2
  6
CONTINUOUS
 90
2
 70
0
 43
0.35
 10
124.284375
 20
261.9882890625
 10
124.971875
 20
261.9882890625
  0
LWPOLYLINE
  5
2A4
100
AcDbEntity
  8
0
100
AcDbPolyline
 62
2
  6
CONTINUOUS
 90
3
 70
0
 43
0.35
 10
127.7428867187
 20
265.3216328125
 10
128.4409140625
 20
266.9883046875
 10
127.378125
 20
261.9882890625
  0
LWPOLYLINE
  5
2A5
100
AcDbEntity
  8
0
100
AcDbPolyline
 62
2
  6
CONTINUOUS
 90
2
 70
0
 43
0.35
 10
127.034375
 20
261.9882890625
 10
127.721875
 20
261.9882890625
  0
LWPOLYLINE
  5
2A6
100
AcDbEntity
  8
0
100
AcDbPolyline
 62
2
  6
CONTINUOUS
 90
9
 70
0
 43
0.35
 10
129.9877890625
 20
266.9883046875
 10
131.3627890625
 20
266.9883046875
 10
130.3210117187
 20
265.3216328125
 10
130.6647617187
 20
265.3216328125
 10
130.8313945313
 20
264.488296875
 10
130.4771386719
 20
262.821625
 10
129.95625
 20
261.9882890625
 10
129.26875
 20
261.9882890625
 10
129.1021386719
 20
262.821625
  0
LWPOLYLINE
  5
2A7
100
AcDbEntity
  8
0
100
AcDbPolyline
 62
2
  6
CONTINUOUS
 90
4
 70
0
 43
0.35
 10
132.01875
 20
261.9882890625
 10
134.1127890625
 20
266.9883046875
 10
132.7377890625
 20
266.9883046875
 10
132.5606503906
 20
266.15496875
  0
LWPOLYLINE
  5
2A8
100
AcDbEntity
  8
0
100
AcDbPolyline
 62
2
  6
CONTINUOUS
 90
3
 70
0
 43
0.35
 10
135.9928867187
 20
265.3216328125
 10
136.6909140625
 20
266.9883046875
 10
135.628125
 20
261.9882890625
  0
LWPOLYLINE
  5
2A9
100
AcDbEntity
  8
0
100
AcDbPolyline
 62
2
  6
CONTINUOUS
 90
2
 70
0
 43
0.35
 10
135.284375
 20
261.9882890625
 10
135.971875
 20
261.9882890625
  0
LWPOLYLINE
  5
2AA
100
AcDbEntity
  8
0
100
AcDbPolyline
 62
2
  6
CONTINUOUS
 90
2
 70
0
 43
0.35
 10
138.3938945313
 20
264.488296875
 10
139.7688945313
 20
264.488296875
  0
LWPOLYLINE
  5
2AB
100
AcDbEntity
  8
0
100
AcDbPolyline
 62
2
  6
CONTINUOUS
 90
12
 70
0
 43
0.35
 10
142.1856503906
 20
266.15496875
 10
142.0190390625
 20
266.9883046875
 10
141.3315390625
 20
266.9883046875
 10
140.8106503906
 20
266.15496875
 10
140.1021386719
 20
262.821625
 10
140.26875
 20
261.9882890625
 10
140.95625
 20
261.9882890625
 10
141.4771386719
 20
262.821625
 10
141.8313945313
 20
264.488296875
 10
141.6647617187
 20
265.3216328125
 10
140.9772617187
 20
265.3216328125
 10
140.4563945313
 20
264.488296875
  0
LWPOLYLINE
  5
2AC
100
AcDbEntity
  8
0
100
AcDbPolyline
 62
2
  6
CONTINUOUS
 90
9
 70
0
 43
0.35
 10
143.01875
 20
261.9882890625
 10
143.70625
 20
261.9882890625
 10
144.2271386719
 20
262.821625
 10
144.4042558594
 20
263.6549609375
 10
144.2376445313
 20
264.488296875
 10
143.5501445313
 20
264.488296875
 10
143.0292558594
 20
263.6549609375
 10
142.8521386719
 20
262.821625
 10
143.01875
 20
261.9882890625
  0
LWPOLYLINE
  5
2AD
100
AcDbEntity
  8
0
100
AcDbPolyline
 62
2
  6
CONTINUOUS
 90
8
 70
0
 43
0.35
 10
144.2376445313
 20
264.488296875
 10
144.7585117187
 20
265.3216328125
 10
144.9356503906
 20
266.15496875
 10
144.7690390625
 20
266.9883046875
 10
144.0815390625
 20
266.9883046875
 10
143.5606503906
 20
266.15496875
 10
143.3835117187
 20
265.3216328125
 10
143.5501445313
 20
264.488296875
  0
LWPOLYLINE
  5
2AE
100
AcDbEntity
  8
0
100
AcDbPolyline
 62
2
  6
CONTINUOUS
 90
4
 70
0
 43
0.35
 10
112.4877773438
 20
258.988296875
 10
111.4250097656
 20
253.9883027344
 10
112.6249980469
 20
253.9883027344
 10
113.6877871094
 20
258.988296875
  0
LWPOLYLINE
  5
2AF
100
AcDbEntity
  8
0
100
AcDbPolyline
 62
2
  6
CONTINUOUS
 90
2
 70
0
 43
0.35
 10
113.0877929687
 20
258.988296875
 10
112.0250039062
 20
253.9883027344
  0
LWPOLYLINE
  5
2B0
100
AcDbEntity
  8
0
100
AcDbPolyline
 62
2
  6
CONTINUOUS
 90
8
 70
0
 43
0.35
 10
115.556390625
 20
256.4882890625
 10
115.4335214844
 20
257.321625
 10
114.8335273437
 20
257.321625
 10
114.3563808594
 20
256.4882890625
 10
114.002125
 20
254.8216386719
 10
114.1249941406
 20
253.9883027344
 10
114.7250097656
 20
253.9883027344
 10
115.2021347656
 20
254.8216386719
  0
LWPOLYLINE
  5
2B1
100
AcDbEntity
  8
0
100
AcDbPolyline
 62
2
  6
CONTINUOUS
 90
3
 70
0
 43
0.35
 10
115.7335292969
 20
257.321625
 10
115.2021347656
 20
254.8216386719
 10
115.175
 20
253.9883027344
  0
LWPOLYLINE
  5
2B2
100
AcDbEntity
  8
0
100
AcDbPolyline
 62
2
  6
CONTINUOUS
 90
5
 70
0
 43
0.35
 10
116.9335175781
 20
257.321625
 10
116.4021230469
 20
254.8216386719
 10
116.5249921875
 20
253.9883027344
 10
116.825
 20
253.9883027344
 10
117.7792714844
 20
255.654953125
  0
LWPOLYLINE
  5
2B3
100
AcDbEntity
  8
0
100
AcDbPolyline
 62
2
  6
CONTINUOUS
 90
2
 70
0
 43
0.35
 10
118.1335273437
 20
257.321625
 10
117.4249941406
 20
253.9883027344
  0
LWPOLYLINE
  5
2B4
100
AcDbEntity
  8
0
100
AcDbPolyline
 62
2
  6
CONTINUOUS
 90
2
 70
0
 43
0.35
 10
117.2335253906
 20
257.321625
 10
117.8335195312
 20
257.321625
  0
LWPOLYLINE
  5
2B5
100
AcDbEntity
  8
0
100
AcDbPolyline
 62
2
  6
CONTINUOUS
 90
10
 70
0
 43
0.35
 10
120.2335175781
 20
257.321625
 10
119.6335234375
 20
257.321625
 10
119.1563984375
 20
256.4882890625
 10
118.8021210938
 20
254.8216386719
 10
118.9249902344
 20
253.9883027344
 10
119.5250058594
 20
253.9883027344
 10
120.0021308594
 20
254.8216386719
 10
120.3563867188
 20
256.4882890625
 10
119.9877792969
 20
258.988296875
 10
120.88778125
 20
258.988296875
  0
LWPOLYLINE
  5
2B6
100
AcDbEntity
  8
0
100
AcDbPolyline
 62
2
  6
CONTINUOUS
 90
8
 70
0
 43
0.35
 10
122.7563847656
 20
256.4882890625
 10
122.633515625
 20
257.321625
 10
122.0335214844
 20
257.321625
 10
121.5563964844
 20
256.4882890625
 10
121.202140625
 20
254.8216386719
 10
121.3250097656
 20
253.9883027344
 10
121.9250039063
 20
253.9883027344
 10
122.4021289063
 20
254.8216386719
  0
LWPOLYLINE
  5
2B7
100
AcDbEntity
  8
0
100
AcDbPolyline
 62
2
  6
CONTINUOUS
 90
3
 70
0
 43
0.35
 10
122.9335234375
 20
257.321625
 10
122.4021289063
 20
254.8216386719
 10
122.3749941406
 20
253.9883027344
  0
LWPOLYLINE
  5
2B8
100
AcDbEntity
  8
0
100
AcDbPolyline
 62
2
  6
CONTINUOUS
 90
3
 70
0
 43
0.35
 10
127.2835292969
 20
257.321625
 10
127.9377929687
 20
258.988296875
 10
126.8750039062
 20
253.9883027344
  0
LWPOLYLINE
  5
2B9
100
AcDbEntity
  8
0
100
AcDbPolyline
 62
2
  6
CONTINUOUS
 90
2
 70
0
 43
0.35
 10
126.5749960938
 20
253.9883027344
 10
127.1749902344
 20
253.9883027344
  0
LWPOLYLINE
  5
2BA
100
AcDbEntity
  8
0
100
AcDbPolyline
 62
2
  6
CONTINUOUS
 90
9
 70
0
 43
0.35
 10
128.5250039062
 20
253.9883027344
 10
128.4021347656
 20
254.8216386719
 10
129.1106464844
 20
258.1549609375
 10
129.5877929687
 20
258.988296875
 10
130.1877871094
 20
258.988296875
 10
130.31065625
 20
258.1549609375
 10
129.6021230469
 20
254.8216386719
 10
129.1249980469
 20
253.9883027344
 10
128.5250039062
 20
253.9883027344
  0
LWPOLYLINE
  5
2BB
100
AcDbEntity
  8
0
100
AcDbPolyline
 62
2
  6
CONTINUOUS
 90
3
 70
0
 43
0.35
 10
34.6267373047
 20
257.4994726563
 10
35.3111972656
 20
258.99946875
 10
34.3546914062
 20
254.4994589844
  0
LWPOLYLINE
  5
2BC
100
AcDbEntity
  8
0
100
AcDbPolyline
 62
2
  6
CONTINUOUS
 90
2
 70
0
 43
0.35
 10
33.9890595703
 20
254.4994589844
 10
34.7203125
 20
254.4994589844
  0
LWPOLYLINE
  5
2BD
100
AcDbEntity
  8
0
100
AcDbPolyline
 62
2
  6
CONTINUOUS
 90
4
 70
0
 43
0.35
 10
37.0968710937
 20
254.4994589844
 10
38.0533769531
 20
258.99946875
 10
36.159421875
 20
255.2494570313
 10
37.6219169922
 20
255.2494570313
  0
LWPOLYLINE
  5
2BE
100
AcDbEntity
  8
0
100
AcDbPolyline
 62
2
  6
CONTINUOUS
 90
4
 70
0
 43
0.35
 10
177.634375
 20
246.9000058594
 10
178.5908808594
 20
251.3999941406
 10
176.6969257813
 20
247.6500039063
 10
178.1594101563
 20
247.6500039063
  0
LWPOLYLINE
  5
2BF
100
AcDbEntity
  8
0
100
AcDbPolyline
 62
2
  6
CONTINUOUS
 90
3
 70
0
 43
0.35
 10
111.4250097656
 20
245.9882949219
 10
112.4877773438
 20
250.9882890625
 10
113.6877871094
 20
250.9882890625
  0
LWPOLYLINE
  5
2C0
100
AcDbEntity
  8
0
100
AcDbPolyline
 62
2
  6
CONTINUOUS
 90
9
 70
0
 43
0.35
 10
114.1249941406
 20
245.9882949219
 10
114.002125
 20
246.8216308594
 10
114.7106582031
 20
250.154953125
 10
115.1877832031
 20
250.9882890625
 10
115.7877773437
 20
250.9882890625
 10
115.9106464844
 20
250.154953125
 10
115.2021347656
 20
246.8216308594
 10
114.7250097656
 20
245.9882949219
 10
114.1249941406
 20
245.9882949219
  0
LWPOLYLINE
  5
2C1
100
AcDbEntity
  8
0
100
AcDbPolyline
 62
2
  6
CONTINUOUS
 90
8
 70
0
 43
0.35
 10
118.3106445312
 20
250.154953125
 10
118.1877753906
 20
250.9882890625
 10
117.58778125
 20
250.9882890625
 10
117.11065625
 20
250.154953125
 10
116.4021230469
 20
246.8216308594
 10
116.5249921875
 20
245.9882949219
 10
117.1250078125
 20
245.9882949219
 10
117.6021328125
 20
246.8216308594
  0
LWPOLYLINE
  5
2C2
100
AcDbEntity
  8
0
100
AcDbPolyline
 62
2
  6
CONTINUOUS
 90
2
 70
0
 43
0.35
 10
119.6877929687
 20
250.9882890625
 10
120.88778125
 20
250.9882890625
  0
LWPOLYLINE
  5
2C3
100
AcDbEntity
  8
0
100
AcDbPolyline
 62
2
  6
CONTINUOUS
 90
2
 70
0
 43
0.35
 10
120.2877871094
 20
250.9882890625
 10
119.2249980469
 20
245.9882949219
  0
LWPOLYLINE
  5
2C4
100
AcDbEntity
  8
0
100
AcDbPolyline
 62
2
  6
CONTINUOUS
 90
3
 70
0
 43
0.35
 10
124.9928867187
 20
249.3216386719
 10
125.6909140625
 20
250.9882890625
 10
124.628125
 20
245.9882949219
  0
LWPOLYLINE
  5
2C5
100
AcDbEntity
  8
0
100
AcDbPolyline
 62
2
  6
CONTINUOUS
 90
2
 70
0
 43
0.35
 10
124.284375
 20
245.9882949219
 10
124.971875
 20
245.9882949219
  0
LWPOLYLINE
  5
2C6
100
AcDbEntity
  8
0
100
AcDbPolyline
 62
2
  6
CONTINUOUS
 90
3
 70
0
 43
0.35
 10
127.7428867187
 20
249.3216386719
 10
128.4409140625
 20
250.9882890625
 10
127.378125
 20
245.9882949219
  0
LWPOLYLINE
  5
2C7
100
AcDbEntity
  8
0
100
AcDbPolyline
 62
2
  6
CONTINUOUS
 90
2
 70
0
 43
0.35
 10
127.034375
 20
245.9882949219
 10
127.721875
 20
245.9882949219
  0
LWPOLYLINE
  5
2C8
100
AcDbEntity
  8
0
100
AcDbPolyline
 62
2
  6
CONTINUOUS
 90
9
 70
0
 43
0.35
 10
129.9877890625
 20
250.9882890625
 10
131.3627890625
 20
250.9882890625
 10
130.3210117187
 20
249.3216386719
 10
130.6647617187
 20
249.3216386719
 10
130.8313945313
 20
248.4883027344
 10
130.4771386719
 20
246.8216308594
 10
129.95625
 20
245.9882949219
 10
129.26875
 20
245.9882949219
 10
129.1021386719
 20
246.8216308594
  0
LWPOLYLINE
  5
2C9
100
AcDbEntity
  8
0
100
AcDbPolyline
 62
2
  6
CONTINUOUS
 90
4
 70
0
 43
0.35
 10
132.01875
 20
245.9882949219
 10
134.1127890625
 20
250.9882890625
 10
132.7377890625
 20
250.9882890625
 10
132.5606503906
 20
250.154953125
  0
LWPOLYLINE
  5
2CA
100
AcDbEntity
  8
0
100
AcDbPolyline
 62
2
  6
CONTINUOUS
 90
3
 70
0
 43
0.35
 10
135.9928867187
 20
249.3216386719
 10
136.6909140625
 20
250.9882890625
 10
135.628125
 20
245.9882949219
  0
LWPOLYLINE
  5
2CB
100
AcDbEntity
  8
0
100
AcDbPolyline
 62
2
  6
CONTINUOUS
 90
2
 70
0
 43
0.35
 10
135.284375
 20
245.9882949219
 10
135.971875
 20
245.9882949219
  0
LWPOLYLINE
  5
2CC
100
AcDbEntity
  8
0
100
AcDbPolyline
 62
2
  6
CONTINUOUS
 90
2
 70
0
 43
0.35
 10
138.3938945313
 20
248.4883027344
 10
139.7688945313
 20
248.4883027344
  0
LWPOLYLINE
  5
2CD
100
AcDbEntity
  8
0
100
AcDbPolyline
 62
2
  6
CONTINUOUS
 90
12
 70
0
 43
0.35
 10
142.1856503906
 20
250.154953125
 10
142.0190390625
 20
250.9882890625
 10
141.3315390625
 20
250.9882890625
 10
140.8106503906
 20
250.154953125
 10
140.1021386719
 20
246.8216308594
 10
140.26875
 20
245.9882949219
 10
140.95625
 20
245.9882949219
 10
141.4771386719
 20
246.8216308594
 10
141.8313945313
 20
248.4883027344
 10
141.6647617187
 20
249.3216386719
 10
140.9772617187
 20
249.3216386719
 10
140.4563945313
 20
248.4883027344
  0
LWPOLYLINE
  5
2CE
100
AcDbEntity
  8
0
100
AcDbPolyline
 62
2
  6
CONTINUOUS
 90
9
 70
0
 43
0.35
 10
143.01875
 20
245.9882949219
 10
143.70625
 20
245.9882949219
 10
144.2271386719
 20
246.8216308594
 10
144.4042558594
 20
247.6549667969
 10
144.2376445313
 20
248.4883027344
 10
143.5501445313
 20
248.4883027344
 10
143.0292558594
 20
247.6549667969
 10
142.8521386719
 20
246.8216308594
 10
143.01875
 20
245.9882949219
  0
LWPOLYLINE
  5
2CF
100
AcDbEntity
  8
0
100
AcDbPolyline
 62
2
  6
CONTINUOUS
 90
8
 70
0
 43
0.35
 10
144.2376445313
 20
248.4883027344
 10
144.7585117187
 20
249.3216386719
 10
144.9356503906
 20
250.154953125
 10
144.7690390625
 20
250.9882890625
 10
144.0815390625
 20
250.9882890625
 10
143.5606503906
 20
250.154953125
 10
143.3835117187
 20
249.3216386719
 10
143.5501445313
 20
248.4883027344
  0
LINE
  5
2D0
100
AcDbEntity
  8
0
100
AcDbLine
 62
7
  6
CONTINUOUS
 10
205.0
 20
277.0
 11
20.0
 21
277.0
  0
LINE
  5
2D1
100
AcDbEntity
  8
0
100
AcDbLine
 62
7
  6
CONTINUOUS
 10
205.0
 20
277.0
 11
205.0
 21
20.0
  0
LINE
  5
2D2
100
AcDbEntity
  8
0
100
AcDbLine
 62
7
  6
CONTINUOUS
 10
205.0
 20
269.0
 11
20.0
 21
269.0
  0
LINE
  5
2D3
100
AcDbEntity
  8
0
100
AcDbLine
 62
7
  6
CONTINUOUS
 10
205.0
 20
261.0
 11
20.0
 21
261.0
  0
LINE
  5
2D4
100
AcDbEntity
  8
0
100
AcDbLine
 62
7
  6
CONTINUOUS
 10
205.0
 20
253.0
 11
20.0
 21
253.0
  0
LINE
  5
2D5
100
AcDbEntity
  8
0
100
AcDbLine
 62
7
  6
CONTINUOUS
 10
205.0
 20
245.0
 11
20.0
 21
245.0
  0
LINE
  5
2D6
100
AcDbEntity
  8
0
100
AcDbLine
 62
7
  6
CONTINUOUS
 10
205.0
 20
237.0
 11
20.0
 21
237.0
  0
LINE
  5
2D7
100
AcDbEntity
  8
0
100
AcDbLine
 62
7
  6
CONTINUOUS
 10
205.0
 20
229.0
 11
20.0
 21
229.0
  0
LINE
  5
2D8
100
AcDbEntity
  8
0
100
AcDbLine
 62
7
  6
CONTINUOUS
 10
205.0
 20
221.0
 11
20.0
 21
221.0
  0
LINE
  5
2D9
100
AcDbEntity
  8
0
100
AcDbLine
 62
7
  6
CONTINUOUS
 10
205.0
 20
213.0
 11
20.0
 21
213.0
  0
LINE
  5
2DA
100
AcDbEntity
  8
0
100
AcDbLine
 62
7
  6
CONTINUOUS
 10
205.0
 20
205.0
 11
20.0
 21
205.0
  0
LINE
  5
2DB
100
AcDbEntity
  8
0
100
AcDbLine
 62
7
  6
CONTINUOUS
 10
205.0
 20
197.0
 11
20.0
 21
197.0
  0
LINE
  5
2DC
100
AcDbEntity
  8
0
100
AcDbLine
 62
7
  6
CONTINUOUS
 10
205.0
 20
189.0
 11
20.0
 21
189.0
  0
LINE
  5
2DD
100
AcDbEntity
  8
0
100
AcDbLine
 62
7
  6
CONTINUOUS
 10
205.0
 20
181.0
 11
20.0
 21
181.0
  0
LINE
  5
2DE
100
AcDbEntity
  8
0
100
AcDbLine
 62
7
  6
CONTINUOUS
 10
205.0
 20
173.0
 11
20.0
 21
173.0
  0
LINE
  5
2DF
100
AcDbEntity
  8
0
100
AcDbLine
 62
7
  6
CONTINUOUS
 10
205.0
 20
165.0
 11
20.0
 21
165.0
  0
LINE
  5
2E0
100
AcDbEntity
  8
0
100
AcDbLine
 62
7
  6
CONTINUOUS
 10
205.0
 20
157.0
 11
20.0
 21
157.0
  0
LINE
  5
2E1
100
AcDbEntity
  8
0
100
AcDbLine
 62
7
  6
CONTINUOUS
 10
205.0
 20
149.0
 11
20.0
 21
149.0
  0
LINE
  5
2E2
100
AcDbEntity
  8
0
100
AcDbLine
 62
7
  6
CONTINUOUS
 10
205.0
 20
141.0
 11
20.0
 21
141.0
  0
LINE
  5
2E3
100
AcDbEntity
  8
0
100
AcDbLine
 62
7
  6
CONTINUOUS
 10
205.0
 20
133.0
 11
20.0
 21
133.0
  0
LINE
  5
2E4
100
AcDbEntity
  8
0
100
AcDbLine
 62
7
  6
CONTINUOUS
 10
205.0
 20
125.0
 11
20.0
 21
125.0
  0
LINE
  5
2E5
100
AcDbEntity
  8
0
100
AcDbLine
 62
7
  6
CONTINUOUS
 10
205.0
 20
117.0
 11
20.0
 21
117.0
  0
LINE
  5
2E6
100
AcDbEntity
  8
0
100
AcDbLine
 62
7
  6
CONTINUOUS
 10
205.0
 20
109.0
 11
20.0
 21
109.0
  0
LINE
  5
2E7
100
AcDbEntity
  8
0
100
AcDbLine
 62
7
  6
CONTINUOUS
 10
205.0
 20
101.0
 11
20.0
 21
101.0
  0
LINE
  5
2E8
100
AcDbEntity
  8
0
100
AcDbLine
 62
7
  6
CONTINUOUS
 10
205.0
 20
93.0
 11
20.0
 21
93.0
  0
LINE
  5
2E9
100
AcDbEntity
  8
0
100
AcDbLine
 62
7
  6
CONTINUOUS
 10
205.0
 20
85.0
 11
20.0
 21
85.0
  0
LINE
  5
2EA
100
AcDbEntity
  8
0
100
AcDbLine
 62
7
  6
CONTINUOUS
 10
205.0
 20
77.0
 11
20.0
 21
77.0
  0
LINE
  5
2EB
100
AcDbEntity
  8
0
100
AcDbLine
 62
7
  6
CONTINUOUS
 10
205.0
 20
69.0
 11
20.0
 21
69.0
  0
LINE
  5
2EC
100
AcDbEntity
  8
0
100
AcDbLine
 62
7
  6
CONTINUOUS
 10
205.0
 20
61.0
 11
20.0
 21
61.0
  0
LINE
  5
2ED
100
AcDbEntity
  8
0
100
AcDbLine
 62
7
  6
CONTINUOUS
 10
205.0
 20
53.0
 11
20.0
 21
53.0
  0
LINE
  5
2EE
100
AcDbEntity
  8
0
100
AcDbLine
 62
7
  6
CONTINUOUS
 10
205.0
 20
45.0
 11
20.0
 21
45.0
  0
LINE
  5
2EF
100
AcDbEntity
  8
0
100
AcDbLine
 62
7
  6
CONTINUOUS
 10
205.0
 20
37.0
 11
20.0
 21
37.0
  0
LINE
  5
2F0
100
AcDbEntity
  8
0
100
AcDbLine
 62
7
  6
CONTINUOUS
 10
205.0
 20
29.0
 11
20.0
 21
29.0
  0
LINE
  5
2F1
100
AcDbEntity
  8
0
100
AcDbLine
 62
7
  6
CONTINUOUS
 10
205.0
 20
20.0
 11
20.0
 21
20.0
  0
LINE
  5
2F2
100
AcDbEntity
  8
0
100
AcDbLine
 62
7
  6
CONTINUOUS
 10
183.0
 20
277.0
 11
183.0
 21
20.0
  0
LINE
  5
2F3
100
AcDbEntity
  8
0
100
AcDbLine
 62
7
  6
CONTINUOUS
 10
173.0
 20
277.0
 11
173.0
 21
20.0
  0
LINE
  5
2F4
100
AcDbEntity
  8
0
100
AcDbLine
 62
7
  6
CONTINUOUS
 10
110.0
 20
277.0
 11
110.0
 21
20.0
  0
LINE
  5
2F5
100
AcDbEntity
  8
0
100
AcDbLine
 62
7
  6
CONTINUOUS
 10
40.0
 20
277.0
 11
40.0
 21
20.0
  0
LINE
  5
2F6
100
AcDbEntity
  8
0
100
AcDbLine
 62
7
  6
CONTINUOUS
 10
32.0
 20
277.0
 11
32.0
 21
20.0
  0
LINE
  5
2F7
100
AcDbEntity
  8
0
100
AcDbLine
 62
7
  6
CONTINUOUS
 10
26.0
 20
277.0
 11
26.0
 21
20.0
  0
LINE
  5
2F8
100
AcDbEntity
  8
0
100
AcDbLine
 62
7
  6
CONTINUOUS
 10
20.0
 20
277.0
 11
20.0
 21
20.0
  0
LINE
  5
2F9
100
AcDbEntity
  8
0
100
AcDbLine
 62
7
  6
CONTINUOUS
 10
20.0
 20
5.0
 11
8.0
 21
5.0
  0
LINE
  5
2FA
100
AcDbEntity
  8
0
100
AcDbLine
 62
7
  6
CONTINUOUS
 10
20.0
 20
5.0
 11
20.0
 21
150.0
  0
LINE
  5
2FB
100
AcDbEntity
  8
0
100
AcDbLine
 62
7
  6
CONTINUOUS
 10
20.0
 20
30.0
 11
8.0
 21
30.0
  0
LINE
  5
2FC
100
AcDbEntity
  8
0
100
AcDbLine
 62
7
  6
CONTINUOUS
 10
20.0
 20
65.0
 11
8.0
 21
65.0
  0
LINE
  5
2FD
100
AcDbEntity
  8
0
100
AcDbLine
 62
7
  6
CONTINUOUS
 10
20.0
 20
90.0
 11
8.0
 21
90.0
  0
LINE
  5
2FE
100
AcDbEntity
  8
0
100
AcDbLine
 62
7
  6
CONTINUOUS
 10
20.0
 20
115.0
 11
8.0
 21
115.0
  0
LINE
  5
2FF
100
AcDbEntity
  8
0
100
AcDbLine
 62
7
  6
CONTINUOUS
 10
20.0
 20
150.0
 11
8.0
 21
150.0
  0
LINE
  5
300
100
AcDbEntity
  8
0
100
AcDbLine
 62
7
  6
CONTINUOUS
 10
13.0
 20
5.0
 11
13.0
 21
150.0
  0
LINE
  5
301
100
AcDbEntity
  8
0
100
AcDbLine
 62
7
  6
CONTINUOUS
 10
8.0
 20
5.0
 11
8.0
 21
150.0
  0
LWPOLYLINE
  5
302
100
AcDbEntity
  8
0
100
AcDbPolyline
 62
2
  6
CONTINUOUS
 90
4
 70
0
 43
0.35
 10
8.9877675781
 20
6.6176695557
 10
11.9877651367
 20
5.9799998779
 10
8.9877675781
 20
7.5776699829
 10
11.9877651367
 20
6.9400003052
  0
LWPOLYLINE
  5
303
100
AcDbEntity
  8
0
100
AcDbPolyline
 62
2
  6
CONTINUOUS
 90
2
 70
0
 43
0.35
 10
11.9877651367
 20
7.900000061
 10
9.9877685547
 20
8.3251134033
  0
LWPOLYLINE
  5
304
100
AcDbEntity
  8
0
100
AcDbPolyline
 62
2
  6
CONTINUOUS
 90
2
 70
0
 43
0.35
 10
10.9877641602
 20
8.1125563965
 10
10.9877641602
 20
9.0725568237
  0
LWPOLYLINE
  5
305
100
AcDbEntity
  8
0
100
AcDbPolyline
 62
2
  6
CONTINUOUS
 90
2
 70
0
 43
0.35
 10
9.9877685547
 20
9.2851131592
 10
11.9877651367
 20
8.8599998169
  0
LWPOLYLINE
  5
306
100
AcDbEntity
  8
0
100
AcDbPolyline
 62
2
  6
CONTINUOUS
 90
12
 70
0
 43
0.35
 10
10.4877636719
 20
10.138835083
 10
9.4877680664
 20
10.8313912964
 10
8.9877675781
 20
10.9376697998
 10
8.9877675781
 20
10.6976698608
 10
9.4877680664
 20
10.3513914185
 10
11.4877646484
 20
9.9262780762
 10
11.9877651367
 20
10.0600001831
 10
11.9877651367
 20
10.540000061
 10
11.4877646484
 20
10.8862785034
 10
10.4877636719
 20
11.0988348389
 10
9.9877685547
 20
10.9651134033
 10
9.9877685547
 20
10.485112854
  0
LWPOLYLINE
  5
307
100
AcDbEntity
  8
0
100
AcDbPolyline
 62
2
  6
CONTINUOUS
 90
5
 70
0
 43
0.35
 10
11.9877651367
 20
11.8599993896
 10
11.9877651367
 20
11.7399997559
 10
11.7377675781
 20
11.7931386719
 10
11.7377675781
 20
11.9131396484
 10
11.9877651367
 20
11.8599993896
  0
LWPOLYLINE
  5
308
100
AcDbEntity
  8
0
100
AcDbPolyline
 62
2
  6
CONTINUOUS
 90
4
 70
0
 43
0.35
 10
11.9877651367
 20
15.5800001221
 10
8.9877675781
 20
16.2176697998
 10
11.9877651367
 20
16.5399998779
 10
8.9877675781
 20
17.1776695557
  0
LWPOLYLINE
  5
309
100
AcDbEntity
  8
0
100
AcDbPolyline
 62
2
  6
CONTINUOUS
 90
2
 70
0
 43
0.35
 10
11.9877651367
 20
19.4200004883
 10
9.9877685547
 20
19.8451131592
  0
LWPOLYLINE
  5
30A
100
AcDbEntity
  8
0
100
AcDbPolyline
 62
2
  6
CONTINUOUS
 90
5
 70
0
 43
0.35
 10
10.4877636719
 20
19.7388353271
 10
9.9877685547
 20
20.0851137695
 10
9.9877685547
 20
20.5651136475
 10
10.4877636719
 20
20.698835083
 10
11.9877651367
 20
20.3800002441
  0
LWPOLYLINE
  5
30B
100
AcDbEntity
  8
0
100
AcDbPolyline
 62
2
  6
CONTINUOUS
 90
9
 70
0
 43
0.35
 10
11.4877646484
 20
21.446277832
 10
11.9877651367
 20
21.5800006104
 10
11.9877651367
 20
22.0600004883
 10
11.4877646484
 20
22.4062789307
 10
10.4877636719
 20
22.6188359375
 10
9.9877685547
 20
22.4851131592
 10
9.9877685547
 20
22.0051132813
 10
10.4877636719
 20
21.6588348389
 10
11.4877646484
 20
21.446277832
  0
LWPOLYLINE
  5
30C
100
AcDbEntity
  8
0
100
AcDbPolyline
 62
2
  6
CONTINUOUS
 90
11
 70
0
 43
0.35
 10
10.4877636719
 20
24.5388354492
 10
9.9877685547
 20
24.4051140137
 10
9.9877685547
 20
23.925112793
 10
10.4877636719
 20
23.5788356934
 10
11.4877646484
 20
23.3662773438
 10
11.9877651367
 20
23.4999987793
 10
11.9877651367
 20
23.98
 10
11.4877646484
 20
24.3262770996
 10
9.4877680664
 20
24.7513911133
 10
8.9877675781
 20
24.6176696777
 10
8.9877675781
 20
24.137668457
  0
LWPOLYLINE
  5
30D
100
AcDbEntity
  8
0
100
AcDbPolyline
 62
2
  6
CONTINUOUS
 90
3
 70
0
 43
0.35
 10
11.9877651367
 20
25.1799990234
 10
9.9877685547
 20
26.0851142578
 10
11.9877651367
 20
26.1399987793
  0
LWPOLYLINE
  5
30E
100
AcDbEntity
  8
0
100
AcDbPolyline
 62
2
  6
CONTINUOUS
 90
5
 70
0
 43
0.35
 10
11.9877651367
 20
27.2199995117
 10
11.9877651367
 20
27.1000012207
 10
11.7377675781
 20
27.1531401367
 10
11.7377675781
 20
27.2731384277
 10
11.9877651367
 20
27.2199995117
  0
LWPOLYLINE
  5
30F
100
AcDbEntity
  8
0
100
AcDbPolyline
 62
2
  6
CONTINUOUS
 90
4
 70
0
 43
0.35
 10
11.9877651367
 20
35.9800009766
 10
8.9877675781
 20
36.6176706543
 10
8.9877675781
 20
37.5776704102
 10
11.9877651367
 20
36.9400007324
  0
LWPOLYLINE
  5
310
100
AcDbEntity
  8
0
100
AcDbPolyline
 62
2
  6
CONTINUOUS
 90
9
 70
0
 43
0.35
 10
11.4877646484
 20
38.0062783203
 10
11.9877651367
 20
38.1399997559
 10
11.9877651367
 20
38.6200009766
 10
11.4877646484
 20
38.9662780762
 10
10.4877636719
 20
39.1788337402
 10
9.9877685547
 20
39.0451123047
 10
9.9877685547
 20
38.5651137695
 10
10.4877636719
 20
38.2188339844
 10
11.4877646484
 20
38.0062783203
  0
LWPOLYLINE
  5
311
100
AcDbEntity
  8
0
100
AcDbPolyline
 62
2
  6
CONTINUOUS
 90
11
 70
0
 43
0.35
 10
10.4877636719
 20
41.0988359375
 10
9.9877685547
 20
40.9651118164
 10
9.9877685547
 20
40.4851132813
 10
10.4877636719
 20
40.1388361816
 10
11.4877646484
 20
39.926277832
 10
11.9877651367
 20
40.0599992676
 10
11.9877651367
 20
40.5400004883
 10
11.4877646484
 20
40.8862775879
 10
9.4877680664
 20
41.3113916016
 10
8.9877675781
 20
41.177670166
 10
8.9877675781
 20
40.6976689453
  0
LWPOLYLINE
  5
312
100
AcDbEntity
  8
0
100
AcDbPolyline
 62
2
  6
CONTINUOUS
 90
2
 70
0
 43
0.35
 10
11.9877651367
 20
41.7399995117
 10
9.9877685547
 20
42.1651135254
  0
LWPOLYLINE
  5
313
100
AcDbEntity
  8
0
100
AcDbPolyline
 62
2
  6
CONTINUOUS
 90
5
 70
0
 43
0.35
 10
10.4877636719
 20
42.0588356934
 10
9.9877685547
 20
42.405112793
 10
9.9877685547
 20
42.8851140137
 10
10.4877636719
 20
43.0188354492
 10
11.9877651367
 20
42.6999992676
  0
LWPOLYLINE
  5
314
100
AcDbEntity
  8
0
100
AcDbPolyline
 62
2
  6
CONTINUOUS
 90
5
 70
0
 43
0.35
 10
11.9877651367
 20
43.78
 10
11.9877651367
 20
43.6599990234
 10
11.7377675781
 20
43.7131379395
 10
11.7377675781
 20
43.833138916
 10
11.9877651367
 20
43.78
  0
LWPOLYLINE
  5
315
100
AcDbEntity
  8
0
100
AcDbPolyline
 62
2
  6
CONTINUOUS
 90
5
 70
0
 43
0.35
 10
9.9877685547
 20
47.9251147461
 10
11.4877646484
 20
47.6062758789
 10
11.9877651367
 20
47.74
 10
11.9877651367
 20
47.9800019531
 10
10.9877641602
 20
48.6725561523
  0
LWPOLYLINE
  5
316
100
AcDbEntity
  8
0
100
AcDbPolyline
 62
2
  6
CONTINUOUS
 90
2
 70
0
 43
0.35
 10
9.9877685547
 20
48.8851118164
 10
11.9877651367
 20
48.4600004883
  0
LWPOLYLINE
  5
317
100
AcDbEntity
  8
0
100
AcDbPolyline
 62
2
  6
CONTINUOUS
 90
11
 70
0
 43
0.35
 10
10.4877636719
 20
52.6188330078
 10
9.9877685547
 20
52.4851142578
 10
9.9877685547
 20
52.0051157227
 10
10.4877636719
 20
51.6588359375
 10
11.4877646484
 20
51.4462802734
 10
11.9877651367
 20
51.5799990234
 10
11.9877651367
 20
52.0599975586
 10
11.4877646484
 20
52.4062773438
 10
9.4877680664
 20
52.831394043
 10
8.9877675781
 20
52.6976699219
 10
8.9877675781
 20
52.2176713867
  0
LWPOLYLINE
  5
318
100
AcDbEntity
  8
0
100
AcDbPolyline
 62
2
  6
CONTINUOUS
 90
8
 70
0
 43
0.35
 10
10.4877636719
 20
54.5388325195
 10
9.9877685547
 20
54.4051137695
 10
9.9877685547
 20
53.9251152344
 10
10.4877636719
 20
53.5788354492
 10
11.4877646484
 20
53.3662797852
 10
11.9877651367
 20
53.4999985352
 10
11.9877651367
 20
53.9800024414
 10
11.4877646484
 20
54.3262768555
  0
LWPOLYLINE
  5
319
100
AcDbEntity
  8
0
100
AcDbPolyline
 62
2
  6
CONTINUOUS
 90
3
 70
0
 43
0.35
 10
9.9877685547
 20
54.6451157227
 10
11.4877646484
 20
54.3262768555
 10
11.9877651367
 20
54.34
  0
LWPOLYLINE
  5
31A
100
AcDbEntity
  8
0
100
AcDbPolyline
 62
2
  6
CONTINUOUS
 90
2
 70
0
 43
0.35
 10
11.9877651367
 20
55.1800014648
 10
9.9877685547
 20
55.605112793
  0
LWPOLYLINE
  5
31B
100
AcDbEntity
  8
0
100
AcDbPolyline
 62
2
  6
CONTINUOUS
 90
4
 70
0
 43
0.35
 10
10.4877636719
 20
55.4988349609
 10
9.9877685547
 20
55.8451147461
 10
10.4877636719
 20
55.9788334961
 10
11.9877651367
 20
55.66
  0
LWPOLYLINE
  5
31C
100
AcDbEntity
  8
0
100
AcDbPolyline
 62
2
  6
CONTINUOUS
 90
4
 70
0
 43
0.35
 10
10.4877636719
 20
55.9788334961
 10
9.9877685547
 20
56.3251132813
 10
10.4877636719
 20
56.4588374023
 10
11.9877651367
 20
56.1399985352
  0
LWPOLYLINE
  5
31D
100
AcDbEntity
  8
0
100
AcDbPolyline
 62
2
  6
CONTINUOUS
 90
8
 70
0
 43
0.35
 10
10.4877636719
 20
58.3788369141
 10
9.9877685547
 20
58.245112793
 10
9.9877685547
 20
57.7651142578
 10
10.4877636719
 20
57.4188344727
 10
11.4877646484
 20
57.2062788086
 10
11.9877651367
 20
57.3399975586
 10
11.9877651367
 20
57.8200014648
 10
11.4877646484
 20
58.1662758789
  0
LWPOLYLINE
  5
31E
100
AcDbEntity
  8
0
100
AcDbPolyline
 62
2
  6
CONTINUOUS
 90
3
 70
0
 43
0.35
 10
9.9877685547
 20
58.4851147461
 10
11.4877646484
 20
58.1662758789
 10
11.9877651367
 20
58.1799990234
  0
LWPOLYLINE
  5
31F
100
AcDbEntity
  8
0
100
AcDbPolyline
 62
2
  6
CONTINUOUS
 90
10
 70
0
 43
0.35
 10
11.9877651367
 20
65.9799980469
 10
11.9877651367
 20
66.6999985352
 10
11.4877646484
 20
67.0462783203
 10
10.9877641602
 20
67.1525561523
 10
10.4877636719
 20
67.0188374023
 10
9.9877685547
 20
67.3651118164
 10
9.4877680664
 20
67.4713896484
 10
8.9877675781
 20
67.3376708984
 10
8.9877675781
 20
66.6176704102
 10
11.9877651367
 20
65.9799980469
  0
LWPOLYLINE
  5
320
100
AcDbEntity
  8
0
100
AcDbPolyline
 62
2
  6
CONTINUOUS
 90
2
 70
0
 43
0.35
 10
10.4877636719
 20
66.2988369141
 10
10.4877636719
 20
67.0188374023
  0
LWPOLYLINE
  5
321
100
AcDbEntity
  8
0
100
AcDbPolyline
 62
2
  6
CONTINUOUS
 90
9
 70
0
 43
0.35
 10
11.4877646484
 20
68.0062807617
 10
11.9877651367
 20
68.1399995117
 10
11.9877651367
 20
68.6199980469
 10
11.4877646484
 20
68.966277832
 10
10.9877641602
 20
68.832559082
 10
10.4877636719
 20
69.1788334961
 10
9.9877685547
 20
69.0451147461
 10
9.9877685547
 20
68.5651108398
 10
10.4877636719
 20
68.2188364258
  0
LWPOLYLINE
  5
322
100
AcDbEntity
  8
0
100
AcDbPolyline
 62
2
  6
CONTINUOUS
 90
2
 70
0
 43
0.35
 10
10.9877641602
 20
68.5925571289
 10
10.9877641602
 20
68.832559082
  0
LWPOLYLINE
  5
323
100
AcDbEntity
  8
0
100
AcDbPolyline
 62
2
  6
CONTINUOUS
 90
8
 70
0
 43
0.35
 10
10.4877636719
 20
71.0988330078
 10
9.9877685547
 20
70.9651142578
 10
9.9877685547
 20
70.4851157227
 10
10.4877636719
 20
70.1388359375
 10
11.4877646484
 20
69.9262802734
 10
11.9877651367
 20
70.0599990234
 10
11.9877651367
 20
70.5399975586
 10
11.4877646484
 20
70.8862773438
  0
LWPOLYLINE
  5
324
100
AcDbEntity
  8
0
100
AcDbPolyline
 62
2
  6
CONTINUOUS
 90
3
 70
0
 43
0.35
 10
9.9877685547
 20
71.2051108398
 10
11.4877646484
 20
70.8862773438
 10
11.9877651367
 20
70.9000004883
  0
LWPOLYLINE
  5
325
100
AcDbEntity
  8
0
100
AcDbPolyline
 62
2
  6
CONTINUOUS
 90
5
 70
0
 43
0.35
 10
11.9877651367
 20
71.7400019531
 10
9.9877685547
 20
72.1651132813
 10
10.9877641602
 20
72.4325561523
 10
9.9877685547
 20
73.1251157227
 10
11.9877651367
 20
72.6999990234
  0
LWPOLYLINE
  5
326
100
AcDbEntity
  8
0
100
AcDbPolyline
 62
2
  6
CONTINUOUS
 90
5
 70
0
 43
0.35
 10
11.9877651367
 20
73.7800024414
 10
11.9877651367
 20
73.6600014648
 10
11.7377675781
 20
73.7131376953
 10
11.7377675781
 20
73.8331386719
 10
11.9877651367
 20
73.7800024414
  0
LWPOLYLINE
  5
327
100
AcDbEntity
  8
0
100
AcDbPolyline
 62
2
  6
CONTINUOUS
 90
5
 70
0
 43
0.35
 10
9.9877685547
 20
77.9251118164
 10
11.4877646484
 20
77.6062783203
 10
11.9877651367
 20
77.7400024414
 10
11.9877651367
 20
77.9799990234
 10
10.9877641602
 20
78.6725585938
  0
LWPOLYLINE
  5
328
100
AcDbEntity
  8
0
100
AcDbPolyline
 62
2
  6
CONTINUOUS
 90
2
 70
0
 43
0.35
 10
9.9877685547
 20
78.8851142578
 10
11.9877651367
 20
78.4599975586
  0
LWPOLYLINE
  5
329
100
AcDbEntity
  8
0
100
AcDbPolyline
 62
2
  6
CONTINUOUS
 90
2
 70
0
 43
0.35
 10
11.9877651367
 20
79.42
 10
9.9877685547
 20
79.8451113281
  0
LWPOLYLINE
  5
32A
100
AcDbEntity
  8
0
100
AcDbPolyline
 62
2
  6
CONTINUOUS
 90
2
 70
0
 43
0.35
 10
10.9877641602
 20
79.6325556641
 10
10.9877641602
 20
80.5925581055
  0
LWPOLYLINE
  5
32B
100
AcDbEntity
  8
0
100
AcDbPolyline
 62
2
  6
CONTINUOUS
 90
2
 70
0
 43
0.35
 10
9.9877685547
 20
80.8051137695
 10
11.9877651367
 20
80.3800024414
  0
LWPOLYLINE
  5
32C
100
AcDbEntity
  8
0
100
AcDbPolyline
 62
2
  6
CONTINUOUS
 90
12
 70
0
 43
0.35
 10
10.4877636719
 20
81.6588330078
 10
9.4877680664
 20
82.3513925781
 10
8.9877675781
 20
82.4576704102
 10
8.9877675781
 20
82.217668457
 10
9.4877680664
 20
81.871394043
 10
11.4877646484
 20
81.4462773438
 10
11.9877651367
 20
81.5800014648
 10
11.9877651367
 20
82.06
 10
11.4877646484
 20
82.4062797852
 10
10.4877636719
 20
82.6188354492
 10
9.9877685547
 20
82.4851113281
 10
9.9877685547
 20
82.005112793
  0
LWPOLYLINE
  5
32D
100
AcDbEntity
  8
0
100
AcDbPolyline
 62
2
  6
CONTINUOUS
 90
5
 70
0
 43
0.35
 10
11.9877651367
 20
83.38
 10
11.9877651367
 20
83.2599990234
 10
11.7377675781
 20
83.313140625
 10
11.7377675781
 20
83.4331416016
 10
11.9877651367
 20
83.38
  0
LWPOLYLINE
  5
32E
100
AcDbEntity
  8
0
100
AcDbPolyline
 62
2
  6
CONTINUOUS
 90
4
 70
0
 43
0.35
 10
11.9877651367
 20
87.0999980469
 10
8.9877675781
 20
87.7376704102
 10
11.9877651367
 20
88.0600004883
 10
8.9877675781
 20
88.6976674805
  0
LWPOLYLINE
  5
32F
100
AcDbEntity
  8
0
100
AcDbPolyline
 62
2
  6
CONTINUOUS
 90
4
 70
0
 43
0.35
 10
8.9877675781
 20
91.6176679688
 10
11.9877651367
 20
90.9800009766
 10
8.9877675781
 20
92.5776650391
 10
11.9877651367
 20
91.9399980469
  0
LWPOLYLINE
  5
330
100
AcDbEntity
  8
0
100
AcDbPolyline
 62
2
  6
CONTINUOUS
 90
2
 70
0
 43
0.35
 10
11.9877651367
 20
92.8999951172
 10
9.9877685547
 20
93.3251171875
  0
LWPOLYLINE
  5
331
100
AcDbEntity
  8
0
100
AcDbPolyline
 62
2
  6
CONTINUOUS
 90
2
 70
0
 43
0.35
 10
10.9877641602
 20
93.1125615234
 10
10.9877641602
 20
94.0725585938
  0
LWPOLYLINE
  5
332
100
AcDbEntity
  8
0
100
AcDbPolyline
 62
2
  6
CONTINUOUS
 90
2
 70
0
 43
0.35
 10
9.9877685547
 20
94.2851142578
 10
11.9877651367
 20
93.8600029297
  0
LWPOLYLINE
  5
333
100
AcDbEntity
  8
0
100
AcDbPolyline
 62
2
  6
CONTINUOUS
 90
12
 70
0
 43
0.35
 10
10.4877636719
 20
95.1388388672
 10
9.4877680664
 20
95.8313876953
 10
8.9877675781
 20
95.9376708984
 10
8.9877675781
 20
95.6976689453
 10
9.4877680664
 20
95.3513945313
 10
11.4877646484
 20
94.9262832031
 10
11.9877651367
 20
95.0600019531
 10
11.9877651367
 20
95.5399951172
 10
11.4877646484
 20
95.8862802734
 10
10.4877636719
 20
96.0988359375
 10
9.9877685547
 20
95.9651171875
 10
9.9877685547
 20
95.4851132813
  0
LWPOLYLINE
  5
334
100
AcDbEntity
  8
0
100
AcDbPolyline
 62
2
  6
CONTINUOUS
 90
5
 70
0
 43
0.35
 10
11.9877651367
 20
96.8599951172
 10
11.9877651367
 20
96.7400048828
 10
11.7377675781
 20
96.7931357422
 10
11.7377675781
 20
96.9131367188
 10
11.9877651367
 20
96.8599951172
  0
LWPOLYLINE
  5
335
100
AcDbEntity
  8
0
100
AcDbPolyline
 62
2
  6
CONTINUOUS
 90
4
 70
0
 43
0.35
 10
11.9877651367
 20
100.5800039063
 10
8.9877675781
 20
101.2176708984
 10
11.9877651367
 20
101.5400009766
 10
8.9877675781
 20
102.1776679688
  0
LWPOLYLINE
  5
336
100
AcDbEntity
  8
0
100
AcDbPolyline
 62
2
  6
CONTINUOUS
 90
11
 70
0
 43
0.35
 10
10.4877636719
 20
105.6988388672
 10
9.9877685547
 20
105.565109375
 10
9.9877685547
 20
105.0851162109
 10
10.4877636719
 20
104.7388310547
 10
11.4877646484
 20
104.5262753906
 10
11.9877651367
 20
104.6600048828
 10
11.9877651367
 20
105.1399980469
 10
11.4877646484
 20
105.4862832031
 10
9.4877680664
 20
105.9113945313
 10
8.9877675781
 20
105.7776650391
 10
8.9877675781
 20
105.297671875
  0
LWPOLYLINE
  5
337
100
AcDbEntity
  8
0
100
AcDbPolyline
 62
2
  6
CONTINUOUS
 90
2
 70
0
 43
0.35
 10
9.9877685547
 20
106.7651083984
 10
11.9877651367
 20
106.8200009766
  0
LWPOLYLINE
  5
338
100
AcDbEntity
  8
0
100
AcDbPolyline
 62
2
  6
CONTINUOUS
 90
3
 70
0
 43
0.35
 10
12.9877661133
 20
106.1274414063
 10
12.9877661133
 20
106.3674433594
 10
9.9877685547
 20
107.7251162109
  0
LWPOLYLINE
  5
339
100
AcDbEntity
  8
0
100
AcDbPolyline
 62
2
  6
CONTINUOUS
 90
10
 70
0
 43
0.35
 10
9.9877685547
 20
109.4051083984
 10
9.9877685547
 20
108.9251152344
 10
10.4877636719
 20
108.5788300781
 10
11.4877646484
 20
108.3662744141
 10
11.9877651367
 20
108.5000039063
 10
11.9877651367
 20
108.9799970703
 10
11.4877646484
 20
109.3262822266
 10
10.4877636719
 20
109.5388378906
 10
8.9877675781
 20
109.1376708984
 10
8.9877675781
 20
109.8576660156
  0
LWPOLYLINE
  5
33A
100
AcDbEntity
  8
0
100
AcDbPolyline
 62
2
  6
CONTINUOUS
 90
3
 70
0
 43
0.35
 10
11.9877651367
 20
110.1799960938
 10
9.9877685547
 20
111.0851113281
 10
11.9877651367
 20
111.1400039063
  0
LWPOLYLINE
  5
33B
100
AcDbEntity
  8
0
100
AcDbPolyline
 62
2
  6
CONTINUOUS
 90
5
 70
0
 43
0.35
 10
11.9877651367
 20
112.2200019531
 10
11.9877651367
 20
112.1000009766
 10
11.7377675781
 20
112.1531425781
 10
11.7377675781
 20
112.2731435547
 10
11.9877651367
 20
112.2200019531
  0
LWPOLYLINE
  5
33C
100
AcDbEntity
  8
0
100
AcDbPolyline
 62
2
  6
CONTINUOUS
 90
4
 70
0
 43
0.35
 10
11.9877651367
 20
120.9799980469
 10
8.9877675781
 20
121.6176650391
 10
8.9877675781
 20
122.5776728516
 10
11.9877651367
 20
121.9399951172
  0
LWPOLYLINE
  5
33D
100
AcDbEntity
  8
0
100
AcDbPolyline
 62
2
  6
CONTINUOUS
 90
9
 70
0
 43
0.35
 10
11.4877646484
 20
123.0062753906
 10
11.9877651367
 20
123.1400048828
 10
11.9877651367
 20
123.6199980469
 10
11.4877646484
 20
123.9662832031
 10
10.4877636719
 20
124.1788388672
 10
9.9877685547
 20
124.045109375
 10
9.9877685547
 20
123.5651162109
 10
10.4877636719
 20
123.2188310547
 10
11.4877646484
 20
123.0062753906
  0
LWPOLYLINE
  5
33E
100
AcDbEntity
  8
0
100
AcDbPolyline
 62
2
  6
CONTINUOUS
 90
11
 70
0
 43
0.35
 10
10.4877636719
 20
126.0988330078
 10
9.9877685547
 20
125.9651142578
 10
9.9877685547
 20
125.4851103516
 10
10.4877636719
 20
125.1388359375
 10
11.4877646484
 20
124.9262802734
 10
11.9877651367
 20
125.0599990234
 10
11.9877651367
 20
125.5400029297
 10
11.4877646484
 20
125.8862773438
 10
9.4877680664
 20
126.3113886719
 10
8.9877675781
 20
126.1776699219
 10
8.9877675781
 20
125.6976660156
  0
LWPOLYLINE
  5
33F
100
AcDbEntity
  8
0
100
AcDbPolyline
 62
2
  6
CONTINUOUS
 90
2
 70
0
 43
0.35
 10
11.9877651367
 20
126.7400019531
 10
9.9877685547
 20
127.1651132813
  0
LWPOLYLINE
  5
340
100
AcDbEntity
  8
0
100
AcDbPolyline
 62
2
  6
CONTINUOUS
 90
5
 70
0
 43
0.35
 10
10.4877636719
 20
127.0588300781
 10
9.9877685547
 20
127.4051152344
 10
9.9877685547
 20
127.8851083984
 10
10.4877636719
 20
128.0188378906
 10
11.9877651367
 20
127.6999990234
  0
LWPOLYLINE
  5
341
100
AcDbEntity
  8
0
100
AcDbPolyline
 62
2
  6
CONTINUOUS
 90
5
 70
0
 43
0.35
 10
11.9877651367
 20
128.7799970703
 10
11.9877651367
 20
128.6599960938
 10
11.7377675781
 20
128.7131376953
 10
11.7377675781
 20
128.8331386719
 10
11.9877651367
 20
128.7799970703
  0
LWPOLYLINE
  5
342
100
AcDbEntity
  8
0
100
AcDbPolyline
 62
2
  6
CONTINUOUS
 90
5
 70
0
 43
0.35
 10
9.9877685547
 20
132.9251171875
 10
11.4877646484
 20
132.6062783203
 10
11.9877651367
 20
132.7399970703
 10
11.9877651367
 20
132.9799990234
 10
10.9877641602
 20
133.6725585938
  0
LWPOLYLINE
  5
343
100
AcDbEntity
  8
0
100
AcDbPolyline
 62
2
  6
CONTINUOUS
 90
2
 70
0
 43
0.35
 10
9.9877685547
 20
133.8851142578
 10
11.9877651367
 20
133.4600029297
  0
LWPOLYLINE
  5
344
100
AcDbEntity
  8
0
100
AcDbPolyline
 62
2
  6
CONTINUOUS
 90
11
 70
0
 43
0.35
 10
10.4877636719
 20
137.6188300781
 10
9.9877685547
 20
137.4851113281
 10
9.9877685547
 20
137.0051181641
 10
10.4877636719
 20
136.6588330078
 10
11.4877646484
 20
136.4462773438
 10
11.9877651367
 20
136.5799960938
 10
11.9877651367
 20
137.06
 10
11.4877646484
 20
137.4062744141
 10
9.4877680664
 20
137.8313964844
 10
8.9877675781
 20
137.6976669922
 10
8.9877675781
 20
137.2176738281
  0
LWPOLYLINE
  5
345
100
AcDbEntity
  8
0
100
AcDbPolyline
 62
2
  6
CONTINUOUS
 90
8
 70
0
 43
0.35
 10
10.4877636719
 20
139.5388349609
 10
9.9877685547
 20
139.4051162109
 10
9.9877685547
 20
138.9251123047
 10
10.4877636719
 20
138.5788378906
 10
11.4877646484
 20
138.3662822266
 10
11.9877651367
 20
138.5000009766
 10
11.9877651367
 20
138.9800048828
 10
11.4877646484
 20
139.3262792969
  0
LWPOLYLINE
  5
346
100
AcDbEntity
  8
0
100
AcDbPolyline
 62
2
  6
CONTINUOUS
 90
3
 70
0
 43
0.35
 10
9.9877685547
 20
139.6451181641
 10
11.4877646484
 20
139.3262792969
 10
11.9877651367
 20
139.3399970703
  0
LWPOLYLINE
  5
347
100
AcDbEntity
  8
0
100
AcDbPolyline
 62
2
  6
CONTINUOUS
 90
2
 70
0
 43
0.35
 10
11.9877651367
 20
140.1800039063
 10
9.9877685547
 20
140.6051152344
  0
LWPOLYLINE
  5
348
100
AcDbEntity
  8
0
100
AcDbPolyline
 62
2
  6
CONTINUOUS
 90
4
 70
0
 43
0.35
 10
10.4877636719
 20
140.4988320313
 10
9.9877685547
 20
140.8451171875
 10
10.4877636719
 20
140.9788359375
 10
11.9877651367
 20
140.6599970703
  0
LWPOLYLINE
  5
349
100
AcDbEntity
  8
0
100
AcDbPolyline
 62
2
  6
CONTINUOUS
 90
4
 70
0
 43
0.35
 10
10.4877636719
 20
140.9788359375
 10
9.9877685547
 20
141.3251103516
 10
10.4877636719
 20
141.4588398438
 10
11.9877651367
 20
141.1400009766
  0
LWPOLYLINE
  5
34A
100
AcDbEntity
  8
0
100
AcDbPolyline
 62
2
  6
CONTINUOUS
 90
8
 70
0
 43
0.35
 10
10.4877636719
 20
143.3788339844
 10
9.9877685547
 20
143.2451152344
 10
9.9877685547
 20
142.7651113281
 10
10.4877636719
 20
142.4188369141
 10
11.4877646484
 20
142.20628125
 10
11.9877651367
 20
142.34
 10
11.9877651367
 20
142.8200039063
 10
11.4877646484
 20
143.1662783203
  0
LWPOLYLINE
  5
34B
100
AcDbEntity
  8
0
100
AcDbPolyline
 62
2
  6
CONTINUOUS
 90
3
 70
0
 43
0.35
 10
9.9877685547
 20
143.4851171875
 10
11.4877646484
 20
143.1662783203
 10
11.9877651367
 20
143.1799960938
  0
LINE
  5
34C
100
AcDbEntity
  8
0
100
AcDbLine
 62
7
  6
CONTINUOUS
 10
205.0
 20
5.0
 11
20.0
 21
5.0
  0
LINE
  5
34D
100
AcDbEntity
  8
0
100
AcDbLine
 62
7
  6
CONTINUOUS
 10
205.0
 20
5.0
 11
205.0
 21
20.0
  0
LINE
  5
34E
100
AcDbEntity
  8
0
100
AcDbLine
 62
7
  6
CONTINUOUS
 10
85.0
 20
10.0
 11
20.0
 21
10.0
  0
LINE
  5
34F
100
AcDbEntity
  8
0
100
AcDbLine
 62
7
  6
CONTINUOUS
 10
205.0
 20
13.0
 11
195.0
 21
13.0
  0
LINE
  5
350
100
AcDbEntity
  8
0
100
AcDbLine
 62
7
  6
CONTINUOUS
 10
85.0
 20
15.0
 11
20.0
 21
15.0
  0
LINE
  5
351
100
AcDbEntity
  8
0
100
AcDbLine
 62
7
  6
CONTINUOUS
 10
205.0
 20
20.0
 11
20.0
 21
20.0
  0
LINE
  5
352
100
AcDbEntity
  8
0
100
AcDbLine
 62
7
  6
CONTINUOUS
 10
195.0
 20
5.0
 11
195.0
 21
20.0
  0
LINE
  5
353
100
AcDbEntity
  8
0
100
AcDbLine
 62
7
  6
CONTINUOUS
 10
85.0
 20
5.0
 11
85.0
 21
20.0
  0
LINE
  5
354
100
AcDbEntity
  8
0
100
AcDbLine
 62
7
  6
CONTINUOUS
 10
75.0
 20
5.0
 11
75.0
 21
20.0
  0
LINE
  5
355
100
AcDbEntity
  8
0
100
AcDbLine
 62
7
  6
CONTINUOUS
 10
60.0
 20
5.0
 11
60.0
 21
20.0
  0
LINE
  5
356
100
AcDbEntity
  8
0
100
AcDbLine
 62
7
  6
CONTINUOUS
 10
37.0
 20
5.0
 11
37.0
 21
20.0
  0
LINE
  5
357
100
AcDbEntity
  8
0
100
AcDbLine
 62
7
  6
CONTINUOUS
 10
27.0
 20
5.0
 11
27.0
 21
20.0
  0
LINE
  5
358
100
AcDbEntity
  8
0
100
AcDbLine
 62
7
  6
CONTINUOUS
 10
20.0
 20
5.0
 11
20.0
 21
20.0
  0
LWPOLYLINE
  5
359
100
AcDbEntity
  8
0
100
AcDbPolyline
 62
2
  6
CONTINUOUS
 90
10
 70
0
 43
0.35
 10
199.1356582031
 20
10.6108152466
 10
199.7502832031
 20
11.4441491699
 10
200.6252773438
 20
11.4441491699
 10
200.8856464844
 20
10.6108152466
 10
200.531390625
 20
8.9441487427
 10
199.916765625
 20
8.1108154907
 10
199.0417714844
 20
8.1108154907
 10
198.427125
 20
7.2774815674
 10
198.2500078125
 20
6.4441483154
 10
199.9999960938
 20
6.4441483154
  0
LWPOLYLINE
  5
35A
100
AcDbEntity
  8
0
100
AcDbPolyline
 62
2
  6
CONTINUOUS
 90
4
 70
0
 43
0.35
 10
98.5004501953
 20
16.410637085
 10
96.8000048828
 20
8.4106373291
 10
100.9004482422
 20
16.410637085
 10
99.2000029297
 20
8.4106373291
  0
LWPOLYLINE
  5
35B
100
AcDbEntity
  8
0
100
AcDbPolyline
 62
2
  6
CONTINUOUS
 90
6
 70
0
 43
0.35
 10
101.6000009766
 20
8.4106373291
 10
103.4000048828
 20
8.4106373291
 10
104.2834101563
 20
9.7439710693
 10
104.5668212891
 20
11.0773041382
 10
104.2502275391
 20
12.410637207
 10
102.4502236328
 20
12.410637207
  0
LWPOLYLINE
  5
35C
100
AcDbEntity
  8
0
100
AcDbPolyline
 62
2
  6
CONTINUOUS
 90
3
 70
0
 43
0.35
 10
101.6000009766
 20
8.4106373291
 10
103.3004570312
 20
16.410637085
 10
105.1004501953
 20
16.410637085
  0
LWPOLYLINE
  5
35D
100
AcDbEntity
  8
0
100
AcDbPolyline
 62
2
  6
CONTINUOUS
 90
7
 70
0
 43
0.35
 10
106.3999970703
 20
8.4106373291
 10
108.100453125
 20
16.410637085
 10
109.9004570313
 20
16.410637085
 10
110.2170507812
 20
15.0773046875
 10
109.9336289062
 20
13.7439709473
 10
109.0502236328
 20
12.410637207
 10
107.2502304687
 20
12.410637207
  0
LWPOLYLINE
  5
35E
100
AcDbEntity
  8
0
100
AcDbPolyline
 62
2
  6
CONTINUOUS
 90
10
 70
0
 43
0.35
 10
112.6170488281
 20
15.0773046875
 10
113.5004433594
 20
16.410637085
 10
114.700453125
 20
16.410637085
 10
115.017046875
 20
15.0773046875
 10
114.4502246094
 20
12.410637207
 10
113.5668085937
 20
11.0773041382
 10
112.3668203125
 20
11.0773041382
 10
111.4834042969
 20
9.7439710693
 10
111.2000039063
 20
8.4106373291
 10
113.6000019531
 20
8.4106373291
  0
LWPOLYLINE
  5
35F
100
AcDbEntity
  8
0
100
AcDbPolyline
 62
2
  6
CONTINUOUS
 90
5
 70
0
 43
0.35
 10
116.3000078125
 20
8.4106373291
 10
116.0
 20
8.4106373291
 10
116.1417109375
 20
9.0773041992
 10
116.4416972656
 20
9.0773041992
 10
116.3000078125
 20
8.4106373291
  0
LWPOLYLINE
  5
360
100
AcDbEntity
  8
0
100
AcDbPolyline
 62
2
  6
CONTINUOUS
 90
9
 70
0
 43
0.35
 10
121.3999902344
 20
8.4106373291
 10
121.0834179687
 20
9.7439710693
 10
122.2170410156
 20
15.0773046875
 10
123.1004570312
 20
16.410637085
 10
124.3004453125
 20
16.410637085
 10
124.6170390625
 20
15.0773046875
 10
123.4834160156
 20
9.7439710693
 10
122.6
 20
8.4106373291
 10
121.3999902344
 20
8.4106373291
  0
LWPOLYLINE
  5
361
100
AcDbEntity
  8
0
100
AcDbPolyline
 62
2
  6
CONTINUOUS
 90
9
 70
0
 43
0.35
 10
126.2000078125
 20
8.4106373291
 10
125.8834140625
 20
9.7439710693
 10
127.0170371094
 20
15.0773046875
 10
127.900453125
 20
16.410637085
 10
129.1004628906
 20
16.410637085
 10
129.4170351562
 20
15.0773046875
 10
128.2834121094
 20
9.7439710693
 10
127.3999960937
 20
8.4106373291
 10
126.2000078125
 20
8.4106373291
  0
LWPOLYLINE
  5
362
100
AcDbEntity
  8
0
100
AcDbPolyline
 62
2
  6
CONTINUOUS
 90
5
 70
0
 43
0.35
 10
130.6999960938
 20
8.4106373291
 10
130.4000097656
 20
8.4106373291
 10
130.5416992187
 20
9.0773041992
 10
130.8417070313
 20
9.0773041992
 10
130.6999960938
 20
8.4106373291
  0
LWPOLYLINE
  5
363
100
AcDbEntity
  8
0
100
AcDbPolyline
 62
2
  6
CONTINUOUS
 90
3
 70
0
 43
0.35
 10
137.833625
 20
13.7439709473
 10
139.0004628906
 20
16.410637085
 10
137.2999960938
 20
8.4106373291
  0
LWPOLYLINE
  5
364
100
AcDbEntity
  8
0
100
AcDbPolyline
 62
2
  6
CONTINUOUS
 90
2
 70
0
 43
0.35
 10
136.7000019531
 20
8.4106373291
 10
137.8999902344
 20
8.4106373291
  0
LWPOLYLINE
  5
365
100
AcDbEntity
  8
0
100
AcDbPolyline
 62
2
  6
CONTINUOUS
 90
10
 70
0
 43
0.35
 10
141.417046875
 20
15.0773046875
 10
142.3004628906
 20
16.410637085
 10
143.5004511719
 20
16.410637085
 10
143.8170449219
 20
15.0773046875
 10
143.2502226563
 20
12.410637207
 10
142.366828125
 20
11.0773041382
 10
141.1668183594
 20
11.0773041382
 10
140.2834023438
 20
9.7439710693
 10
140.0000019531
 20
8.4106373291
 10
142.4
 20
8.4106373291
  0
LWPOLYLINE
  5
366
100
AcDbEntity
  8
0
100
AcDbPolyline
 62
2
  6
CONTINUOUS
 90
9
 70
0
 43
0.35
 10
145.3999921875
 20
8.4106373291
 10
145.0833984375
 20
9.7439710693
 10
146.2170429687
 20
15.0773046875
 10
147.1004589844
 20
16.410637085
 10
148.3004472656
 20
16.410637085
 10
148.6170410156
 20
15.0773046875
 10
147.4834179687
 20
9.7439710693
 10
146.6000019531
 20
8.4106373291
 10
145.3999921875
 20
8.4106373291
  0
LWPOLYLINE
  5
367
100
AcDbEntity
  8
0
100
AcDbPolyline
 62
2
  6
CONTINUOUS
 90
9
 70
0
 43
0.35
 10
150.2000097656
 20
8.4106373291
 10
149.8834160156
 20
9.7439710693
 10
151.0170390625
 20
15.0773046875
 10
151.9004550781
 20
16.410637085
 10
153.1004433594
 20
16.410637085
 10
153.4170371094
 20
15.0773046875
 10
152.2834140625
 20
9.7439710693
 10
151.3999980469
 20
8.4106373291
 10
150.2000097656
 20
8.4106373291
  0
LWPOLYLINE
  5
368
100
AcDbEntity
  8
0
100
AcDbPolyline
 62
2
  6
CONTINUOUS
 90
5
 70
0
 43
0.35
 10
154.6999980469
 20
8.4106373291
 10
154.3999902344
 20
8.4106373291
 10
154.5417011719
 20
9.0773041992
 10
154.8417089844
 20
9.0773041992
 10
154.6999980469
 20
8.4106373291
  0
LWPOLYLINE
  5
369
100
AcDbEntity
  8
0
100
AcDbPolyline
 62
2
  6
CONTINUOUS
 90
9
 70
0
 43
0.35
 10
159.8000019531
 20
8.4106373291
 10
159.4834082031
 20
9.7439710693
 10
160.6170527344
 20
15.0773046875
 10
161.5004472656
 20
16.410637085
 10
162.7004570312
 20
16.410637085
 10
163.0170507812
 20
15.0773046875
 10
161.88340625
 20
9.7439710693
 10
160.9999902344
 20
8.4106373291
 10
159.8000019531
 20
8.4106373291
  0
LWPOLYLINE
  5
36A
100
AcDbEntity
  8
0
100
AcDbPolyline
 62
2
  6
CONTINUOUS
 90
9
 70
0
 43
0.35
 10
164.5999980469
 20
8.4106373291
 10
164.2834042969
 20
9.7439710693
 10
165.4170488281
 20
15.0773046875
 10
166.3004433594
 20
16.410637085
 10
167.500453125
 20
16.410637085
 10
167.817046875
 20
15.0773046875
 10
166.6834023438
 20
9.7439710693
 10
165.8000078125
 20
8.4106373291
 10
164.5999980469
 20
8.4106373291
  0
LWPOLYLINE
  5
36B
100
AcDbEntity
  8
0
100
AcDbPolyline
 62
2
  6
CONTINUOUS
 90
2
 70
0
 43
0.35
 10
170.8502324219
 20
12.410637207
 10
173.2502304688
 20
12.410637207
  0
LWPOLYLINE
  5
36C
100
AcDbEntity
  8
0
100
AcDbPolyline
 62
2
  6
CONTINUOUS
 90
9
 70
0
 43
0.35
 10
174.1999902344
 20
8.4106373291
 10
173.8834179688
 20
9.7439710693
 10
175.0170410156
 20
15.0773046875
 10
175.9004570313
 20
16.410637085
 10
177.1004453125
 20
16.410637085
 10
177.4170390625
 20
15.0773046875
 10
176.2834160156
 20
9.7439710693
 10
175.4
 20
8.4106373291
 10
174.1999902344
 20
8.4106373291
  0
LWPOLYLINE
  5
36D
100
AcDbEntity
  8
0
100
AcDbPolyline
 62
2
  6
CONTINUOUS
 90
3
 70
0
 43
0.35
 10
181.0336328125
 20
13.7439709473
 10
182.2004492188
 20
16.410637085
 10
180.5000039062
 20
8.4106373291
  0
LWPOLYLINE
  5
36E
100
AcDbEntity
  8
0
100
AcDbPolyline
 62
2
  6
CONTINUOUS
 90
2
 70
0
 43
0.35
 10
179.9000097656
 20
8.4106373291
 10
181.0999980469
 20
8.4106373291
  0
LWPOLYLINE
  5
36F
100
AcDbEntity
  8
0
100
AcDbPolyline
 62
2
  6
CONTINUOUS
 90
5
 70
0
 43
0.35
 10
76.0625019531
 20
5.9664888916
 10
76.5407548828
 20
8.2164890747
 10
77.0939238281
 20
8.9664891357
 10
77.4876679687
 20
8.9664891357
 10
76.8500009766
 20
5.9664888916
  0
LWPOLYLINE
  5
370
100
AcDbEntity
  8
0
100
AcDbPolyline
 62
2
  6
CONTINUOUS
 90
4
 70
0
 43
0.35
 10
75.8249707031
 20
5.4664890747
 10
75.7999951172
 20
5.9664888916
 10
77.1124970703
 20
5.9664888916
 10
76.8749765625
 20
5.4664890747
  0
LWPOLYLINE
  5
371
100
AcDbEntity
  8
0
100
AcDbPolyline
 62
2
  6
CONTINUOUS
 90
8
 70
0
 43
0.35
 10
79.2688300781
 20
7.4664890137
 10
79.1126171875
 20
7.9664888306
 10
78.5876142578
 20
7.9664888306
 10
78.2188349609
 20
7.4664890137
 10
78.0062792969
 20
6.4664893799
 10
78.1625029297
 20
5.9664888916
 10
78.6874951172
 20
5.9664888916
 10
79.0562744141
 20
6.4664893799
  0
LWPOLYLINE
  5
372
100
AcDbEntity
  8
0
100
AcDbPolyline
 62
2
  6
CONTINUOUS
 90
3
 70
0
 43
0.35
 10
79.3751132812
 20
7.9664888306
 10
79.0562744141
 20
6.4664893799
 10
79.08125
 20
5.9664888916
  0
LWPOLYLINE
  5
373
100
AcDbEntity
  8
0
100
AcDbPolyline
 62
2
  6
CONTINUOUS
 90
2
 70
0
 43
0.35
 10
79.9999970703
 20
5.9664888916
 10
80.4251083984
 20
7.9664888306
  0
LWPOLYLINE
  5
374
100
AcDbEntity
  8
0
100
AcDbPolyline
 62
2
  6
CONTINUOUS
 90
4
 70
0
 43
0.35
 10
80.3188359375
 20
7.4664890137
 10
80.6876152344
 20
7.9664888306
 10
80.8438388672
 20
7.4664890137
 10
80.525
 20
5.9664888916
  0
LWPOLYLINE
  5
375
100
AcDbEntity
  8
0
100
AcDbPolyline
 62
2
  6
CONTINUOUS
 90
4
 70
0
 43
0.35
 10
80.8438388672
 20
7.4664890137
 10
81.2126181641
 20
7.9664888306
 10
81.3688310547
 20
7.4664890137
 10
81.0500029297
 20
5.9664888916
  0
LWPOLYLINE
  5
376
100
AcDbEntity
  8
0
100
AcDbPolyline
 62
2
  6
CONTINUOUS
 90
8
 70
0
 43
0.35
 10
83.4688320312
 20
7.4664890137
 10
83.3126083984
 20
7.9664888306
 10
82.7876162109
 20
7.9664888306
 10
82.4188369141
 20
7.4664890137
 10
82.20628125
 20
6.4664893799
 10
82.3625048828
 20
5.9664888916
 10
82.8874970703
 20
5.9664888916
 10
83.2562763672
 20
6.4664893799
  0
LWPOLYLINE
  5
377
100
AcDbEntity
  8
0
100
AcDbPolyline
 62
2
  6
CONTINUOUS
 90
3
 70
0
 43
0.35
 10
83.5751152344
 20
7.9664888306
 10
83.2562763672
 20
6.4664893799
 10
83.2812519531
 20
5.9664888916
  0
LWPOLYLINE
  5
378
100
AcDbEntity
  8
0
100
AcDbPolyline
 62
2
  6
CONTINUOUS
 90
4
 70
0
 43
0.35
 10
60.1500029297
 20
5.9664888916
 10
60.7876699219
 20
8.9664891357
 10
61.8376650391
 20
8.9664891357
 10
61.1999980469
 20
5.9664888916
  0
LWPOLYLINE
  5
379
100
AcDbEntity
  8
0
100
AcDbPolyline
 62
2
  6
CONTINUOUS
 90
9
 70
0
 43
0.35
 10
62.3562763672
 20
6.4664893799
 10
62.5125
 20
5.9664888916
 10
63.0375029297
 20
5.9664888916
 10
63.4062822266
 20
6.4664893799
 10
63.6188378906
 20
7.4664890137
 10
63.4626142578
 20
7.9664888306
 10
62.9376113281
 20
7.9664888306
 10
62.5688320312
 20
7.4664890137
 10
62.3562763672
 20
6.4664893799
  0
LWPOLYLINE
  5
37A
100
AcDbEntity
  8
0
100
AcDbPolyline
 62
2
  6
CONTINUOUS
 90
11
 70
0
 43
0.35
 10
65.7188388672
 20
7.4664890137
 10
65.5626152344
 20
7.9664888306
 10
65.0376123047
 20
7.9664888306
 10
64.6688330078
 20
7.4664890137
 10
64.4562773437
 20
6.4664893799
 10
64.6125009766
 20
5.9664888916
 10
65.1375039062
 20
5.9664888916
 10
65.5062832031
 20
6.4664893799
 10
65.9313945312
 20
8.4664893188
 10
65.7751708984
 20
8.9664891357
 10
65.2501679687
 20
8.9664891357
  0
LWPOLYLINE
  5
37B
100
AcDbEntity
  8
0
100
AcDbPolyline
 62
2
  6
CONTINUOUS
 90
2
 70
0
 43
0.35
 10
66.4499951172
 20
5.9664888916
 10
66.8751171875
 20
7.9664888306
  0
LWPOLYLINE
  5
37C
100
AcDbEntity
  8
0
100
AcDbPolyline
 62
2
  6
CONTINUOUS
 90
5
 70
0
 43
0.35
 10
66.7688339844
 20
7.4664890137
 10
67.1376132812
 20
7.9664888306
 10
67.6626162109
 20
7.9664888306
 10
67.8188398437
 20
7.4664890137
 10
67.5000009766
 20
5.9664888916
  0
LWPOLYLINE
  5
37D
100
AcDbEntity
  8
0
100
AcDbPolyline
 62
2
  6
CONTINUOUS
 90
5
 70
0
 43
0.35
 10
68.9751181641
 20
7.9664888306
 10
68.6562792969
 20
6.4664893799
 10
68.8125029297
 20
5.9664888916
 10
69.0749990234
 20
5.9664888916
 10
69.8125576172
 20
6.9664891968
  0
LWPOLYLINE
  5
37E
100
AcDbEntity
  8
0
100
AcDbPolyline
 62
2
  6
CONTINUOUS
 90
2
 70
0
 43
0.35
 10
70.0251132812
 20
7.9664888306
 10
69.6000019531
 20
5.9664888916
  0
LWPOLYLINE
  5
37F
100
AcDbEntity
  8
0
100
AcDbPolyline
 62
2
  6
CONTINUOUS
 90
8
 70
0
 43
0.35
 10
72.0188310547
 20
7.4664890137
 10
71.8626181641
 20
7.9664888306
 10
71.3376152344
 20
7.9664888306
 10
70.9688359375
 20
7.4664890137
 10
70.7562802734
 20
6.4664893799
 10
70.9125039062
 20
5.9664888916
 10
71.4374960937
 20
5.9664888916
 10
71.8062753906
 20
6.4664893799
  0
LWPOLYLINE
  5
380
100
AcDbEntity
  8
0
100
AcDbPolyline
 62
2
  6
CONTINUOUS
 90
9
 70
0
 43
0.35
 10
73.175109375
 20
7.9664888306
 10
72.85628125
 20
6.4664893799
 10
73.0125048828
 20
5.9664888916
 10
73.5374970703
 20
5.9664888916
 10
73.9062763672
 20
6.4664893799
 10
74.0125595703
 20
6.9664891968
 10
73.8563359375
 20
7.4664890137
 10
73.3313330078
 20
7.4664890137
 10
72.9625537109
 20
6.9664891968
  0
LWPOLYLINE
  5
381
100
AcDbEntity
  8
0
100
AcDbPolyline
 62
2
  6
CONTINUOUS
 90
4
 70
0
 43
0.35
 10
40.1
 20
5.9664888916
 10
40.7376669922
 20
8.9664891357
 10
41.1499951172
 20
5.9664888916
 10
41.7876728516
 20
8.9664891357
  0
LWPOLYLINE
  5
382
100
AcDbEntity
  8
0
100
AcDbPolyline
 62
2
  6
CONTINUOUS
 90
11
 70
0
 43
0.35
 10
45.6688359375
 20
7.4664890137
 10
45.5126123047
 20
7.9664888306
 10
44.987609375
 20
7.9664888306
 10
44.6188300781
 20
7.4664890137
 10
44.4062744141
 20
6.4664893799
 10
44.5624980469
 20
5.9664888916
 10
45.0875009766
 20
5.9664888916
 10
45.4562802734
 20
6.4664893799
 10
45.8813916016
 20
8.4664893188
 10
45.7251679687
 20
8.9664891357
 10
45.2001650391
 20
8.9664891357
  0
LWPOLYLINE
  5
383
100
AcDbEntity
  8
0
100
AcDbPolyline
 62
2
  6
CONTINUOUS
 90
9
 70
0
 43
0.35
 10
46.5062753906
 20
6.4664893799
 10
46.6624990234
 20
5.9664888916
 10
47.1875019531
 20
5.9664888916
 10
47.55628125
 20
6.4664893799
 10
47.7688369141
 20
7.4664890137
 10
47.6126132812
 20
7.9664888306
 10
47.0876103516
 20
7.9664888306
 10
46.7188310547
 20
7.4664890137
 10
46.5062753906
 20
6.4664893799
  0
LWPOLYLINE
  5
384
100
AcDbEntity
  8
0
100
AcDbPolyline
 62
2
  6
CONTINUOUS
 90
2
 70
0
 43
0.35
 10
48.9251152344
 20
7.9664888306
 10
48.5000039062
 20
5.9664888916
  0
LWPOLYLINE
  5
385
100
AcDbEntity
  8
0
100
AcDbPolyline
 62
2
  6
CONTINUOUS
 90
2
 70
0
 43
0.35
 10
48.6062763672
 20
6.4664893799
 10
49.9751103516
 20
7.9664888306
  0
LWPOLYLINE
  5
386
100
AcDbEntity
  8
0
100
AcDbPolyline
 62
2
  6
CONTINUOUS
 90
2
 70
0
 43
0.35
 10
49.1063037109
 20
6.9664891968
 10
49.5499990234
 20
5.9664888916
  0
LWPOLYLINE
  5
387
100
AcDbEntity
  8
0
100
AcDbPolyline
 62
2
  6
CONTINUOUS
 90
2
 70
0
 43
0.35
 10
51.0251162109
 20
7.9664888306
 10
51.1249970703
 20
5.9664888916
  0
LWPOLYLINE
  5
388
100
AcDbEntity
  8
0
100
AcDbPolyline
 62
2
  6
CONTINUOUS
 90
3
 70
0
 43
0.35
 10
50.3874384766
 20
4.9664892578
 10
50.6499453125
 20
4.9664892578
 10
52.0751113281
 20
7.9664888306
  0
LWPOLYLINE
  5
389
100
AcDbEntity
  8
0
100
AcDbPolyline
 62
2
  6
CONTINUOUS
 90
5
 70
0
 43
0.35
 10
52.6999951172
 20
5.9664888916
 10
53.1251171875
 20
7.9664888306
 10
53.4375537109
 20
6.9664891968
 10
54.1751123047
 20
7.9664888306
 10
53.7500009766
 20
5.9664888916
  0
LWPOLYLINE
  5
38A
100
AcDbEntity
  8
0
100
AcDbPolyline
 62
2
  6
CONTINUOUS
 90
5
 70
0
 43
0.35
 10
54.9312548828
 20
5.9664888916
 10
54.7999960937
 20
5.9664888916
 10
54.8531376953
 20
6.2164891357
 10
54.9843857422
 20
6.2164891357
 10
54.9312548828
 20
5.9664888916
  0
LWPOLYLINE
  5
38B
100
AcDbEntity
  8
0
100
AcDbPolyline
 62
2
  6
CONTINUOUS
 90
3
 70
0
 43
0.35
 10
27.8000019531
 20
5.9664888916
 10
28.962671875
 20
8.9664891357
 10
28.8499970703
 20
5.9664888916
  0
LWPOLYLINE
  5
38C
100
AcDbEntity
  8
0
100
AcDbPolyline
 62
2
  6
CONTINUOUS
 90
5
 70
0
 43
0.35
 10
30.3251142578
 20
7.9664888306
 10
30.0062753906
 20
6.4664893799
 10
30.1624990234
 20
5.9664888916
 10
30.4249951172
 20
5.9664888916
 10
31.1625537109
 20
6.9664891968
  0
LWPOLYLINE
  5
38D
100
AcDbEntity
  8
0
100
AcDbPolyline
 62
2
  6
CONTINUOUS
 90
2
 70
0
 43
0.35
 10
31.375109375
 20
7.9664888306
 10
30.9499980469
 20
5.9664888916
  0
LWPOLYLINE
  5
38E
100
AcDbEntity
  8
0
100
AcDbPolyline
 62
2
  6
CONTINUOUS
 90
8
 70
0
 43
0.35
 10
33.3688378906
 20
7.4664890137
 10
33.2126142578
 20
7.9664888306
 10
32.6876113281
 20
7.9664888306
 10
32.3188320312
 20
7.4664890137
 10
32.1062763672
 20
6.4664893799
 10
32.2625
 20
5.9664888916
 10
32.7875029297
 20
5.9664888916
 10
33.1562822266
 20
6.4664893799
  0
LWPOLYLINE
  5
38F
100
AcDbEntity
  8
0
100
AcDbPolyline
 62
2
  6
CONTINUOUS
 90
2
 70
0
 43
0.35
 10
34.1000048828
 20
5.9664888916
 10
34.5251162109
 20
7.9664888306
  0
LWPOLYLINE
  5
390
100
AcDbEntity
  8
0
100
AcDbPolyline
 62
2
  6
CONTINUOUS
 90
4
 70
0
 43
0.35
 10
34.4188330078
 20
7.4664890137
 10
34.7876123047
 20
7.9664888306
 10
34.9438359375
 20
7.4664890137
 10
34.6249970703
 20
5.9664888916
  0
LWPOLYLINE
  5
391
100
AcDbEntity
  8
0
100
AcDbPolyline
 62
2
  6
CONTINUOUS
 90
4
 70
0
 43
0.35
 10
34.9438359375
 20
7.4664890137
 10
35.3126152344
 20
7.9664888306
 10
35.4688388672
 20
7.4664890137
 10
35.15
 20
5.9664888916
  0
LWPOLYLINE
  5
392
100
AcDbEntity
  8
0
100
AcDbPolyline
 62
2
  6
CONTINUOUS
 90
4
 70
0
 43
0.35
 10
20.987671875
 20
8.9664891357
 10
20.3500048828
 20
5.9664888916
 10
22.0376669922
 20
8.9664891357
 10
21.4
 20
5.9664888916
  0
LWPOLYLINE
  5
393
100
AcDbEntity
  8
0
100
AcDbPolyline
 62
2
  6
CONTINUOUS
 90
9
 70
0
 43
0.35
 10
22.5562783203
 20
6.4664893799
 10
22.7125019531
 20
5.9664888916
 10
23.2375048828
 20
5.9664888916
 10
23.6062734375
 20
6.4664893799
 10
23.4500605469
 20
6.9664891968
 10
23.8188398437
 20
7.4664890137
 10
23.6626162109
 20
7.9664888306
 10
23.1376132812
 20
7.9664888306
 10
22.7688339844
 20
7.4664890137
  0
LWPOLYLINE
  5
394
100
AcDbEntity
  8
0
100
AcDbPolyline
 62
2
  6
CONTINUOUS
 90
2
 70
0
 43
0.35
 10
23.1875537109
 20
6.9664891968
 10
23.4500605469
 20
6.9664891968
  0
LWPOLYLINE
  5
395
100
AcDbEntity
  8
0
100
AcDbPolyline
 62
2
  6
CONTINUOUS
 90
5
 70
0
 43
0.35
 10
24.5499960937
 20
5.9664888916
 10
24.9751181641
 20
7.9664888306
 10
25.2875546875
 20
6.9664891968
 10
26.0251132812
 20
7.9664888306
 10
25.6000019531
 20
5.9664888916
  0
LWPOLYLINE
  5
396
100
AcDbEntity
  8
0
100
AcDbPolyline
 62
2
  6
CONTINUOUS
 90
3
 70
0
 43
0.35
 10
195.7999941406
 20
14.966489624
 10
196.9626640625
 20
17.9664885254
 10
196.85
 20
14.966489624
  0
LWPOLYLINE
  5
397
100
AcDbEntity
  8
0
100
AcDbPolyline
 62
2
  6
CONTINUOUS
 90
5
 70
0
 43
0.35
 10
198.3251171875
 20
16.9664888916
 10
198.0062675781
 20
15.4664887695
 10
198.1625019531
 20
14.966489624
 10
198.4249980469
 20
14.966489624
 10
199.1625566406
 20
15.9664892578
  0
LWPOLYLINE
  5
398
100
AcDbEntity
  8
0
100
AcDbPolyline
 62
2
  6
CONTINUOUS
 90
2
 70
0
 43
0.35
 10
199.3751230469
 20
16.9664888916
 10
198.9499902344
 20
14.966489624
  0
LWPOLYLINE
  5
399
100
AcDbEntity
  8
0
100
AcDbPolyline
 62
2
  6
CONTINUOUS
 90
8
 70
0
 43
0.35
 10
201.3688300781
 20
16.4664897461
 10
201.2126171875
 20
16.9664888916
 10
200.6876035156
 20
16.9664888916
 10
200.3188242188
 20
16.4664897461
 10
200.1062792969
 20
15.4664887695
 10
200.2624921875
 20
14.966489624
 10
200.7875058594
 20
14.966489624
 10
201.1562851562
 20
15.4664887695
  0
LWPOLYLINE
  5
39A
100
AcDbEntity
  8
0
100
AcDbPolyline
 62
2
  6
CONTINUOUS
 90
2
 70
0
 43
0.35
 10
202.1000078125
 20
14.966489624
 10
202.5251191406
 20
16.9664888916
  0
LWPOLYLINE
  5
39B
100
AcDbEntity
  8
0
100
AcDbPolyline
 62
2
  6
CONTINUOUS
 90
4
 70
0
 43
0.35
 10
202.4188359375
 20
16.4664897461
 10
202.7876152344
 20
16.9664888916
 10
202.943828125
 20
16.4664897461
 10
202.625
 20
14.966489624
  0
LWPOLYLINE
  5
39C
100
AcDbEntity
  8
0
100
AcDbPolyline
 62
2
  6
CONTINUOUS
 90
4
 70
0
 43
0.35
 10
202.943828125
 20
16.4664897461
 10
203.3126074219
 20
16.9664888916
 10
203.4688417969
 20
16.4664897461
 10
203.1499921875
 20
14.966489624
  0
LINE
  5
39D
100
AcDbEntity
  8
0
100
AcDbLine
 62
7
  6
CONTINUOUS
 10
-0.0
 20
0.0
 11
210.0
 21
0.0
  0
LINE
  5
39E
100
AcDbEntity
  8
0
100
AcDbLine
 62
7
  6
CONTINUOUS
 10
-0.0
 20
0.0
 11
-0.0
 21
297.0
  0
LINE
  5
39F
100
AcDbEntity
  8
0
100
AcDbLine
 62
7
  6
CONTINUOUS
 10
20.0
 20
5.0
 11
20.0
 21
292.0
  0
LINE
  5
3A0
100
AcDbEntity
  8
0
100
AcDbLine
 62
7
  6
CONTINUOUS
 10
205.0
 20
292.0
 11
205.0
 21
5.0
  0
LINE
  5
3A1
100
AcDbEntity
  8
0
100
AcDbLine
 62
7
  6
CONTINUOUS
 10
210.0
 20
0.0
 11
210.0
 21
297.0
  0
LINE
  5
3A2
100
AcDbEntity
  8
0
100
AcDbLine
 62
7
  6
CONTINUOUS
 10
20.0
 20
292.0
 11
205.0
 21
292.0
  0
LINE
  5
3A3
100
AcDbEntity
  8
0
100
AcDbLine
 62
7
  6
CONTINUOUS
 10
-0.0
 20
297.0
 11
210.0
 21
297.0
  0
LWPOLYLINE
  5
3A4
100
AcDbEntity
  8
0
100
AcDbPolyline
 62
2
  6
CONTINUOUS
 90
7
 70
0
 43
0.2499999924
 10
177.4929648438
 20
1.2175644302
 10
178.2279667969
 20
1.2175644302
 10
178.5721464844
 20
1.6842311554
 10
178.7705332031
 20
2.6175644379
 10
178.62471875
 20
3.0842310791
 10
178.1347246094
 20
3.0842310791
 10
177.7905449219
 20
2.6175644379
  0
LWPOLYLINE
  5
3A5
100
AcDbEntity
  8
0
100
AcDbPolyline
 62
2
  6
CONTINUOUS
 90
2
 70
0
 43
0.2499999924
 10
187.7363496094
 20
2.1508977966
 10
188.22634375
 20
2.1508977966
  0
LWPOLYLINE
  5
3A6
100
AcDbEntity
  8
0
100
AcDbPolyline
 62
2
  6
CONTINUOUS
 90
9
 70
0
 43
0.2499999924
 10
175.6321601562
 20
1.6842311554
 10
175.777953125
 20
1.2175644302
 10
176.2679472656
 20
1.2175644302
 10
176.6121484375
 20
1.6842311554
 10
176.8105351562
 20
2.6175644379
 10
176.6647207031
 20
3.0842310791
 10
176.1747265625
 20
3.0842310791
 10
175.8305253906
 20
2.6175644379
 10
175.6321601562
 20
1.6842311554
  0
LWPOLYLINE
  5
3A7
100
AcDbEntity
  8
0
100
AcDbPolyline
 62
2
  6
CONTINUOUS
 90
8
 70
0
 43
0.2499999924
 10
182.6905292969
 20
2.6175644379
 10
182.5447363281
 20
3.0842310791
 10
182.0547207031
 20
3.0842310791
 10
181.7105410156
 20
2.6175644379
 10
181.5121542969
 20
1.6842311554
 10
181.6579472656
 20
1.2175644302
 10
182.1479628906
 20
1.2175644302
 10
182.4921425781
 20
1.6842311554
  0
LWPOLYLINE
  5
3A8
100
AcDbEntity
  8
0
100
AcDbPolyline
 62
2
  6
CONTINUOUS
 90
2
 70
0
 43
0.2499999924
 10
174.6581230469
 20
4.0175643616
 10
174.0629628906
 20
1.2175644302
  0
LWPOLYLINE
  5
3A9
100
AcDbEntity
  8
0
100
AcDbPolyline
 62
2
  6
CONTINUOUS
 90
2
 70
0
 43
0.2499999924
 10
177.294578125
 20
0.2842311058
 10
177.8897382813
 20
3.0842310791
  0
LWPOLYLINE
  5
3AA
100
AcDbEntity
  8
0
100
AcDbPolyline
 62
2
  6
CONTINUOUS
 90
5
 70
0
 43
0.2499999924
 10
179.4529628906
 20
1.2175644302
 10
179.8497363281
 20
3.0842310791
 10
180.14134375
 20
2.1508977966
 10
180.8297246094
 20
3.0842310791
 10
180.4329511719
 20
1.2175644302
  0
LWPOLYLINE
  5
3AB
100
AcDbEntity
  8
0
100
AcDbPolyline
 62
2
  6
CONTINUOUS
 90
3
 70
0
 43
0.2499999924
 10
182.7897226563
 20
3.0842310791
 10
182.4921425781
 20
1.6842311554
 10
182.515453125
 20
1.2175644302
  0
LWPOLYLINE
  5
3AC
100
AcDbEntity
  8
0
100
AcDbPolyline
 62
2
  6
CONTINUOUS
 90
2
 70
0
 43
0.2499999924
 10
183.3729589844
 20
1.2175644302
 10
183.7697324219
 20
3.0842310791
  0
LWPOLYLINE
  5
3AD
100
AcDbEntity
  8
0
100
AcDbPolyline
 62
2
  6
CONTINUOUS
 90
4
 70
0
 43
0.2499999924
 10
189.9879550781
 20
1.2175644302
 10
190.5831152344
 20
4.0175643616
 10
189.3521464844
 20
1.6842311554
 10
190.33215625
 20
1.6842311554
  0
LWPOLYLINE
  5
3AE
100
AcDbEntity
  8
0
100
AcDbPolyline
 62
2
  6
CONTINUOUS
 90
3
 70
0
 43
0.2499999924
 10
187.2929550781
 20
1.2175644302
 10
188.378109375
 20
4.0175643616
 10
188.2729648437
 20
1.2175644302
  0
LWPOLYLINE
  5
3AF
100
AcDbEntity
  8
0
100
AcDbPolyline
 62
2
  6
CONTINUOUS
 90
9
 70
0
 43
0.2499999924
 10
174.4131152344
 20
4.0175643616
 10
174.0689140625
 20
3.5508978882
 10
173.8705273437
 20
2.6175644379
 10
174.0163417969
 20
2.1508977966
 10
174.5063359375
 20
2.1508977966
 10
174.8505371094
 20
2.6175644379
 10
175.0489238281
 20
3.5508978882
 10
174.903109375
 20
4.0175643616
 10
174.4131152344
 20
4.0175643616
  0
LWPOLYLINE
  5
3B0
100
AcDbEntity
  8
0
100
AcDbPolyline
 62
2
  6
CONTINUOUS
 90
4
 70
0
 43
0.2499999924
 10
183.6705390625
 20
2.6175644379
 10
184.01471875
 20
3.0842310791
 10
184.1605332031
 20
2.6175644379
 10
183.862953125
 20
1.2175644302
  0
LWPOLYLINE
  5
3B1
100
AcDbEntity
  8
0
100
AcDbPolyline
 62
2
  6
CONTINUOUS
 90
4
 70
0
 43
0.2499999924
 10
184.1605332031
 20
2.6175644379
 10
184.504734375
 20
3.0842310791
 10
184.6505273437
 20
2.6175644379
 10
184.3529472656
 20
1.2175644302
  0
ENDSEC
  0
SECTION
  2
OBJECTS
  0
DICTIONARY
  5
C
100
AcDbDictionary
280
0
281
1
  3
ACAD_GROUP
350
D
  3
ACAD_MLINESTYLE
350
17
  3
ACAD_LAYOUT
350
1A
  3
ACAD_PLOTSETTINGS
350
19
  3
ACAD_PLOTSTYLENAME
350
E
  0
DICTIONARY
  5
D
102
{ACAD_REACTORS
330
C
102
}
100
AcDbDictionary
280
0
281
1
  0
ACDBDICTIONARYWDFLT
  5
E
102
{ACAD_REACTORS
330
C
102
}
100
AcDbDictionary
281
1
  3
Normal
350
F
100
AcDbDictionaryWithDefault
340
F
  0
DICTIONARY
  5
17
102
{ACAD_REACTORS
330
C
102
}
100
AcDbDictionary
280
0
281
1
  3
Standard
350
18
  0
DICTIONARY
  5
19
102
{ACAD_REACTORS
330
C
102
}
100
AcDbDictionary
281
1
  0
DICTIONARY
  5
1A
102
{ACAD_REACTORS
330
C
102
}
100
AcDbDictionary
281
1
  3
Layout1
350
1E
  3
Model
350
22
  0
ACDBPLACEHOLDER
  5
F
102
{ACAD_REACTORS
330
E
102
}
  0
MLINESTYLE
  5
18
102
{ACAD_REACTORS
330
17
102
}
100
AcDbMlineStyle
  2
STANDARD
 70
0
  3

 62
256
 51
90.0
 52
90.0
 71
2
 49
0.5
 62
256
  6
BYLAYER
 49
-0.5
 62
256
  6
BYLAYER
  0
LAYOUT
  5
1E
102
{ACAD_REACTORS
330
1A
102
}
100
AcDbPlotSettings
  1

  2

  4

  6

 40
0.0
 41
0.0
 42
0.0
 43
0.0
 44
0.0
 45
0.0
 46
0.0
 47
0.0
 48
0.0
 49
0.0
140
0.0
141
0.0
142
1.0
143
1.0
 70
0
 72
0
 73
0
 74
0
  7

 75
0
147
1.0
148
0.0
149
0.0
100
AcDbLayout
  1
Layout1
 70
0
 71
0
 10
0.0
 20
0.0
 11
0.0
 21
0.0
 12
0.0
 22
0.0
 32
0.0
 14
0.0
 24
0.0
 34
0.0
 15
0.0
 25
0.0
 35
0.0
146
0.0
 13
0.0
 23
0.0
 33
0.0
 16
0.0
 26
0.0
 36
0.0
 17
0.0
 27
0.0
 37
0.0
 76
0
330
1B
331
0
345
0
346
0
  0
LAYOUT
  5
22
102
{ACAD_REACTORS
330
1A
102
}
100
AcDbPlotSettings
  1

  2

  4

  6

 40
0.0
 41
0.0
 42
0.0
 43
0.0
 44
0.0
 45
0.0
 46
0.0
 47
0.0
 48
0.0
 49
0.0
140
0.0
141
0.0
142
1.0
143
1.0
 70
0
 72
0
 73
0
 74
0
  7

 75
0
147
1.0
148
0.0
149
0.0
100
AcDbLayout
  1
Model
 70
0
 71
0
 10
0.0
 20
0.0
 11
0.0
 21
0.0
 12
0.0
 22
0.0
 32
0.0
 14
0.0
 24
0.0
 34
0.0
 15
0.0
 25
0.0
 35
0.0
146
0.0
 13
0.0
 23
0.0
 33
0.0
 16
0.0
 26
0.0
 36
0.0
 17
0.0
 27
0.0
 37
0.0
 76
0
330
1F
331
0
345
0
346
0
  0
ENDSEC
  0
EOF
