  0
SECTION
  2
HEADER
  9
$ACADVER
  1
AC1015
  9
$DWGCODEPAGE
  3
ANSI_1252
  9
$EXTMAX
 10
210.0
 20
297.0
 30
0.0
  9
$EXTMIN
 10
0.0
 20
0.0
 30
0.0
  9
$LIMMIN
 10
0.0
 20
0.0
  9
$LIMMAX
 10
210.0
 20
297.0
  9
$VIEWCTR
 10
105.0
 20
148.5
  9
$VIEWSIZE
 40
297.0
  9
$CLAYER
  8
0
  9
$LTSCALE
 40
19.36
  9
$CELTYPE
  6
BYLAYER
  9
$DIMSCALE
 40
1.0
  9
$DIMASZ
 40
5.0
  9
$DIMEXO
 40
2.2
  9
$DIMDLI
 40
13.376
  9
$DIMEXE
 40
6.336
  9
$DIMCEN
 40
3.168
  9
$DIMLFAC
 40
1.0
  9
$DIMBLK
  1
_FILLED
  9
$DIMTXT
 40
4.0
  9
$DIMTOL
 70
1
  9
$DIMLIM
 70
0
  9
$DIMTFAC
 40
1.0
  9
$DIMTP
 40
0.00004
  9
$DIMTM
 40
0.00004
  9
$PDMODE
 70
3
  9
$PDSIZE
 40
0.3125
  9
$HANDSEED
  5
4B6
  9
$MEASUREMENT
 70
1
  9
$INSUNITS
 70
4
  0
ENDSEC
  0
SECTION
  2
CLASSES
  0
CLASS
  1
ACDBDICTIONARYWDFLT
  2
AcDbDictionaryWithDefault
  3
AutoCAD 2000
 90
0
280
0
281
0
  0
CLASS
  1
ACDBPLACEHOLDER
  2
AcDbPlaceHolder
  3
AutoCAD 2000
 90
0
280
0
281
0
  0
CLASS
  1
LAYOUT
  2
AcDbLayout
  3
AutoCAD 2000
 90
0
280
0
281
0
  0
ENDSEC
  0
SECTION
  2
TABLES
  0
TABLE
  2
VPORT
  5
8
100
AcDbSymbolTable
 70
2
  0
VPORT
  5
1F4
100
AcDbSymbolTableRecord
100
AcDbViewportTableRecord
  2
*ACTIVE
 70
0
 10
0.0
 20
0.0
 11
1.0
 21
1.0
 12
105.0
 22
148.5
 13
0.0
 23
0.0
 14
1.0
 24
1.0
 15
0.0
 25
0.0
 16
0.0
 26
0.0
 36
1.0
 17
0.0
 27
0.0
 37
0.0
 40
297.0
 41
0.7070707071
 42
50.0
 43
0.0
 44
0.0
 50
0.0
 51
0.0
 71
0
 72
100
 73
1
 74
1
 75
0
 76
0
 77
0
 78
0
  0
ENDTAB
  0
TABLE
  2
LTYPE
  5
5
100
AcDbSymbolTable
 70
6
  0
LTYPE
  5
14
100
AcDbSymbolTableRecord
100
AcDbLinetypeTableRecord
  2
BYBLOCK
 70
0
  3

 72
65
 73
0
 40
0.0
  0
LTYPE
  5
15
100
AcDbSymbolTableRecord
100
AcDbLinetypeTableRecord
  2
BYLAYER
 70
0
  3

 72
65
 73
0
 40
0.0
  0
LTYPE
  5
16
100
AcDbSymbolTableRecord
100
AcDbLinetypeTableRecord
  2
CONTINUOUS
 70
64
  3
Solid line
 72
65
 73
0
 40
0.0
  0
LTYPE
  5
1F5
100
AcDbSymbolTableRecord
100
AcDbLinetypeTableRecord
  2
CENTER
 70
64
  3
____ _ ____ _ ____ _ ____ _ ____ _ ____ _ ____
 72
65
 73
4
 40
0.6
 49
0.375
 74
0
 49
-0.075
 74
0
 49
0.075
 74
0
 49
-0.075
 74
0
  0
LTYPE
  5
1F6
100
AcDbSymbolTableRecord
100
AcDbLinetypeTableRecord
  2
HIDDEN
 70
64
  3
- - - - - - - - - - - - - - - - - - - -
 72
65
 73
2
 40
0.2
 49
0.1
 74
0
 49
-0.1
 74
0
  0
LTYPE
  5
1F7
100
AcDbSymbolTableRecord
100
AcDbLinetypeTableRecord
  2
PHANTOM
 70
64
  3
_____ _ _ _____ _ _ _____ _ _ _____
 72
65
 73
6
 40
0.8
 49
0.45
 74
0
 49
-0.05
 74
0
 49
0.1
 74
0
 49
-0.05
 74
0
 49
0.1
 74
0
 49
-0.05
 74
0
  0
LTYPE
  5
1F8
100
AcDbSymbolTableRecord
100
AcDbLinetypeTableRecord
  2
DOT
 70
64
  3
. . . . . . . . . . . . . . . . . . . .
 72
65
 73
2
 40
0.2
 49
0.1
 74
0
 49
-0.1
 74
0
  0
LTYPE
  5
1F9
100
AcDbSymbolTableRecord
100
AcDbLinetypeTableRecord
  2
DASHED
 70
64
  3
- - - - - - - - - - - - - - - - - - - -
 72
65
 73
2
 40
0.2
 49
0.1
 74
0
 49
-0.1
 74
0
  0
ENDTAB
  0
TABLE
  2
LAYER
  5
2
100
AcDbSymbolTable
 70
36
  0
LAYER
  5
10
100
AcDbSymbolTableRecord
100
AcDbLayerTableRecord
  2
0
 70
0
 62
7
  6
CONTINUOUS
370
-3
390
F
  0
LAYER
  5
1FA
100
AcDbSymbolTableRecord
100
AcDbLayerTableRecord
  2
DEFAULT_1
 70
0
 62
7
  6
CENTER
370
-3
390
F
  0
LAYER
  5
1FB
100
AcDbSymbolTableRecord
100
AcDbLayerTableRecord
  2
DEFAULT_2
 70
0
 62
8
  6
HIDDEN
370
-3
390
F
  0
LAYER
  5
1FC
100
AcDbSymbolTableRecord
100
AcDbLayerTableRecord
  2
DEFAULT_3
 70
0
 62
7
  6
PHANTOM
370
-3
390
F
  0
LAYER
  5
1FD
100
AcDbSymbolTableRecord
100
AcDbLayerTableRecord
  2
ALL_AXIS
 70
0
 62
7
  6
CONTINUOUS
370
-3
390
F
  0
LAYER
  5
1FE
100
AcDbSymbolTableRecord
100
AcDbLayerTableRecord
  2
ALL_DIMENSIONS
 70
0
 62
7
  6
CONTINUOUS
370
-3
390
F
  0
LAYER
  5
1FF
100
AcDbSymbolTableRecord
100
AcDbLayerTableRecord
  2
ALL_HOLE
 70
0
 62
7
  6
CONTINUOUS
370
-3
390
F
  0
LAYER
  5
200
100
AcDbSymbolTableRecord
100
AcDbLayerTableRecord
  2
ALL_QUILT
 70
0
 62
7
  6
CONTINUOUS
370
-3
390
F
  0
LAYER
  5
201
100
AcDbSymbolTableRecord
100
AcDbLayerTableRecord
  2
ALL_ROUND
 70
0
 62
7
  6
CONTINUOUS
370
-3
390
F
  0
LAYER
  5
202
100
AcDbSymbolTableRecord
100
AcDbLayerTableRecord
  2
ALL_THREADS
 70
0
 62
7
  6
CONTINUOUS
370
-3
390
F
  0
LAYER
  5
203
100
AcDbSymbolTableRecord
100
AcDbLayerTableRecord
  2
BLANK_DIM
 70
0
 62
7
  6
CONTINUOUS
370
-3
390
F
  0
LAYER
  5
204
100
AcDbSymbolTableRecord
100
AcDbLayerTableRecord
  2
DATUMS
 70
0
 62
7
  6
CONTINUOUS
370
-3
390
F
  0
ENDTAB
  0
TABLE
  2
STYLE
  5
3
100
AcDbSymbolTable
 70
1
  0
STYLE
  5
11
100
AcDbSymbolTableRecord
100
AcDbTextStyleTableRecord
  2
STANDARD
 70
0
 40
0.0
 41
0.75
 50
0.0
 71
0
 42
0.2
  3
txt
  4

  0
ENDTAB
  0
TABLE
  2
VIEW
  5
6
100
AcDbSymbolTable
 70
0
  0
ENDTAB
  0
TABLE
  2
UCS
  5
7
100
AcDbSymbolTable
 70
0
  0
ENDTAB
  0
TABLE
  2
APPID
  5
9
100
AcDbSymbolTable
 70
1
  0
APPID
  5
205
100
AcDbSymbolTableRecord
100
AcDbRegAppTableRecord
  2
ACAD
 70
0
  0
ENDTAB
  0
TABLE
  2
BLOCK_RECORD
  5
1
100
AcDbSymbolTable
 70
0
  0
BLOCK_RECORD
  5
1F
100
AcDbSymbolTableRecord
100
AcDbBlockTableRecord
  2
*MODEL_SPACE
  0
BLOCK_RECORD
  5
1B
100
AcDbSymbolTableRecord
100
AcDbBlockTableRecord
  2
*PAPER_SPACE
  0
BLOCK_RECORD
  5
206
100
AcDbSymbolTableRecord
100
AcDbBlockTableRecord
  2
_FILLED
  0
BLOCK_RECORD
  5
207
100
AcDbSymbolTableRecord
100
AcDbBlockTableRecord
  2
*D0
  0
BLOCK_RECORD
  5
208
100
AcDbSymbolTableRecord
100
AcDbBlockTableRecord
  2
*D1
  0
BLOCK_RECORD
  5
209
100
AcDbSymbolTableRecord
100
AcDbBlockTableRecord
  2
*D2
  0
BLOCK_RECORD
  5
20A
100
AcDbSymbolTableRecord
100
AcDbBlockTableRecord
  2
*D3
  0
BLOCK_RECORD
  5
20B
100
AcDbSymbolTableRecord
100
AcDbBlockTableRecord
  2
*D4
  0
BLOCK_RECORD
  5
20C
100
AcDbSymbolTableRecord
100
AcDbBlockTableRecord
  2
*D5
  0
BLOCK_RECORD
  5
20D
100
AcDbSymbolTableRecord
100
AcDbBlockTableRecord
  2
DRAW_BEZ_SNJATIA_BL0
  0
BLOCK_RECORD
  5
20E
100
AcDbSymbolTableRecord
100
AcDbBlockTableRecord
  2
BEZ_SNJATIA_NORM_BL1
  0
BLOCK_RECORD
  5
20F
100
AcDbSymbolTableRecord
100
AcDbBlockTableRecord
  2
BEZ_SNJATIA_ROTE_BL2
  0
ENDTAB
  0
TABLE
  2
DIMSTYLE
  5
A
100
AcDbSymbolTable
 70
1
100
AcDbDimStyleTable
 71
0
  0
DIMSTYLE
105
210
100
AcDbSymbolTableRecord
100
AcDbDimStyleTableRecord
  2
STANDARD
 70
0
  3

  4

 40
1.0
 41
5.0
 42
0.0625
 43
0.38
 44
0.18
 45
0.0
 46
0.0
 47
0.00004
 48
0.00004
140
4.0
141
0.09
142
0.0
143
25.4
144
1.0
145
0.0
146
1.0
147
0.09
 71
1.0
 72
0.0
 73
0
 74
0
 75
0
 76
0
 77
1
 78
8
170
0
171
2
172
0
173
0
174
0
175
0
176
0
177
0
178
0
270
2
271
5
272
5
273
2
274
2
275
0
280
0
281
0
282
0
283
1
284
8
285
0
286
0
287
3
288
0
340
11
341
206
342
206
343
206
344
206
  0
DIMSTYLE
105
211
100
AcDbSymbolTableRecord
100
AcDbDimStyleTableRecord
  2
DIMSTYLE_1
 70
0
  3

  4

 40
1.0
 41
5.0
 42
0.0625
 43
0.38
 44
0.18
 45
0.0
 46
0.0
 47
0.5
 48
0.5
140
4.0
141
0.09
142
0.0
143
25.4
144
5.0
145
0.0
146
1.0
147
0.09
 71
0.0
 72
0.0
 73
0
 74
0
 75
0
 76
0
 77
1
 78
8
170
0
171
2
172
0
173
0
174
0
175
0
176
0
177
0
178
0
270
2
271
4
272
4
273
2
274
2
275
0
280
0
281
0
282
0
283
1
284
8
285
0
286
0
287
3
288
0
340
11
341
206
342
206
343
206
344
206
  0
DIMSTYLE
105
212
100
AcDbSymbolTableRecord
100
AcDbDimStyleTableRecord
  2
DIMSTYLE_2
 70
0
  3

  4

 40
1.0
 41
5.0
 42
0.0625
 43
0.38
 44
0.18
 45
0.0
 46
0.0
 47
0.2
 48
0.2
140
4.0
141
0.09
142
0.0
143
25.4
144
5.0
145
0.0
146
1.0
147
0.09
 71
0.0
 72
0.0
 73
0
 74
0
 75
0
 76
0
 77
1
 78
8
170
0
171
2
172
0
173
0
174
0
175
0
176
0
177
0
178
0
270
2
271
4
272
4
273
2
274
2
275
0
280
0
281
0
282
0
283
1
284
8
285
0
286
0
287
3
288
0
340
11
341
206
342
206
343
206
344
206
  0
DIMSTYLE
105
213
100
AcDbSymbolTableRecord
100
AcDbDimStyleTableRecord
  2
DIMSTYLE_3
 70
0
  3

  4

 40
1.0
 41
5.0
 42
0.0625
 43
0.38
 44
0.18
 45
0.0
 46
0.0
 47
0.3
 48
0.3
140
4.0
141
0.09
142
0.0
143
25.4
144
5.0
145
0.0
146
1.0
147
0.09
 71
0.0
 72
0.0
 73
0
 74
0
 75
0
 76
0
 77
1
 78
8
170
0
171
2
172
0
173
0
174
0
175
0
176
0
177
0
178
0
270
2
271
4
272
4
273
2
274
2
275
0
280
0
281
0
282
0
283
1
284
8
285
0
286
0
287
3
288
0
340
11
341
206
342
206
343
206
344
206
  0
DIMSTYLE
105
214
100
AcDbSymbolTableRecord
100
AcDbDimStyleTableRecord
  2
DIMSTYLE_4
 70
0
  3

  4

 40
1.0
 41
5.0
 42
0.0625
 43
0.38
 44
0.18
 45
0.0
 46
0.0
 47
0.1
 48
0.1
140
4.0
141
0.09
142
0.0
143
25.4
144
5.0
145
0.0
146
1.0
147
0.09
 71
0.0
 72
0.0
 73
0
 74
0
 75
0
 76
0
 77
1
 78
8
170
0
171
2
172
0
173
0
174
0
175
0
176
0
177
0
178
0
270
2
271
4
272
4
273
2
274
2
275
0
280
0
281
0
282
0
283
1
284
8
285
0
286
0
287
3
288
0
340
11
341
206
342
206
343
206
344
206
  0
DIMSTYLE
105
215
100
AcDbSymbolTableRecord
100
AcDbDimStyleTableRecord
  2
DIMSTYLE_5
 70
0
  3

  4

 40
1.0
 41
5.0
 42
0.0625
 43
0.38
 44
0.18
 45
0.0
 46
0.0
 47
0.2
 48
0.2
140
4.0
141
0.09
142
0.0
143
25.4
144
5.0
145
0.0
146
1.0
147
0.09
 71
0.0
 72
0.0
 73
0
 74
0
 75
0
 76
0
 77
1
 78
8
170
0
171
2
172
0
173
0
174
0
175
0
176
0
177
0
178
0
270
2
271
5
272
5
273
2
274
2
275
0
280
0
281
0
282
0
283
1
284
8
285
0
286
0
287
3
288
0
340
11
341
206
342
206
343
206
344
206
  0
ENDTAB
  0
ENDSEC
  0
SECTION
  2
BLOCKS
  0
BLOCK
  5
20
100
AcDbEntity
  8
0
100
AcDbBlockBegin
  2
*MODEL_SPACE
 70
0
 10
0.0
 20
0.0
 30
0.0
  3
*MODEL_SPACE
  1

  0
ENDBLK
  5
21
100
AcDbEntity
  8
0
100
AcDbBlockEnd
  0
BLOCK
  5
1C
100
AcDbEntity
  8
0
100
AcDbBlockBegin
  2
*PAPER_SPACE
 70
0
 10
0.0
 20
0.0
 30
0.0
  3
*PAPER_SPACE
  1

  0
ENDBLK
  5
1D
100
AcDbEntity
  8
0
100
AcDbBlockEnd
  0
BLOCK
  5
216
100
AcDbEntity
  8
0
100
AcDbBlockBegin
 62
2
  6
CONTINUOUS
  2
*D0
 70
65
 10
0.0
 20
0.0
  3
*D0
  1

  0
LINE
  5
217
100
AcDbEntity
  8
0
100
AcDbLine
 62
2
  6
CONTINUOUS
 10
142.0654527334
 20
142.8228258735
 11
158.5772811752
 21
142.8228258735
  0
LINE
  5
218
100
AcDbEntity
  8
0
100
AcDbLine
 62
2
  6
CONTINUOUS
 10
142.0654527334
 20
202.8228258735
 11
158.5772811752
 21
202.8228258735
  0
LINE
  5
219
100
AcDbEntity
  8
0
100
AcDbLine
 62
2
  6
CONTINUOUS
 10
156.5772811752
 20
142.8228258735
 11
156.5772811752
 21
172.8228258735
  0
LINE
  5
21A
100
AcDbEntity
  8
0
100
AcDbLine
 62
2
  6
CONTINUOUS
 10
156.5772811752
 20
202.8228258735
 11
156.5772811752
 21
172.8228258735
  0
INSERT
  5
21B
100
AcDbEntity
  8
0
100
AcDbBlockReference
 62
2
  6
CONTINUOUS
  2
_FILLED
 10
156.5772811752
 20
142.8228258735
 41
5.0
 42
5.0
 43
5.0
 50
270.0
  0
INSERT
  5
21C
100
AcDbEntity
  8
0
100
AcDbBlockReference
 62
2
  6
CONTINUOUS
  2
_FILLED
 10
156.5772811752
 20
202.8228258735
 41
5.0
 42
5.0
 43
5.0
 50
90.0
  0
ENDBLK
  5
21D
100
AcDbEntity
  8
0
  6
BYBLOCK
 62
0
100
AcDbBlockEnd
  0
BLOCK
  5
21E
100
AcDbEntity
  8
0
100
AcDbBlockBegin
 62
2
  6
CONTINUOUS
  2
*D1
 70
65
 10
0.0
 20
0.0
  3
*D1
  1

  0
LINE
  5
21F
100
AcDbEntity
  8
0
100
AcDbLine
 62
2
  6
CONTINUOUS
 10
142.1003996671
 20
250.5563798482
 11
151.3774420659
 21
250.5563798482
  0
LINE
  5
220
100
AcDbEntity
  8
0
100
AcDbLine
 62
2
  6
CONTINUOUS
 10
142.7331208877
 20
253.5563798482
 11
151.3774420659
 21
253.5563798482
  0
LINE
  5
221
100
AcDbEntity
  8
0
100
AcDbLine
 62
2
  6
CONTINUOUS
 10
149.3774420659
 20
250.5563798482
 11
149.3774420659
 21
242.5563798482
  0
LINE
  5
222
100
AcDbEntity
  8
0
100
AcDbLine
 62
2
  6
CONTINUOUS
 10
149.3774420659
 20
242.5563798482
 11
149.3774420659
 21
252.0563798482
  0
LINE
  5
223
100
AcDbEntity
  8
0
100
AcDbLine
 62
2
  6
CONTINUOUS
 10
149.3774420659
 20
253.5563798482
 11
149.3774420659
 21
265.3596379541
  0
LINE
  5
224
100
AcDbEntity
  8
0
100
AcDbLine
 62
2
  6
CONTINUOUS
 10
149.3774420659
 20
265.3596379541
 11
149.3774420659
 21
252.0563798482
  0
INSERT
  5
225
100
AcDbEntity
  8
0
100
AcDbBlockReference
 62
2
  6
CONTINUOUS
  2
_FILLED
 10
149.3774420659
 20
250.5563798482
 41
5.0
 42
5.0
 43
5.0
 50
90.0
  0
INSERT
  5
226
100
AcDbEntity
  8
0
100
AcDbBlockReference
 62
2
  6
CONTINUOUS
  2
_FILLED
 10
149.3774420659
 20
253.5563798482
 41
5.0
 42
5.0
 43
5.0
 50
270.0
  0
ENDBLK
  5
227
100
AcDbEntity
  8
0
  6
BYBLOCK
 62
0
100
AcDbBlockEnd
  0
BLOCK
  5
228
100
AcDbEntity
  8
0
100
AcDbBlockBegin
 62
2
  6
CONTINUOUS
  2
*D2
 70
65
 10
0.0
 20
0.0
  3
*D2
  1

  0
LINE
  5
229
100
AcDbEntity
  8
0
100
AcDbLine
 62
2
  6
CONTINUOUS
 10
118.0654527334
 20
250.5563798482
 11
118.0654527334
 21
239.9624944931
  0
LINE
  5
22A
100
AcDbEntity
  8
0
100
AcDbLine
 62
2
  6
CONTINUOUS
 10
106.0654527334
 20
250.5563798482
 11
106.0654527334
 21
239.9624944931
  0
LINE
  5
22B
100
AcDbEntity
  8
0
100
AcDbLine
 62
2
  6
CONTINUOUS
 10
118.0654527334
 20
241.9624944931
 11
112.0654527334
 21
241.9624944931
  0
LINE
  5
22C
100
AcDbEntity
  8
0
100
AcDbLine
 62
2
  6
CONTINUOUS
 10
106.0654527334
 20
241.9624944931
 11
112.0654527334
 21
241.9624944931
  0
LINE
  5
22D
100
AcDbEntity
  8
0
100
AcDbLine
 62
2
  6
CONTINUOUS
 10
112.0654527334
 20
241.9624944931
 11
91.5285877961
 21
241.9624944931
  0
INSERT
  5
22E
100
AcDbEntity
  8
0
100
AcDbBlockReference
 62
2
  6
CONTINUOUS
  2
_FILLED
 10
118.0654527334
 20
241.9624944931
 41
5.0
 42
5.0
 43
5.0
  0
INSERT
  5
22F
100
AcDbEntity
  8
0
100
AcDbBlockReference
 62
2
  6
CONTINUOUS
  2
_FILLED
 10
106.0654527334
 20
241.9624944931
 41
5.0
 42
5.0
 43
5.0
 50
180.0
  0
ENDBLK
  5
230
100
AcDbEntity
  8
0
  6
BYBLOCK
 62
0
100
AcDbBlockEnd
  0
BLOCK
  5
231
100
AcDbEntity
  8
0
100
AcDbBlockBegin
 62
2
  6
CONTINUOUS
  2
*D3
 70
65
 10
0.0
 20
0.0
  3
*D3
  1

  0
LINE
  5
232
100
AcDbEntity
  8
0
100
AcDbLine
 62
2
  6
CONTINUOUS
 10
119.0654527334
 20
252.5563798482
 11
119.0654527334
 21
264.4183868861
  0
LINE
  5
233
100
AcDbEntity
  8
0
100
AcDbLine
 62
2
  6
CONTINUOUS
 10
105.0654527334
 20
252.5563798482
 11
105.0654527334
 21
264.4183868861
  0
LINE
  5
234
100
AcDbEntity
  8
0
100
AcDbLine
 62
2
  6
CONTINUOUS
 10
119.0654527334
 20
262.4183868861
 11
112.0654527334
 21
262.4183868861
  0
LINE
  5
235
100
AcDbEntity
  8
0
100
AcDbLine
 62
2
  6
CONTINUOUS
 10
105.0654527334
 20
262.4183868861
 11
112.0654527334
 21
262.4183868861
  0
LINE
  5
236
100
AcDbEntity
  8
0
100
AcDbLine
 62
2
  6
CONTINUOUS
 10
112.0654527334
 20
262.4183868861
 11
85.3082399627
 21
262.4183868861
  0
INSERT
  5
237
100
AcDbEntity
  8
0
100
AcDbBlockReference
 62
2
  6
CONTINUOUS
  2
_FILLED
 10
119.0654527334
 20
262.4183868861
 41
5.0
 42
5.0
 43
5.0
  0
INSERT
  5
238
100
AcDbEntity
  8
0
100
AcDbBlockReference
 62
2
  6
CONTINUOUS
  2
_FILLED
 10
105.0654527334
 20
262.4183868861
 41
5.0
 42
5.0
 43
5.0
 50
180.0
  0
ENDBLK
  5
239
100
AcDbEntity
  8
0
  6
BYBLOCK
 62
0
100
AcDbBlockEnd
  0
BLOCK
  5
23A
100
AcDbEntity
  8
0
100
AcDbBlockBegin
 62
2
  6
CONTINUOUS
  2
*D4
 70
65
 10
0.0
 20
0.0
  3
*D4
  1

  0
LINE
  5
23B
100
AcDbEntity
  8
0
100
AcDbLine
 62
2
  6
CONTINUOUS
 10
118.0654527334
 20
253.5563798482
 11
127.622924195
 21
253.5563798482
  0
LINE
  5
23C
100
AcDbEntity
  8
0
100
AcDbLine
 62
2
  6
CONTINUOUS
 10
118.0654527334
 20
252.5563798482
 11
127.622924195
 21
252.5563798482
  0
LINE
  5
23D
100
AcDbEntity
  8
0
100
AcDbLine
 62
2
  6
CONTINUOUS
 10
125.622924195
 20
253.5563798482
 11
125.622924195
 21
263.0240117321
  0
LINE
  5
23E
100
AcDbEntity
  8
0
100
AcDbLine
 62
2
  6
CONTINUOUS
 10
125.622924195
 20
263.0240117321
 11
125.622924195
 21
253.0563798482
  0
LINE
  5
23F
100
AcDbEntity
  8
0
100
AcDbLine
 62
2
  6
CONTINUOUS
 10
125.622924195
 20
252.5563798482
 11
125.622924195
 21
244.5563798482
  0
LINE
  5
240
100
AcDbEntity
  8
0
100
AcDbLine
 62
2
  6
CONTINUOUS
 10
125.622924195
 20
244.5563798482
 11
125.622924195
 21
253.0563798482
  0
INSERT
  5
241
100
AcDbEntity
  8
0
100
AcDbBlockReference
 62
2
  6
CONTINUOUS
  2
_FILLED
 10
125.622924195
 20
253.5563798482
 41
5.0
 42
5.0
 43
5.0
 50
270.0
  0
INSERT
  5
242
100
AcDbEntity
  8
0
100
AcDbBlockReference
 62
2
  6
CONTINUOUS
  2
_FILLED
 10
125.622924195
 20
252.5563798482
 41
5.0
 42
5.0
 43
5.0
 50
90.0
  0
ENDBLK
  5
243
100
AcDbEntity
  8
0
  6
BYBLOCK
 62
0
100
AcDbBlockEnd
  0
BLOCK
  5
244
100
AcDbEntity
  8
ALL_DIMENSIONS
100
AcDbBlockBegin
 62
2
  6
CONTINUOUS
  2
*D5
 70
65
 10
0.0
 20
0.0
  3
*D5
  1

  0
LINE
  5
245
100
AcDbEntity
  8
ALL_DIMENSIONS
100
AcDbLine
 62
2
  6
CONTINUOUS
 10
105.8312548857
 20
178.824914777
 11
91.0190609211
 21
192.0982823092
  0
INSERT
  5
246
100
AcDbEntity
  8
ALL_DIMENSIONS
100
AcDbBlockReference
 62
2
  6
CONTINUOUS
  2
_FILLED
 10
105.8312548857
 20
178.824914777
 41
5.0
 42
5.0
 43
5.0
 50
318.1361377997
  0
ENDBLK
  5
247
100
AcDbEntity
  8
0
  6
BYBLOCK
 62
0
100
AcDbBlockEnd
  0
BLOCK
  5
248
100
AcDbEntity
  8
0
100
AcDbBlockBegin
 62
2
  6
CONTINUOUS
  2
DRAW_BEZ_SNJATIA_BL0
 70
64
 10
181.9163016209
 20
277.6388678839
  3
DRAW_BEZ_SNJATIA_BL0
  1

  0
LWPOLYLINE
  5
249
100
AcDbEntity
  8
0
100
AcDbPolyline
 62
2
  6
CONTINUOUS
 90
3
 70
0
 43
0.3
 10
164.3118496094
 20
286.5759746094
 10
164.7493359375
 20
288.1315292969
 10
164.7493359375
 20
283.46484375
  0
LWPOLYLINE
  5
24A
100
AcDbEntity
  8
0
100
AcDbPolyline
 62
2
  6
CONTINUOUS
 90
2
 70
0
 43
0.3
 10
164.3118496094
 20
283.46484375
 10
165.18684375
 20
283.46484375
  0
LWPOLYLINE
  5
24B
100
AcDbEntity
  8
0
100
AcDbPolyline
 62
2
  6
CONTINUOUS
 90
10
 70
0
 43
0.3
 10
166.7180996094
 20
287.3537519531
 10
167.1555859375
 20
288.1315292969
 10
168.0306015625
 20
288.1315292969
 10
168.4680878906
 20
287.3537519531
 10
168.4680878906
 20
285.7981972656
 10
168.0306015625
 20
285.0204199219
 10
167.1555859375
 20
285.0204199219
 10
166.7180996094
 20
284.2426210938
 10
166.7180996094
 20
283.46484375
 10
168.4680878906
 20
283.46484375
  0
LWPOLYLINE
  5
24C
100
AcDbEntity
  8
0
100
AcDbPolyline
 62
2
  6
CONTINUOUS
 90
5
 70
0
 43
0.3
 10
170.4368515625
 20
283.46484375
 10
170.2180976562
 20
283.46484375
 10
170.2180976562
 20
283.8537324219
 10
170.4368515625
 20
283.8537324219
 10
170.4368515625
 20
283.46484375
  0
LWPOLYLINE
  5
24D
100
AcDbEntity
  8
0
100
AcDbPolyline
 62
2
  6
CONTINUOUS
 90
9
 70
0
 43
0.3
 10
173.7180957031
 20
284.2426210938
 10
174.1556035156
 20
283.46484375
 10
175.0305976562
 20
283.46484375
 10
175.4680839844
 20
284.2426210938
 10
175.4680839844
 20
285.7981972656
 10
175.0305976562
 20
286.5759746094
 10
173.7180957031
 20
286.5759746094
 10
173.7180957031
 20
288.1315292969
 10
175.4680839844
 20
288.1315292969
  0
LINE
  5
24E
100
AcDbEntity
  8
0
100
AcDbLine
 62
2
  6
CONTINUOUS
 10
188.3417549748
 20
277.5589598847
 11
191.589350239
 21
271.9339598847
  0
LINE
  5
24F
100
AcDbEntity
  8
0
100
AcDbLine
 62
2
  6
CONTINUOUS
 10
191.589350239
 20
271.9339598847
 11
194.8369455032
 21
277.5589598847
  0
LINE
  5
250
100
AcDbEntity
  8
0
100
AcDbLine
 62
2
  6
CONTINUOUS
 10
194.8369455032
 20
277.5589598847
 11
198.0845407674
 21
283.1839598847
  0
ARC
  5
251
100
AcDbEntity
  8
0
100
AcDbCircle
 62
2
  6
CONTINUOUS
 10
195.8674428911
 20
277.8843016744
 40
10.7380952034
100
AcDbArc
 50
146.7128017539
 51
214.1115837289
  0
ARC
  5
252
100
AcDbEntity
  8
0
100
AcDbCircle
 62
2
  6
CONTINUOUS
 10
190.5444575996
 20
277.8843016744
 40
10.7380952034
100
AcDbArc
 50
325.8884162711
 51
33.2871982461
  0
LINE
  5
253
100
AcDbEntity
  8
0
100
AcDbLine
 62
2
  6
CONTINUOUS
 10
170.1538434415
 20
279.838387267
 11
174.4839704604
 21
272.338387267
  0
LINE
  5
254
100
AcDbEntity
  8
0
100
AcDbLine
 62
2
  6
CONTINUOUS
 10
174.4839704604
 20
272.338387267
 11
183.1442244983
 21
287.338387267
  0
ENDBLK
  5
255
100
AcDbEntity
  8
0
  6
BYBLOCK
 62
0
100
AcDbBlockEnd
  0
BLOCK
  5
256
100
AcDbEntity
  8
0
100
AcDbBlockBegin
 62
2
  6
CONTINUOUS
  2
BEZ_SNJATIA_NORM_BL1
 70
64
 10
134.445081645
 20
259.5503276194
  3
BEZ_SNJATIA_NORM_BL1
  1

  0
LWPOLYLINE
  5
257
100
AcDbEntity
  8
0
100
AcDbPolyline
 62
2
  6
CONTINUOUS
 90
12
 70
0
 43
0.3
 10
128.4794570312
 20
264.9609316406
 10
128.1513261719
 20
265.5442753906
 10
127.4950859375
 20
265.5442753906
 10
127.1669550781
 20
264.9609316406
 10
127.1669550781
 20
262.6275996094
 10
127.4950859375
 20
262.0442773438
 10
128.1513261719
 20
262.0442773438
 10
128.4794570312
 20
262.6275996094
 10
128.4794570312
 20
263.794265625
 10
128.1513261719
 20
264.377609375
 10
127.4950859375
 20
264.377609375
 10
127.1669550781
 20
263.794265625
  0
LWPOLYLINE
  5
258
100
AcDbEntity
  8
0
100
AcDbPolyline
 62
2
  6
CONTINUOUS
 90
5
 70
0
 43
0.3
 10
129.9560136719
 20
262.0442773438
 10
129.7919589844
 20
262.0442773438
 10
129.7919589844
 20
262.3359277344
 10
129.9560136719
 20
262.3359277344
 10
129.9560136719
 20
262.0442773438
  0
LWPOLYLINE
  5
259
100
AcDbEntity
  8
0
100
AcDbPolyline
 62
2
  6
CONTINUOUS
 90
9
 70
0
 43
0.3
 10
132.4169628906
 20
265.5442753906
 10
133.7294433594
 20
265.5442753906
 10
133.073203125
 20
264.377609375
 10
133.4013339844
 20
264.377609375
 10
133.7294433594
 20
263.794265625
 10
133.7294433594
 20
262.6275996094
 10
133.4013339844
 20
262.0442773438
 10
132.7450722656
 20
262.0442773438
 10
132.4169628906
 20
262.6275996094
  0
LINE
  5
25A
100
AcDbEntity
  8
0
100
AcDbLine
 62
2
  6
CONTINUOUS
 10
131.9804224194
 20
259.1813798482
 11
135.2280176836
 21
253.5563798482
  0
LINE
  5
25B
100
AcDbEntity
  8
0
100
AcDbLine
 62
2
  6
CONTINUOUS
 10
135.2280176836
 20
253.5563798482
 11
138.4756129478
 21
259.1813798482
  0
LINE
  5
25C
100
AcDbEntity
  8
0
100
AcDbLine
 62
2
  6
CONTINUOUS
 10
138.4756129478
 20
259.1813798482
 11
141.723208212
 21
264.8063798482
  0
ENDBLK
  5
25D
100
AcDbEntity
  8
0
  6
BYBLOCK
 62
0
100
AcDbBlockEnd
  0
BLOCK
  5
25E
100
AcDbEntity
  8
0
100
AcDbBlockBegin
 62
2
  6
CONTINUOUS
  2
BEZ_SNJATIA_ROTE_BL2
 70
64
 10
134.6244251612
 20
244.9313798482
  3
BEZ_SNJATIA_ROTE_BL2
  1

  0
LWPOLYLINE
  5
25F
100
AcDbEntity
  8
0
100
AcDbPolyline
 62
2
  6
CONTINUOUS
 90
12
 70
0
 43
0.3
 10
136.0415273438
 20
242.3909726563
 10
135.7133964844
 20
242.9742949219
 10
135.05715625
 20
242.9742949219
 10
134.7290253906
 20
242.3909726563
 10
134.7290253906
 20
240.057640625
 10
135.05715625
 20
239.474296875
 10
135.7133964844
 20
239.474296875
 10
136.0415273438
 20
240.057640625
 10
136.0415273438
 20
241.2243066406
 10
135.7133964844
 20
241.8076289063
 10
135.05715625
 20
241.8076289063
 10
134.7290253906
 20
241.2243066406
  0
LWPOLYLINE
  5
260
100
AcDbEntity
  8
0
100
AcDbPolyline
 62
2
  6
CONTINUOUS
 90
5
 70
0
 43
0.3
 10
137.5180839844
 20
239.474296875
 10
137.3540292969
 20
239.474296875
 10
137.3540292969
 20
239.76596875
 10
137.5180839844
 20
239.76596875
 10
137.5180839844
 20
239.474296875
  0
LWPOLYLINE
  5
261
100
AcDbEntity
  8
0
100
AcDbPolyline
 62
2
  6
CONTINUOUS
 90
9
 70
0
 43
0.3
 10
139.9790332031
 20
242.9742949219
 10
141.2915351563
 20
242.9742949219
 10
140.6352734375
 20
241.8076289063
 10
140.9634042969
 20
241.8076289063
 10
141.2915351563
 20
241.2243066406
 10
141.2915351563
 20
240.057640625
 10
140.9634042969
 20
239.474296875
 10
140.3071425781
 20
239.474296875
 10
139.9790332031
 20
240.057640625
  0
LINE
  5
262
100
AcDbEntity
  8
0
100
AcDbLine
 62
2
  6
CONTINUOUS
 10
137.7001009588
 20
244.9313798482
 11
134.4525056946
 21
250.5563798482
  0
LINE
  5
263
100
AcDbEntity
  8
0
100
AcDbLine
 62
2
  6
CONTINUOUS
 10
134.4525056946
 20
250.5563798482
 11
131.2049104304
 21
244.9313798482
  0
LINE
  5
264
100
AcDbEntity
  8
0
100
AcDbLine
 62
2
  6
CONTINUOUS
 10
131.2049104304
 20
244.9313798482
 11
127.9573151662
 21
239.3063798482
  0
ENDBLK
  5
265
100
AcDbEntity
  8
0
  6
BYBLOCK
 62
0
100
AcDbBlockEnd
  0
BLOCK
  5
266
100
AcDbEntity
  8
0
100
AcDbBlockBegin
  2
_FILLED
 70
64
 10
0.0
 20
0.0
  3
_FILLED
  1

  0
SOLID
  5
267
100
AcDbEntity
  8
0
  6
BYBLOCK
 62
0
100
AcDbTrace
 10
0.0
 20
0.0
 11
-1.0
 21
0.2
 12
-1.0
 22
-0.2
 13
-1.0
 23
-0.2
  0
ENDBLK
  5
268
100
AcDbEntity
  8
0
  6
BYBLOCK
 62
0
100
AcDbBlockEnd
  0
ENDSEC
  0
SECTION
  2
ENTITIES
  0
LINE
  5
269
100
AcDbEntity
  8
0
100
AcDbLine
 62
7
  6
CONTINUOUS
 10
160.7845044993
 20
172.8228258735
 11
160.7845044993
 21
154.1489387354
  0
SOLID
  5
26A
100
AcDbEntity
  8
0
100
AcDbTrace
 62
7
  6
CONTINUOUS
 10
162.2845044993
 20
165.8228258735
 11
160.7845044993
 21
172.8228258735
 12
159.2845044993
 22
165.8228258735
 13
159.2845044993
 23
165.8228258735
  0
LINE
  5
26B
100
AcDbEntity
  8
0
100
AcDbLine
 62
7
  6
CONTINUOUS
 10
61.2308471044
 20
144.8228258735
 11
61.2308471044
 21
126.1489387354
  0
SOLID
  5
26C
100
AcDbEntity
  8
0
100
AcDbTrace
 62
7
  6
CONTINUOUS
 10
62.7308471044
 20
137.8228258735
 11
61.2308471044
 21
144.8228258735
 12
59.7308471044
 22
137.8228258735
 13
59.7308471044
 23
137.8228258735
  0
DIMENSION
  5
26D
100
AcDbEntity
  8
0
100
AcDbDimension
 62
2
  6
CONTINUOUS
  2
*D0
 10
156.5772811752
 20
202.8228258735
 11
155.5772811752
 21
166.1407431625
 70
160
 42
300.0
  1
<>
  3
DIMSTYLE_1
100
AcDbAlignedDimension
 13
142.0654527334
 23
142.8228258735
 14
142.0654527334
 24
202.8228258735
 50
90.0
100
AcDbRotatedDimension
  0
DIMENSION
  5
26E
100
AcDbEntity
  8
0
100
AcDbDimension
 62
2
  6
CONTINUOUS
  2
*D1
 10
149.3774420659
 20
253.5563798482
 11
148.3774420659
 21
259.3596379541
 70
160
 42
15.0
  3
DIMSTYLE_2
100
AcDbAlignedDimension
 13
142.1003996671
 23
250.5563798482
 14
142.7331208877
 24
253.5563798482
 50
90.0
100
AcDbRotatedDimension
  0
DIMENSION
  5
26F
100
AcDbEntity
  8
0
100
AcDbDimension
 62
2
  6
CONTINUOUS
  2
*D2
 10
106.0654527334
 20
241.9624944931
 11
91.5285877961
 21
242.9624944931
 70
160
 42
60.0
  1
%%c<>
  3
DIMSTYLE_3
100
AcDbAlignedDimension
 13
118.0654527334
 23
250.5563798482
 14
106.0654527334
 24
250.5563798482
 50
180.0
100
AcDbRotatedDimension
  0
DIMENSION
  5
270
100
AcDbEntity
  8
0
100
AcDbDimension
 62
2
  6
CONTINUOUS
  2
*D3
 10
105.0654527334
 20
262.4183868861
 11
85.3082399627
 21
263.4183868861
 70
160
 42
70.0
  1
<>
  3
DIMSTYLE_3
100
AcDbAlignedDimension
 13
119.0654527334
 23
252.5563798482
 14
105.0654527334
 24
252.5563798482
 50
180.0
100
AcDbRotatedDimension
  0
DIMENSION
  5
271
100
AcDbEntity
  8
0
100
AcDbDimension
 62
2
  6
CONTINUOUS
  2
*D4
 10
125.622924195
 20
252.5563798482
 11
124.622924195
 21
260.0240117321
 70
160
 42
5.0
  3
DIMSTYLE_4
100
AcDbAlignedDimension
 13
118.0654527334
 23
253.5563798482
 14
118.0654527334
 24
252.5563798482
 50
270.0
100
AcDbRotatedDimension
  0
DIMENSION
  5
272
100
AcDbEntity
  8
ALL_DIMENSIONS
100
AcDbDimension
 62
2
  6
CONTINUOUS
  2
*D5
 10
108.0654527334
 20
176.8228258735
 11
91.6864238889
 21
192.8430149251
 70
164
 42
15.0
  1
<>\Pmax
  3
DIMSTYLE_5
100
AcDbRadialDimension
 15
105.8312548857
 25
178.824914777
  0
LINE
  5
273
100
AcDbEntity
  8
0
100
AcDbLine
 62
7
  6
CONTINUOUS
 10
8.0
 20
5.0
 11
8.0
 21
150.0
  0
LINE
  5
274
100
AcDbEntity
  8
0
100
AcDbLine
 62
7
  6
CONTINUOUS
 10
8.0
 20
5.0
 11
20.0
 21
5.0
  0
LINE
  5
275
100
AcDbEntity
  8
0
100
AcDbLine
 62
7
  6
CONTINUOUS
 10
13.0
 20
5.0
 11
13.0
 21
150.0
  0
LINE
  5
276
100
AcDbEntity
  8
0
100
AcDbLine
 62
7
  6
CONTINUOUS
 10
20.0
 20
5.0
 11
20.0
 21
150.0
  0
LINE
  5
277
100
AcDbEntity
  8
0
100
AcDbLine
 62
7
  6
CONTINUOUS
 10
8.0
 20
30.0
 11
20.0
 21
30.0
  0
LINE
  5
278
100
AcDbEntity
  8
0
100
AcDbLine
 62
7
  6
CONTINUOUS
 10
8.0
 20
65.0
 11
20.0
 21
65.0
  0
LINE
  5
279
100
AcDbEntity
  8
0
100
AcDbLine
 62
7
  6
CONTINUOUS
 10
8.0
 20
90.0
 11
20.0
 21
90.0
  0
LINE
  5
27A
100
AcDbEntity
  8
0
100
AcDbLine
 62
7
  6
CONTINUOUS
 10
8.0
 20
115.0
 11
20.0
 21
115.0
  0
LINE
  5
27B
100
AcDbEntity
  8
0
100
AcDbLine
 62
7
  6
CONTINUOUS
 10
8.0
 20
150.0
 11
20.0
 21
150.0
  0
LWPOLYLINE
  5
27C
100
AcDbEntity
  8
0
100
AcDbPolyline
 62
2
  6
CONTINUOUS
 90
4
 70
0
 43
0.35
 10
9.294097168
 20
5.8157061768
 10
11.7940942383
 20
5.1458334351
 10
9.294097168
 20
6.8157064819
 10
11.7940942383
 20
6.1458330688
  0
LWPOLYLINE
  5
27D
100
AcDbEntity
  8
0
100
AcDbPolyline
 62
2
  6
CONTINUOUS
 90
2
 70
0
 43
0.35
 10
11.7940942383
 20
7.145833374
 10
10.1274277344
 20
7.5924156494
  0
LWPOLYLINE
  5
27E
100
AcDbEntity
  8
0
100
AcDbPolyline
 62
2
  6
CONTINUOUS
 90
2
 70
0
 43
0.35
 10
10.9607636719
 20
7.3691245117
 10
10.9607636719
 20
8.3691241455
  0
LWPOLYLINE
  5
27F
100
AcDbEntity
  8
0
100
AcDbPolyline
 62
2
  6
CONTINUOUS
 90
2
 70
0
 43
0.35
 10
10.1274277344
 20
8.5924152832
 10
11.7940942383
 20
8.1458330078
  0
LWPOLYLINE
  5
280
100
AcDbEntity
  8
0
100
AcDbPolyline
 62
2
  6
CONTINUOUS
 90
12
 70
0
 43
0.35
 10
10.5440957031
 20
9.4807700195
 10
9.7107597656
 20
10.2040609741
 10
9.294097168
 20
10.315706543
 10
9.294097168
 20
10.0657062988
 10
9.7107597656
 20
9.7040604858
 10
11.3774262695
 20
9.2574788818
 10
11.7940942383
 20
9.3958335571
 10
11.7940942383
 20
9.895833374
 10
11.3774262695
 20
10.2574785156
 10
10.5440957031
 20
10.4807696533
 10
10.1274277344
 20
10.3424156494
 10
10.1274277344
 20
9.8424151611
  0
LWPOLYLINE
  5
281
100
AcDbEntity
  8
0
100
AcDbPolyline
 62
2
  6
CONTINUOUS
 90
5
 70
0
 43
0.35
 10
11.7940942383
 20
11.270833374
 10
11.7940942383
 20
11.145833252
 10
11.5857602539
 20
11.2016563721
 10
11.5857602539
 20
11.3266564941
 10
11.7940942383
 20
11.270833374
  0
LWPOLYLINE
  5
282
100
AcDbEntity
  8
0
100
AcDbPolyline
 62
2
  6
CONTINUOUS
 90
4
 70
0
 43
0.35
 10
11.7940942383
 20
13.3541665039
 10
9.294097168
 20
14.024039917
 10
11.7940942383
 20
15.0208330078
 10
9.294097168
 20
15.6907064209
  0
LWPOLYLINE
  5
283
100
AcDbEntity
  8
0
100
AcDbPolyline
 62
2
  6
CONTINUOUS
 90
2
 70
0
 43
0.35
 10
11.7940942383
 20
19.8541661377
 10
10.1274277344
 20
20.3007484131
  0
LWPOLYLINE
  5
284
100
AcDbEntity
  8
0
100
AcDbPolyline
 62
2
  6
CONTINUOUS
 90
5
 70
0
 43
0.35
 10
10.5440957031
 20
20.1891035156
 10
10.1274277344
 20
20.5507486572
 10
10.1274277344
 20
21.0507491455
 10
10.5440957031
 20
21.1891031494
 10
11.7940942383
 20
20.8541671143
  0
LWPOLYLINE
  5
285
100
AcDbEntity
  8
0
100
AcDbPolyline
 62
2
  6
CONTINUOUS
 90
9
 70
0
 43
0.35
 10
11.3774262695
 20
21.9658116455
 10
11.7940942383
 20
22.1041669922
 10
11.7940942383
 20
22.6041674805
 10
11.3774262695
 20
22.9658112793
 10
10.5440957031
 20
23.1891037598
 10
10.1274277344
 20
23.0507497559
 10
10.1274277344
 20
22.5507492676
 10
10.5440957031
 20
22.1891027832
 10
11.3774262695
 20
21.9658116455
  0
LWPOLYLINE
  5
286
100
AcDbEntity
  8
0
100
AcDbPolyline
 62
2
  6
CONTINUOUS
 90
11
 70
0
 43
0.35
 10
10.5440957031
 20
25.1891030273
 10
10.1274277344
 20
25.0507490234
 10
10.1274277344
 20
24.5507485352
 10
10.5440957031
 20
24.1891020508
 10
11.3774262695
 20
23.9658122559
 10
11.7940942383
 20
24.1041662598
 10
11.7940942383
 20
24.604166748
 10
11.3774262695
 20
24.9658132324
 10
9.7107597656
 20
25.4123928223
 10
9.294097168
 20
25.2740388184
 10
9.294097168
 20
24.7740383301
  0
LWPOLYLINE
  5
287
100
AcDbEntity
  8
0
100
AcDbPolyline
 62
2
  6
CONTINUOUS
 90
3
 70
0
 43
0.35
 10
11.7940942383
 20
25.8541679688
 10
10.1274277344
 20
26.8007480469
 10
11.7940942383
 20
26.8541662598
  0
LWPOLYLINE
  5
288
100
AcDbEntity
  8
0
100
AcDbPolyline
 62
2
  6
CONTINUOUS
 90
5
 70
0
 43
0.35
 10
11.7940942383
 20
27.9791660156
 10
11.7940942383
 20
27.8541672363
 10
11.5857602539
 20
27.9099890137
 10
11.5857602539
 20
28.0349904785
 10
11.7940942383
 20
27.9791660156
  0
LWPOLYLINE
  5
289
100
AcDbEntity
  8
0
100
AcDbPolyline
 62
2
  6
CONTINUOUS
 90
4
 70
0
 43
0.35
 10
11.7940942383
 20
33.5000004883
 10
9.294097168
 20
34.1698725586
 10
9.294097168
 20
35.1698735352
 10
11.7940942383
 20
34.4999987793
  0
LWPOLYLINE
  5
28A
100
AcDbEntity
  8
0
100
AcDbPolyline
 62
2
  6
CONTINUOUS
 90
9
 70
0
 43
0.35
 10
11.3774262695
 20
35.6116459961
 10
11.7940942383
 20
35.75
 10
11.7940942383
 20
36.2500004883
 10
11.3774262695
 20
36.6116442871
 10
10.5440957031
 20
36.8349367676
 10
10.1274277344
 20
36.6965827637
 10
10.1274277344
 20
36.1965822754
 10
10.5440957031
 20
35.834935791
 10
11.3774262695
 20
35.6116459961
  0
LWPOLYLINE
  5
28B
100
AcDbEntity
  8
0
100
AcDbPolyline
 62
2
  6
CONTINUOUS
 90
11
 70
0
 43
0.35
 10
10.5440957031
 20
38.8349360352
 10
10.1274277344
 20
38.6965820313
 10
10.1274277344
 20
38.196581543
 10
10.5440957031
 20
37.8349377441
 10
11.3774262695
 20
37.6116452637
 10
11.7940942383
 20
37.7499992676
 10
11.7940942383
 20
38.2499997559
 10
11.3774262695
 20
38.6116462402
 10
9.7107597656
 20
39.0582285156
 10
9.294097168
 20
38.9198718262
 10
9.294097168
 20
38.4198740234
  0
LWPOLYLINE
  5
28C
100
AcDbEntity
  8
0
100
AcDbPolyline
 62
2
  6
CONTINUOUS
 90
2
 70
0
 43
0.35
 10
11.7940942383
 20
39.5000009766
 10
10.1274277344
 20
39.946583252
  0
LWPOLYLINE
  5
28D
100
AcDbEntity
  8
0
100
AcDbPolyline
 62
2
  6
CONTINUOUS
 90
5
 70
0
 43
0.35
 10
10.5440957031
 20
39.8349370117
 10
10.1274277344
 20
40.1965808105
 10
10.1274277344
 20
40.6965812988
 10
10.5440957031
 20
40.8349353027
 10
11.7940942383
 20
40.4999992676
  0
LWPOLYLINE
  5
28E
100
AcDbEntity
  8
0
100
AcDbPolyline
 62
2
  6
CONTINUOUS
 90
5
 70
0
 43
0.35
 10
10.1274277344
 20
41.9465825195
 10
11.3774262695
 20
41.6116464844
 10
11.7940942383
 20
41.7500004883
 10
11.7940942383
 20
42.0000007324
 10
10.9607636719
 20
42.7232910156
  0
LWPOLYLINE
  5
28F
100
AcDbEntity
  8
0
100
AcDbPolyline
 62
2
  6
CONTINUOUS
 90
2
 70
0
 43
0.35
 10
10.1274277344
 20
42.9465808105
 10
11.7940942383
 20
42.5000012207
  0
LWPOLYLINE
  5
290
100
AcDbEntity
  8
0
100
AcDbPolyline
 62
2
  6
CONTINUOUS
 90
8
 70
0
 43
0.35
 10
10.5440957031
 20
44.8349365234
 10
10.1274277344
 20
44.6965825195
 10
10.1274277344
 20
44.1965820313
 10
10.5440957031
 20
43.8349355469
 10
11.3774262695
 20
43.611645752
 10
11.7940942383
 20
43.7499997559
 10
11.7940942383
 20
44.2500002441
 10
11.3774262695
 20
44.6116467285
  0
LWPOLYLINE
  5
291
100
AcDbEntity
  8
0
100
AcDbPolyline
 62
2
  6
CONTINUOUS
 90
9
 70
0
 43
0.35
 10
10.1274277344
 20
45.9465810547
 10
11.3774262695
 20
45.6116450195
 10
11.7940942383
 20
45.7499990234
 10
11.7940942383
 20
46.2499995117
 10
11.3774262695
 20
46.6116459961
 10
10.9607636719
 20
46.7232895508
 10
10.5440957031
 20
46.5849355469
 10
10.5440957031
 20
46.0849350586
 10
10.9607636719
 20
45.7232885742
  0
LWPOLYLINE
  5
292
100
AcDbEntity
  8
0
100
AcDbPolyline
 62
2
  6
CONTINUOUS
 90
5
 70
0
 43
0.35
 10
10.1274277344
 20
49.9465795898
 10
11.3774262695
 20
49.6116435547
 10
11.7940942383
 20
49.7499975586
 10
11.7940942383
 20
50.0000004883
 10
10.9607636719
 20
50.723293457
  0
LWPOLYLINE
  5
293
100
AcDbEntity
  8
0
100
AcDbPolyline
 62
2
  6
CONTINUOUS
 90
2
 70
0
 43
0.35
 10
10.1274277344
 20
50.9465805664
 10
11.7940942383
 20
50.5000009766
  0
LWPOLYLINE
  5
294
100
AcDbEntity
  8
0
100
AcDbPolyline
 62
2
  6
CONTINUOUS
 90
11
 70
0
 43
0.35
 10
10.5440957031
 20
54.8349355469
 10
10.1274277344
 20
54.696581543
 10
10.1274277344
 20
54.1965810547
 10
10.5440957031
 20
53.8349345703
 10
11.3774262695
 20
53.6116474609
 10
11.7940942383
 20
53.7500014648
 10
11.7940942383
 20
54.2500019531
 10
11.3774262695
 20
54.6116430664
 10
9.7107597656
 20
55.0582280273
 10
9.294097168
 20
54.9198740234
 10
9.294097168
 20
54.4198735352
  0
LWPOLYLINE
  5
295
100
AcDbEntity
  8
0
100
AcDbPolyline
 62
2
  6
CONTINUOUS
 90
8
 70
0
 43
0.35
 10
10.5440957031
 20
56.8349375
 10
10.1274277344
 20
56.6965834961
 10
10.1274277344
 20
56.1965830078
 10
10.5440957031
 20
55.8349365234
 10
11.3774262695
 20
55.611644043
 10
11.7940942383
 20
55.7499980469
 10
11.7940942383
 20
56.2499985352
 10
11.3774262695
 20
56.6116450195
  0
LWPOLYLINE
  5
296
100
AcDbEntity
  8
0
100
AcDbPolyline
 62
2
  6
CONTINUOUS
 90
3
 70
0
 43
0.35
 10
10.1274277344
 20
56.9465810547
 10
11.3774262695
 20
56.6116450195
 10
11.7940942383
 20
56.6249975586
  0
LWPOLYLINE
  5
297
100
AcDbEntity
  8
0
100
AcDbPolyline
 62
2
  6
CONTINUOUS
 90
2
 70
0
 43
0.35
 10
11.7940942383
 20
57.5000024414
 10
10.1274277344
 20
57.9465820313
  0
LWPOLYLINE
  5
298
100
AcDbEntity
  8
0
100
AcDbPolyline
 62
2
  6
CONTINUOUS
 90
4
 70
0
 43
0.35
 10
10.5440957031
 20
57.8349384766
 10
10.1274277344
 20
58.1965795898
 10
10.5440957031
 20
58.3349389648
 10
11.7940942383
 20
57.9999975586
  0
LWPOLYLINE
  5
299
100
AcDbEntity
  8
0
100
AcDbPolyline
 62
2
  6
CONTINUOUS
 90
4
 70
0
 43
0.35
 10
10.5440957031
 20
58.3349389648
 10
10.1274277344
 20
58.6965800781
 10
10.5440957031
 20
58.834934082
 10
11.7940942383
 20
58.4999980469
  0
LWPOLYLINE
  5
29A
100
AcDbEntity
  8
0
100
AcDbPolyline
 62
2
  6
CONTINUOUS
 90
8
 70
0
 43
0.35
 10
10.5440957031
 20
60.8349360352
 10
10.1274277344
 20
60.6965820313
 10
10.1274277344
 20
60.196581543
 10
10.5440957031
 20
59.8349350586
 10
11.3774262695
 20
59.6116479492
 10
11.7940942383
 20
59.7500019531
 10
11.7940942383
 20
60.2500024414
 10
11.3774262695
 20
60.6116435547
  0
LWPOLYLINE
  5
29B
100
AcDbEntity
  8
0
100
AcDbPolyline
 62
2
  6
CONTINUOUS
 90
3
 70
0
 43
0.35
 10
10.1274277344
 20
60.9465795898
 10
11.3774262695
 20
60.6116435547
 10
11.7940942383
 20
60.6250014648
  0
LWPOLYLINE
  5
29C
100
AcDbEntity
  8
0
100
AcDbPolyline
 62
2
  6
CONTINUOUS
 90
10
 70
0
 43
0.35
 10
11.7940942383
 20
66.1458359375
 10
11.7940942383
 20
66.8958339844
 10
11.3774262695
 20
67.2574804688
 10
10.9607636719
 20
67.3691240234
 10
10.5440957031
 20
67.2307700195
 10
10.1274277344
 20
67.5924165039
 10
9.7107597656
 20
67.7040600586
 10
9.294097168
 20
67.5657060547
 10
9.294097168
 20
66.8157080078
 10
11.7940942383
 20
66.1458359375
  0
LWPOLYLINE
  5
29D
100
AcDbEntity
  8
0
100
AcDbPolyline
 62
2
  6
CONTINUOUS
 90
2
 70
0
 43
0.35
 10
10.5440957031
 20
66.4807719727
 10
10.5440957031
 20
67.2307700195
  0
LWPOLYLINE
  5
29E
100
AcDbEntity
  8
0
100
AcDbPolyline
 62
2
  6
CONTINUOUS
 90
9
 70
0
 43
0.35
 10
11.3774262695
 20
68.2574814453
 10
11.7940942383
 20
68.3958354492
 10
11.7940942383
 20
68.8958359375
 10
11.3774262695
 20
69.2574770508
 10
10.9607636719
 20
69.1191230469
 10
10.5440957031
 20
69.4807695313
 10
10.1274277344
 20
69.3424155273
 10
10.1274277344
 20
68.8424150391
 10
10.5440957031
 20
68.4807685547
  0
LWPOLYLINE
  5
29F
100
AcDbEntity
  8
0
100
AcDbPolyline
 62
2
  6
CONTINUOUS
 90
2
 70
0
 43
0.35
 10
10.9607636719
 20
68.8691254883
 10
10.9607636719
 20
69.1191230469
  0
LWPOLYLINE
  5
2A0
100
AcDbEntity
  8
0
100
AcDbPolyline
 62
2
  6
CONTINUOUS
 90
8
 70
0
 43
0.35
 10
10.5440957031
 20
71.4807714844
 10
10.1274277344
 20
71.3424174805
 10
10.1274277344
 20
70.8424169922
 10
10.5440957031
 20
70.4807705078
 10
11.3774262695
 20
70.2574780273
 10
11.7940942383
 20
70.3958320313
 10
11.7940942383
 20
70.8958325195
 10
11.3774262695
 20
71.2574790039
  0
LWPOLYLINE
  5
2A1
100
AcDbEntity
  8
0
100
AcDbPolyline
 62
2
  6
CONTINUOUS
 90
3
 70
0
 43
0.35
 10
10.1274277344
 20
71.5924150391
 10
11.3774262695
 20
71.2574790039
 10
11.7940942383
 20
71.270831543
  0
LWPOLYLINE
  5
2A2
100
AcDbEntity
  8
0
100
AcDbPolyline
 62
2
  6
CONTINUOUS
 90
5
 70
0
 43
0.35
 10
11.7940942383
 20
72.1458310547
 10
10.1274277344
 20
72.5924160156
 10
10.9607636719
 20
72.8691240234
 10
10.1274277344
 20
73.5924169922
 10
11.7940942383
 20
73.1458320313
  0
LWPOLYLINE
  5
2A3
100
AcDbEntity
  8
0
100
AcDbPolyline
 62
2
  6
CONTINUOUS
 90
5
 70
0
 43
0.35
 10
11.7940942383
 20
74.2708344727
 10
11.7940942383
 20
74.1458330078
 10
11.5857602539
 20
74.2016547852
 10
11.5857602539
 20
74.32665625
 10
11.7940942383
 20
74.2708344727
  0
LWPOLYLINE
  5
2A4
100
AcDbEntity
  8
0
100
AcDbPolyline
 62
2
  6
CONTINUOUS
 90
5
 70
0
 43
0.35
 10
10.1274277344
 20
78.5924165039
 10
11.3774262695
 20
78.2574804688
 10
11.7940942383
 20
78.3958344727
 10
11.7940942383
 20
78.6458320313
 10
10.9607636719
 20
79.369125
  0
LWPOLYLINE
  5
2A5
100
AcDbEntity
  8
0
100
AcDbPolyline
 62
2
  6
CONTINUOUS
 90
2
 70
0
 43
0.35
 10
10.1274277344
 20
79.5924174805
 10
11.7940942383
 20
79.1458325195
  0
LWPOLYLINE
  5
2A6
100
AcDbEntity
  8
0
100
AcDbPolyline
 62
2
  6
CONTINUOUS
 90
2
 70
0
 43
0.35
 10
11.7940942383
 20
80.1458334961
 10
10.1274277344
 20
80.5924130859
  0
LWPOLYLINE
  5
2A7
100
AcDbEntity
  8
0
100
AcDbPolyline
 62
2
  6
CONTINUOUS
 90
2
 70
0
 43
0.35
 10
10.9607636719
 20
80.3691259766
 10
10.9607636719
 20
81.3691269531
  0
LWPOLYLINE
  5
2A8
100
AcDbEntity
  8
0
100
AcDbPolyline
 62
2
  6
CONTINUOUS
 90
2
 70
0
 43
0.35
 10
10.1274277344
 20
81.5924140625
 10
11.7940942383
 20
81.1458344727
  0
LWPOLYLINE
  5
2A9
100
AcDbEntity
  8
0
100
AcDbPolyline
 62
2
  6
CONTINUOUS
 90
12
 70
0
 43
0.35
 10
10.5440957031
 20
82.4807714844
 10
9.7107597656
 20
83.204059082
 10
9.294097168
 20
83.3157080078
 10
9.294097168
 20
83.0657050781
 10
9.7107597656
 20
82.7040585938
 10
11.3774262695
 20
82.2574790039
 10
11.7940942383
 20
82.3958330078
 10
11.7940942383
 20
82.8958334961
 10
11.3774262695
 20
83.2574799805
 10
10.5440957031
 20
83.4807724609
 10
10.1274277344
 20
83.3424130859
 10
10.1274277344
 20
82.8424179688
  0
LWPOLYLINE
  5
2AA
100
AcDbEntity
  8
0
100
AcDbPolyline
 62
2
  6
CONTINUOUS
 90
5
 70
0
 43
0.35
 10
11.7940942383
 20
84.2708334961
 10
11.7940942383
 20
84.1458320313
 10
11.5857602539
 20
84.2016538086
 10
11.5857602539
 20
84.3266552734
 10
11.7940942383
 20
84.2708334961
  0
LWPOLYLINE
  5
2AB
100
AcDbEntity
  8
0
100
AcDbPolyline
 62
2
  6
CONTINUOUS
 90
4
 70
0
 43
0.35
 10
11.7940942383
 20
86.3541679688
 10
9.294097168
 20
87.0240400391
 10
11.7940942383
 20
88.0208344727
 10
9.294097168
 20
88.690706543
  0
LWPOLYLINE
  5
2AC
100
AcDbEntity
  8
0
100
AcDbPolyline
 62
2
  6
CONTINUOUS
 90
4
 70
0
 43
0.35
 10
9.294097168
 20
90.8157099609
 10
11.7940942383
 20
90.1458378906
 10
9.294097168
 20
91.8157109375
 10
11.7940942383
 20
91.145828125
  0
LWPOLYLINE
  5
2AD
100
AcDbEntity
  8
0
100
AcDbPolyline
 62
2
  6
CONTINUOUS
 90
2
 70
0
 43
0.35
 10
11.7940942383
 20
92.1458291016
 10
10.1274277344
 20
92.5924140625
  0
LWPOLYLINE
  5
2AE
100
AcDbEntity
  8
0
100
AcDbPolyline
 62
2
  6
CONTINUOUS
 90
2
 70
0
 43
0.35
 10
10.9607636719
 20
92.3691269531
 10
10.9607636719
 20
93.3691279297
  0
LWPOLYLINE
  5
2AF
100
AcDbEntity
  8
0
100
AcDbPolyline
 62
2
  6
CONTINUOUS
 90
2
 70
0
 43
0.35
 10
10.1274277344
 20
93.5924150391
 10
11.7940942383
 20
93.1458300781
  0
LWPOLYLINE
  5
2B0
100
AcDbEntity
  8
0
100
AcDbPolyline
 62
2
  6
CONTINUOUS
 90
12
 70
0
 43
0.35
 10
10.5440957031
 20
94.4807724609
 10
9.7107597656
 20
95.2040654297
 10
9.294097168
 20
95.3157089844
 10
9.294097168
 20
95.0657060547
 10
9.7107597656
 20
94.7040595703
 10
11.3774262695
 20
94.2574746094
 10
11.7940942383
 20
94.3958339844
 10
11.7940942383
 20
94.8958291016
 10
11.3774262695
 20
95.2574755859
 10
10.5440957031
 20
95.4807734375
 10
10.1274277344
 20
95.3424140625
 10
10.1274277344
 20
94.8424189453
  0
LWPOLYLINE
  5
2B1
100
AcDbEntity
  8
0
100
AcDbPolyline
 62
2
  6
CONTINUOUS
 90
5
 70
0
 43
0.35
 10
11.7940942383
 20
96.2708291016
 10
11.7940942383
 20
96.1458330078
 10
11.5857602539
 20
96.2016601563
 10
11.5857602539
 20
96.32665625
 10
11.7940942383
 20
96.2708291016
  0
LWPOLYLINE
  5
2B2
100
AcDbEntity
  8
0
100
AcDbPolyline
 62
2
  6
CONTINUOUS
 90
4
 70
0
 43
0.35
 10
11.7940942383
 20
98.3541689453
 10
9.294097168
 20
99.0240410156
 10
11.7940942383
 20
100.0208300781
 10
9.294097168
 20
100.6907021484
  0
LWPOLYLINE
  5
2B3
100
AcDbEntity
  8
0
100
AcDbPolyline
 62
2
  6
CONTINUOUS
 90
11
 70
0
 43
0.35
 10
10.5440957031
 20
106.1891015625
 10
10.1274277344
 20
106.0507529297
 10
10.1274277344
 20
105.5507470703
 10
10.5440957031
 20
105.1891005859
 10
11.3774262695
 20
104.9658134766
 10
11.7940942383
 20
105.1041621094
 10
11.7940942383
 20
105.6041679688
 10
11.3774262695
 20
105.9658144531
 10
9.7107597656
 20
106.4123994141
 10
9.294097168
 20
106.2740400391
 10
9.294097168
 20
105.7740449219
  0
LWPOLYLINE
  5
2B4
100
AcDbEntity
  8
0
100
AcDbPolyline
 62
2
  6
CONTINUOUS
 90
2
 70
0
 43
0.35
 10
10.1274277344
 20
107.3007460938
 10
11.7940942383
 20
107.3541669922
  0
LWPOLYLINE
  5
2B5
100
AcDbEntity
  8
0
100
AcDbPolyline
 62
2
  6
CONTINUOUS
 90
3
 70
0
 43
0.35
 10
12.6274301758
 20
106.6308740234
 10
12.6274301758
 20
106.8808769531
 10
10.1274277344
 20
108.3007470703
  0
LWPOLYLINE
  5
2B6
100
AcDbEntity
  8
0
100
AcDbPolyline
 62
2
  6
CONTINUOUS
 90
10
 70
0
 43
0.35
 10
10.1274277344
 20
110.0507460938
 10
10.1274277344
 20
109.5507509766
 10
10.5440957031
 20
109.1891044922
 10
11.3774262695
 20
108.9658173828
 10
11.7940942383
 20
109.1041660156
 10
11.7940942383
 20
109.604171875
 10
11.3774262695
 20
109.9658076172
 10
10.5440957031
 20
110.1891054688
 10
9.294097168
 20
109.7740380859
 10
9.294097168
 20
110.5240361328
  0
LWPOLYLINE
  5
2B7
100
AcDbEntity
  8
0
100
AcDbPolyline
 62
2
  6
CONTINUOUS
 90
3
 70
0
 43
0.35
 10
11.7940942383
 20
110.8541650391
 10
10.1274277344
 20
111.8007451172
 10
11.7940942383
 20
111.8541660156
  0
LWPOLYLINE
  5
2B8
100
AcDbEntity
  8
0
100
AcDbPolyline
 62
2
  6
CONTINUOUS
 90
5
 70
0
 43
0.35
 10
11.7940942383
 20
112.9791630859
 10
11.7940942383
 20
112.8541669922
 10
11.5857602539
 20
112.9099941406
 10
11.5857602539
 20
113.0349902344
 10
11.7940942383
 20
112.9791630859
  0
LWPOLYLINE
  5
2B9
100
AcDbEntity
  8
0
100
AcDbPolyline
 62
2
  6
CONTINUOUS
 90
4
 70
0
 43
0.35
 10
11.7940942383
 20
118.5000029297
 10
9.294097168
 20
119.169875
 10
9.294097168
 20
120.1698759766
 10
11.7940942383
 20
119.5000039063
  0
LWPOLYLINE
  5
2BA
100
AcDbEntity
  8
0
100
AcDbPolyline
 62
2
  6
CONTINUOUS
 90
9
 70
0
 43
0.35
 10
11.3774262695
 20
120.6116484375
 10
11.7940942383
 20
120.7499970703
 10
11.7940942383
 20
121.2500029297
 10
11.3774262695
 20
121.6116494141
 10
10.5440957031
 20
121.8349365234
 10
10.1274277344
 20
121.6965771484
 10
10.1274277344
 20
121.1965820313
 10
10.5440957031
 20
120.8349355469
 10
11.3774262695
 20
120.6116484375
  0
LWPOLYLINE
  5
2BB
100
AcDbEntity
  8
0
100
AcDbPolyline
 62
2
  6
CONTINUOUS
 90
11
 70
0
 43
0.35
 10
10.5440957031
 20
123.8349384766
 10
10.1274277344
 20
123.6965791016
 10
10.1274277344
 20
123.1965839844
 10
10.5440957031
 20
122.8349375
 10
11.3774262695
 20
122.6116503906
 10
11.7940942383
 20
122.7499990234
 10
11.7940942383
 20
123.2500048828
 10
11.3774262695
 20
123.611640625
 10
9.7107597656
 20
124.0582255859
 10
9.294097168
 20
123.9198769531
 10
9.294097168
 20
123.4198710938
  0
LWPOLYLINE
  5
2BC
100
AcDbEntity
  8
0
100
AcDbPolyline
 62
2
  6
CONTINUOUS
 90
2
 70
0
 43
0.35
 10
11.7940942383
 20
124.4999980469
 10
10.1274277344
 20
124.9465830078
  0
LWPOLYLINE
  5
2BD
100
AcDbEntity
  8
0
100
AcDbPolyline
 62
2
  6
CONTINUOUS
 90
5
 70
0
 43
0.35
 10
10.5440957031
 20
124.8349394531
 10
10.1274277344
 20
125.1965859375
 10
10.1274277344
 20
125.6965810547
 10
10.5440957031
 20
125.8349404297
 10
11.7940942383
 20
125.4999990234
  0
LWPOLYLINE
  5
2BE
100
AcDbEntity
  8
0
100
AcDbPolyline
 62
2
  6
CONTINUOUS
 90
5
 70
0
 43
0.35
 10
10.1274277344
 20
126.9465849609
 10
11.3774262695
 20
126.6116435547
 10
11.7940942383
 20
126.7500029297
 10
11.7940942383
 20
126.9999951172
 10
10.9607636719
 20
127.7232880859
  0
LWPOLYLINE
  5
2BF
100
AcDbEntity
  8
0
100
AcDbPolyline
 62
2
  6
CONTINUOUS
 90
2
 70
0
 43
0.35
 10
10.1274277344
 20
127.9465859375
 10
11.7940942383
 20
127.5000009766
  0
LWPOLYLINE
  5
2C0
100
AcDbEntity
  8
0
100
AcDbPolyline
 62
2
  6
CONTINUOUS
 90
8
 70
0
 43
0.35
 10
10.5440957031
 20
129.8349335938
 10
10.1274277344
 20
129.6965849609
 10
10.1274277344
 20
129.1965791016
 10
10.5440957031
 20
128.8349326172
 10
11.3774262695
 20
128.6116455078
 10
11.7940942383
 20
128.7500048828
 10
11.7940942383
 20
129.25
 10
11.3774262695
 20
129.6116464844
  0
LWPOLYLINE
  5
2C1
100
AcDbEntity
  8
0
100
AcDbPolyline
 62
2
  6
CONTINUOUS
 90
9
 70
0
 43
0.35
 10
10.1274277344
 20
130.946578125
 10
11.3774262695
 20
130.6116474609
 10
11.7940942383
 20
130.7499960938
 10
11.7940942383
 20
131.2500019531
 10
11.3774262695
 20
131.6116484375
 10
10.9607636719
 20
131.7232919922
 10
10.5440957031
 20
131.5849326172
 10
10.5440957031
 20
131.0849375
 10
10.9607636719
 20
130.7232910156
  0
LWPOLYLINE
  5
2C2
100
AcDbEntity
  8
0
100
AcDbPolyline
 62
2
  6
CONTINUOUS
 90
5
 70
0
 43
0.35
 10
10.1274277344
 20
134.9465820313
 10
11.3774262695
 20
134.611640625
 10
11.7940942383
 20
134.75
 10
11.7940942383
 20
135.0000029297
 10
10.9607636719
 20
135.7232958984
  0
LWPOLYLINE
  5
2C3
100
AcDbEntity
  8
0
100
AcDbPolyline
 62
2
  6
CONTINUOUS
 90
2
 70
0
 43
0.35
 10
10.1274277344
 20
135.9465830078
 10
11.7940942383
 20
135.4999980469
  0
LWPOLYLINE
  5
2C4
100
AcDbEntity
  8
0
100
AcDbPolyline
 62
2
  6
CONTINUOUS
 90
11
 70
0
 43
0.35
 10
10.5440957031
 20
139.8349326172
 10
10.1274277344
 20
139.6965839844
 10
10.1274277344
 20
139.196578125
 10
10.5440957031
 20
138.8349316406
 10
11.3774262695
 20
138.6116445313
 10
11.7940942383
 20
138.7500039063
 10
11.7940942383
 20
139.2499990234
 10
11.3774262695
 20
139.6116455078
 10
9.7107597656
 20
140.0582304688
 10
9.294097168
 20
139.9198710938
 10
9.294097168
 20
139.4198759766
  0
LWPOLYLINE
  5
2C5
100
AcDbEntity
  8
0
100
AcDbPolyline
 62
2
  6
CONTINUOUS
 90
8
 70
0
 43
0.35
 10
10.5440957031
 20
141.8349345703
 10
10.1274277344
 20
141.6965859375
 10
10.1274277344
 20
141.1965800781
 10
10.5440957031
 20
140.8349335938
 10
11.3774262695
 20
140.6116464844
 10
11.7940942383
 20
140.7499951172
 10
11.7940942383
 20
141.2500009766
 10
11.3774262695
 20
141.6116474609
  0
LWPOLYLINE
  5
2C6
100
AcDbEntity
  8
0
100
AcDbPolyline
 62
2
  6
CONTINUOUS
 90
3
 70
0
 43
0.35
 10
10.1274277344
 20
141.946578125
 10
11.3774262695
 20
141.6116474609
 10
11.7940942383
 20
141.625
  0
LWPOLYLINE
  5
2C7
100
AcDbEntity
  8
0
100
AcDbPolyline
 62
2
  6
CONTINUOUS
 90
2
 70
0
 43
0.35
 10
11.7940942383
 20
142.5000048828
 10
10.1274277344
 20
142.9465791016
  0
LWPOLYLINE
  5
2C8
100
AcDbEntity
  8
0
100
AcDbPolyline
 62
2
  6
CONTINUOUS
 90
4
 70
0
 43
0.35
 10
10.5440957031
 20
142.8349355469
 10
10.1274277344
 20
143.1965820313
 10
10.5440957031
 20
143.3349414063
 10
11.7940942383
 20
143.0
  0
LWPOLYLINE
  5
2C9
100
AcDbEntity
  8
0
100
AcDbPolyline
 62
2
  6
CONTINUOUS
 90
4
 70
0
 43
0.35
 10
10.5440957031
 20
143.3349414063
 10
10.1274277344
 20
143.6965771484
 10
10.5440957031
 20
143.8349365234
 10
11.7940942383
 20
143.4999951172
  0
LWPOLYLINE
  5
2CA
100
AcDbEntity
  8
0
100
AcDbPolyline
 62
2
  6
CONTINUOUS
 90
8
 70
0
 43
0.35
 10
10.5440957031
 20
145.8349384766
 10
10.1274277344
 20
145.6965791016
 10
10.1274277344
 20
145.1965839844
 10
10.5440957031
 20
144.8349375
 10
11.3774262695
 20
144.6116503906
 10
11.7940942383
 20
144.7499990234
 10
11.7940942383
 20
145.2500048828
 10
11.3774262695
 20
145.611640625
  0
LWPOLYLINE
  5
2CB
100
AcDbEntity
  8
0
100
AcDbPolyline
 62
2
  6
CONTINUOUS
 90
3
 70
0
 43
0.35
 10
10.1274277344
 20
145.9465820313
 10
11.3774262695
 20
145.611640625
 10
11.7940942383
 20
145.6250039063
  0
LINE
  5
2CC
100
AcDbEntity
  8
0
100
AcDbLine
 62
7
  6
CONTINUOUS
 10
90.0
 20
278.3498994289
 11
20.0
 21
278.3498994289
  0
LINE
  5
2CD
100
AcDbEntity
  8
0
100
AcDbLine
 62
7
  6
CONTINUOUS
 10
90.0
 20
278.3498994289
 11
90.0
 21
292.3498994289
  0
LINE
  5
2CE
100
AcDbEntity
  8
0
100
AcDbLine
 62
7
  6
CONTINUOUS
 10
90.0
 20
292.3498994289
 11
20.0
 21
292.3498994289
  0
LINE
  5
2CF
100
AcDbEntity
  8
0
100
AcDbLine
 62
7
  6
CONTINUOUS
 10
20.0
 20
278.3498994289
 11
20.0
 21
292.3498994289
  0
LWPOLYLINE
  5
2D0
100
AcDbEntity
  8
0
100
AcDbPolyline
 62
2
  6
CONTINUOUS
 90
4
 70
0
 43
0.35
 10
83.262109375
 20
281.9280878906
 10
84.7499990234
 20
288.9280839844
 10
81.5120996094
 20
281.9280878906
 10
83.0
 20
288.9280839844
  0
LWPOLYLINE
  5
2D1
100
AcDbEntity
  8
0
100
AcDbPolyline
 62
2
  6
CONTINUOUS
 90
6
 70
0
 43
0.35
 10
81.2500009766
 20
288.9280839844
 10
79.9374990234
 20
288.9280839844
 10
79.2520185547
 20
287.7614179688
 10
79.0040351562
 20
286.5947519531
 10
79.1935488281
 20
285.4280859375
 10
80.5060507812
 20
285.4280859375
  0
LWPOLYLINE
  5
2D2
100
AcDbEntity
  8
0
100
AcDbPolyline
 62
2
  6
CONTINUOUS
 90
3
 70
0
 43
0.35
 10
81.2500009766
 20
288.9280839844
 10
79.7621005859
 20
281.9280878906
 10
78.449609375
 20
281.9280878906
  0
LWPOLYLINE
  5
2D3
100
AcDbEntity
  8
0
100
AcDbPolyline
 62
2
  6
CONTINUOUS
 90
7
 70
0
 43
0.35
 10
77.7500029297
 20
288.9280839844
 10
76.2621025391
 20
281.9280878906
 10
74.9496005859
 20
281.9280878906
 10
74.7600869141
 20
283.0947539063
 10
75.0080703125
 20
284.2614199219
 10
75.6935507812
 20
285.4280859375
 10
77.0060527344
 20
285.4280859375
  0
LWPOLYLINE
  5
2D4
100
AcDbEntity
  8
0
100
AcDbPolyline
 62
2
  6
CONTINUOUS
 90
10
 70
0
 43
0.35
 10
73.0100878906
 20
283.0947539063
 10
72.3246074219
 20
281.9280878906
 10
71.4496025391
 20
281.9280878906
 10
71.2600888672
 20
283.0947539063
 10
71.7560556641
 20
285.4280859375
 10
72.4415361328
 20
286.5947519531
 10
73.3165302734
 20
286.5947519531
 10
74.0020214844
 20
287.7614179688
 10
74.2500048828
 20
288.9280839844
 10
72.4999951172
 20
288.9280839844
  0
LWPOLYLINE
  5
2D5
100
AcDbEntity
  8
0
100
AcDbPolyline
 62
2
  6
CONTINUOUS
 90
5
 70
0
 43
0.35
 10
70.5312529297
 20
288.9280839844
 10
70.7499960937
 20
288.9280839844
 10
70.6260097656
 20
288.3447617188
 10
70.4072558594
 20
288.3447617188
 10
70.5312529297
 20
288.9280839844
  0
LWPOLYLINE
  5
2D6
100
AcDbEntity
  8
0
100
AcDbPolyline
 62
2
  6
CONTINUOUS
 90
9
 70
0
 43
0.35
 10
66.8125009766
 20
288.9280839844
 10
67.0020146484
 20
287.7614179688
 10
66.0100917969
 20
283.0947539063
 10
65.3246005859
 20
281.9280878906
 10
64.4496064453
 20
281.9280878906
 10
64.2600820312
 20
283.0947539063
 10
65.252015625
 20
287.7614179688
 10
65.9374960937
 20
288.9280839844
 10
66.8125009766
 20
288.9280839844
  0
LWPOLYLINE
  5
2D7
100
AcDbEntity
  8
0
100
AcDbPolyline
 62
2
  6
CONTINUOUS
 90
3
 70
0
 43
0.35
 10
61.6643183594
 20
284.2614199219
 10
60.7308544922
 20
281.9280878906
 10
62.2187548828
 20
288.9280839844
  0
LWPOLYLINE
  5
2D8
100
AcDbEntity
  8
0
100
AcDbPolyline
 62
2
  6
CONTINUOUS
 90
2
 70
0
 43
0.35
 10
62.6562519531
 20
288.9280839844
 10
61.7812470703
 20
288.9280839844
  0
LWPOLYLINE
  5
2D9
100
AcDbEntity
  8
0
100
AcDbPolyline
 62
2
  6
CONTINUOUS
 90
5
 70
0
 43
0.35
 10
60.0312480469
 20
288.9280839844
 10
60.2500019531
 20
288.9280839844
 10
60.1260048828
 20
288.3447617188
 10
59.9072617187
 20
288.3447617188
 10
60.0312480469
 20
288.9280839844
  0
LWPOLYLINE
  5
2DA
100
AcDbEntity
  8
0
100
AcDbPolyline
 62
2
  6
CONTINUOUS
 90
3
 70
0
 43
0.35
 10
54.6643222656
 20
284.2614199219
 10
53.7308583984
 20
281.9280878906
 10
55.2187480469
 20
288.9280839844
  0
LWPOLYLINE
  5
2DB
100
AcDbEntity
  8
0
100
AcDbPolyline
 62
2
  6
CONTINUOUS
 90
2
 70
0
 43
0.35
 10
55.6562451172
 20
288.9280839844
 10
54.7812509766
 20
288.9280839844
  0
LWPOLYLINE
  5
2DC
100
AcDbEntity
  8
0
100
AcDbPolyline
 62
2
  6
CONTINUOUS
 90
9
 70
0
 43
0.35
 10
52.8124980469
 20
288.9280839844
 10
53.0020224609
 20
287.7614179688
 10
52.0100888672
 20
283.0947539063
 10
51.3246083984
 20
281.9280878906
 10
50.4496035156
 20
281.9280878906
 10
50.2600898437
 20
283.0947539063
 10
51.2520126953
 20
287.7614179688
 10
51.9375039062
 20
288.9280839844
 10
52.8124980469
 20
288.9280839844
  0
LWPOLYLINE
  5
2DD
100
AcDbEntity
  8
0
100
AcDbPolyline
 62
2
  6
CONTINUOUS
 90
9
 70
0
 43
0.35
 10
49.3125
 20
288.9280839844
 10
49.5020136719
 20
287.7614179688
 10
48.5100908203
 20
283.0947539063
 10
47.8245996094
 20
281.9280878906
 10
46.9496054687
 20
281.9280878906
 10
46.7600917969
 20
283.0947539063
 10
47.7520146484
 20
287.7614179688
 10
48.4374951172
 20
288.9280839844
 10
49.3125
 20
288.9280839844
  0
LWPOLYLINE
  5
2DE
100
AcDbEntity
  8
0
100
AcDbPolyline
 62
2
  6
CONTINUOUS
 90
5
 70
0
 43
0.35
 10
46.0312451172
 20
288.9280839844
 10
46.2499990234
 20
288.9280839844
 10
46.1260126953
 20
288.3447617188
 10
45.9072587891
 20
288.3447617188
 10
46.0312451172
 20
288.9280839844
  0
LWPOLYLINE
  5
2DF
100
AcDbEntity
  8
0
100
AcDbPolyline
 62
2
  6
CONTINUOUS
 90
9
 70
0
 43
0.35
 10
42.3125039062
 20
288.9280839844
 10
42.5020175781
 20
287.7614179688
 10
41.5100839844
 20
283.0947539063
 10
40.8246035156
 20
281.9280878906
 10
39.949609375
 20
281.9280878906
 10
39.7600849609
 20
283.0947539063
 10
40.7520185547
 20
287.7614179688
 10
41.4374990234
 20
288.9280839844
 10
42.3125039062
 20
288.9280839844
  0
LWPOLYLINE
  5
2E0
100
AcDbEntity
  8
0
100
AcDbPolyline
 62
2
  6
CONTINUOUS
 90
4
 70
0
 43
0.35
 10
37.9375009766
 20
288.9280839844
 10
36.4496005859
 20
281.9280878906
 10
39.0020195312
 20
287.7614179688
 10
37.2520205078
 20
287.7614179688
  0
LWPOLYLINE
  5
2E1
100
AcDbEntity
  8
0
100
AcDbPolyline
 62
2
  6
CONTINUOUS
 90
2
 70
0
 43
0.35
 10
34.1310498047
 20
285.4280859375
 10
32.3810507812
 20
285.4280859375
  0
LWPOLYLINE
  5
2E2
100
AcDbEntity
  8
0
100
AcDbPolyline
 62
2
  6
CONTINUOUS
 90
9
 70
0
 43
0.35
 10
31.8124990234
 20
288.9280839844
 10
32.0020126953
 20
287.7614179688
 10
31.0100898437
 20
283.0947539063
 10
30.324609375
 20
281.9280878906
 10
29.4496044922
 20
281.9280878906
 10
29.2600908203
 20
283.0947539063
 10
30.2520136719
 20
287.7614179688
 10
30.9375048828
 20
288.9280839844
 10
31.8124990234
 20
288.9280839844
  0
LWPOLYLINE
  5
2E3
100
AcDbEntity
  8
0
100
AcDbPolyline
 62
2
  6
CONTINUOUS
 90
3
 70
0
 43
0.35
 10
26.6643164062
 20
284.2614199219
 10
25.7308525391
 20
281.9280878906
 10
27.2187529297
 20
288.9280839844
  0
LWPOLYLINE
  5
2E4
100
AcDbEntity
  8
0
100
AcDbPolyline
 62
2
  6
CONTINUOUS
 90
2
 70
0
 43
0.35
 10
27.65625
 20
288.9280839844
 10
26.7812451172
 20
288.9280839844
  0
LINE
  5
2E5
100
AcDbEntity
  8
0
100
AcDbLine
 62
7
  6
CONTINUOUS
 10
8.0
 20
172.3498994289
 11
8.0
 21
292.3498994289
  0
LINE
  5
2E6
100
AcDbEntity
  8
0
100
AcDbLine
 62
7
  6
CONTINUOUS
 10
8.0
 20
172.3498994289
 11
20.0
 21
172.3498994289
  0
LINE
  5
2E7
100
AcDbEntity
  8
0
100
AcDbLine
 62
7
  6
CONTINUOUS
 10
13.0
 20
172.3498994289
 11
13.0
 21
292.3498994289
  0
LINE
  5
2E8
100
AcDbEntity
  8
0
100
AcDbLine
 62
7
  6
CONTINUOUS
 10
20.0
 20
172.3498994289
 11
20.0
 21
292.3498994289
  0
LINE
  5
2E9
100
AcDbEntity
  8
0
100
AcDbLine
 62
7
  6
CONTINUOUS
 10
8.0
 20
232.3498994289
 11
20.0
 21
232.3498994289
  0
LINE
  5
2EA
100
AcDbEntity
  8
0
100
AcDbLine
 62
7
  6
CONTINUOUS
 10
8.0
 20
292.3498994289
 11
20.0
 21
292.3498994289
  0
LWPOLYLINE
  5
2EB
100
AcDbEntity
  8
0
100
AcDbPolyline
 62
2
  6
CONTINUOUS
 90
8
 70
0
 43
0.35
 10
9.7107597656
 20
196.5539511719
 10
9.294097168
 20
196.4156132813
 10
9.294097168
 20
195.9156074219
 10
9.7107597656
 20
195.5539609375
 10
11.3774262695
 20
195.1073867188
 10
11.7940942383
 20
195.2457246094
 10
11.7940942383
 20
195.7457304688
 10
11.3774262695
 20
196.1073769531
  0
LWPOLYLINE
  5
2EC
100
AcDbEntity
  8
0
100
AcDbPolyline
 62
2
  6
CONTINUOUS
 90
2
 70
0
 43
0.35
 10
11.7940942383
 20
196.995734375
 10
10.1274277344
 20
197.4423085938
  0
LWPOLYLINE
  5
2ED
100
AcDbEntity
  8
0
100
AcDbPolyline
 62
2
  6
CONTINUOUS
 90
5
 70
0
 43
0.35
 10
10.5440957031
 20
197.3306757813
 10
10.1274277344
 20
197.6923222656
 10
10.1274277344
 20
198.1923066406
 10
10.5440957031
 20
198.3306660156
 10
11.7940942383
 20
197.9957246094
  0
LWPOLYLINE
  5
2EE
100
AcDbEntity
  8
0
100
AcDbPolyline
 62
2
  6
CONTINUOUS
 90
2
 70
0
 43
0.35
 10
12.6274301758
 20
198.7724492188
 10
10.1274277344
 20
199.4423105469
  0
LWPOLYLINE
  5
2EF
100
AcDbEntity
  8
0
100
AcDbPolyline
 62
2
  6
CONTINUOUS
 90
7
 70
0
 43
0.35
 10
11.7940942383
 20
198.9957363281
 10
11.7940942383
 20
199.745734375
 10
11.3774262695
 20
200.1073808594
 10
10.5440957031
 20
200.3306679688
 10
10.1274277344
 20
200.1923085938
 10
10.1274277344
 20
199.6923242188
 10
10.5440957031
 20
199.3306777344
  0
LWPOLYLINE
  5
2F0
100
AcDbEntity
  8
0
100
AcDbPolyline
 62
2
  6
CONTINUOUS
 90
8
 70
0
 43
0.35
 10
10.5440957031
 20
202.3306699219
 10
10.1274277344
 20
202.1923105469
 10
10.1274277344
 20
201.6923046875
 10
10.5440957031
 20
201.3306796875
 10
11.3774262695
 20
201.1073710938
 10
11.7940942383
 20
201.2457304688
 10
11.7940942383
 20
201.7457363281
 10
11.3774262695
 20
202.1073828125
  0
LWPOLYLINE
  5
2F1
100
AcDbEntity
  8
0
100
AcDbPolyline
 62
2
  6
CONTINUOUS
 90
3
 70
0
 43
0.35
 10
10.1274277344
 20
202.4423242188
 10
11.3774262695
 20
202.1073828125
 10
11.7940942383
 20
202.1207246094
  0
LWPOLYLINE
  5
2F2
100
AcDbEntity
  8
0
100
AcDbPolyline
 62
2
  6
CONTINUOUS
 90
12
 70
0
 43
0.35
 10
10.5440957031
 20
203.3306601563
 10
9.7107597656
 20
204.053953125
 10
9.294097168
 20
204.1656074219
 10
9.294097168
 20
203.9156152344
 10
9.7107597656
 20
203.55396875
 10
11.3774262695
 20
203.1073730469
 10
11.7940942383
 20
203.2457324219
 10
11.7940942383
 20
203.7457382813
 10
11.3774262695
 20
204.1073847656
 10
10.5440957031
 20
204.330671875
 10
10.1274277344
 20
204.1923125
 10
10.1274277344
 20
203.6923066406
  0
LWPOLYLINE
  5
2F3
100
AcDbEntity
  8
0
100
AcDbPolyline
 62
2
  6
CONTINUOUS
 90
5
 70
0
 43
0.35
 10
11.7940942383
 20
205.1207382813
 10
11.7940942383
 20
204.9957421875
 10
11.5857602539
 20
205.0515585938
 10
11.5857602539
 20
205.1765546875
 10
11.7940942383
 20
205.1207382813
  0
LWPOLYLINE
  5
2F4
100
AcDbEntity
  8
0
100
AcDbPolyline
 62
2
  6
CONTINUOUS
 90
4
 70
0
 43
0.35
 10
11.7940942383
 20
207.2040566406
 10
9.294097168
 20
207.8739394531
 10
11.7940942383
 20
208.8707285156
 10
9.294097168
 20
209.5406113281
  0
LWPOLYLINE
  5
2F5
100
AcDbEntity
  8
0
100
AcDbPolyline
 62
2
  6
CONTINUOUS
 90
4
 70
0
 43
0.35
 10
11.7940942383
 20
249.349890625
 10
9.294097168
 20
250.0197734375
 10
9.294097168
 20
251.0197636719
 10
11.7940942383
 20
250.3499023438
  0
LWPOLYLINE
  5
2F6
100
AcDbEntity
  8
0
100
AcDbPolyline
 62
2
  6
CONTINUOUS
 90
10
 70
0
 43
0.35
 10
10.9607636719
 20
251.5731796875
 10
10.9607636719
 20
252.3231992188
 10
10.5440957031
 20
252.6848457031
 10
10.1274277344
 20
252.5464863281
 10
10.1274277344
 20
252.0464804688
 10
10.5440957031
 20
251.6848339844
 10
11.3774262695
 20
251.461546875
 10
11.7940942383
 20
251.59990625
 10
11.7940942383
 20
252.099890625
 10
11.3774262695
 20
252.4615371094
  0
LWPOLYLINE
  5
2F7
100
AcDbEntity
  8
0
100
AcDbPolyline
 62
2
  6
CONTINUOUS
 90
2
 70
0
 43
0.35
 10
12.6274301758
 20
253.1266074219
 10
10.1274277344
 20
253.7964902344
  0
LWPOLYLINE
  5
2F8
100
AcDbEntity
  8
0
100
AcDbPolyline
 62
2
  6
CONTINUOUS
 90
7
 70
0
 43
0.35
 10
11.7940942383
 20
253.3498945313
 10
11.7940942383
 20
254.0998925781
 10
11.3774262695
 20
254.4615390625
 10
10.5440957031
 20
254.6848261719
 10
10.1274277344
 20
254.5464882813
 10
10.1274277344
 20
254.0464824219
 10
10.5440957031
 20
253.6848359375
  0
LWPOLYLINE
  5
2F9
100
AcDbEntity
  8
0
100
AcDbPolyline
 62
2
  6
CONTINUOUS
 90
12
 70
0
 43
0.35
 10
10.5440957031
 20
255.6848378906
 10
9.7107597656
 20
256.4081308594
 10
9.294097168
 20
256.5197636719
 10
9.294097168
 20
256.2697714844
 10
9.7107597656
 20
255.908125
 10
11.3774262695
 20
255.4615507813
 10
11.7940942383
 20
255.5999101563
 10
11.7940942383
 20
256.0998945313
 10
11.3774262695
 20
256.4615410156
 10
10.5440957031
 20
256.684828125
 10
10.1274277344
 20
256.5464902344
 10
10.1274277344
 20
256.046484375
  0
LWPOLYLINE
  5
2FA
100
AcDbEntity
  8
0
100
AcDbPolyline
 62
2
  6
CONTINUOUS
 90
5
 70
0
 43
0.35
 10
11.7940942383
 20
257.4748945313
 10
11.7940942383
 20
257.3498984375
 10
11.5857602539
 20
257.4057148438
 10
11.5857602539
 20
257.5307324219
 10
11.7940942383
 20
257.4748945313
  0
LWPOLYLINE
  5
2FB
100
AcDbEntity
  8
0
100
AcDbPolyline
 62
2
  6
CONTINUOUS
 90
2
 70
0
 43
0.35
 10
11.7940942383
 20
261.3499023438
 10
10.1274277344
 20
261.7964765625
  0
LWPOLYLINE
  5
2FC
100
AcDbEntity
  8
0
100
AcDbPolyline
 62
2
  6
CONTINUOUS
 90
5
 70
0
 43
0.35
 10
10.5440957031
 20
261.68484375
 10
10.1274277344
 20
262.0464902344
 10
10.1274277344
 20
262.5464746094
 10
10.5440957031
 20
262.6848339844
 10
11.7940942383
 20
262.3498925781
  0
LWPOLYLINE
  5
2FD
100
AcDbEntity
  8
0
100
AcDbPolyline
 62
2
  6
CONTINUOUS
 90
2
 70
0
 43
0.35
 10
12.6274301758
 20
263.1266171875
 10
10.1274277344
 20
263.7964785156
  0
LWPOLYLINE
  5
2FE
100
AcDbEntity
  8
0
100
AcDbPolyline
 62
2
  6
CONTINUOUS
 90
7
 70
0
 43
0.35
 10
11.7940942383
 20
263.3499042969
 10
11.7940942383
 20
264.0999023438
 10
11.3774262695
 20
264.4615488281
 10
10.5440957031
 20
264.6848359375
 10
10.1274277344
 20
264.5464765625
 10
10.1274277344
 20
264.0464707031
 10
10.5440957031
 20
263.6848457031
  0
LWPOLYLINE
  5
2FF
100
AcDbEntity
  8
0
100
AcDbPolyline
 62
2
  6
CONTINUOUS
 90
5
 70
0
 43
0.35
 10
10.1274277344
 20
265.7964804688
 10
11.3774262695
 20
265.4615390625
 10
11.7940942383
 20
265.5998984375
 10
11.7940942383
 20
265.849890625
 10
10.9607636719
 20
266.5731835938
  0
LWPOLYLINE
  5
300
100
AcDbEntity
  8
0
100
AcDbPolyline
 62
2
  6
CONTINUOUS
 90
2
 70
0
 43
0.35
 10
10.1274277344
 20
266.7964707031
 10
11.7940942383
 20
266.3498964844
  0
LWPOLYLINE
  5
301
100
AcDbEntity
  8
0
100
AcDbPolyline
 62
2
  6
CONTINUOUS
 90
5
 70
0
 43
0.35
 10
11.7940942383
 20
267.3499082031
 10
10.1274277344
 20
267.7964824219
 10
10.9607636719
 20
268.0731796875
 10
10.1274277344
 20
268.7964726563
 10
11.7940942383
 20
268.3498984375
  0
LWPOLYLINE
  5
302
100
AcDbEntity
  8
0
100
AcDbPolyline
 62
2
  6
CONTINUOUS
 90
10
 70
0
 43
0.35
 10
10.9607636719
 20
269.5731972656
 10
10.9607636719
 20
270.3231953125
 10
10.5440957031
 20
270.6848417969
 10
10.1274277344
 20
270.5464824219
 10
10.1274277344
 20
270.0464765625
 10
10.5440957031
 20
269.6848300781
 10
11.3774262695
 20
269.4615429688
 10
11.7940942383
 20
269.5999023438
 10
11.7940942383
 20
270.0999082031
 10
11.3774262695
 20
270.4615546875
  0
LWPOLYLINE
  5
303
100
AcDbEntity
  8
0
100
AcDbPolyline
 62
2
  6
CONTINUOUS
 90
2
 70
0
 43
0.35
 10
11.7940942383
 20
271.349890625
 10
10.1274277344
 20
271.7964863281
  0
LWPOLYLINE
  5
304
100
AcDbEntity
  8
0
100
AcDbPolyline
 62
2
  6
CONTINUOUS
 90
2
 70
0
 43
0.35
 10
10.9607636719
 20
271.5731992188
 10
10.9607636719
 20
272.5731894531
  0
LWPOLYLINE
  5
305
100
AcDbEntity
  8
0
100
AcDbPolyline
 62
2
  6
CONTINUOUS
 90
2
 70
0
 43
0.35
 10
10.1274277344
 20
272.7964765625
 10
11.7940942383
 20
272.3499023438
  0
LWPOLYLINE
  5
306
100
AcDbEntity
  8
0
100
AcDbPolyline
 62
2
  6
CONTINUOUS
 90
5
 70
0
 43
0.35
 10
11.7940942383
 20
273.4749101563
 10
11.7940942383
 20
273.3498925781
 10
11.5857602539
 20
273.4057304688
 10
11.5857602539
 20
273.5307265625
 10
11.7940942383
 20
273.4749101563
  0
LINE
  5
307
100
AcDbEntity
  8
0
100
AcDbLine
 62
7
  6
CONTINUOUS
 10
205.0
 20
5.0
 11
20.0
 21
5.0
  0
LINE
  5
308
100
AcDbEntity
  8
0
100
AcDbLine
 62
7
  6
CONTINUOUS
 10
205.0
 20
5.0
 11
205.0
 21
60.0
  0
LINE
  5
309
100
AcDbEntity
  8
0
100
AcDbLine
 62
7
  6
CONTINUOUS
 10
85.0
 20
10.0
 11
20.0
 21
10.0
  0
LINE
  5
30A
100
AcDbEntity
  8
0
100
AcDbLine
 62
7
  6
CONTINUOUS
 10
85.0
 20
15.0
 11
20.0
 21
15.0
  0
LINE
  5
30B
100
AcDbEntity
  8
0
100
AcDbLine
 62
7
  6
CONTINUOUS
 10
205.0
 20
20.0
 11
20.0
 21
20.0
  0
LINE
  5
30C
100
AcDbEntity
  8
0
100
AcDbLine
 62
7
  6
CONTINUOUS
 10
205.0
 20
25.0
 11
155.0
 21
25.0
  0
LINE
  5
30D
100
AcDbEntity
  8
0
100
AcDbLine
 62
7
  6
CONTINUOUS
 10
85.0
 20
25.0
 11
20.0
 21
25.0
  0
LINE
  5
30E
100
AcDbEntity
  8
0
100
AcDbLine
 62
7
  6
CONTINUOUS
 10
85.0
 20
30.0
 11
20.0
 21
30.0
  0
LINE
  5
30F
100
AcDbEntity
  8
0
100
AcDbLine
 62
7
  6
CONTINUOUS
 10
85.0
 20
35.0
 11
20.0
 21
35.0
  0
LINE
  5
310
100
AcDbEntity
  8
0
100
AcDbLine
 62
7
  6
CONTINUOUS
 10
205.0
 20
40.0
 11
155.0
 21
40.0
  0
LINE
  5
311
100
AcDbEntity
  8
0
100
AcDbLine
 62
7
  6
CONTINUOUS
 10
85.0
 20
40.0
 11
20.0
 21
40.0
  0
LINE
  5
312
100
AcDbEntity
  8
0
100
AcDbLine
 62
7
  6
CONTINUOUS
 10
205.0
 20
45.0
 11
20.0
 21
45.0
  0
LINE
  5
313
100
AcDbEntity
  8
0
100
AcDbLine
 62
7
  6
CONTINUOUS
 10
85.0
 20
50.0
 11
20.0
 21
50.0
  0
LINE
  5
314
100
AcDbEntity
  8
0
100
AcDbLine
 62
7
  6
CONTINUOUS
 10
85.0
 20
55.0
 11
20.0
 21
55.0
  0
LINE
  5
315
100
AcDbEntity
  8
0
100
AcDbLine
 62
7
  6
CONTINUOUS
 10
205.0
 20
60.0
 11
20.0
 21
60.0
  0
LINE
  5
316
100
AcDbEntity
  8
0
100
AcDbLine
 62
7
  6
CONTINUOUS
 10
187.0
 20
25.0
 11
187.0
 21
45.0
  0
LINE
  5
317
100
AcDbEntity
  8
0
100
AcDbLine
 62
7
  6
CONTINUOUS
 10
175.0
 20
20.0
 11
175.0
 21
25.0
  0
LINE
  5
318
100
AcDbEntity
  8
0
100
AcDbLine
 62
7
  6
CONTINUOUS
 10
170.0
 20
25.0
 11
170.0
 21
45.0
  0
LINE
  5
319
100
AcDbEntity
  8
0
100
AcDbLine
 62
7
  6
CONTINUOUS
 10
165.0
 20
25.0
 11
165.0
 21
40.0
  0
LINE
  5
31A
100
AcDbEntity
  8
0
100
AcDbLine
 62
7
  6
CONTINUOUS
 10
160.0
 20
25.0
 11
160.0
 21
40.0
  0
LINE
  5
31B
100
AcDbEntity
  8
0
100
AcDbLine
 62
7
  6
CONTINUOUS
 10
155.0
 20
5.0
 11
155.0
 21
45.0
  0
LINE
  5
31C
100
AcDbEntity
  8
0
100
AcDbLine
 62
7
  6
CONTINUOUS
 10
85.0
 20
5.0
 11
85.0
 21
60.0
  0
LINE
  5
31D
100
AcDbEntity
  8
0
100
AcDbLine
 62
7
  6
CONTINUOUS
 10
75.0
 20
5.0
 11
75.0
 21
60.0
  0
LINE
  5
31E
100
AcDbEntity
  8
0
100
AcDbLine
 62
7
  6
CONTINUOUS
 10
60.0
 20
5.0
 11
60.0
 21
60.0
  0
LINE
  5
31F
100
AcDbEntity
  8
0
100
AcDbLine
 62
7
  6
CONTINUOUS
 10
37.0
 20
5.0
 11
37.0
 21
60.0
  0
LINE
  5
320
100
AcDbEntity
  8
0
100
AcDbLine
 62
7
  6
CONTINUOUS
 10
27.0
 20
35.0
 11
27.0
 21
60.0
  0
LINE
  5
321
100
AcDbEntity
  8
0
100
AcDbLine
 62
7
  6
CONTINUOUS
 10
20.0
 20
5.0
 11
20.0
 21
60.0
  0
LWPOLYLINE
  5
322
100
AcDbEntity
  8
0
100
AcDbPolyline
 62
2
  6
CONTINUOUS
 90
4
 70
0
 43
0.35
 10
164.5999980469
 20
8.9218076782
 10
166.0878984375
 20
15.9218084717
 10
168.0128984375
 20
15.9218084717
 10
166.5249980469
 20
8.9218076782
  0
LWPOLYLINE
  5
323
100
AcDbEntity
  8
0
100
AcDbPolyline
 62
2
  6
CONTINUOUS
 90
4
 70
0
 43
0.35
 10
169.9378984375
 20
15.9218084717
 10
168.4499980469
 20
8.9218076782
 10
171.8628984375
 20
15.9218084717
 10
170.3749980469
 20
8.9218076782
  0
LWPOLYLINE
  5
324
100
AcDbEntity
  8
0
100
AcDbPolyline
 62
2
  6
CONTINUOUS
 90
7
 70
0
 43
0.35
 10
174.2249980469
 20
8.9218076782
 10
175.7128984375
 20
15.9218084717
 10
174.2691484375
 20
15.9218084717
 10
173.5399042969
 20
14.7551411133
 10
173.2919316406
 20
13.5884750977
 10
173.5251875
 20
12.4218077393
 10
174.9689375
 20
12.4218077393
  0
LWPOLYLINE
  5
325
100
AcDbEntity
  8
0
100
AcDbPolyline
 62
2
  6
CONTINUOUS
 90
2
 70
0
 43
0.35
 10
172.2999980469
 20
8.9218076782
 10
174.4876875
 20
12.4218077393
  0
LWPOLYLINE
  5
326
100
AcDbEntity
  8
0
100
AcDbPolyline
 62
2
  6
CONTINUOUS
 90
11
 70
0
 43
0.35
 10
178.6003984375
 20
15.9218084717
 10
178.1191484375
 20
15.9218084717
 10
177.3899042969
 20
14.7551411133
 10
176.8939375
 20
12.4218077393
 10
177.1272148437
 20
11.2551410522
 10
178.0897148437
 20
11.2551410522
 10
178.8189375
 20
12.4218077393
 10
179.3149042969
 20
14.7551411133
 10
179.0816484375
 20
15.9218084717
 10
178.6003984375
 20
15.9218084717
 10
177.1124980469
 20
8.9218076782
  0
LWPOLYLINE
  5
327
100
AcDbEntity
  8
0
100
AcDbPolyline
 62
2
  6
CONTINUOUS
 90
7
 70
0
 43
0.35
 10
183.8499980469
 20
8.9218076782
 10
185.3378984375
 20
15.9218084717
 10
186.7816484375
 20
15.9218084717
 10
187.0149042969
 20
14.7551411133
 10
186.7669316406
 20
13.5884750977
 10
186.0376875
 20
12.4218077393
 10
184.5939375
 20
12.4218077393
  0
LWPOLYLINE
  5
328
100
AcDbEntity
  8
0
100
AcDbPolyline
 62
2
  6
CONTINUOUS
 90
3
 70
0
 43
0.35
 10
187.6999980469
 20
8.9218076782
 10
190.1503984375
 20
15.9218084717
 10
189.6249980469
 20
8.9218076782
  0
LWPOLYLINE
  5
329
100
AcDbEntity
  8
0
100
AcDbPolyline
 62
2
  6
CONTINUOUS
 90
2
 70
0
 43
0.35
 10
188.6772148438
 20
11.2551410522
 10
189.6397148438
 20
11.2551410522
  0
LWPOLYLINE
  5
32A
100
AcDbEntity
  8
0
100
AcDbPolyline
 62
2
  6
CONTINUOUS
 90
2
 70
0
 43
0.35
 10
191.5499980469
 20
8.9218076782
 10
193.0378984375
 20
15.9218084717
  0
LWPOLYLINE
  5
32B
100
AcDbEntity
  8
0
100
AcDbPolyline
 62
2
  6
CONTINUOUS
 90
2
 70
0
 43
0.35
 10
192.2939375
 20
12.4218077393
 10
194.2189375
 20
12.4218077393
  0
LWPOLYLINE
  5
32C
100
AcDbEntity
  8
0
100
AcDbPolyline
 62
2
  6
CONTINUOUS
 90
2
 70
0
 43
0.35
 10
194.9628984375
 20
15.9218084717
 10
193.4749980469
 20
8.9218076782
  0
LWPOLYLINE
  5
32D
100
AcDbEntity
  8
0
100
AcDbPolyline
 62
2
  6
CONTINUOUS
 90
5
 70
0
 43
0.35
 10
24.5986796875
 20
6.3459130249
 10
24.7312490234
 20
5.7875797729
 10
25.2337470703
 20
5.7875797729
 10
25.6036757812
 20
6.3459130249
 10
26.1970634766
 20
9.1375792847
  0
LWPOLYLINE
  5
32E
100
AcDbEntity
  8
0
100
AcDbPolyline
 62
2
  6
CONTINUOUS
 90
4
 70
0
 43
0.35
 10
25.1920673828
 20
9.1375792847
 10
24.9547080078
 20
8.0209127808
 10
25.0872773437
 20
7.4625795288
 10
25.8410351562
 20
7.4625795288
  0
LWPOLYLINE
  5
32F
100
AcDbEntity
  8
0
100
AcDbPolyline
 62
2
  6
CONTINUOUS
 90
2
 70
0
 43
0.35
 10
26.4900029297
 20
5.7875797729
 10
26.9647109375
 20
8.0209127808
  0
LWPOLYLINE
  5
330
100
AcDbEntity
  8
0
100
AcDbPolyline
 62
2
  6
CONTINUOUS
 90
4
 70
0
 43
0.35
 10
26.84603125
 20
7.4625795288
 10
27.2159599609
 20
8.0209127808
 10
27.3485292969
 20
7.4625795288
 10
26.9925009766
 20
5.7875797729
  0
LWPOLYLINE
  5
331
100
AcDbEntity
  8
0
100
AcDbPolyline
 62
2
  6
CONTINUOUS
 90
4
 70
0
 43
0.35
 10
27.3485292969
 20
7.4625795288
 10
27.7184580078
 20
8.0209127808
 10
27.8510273437
 20
7.4625795288
 10
27.4949990234
 20
5.7875797729
  0
LWPOLYLINE
  5
332
100
AcDbEntity
  8
0
100
AcDbPolyline
 62
2
  6
CONTINUOUS
 90
12
 70
0
 43
0.35
 10
28.8560341797
 20
7.4625795288
 10
29.5958916016
 20
8.5792460327
 10
29.7145605469
 20
9.1375792847
 10
29.4633115234
 20
9.1375792847
 10
29.0933828125
 20
8.5792460327
 10
28.6186748047
 20
6.3459130249
 10
28.7512548828
 20
5.7875797729
 10
29.2537529297
 20
5.7875797729
 10
29.6236816406
 20
6.3459130249
 10
29.8610302734
 20
7.4625795288
 10
29.7284609375
 20
8.0209127808
 10
29.2259628906
 20
8.0209127808
  0
LWPOLYLINE
  5
333
100
AcDbEntity
  8
0
100
AcDbPolyline
 62
2
  6
CONTINUOUS
 90
5
 70
0
 43
0.35
 10
30.6356279297
 20
5.7875797729
 10
30.5099980469
 20
5.7875797729
 10
30.5693378906
 20
6.0667463989
 10
30.6949677734
 20
6.0667463989
 10
30.6356279297
 20
5.7875797729
  0
LWPOLYLINE
  5
334
100
AcDbEntity
  8
0
100
AcDbPolyline
 62
2
  6
CONTINUOUS
 90
2
 70
0
 43
0.35
 10
20.4600048828
 20
10.7875792847
 10
21.1720615234
 20
14.1375794678
  0
LWPOLYLINE
  5
335
100
AcDbEntity
  8
0
100
AcDbPolyline
 62
2
  6
CONTINUOUS
 90
2
 70
0
 43
0.35
 10
20.8160332031
 20
12.4625797119
 10
21.8210292969
 20
12.4625797119
  0
LWPOLYLINE
  5
336
100
AcDbEntity
  8
0
100
AcDbPolyline
 62
2
  6
CONTINUOUS
 90
2
 70
0
 43
0.35
 10
22.1770683594
 20
14.1375794678
 10
21.4650009766
 20
10.7875792847
  0
LWPOLYLINE
  5
337
100
AcDbEntity
  8
0
100
AcDbPolyline
 62
2
  6
CONTINUOUS
 90
5
 70
0
 43
0.35
 10
22.5956269531
 20
10.7875792847
 10
22.4699970703
 20
10.7875792847
 10
22.5293369141
 20
11.0667459106
 10
22.6549667969
 20
11.0667459106
 10
22.5956269531
 20
10.7875792847
  0
LWPOLYLINE
  5
338
100
AcDbEntity
  8
0
100
AcDbPolyline
 62
2
  6
CONTINUOUS
 90
2
 70
0
 43
0.35
 10
24.9547080078
 20
13.0209129639
 10
24.48
 20
10.7875792847
  0
LWPOLYLINE
  5
339
100
AcDbEntity
  8
0
100
AcDbPolyline
 62
2
  6
CONTINUOUS
 90
2
 70
0
 43
0.35
 10
24.5986796875
 20
11.345913208
 10
25.9597148437
 20
13.0209129639
  0
LWPOLYLINE
  5
33A
100
AcDbEntity
  8
0
100
AcDbPolyline
 62
2
  6
CONTINUOUS
 90
2
 70
0
 43
0.35
 10
25.0942275391
 20
11.90424646
 10
25.4849960937
 20
10.7875792847
  0
LWPOLYLINE
  5
33B
100
AcDbEntity
  8
0
100
AcDbPolyline
 62
2
  6
CONTINUOUS
 90
9
 70
0
 43
0.35
 10
26.6086826172
 20
11.345913208
 10
26.7412519531
 20
10.7875792847
 10
27.24375
 20
10.7875792847
 10
27.6136787109
 20
11.345913208
 10
27.8510273437
 20
12.4625797119
 10
27.7184580078
 20
13.0209129639
 10
27.2159599609
 20
13.0209129639
 10
26.84603125
 20
12.4625797119
 10
26.6086826172
 20
11.345913208
  0
LWPOLYLINE
  5
33C
100
AcDbEntity
  8
0
100
AcDbPolyline
 62
2
  6
CONTINUOUS
 90
2
 70
0
 43
0.35
 10
28.4999951172
 20
10.7875792847
 10
28.9747138672
 20
13.0209129639
  0
LWPOLYLINE
  5
33D
100
AcDbEntity
  8
0
100
AcDbPolyline
 62
2
  6
CONTINUOUS
 90
2
 70
0
 43
0.35
 10
28.7373544922
 20
11.90424646
 10
29.7423505859
 20
11.90424646
  0
LWPOLYLINE
  5
33E
100
AcDbEntity
  8
0
100
AcDbPolyline
 62
2
  6
CONTINUOUS
 90
2
 70
0
 43
0.35
 10
29.9797099609
 20
13.0209129639
 10
29.5050019531
 20
10.7875792847
  0
LWPOLYLINE
  5
33F
100
AcDbEntity
  8
0
100
AcDbPolyline
 62
2
  6
CONTINUOUS
 90
2
 70
0
 43
0.35
 10
30.5099980469
 20
10.7875792847
 10
30.9847060547
 20
13.0209129639
  0
LWPOLYLINE
  5
340
100
AcDbEntity
  8
0
100
AcDbPolyline
 62
2
  6
CONTINUOUS
 90
4
 70
0
 43
0.35
 10
30.8660371094
 20
12.4625797119
 10
31.2359550781
 20
13.0209129639
 10
31.3685351562
 20
12.4625797119
 10
31.0124960937
 20
10.7875792847
  0
LWPOLYLINE
  5
341
100
AcDbEntity
  8
0
100
AcDbPolyline
 62
2
  6
CONTINUOUS
 90
4
 70
0
 43
0.35
 10
31.3685351562
 20
12.4625797119
 10
31.7384638672
 20
13.0209129639
 10
31.8710332031
 20
12.4625797119
 10
31.5150048828
 20
10.7875792847
  0
LWPOLYLINE
  5
342
100
AcDbEntity
  8
0
100
AcDbPolyline
 62
2
  6
CONTINUOUS
 90
2
 70
0
 43
0.35
 10
32.2826416016
 20
9.6709127808
 10
32.9947089844
 20
13.0209129639
  0
LWPOLYLINE
  5
343
100
AcDbEntity
  8
0
100
AcDbPolyline
 62
2
  6
CONTINUOUS
 90
7
 70
0
 43
0.35
 10
32.5200009766
 20
10.7875792847
 10
33.2737480469
 20
10.7875792847
 10
33.6436767578
 20
11.345913208
 10
33.8810361328
 20
12.4625797119
 10
33.7484560547
 20
13.0209129639
 10
33.2459580078
 20
13.0209129639
 10
32.8760292969
 20
12.4625797119
  0
LWPOLYLINE
  5
344
100
AcDbEntity
  8
0
100
AcDbPolyline
 62
2
  6
CONTINUOUS
 90
5
 70
0
 43
0.35
 10
34.6556230469
 20
10.7875792847
 10
34.5300039062
 20
10.7875792847
 10
34.58934375
 20
11.0667459106
 10
34.7149628906
 20
11.0667459106
 10
34.6556230469
 20
10.7875792847
  0
LWPOLYLINE
  5
345
100
AcDbEntity
  8
0
100
AcDbPolyline
 62
2
  6
CONTINUOUS
 90
3
 70
0
 43
0.35
 10
181.9599960937
 20
20.7875789795
 10
183.1745722656
 20
24.137579834
 10
182.9649921875
 20
20.7875789795
  0
LWPOLYLINE
  5
346
100
AcDbEntity
  8
0
100
AcDbPolyline
 62
2
  6
CONTINUOUS
 90
5
 70
0
 43
0.35
 10
184.4447070313
 20
23.0209133301
 10
184.0886679688
 20
21.3459122314
 10
184.2212480469
 20
20.7875789795
 10
184.4725078125
 20
20.7875789795
 10
185.2123652344
 20
21.9042468262
  0
LWPOLYLINE
  5
347
100
AcDbEntity
  8
0
100
AcDbPolyline
 62
2
  6
CONTINUOUS
 90
2
 70
0
 43
0.35
 10
185.449703125
 20
23.0209133301
 10
184.9750058594
 20
20.7875789795
  0
LWPOLYLINE
  5
348
100
AcDbEntity
  8
0
100
AcDbPolyline
 62
2
  6
CONTINUOUS
 90
8
 70
0
 43
0.35
 10
187.3410371094
 20
22.4625800781
 10
187.2084570312
 20
23.0209133301
 10
186.7059589844
 20
23.0209133301
 10
186.3360410156
 20
22.4625800781
 10
186.0986816406
 20
21.3459122314
 10
186.2312402344
 20
20.7875789795
 10
186.7337597656
 20
20.7875789795
 10
187.1036777344
 20
21.3459122314
  0
LWPOLYLINE
  5
349
100
AcDbEntity
  8
0
100
AcDbPolyline
 62
2
  6
CONTINUOUS
 90
2
 70
0
 43
0.35
 10
187.9899941406
 20
20.7875789795
 10
188.4647128906
 20
23.0209133301
  0
LWPOLYLINE
  5
34A
100
AcDbEntity
  8
0
100
AcDbPolyline
 62
2
  6
CONTINUOUS
 90
4
 70
0
 43
0.35
 10
188.3460332031
 20
22.4625800781
 10
188.7159511719
 20
23.0209133301
 10
188.84853125
 20
22.4625800781
 10
188.4924921875
 20
20.7875789795
  0
LWPOLYLINE
  5
34B
100
AcDbEntity
  8
0
100
AcDbPolyline
 62
2
  6
CONTINUOUS
 90
4
 70
0
 43
0.35
 10
188.84853125
 20
22.4625800781
 10
189.2184492188
 20
23.0209133301
 10
189.3510292969
 20
22.4625800781
 10
188.9949902344
 20
20.7875789795
  0
LWPOLYLINE
  5
34C
100
AcDbEntity
  8
0
100
AcDbPolyline
 62
2
  6
CONTINUOUS
 90
9
 70
0
 43
0.35
 10
190.1186875
 20
21.3459122314
 10
190.2512460937
 20
20.7875789795
 10
190.7537441406
 20
20.7875789795
 10
191.1236835937
 20
21.3459122314
 10
191.3610429688
 20
22.4625800781
 10
191.2284628906
 20
23.0209133301
 10
190.7259648438
 20
23.0209133301
 10
190.3560253906
 20
22.4625800781
 10
190.1186875
 20
21.3459122314
  0
LWPOLYLINE
  5
34D
100
AcDbEntity
  8
0
100
AcDbPolyline
 62
2
  6
CONTINUOUS
 90
12
 70
0
 43
0.35
 10
192.3660390625
 20
22.4625800781
 10
193.1058964844
 20
23.579246582
 10
193.2245546875
 20
24.137579834
 10
192.9733164063
 20
24.137579834
 10
192.6033769531
 20
23.579246582
 10
192.1286796875
 20
21.3459122314
 10
192.2612597656
 20
20.7875789795
 10
192.7637578125
 20
20.7875789795
 10
193.1336757812
 20
21.3459122314
 10
193.3710351562
 20
22.4625800781
 10
193.2384550781
 20
23.0209133301
 10
192.7359570313
 20
23.0209133301
  0
LWPOLYLINE
  5
34E
100
AcDbEntity
  8
0
100
AcDbPolyline
 62
2
  6
CONTINUOUS
 90
3
 70
0
 43
0.35
 10
197.1328417969
 20
23.0209133301
 10
197.6214394531
 20
24.137579834
 10
196.9093828125
 20
20.7875789795
  0
LWPOLYLINE
  5
34F
100
AcDbEntity
  8
0
100
AcDbPolyline
 62
2
  6
CONTINUOUS
 90
2
 70
0
 43
0.35
 10
196.6581230469
 20
20.7875789795
 10
197.1606210938
 20
20.7875789795
  0
LWPOLYLINE
  5
350
100
AcDbEntity
  8
0
100
AcDbPolyline
 62
2
  6
CONTINUOUS
 90
3
 70
0
 43
0.35
 10
160.9800097656
 20
20.7875789795
 10
162.1945644531
 20
24.137579834
 10
161.9850058594
 20
20.7875789795
  0
LWPOLYLINE
  5
351
100
AcDbEntity
  8
0
100
AcDbPolyline
 62
2
  6
CONTINUOUS
 90
5
 70
0
 43
0.35
 10
163.4646992187
 20
23.0209133301
 10
163.1086816406
 20
21.3459122314
 10
163.2412402344
 20
20.7875789795
 10
163.4925
 20
20.7875789795
 10
164.2323574219
 20
21.9042468262
  0
LWPOLYLINE
  5
352
100
AcDbEntity
  8
0
100
AcDbPolyline
 62
2
  6
CONTINUOUS
 90
2
 70
0
 43
0.35
 10
164.4697167969
 20
23.0209133301
 10
163.9949980469
 20
20.7875789795
  0
LWPOLYLINE
  5
353
100
AcDbEntity
  8
0
100
AcDbPolyline
 62
2
  6
CONTINUOUS
 90
8
 70
0
 43
0.35
 10
166.3610292969
 20
22.4625800781
 10
166.2284492188
 20
23.0209133301
 10
165.7259511719
 20
23.0209133301
 10
165.3560332031
 20
22.4625800781
 10
165.1186738281
 20
21.3459122314
 10
165.2512539062
 20
20.7875789795
 10
165.7537519531
 20
20.7875789795
 10
166.1236699219
 20
21.3459122314
  0
LWPOLYLINE
  5
354
100
AcDbEntity
  8
0
100
AcDbPolyline
 62
2
  6
CONTINUOUS
 90
2
 70
0
 43
0.35
 10
167.0100078125
 20
20.7875789795
 10
167.4847050781
 20
23.0209133301
  0
LWPOLYLINE
  5
355
100
AcDbEntity
  8
0
100
AcDbPolyline
 62
2
  6
CONTINUOUS
 90
4
 70
0
 43
0.35
 10
167.3660253906
 20
22.4625800781
 10
167.7359648438
 20
23.0209133301
 10
167.8685234375
 20
22.4625800781
 10
167.5125058594
 20
20.7875789795
  0
LWPOLYLINE
  5
356
100
AcDbEntity
  8
0
100
AcDbPolyline
 62
2
  6
CONTINUOUS
 90
4
 70
0
 43
0.35
 10
167.8685234375
 20
22.4625800781
 10
168.2384628906
 20
23.0209133301
 10
168.3710429688
 20
22.4625800781
 10
168.0150039063
 20
20.7875789795
  0
LWPOLYLINE
  5
357
100
AcDbEntity
  8
0
100
AcDbPolyline
 62
2
  6
CONTINUOUS
 90
4
 70
0
 43
0.35
 10
111.0000058594
 20
29.4329787598
 10
112.2753398438
 20
35.432979248
 10
114.07534375
 20
35.432979248
 10
112.8000097656
 20
29.4329787598
  0
LWPOLYLINE
  5
358
100
AcDbEntity
  8
0
100
AcDbPolyline
 62
2
  6
CONTINUOUS
 90
3
 70
0
 43
0.35
 10
114.5999921875
 20
29.4329787598
 10
116.3502167969
 20
33.4329772949
 10
116.3999960937
 20
29.4329787598
  0
LWPOLYLINE
  5
359
100
AcDbEntity
  8
0
100
AcDbPolyline
 62
2
  6
CONTINUOUS
 90
5
 70
0
 43
0.35
 10
119.0502226562
 20
33.4329772949
 10
118.4125664062
 20
30.4329770508
 10
118.6499902344
 20
29.4329787598
 10
119.1000019531
 20
29.4329787598
 10
120.4251152344
 20
31.4329780273
  0
LWPOLYLINE
  5
35A
100
AcDbEntity
  8
0
100
AcDbPolyline
 62
2
  6
CONTINUOUS
 90
2
 70
0
 43
0.35
 10
120.8502265625
 20
33.4329772949
 10
120.0000039062
 20
29.4329787598
  0
LWPOLYLINE
  5
35B
100
AcDbEntity
  8
0
100
AcDbPolyline
 62
2
  6
CONTINUOUS
 90
2
 70
0
 43
0.35
 10
121.8000078125
 20
29.4329787598
 10
122.6502304687
 20
33.4329772949
  0
LWPOLYLINE
  5
35C
100
AcDbEntity
  8
0
100
AcDbPolyline
 62
2
  6
CONTINUOUS
 90
4
 70
0
 43
0.35
 10
122.4376640625
 20
32.4329790039
 10
123.1002207031
 20
33.4329772949
 10
123.3376660156
 20
32.4329790039
 10
122.7000097656
 20
29.4329787598
  0
LWPOLYLINE
  5
35D
100
AcDbEntity
  8
0
100
AcDbPolyline
 62
2
  6
CONTINUOUS
 90
4
 70
0
 43
0.35
 10
123.3376660156
 20
32.4329790039
 10
124.0002226563
 20
33.4329772949
 10
124.2376679688
 20
32.4329790039
 10
123.5999902344
 20
29.4329787598
  0
LWPOLYLINE
  5
35E
100
AcDbEntity
  8
0
100
AcDbPolyline
 62
2
  6
CONTINUOUS
 90
8
 70
0
 43
0.35
 10
127.8376757813
 20
32.4329790039
 10
127.6002304688
 20
33.4329772949
 10
126.7002285156
 20
33.4329772949
 10
126.037671875
 20
32.4329790039
 10
125.6125605469
 20
30.4329770508
 10
125.8500058594
 20
29.4329787598
 10
126.7500078125
 20
29.4329787598
 10
127.4125644531
 20
30.4329770508
  0
LWPOLYLINE
  5
35F
100
AcDbEntity
  8
0
100
AcDbPolyline
 62
2
  6
CONTINUOUS
 90
3
 70
0
 43
0.35
 10
128.0502207031
 20
33.4329772949
 10
127.4125644531
 20
30.4329770508
 10
127.4250039063
 20
29.4329787598
  0
LWPOLYLINE
  5
360
100
AcDbEntity
  8
0
100
AcDbPolyline
 62
2
  6
CONTINUOUS
 90
2
 70
0
 43
0.35
 10
21.1720615234
 20
24.137579834
 10
22.1770683594
 20
24.137579834
  0
LWPOLYLINE
  5
361
100
AcDbEntity
  8
0
100
AcDbPolyline
 62
2
  6
CONTINUOUS
 90
2
 70
0
 43
0.35
 10
21.6745595703
 20
24.137579834
 10
20.9625029297
 20
20.7875789795
  0
LWPOLYLINE
  5
362
100
AcDbEntity
  8
0
100
AcDbPolyline
 62
2
  6
CONTINUOUS
 90
5
 70
0
 43
0.35
 10
22.5956269531
 20
20.7875789795
 10
22.4699970703
 20
20.7875789795
 10
22.5293369141
 20
21.0667456055
 10
22.6549667969
 20
21.0667456055
 10
22.5956269531
 20
20.7875789795
  0
LWPOLYLINE
  5
363
100
AcDbEntity
  8
0
100
AcDbPolyline
 62
2
  6
CONTINUOUS
 90
2
 70
0
 43
0.35
 10
24.9547080078
 20
23.0209133301
 10
24.48
 20
20.7875789795
  0
LWPOLYLINE
  5
364
100
AcDbEntity
  8
0
100
AcDbPolyline
 62
2
  6
CONTINUOUS
 90
2
 70
0
 43
0.35
 10
24.5986796875
 20
21.3459122314
 10
25.9597148437
 20
23.0209133301
  0
LWPOLYLINE
  5
365
100
AcDbEntity
  8
0
100
AcDbPolyline
 62
2
  6
CONTINUOUS
 90
2
 70
0
 43
0.35
 10
25.0942275391
 20
21.9042468262
 10
25.4849960937
 20
20.7875789795
  0
LWPOLYLINE
  5
366
100
AcDbEntity
  8
0
100
AcDbPolyline
 62
2
  6
CONTINUOUS
 90
9
 70
0
 43
0.35
 10
26.6086826172
 20
21.3459122314
 10
26.7412519531
 20
20.7875789795
 10
27.24375
 20
20.7875789795
 10
27.6136787109
 20
21.3459122314
 10
27.8510273437
 20
22.4625800781
 10
27.7184580078
 20
23.0209133301
 10
27.2159599609
 20
23.0209133301
 10
26.84603125
 20
22.4625800781
 10
26.6086826172
 20
21.3459122314
  0
LWPOLYLINE
  5
367
100
AcDbEntity
  8
0
100
AcDbPolyline
 62
2
  6
CONTINUOUS
 90
2
 70
0
 43
0.35
 10
28.4999951172
 20
20.7875789795
 10
28.9747138672
 20
23.0209133301
  0
LWPOLYLINE
  5
368
100
AcDbEntity
  8
0
100
AcDbPolyline
 62
2
  6
CONTINUOUS
 90
2
 70
0
 43
0.35
 10
28.7373544922
 20
21.9042468262
 10
29.7423505859
 20
21.9042468262
  0
LWPOLYLINE
  5
369
100
AcDbEntity
  8
0
100
AcDbPolyline
 62
2
  6
CONTINUOUS
 90
2
 70
0
 43
0.35
 10
29.9797099609
 20
23.0209133301
 10
29.5050019531
 20
20.7875789795
  0
LWPOLYLINE
  5
36A
100
AcDbEntity
  8
0
100
AcDbPolyline
 62
2
  6
CONTINUOUS
 90
2
 70
0
 43
0.35
 10
30.5099980469
 20
20.7875789795
 10
30.9847060547
 20
23.0209133301
  0
LWPOLYLINE
  5
36B
100
AcDbEntity
  8
0
100
AcDbPolyline
 62
2
  6
CONTINUOUS
 90
4
 70
0
 43
0.35
 10
30.8660371094
 20
22.4625800781
 10
31.2359550781
 20
23.0209133301
 10
31.3685351562
 20
22.4625800781
 10
31.0124960937
 20
20.7875789795
  0
LWPOLYLINE
  5
36C
100
AcDbEntity
  8
0
100
AcDbPolyline
 62
2
  6
CONTINUOUS
 90
4
 70
0
 43
0.35
 10
31.3685351562
 20
22.4625800781
 10
31.7384638672
 20
23.0209133301
 10
31.8710332031
 20
22.4625800781
 10
31.5150048828
 20
20.7875789795
  0
LWPOLYLINE
  5
36D
100
AcDbEntity
  8
0
100
AcDbPolyline
 62
2
  6
CONTINUOUS
 90
2
 70
0
 43
0.35
 10
32.2826416016
 20
19.6709124756
 10
32.9947089844
 20
23.0209133301
  0
LWPOLYLINE
  5
36E
100
AcDbEntity
  8
0
100
AcDbPolyline
 62
2
  6
CONTINUOUS
 90
7
 70
0
 43
0.35
 10
32.5200009766
 20
20.7875789795
 10
33.2737480469
 20
20.7875789795
 10
33.6436767578
 20
21.3459122314
 10
33.8810361328
 20
22.4625800781
 10
33.7484560547
 20
23.0209133301
 10
33.2459580078
 20
23.0209133301
 10
32.8760292969
 20
22.4625800781
  0
LWPOLYLINE
  5
36F
100
AcDbEntity
  8
0
100
AcDbPolyline
 62
2
  6
CONTINUOUS
 90
5
 70
0
 43
0.35
 10
34.6556230469
 20
20.7875789795
 10
34.5300039062
 20
20.7875789795
 10
34.58934375
 20
21.0667456055
 10
34.7149628906
 20
21.0667456055
 10
34.6556230469
 20
20.7875789795
  0
LWPOLYLINE
  5
370
100
AcDbEntity
  8
0
100
AcDbPolyline
 62
2
  6
CONTINUOUS
 90
3
 70
0
 43
0.35
 10
192.0044355469
 20
33.5884758301
 10
193.0253945312
 20
35.9218078613
 10
191.5374941406
 20
28.921809082
  0
LWPOLYLINE
  5
371
100
AcDbEntity
  8
0
100
AcDbPolyline
 62
2
  6
CONTINUOUS
 90
2
 70
0
 43
0.35
 10
191.0125019531
 20
28.921809082
 10
192.0625078125
 20
28.921809082
  0
LWPOLYLINE
  5
372
100
AcDbEntity
  8
0
100
AcDbPolyline
 62
2
  6
CONTINUOUS
 90
5
 70
0
 43
0.35
 10
195.0304453125
 20
33.0051401367
 10
194.7679492187
 20
33.0051401367
 10
194.8919355469
 20
33.5884758301
 10
195.1544316406
 20
33.5884758301
 10
195.0304453125
 20
33.0051401367
  0
LWPOLYLINE
  5
373
100
AcDbEntity
  8
0
100
AcDbPolyline
 62
2
  6
CONTINUOUS
 90
5
 70
0
 43
0.35
 10
194.1624980469
 20
28.921809082
 10
193.9000019531
 20
28.921809082
 10
194.0239882812
 20
29.5051420898
 10
194.286484375
 20
29.5051420898
 10
194.1624980469
 20
28.921809082
  0
LWPOLYLINE
  5
374
100
AcDbEntity
  8
0
100
AcDbPolyline
 62
2
  6
CONTINUOUS
 90
9
 70
0
 43
0.35
 10
198.3479765625
 20
30.0884750977
 10
198.6249960938
 20
28.921809082
 10
199.6750019531
 20
28.921809082
 10
200.4479882813
 20
30.0884750977
 10
200.9439550781
 20
32.4218071289
 10
200.6669355469
 20
33.5884758301
 10
199.0919375
 20
33.5884758301
 10
199.5879042969
 20
35.9218078613
 10
201.6878945313
 20
35.9218078613
  0
LWPOLYLINE
  5
375
100
AcDbEntity
  8
0
100
AcDbPolyline
 62
2
  6
CONTINUOUS
 90
3
 70
0
 43
0.35
 10
173.7397734375
 20
33.2774814453
 10
174.4065410156
 20
34.9441479492
 10
173.3437519531
 20
29.9441484375
  0
LWPOLYLINE
  5
376
100
AcDbEntity
  8
0
100
AcDbPolyline
 62
2
  6
CONTINUOUS
 90
2
 70
0
 43
0.35
 10
173.0312402344
 20
29.9441484375
 10
173.6562421875
 20
29.9441484375
  0
LWPOLYLINE
  5
377
100
AcDbEntity
  8
0
100
AcDbPolyline
 62
2
  6
CONTINUOUS
 90
9
 70
0
 43
0.35
 10
175.0625019531
 20
29.9441484375
 10
174.9271289063
 20
30.7774816895
 10
175.6356621094
 20
34.1108146973
 10
176.1252910156
 20
34.9441479492
 10
176.7502929687
 20
34.9441479492
 10
176.8856445312
 20
34.1108146973
 10
176.1771328125
 20
30.7774816895
 10
175.6875039062
 20
29.9441484375
 10
175.0625019531
 20
29.9441484375
  0
LWPOLYLINE
  5
378
100
AcDbEntity
  8
0
100
AcDbPolyline
 62
2
  6
CONTINUOUS
 90
5
 70
0
 43
0.35
 10
177.4062539062
 20
29.9441484375
 10
177.2499980469
 20
29.9441484375
 10
177.3385566406
 20
30.3608164063
 10
177.4948125
 20
30.3608164063
 10
177.4062539062
 20
29.9441484375
  0
LWPOLYLINE
  5
379
100
AcDbEntity
  8
0
100
AcDbPolyline
 62
2
  6
CONTINUOUS
 90
3
 70
0
 43
0.35
 10
181.2397753906
 20
33.2774814453
 10
181.9065429687
 20
34.9441479492
 10
180.8437539062
 20
29.9441484375
  0
LWPOLYLINE
  5
37A
100
AcDbEntity
  8
0
100
AcDbPolyline
 62
2
  6
CONTINUOUS
 90
2
 70
0
 43
0.35
 10
180.5312421875
 20
29.9441484375
 10
181.1562441406
 20
29.9441484375
  0
LWPOLYLINE
  5
37B
100
AcDbEntity
  8
0
100
AcDbPolyline
 62
2
  6
CONTINUOUS
 90
4
 70
0
 43
0.35
 10
182.5625039062
 20
29.9441484375
 10
184.5627851562
 20
34.9441479492
 10
183.31278125
 20
34.9441479492
 10
183.1356425781
 20
34.1108146973
  0
LWPOLYLINE
  5
37C
100
AcDbEntity
  8
0
100
AcDbPolyline
 62
2
  6
CONTINUOUS
 90
6
 70
0
 43
0.35
 10
42.4699951172
 20
25.787579834
 10
43.2237529297
 20
25.787579834
 10
43.5936816406
 20
26.3459130859
 10
43.7123505859
 20
26.9042463379
 10
43.57978125
 20
27.4625795898
 10
42.8260341797
 20
27.4625795898
  0
LWPOLYLINE
  5
37D
100
AcDbEntity
  8
0
100
AcDbPolyline
 62
2
  6
CONTINUOUS
 90
3
 70
0
 43
0.35
 10
42.4699951172
 20
25.787579834
 10
43.1820625
 20
29.1375793457
 10
43.9358095703
 20
29.1375793457
  0
LWPOLYLINE
  5
37E
100
AcDbEntity
  8
0
100
AcDbPolyline
 62
2
  6
CONTINUOUS
 90
2
 70
0
 43
0.35
 10
44.9547060547
 20
28.0209128418
 10
44.9824960937
 20
25.787579834
  0
LWPOLYLINE
  5
37F
100
AcDbEntity
  8
0
100
AcDbPolyline
 62
2
  6
CONTINUOUS
 90
3
 70
0
 43
0.35
 10
44.2426494141
 20
24.6709133301
 10
44.4938984375
 20
24.6709133301
 10
45.9597128906
 20
28.0209128418
  0
LWPOLYLINE
  5
380
100
AcDbEntity
  8
0
100
AcDbPolyline
 62
2
  6
CONTINUOUS
 90
3
 70
0
 43
0.35
 10
46.4900009766
 20
25.787579834
 10
47.4672070312
 20
28.0209128418
 10
47.4949970703
 20
25.787579834
  0
LWPOLYLINE
  5
381
100
AcDbEntity
  8
0
100
AcDbPolyline
 62
2
  6
CONTINUOUS
 90
2
 70
0
 43
0.35
 10
48.9747119141
 20
28.0209128418
 10
48.5000039062
 20
25.787579834
  0
LWPOLYLINE
  5
382
100
AcDbEntity
  8
0
100
AcDbPolyline
 62
2
  6
CONTINUOUS
 90
2
 70
0
 43
0.35
 10
48.6186728516
 20
26.3459130859
 10
49.9797080078
 20
28.0209128418
  0
LWPOLYLINE
  5
383
100
AcDbEntity
  8
0
100
AcDbPolyline
 62
2
  6
CONTINUOUS
 90
2
 70
0
 43
0.35
 10
49.1142314453
 20
26.9042463379
 10
49.505
 20
25.787579834
  0
LWPOLYLINE
  5
384
100
AcDbEntity
  8
0
100
AcDbPolyline
 62
2
  6
CONTINUOUS
 90
5
 70
0
 43
0.35
 10
50.9847148437
 20
28.0209128418
 10
50.6286757812
 20
26.3459130859
 10
50.7612451172
 20
25.787579834
 10
51.0125048828
 20
25.787579834
 10
51.7523515625
 20
26.9042463379
  0
LWPOLYLINE
  5
385
100
AcDbEntity
  8
0
100
AcDbPolyline
 62
2
  6
CONTINUOUS
 90
2
 70
0
 43
0.35
 10
51.9897109375
 20
28.0209128418
 10
51.5150029297
 20
25.787579834
  0
LWPOLYLINE
  5
386
100
AcDbEntity
  8
0
100
AcDbPolyline
 62
2
  6
CONTINUOUS
 90
2
 70
0
 43
0.35
 10
52.5199990234
 20
25.787579834
 10
52.9947070312
 20
28.0209128418
  0
LWPOLYLINE
  5
387
100
AcDbEntity
  8
0
100
AcDbPolyline
 62
2
  6
CONTINUOUS
 90
2
 70
0
 43
0.35
 10
52.7573583984
 20
26.9042463379
 10
53.7623544922
 20
26.9042463379
  0
LWPOLYLINE
  5
388
100
AcDbEntity
  8
0
100
AcDbPolyline
 62
2
  6
CONTINUOUS
 90
2
 70
0
 43
0.35
 10
53.9997138672
 20
28.0209128418
 10
53.5249951172
 20
25.787579834
  0
LWPOLYLINE
  5
389
100
AcDbEntity
  8
0
100
AcDbPolyline
 62
2
  6
CONTINUOUS
 90
4
 70
0
 43
0.35
 10
23.4750039062
 20
25.787579834
 10
24.1870605469
 20
29.1375793457
 10
25.1920673828
 20
29.1375793457
 10
24.48
 20
25.787579834
  0
LWPOLYLINE
  5
38A
100
AcDbEntity
  8
0
100
AcDbPolyline
 62
2
  6
CONTINUOUS
 90
2
 70
0
 43
0.35
 10
25.2476474609
 20
24.6709133301
 10
25.9597148437
 20
28.0209128418
  0
LWPOLYLINE
  5
38B
100
AcDbEntity
  8
0
100
AcDbPolyline
 62
2
  6
CONTINUOUS
 90
7
 70
0
 43
0.35
 10
25.4849960937
 20
25.787579834
 10
26.2387539062
 20
25.787579834
 10
26.6086826172
 20
26.3459130859
 10
26.84603125
 20
27.4625795898
 10
26.7134619141
 20
28.0209128418
 10
26.2109638672
 20
28.0209128418
 10
25.8410351562
 20
27.4625795898
  0
LWPOLYLINE
  5
38C
100
AcDbEntity
  8
0
100
AcDbPolyline
 62
2
  6
CONTINUOUS
 90
9
 70
0
 43
0.35
 10
27.6136787109
 20
26.3459130859
 10
27.7462480469
 20
25.787579834
 10
28.2487460937
 20
25.787579834
 10
28.6186748047
 20
26.3459130859
 10
28.8560341797
 20
27.4625795898
 10
28.7234648437
 20
28.0209128418
 10
28.2209560547
 20
28.0209128418
 10
27.8510273437
 20
27.4625795898
 10
27.6136787109
 20
26.3459130859
  0
LWPOLYLINE
  5
38D
100
AcDbEntity
  8
0
100
AcDbPolyline
 62
2
  6
CONTINUOUS
 90
12
 70
0
 43
0.35
 10
29.8610302734
 20
27.4625795898
 10
30.6008876953
 20
28.5792460938
 10
30.7195673828
 20
29.1375793457
 10
30.4683183594
 20
29.1375793457
 10
30.0983896484
 20
28.5792460938
 10
29.6236816406
 20
26.3459130859
 10
29.7562509766
 20
25.787579834
 10
30.2587490234
 20
25.787579834
 10
30.6286777344
 20
26.3459130859
 10
30.8660371094
 20
27.4625795898
 10
30.7334570312
 20
28.0209128418
 10
30.2309589844
 20
28.0209128418
  0
LWPOLYLINE
  5
38E
100
AcDbEntity
  8
0
100
AcDbPolyline
 62
2
  6
CONTINUOUS
 90
5
 70
0
 43
0.35
 10
31.6406240234
 20
25.787579834
 10
31.5150048828
 20
25.787579834
 10
31.5743339844
 20
26.0667451172
 10
31.6999638672
 20
26.0667451172
 10
31.6406240234
 20
25.787579834
  0
LWPOLYLINE
  5
38F
100
AcDbEntity
  8
0
100
AcDbPolyline
 62
2
  6
CONTINUOUS
 90
9
 70
0
 43
0.35
 10
74.8812480469
 20
31.1709572754
 10
74.8271074219
 20
31.604291748
 10
75.1955429687
 20
33.3376242676
 10
75.4339013672
 20
33.7709560547
 10
75.7264003906
 20
33.7709560547
 10
75.7805410156
 20
33.3376242676
 10
75.4121054687
 20
31.604291748
 10
75.1737470703
 20
31.1709572754
 10
74.8812480469
 20
31.1709572754
  0
LWPOLYLINE
  5
390
100
AcDbEntity
  8
0
100
AcDbPolyline
 62
2
  6
CONTINUOUS
 90
4
 70
0
 43
0.35
 10
76.0512548828
 20
31.1709572754
 10
77.0426513672
 20
33.7709560547
 10
76.4576425781
 20
33.7709560547
 10
76.3655390625
 20
33.3376242676
  0
LWPOLYLINE
  5
391
100
AcDbEntity
  8
0
100
AcDbPolyline
 62
2
  6
CONTINUOUS
 90
2
 70
0
 43
0.35
 10
77.6438271484
 20
32.4709580078
 10
78.2288251953
 20
32.4709580078
  0
LWPOLYLINE
  5
392
100
AcDbEntity
  8
0
100
AcDbPolyline
 62
2
  6
CONTINUOUS
 90
3
 70
0
 43
0.35
 10
78.2450029297
 20
31.1709572754
 10
78.7976455078
 20
33.7709560547
 10
79.3826435547
 20
33.7709560547
  0
LWPOLYLINE
  5
393
100
AcDbEntity
  8
0
100
AcDbPolyline
 62
2
  6
CONTINUOUS
 90
2
 70
0
 43
0.35
 10
78.5213242187
 20
32.4709580078
 10
78.8138232422
 20
32.4709580078
  0
LWPOLYLINE
  5
394
100
AcDbEntity
  8
0
100
AcDbPolyline
 62
2
  6
CONTINUOUS
 90
10
 70
0
 43
0.35
 10
79.5992167969
 20
32.0376235352
 10
80.0379707031
 20
32.0376235352
 10
80.2763183594
 20
32.4709580078
 10
80.2221777344
 20
32.9042897949
 10
79.9296787109
 20
32.9042897949
 10
79.6913203125
 20
32.4709580078
 10
79.5071025391
 20
31.604291748
 10
79.5612539062
 20
31.1709572754
 10
79.8537529297
 20
31.1709572754
 10
80.0921113281
 20
31.604291748
  0
LWPOLYLINE
  5
395
100
AcDbEntity
  8
0
100
AcDbPolyline
 62
2
  6
CONTINUOUS
 90
3
 70
0
 43
0.35
 10
80.5849951172
 20
31.1709572754
 10
80.7502314453
 20
31.604291748
 10
81.2107705078
 20
33.7709560547
  0
LWPOLYLINE
  5
396
100
AcDbEntity
  8
0
100
AcDbPolyline
 62
2
  6
CONTINUOUS
 90
8
 70
0
 43
0.35
 10
80.7502314453
 20
31.604291748
 10
80.8043720703
 20
31.1709572754
 10
81.0968710937
 20
31.1709572754
 10
81.3352294922
 20
31.604291748
 10
81.5194472656
 20
32.4709580078
 10
81.4653066406
 20
32.9042897949
 10
81.1728076172
 20
32.9042897949
 10
80.9344492187
 20
32.4709580078
  0
LWPOLYLINE
  5
397
100
AcDbEntity
  8
0
100
AcDbPolyline
 62
2
  6
CONTINUOUS
 90
2
 70
0
 43
0.35
 10
82.3238222656
 20
32.4709580078
 10
82.9088203125
 20
32.4709580078
  0
LWPOLYLINE
  5
398
100
AcDbEntity
  8
0
100
AcDbPolyline
 62
2
  6
CONTINUOUS
 90
9
 70
0
 43
0.35
 10
83.0712529297
 20
31.1709572754
 10
83.0171123047
 20
31.604291748
 10
83.3855371094
 20
33.3376242676
 10
83.6238955078
 20
33.7709560547
 10
83.9163945312
 20
33.7709560547
 10
83.9705351562
 20
33.3376242676
 10
83.6021103516
 20
31.604291748
 10
83.3637519531
 20
31.1709572754
 10
83.0712529297
 20
31.1709572754
  0
LWPOLYLINE
  5
399
100
AcDbEntity
  8
0
100
AcDbPolyline
 62
2
  6
CONTINUOUS
 90
12
 70
0
 43
0.35
 10
85.1405419922
 20
33.3376242676
 10
85.0864013672
 20
33.7709560547
 10
84.7939023437
 20
33.7709560547
 10
84.5555439453
 20
33.3376242676
 10
84.1871083984
 20
31.604291748
 10
84.2412490234
 20
31.1709572754
 10
84.5337480469
 20
31.1709572754
 10
84.7721064453
 20
31.604291748
 10
84.9563242187
 20
32.4709580078
 10
84.9021835937
 20
32.9042897949
 10
84.6096845703
 20
32.9042897949
 10
84.3713261719
 20
32.4709580078
  0
LWPOLYLINE
  5
39A
100
AcDbEntity
  8
0
100
AcDbPolyline
 62
2
  6
CONTINUOUS
 90
2
 70
0
 43
0.35
 10
40.4600029297
 20
30.7875793457
 10
41.1720595703
 20
34.1375788574
  0
LWPOLYLINE
  5
39B
100
AcDbEntity
  8
0
100
AcDbPolyline
 62
2
  6
CONTINUOUS
 90
3
 70
0
 43
0.35
 10
40.81603125
 20
32.4625791016
 10
41.0672802734
 20
32.4625791016
 10
42.1770664062
 20
34.1375788574
  0
LWPOLYLINE
  5
39C
100
AcDbEntity
  8
0
100
AcDbPolyline
 62
2
  6
CONTINUOUS
 90
2
 70
0
 43
0.35
 10
41.4649990234
 20
30.7875793457
 10
41.0672802734
 20
32.4625791016
  0
LWPOLYLINE
  5
39D
100
AcDbEntity
  8
0
100
AcDbPolyline
 62
2
  6
CONTINUOUS
 90
8
 70
0
 43
0.35
 10
43.8310302734
 20
32.4625791016
 10
43.6984609375
 20
33.0209123535
 10
43.1959628906
 20
33.0209123535
 10
42.8260341797
 20
32.4625791016
 10
42.5886748047
 20
31.3459125977
 10
42.7212548828
 20
30.7875793457
 10
43.2237529297
 20
30.7875793457
 10
43.5936816406
 20
31.3459125977
  0
LWPOLYLINE
  5
39E
100
AcDbEntity
  8
0
100
AcDbPolyline
 62
2
  6
CONTINUOUS
 90
3
 70
0
 43
0.35
 10
43.9497099609
 20
33.0209123535
 10
43.5936816406
 20
31.3459125977
 10
43.6006210937
 20
30.7875793457
  0
LWPOLYLINE
  5
39F
100
AcDbEntity
  8
0
100
AcDbPolyline
 62
2
  6
CONTINUOUS
 90
3
 70
0
 43
0.35
 10
44.4799980469
 20
30.7875793457
 10
45.4572148437
 20
33.0209123535
 10
45.4850048828
 20
30.7875793457
  0
LWPOLYLINE
  5
3A0
100
AcDbEntity
  8
0
100
AcDbPolyline
 62
2
  6
CONTINUOUS
 90
5
 70
0
 43
0.35
 10
46.4900009766
 20
30.7875793457
 10
46.9647089844
 20
33.0209123535
 10
47.2298583984
 20
31.9042458496
 10
47.9697050781
 20
33.0209123535
 10
47.4949970703
 20
30.7875793457
  0
LWPOLYLINE
  5
3A1
100
AcDbEntity
  8
0
100
AcDbPolyline
 62
2
  6
CONTINUOUS
 90
9
 70
0
 43
0.35
 10
48.9747119141
 20
33.0209123535
 10
48.6186728516
 20
31.3459125977
 10
48.7512529297
 20
30.7875793457
 10
49.0025019531
 20
30.7875793457
 10
49.3724306641
 20
31.3459125977
 10
49.4910996094
 20
31.9042458496
 10
49.3585302734
 20
32.4625791016
 10
49.10728125
 20
32.4625791016
 10
48.7373525391
 20
31.9042458496
  0
LWPOLYLINE
  5
3A2
100
AcDbEntity
  8
0
100
AcDbPolyline
 62
2
  6
CONTINUOUS
 90
2
 70
0
 43
0.35
 10
49.9797080078
 20
33.0209123535
 10
49.505
 20
30.7875793457
  0
LWPOLYLINE
  5
3A3
100
AcDbEntity
  8
0
100
AcDbPolyline
 62
2
  6
CONTINUOUS
 90
2
 70
0
 43
0.35
 10
50.9847148437
 20
33.0209123535
 10
50.5099960937
 20
30.7875793457
  0
LWPOLYLINE
  5
3A4
100
AcDbEntity
  8
0
100
AcDbPolyline
 62
2
  6
CONTINUOUS
 90
2
 70
0
 43
0.35
 10
50.6286757812
 20
31.3459125977
 10
51.9897109375
 20
33.0209123535
  0
LWPOLYLINE
  5
3A5
100
AcDbEntity
  8
0
100
AcDbPolyline
 62
2
  6
CONTINUOUS
 90
2
 70
0
 43
0.35
 10
51.124234375
 20
31.9042458496
 10
51.5150029297
 20
30.7875793457
  0
LWPOLYLINE
  5
3A6
100
AcDbEntity
  8
0
100
AcDbPolyline
 62
2
  6
CONTINUOUS
 90
9
 70
0
 43
0.35
 10
52.6386787109
 20
31.3459125977
 10
52.7712480469
 20
30.7875793457
 10
53.2737460937
 20
30.7875793457
 10
53.6436748047
 20
31.3459125977
 10
53.8810341797
 20
32.4625791016
 10
53.7484648437
 20
33.0209123535
 10
53.2459560547
 20
33.0209123535
 10
52.8760273437
 20
32.4625791016
 10
52.6386787109
 20
31.3459125977
  0
LWPOLYLINE
  5
3A7
100
AcDbEntity
  8
0
100
AcDbPolyline
 62
2
  6
CONTINUOUS
 90
12
 70
0
 43
0.35
 10
54.8860302734
 20
32.4625791016
 10
55.6258876953
 20
33.5792456055
 10
55.7445673828
 20
34.1375788574
 10
55.4933183594
 20
34.1375788574
 10
55.1233896484
 20
33.5792456055
 10
54.6486816406
 20
31.3459125977
 10
54.7812509766
 20
30.7875793457
 10
55.2837490234
 20
30.7875793457
 10
55.6536777344
 20
31.3459125977
 10
55.8910371094
 20
32.4625791016
 10
55.7584570312
 20
33.0209123535
 10
55.2559589844
 20
33.0209123535
  0
LWPOLYLINE
  5
3A8
100
AcDbEntity
  8
0
100
AcDbPolyline
 62
2
  6
CONTINUOUS
 90
7
 70
0
 43
0.35
 10
21.4650009766
 20
30.7875793457
 10
22.1770683594
 20
34.1375788574
 10
22.9308154297
 20
34.1375788574
 10
23.0633847656
 20
33.5792456055
 10
22.9447050781
 20
33.0209123535
 10
22.5747871094
 20
32.4625791016
 10
21.8210292969
 20
32.4625791016
  0
LWPOLYLINE
  5
3A9
100
AcDbEntity
  8
0
100
AcDbPolyline
 62
2
  6
CONTINUOUS
 90
8
 70
0
 43
0.35
 10
24.8360283203
 20
32.4625791016
 10
24.7034589844
 20
33.0209123535
 10
24.2009609375
 20
33.0209123535
 10
23.8310322266
 20
32.4625791016
 10
23.5936728516
 20
31.3459125977
 10
23.7262529297
 20
30.7875793457
 10
24.2287509766
 20
30.7875793457
 10
24.5986796875
 20
31.3459125977
  0
LWPOLYLINE
  5
3AA
100
AcDbEntity
  8
0
100
AcDbPolyline
 62
2
  6
CONTINUOUS
 90
3
 70
0
 43
0.35
 10
24.9547080078
 20
33.0209123535
 10
24.5986796875
 20
31.3459125977
 10
24.6056298828
 20
30.7875793457
  0
LWPOLYLINE
  5
3AB
100
AcDbEntity
  8
0
100
AcDbPolyline
 62
2
  6
CONTINUOUS
 90
9
 70
0
 43
0.35
 10
25.6036757812
 20
31.3459125977
 10
25.7362451172
 20
30.7875793457
 10
26.2387539062
 20
30.7875793457
 10
26.6086826172
 20
31.3459125977
 10
26.4761025391
 20
31.9042458496
 10
26.84603125
 20
32.4625791016
 10
26.7134619141
 20
33.0209123535
 10
26.2109638672
 20
33.0209123535
 10
25.8410351562
 20
32.4625791016
  0
LWPOLYLINE
  5
3AC
100
AcDbEntity
  8
0
100
AcDbPolyline
 62
2
  6
CONTINUOUS
 90
2
 70
0
 43
0.35
 10
26.2248535156
 20
31.9042458496
 10
26.4761025391
 20
31.9042458496
  0
LWPOLYLINE
  5
3AD
100
AcDbEntity
  8
0
100
AcDbPolyline
 62
2
  6
CONTINUOUS
 90
2
 70
0
 43
0.35
 10
27.2576503906
 20
29.6709128418
 10
27.9697070312
 20
33.0209123535
  0
LWPOLYLINE
  5
3AE
100
AcDbEntity
  8
0
100
AcDbPolyline
 62
2
  6
CONTINUOUS
 90
7
 70
0
 43
0.35
 10
27.4949990234
 20
30.7875793457
 10
28.2487460937
 20
30.7875793457
 10
28.6186748047
 20
31.3459125977
 10
28.8560341797
 20
32.4625791016
 10
28.7234648437
 20
33.0209123535
 10
28.2209560547
 20
33.0209123535
 10
27.8510273437
 20
32.4625791016
  0
LWPOLYLINE
  5
3AF
100
AcDbEntity
  8
0
100
AcDbPolyline
 62
2
  6
CONTINUOUS
 90
8
 70
0
 43
0.35
 10
30.8660371094
 20
32.4625791016
 10
30.7334570312
 20
33.0209123535
 10
30.2309589844
 20
33.0209123535
 10
29.8610302734
 20
32.4625791016
 10
29.6236816406
 20
31.3459125977
 10
29.7562509766
 20
30.7875793457
 10
30.2587490234
 20
30.7875793457
 10
30.6286777344
 20
31.3459125977
  0
LWPOLYLINE
  5
3B0
100
AcDbEntity
  8
0
100
AcDbPolyline
 62
2
  6
CONTINUOUS
 90
3
 70
0
 43
0.35
 10
30.9847060547
 20
33.0209123535
 10
30.6286777344
 20
31.3459125977
 10
30.6356279297
 20
30.7875793457
  0
LWPOLYLINE
  5
3B1
100
AcDbEntity
  8
0
100
AcDbPolyline
 62
2
  6
CONTINUOUS
 90
10
 70
0
 43
0.35
 10
32.7434599609
 20
33.0209123535
 10
32.2409619141
 20
33.0209123535
 10
31.8710332031
 20
32.4625791016
 10
31.6336738281
 20
31.3459125977
 10
31.7662539062
 20
30.7875793457
 10
32.2687519531
 20
30.7875793457
 10
32.6386806641
 20
31.3459125977
 10
32.8760292969
 20
32.4625791016
 10
32.4783105469
 20
34.1375788574
 10
33.2320683594
 20
34.1375788574
  0
LWPOLYLINE
  5
3B2
100
AcDbEntity
  8
0
100
AcDbPolyline
 62
2
  6
CONTINUOUS
 90
5
 70
0
 43
0.35
 10
33.6506269531
 20
30.7875793457
 10
33.5249970703
 20
30.7875793457
 10
33.5843369141
 20
31.0667473145
 10
33.7099667969
 20
31.0667473145
 10
33.6506269531
 20
30.7875793457
  0
LWPOLYLINE
  5
3B3
100
AcDbEntity
  8
0
100
AcDbPolyline
 62
2
  6
CONTINUOUS
 90
5
 70
0
 43
0.35
 10
76.2312509766
 20
35.7875788574
 10
76.7652988281
 20
38.300079834
 10
77.3201865234
 20
39.1375783691
 10
77.6970654297
 20
39.1375783691
 10
76.9849980469
 20
35.7875788574
  0
LWPOLYLINE
  5
3B4
100
AcDbEntity
  8
0
100
AcDbPolyline
 62
2
  6
CONTINUOUS
 90
4
 70
0
 43
0.35
 10
75.9869521484
 20
35.2292456055
 10
75.9800019531
 20
35.7875788574
 10
77.2362470703
 20
35.7875788574
 10
76.9919482422
 20
35.2292456055
  0
LWPOLYLINE
  5
3B5
100
AcDbEntity
  8
0
100
AcDbPolyline
 62
2
  6
CONTINUOUS
 90
8
 70
0
 43
0.35
 10
79.3510292969
 20
37.4625786133
 10
79.2184599609
 20
38.0209118652
 10
78.7159619141
 20
38.0209118652
 10
78.3460332031
 20
37.4625786133
 10
78.1086738281
 20
36.3459121094
 10
78.2412539062
 20
35.7875788574
 10
78.7437519531
 20
35.7875788574
 10
79.1136806641
 20
36.3459121094
  0
LWPOLYLINE
  5
3B6
100
AcDbEntity
  8
0
100
AcDbPolyline
 62
2
  6
CONTINUOUS
 90
3
 70
0
 43
0.35
 10
79.4697089844
 20
38.0209118652
 10
79.1136806641
 20
36.3459121094
 10
79.1206201172
 20
35.7875788574
  0
LWPOLYLINE
  5
3B7
100
AcDbEntity
  8
0
100
AcDbPolyline
 62
2
  6
CONTINUOUS
 90
2
 70
0
 43
0.35
 10
79.9999970703
 20
35.7875788574
 10
80.4747050781
 20
38.0209118652
  0
LWPOLYLINE
  5
3B8
100
AcDbEntity
  8
0
100
AcDbPolyline
 62
2
  6
CONTINUOUS
 90
4
 70
0
 43
0.35
 10
80.3560361328
 20
37.4625786133
 10
80.7259648437
 20
38.0209118652
 10
80.8585341797
 20
37.4625786133
 10
80.5024951172
 20
35.7875788574
  0
LWPOLYLINE
  5
3B9
100
AcDbEntity
  8
0
100
AcDbPolyline
 62
2
  6
CONTINUOUS
 90
4
 70
0
 43
0.35
 10
80.8585341797
 20
37.4625786133
 10
81.2284628906
 20
38.0209118652
 10
81.3610322266
 20
37.4625786133
 10
81.0050039062
 20
35.7875788574
  0
LWPOLYLINE
  5
3BA
100
AcDbEntity
  8
0
100
AcDbPolyline
 62
2
  6
CONTINUOUS
 90
8
 70
0
 43
0.35
 10
83.3710351562
 20
37.4625786133
 10
83.2384550781
 20
38.0209118652
 10
82.7359570312
 20
38.0209118652
 10
82.3660283203
 20
37.4625786133
 10
82.1286796875
 20
36.3459121094
 10
82.2612490234
 20
35.7875788574
 10
82.7637470703
 20
35.7875788574
 10
83.1336757812
 20
36.3459121094
  0
LWPOLYLINE
  5
3BB
100
AcDbEntity
  8
0
100
AcDbPolyline
 62
2
  6
CONTINUOUS
 90
3
 70
0
 43
0.35
 10
83.4897148437
 20
38.0209118652
 10
83.1336757812
 20
36.3459121094
 10
83.1406259766
 20
35.7875788574
  0
LWPOLYLINE
  5
3BC
100
AcDbEntity
  8
0
100
AcDbPolyline
 62
2
  6
CONTINUOUS
 90
4
 70
0
 43
0.35
 10
62.4749990234
 20
35.7875788574
 10
63.1870664062
 20
39.1375783691
 10
64.1920625
 20
39.1375783691
 10
63.4799951172
 20
35.7875788574
  0
LWPOLYLINE
  5
3BD
100
AcDbEntity
  8
0
100
AcDbPolyline
 62
2
  6
CONTINUOUS
 90
9
 70
0
 43
0.35
 10
64.6036816406
 20
36.3459121094
 10
64.7362509766
 20
35.7875788574
 10
65.2387490234
 20
35.7875788574
 10
65.6086777344
 20
36.3459121094
 10
65.8460371094
 20
37.4625786133
 10
65.7134570312
 20
38.0209118652
 10
65.2109589844
 20
38.0209118652
 10
64.8410302734
 20
37.4625786133
 10
64.6036816406
 20
36.3459121094
  0
LWPOLYLINE
  5
3BE
100
AcDbEntity
  8
0
100
AcDbPolyline
 62
2
  6
CONTINUOUS
 90
11
 70
0
 43
0.35
 10
67.8560292969
 20
37.4625786133
 10
67.7234599609
 20
38.0209118652
 10
67.2209619141
 20
38.0209118652
 10
66.8510332031
 20
37.4625786133
 10
66.6136738281
 20
36.3459121094
 10
66.7462539062
 20
35.7875788574
 10
67.2487519531
 20
35.7875788574
 10
67.6186806641
 20
36.3459121094
 10
68.0933886719
 20
38.5792451172
 10
67.9608193359
 20
39.1375783691
 10
67.4583105469
 20
39.1375783691
  0
LWPOLYLINE
  5
3BF
100
AcDbEntity
  8
0
100
AcDbPolyline
 62
2
  6
CONTINUOUS
 90
2
 70
0
 43
0.35
 10
68.5049970703
 20
35.7875788574
 10
68.9797050781
 20
38.0209118652
  0
LWPOLYLINE
  5
3C0
100
AcDbEntity
  8
0
100
AcDbPolyline
 62
2
  6
CONTINUOUS
 90
5
 70
0
 43
0.35
 10
68.8610361328
 20
37.4625786133
 10
69.2309648437
 20
38.0209118652
 10
69.7334628906
 20
38.0209118652
 10
69.8660322266
 20
37.4625786133
 10
69.5100039062
 20
35.7875788574
  0
LWPOLYLINE
  5
3C1
100
AcDbEntity
  8
0
100
AcDbPolyline
 62
2
  6
CONTINUOUS
 90
5
 70
0
 43
0.35
 10
70.6406298828
 20
35.7875788574
 10
70.515
 20
35.7875788574
 10
70.5743398437
 20
36.0667468262
 10
70.6999589844
 20
36.0667468262
 10
70.6406298828
 20
35.7875788574
  0
LWPOLYLINE
  5
3C2
100
AcDbEntity
  8
0
100
AcDbPolyline
 62
2
  6
CONTINUOUS
 90
4
 70
0
 43
0.35
 10
40.4600029297
 20
35.7875788574
 10
41.1720595703
 20
39.1375783691
 10
41.4649990234
 20
35.7875788574
 10
42.1770664062
 20
39.1375783691
  0
LWPOLYLINE
  5
3C3
100
AcDbEntity
  8
0
100
AcDbPolyline
 62
2
  6
CONTINUOUS
 90
11
 70
0
 43
0.35
 10
45.8410332031
 20
37.4625786133
 10
45.7084638672
 20
38.0209118652
 10
45.2059550781
 20
38.0209118652
 10
44.8360371094
 20
37.4625786133
 10
44.5986777344
 20
36.3459121094
 10
44.7312470703
 20
35.7875788574
 10
45.2337451172
 20
35.7875788574
 10
45.6036738281
 20
36.3459121094
 10
46.0783818359
 20
38.5792451172
 10
45.9458125
 20
39.1375783691
 10
45.4433144531
 20
39.1375783691
  0
LWPOLYLINE
  5
3C4
100
AcDbEntity
  8
0
100
AcDbPolyline
 62
2
  6
CONTINUOUS
 90
9
 70
0
 43
0.35
 10
46.6086806641
 20
36.3459121094
 10
46.74125
 20
35.7875788574
 10
47.2437480469
 20
35.7875788574
 10
47.6136767578
 20
36.3459121094
 10
47.8510361328
 20
37.4625786133
 10
47.7184560547
 20
38.0209118652
 10
47.2159580078
 20
38.0209118652
 10
46.8460292969
 20
37.4625786133
 10
46.6086806641
 20
36.3459121094
  0
LWPOLYLINE
  5
3C5
100
AcDbEntity
  8
0
100
AcDbPolyline
 62
2
  6
CONTINUOUS
 90
2
 70
0
 43
0.35
 10
48.9747119141
 20
38.0209118652
 10
48.5000039062
 20
35.7875788574
  0
LWPOLYLINE
  5
3C6
100
AcDbEntity
  8
0
100
AcDbPolyline
 62
2
  6
CONTINUOUS
 90
2
 70
0
 43
0.35
 10
48.6186728516
 20
36.3459121094
 10
49.9797080078
 20
38.0209118652
  0
LWPOLYLINE
  5
3C7
100
AcDbEntity
  8
0
100
AcDbPolyline
 62
2
  6
CONTINUOUS
 90
2
 70
0
 43
0.35
 10
49.1142314453
 20
36.9042453613
 10
49.505
 20
35.7875788574
  0
LWPOLYLINE
  5
3C8
100
AcDbEntity
  8
0
100
AcDbPolyline
 62
2
  6
CONTINUOUS
 90
2
 70
0
 43
0.35
 10
50.9847148437
 20
38.0209118652
 10
51.0125048828
 20
35.7875788574
  0
LWPOLYLINE
  5
3C9
100
AcDbEntity
  8
0
100
AcDbPolyline
 62
2
  6
CONTINUOUS
 90
3
 70
0
 43
0.35
 10
50.2726474609
 20
34.6709123535
 10
50.5238964844
 20
34.6709123535
 10
51.9897109375
 20
38.0209118652
  0
LWPOLYLINE
  5
3CA
100
AcDbEntity
  8
0
100
AcDbPolyline
 62
2
  6
CONTINUOUS
 90
5
 70
0
 43
0.35
 10
52.5199990234
 20
35.7875788574
 10
52.9947070312
 20
38.0209118652
 10
53.2598564453
 20
36.9042453613
 10
53.9997138672
 20
38.0209118652
 10
53.5249951172
 20
35.7875788574
  0
LWPOLYLINE
  5
3CB
100
AcDbEntity
  8
0
100
AcDbPolyline
 62
2
  6
CONTINUOUS
 90
5
 70
0
 43
0.35
 10
54.6556210937
 20
35.7875788574
 10
54.5300019531
 20
35.7875788574
 10
54.5893417969
 20
36.0667468262
 10
54.7149609375
 20
36.0667468262
 10
54.6556210937
 20
35.7875788574
  0
LWPOLYLINE
  5
3CC
100
AcDbEntity
  8
0
100
AcDbPolyline
 62
2
  6
CONTINUOUS
 90
3
 70
0
 43
0.35
 10
27.9799980469
 20
35.7875788574
 10
29.1945634766
 20
39.1375783691
 10
28.9850048828
 20
35.7875788574
  0
LWPOLYLINE
  5
3CD
100
AcDbEntity
  8
0
100
AcDbPolyline
 62
2
  6
CONTINUOUS
 90
5
 70
0
 43
0.35
 10
30.4647089844
 20
38.0209118652
 10
30.1086806641
 20
36.3459121094
 10
30.24125
 20
35.7875788574
 10
30.4924990234
 20
35.7875788574
 10
31.2323564453
 20
36.9042453613
  0
LWPOLYLINE
  5
3CE
100
AcDbEntity
  8
0
100
AcDbPolyline
 62
2
  6
CONTINUOUS
 90
2
 70
0
 43
0.35
 10
31.4697050781
 20
38.0209118652
 10
30.9949970703
 20
35.7875788574
  0
LWPOLYLINE
  5
3CF
100
AcDbEntity
  8
0
100
AcDbPolyline
 62
2
  6
CONTINUOUS
 90
8
 70
0
 43
0.35
 10
33.3610283203
 20
37.4625786133
 10
33.2284589844
 20
38.0209118652
 10
32.7259609375
 20
38.0209118652
 10
32.3560322266
 20
37.4625786133
 10
32.1186728516
 20
36.3459121094
 10
32.2512529297
 20
35.7875788574
 10
32.7537509766
 20
35.7875788574
 10
33.1236796875
 20
36.3459121094
  0
LWPOLYLINE
  5
3D0
100
AcDbEntity
  8
0
100
AcDbPolyline
 62
2
  6
CONTINUOUS
 90
2
 70
0
 43
0.35
 10
34.0099960937
 20
35.7875788574
 10
34.4847148437
 20
38.0209118652
  0
LWPOLYLINE
  5
3D1
100
AcDbEntity
  8
0
100
AcDbPolyline
 62
2
  6
CONTINUOUS
 90
4
 70
0
 43
0.35
 10
34.3660351562
 20
37.4625786133
 10
34.7359638672
 20
38.0209118652
 10
34.8685332031
 20
37.4625786133
 10
34.5125048828
 20
35.7875788574
  0
LWPOLYLINE
  5
3D2
100
AcDbEntity
  8
0
100
AcDbPolyline
 62
2
  6
CONTINUOUS
 90
4
 70
0
 43
0.35
 10
34.8685332031
 20
37.4625786133
 10
35.2384619141
 20
38.0209118652
 10
35.37103125
 20
37.4625786133
 10
35.0150029297
 20
35.7875788574
  0
LWPOLYLINE
  5
3D3
100
AcDbEntity
  8
0
100
AcDbPolyline
 62
2
  6
CONTINUOUS
 90
4
 70
0
 43
0.35
 10
21.1970693359
 20
39.1375783691
 10
20.4850019531
 20
35.7875788574
 10
22.2020654297
 20
39.1375783691
 10
21.4899980469
 20
35.7875788574
  0
LWPOLYLINE
  5
3D4
100
AcDbEntity
  8
0
100
AcDbPolyline
 62
2
  6
CONTINUOUS
 90
9
 70
0
 43
0.35
 10
22.6136738281
 20
36.3459121094
 10
22.7462539062
 20
35.7875788574
 10
23.2487519531
 20
35.7875788574
 10
23.6186806641
 20
36.3459121094
 10
23.4861005859
 20
36.9042453613
 10
23.8560292969
 20
37.4625786133
 10
23.7234599609
 20
38.0209118652
 10
23.2209619141
 20
38.0209118652
 10
22.8510332031
 20
37.4625786133
  0
LWPOLYLINE
  5
3D5
100
AcDbEntity
  8
0
100
AcDbPolyline
 62
2
  6
CONTINUOUS
 90
2
 70
0
 43
0.35
 10
23.2348515625
 20
36.9042453613
 10
23.4861005859
 20
36.9042453613
  0
LWPOLYLINE
  5
3D6
100
AcDbEntity
  8
0
100
AcDbPolyline
 62
2
  6
CONTINUOUS
 90
5
 70
0
 43
0.35
 10
24.5049970703
 20
35.7875788574
 10
24.9797050781
 20
38.0209118652
 10
25.2448544922
 20
36.9042453613
 10
25.9847119141
 20
38.0209118652
 10
25.5100039062
 20
35.7875788574
  0
LWPOLYLINE
  5
3D7
100
AcDbEntity
  8
0
100
AcDbPolyline
 62
2
  6
CONTINUOUS
 90
5
 70
0
 43
0.35
 10
188.9649980469
 20
40.7875783691
 10
189.6770546875
 20
44.1375805664
 10
189.7048554688
 20
41.904244873
 10
190.6820722656
 20
44.1375805664
 10
189.9699941406
 20
40.7875783691
  0
LWPOLYLINE
  5
3D8
100
AcDbEntity
  8
0
100
AcDbPolyline
 62
2
  6
CONTINUOUS
 90
8
 70
0
 43
0.35
 10
192.3360253906
 20
42.4625808105
 10
192.2034667969
 20
43.0209140625
 10
191.70096875
 20
43.0209140625
 10
191.3310292969
 20
42.4625808105
 10
191.0936699219
 20
41.3459116211
 10
191.22625
 20
40.7875783691
 10
191.7287480469
 20
40.7875783691
 10
192.0986875
 20
41.3459116211
  0
LWPOLYLINE
  5
3D9
100
AcDbEntity
  8
0
100
AcDbPolyline
 62
2
  6
CONTINUOUS
 90
3
 70
0
 43
0.35
 10
192.4547050781
 20
43.0209140625
 10
192.0986875
 20
41.3459116211
 10
192.1056269531
 20
40.7875783691
  0
LWPOLYLINE
  5
3DA
100
AcDbEntity
  8
0
100
AcDbPolyline
 62
2
  6
CONTINUOUS
 90
8
 70
0
 43
0.35
 10
194.3460390625
 20
42.4625808105
 10
194.2134589844
 20
43.0209140625
 10
193.7109609375
 20
43.0209140625
 10
193.3410429687
 20
42.4625808105
 10
193.1036835937
 20
41.3459116211
 10
193.2362421875
 20
40.7875783691
 10
193.7387402344
 20
40.7875783691
 10
194.1086796875
 20
41.3459116211
  0
LWPOLYLINE
  5
3DB
100
AcDbEntity
  8
0
100
AcDbPolyline
 62
2
  6
CONTINUOUS
 90
7
 70
0
 43
0.35
 10
195.4697148437
 20
43.0209140625
 10
195.1136757813
 20
41.3459116211
 10
195.2462558594
 20
40.7875783691
 10
195.6161738281
 20
41.3459116211
 10
195.7487539063
 20
40.7875783691
 10
196.118671875
 20
41.3459116211
 10
196.4747109375
 20
43.0209140625
  0
LWPOLYLINE
  5
3DC
100
AcDbEntity
  8
0
100
AcDbPolyline
 62
2
  6
CONTINUOUS
 90
2
 70
0
 43
0.35
 10
195.9722128906
 20
43.0209140625
 10
195.6161738281
 20
41.3459116211
  0
LWPOLYLINE
  5
3DD
100
AcDbEntity
  8
0
100
AcDbPolyline
 62
2
  6
CONTINUOUS
 90
2
 70
0
 43
0.35
 10
196.118671875
 20
41.3459116211
 10
196.1256328125
 20
40.7875783691
  0
LWPOLYLINE
  5
3DE
100
AcDbEntity
  8
0
100
AcDbPolyline
 62
2
  6
CONTINUOUS
 90
2
 70
0
 43
0.35
 10
197.0050097656
 20
40.7875783691
 10
197.4797070313
 20
43.0209140625
  0
LWPOLYLINE
  5
3DF
100
AcDbEntity
  8
0
100
AcDbPolyline
 62
2
  6
CONTINUOUS
 90
4
 70
0
 43
0.35
 10
197.3610273438
 20
42.4625808105
 10
197.7309667969
 20
43.0209140625
 10
197.8635253906
 20
42.4625808105
 10
197.5075078125
 20
40.7875783691
  0
LWPOLYLINE
  5
3E0
100
AcDbEntity
  8
0
100
AcDbPolyline
 62
2
  6
CONTINUOUS
 90
4
 70
0
 43
0.35
 10
197.8635253906
 20
42.4625808105
 10
198.2334648438
 20
43.0209140625
 10
198.3660234375
 20
42.4625808105
 10
198.0100058594
 20
40.7875783691
  0
LWPOLYLINE
  5
3E1
100
AcDbEntity
  8
0
100
AcDbPolyline
 62
2
  6
CONTINUOUS
 90
8
 70
0
 43
0.35
 10
200.3760371094
 20
42.4625808105
 10
200.2434570313
 20
43.0209140625
 10
199.7409589844
 20
43.0209140625
 10
199.3710410156
 20
42.4625808105
 10
199.1336816406
 20
41.3459116211
 10
199.2662402344
 20
40.7875783691
 10
199.7687597656
 20
40.7875783691
 10
200.1386777344
 20
41.3459116211
  0
LWPOLYLINE
  5
3E2
100
AcDbEntity
  8
0
100
AcDbPolyline
 62
2
  6
CONTINUOUS
 90
3
 70
0
 43
0.35
 10
200.4947167969
 20
43.0209140625
 10
200.1386777344
 20
41.3459116211
 10
200.1456171875
 20
40.7875783691
  0
LWPOLYLINE
  5
3E3
100
AcDbEntity
  8
0
100
AcDbPolyline
 62
2
  6
CONTINUOUS
 90
10
 70
0
 43
0.35
 10
202.2534492187
 20
43.0209140625
 10
201.7509511719
 20
43.0209140625
 10
201.3810332031
 20
42.4625808105
 10
201.1436738281
 20
41.3459116211
 10
201.2762539062
 20
40.7875783691
 10
201.7787519531
 20
40.7875783691
 10
202.1486699219
 20
41.3459116211
 10
202.3860292969
 20
42.4625808105
 10
201.9883105469
 20
44.1375805664
 10
202.7420683594
 20
44.1375805664
  0
LWPOLYLINE
  5
3E4
100
AcDbEntity
  8
0
100
AcDbPolyline
 62
2
  6
CONTINUOUS
 90
5
 70
0
 43
0.35
 10
173.475
 20
40.7875783691
 10
174.1870566406
 20
44.1375805664
 10
174.2148574219
 20
41.904244873
 10
175.1920742188
 20
44.1375805664
 10
174.4799960938
 20
40.7875783691
  0
LWPOLYLINE
  5
3E5
100
AcDbEntity
  8
0
100
AcDbPolyline
 62
2
  6
CONTINUOUS
 90
8
 70
0
 43
0.35
 10
176.8460273437
 20
42.4625808105
 10
176.71346875
 20
43.0209140625
 10
176.2109492187
 20
43.0209140625
 10
175.84103125
 20
42.4625808105
 10
175.603671875
 20
41.3459116211
 10
175.7362519531
 20
40.7875783691
 10
176.23875
 20
40.7875783691
 10
176.6086679687
 20
41.3459116211
  0
LWPOLYLINE
  5
3E6
100
AcDbEntity
  8
0
100
AcDbPolyline
 62
2
  6
CONTINUOUS
 90
3
 70
0
 43
0.35
 10
176.9647070312
 20
43.0209140625
 10
176.6086679687
 20
41.3459116211
 10
176.6156289063
 20
40.7875783691
  0
LWPOLYLINE
  5
3E7
100
AcDbEntity
  8
0
100
AcDbPolyline
 62
2
  6
CONTINUOUS
 90
8
 70
0
 43
0.35
 10
178.8560410156
 20
42.4625808105
 10
178.7234609375
 20
43.0209140625
 10
178.2209628906
 20
43.0209140625
 10
177.8510234375
 20
42.4625808105
 10
177.6136855469
 20
41.3459116211
 10
177.7462441406
 20
40.7875783691
 10
178.2487421875
 20
40.7875783691
 10
178.6186816406
 20
41.3459116211
  0
LWPOLYLINE
  5
3E8
100
AcDbEntity
  8
0
100
AcDbPolyline
 62
2
  6
CONTINUOUS
 90
8
 70
0
 43
0.35
 10
180.8660332031
 20
42.4625808105
 10
180.733453125
 20
43.0209140625
 10
180.2309550781
 20
43.0209140625
 10
179.8610371094
 20
42.4625808105
 10
179.6236777344
 20
41.3459116211
 10
179.7562578125
 20
40.7875783691
 10
180.2587558594
 20
40.7875783691
 10
180.6286738281
 20
41.3459116211
  0
LWPOLYLINE
  5
3E9
100
AcDbEntity
  8
0
100
AcDbPolyline
 62
2
  6
CONTINUOUS
 90
8
 70
0
 43
0.35
 10
182.8760253906
 20
42.4625808105
 10
182.7434667969
 20
43.0209140625
 10
182.24096875
 20
43.0209140625
 10
181.8710292969
 20
42.4625808105
 10
181.6336699219
 20
41.3459116211
 10
181.76625
 20
40.7875783691
 10
182.2687480469
 20
40.7875783691
 10
182.6386875
 20
41.3459116211
  0
LWPOLYLINE
  5
3EA
100
AcDbEntity
  8
0
100
AcDbPolyline
 62
2
  6
CONTINUOUS
 90
3
 70
0
 43
0.35
 10
182.9947050781
 20
43.0209140625
 10
182.6386875
 20
41.3459116211
 10
182.6456269531
 20
40.7875783691
  0
LWPOLYLINE
  5
3EB
100
AcDbEntity
  8
0
100
AcDbPolyline
 62
2
  6
CONTINUOUS
 90
3
 70
0
 43
0.35
 10
158.4800019531
 20
40.7875783691
 10
159.6945566406
 20
44.1375805664
 10
159.4849980469
 20
40.7875783691
  0
LWPOLYLINE
  5
3EC
100
AcDbEntity
  8
0
100
AcDbPolyline
 62
2
  6
CONTINUOUS
 90
5
 70
0
 43
0.35
 10
160.9647128906
 20
43.0209140625
 10
160.6086738281
 20
41.3459116211
 10
160.7412539062
 20
40.7875783691
 10
160.9924921875
 20
40.7875783691
 10
161.7323496094
 20
41.904244873
  0
LWPOLYLINE
  5
3ED
100
AcDbEntity
  8
0
100
AcDbPolyline
 62
2
  6
CONTINUOUS
 90
2
 70
0
 43
0.35
 10
161.9697089844
 20
43.0209140625
 10
161.4949902344
 20
40.7875783691
  0
LWPOLYLINE
  5
3EE
100
AcDbEntity
  8
0
100
AcDbPolyline
 62
2
  6
CONTINUOUS
 90
2
 70
0
 43
0.35
 10
162.5000078125
 20
40.7875783691
 10
162.9747050781
 20
43.0209140625
  0
LWPOLYLINE
  5
3EF
100
AcDbEntity
  8
0
100
AcDbPolyline
 62
2
  6
CONTINUOUS
 90
4
 70
0
 43
0.35
 10
162.8560253906
 20
42.4625808105
 10
163.2259648438
 20
43.0209140625
 10
163.3585234375
 20
42.4625808105
 10
163.0025058594
 20
40.7875783691
  0
LWPOLYLINE
  5
3F0
100
AcDbEntity
  8
0
100
AcDbPolyline
 62
2
  6
CONTINUOUS
 90
4
 70
0
 43
0.35
 10
163.3585234375
 20
42.4625808105
 10
163.7284628906
 20
43.0209140625
 10
163.8610429687
 20
42.4625808105
 10
163.5050039062
 20
40.7875783691
  0
LWPOLYLINE
  5
3F1
100
AcDbEntity
  8
0
100
AcDbPolyline
 62
2
  6
CONTINUOUS
 90
5
 70
0
 43
0.35
 10
164.6356191406
 20
40.7875783691
 10
164.51
 20
40.7875783691
 10
164.5693398437
 20
41.0667463379
 10
164.6949589844
 20
41.0667463379
 10
164.6356191406
 20
40.7875783691
  0
LWPOLYLINE
  5
3F2
100
AcDbEntity
  8
0
100
AcDbPolyline
 62
2
  6
CONTINUOUS
 90
4
 70
0
 43
0.35
 10
105.900453125
 20
56.410637207
 10
104.1999970703
 20
48.4106401367
 10
108.3004511719
 20
56.410637207
 10
106.5999951172
 20
48.4106401367
  0
LWPOLYLINE
  5
3F3
100
AcDbEntity
  8
0
100
AcDbPolyline
 62
2
  6
CONTINUOUS
 90
6
 70
0
 43
0.35
 10
109.0000039062
 20
48.4106401367
 10
110.8000078125
 20
48.4106401367
 10
111.6834023438
 20
49.7439711914
 10
111.9668242187
 20
51.0773022461
 10
111.6502304687
 20
52.4106386719
 10
109.8502265625
 20
52.4106386719
  0
LWPOLYLINE
  5
3F4
100
AcDbEntity
  8
0
100
AcDbPolyline
 62
2
  6
CONTINUOUS
 90
3
 70
0
 43
0.35
 10
109.0000039062
 20
48.4106401367
 10
110.7004492187
 20
56.410637207
 10
112.500453125
 20
56.410637207
  0
LWPOLYLINE
  5
3F5
100
AcDbEntity
  8
0
100
AcDbPolyline
 62
2
  6
CONTINUOUS
 90
7
 70
0
 43
0.35
 10
113.8
 20
48.4106401367
 10
115.5004453125
 20
56.410637207
 10
117.3004492188
 20
56.410637207
 10
117.6170429687
 20
55.0773061523
 10
117.3336425781
 20
53.7439697266
 10
116.4502265625
 20
52.4106386719
 10
114.6502226562
 20
52.4106386719
  0
LWPOLYLINE
  5
3F6
100
AcDbEntity
  8
0
100
AcDbPolyline
 62
2
  6
CONTINUOUS
 90
10
 70
0
 43
0.35
 10
120.0170410156
 20
55.0773061523
 10
120.9004570313
 20
56.410637207
 10
122.1004453125
 20
56.410637207
 10
122.4170390625
 20
55.0773061523
 10
121.8502167969
 20
52.4106386719
 10
120.9668222656
 20
51.0773022461
 10
119.7668125
 20
51.0773022461
 10
118.8834179688
 20
49.7439711914
 10
118.5999960937
 20
48.4106401367
 10
120.9999941406
 20
48.4106401367
  0
LWPOLYLINE
  5
3F7
100
AcDbEntity
  8
0
100
AcDbPolyline
 62
2
  6
CONTINUOUS
 90
5
 70
0
 43
0.35
 10
123.7
 20
48.4106401367
 10
123.3999921875
 20
48.4106401367
 10
123.541703125
 20
49.0773056641
 10
123.8417109375
 20
49.0773056641
 10
123.7
 20
48.4106401367
  0
LWPOLYLINE
  5
3F8
100
AcDbEntity
  8
0
100
AcDbPolyline
 62
2
  6
CONTINUOUS
 90
9
 70
0
 43
0.35
 10
128.8000039063
 20
48.4106401367
 10
128.4834101562
 20
49.7439711914
 10
129.6170332031
 20
55.0773061523
 10
130.5004492187
 20
56.410637207
 10
131.7004589844
 20
56.410637207
 10
132.0170527344
 20
55.0773061523
 10
130.8834082031
 20
49.7439711914
 10
129.9999921875
 20
48.4106401367
 10
128.8000039063
 20
48.4106401367
  0
LWPOLYLINE
  5
3F9
100
AcDbEntity
  8
0
100
AcDbPolyline
 62
2
  6
CONTINUOUS
 90
3
 70
0
 43
0.35
 10
135.633625
 20
53.7439697266
 10
136.8004628906
 20
56.410637207
 10
135.0999960937
 20
48.4106401367
  0
LWPOLYLINE
  5
3FA
100
AcDbEntity
  8
0
100
AcDbPolyline
 62
2
  6
CONTINUOUS
 90
2
 70
0
 43
0.35
 10
134.5000019531
 20
48.4106401367
 10
135.6999902344
 20
48.4106401367
  0
LWPOLYLINE
  5
3FB
100
AcDbEntity
  8
0
100
AcDbPolyline
 62
2
  6
CONTINUOUS
 90
5
 70
0
 43
0.35
 10
138.1000097656
 20
48.4106401367
 10
137.8000019531
 20
48.4106401367
 10
137.9417128906
 20
49.0773056641
 10
138.2416992188
 20
49.0773056641
 10
138.1000097656
 20
48.4106401367
  0
LWPOLYLINE
  5
3FC
100
AcDbEntity
  8
0
100
AcDbPolyline
 62
2
  6
CONTINUOUS
 90
3
 70
0
 43
0.35
 10
145.2336386719
 20
53.7439697266
 10
146.4004550781
 20
56.410637207
 10
144.7000097656
 20
48.4106401367
  0
LWPOLYLINE
  5
3FD
100
AcDbEntity
  8
0
100
AcDbPolyline
 62
2
  6
CONTINUOUS
 90
2
 70
0
 43
0.35
 10
144.0999941406
 20
48.4106401367
 10
145.3000039063
 20
48.4106401367
  0
LWPOLYLINE
  5
3FE
100
AcDbEntity
  8
0
100
AcDbPolyline
 62
2
  6
CONTINUOUS
 90
9
 70
0
 43
0.35
 10
148.0000097656
 20
48.4106401367
 10
147.6834160156
 20
49.7439711914
 10
148.8170390625
 20
55.0773061523
 10
149.7004550781
 20
56.410637207
 10
150.9004433594
 20
56.410637207
 10
151.2170371094
 20
55.0773061523
 10
150.0834140625
 20
49.7439711914
 10
149.1999980469
 20
48.4106401367
 10
148.0000097656
 20
48.4106401367
  0
LWPOLYLINE
  5
3FF
100
AcDbEntity
  8
0
100
AcDbPolyline
 62
2
  6
CONTINUOUS
 90
9
 70
0
 43
0.35
 10
152.8000058594
 20
48.4106401367
 10
152.4834121094
 20
49.7439711914
 10
153.6170351562
 20
55.0773061523
 10
154.5004511719
 20
56.410637207
 10
155.7004609375
 20
56.410637207
 10
156.0170332031
 20
55.0773061523
 10
154.8834101562
 20
49.7439711914
 10
153.9999941406
 20
48.4106401367
 10
152.8000058594
 20
48.4106401367
  0
LWPOLYLINE
  5
400
100
AcDbEntity
  8
0
100
AcDbPolyline
 62
2
  6
CONTINUOUS
 90
5
 70
0
 43
0.35
 10
157.2999941406
 20
48.4106401367
 10
157.0000078125
 20
48.4106401367
 10
157.1416972656
 20
49.0773056641
 10
157.4417050781
 20
49.0773056641
 10
157.2999941406
 20
48.4106401367
  0
LWPOLYLINE
  5
401
100
AcDbEntity
  8
0
100
AcDbPolyline
 62
2
  6
CONTINUOUS
 90
9
 70
0
 43
0.35
 10
162.3999980469
 20
48.4106401367
 10
162.0834042969
 20
49.7439711914
 10
163.2170488281
 20
55.0773061523
 10
164.1004433594
 20
56.410637207
 10
165.300453125
 20
56.410637207
 10
165.617046875
 20
55.0773061523
 10
164.4834023437
 20
49.7439711914
 10
163.6000078125
 20
48.4106401367
 10
162.3999980469
 20
48.4106401367
  0
LWPOLYLINE
  5
402
100
AcDbEntity
  8
0
100
AcDbPolyline
 62
2
  6
CONTINUOUS
 90
4
 70
0
 43
0.35
 10
168.4000039062
 20
48.4106401367
 10
170.1004492187
 20
56.410637207
 10
166.8834003906
 20
49.7439711914
 10
169.2833984375
 20
49.7439711914
  0
LWPOLYLINE
  5
403
100
AcDbEntity
  8
0
100
AcDbPolyline
 62
2
  6
CONTINUOUS
 90
2
 70
0
 43
0.35
 10
173.4502285156
 20
52.4106386719
 10
175.8502265625
 20
52.4106386719
  0
LWPOLYLINE
  5
404
100
AcDbEntity
  8
0
100
AcDbPolyline
 62
2
  6
CONTINUOUS
 90
9
 70
0
 43
0.35
 10
176.8000078125
 20
48.4106401367
 10
176.4834140625
 20
49.7439711914
 10
177.6170371094
 20
55.0773061523
 10
178.500453125
 20
56.410637207
 10
179.7004628906
 20
56.410637207
 10
180.0170351562
 20
55.0773061523
 10
178.8834121094
 20
49.7439711914
 10
177.9999960937
 20
48.4106401367
 10
176.8000078125
 20
48.4106401367
  0
LWPOLYLINE
  5
405
100
AcDbEntity
  8
0
100
AcDbPolyline
 62
2
  6
CONTINUOUS
 90
3
 70
0
 43
0.35
 10
183.6336289063
 20
53.7439697266
 10
184.8004453125
 20
56.410637207
 10
183.1
 20
48.4106401367
  0
LWPOLYLINE
  5
406
100
AcDbEntity
  8
0
100
AcDbPolyline
 62
2
  6
CONTINUOUS
 90
2
 70
0
 43
0.35
 10
182.5000058594
 20
48.4106401367
 10
183.6999941406
 20
48.4106401367
  0
LINE
  5
407
100
AcDbEntity
  8
0
100
AcDbLine
 62
7
  6
CONTINUOUS
 10
85.0000017536
 20
19.9999991168
 11
155.0000017536
 21
19.9999991168
  0
LINE
  5
408
100
AcDbEntity
  8
0
100
AcDbLine
 62
7
  6
CONTINUOUS
 10
85.0000017536
 20
19.9999991168
 11
85.0000017536
 21
4.9999991168
  0
LINE
  5
409
100
AcDbEntity
  8
0
100
AcDbLine
 62
7
  6
CONTINUOUS
 10
85.0000017536
 20
4.9999991168
 11
155.0000017536
 21
4.9999991168
  0
LINE
  5
40A
100
AcDbEntity
  8
0
100
AcDbLine
 62
7
  6
CONTINUOUS
 10
155.0000017536
 20
19.9999991168
 11
155.0000017536
 21
4.9999991168
  0
LWPOLYLINE
  5
40B
100
AcDbEntity
  8
0
100
AcDbPolyline
 62
2
  6
CONTINUOUS
 90
8
 70
0
 43
0.35
 10
90.9999970703
 20
13.8333325195
 10
90.6249980469
 20
14.4999993896
 10
89.875
 20
14.4999993896
 10
89.5000009766
 20
13.8333325195
 10
89.5000009766
 20
11.1666657104
 10
89.875
 20
10.4999988403
 10
90.6249980469
 20
10.4999988403
 10
90.9999970703
 20
11.1666657104
  0
LWPOLYLINE
  5
40C
100
AcDbEntity
  8
0
100
AcDbPolyline
 62
2
  6
CONTINUOUS
 90
2
 70
0
 43
0.35
 10
92.5000039062
 20
10.4999988403
 10
92.5000039062
 20
13.1666656494
  0
LWPOLYLINE
  5
40D
100
AcDbEntity
  8
0
100
AcDbPolyline
 62
2
  6
CONTINUOUS
 90
4
 70
0
 43
0.35
 10
92.5000039062
 20
12.4999987793
 10
92.8750029297
 20
13.1666656494
 10
93.2500019531
 20
12.4999987793
 10
93.2500019531
 20
10.4999988403
  0
LWPOLYLINE
  5
40E
100
AcDbEntity
  8
0
100
AcDbPolyline
 62
2
  6
CONTINUOUS
 90
4
 70
0
 43
0.35
 10
93.2500019531
 20
12.4999987793
 10
93.6250009766
 20
13.1666656494
 10
94.0
 20
12.4999987793
 10
94.0
 20
10.4999988403
  0
LWPOLYLINE
  5
40F
100
AcDbEntity
  8
0
100
AcDbPolyline
 62
2
  6
CONTINUOUS
 90
8
 70
0
 43
0.35
 10
97.0000029297
 20
12.4999987793
 10
96.6250039062
 20
13.1666656494
 10
95.8750058594
 20
13.1666656494
 10
95.5000068359
 20
12.4999987793
 10
95.5000068359
 20
11.1666657104
 10
95.8750058594
 20
10.4999988403
 10
96.6250039062
 20
10.4999988403
 10
97.0000029297
 20
11.1666657104
  0
LWPOLYLINE
  5
410
100
AcDbEntity
  8
0
100
AcDbPolyline
 62
2
  6
CONTINUOUS
 90
3
 70
0
 43
0.35
 10
97.0000029297
 20
13.1666656494
 10
97.0000029297
 20
11.1666657104
 10
97.1874970703
 20
10.4999988403
  0
LWPOLYLINE
  5
411
100
AcDbEntity
  8
0
100
AcDbPolyline
 62
2
  6
CONTINUOUS
 90
3
 70
0
 43
0.35
 10
98.4999990234
 20
10.4999988403
 10
99.2499970703
 20
13.1666656494
 10
100.0000058594
 20
10.4999988403
  0
LWPOLYLINE
  5
412
100
AcDbEntity
  8
0
100
AcDbPolyline
 62
2
  6
CONTINUOUS
 90
9
 70
0
 43
0.35
 10
101.5000019531
 20
13.1666656494
 10
101.5000019531
 20
11.1666657104
 10
101.8750009766
 20
10.4999988403
 10
102.6249990234
 20
10.4999988403
 10
102.9999980469
 20
11.1666657104
 10
102.9999980469
 20
11.8333319092
 10
102.6249990234
 20
12.4999987793
 10
101.8750009766
 20
12.4999987793
 10
101.5000019531
 20
11.8333319092
  0
LWPOLYLINE
  5
413
100
AcDbEntity
  8
0
100
AcDbPolyline
 62
2
  6
CONTINUOUS
 90
10
 70
0
 43
0.35
 10
107.4999970703
 20
13.8333325195
 10
107.8750068359
 20
14.4999993896
 10
108.6250048828
 20
14.4999993896
 10
109.0000039062
 20
13.8333325195
 10
109.0000039062
 20
12.4999987793
 10
108.6250048828
 20
11.8333319092
 10
107.8750068359
 20
11.8333319092
 10
107.4999970703
 20
11.1666657104
 10
107.4999970703
 20
10.4999988403
 10
109.0000039062
 20
10.4999988403
  0
LWPOLYLINE
  5
414
100
AcDbEntity
  8
0
100
AcDbPolyline
 62
2
  6
CONTINUOUS
 90
9
 70
0
 43
0.35
 10
110.8750097656
 20
10.4999988403
 10
110.5
 20
11.1666657104
 10
110.5
 20
13.8333325195
 10
110.8750097656
 20
14.4999993896
 10
111.6250078125
 20
14.4999993896
 10
111.9999960937
 20
13.8333325195
 10
111.9999960937
 20
11.1666657104
 10
111.6250078125
 20
10.4999988403
 10
110.8750097656
 20
10.4999988403
  0
LWPOLYLINE
  5
415
100
AcDbEntity
  8
0
100
AcDbPolyline
 62
2
  6
CONTINUOUS
 90
3
 70
0
 43
0.35
 10
116.5000058594
 20
10.4999988403
 10
116.5000058594
 20
14.4999993896
 10
118.0000019531
 20
14.4999993896
  0
LWPOLYLINE
  5
416
100
AcDbEntity
  8
0
100
AcDbPolyline
 62
2
  6
CONTINUOUS
 90
9
 70
0
 43
0.35
 10
119.8750078125
 20
10.4999988403
 10
119.4999980469
 20
11.1666657104
 10
119.4999980469
 20
13.8333325195
 10
119.8750078125
 20
14.4999993896
 10
120.6250058594
 20
14.4999993896
 10
120.9999941406
 20
13.8333325195
 10
120.9999941406
 20
11.1666657104
 10
120.6250058594
 20
10.4999988403
 10
119.8750078125
 20
10.4999988403
  0
LWPOLYLINE
  5
417
100
AcDbEntity
  8
0
100
AcDbPolyline
 62
2
  6
CONTINUOUS
 90
8
 70
0
 43
0.35
 10
124.0000078125
 20
13.8333325195
 10
123.6249980469
 20
14.4999993896
 10
122.875
 20
14.4999993896
 10
122.5000117187
 20
13.8333325195
 10
122.5000117187
 20
11.1666657104
 10
122.875
 20
10.4999988403
 10
123.6249980469
 20
10.4999988403
 10
124.0000078125
 20
11.1666657104
  0
LWPOLYLINE
  5
418
100
AcDbEntity
  8
0
100
AcDbPolyline
 62
2
  6
CONTINUOUS
 90
2
 70
0
 43
0.35
 10
125.5000039062
 20
14.4999993896
 10
127.0
 20
14.4999993896
  0
LWPOLYLINE
  5
419
100
AcDbEntity
  8
0
100
AcDbPolyline
 62
2
  6
CONTINUOUS
 90
2
 70
0
 43
0.35
 10
126.2500019531
 20
14.4999993896
 10
126.2500019531
 20
10.4999988403
  0
LWPOLYLINE
  5
41A
100
AcDbEntity
  8
0
100
AcDbPolyline
 62
2
  6
CONTINUOUS
 90
3
 70
0
 43
0.35
 10
129.4375097656
 20
13.1666656494
 10
129.8124980469
 20
14.4999993896
 10
129.8124980469
 20
10.4999988403
  0
LWPOLYLINE
  5
41B
100
AcDbEntity
  8
0
100
AcDbPolyline
 62
2
  6
CONTINUOUS
 90
2
 70
0
 43
0.35
 10
129.4375097656
 20
10.4999988403
 10
130.1875078125
 20
10.4999988403
  0
LWPOLYLINE
  5
41C
100
AcDbEntity
  8
0
100
AcDbPolyline
 62
2
  6
CONTINUOUS
 90
9
 70
0
 43
0.35
 10
131.8749980469
 20
10.4999988403
 10
131.5000097656
 20
11.1666657104
 10
131.5000097656
 20
13.8333325195
 10
131.8749980469
 20
14.4999993896
 10
132.6249960937
 20
14.4999993896
 10
133.0000058594
 20
13.8333325195
 10
133.0000058594
 20
11.1666657104
 10
132.6249960937
 20
10.4999988403
 10
131.8749980469
 20
10.4999988403
  0
LWPOLYLINE
  5
41D
100
AcDbEntity
  8
0
100
AcDbPolyline
 62
2
  6
CONTINUOUS
 90
9
 70
0
 43
0.35
 10
134.5000019531
 20
11.1666657104
 10
134.8750117187
 20
10.4999988403
 10
135.6250097656
 20
10.4999988403
 10
135.9999980469
 20
11.1666657104
 10
135.9999980469
 20
12.4999987793
 10
135.6250097656
 20
13.1666656494
 10
134.5000019531
 20
13.1666656494
 10
134.5000019531
 20
14.4999993896
 10
135.9999980469
 20
14.4999993896
  0
LWPOLYLINE
  5
41E
100
AcDbEntity
  8
0
100
AcDbPolyline
 62
2
  6
CONTINUOUS
 90
9
 70
0
 43
0.35
 10
137.8750039062
 20
10.4999988403
 10
137.4999941406
 20
11.1666657104
 10
137.4999941406
 20
13.8333325195
 10
137.8750039062
 20
14.4999993896
 10
138.6250019531
 20
14.4999993896
 10
139.0000117187
 20
13.8333325195
 10
139.0000117187
 20
11.1666657104
 10
138.6250019531
 20
10.4999988403
 10
137.8750039062
 20
10.4999988403
  0
LWPOLYLINE
  5
41F
100
AcDbEntity
  8
0
100
AcDbPolyline
 62
2
  6
CONTINUOUS
 90
2
 70
0
 43
0.35
 10
141.2500058594
 20
12.4999987793
 10
142.7500019531
 20
12.4999987793
  0
LWPOLYLINE
  5
420
100
AcDbEntity
  8
0
100
AcDbPolyline
 62
2
  6
CONTINUOUS
 90
9
 70
0
 43
0.35
 10
143.8750097656
 20
10.4999988403
 10
144.6250078125
 20
10.4999988403
 10
144.9999960937
 20
11.1666657104
 10
144.9999960937
 20
11.8333319092
 10
144.6250078125
 20
12.4999987793
 10
143.8750097656
 20
12.4999987793
 10
143.5
 20
11.8333319092
 10
143.5
 20
11.1666657104
 10
143.8750097656
 20
10.4999988403
  0
LWPOLYLINE
  5
421
100
AcDbEntity
  8
0
100
AcDbPolyline
 62
2
  6
CONTINUOUS
 90
8
 70
0
 43
0.35
 10
144.6250078125
 20
12.4999987793
 10
144.9999960937
 20
13.1666656494
 10
144.9999960937
 20
13.8333325195
 10
144.6250078125
 20
14.4999993896
 10
143.8750097656
 20
14.4999993896
 10
143.5
 20
13.8333325195
 10
143.5
 20
13.1666656494
 10
143.8750097656
 20
12.4999987793
  0
LWPOLYLINE
  5
422
100
AcDbEntity
  8
0
100
AcDbPolyline
 62
2
  6
CONTINUOUS
 90
9
 70
0
 43
0.35
 10
146.8750019531
 20
10.4999988403
 10
147.625
 20
10.4999988403
 10
148.0000097656
 20
11.1666657104
 10
148.0000097656
 20
11.8333319092
 10
147.625
 20
12.4999987793
 10
146.8750019531
 20
12.4999987793
 10
146.4999921875
 20
11.8333319092
 10
146.4999921875
 20
11.1666657104
 10
146.8750019531
 20
10.4999988403
  0
LWPOLYLINE
  5
423
100
AcDbEntity
  8
0
100
AcDbPolyline
 62
2
  6
CONTINUOUS
 90
8
 70
0
 43
0.35
 10
147.625
 20
12.4999987793
 10
148.0000097656
 20
13.1666656494
 10
148.0000097656
 20
13.8333325195
 10
147.625
 20
14.4999993896
 10
146.8750019531
 20
14.4999993896
 10
146.4999921875
 20
13.8333325195
 10
146.4999921875
 20
13.1666656494
 10
146.8750019531
 20
12.4999987793
  0
INSERT
  5
424
100
AcDbEntity
  8
0
100
AcDbBlockReference
 62
2
  6
CONTINUOUS
  2
DRAW_BEZ_SNJATIA_BL0
 10
181.9163016209
 20
277.6388678839
  0
INSERT
  5
425
100
AcDbEntity
  8
0
100
AcDbBlockReference
 62
2
  6
CONTINUOUS
  2
BEZ_SNJATIA_NORM_BL1
 10
134.445081645
 20
259.5503276194
  0
INSERT
  5
426
100
AcDbEntity
  8
0
100
AcDbBlockReference
 62
2
  6
CONTINUOUS
  2
BEZ_SNJATIA_ROTE_BL2
 10
134.6244251612
 20
244.9313798482
  0
LINE
  5
427
100
AcDbEntity
  8
0
100
AcDbLine
 62
7
  6
CONTINUOUS
 10
-0.0
 20
0.0
 11
210.0
 21
0.0
  0
LINE
  5
428
100
AcDbEntity
  8
0
100
AcDbLine
 62
7
  6
CONTINUOUS
 10
205.0
 20
5.0
 11
20.0
 21
5.0
  0
LINE
  5
429
100
AcDbEntity
  8
0
100
AcDbLine
 62
7
  6
CONTINUOUS
 10
-0.0
 20
297.0
 11
-0.0
 21
0.0
  0
LINE
  5
42A
100
AcDbEntity
  8
0
100
AcDbLine
 62
7
  6
CONTINUOUS
 10
20.0
 20
5.0
 11
20.0
 21
292.3498994289
  0
LWPOLYLINE
  5
42B
100
AcDbEntity
  8
0
100
AcDbPolyline
 62
2
  6
CONTINUOUS
 90
5
 70
0
 43
0.3500000019
 10
80.4399755859
 20
73.0530678711
 10
80.2524814453
 20
73.0530678711
 10
80.2524814453
 20
73.3864033203
 10
80.4399755859
 20
73.3864033203
 10
80.4399755859
 20
73.0530678711
  0
LWPOLYLINE
  5
42C
100
AcDbEntity
  8
0
100
AcDbPolyline
 62
2
  6
CONTINUOUS
 90
6
 70
0
 43
0.3500000019
 10
58.8983125
 20
73.0530678711
 10
58.7108183594
 20
73.0530678711
 10
58.7108183594
 20
73.3864033203
 10
58.8983125
 20
73.3864033203
 10
58.8983125
 20
73.0530678711
 10
58.7108183594
 20
72.3864023438
  0
LWPOLYLINE
  5
42D
100
AcDbEntity
  8
0
100
AcDbPolyline
 62
2
  6
CONTINUOUS
 90
6
 70
0
 43
0.3500000019
 10
43.8983085937
 20
73.0530678711
 10
43.7108144531
 20
73.0530678711
 10
43.7108144531
 20
73.3864033203
 10
43.8983085937
 20
73.3864033203
 10
43.8983085937
 20
73.0530678711
 10
43.7108144531
 20
72.3864023438
  0
LWPOLYLINE
  5
42E
100
AcDbEntity
  8
0
100
AcDbPolyline
 62
2
  6
CONTINUOUS
 90
5
 70
0
 43
0.3500000019
 10
28.8983154297
 20
73.0530678711
 10
28.7108105469
 20
73.0530678711
 10
28.7108105469
 20
73.3864033203
 10
28.8983154297
 20
73.3864033203
 10
28.8983154297
 20
73.0530678711
  0
LWPOLYLINE
  5
42F
100
AcDbEntity
  8
0
100
AcDbPolyline
 62
2
  6
CONTINUOUS
 90
2
 70
0
 43
0.3500000019
 10
26.6483105469
 20
73.0530678711
 10
27.3983085937
 20
73.0530678711
  0
LWPOLYLINE
  5
430
100
AcDbEntity
  8
0
100
AcDbPolyline
 62
2
  6
CONTINUOUS
 90
2
 70
0
 43
0.3500000019
 10
38.6483115234
 20
73.0530678711
 10
39.3983095703
 20
73.0530678711
  0
LWPOLYLINE
  5
431
100
AcDbEntity
  8
0
100
AcDbPolyline
 62
2
  6
CONTINUOUS
 90
2
 70
0
 43
0.3500000019
 10
53.6483154297
 20
73.0530678711
 10
54.3983134766
 20
73.0530678711
  0
LWPOLYLINE
  5
432
100
AcDbEntity
  8
0
100
AcDbPolyline
 62
2
  6
CONTINUOUS
 90
2
 70
0
 43
0.3500000019
 10
64.7108134766
 20
73.0530678711
 10
68.7108173828
 20
73.0530678711
  0
LWPOLYLINE
  5
433
100
AcDbEntity
  8
0
100
AcDbPolyline
 62
2
  6
CONTINUOUS
 90
2
 70
0
 43
0.3500000019
 10
34.7108164062
 20
75.0530698242
 10
36.2108125
 20
75.0530698242
  0
LWPOLYLINE
  5
434
100
AcDbEntity
  8
0
100
AcDbPolyline
 62
2
  6
CONTINUOUS
 90
2
 70
0
 43
0.3500000019
 10
64.7108134766
 20
75.0530698242
 10
68.7108173828
 20
75.0530698242
  0
LWPOLYLINE
  5
435
100
AcDbEntity
  8
0
100
AcDbPolyline
 62
2
  6
CONTINUOUS
 90
2
 70
0
 43
0.3500000019
 10
69.3774775391
 20
75.7197353516
 10
70.5024853516
 20
75.7197353516
  0
LWPOLYLINE
  5
436
100
AcDbEntity
  8
0
100
AcDbPolyline
 62
2
  6
CONTINUOUS
 90
2
 70
0
 43
0.3500000019
 10
34.7108164062
 20
73.0530678711
 10
34.7108164062
 20
77.0530664063
  0
LWPOLYLINE
  5
437
100
AcDbEntity
  8
0
100
AcDbPolyline
 62
2
  6
CONTINUOUS
 90
2
 70
0
 43
0.3500000019
 10
36.2108125
 20
77.0530664063
 10
36.2108125
 20
73.0530678711
  0
LWPOLYLINE
  5
438
100
AcDbEntity
  8
0
100
AcDbPolyline
 62
2
  6
CONTINUOUS
 90
4
 70
0
 43
0.3500000019
 10
41.8358085937
 20
73.0530678711
 10
41.8358085937
 20
77.0530664063
 10
40.7108115234
 20
73.7197333984
 10
42.2108183594
 20
73.7197333984
  0
LWPOLYLINE
  5
439
100
AcDbEntity
  8
0
100
AcDbPolyline
 62
2
  6
CONTINUOUS
 90
2
 70
0
 43
0.3500000019
 10
49.7108095703
 20
77.0530664063
 10
49.7108095703
 20
73.0530678711
  0
LWPOLYLINE
  5
43A
100
AcDbEntity
  8
0
100
AcDbPolyline
 62
2
  6
CONTINUOUS
 90
4
 70
0
 43
0.3500000019
 10
56.8358125
 20
73.0530678711
 10
56.8358125
 20
77.0530664063
 10
55.7108154297
 20
73.7197333984
 10
57.2108115234
 20
73.7197333984
  0
LWPOLYLINE
  5
43B
100
AcDbEntity
  8
0
100
AcDbPolyline
 62
2
  6
CONTINUOUS
 90
3
 70
0
 43
0.3500000019
 10
26.6483105469
 20
75.7197353516
 10
27.0233095703
 20
77.0530664063
 10
27.0233095703
 20
73.0530678711
  0
LWPOLYLINE
  5
43C
100
AcDbEntity
  8
0
100
AcDbPolyline
 62
2
  6
CONTINUOUS
 90
2
 70
0
 43
0.3500000019
 10
66.7108154297
 20
77.0530664063
 10
66.7108154297
 20
73.0530678711
  0
LWPOLYLINE
  5
43D
100
AcDbEntity
  8
0
100
AcDbPolyline
 62
2
  6
CONTINUOUS
 90
4
 70
0
 43
0.3500000019
 10
69.7524765625
 20
77.0530664063
 10
69.7524765625
 20
73.7197333984
 10
70.1274755859
 20
73.0530678711
 10
70.5024853516
 20
73.7197333984
  0
LWPOLYLINE
  5
43E
100
AcDbEntity
  8
0
100
AcDbPolyline
 62
2
  6
CONTINUOUS
 90
3
 70
0
 43
0.3500000019
 10
38.6483115234
 20
75.7197353516
 10
39.0233105469
 20
77.0530664063
 10
39.0233105469
 20
73.0530678711
  0
LWPOLYLINE
  5
43F
100
AcDbEntity
  8
0
100
AcDbPolyline
 62
2
  6
CONTINUOUS
 90
3
 70
0
 43
0.3500000019
 10
53.6483154297
 20
75.7197353516
 10
54.0233144531
 20
77.0530664063
 10
54.0233144531
 20
73.0530678711
  0
LWPOLYLINE
  5
440
100
AcDbEntity
  8
0
100
AcDbPolyline
 62
2
  6
CONTINUOUS
 90
5
 70
0
 43
0.3500000019
 10
49.7108095703
 20
74.3864042969
 10
50.4608183594
 20
75.7197353516
 10
50.8358173828
 20
75.7197353516
 10
51.2108164062
 20
75.0530698242
 10
51.2108164062
 20
73.0530678711
  0
LWPOLYLINE
  5
441
100
AcDbEntity
  8
0
100
AcDbPolyline
 62
2
  6
CONTINUOUS
 90
2
 70
0
 43
0.3500000019
 10
74.2524755859
 20
73.0530678711
 10
75.7524824219
 20
77.0530664063
  0
LWPOLYLINE
  5
442
100
AcDbEntity
  8
0
100
AcDbPolyline
 62
2
  6
CONTINUOUS
 90
10
 70
0
 43
0.3500000019
 10
72.3774804687
 20
73.2614018555
 10
72.6118535156
 20
73.6780698242
 10
73.0806103516
 20
73.6780698242
 10
73.3149833984
 20
73.2614018555
 10
73.3149833984
 20
72.4280712891
 10
73.0806103516
 20
72.0114033203
 10
72.6118535156
 20
72.0114033203
 10
72.3774804687
 20
71.5947353516
 10
72.3774804687
 20
71.1780673828
 10
73.3149833984
 20
71.1780673828
  0
LWPOLYLINE
  5
443
100
AcDbEntity
  8
0
100
AcDbPolyline
 62
2
  6
CONTINUOUS
 90
10
 70
0
 43
0.3500000019
 10
77.2524785156
 20
76.3864008789
 10
77.6274775391
 20
77.0530664063
 10
78.3774755859
 20
77.0530664063
 10
78.7524853516
 20
76.3864008789
 10
78.7524853516
 20
75.0530698242
 10
78.3774755859
 20
74.3864042969
 10
77.6274775391
 20
74.3864042969
 10
77.2524785156
 20
73.7197333984
 10
77.2524785156
 20
73.0530678711
 10
78.7524853516
 20
73.0530678711
  0
LINE
  5
444
100
AcDbEntity
  8
0
100
AcDbLine
 62
7
  6
CONTINUOUS
 10
205.0
 20
5.0
 11
205.0
 21
292.3498994289
  0
LINE
  5
445
100
AcDbEntity
  8
0
100
AcDbLine
 62
7
  6
CONTINUOUS
 10
210.0
 20
297.0
 11
210.0
 21
0.0
  0
LINE
  5
446
100
AcDbEntity
  8
0
100
AcDbLine
 62
7
  6
CONTINUOUS
 10
205.0
 20
292.3498994289
 11
20.0
 21
292.3498994289
  0
LINE
  5
447
100
AcDbEntity
  8
0
100
AcDbLine
 62
7
  6
CONTINUOUS
 10
-0.0
 20
297.0
 11
210.0
 21
297.0
  0
LWPOLYLINE
  5
448
100
AcDbEntity
  8
0
100
AcDbPolyline
 62
7
  6
CONTINUOUS
 90
3
 70
0
 43
0.4999999847
 10
53.3558486328
 20
129.6489433594
 10
54.6683505859
 20
136.6489394531
 10
55.9808417969
 20
129.6489433594
  0
LWPOLYLINE
  5
449
100
AcDbEntity
  8
0
100
AcDbPolyline
 62
7
  6
CONTINUOUS
 90
2
 70
0
 43
0.4999999847
 10
54.0120996094
 20
131.9822753906
 10
55.3246015625
 20
131.9822753906
  0
LINE
  5
44A
100
AcDbEntity
  8
0
100
AcDbLine
 62
7
  6
CONTINUOUS
 10
82.0654527334
 20
202.8228258735
 11
82.0654527334
 21
142.8228258735
  0
LWPOLYLINE
  5
44B
100
AcDbEntity
  8
ALL_DIMENSIONS
100
AcDbPolyline
 62
2
  6
CONTINUOUS
 90
7
 70
0
 43
0.3500000019
 10
91.6864228516
 20
192.8430195313
 10
94.3558779297
 20
195.8219355469
 10
95.1937041016
 20
195.0711640625
 10
95.0280703125
 20
194.3244101563
 10
94.5831611328
 20
193.8279277344
 10
93.8589765625
 20
193.5816953125
 10
93.0211503906
 20
194.3324882813
  0
LWPOLYLINE
  5
44C
100
AcDbEntity
  8
ALL_DIMENSIONS
100
AcDbPolyline
 62
2
  6
CONTINUOUS
 90
2
 70
0
 43
0.3500000019
 10
87.0148818359
 20
187.6298789063
 10
88.7945185547
 20
189.6158300781
  0
LINE
  5
44D
100
AcDbEntity
  8
0
100
AcDbLine
 62
7
  6
CONTINUOUS
 10
82.0654527334
 20
142.8228258735
 11
142.0654527334
 21
142.8228258735
  0
LINE
  5
44E
100
AcDbEntity
  8
DEFAULT_1
100
AcDbLine
 62
7
  6
CENTER
 10
102.0654527334
 20
144.8228258735
 11
96.0710487527
 21
144.8228258735
  0
LINE
  5
44F
100
AcDbEntity
  8
DEFAULT_1
100
AcDbLine
 62
7
  6
CENTER
 10
68.3798529561
 20
144.8228258735
 11
61.2308471044
 21
144.8228258735
  0
LWPOLYLINE
  5
450
100
AcDbEntity
  8
ALL_DIMENSIONS
100
AcDbPolyline
 62
2
  6
CONTINUOUS
 90
8
 70
0
 43
0.3500000019
 10
91.7009033203
 20
186.11621875
 10
91.8665371094
 20
186.8629726563
 10
91.3079863281
 20
187.3634941406
 10
90.5838017578
 20
187.1172617188
 10
89.6939941406
 20
186.1242753906
 10
89.5283603516
 20
185.3775429688
 10
90.0869003906
 20
184.8770214844
 10
90.8110849609
 20
185.1232324219
  0
LWPOLYLINE
  5
451
100
AcDbEntity
  8
ALL_DIMENSIONS
100
AcDbPolyline
 62
2
  6
CONTINUOUS
 90
2
 70
0
 43
0.3500000019
 10
93.5797011719
 20
193.8319667969
 10
92.8035244141
 20
191.8419765625
  0
LWPOLYLINE
  5
452
100
AcDbEntity
  8
ALL_DIMENSIONS
100
AcDbPolyline
 62
2
  6
CONTINUOUS
 90
3
 70
0
 43
0.3500000019
 10
92.1458125
 20
186.6127011719
 10
90.8110849609
 20
185.1232324219
 10
90.5058134766
 20
184.501625
  0
LWPOLYLINE
  5
453
100
AcDbEntity
  8
ALL_DIMENSIONS
100
AcDbPolyline
 62
2
  6
CONTINUOUS
 90
3
 70
0
 43
0.3500000019
 10
96.3984404297
 20
192.2012167969
 10
97.5675341797
 20
192.943953125
 10
94.8980791016
 20
189.965015625
  0
LWPOLYLINE
  5
454
100
AcDbEntity
  8
ALL_DIMENSIONS
100
AcDbPolyline
 62
2
  6
CONTINUOUS
 90
4
 70
0
 43
0.3500000019
 10
88.349609375
 20
189.1193476563
 10
89.0737939453
 20
189.3655800781
 10
88.9081601562
 20
188.6188261719
 10
87.5734326172
 20
187.1293574219
  0
LWPOLYLINE
  5
455
100
AcDbEntity
  8
ALL_DIMENSIONS
100
AcDbPolyline
 62
2
  6
CONTINUOUS
 90
4
 70
0
 43
0.3500000019
 10
88.9081601562
 20
188.6188261719
 10
89.6323447266
 20
188.8650585938
 10
89.4667109375
 20
188.1183046875
 10
88.1319833984
 20
186.6288359375
  0
LWPOLYLINE
  5
456
100
AcDbEntity
  8
ALL_DIMENSIONS
100
AcDbPolyline
 62
2
  6
CONTINUOUS
 90
2
 70
0
 43
0.3500000019
 10
93.2629140625
 20
185.6116582031
 10
92.6003789063
 20
182.6246640625
  0
LWPOLYLINE
  5
457
100
AcDbEntity
  8
ALL_DIMENSIONS
100
AcDbPolyline
 62
2
  6
CONTINUOUS
 90
9
 70
0
 43
0.3500000019
 10
96.5997275391
 20
189.3353300781
 10
96.43409375
 20
188.5885761719
 10
96.9926445312
 20
188.0880546875
 10
97.7168291016
 20
188.3342871094
 10
98.6066474609
 20
189.3272519531
 10
98.77228125
 20
190.0740058594
 10
97.9344550781
 20
190.8247988281
 10
98.8242734375
 20
191.8177636719
 10
99.941375
 20
190.8167207031
  0
LWPOLYLINE
  5
458
100
AcDbEntity
  8
ALL_DIMENSIONS
100
AcDbPolyline
 62
2
  6
CONTINUOUS
 90
2
 70
0
 43
0.3500000019
 10
91.4832773437
 20
183.6257070313
 10
94.380015625
 20
184.6106152344
  0
LWPOLYLINE
  5
459
100
AcDbEntity
  8
0
100
AcDbPolyline
 62
7
  6
CONTINUOUS
 90
2
 70
0
 43
0.4999999847
 10
164.0657460937
 20
159.9822705078
 10
165.3782480469
 20
159.9822705078
  0
LINE
  5
45A
100
AcDbEntity
  8
DEFAULT_1
100
AcDbLine
 62
7
  6
CENTER
 10
102.0654527334
 20
144.8228258735
 11
102.0654527334
 21
148.3028835418
  0
LINE
  5
45B
100
AcDbEntity
  8
DEFAULT_1
100
AcDbLine
 62
7
  6
CENTER
 10
102.0654527334
 20
170.1245185246
 11
102.0654527334
 21
172.8228258735
  0
LINE
  5
45C
100
AcDbEntity
  8
ALL_ROUND
100
AcDbLine
 62
7
  6
CONTINUOUS
 10
105.0654527334
 20
176.8228258735
 11
105.0654527334
 21
168.8228258735
  0
LINE
  5
45D
100
AcDbEntity
  8
ALL_ROUND
100
AcDbLine
 62
7
  6
CONTINUOUS
 10
108.0654527334
 20
165.8228258735
 11
116.0654527334
 21
165.8228258735
  0
LINE
  5
45E
100
AcDbEntity
  8
DEFAULT_1
100
AcDbLine
 62
2
  6
CENTER
 10
112.0654527334
 20
172.8228258735
 11
112.0654527334
 21
137.7113789099
  0
LINE
  5
45F
100
AcDbEntity
  8
DEFAULT_1
100
AcDbLine
 62
2
  6
CENTER
 10
112.0654527334
 20
172.8228258735
 11
112.0654527334
 21
207.9342728372
  0
LINE
  5
460
100
AcDbEntity
  8
DEFAULT_1
100
AcDbLine
 62
7
  6
CENTER
 10
109.1044707656
 20
172.8228258735
 11
102.0654527334
 21
172.8228258735
  0
LINE
  5
461
100
AcDbEntity
  8
DEFAULT_1
100
AcDbLine
 62
2
  6
CENTER
 10
112.0654527334
 20
172.8228258735
 11
109.1044707656
 21
172.8228258735
  0
LINE
  5
462
100
AcDbEntity
  8
DEFAULT_1
100
AcDbLine
 62
2
  6
CENTER
 10
102.0654527334
 20
172.8228258735
 11
76.9540057698
 21
172.8228258735
  0
LINE
  5
463
100
AcDbEntity
  8
DEFAULT_1
100
AcDbLine
 62
2
  6
CENTER
 10
112.0654527334
 20
172.8228258735
 11
147.1768996971
 21
172.8228258735
  0
LWPOLYLINE
  5
464
100
AcDbEntity
  8
ALL_DIMENSIONS
100
AcDbPolyline
 62
2
  6
CONTINUOUS
 90
2
 70
0
 43
0.3500000019
 10
94.6188037109
 20
190.215265625
 10
95.1773544922
 20
189.7147441406
  0
LINE
  5
465
100
AcDbEntity
  8
ALL_ROUND
100
AcDbLine
 62
7
  6
CONTINUOUS
 10
119.0654527334
 20
168.8228258735
 11
119.0654527334
 21
176.8228258735
  0
LINE
  5
466
100
AcDbEntity
  8
ALL_ROUND
100
AcDbLine
 62
7
  6
CONTINUOUS
 10
116.0654527334
 20
179.8228258735
 11
108.0654527334
 21
179.8228258735
  0
LWPOLYLINE
  5
467
100
AcDbEntity
  8
0
100
AcDbPolyline
 62
2
  6
CONTINUOUS
 90
9
 70
0
 43
0.3500000019
 10
155.5772910156
 20
178.0157392578
 10
154.910609375
 20
177.6407402344
 10
152.2439472656
 20
177.6407402344
 10
151.5772871094
 20
178.0157392578
 10
151.5772871094
 20
178.7657480469
 10
152.2439472656
 20
179.1407470703
 10
154.910609375
 20
179.1407470703
 10
155.5772910156
 20
178.7657480469
 10
155.5772910156
 20
178.0157392578
  0
LWPOLYLINE
  5
468
100
AcDbEntity
  8
0
100
AcDbPolyline
 62
2
  6
CONTINUOUS
 90
9
 70
0
 43
0.3500000019
 10
155.5772910156
 20
175.0157470703
 10
154.910609375
 20
174.6407480469
 10
152.2439472656
 20
174.6407480469
 10
151.5772871094
 20
175.0157470703
 10
151.5772871094
 20
175.7657451172
 10
152.2439472656
 20
176.1407441406
 10
154.910609375
 20
176.1407441406
 10
155.5772910156
 20
175.7657451172
 10
155.5772910156
 20
175.0157470703
  0
LINE
  5
469
100
AcDbEntity
  8
0
100
AcDbLine
 62
7
  6
CONTINUOUS
 10
142.0654527334
 20
142.8228258735
 11
142.0654527334
 21
202.8228258735
  0
LINE
  5
46A
100
AcDbEntity
  8
0
100
AcDbLine
 62
7
  6
CONTINUOUS
 10
142.0654527334
 20
202.8228258735
 11
82.0654527334
 21
202.8228258735
  0
LWPOLYLINE
  5
46B
100
AcDbEntity
  8
0
100
AcDbPolyline
 62
2
  6
CONTINUOUS
 90
9
 70
0
 43
0.3500000019
 10
151.5772871094
 20
171.6407451172
 10
151.5772871094
 20
173.1407412109
 10
152.9106074219
 20
172.3907431641
 10
152.9106074219
 20
172.7657421875
 10
153.5772890625
 20
173.1407412109
 10
154.910609375
 20
173.1407412109
 10
155.5772910156
 20
172.7657421875
 10
155.5772910156
 20
172.0157441406
 10
154.910609375
 20
171.6407451172
  0
LWPOLYLINE
  5
46C
100
AcDbEntity
  8
0
100
AcDbPolyline
 62
2
  6
CONTINUOUS
 90
5
 70
0
 43
0.3500000019
 10
155.5772910156
 20
166.1407451172
 10
155.5772910156
 20
170.3074140625
 10
151.4106113281
 20
170.3074140625
 10
151.4106113281
 20
166.1407451172
 10
155.5772910156
 20
166.1407451172
  0
LWPOLYLINE
  5
46D
100
AcDbEntity
  8
0
100
AcDbPolyline
 62
7
  6
CONTINUOUS
 90
3
 70
0
 43
0.4999999847
 10
163.4095058594
 20
157.6489384766
 10
164.7220078125
 20
164.6489345703
 10
166.0345097656
 20
157.6489384766
  0
LINE
  5
46E
100
AcDbEntity
  8
0
100
AcDbLine
 62
7
  6
CONTINUOUS
 10
82.0654527334
 20
250.5563798482
 11
82.0654527334
 21
253.5563798482
  0
LWPOLYLINE
  5
46F
100
AcDbEntity
  8
0
100
AcDbPolyline
 62
2
  6
CONTINUOUS
 90
4
 70
0
 43
0.3500000019
 10
91.1832373047
 20
263.4183964844
 10
92.3082451172
 20
267.4183789063
 10
90.8082382812
 20
267.4183789063
 10
90.8082382812
 20
266.75171875
  0
LINE
  5
470
100
AcDbEntity
  8
0
100
AcDbLine
 62
2
  6
CONTINUOUS
 10
82.883055989
 20
253.5563798482
 11
82.0654527334
 21
252.7387765927
  0
LINE
  5
471
100
AcDbEntity
  8
0
100
AcDbLine
 62
2
  6
CONTINUOUS
 10
84.2972695514
 20
253.5563798482
 11
82.0654527334
 21
251.3245630303
  0
LINE
  5
472
100
AcDbEntity
  8
0
100
AcDbLine
 62
2
  6
CONTINUOUS
 10
85.7114831138
 20
253.5563798482
 11
82.7114831138
 21
250.5563798482
  0
LINE
  5
473
100
AcDbEntity
  8
0
100
AcDbLine
 62
2
  6
CONTINUOUS
 10
87.1256966761
 20
253.5563798482
 11
84.1256966761
 21
250.5563798482
  0
LWPOLYLINE
  5
474
100
AcDbEntity
  8
0
100
AcDbPolyline
 62
2
  6
CONTINUOUS
 90
13
 70
0
 43
0.3500000019
 10
91.5285878906
 20
244.9625019531
 10
91.8619179687
 20
245.9624921875
 10
92.5285888672
 20
246.6291523438
 10
93.5285898437
 20
246.9625039063
 10
94.5285908203
 20
246.6291523438
 10
95.1952509766
 20
245.9624921875
 10
95.5285917969
 20
244.9625019531
 10
95.1952509766
 20
243.9624902344
 10
94.5285908203
 20
243.2958300781
 10
93.5285898437
 20
242.9625
 10
92.5285888672
 20
243.2958300781
 10
91.8619179687
 20
243.9624902344
 10
91.5285878906
 20
244.9625019531
  0
LINE
  5
475
100
AcDbEntity
  8
0
100
AcDbLine
 62
2
  6
CONTINUOUS
 10
88.5399102385
 20
253.5563798482
 11
85.5399102385
 21
250.5563798482
  0
LINE
  5
476
100
AcDbEntity
  8
0
100
AcDbLine
 62
2
  6
CONTINUOUS
 10
89.9541238009
 20
253.5563798482
 11
86.9541238009
 21
250.5563798482
  0
LINE
  5
477
100
AcDbEntity
  8
0
100
AcDbLine
 62
2
  6
CONTINUOUS
 10
91.3683373632
 20
253.5563798482
 11
88.3683373632
 21
250.5563798482
  0
LINE
  5
478
100
AcDbEntity
  8
0
100
AcDbLine
 62
2
  6
CONTINUOUS
 10
92.7825509256
 20
253.5563798482
 11
89.7825509256
 21
250.5563798482
  0
LWPOLYLINE
  5
479
100
AcDbEntity
  8
0
100
AcDbPolyline
 62
2
  6
CONTINUOUS
 90
9
 70
0
 43
0.3500000019
 10
100.2369248047
 20
242.9625
 10
99.8619257812
 20
243.6291601563
 10
99.8619257812
 20
246.2958222656
 10
100.2369248047
 20
246.9625039063
 10
100.9869228516
 20
246.9625039063
 10
101.361921875
 20
246.2958222656
 10
101.361921875
 20
243.6291601563
 10
100.9869228516
 20
242.9625
 10
100.2369248047
 20
242.9625
  0
LWPOLYLINE
  5
47A
100
AcDbEntity
  8
0
100
AcDbPolyline
 62
2
  6
CONTINUOUS
 90
12
 70
0
 43
0.3500000019
 10
98.3619189453
 20
246.2958222656
 10
97.9869199219
 20
246.9625039063
 10
97.236921875
 20
246.9625039063
 10
96.8619228516
 20
246.2958222656
 10
96.8619228516
 20
243.6291601563
 10
97.236921875
 20
242.9625
 10
97.9869199219
 20
242.9625
 10
98.3619189453
 20
243.6291601563
 10
98.3619189453
 20
244.9625019531
 10
97.9869199219
 20
245.6291621094
 10
97.236921875
 20
245.6291621094
 10
96.8619228516
 20
244.9625019531
  0
LWPOLYLINE
  5
47B
100
AcDbEntity
  8
0
100
AcDbPolyline
 62
2
  6
CONTINUOUS
 90
2
 70
0
 43
0.3500000019
 10
91.8619179687
 20
241.9624882813
 10
95.1952509766
 20
247.9624941406
  0
LINE
  5
47C
100
AcDbEntity
  8
0
100
AcDbLine
 62
2
  6
CONTINUOUS
 10
94.196764488
 20
253.5563798482
 11
91.196764488
 21
250.5563798482
  0
LINE
  5
47D
100
AcDbEntity
  8
0
100
AcDbLine
 62
2
  6
CONTINUOUS
 10
95.6109780504
 20
253.5563798482
 11
92.6109780504
 21
250.5563798482
  0
LINE
  5
47E
100
AcDbEntity
  8
0
100
AcDbLine
 62
2
  6
CONTINUOUS
 10
97.0251916127
 20
253.5563798482
 11
94.0251916127
 21
250.5563798482
  0
LINE
  5
47F
100
AcDbEntity
  8
0
100
AcDbLine
 62
2
  6
CONTINUOUS
 10
98.4394051751
 20
253.5563798482
 11
95.4394051751
 21
250.5563798482
  0
LWPOLYLINE
  5
480
100
AcDbEntity
  8
0
100
AcDbPolyline
 62
2
  6
CONTINUOUS
 90
9
 70
0
 43
0.3500000019
 10
94.1832402344
 20
263.4183964844
 10
93.8082412109
 20
264.0850566406
 10
93.8082412109
 20
266.75171875
 10
94.1832402344
 20
267.4183789063
 10
94.9332382812
 20
267.4183789063
 10
95.3082373047
 20
266.75171875
 10
95.3082373047
 20
264.0850566406
 10
94.9332382812
 20
263.4183964844
 10
94.1832402344
 20
263.4183964844
  0
LWPOLYLINE
  5
481
100
AcDbEntity
  8
0
100
AcDbPolyline
 62
2
  6
CONTINUOUS
 90
3
 70
0
 43
0.4999999847
 10
108.0107988281
 20
274.7703964844
 10
109.3233007813
 20
281.7703925781
 10
110.6358027344
 20
274.7703964844
  0
LINE
  5
482
100
AcDbEntity
  8
0
100
AcDbLine
 62
2
  6
CONTINUOUS
 10
99.8536187375
 20
253.5563798482
 11
96.8536187375
 21
250.5563798482
  0
LINE
  5
483
100
AcDbEntity
  8
0
100
AcDbLine
 62
2
  6
CONTINUOUS
 10
101.2678322999
 20
253.5563798482
 11
98.2678322999
 21
250.5563798482
  0
LINE
  5
484
100
AcDbEntity
  8
0
100
AcDbLine
 62
7
  6
CONTINUOUS
 10
105.0654527334
 20
252.5563798482
 11
105.0654527334
 21
253.5563798482
  0
LINE
  5
485
100
AcDbEntity
  8
0
100
AcDbLine
 62
7
  6
CONTINUOUS
 10
106.0654527334
 20
252.5563798482
 11
106.0654527334
 21
250.5563798482
  0
LINE
  5
486
100
AcDbEntity
  8
0
100
AcDbLine
 62
2
  6
CONTINUOUS
 10
102.6820458622
 20
253.5563798482
 11
99.6820458622
 21
250.5563798482
  0
LINE
  5
487
100
AcDbEntity
  8
0
100
AcDbLine
 62
2
  6
CONTINUOUS
 10
104.0962594246
 20
253.5563798482
 11
101.0962594246
 21
250.5563798482
  0
LINE
  5
488
100
AcDbEntity
  8
0
100
AcDbLine
 62
2
  6
CONTINUOUS
 10
105.0654527334
 20
253.1113595947
 11
102.510472987
 21
250.5563798482
  0
LINE
  5
489
100
AcDbEntity
  8
0
100
AcDbLine
 62
2
  6
CONTINUOUS
 10
105.9246865494
 20
252.5563798482
 11
103.9246865494
 21
250.5563798482
  0
LINE
  5
48A
100
AcDbEntity
  8
0
100
AcDbLine
 62
2
  6
CONTINUOUS
 10
106.0654527334
 20
251.2829324699
 11
105.3389001117
 21
250.5563798482
  0
LINE
  5
48B
100
AcDbEntity
  8
DEFAULT_1
100
AcDbLine
 62
2
  6
CENTER
 10
112.0654527334
 20
249.0939377694
 11
112.0654527334
 21
255.4704533358
  0
LWPOLYLINE
  5
48C
100
AcDbEntity
  8
0
100
AcDbPolyline
 62
2
  6
CONTINUOUS
 90
9
 70
0
 43
0.3500000019
 10
123.956265625
 20
260.024015625
 10
124.6229257812
 20
260.3990039063
 10
124.6229257812
 20
261.1490019531
 10
123.956265625
 20
261.5240117188
 10
122.6229238281
 20
261.5240117188
 10
121.9562636719
 20
261.1490019531
 10
121.9562636719
 20
260.024015625
 10
120.622921875
 20
260.024015625
 10
120.622921875
 20
261.5240117188
  0
LINE
  5
48D
100
AcDbEntity
  8
0
100
AcDbLine
 62
7
  6
CONTINUOUS
 10
82.0654527334
 20
250.5563798482
 11
142.0654527334
 21
250.5563798482
  0
LWPOLYLINE
  5
48E
100
AcDbEntity
  8
0
100
AcDbPolyline
 62
2
  6
CONTINUOUS
 90
3
 70
0
 43
0.4999999847
 10
118.5107929688
 20
274.7703964844
 10
119.8232949219
 20
281.7703925781
 10
121.135796875
 20
274.7703964844
  0
LINE
  5
48F
100
AcDbEntity
  8
0
100
AcDbLine
 62
7
  6
CONTINUOUS
 10
105.0654527334
 20
252.5563798482
 11
119.0654527334
 21
252.5563798482
  0
LINE
  5
490
100
AcDbEntity
  8
0
100
AcDbLine
 62
7
  6
CONTINUOUS
 10
142.0654527334
 20
253.5563798482
 11
119.0654527334
 21
253.5563798482
  0
LINE
  5
491
100
AcDbEntity
  8
0
100
AcDbLine
 62
7
  6
CONTINUOUS
 10
82.0654527334
 20
253.5563798482
 11
105.0654527334
 21
253.5563798482
  0
LINE
  5
492
100
AcDbEntity
  8
ALL_ROUND
100
AcDbLine
 62
7
  6
CONTINUOUS
 10
105.0654527334
 20
253.5563798482
 11
119.0654527334
 21
253.5563798482
  0
LINE
  5
493
100
AcDbEntity
  8
0
100
AcDbLine
 62
7
  6
CONTINUOUS
 10
118.0654527334
 20
252.5563798482
 11
118.0654527334
 21
250.5563798482
  0
LINE
  5
494
100
AcDbEntity
  8
0
100
AcDbLine
 62
2
  6
CONTINUOUS
 10
119.6526086107
 20
253.5563798482
 11
119.0654527334
 21
252.969223971
  0
LINE
  5
495
100
AcDbEntity
  8
0
100
AcDbLine
 62
2
  6
CONTINUOUS
 10
118.6526086107
 20
252.5563798482
 11
118.0654527334
 21
251.969223971
  0
LINE
  5
496
100
AcDbEntity
  8
0
100
AcDbLine
 62
2
  6
CONTINUOUS
 10
121.0668221731
 20
253.5563798482
 11
118.0668221731
 21
250.5563798482
  0
LINE
  5
497
100
AcDbEntity
  8
ALL_ROUND
100
AcDbLine
 62
7
  6
CONTINUOUS
 10
119.0654527334
 20
253.5563798482
 11
119.0654527334
 21
252.5563798482
  0
LINE
  5
498
100
AcDbEntity
  8
0
100
AcDbLine
 62
7
  6
CONTINUOUS
 10
119.0654527334
 20
252.5563798482
 11
119.0654527334
 21
253.5563798482
  0
LINE
  5
499
100
AcDbEntity
  8
0
100
AcDbLine
 62
2
  6
CONTINUOUS
 10
122.4810357355
 20
253.5563798482
 11
119.4810357355
 21
250.5563798482
  0
LINE
  5
49A
100
AcDbEntity
  8
0
100
AcDbLine
 62
2
  6
CONTINUOUS
 10
123.8952492978
 20
253.5563798482
 11
120.8952492978
 21
250.5563798482
  0
LINE
  5
49B
100
AcDbEntity
  8
0
100
AcDbLine
 62
2
  6
CONTINUOUS
 10
125.3094628602
 20
253.5563798482
 11
122.3094628602
 21
250.5563798482
  0
LINE
  5
49C
100
AcDbEntity
  8
0
100
AcDbLine
 62
2
  6
CONTINUOUS
 10
126.7236764226
 20
253.5563798482
 11
123.7236764226
 21
250.5563798482
  0
LWPOLYLINE
  5
49D
100
AcDbEntity
  8
0
100
AcDbPolyline
 62
2
  6
CONTINUOUS
 90
9
 70
0
 43
0.3500000019
 10
147.710765625
 20
262.3596464844
 10
148.3774472656
 20
262.7346347656
 10
148.3774472656
 20
263.4846328125
 10
147.710765625
 20
263.8596425781
 10
146.3774453125
 20
263.8596425781
 10
145.7107851562
 20
263.4846328125
 10
145.7107851562
 20
262.3596464844
 10
144.3774433594
 20
262.3596464844
 10
144.3774433594
 20
263.8596425781
  0
LINE
  5
49E
100
AcDbEntity
  8
0
100
AcDbLine
 62
2
  6
CONTINUOUS
 10
128.1378899849
 20
253.5563798482
 11
125.1378899849
 21
250.5563798482
  0
LINE
  5
49F
100
AcDbEntity
  8
0
100
AcDbLine
 62
2
  6
CONTINUOUS
 10
129.5521035473
 20
253.5563798482
 11
126.5521035473
 21
250.5563798482
  0
LWPOLYLINE
  5
4A0
100
AcDbEntity
  8
0
100
AcDbPolyline
 62
2
  6
CONTINUOUS
 90
5
 70
0
 43
0.3500000019
 10
85.3082382812
 20
263.4183964844
 10
89.4749072266
 20
263.4183964844
 10
89.4749072266
 20
267.5850546875
 10
85.3082382812
 20
267.5850546875
 10
85.3082382812
 20
263.4183964844
  0
LINE
  5
4A1
100
AcDbEntity
  8
0
100
AcDbLine
 62
2
  6
CONTINUOUS
 10
130.9663171097
 20
253.5563798482
 11
127.9663171097
 21
250.5563798482
  0
LINE
  5
4A2
100
AcDbEntity
  8
0
100
AcDbLine
 62
2
  6
CONTINUOUS
 10
132.3805306721
 20
253.5563798482
 11
129.3805306721
 21
250.5563798482
  0
LINE
  5
4A3
100
AcDbEntity
  8
0
100
AcDbLine
 62
2
  6
CONTINUOUS
 10
133.7947442344
 20
253.5563798482
 11
130.7947442344
 21
250.5563798482
  0
LINE
  5
4A4
100
AcDbEntity
  8
0
100
AcDbLine
 62
2
  6
CONTINUOUS
 10
135.2089577968
 20
253.5563798482
 11
132.2089577968
 21
250.5563798482
  0
LINE
  5
4A5
100
AcDbEntity
  8
0
100
AcDbLine
 62
2
  6
CONTINUOUS
 10
136.6231713592
 20
253.5563798482
 11
133.6231713592
 21
250.5563798482
  0
LINE
  5
4A6
100
AcDbEntity
  8
0
100
AcDbLine
 62
2
  6
CONTINUOUS
 10
138.0373849216
 20
253.5563798482
 11
135.0373849216
 21
250.5563798482
  0
LWPOLYLINE
  5
4A7
100
AcDbEntity
  8
0
100
AcDbPolyline
 62
2
  6
CONTINUOUS
 90
3
 70
0
 43
0.3500000019
 10
145.7107851562
 20
260.2971464844
 10
144.3774433594
 20
260.6721347656
 10
148.3774472656
 20
260.6721347656
  0
LINE
  5
4A8
100
AcDbEntity
  8
0
100
AcDbLine
 62
2
  6
CONTINUOUS
 10
139.4515984839
 20
253.5563798482
 11
136.4515984839
 21
250.5563798482
  0
LINE
  5
4A9
100
AcDbEntity
  8
0
100
AcDbLine
 62
2
  6
CONTINUOUS
 10
140.8658120463
 20
253.5563798482
 11
137.8658120463
 21
250.5563798482
  0
LINE
  5
4AA
100
AcDbEntity
  8
0
100
AcDbLine
 62
2
  6
CONTINUOUS
 10
142.0654527334
 20
253.341806973
 11
139.2800256087
 21
250.5563798482
  0
LINE
  5
4AB
100
AcDbEntity
  8
0
100
AcDbLine
 62
2
  6
CONTINUOUS
 10
142.0654527334
 20
251.9275934106
 11
140.6942391711
 21
250.5563798482
  0
LWPOLYLINE
  5
4AC
100
AcDbEntity
  8
0
100
AcDbPolyline
 62
2
  6
CONTINUOUS
 90
2
 70
0
 43
0.4999999847
 10
108.6670498047
 20
277.1037285156
 10
109.9795410156
 20
277.1037285156
  0
LWPOLYLINE
  5
4AD
100
AcDbEntity
  8
0
100
AcDbPolyline
 62
2
  6
CONTINUOUS
 90
2
 70
0
 43
0.4999999847
 10
119.1670546875
 20
277.1037285156
 10
120.4795351562
 20
277.1037285156
  0
LWPOLYLINE
  5
4AE
100
AcDbEntity
  8
0
100
AcDbPolyline
 62
2
  6
CONTINUOUS
 90
2
 70
0
 43
0.4999999847
 10
114.5732871094
 20
278.2703945313
 10
117.1982910156
 20
278.2703945313
  0
LINE
  5
4AF
100
AcDbEntity
  8
0
100
AcDbLine
 62
7
  6
CONTINUOUS
 10
142.0654527334
 20
250.5563798482
 11
142.0654527334
 21
253.5563798482
  0
LWPOLYLINE
  5
4B0
100
AcDbEntity
  8
0
100
AcDbPolyline
 62
2
  6
CONTINUOUS
 90
2
 70
0
 43
0.3500000019
 10
148.3774472656
 20
260.2971464844
 10
148.3774472656
 20
261.0471445313
  0
CIRCLE
  5
4B1
100
AcDbEntity
  8
0
100
AcDbCircle
 62
7
  6
CONTINUOUS
 10
112.0654527334
 20
172.8228258735
 40
6.0
  0
ARC
  5
4B2
100
AcDbEntity
  8
ALL_ROUND
100
AcDbCircle
 62
7
  6
CONTINUOUS
 10
108.0654527334
 20
168.8228258735
 40
3.0
100
AcDbArc
 50
180.0
 51
270.0
  0
ARC
  5
4B3
100
AcDbEntity
  8
ALL_ROUND
100
AcDbCircle
 62
7
  6
CONTINUOUS
 10
116.0654527334
 20
168.8228258735
 40
3.0
100
AcDbArc
 50
270.0
 51
360.0
  0
ARC
  5
4B4
100
AcDbEntity
  8
ALL_ROUND
100
AcDbCircle
 62
7
  6
CONTINUOUS
 10
108.0654527334
 20
176.8228258735
 40
3.0
100
AcDbArc
 50
90.0
 51
180.0
  0
ARC
  5
4B5
100
AcDbEntity
  8
ALL_ROUND
100
AcDbCircle
 62
7
  6
CONTINUOUS
 10
116.0654527334
 20
176.8228258735
 40
3.0
100
AcDbArc
 50
0.0
 51
90.0
  0
ENDSEC
  0
SECTION
  2
OBJECTS
  0
DICTIONARY
  5
C
100
AcDbDictionary
280
0
281
1
  3
ACAD_GROUP
350
D
  3
ACAD_MLINESTYLE
350
17
  3
ACAD_LAYOUT
350
1A
  3
ACAD_PLOTSETTINGS
350
19
  3
ACAD_PLOTSTYLENAME
350
E
  0
DICTIONARY
  5
D
102
{ACAD_REACTORS
330
C
102
}
100
AcDbDictionary
280
0
281
1
  0
ACDBDICTIONARYWDFLT
  5
E
102
{ACAD_REACTORS
330
C
102
}
100
AcDbDictionary
281
1
  3
Normal
350
F
100
AcDbDictionaryWithDefault
340
F
  0
DICTIONARY
  5
17
102
{ACAD_REACTORS
330
C
102
}
100
AcDbDictionary
280
0
281
1
  3
Standard
350
18
  0
DICTIONARY
  5
19
102
{ACAD_REACTORS
330
C
102
}
100
AcDbDictionary
281
1
  0
DICTIONARY
  5
1A
102
{ACAD_REACTORS
330
C
102
}
100
AcDbDictionary
281
1
  3
Layout1
350
1E
  3
Model
350
22
  0
ACDBPLACEHOLDER
  5
F
102
{ACAD_REACTORS
330
E
102
}
  0
MLINESTYLE
  5
18
102
{ACAD_REACTORS
330
17
102
}
100
AcDbMlineStyle
  2
STANDARD
 70
0
  3

 62
256
 51
90.0
 52
90.0
 71
2
 49
0.5
 62
256
  6
BYLAYER
 49
-0.5
 62
256
  6
BYLAYER
  0
LAYOUT
  5
1E
102
{ACAD_REACTORS
330
1A
102
}
100
AcDbPlotSettings
  1

  2

  4

  6

 40
0.0
 41
0.0
 42
0.0
 43
0.0
 44
0.0
 45
0.0
 46
0.0
 47
0.0
 48
0.0
 49
0.0
140
0.0
141
0.0
142
1.0
143
1.0
 70
0
 72
0
 73
0
 74
0
  7

 75
0
147
1.0
148
0.0
149
0.0
100
AcDbLayout
  1
Layout1
 70
0
 71
0
 10
0.0
 20
0.0
 11
0.0
 21
0.0
 12
0.0
 22
0.0
 32
0.0
 14
0.0
 24
0.0
 34
0.0
 15
0.0
 25
0.0
 35
0.0
146
0.0
 13
0.0
 23
0.0
 33
0.0
 16
0.0
 26
0.0
 36
0.0
 17
0.0
 27
0.0
 37
0.0
 76
0
330
1B
331
0
345
0
346
0
  0
LAYOUT
  5
22
102
{ACAD_REACTORS
330
1A
102
}
100
AcDbPlotSettings
  1

  2

  4

  6

 40
0.0
 41
0.0
 42
0.0
 43
0.0
 44
0.0
 45
0.0
 46
0.0
 47
0.0
 48
0.0
 49
0.0
140
0.0
141
0.0
142
1.0
143
1.0
 70
0
 72
0
 73
0
 74
0
  7

 75
0
147
1.0
148
0.0
149
0.0
100
AcDbLayout
  1
Model
 70
0
 71
0
 10
0.0
 20
0.0
 11
0.0
 21
0.0
 12
0.0
 22
0.0
 32
0.0
 14
0.0
 24
0.0
 34
0.0
 15
0.0
 25
0.0
 35
0.0
146
0.0
 13
0.0
 23
0.0
 33
0.0
 16
0.0
 26
0.0
 36
0.0
 17
0.0
 27
0.0
 37
0.0
 76
0
330
1F
331
0
345
0
346
0
  0
ENDSEC
  0
EOF
