  0
SECTION
  2
HEADER
  9
$ACADVER
  1
AC1021
  9
$ACADMAINTVER
 70
     1
  9
$DWGCODEPAGE
  3
ANSI_1251
  9
$LASTSAVEDBY
  1
vzhur
  9
$INSBASE
 10
0.0
 20
0.0
 30
0.0
  9
$EXTMIN
 10
0.0
 20
0.0
 30
0.0
  9
$EXTMAX
 10
210.0
 20
297.0
 30
0.0
  9
$LIMMIN
 10
0.0
 20
0.0
  9
$LIMMAX
 10
210.0
 20
297.0
  9
$ORTHOMODE
 70
     0
  9
$REGENMODE
 70
     1
  9
$FILLMODE
 70
     1
  9
$QTEXTMODE
 70
     0
  9
$MIRRTEXT
 70
     0
  9
$LTSCALE
 40
19.36
  9
$ATTMODE
 70
     1
  9
$TEXTSIZE
 40
0.2
  9
$TRACEWID
 40
0.05
  9
$TEXTSTYLE
  7
STANDARD
  9
$CLAYER
  8
0
  9
$CELTYPE
  6
BYLAYER
  9
$CECOLOR
 62
   256
  9
$CELTSCALE
 40
1.0
  9
$DISPSILH
 70
     0
  9
$DIMSCALE
 40
1.0
  9
$DIMASZ
 40
5.0
  9
$DIMEXO
 40
2.2
  9
$DIMDLI
 40
13.376
  9
$DIMRND
 40
0.0
  9
$DIMDLE
 40
0.0
  9
$DIMEXE
 40
6.336
  9
$DIMTP
 40
0.00004
  9
$DIMTM
 40
0.00004
  9
$DIMTXT
 40
4.0
  9
$DIMCEN
 40
3.168
  9
$DIMTSZ
 40
0.0
  9
$DIMTOL
 70
     1
  9
$DIMLIM
 70
     0
  9
$DIMTIH
 70
     1
  9
$DIMTOH
 70
     1
  9
$DIMSE1
 70
     0
  9
$DIMSE2
 70
     0
  9
$DIMTAD
 70
     0
  9
$DIMZIN
 70
     0
  9
$DIMBLK
  1

  9
$DIMASO
 70
     1
  9
$DIMSHO
 70
     1
  9
$DIMPOST
  1

  9
$DIMAPOST
  1

  9
$DIMALT
 70
     0
  9
$DIMALTD
 70
     2
  9
$DIMALTF
 40
25.4
  9
$DIMLFAC
 40
1.0
  9
$DIMTOFL
 70
     0
  9
$DIMTVP
 40
0.0
  9
$DIMTIX
 70
     0
  9
$DIMSOXD
 70
     0
  9
$DIMSAH
 70
     0
  9
$DIMBLK1
  1

  9
$DIMBLK2
  1

  9
$DIMSTYLE
  2
STANDARD
  9
$DIMCLRD
 70
     0
  9
$DIMCLRE
 70
     0
  9
$DIMCLRT
 70
     0
  9
$DIMTFAC
 40
1.0
  9
$DIMGAP
 40
0.09
  9
$DIMJUST
 70
     0
  9
$DIMSD1
 70
     0
  9
$DIMSD2
 70
     0
  9
$DIMTOLJ
 70
     1
  9
$DIMTZIN
 70
     0
  9
$DIMALTZ
 70
     0
  9
$DIMALTTZ
 70
     0
  9
$DIMUPT
 70
     0
  9
$DIMDEC
 70
     4
  9
$DIMTDEC
 70
     4
  9
$DIMALTU
 70
     2
  9
$DIMALTTD
 70
     2
  9
$DIMTXSTY
  7
STANDARD
  9
$DIMAUNIT
 70
     0
  9
$DIMADEC
 70
     0
  9
$DIMALTRND
 40
0.0
  9
$DIMAZIN
 70
     0
  9
$DIMDSEP
 70
    46
  9
$DIMATFIT
 70
     3
  9
$DIMFRAC
 70
     0
  9
$DIMLDRBLK
  1

  9
$DIMLUNIT
 70
     2
  9
$DIMLWD
 70
    -2
  9
$DIMLWE
 70
    -2
  9
$DIMTMOVE
 70
     0
  9
$DIMFXL
 40
1.0
  9
$DIMFXLON
 70
     0
  9
$DIMJOGANG
 40
0.7853981633974483
  9
$DIMTFILL
 70
     0
  9
$DIMTFILLCLR
 70
     0
  9
$DIMARCSYM
 70
     0
  9
$DIMLTYPE
  6

  9
$DIMLTEX1
  6

  9
$DIMLTEX2
  6

  9
$LUNITS
 70
     2
  9
$LUPREC
 70
     4
  9
$SKETCHINC
 40
0.1
  9
$FILLETRAD
 40
0.0
  9
$AUNITS
 70
     0
  9
$AUPREC
 70
     0
  9
$MENU
  1
.
  9
$ELEVATION
 40
0.0
  9
$PELEVATION
 40
0.0
  9
$THICKNESS
 40
0.0
  9
$LIMCHECK
 70
     0
  9
$CHAMFERA
 40
0.0
  9
$CHAMFERB
 40
0.0
  9
$CHAMFERC
 40
0.0
  9
$CHAMFERD
 40
0.0
  9
$SKPOLY
 70
     0
  9
$TDCREATE
 40
2455574.688111795
  9
$TDUCREATE
 40
2455574.563111794
  9
$TDUPDATE
 40
2455574.691924190
  9
$TDUUPDATE
 40
2455574.566924190
  9
$TDINDWG
 40
0.0038134722
  9
$TDUSRTIMER
 40
0.0038134722
  9
$USRTIMER
 70
     1
  9
$ANGBASE
 50
0.0
  9
$ANGDIR
 70
     0
  9
$PDMODE
 70
     3
  9
$PDSIZE
 40
0.3125
  9
$PLINEWID
 40
0.0
  9
$SPLFRAME
 70
     0
  9
$SPLINETYPE
 70
     6
  9
$SPLINESEGS
 70
     8
  9
$HANDSEED
  5
3E1
  9
$SURFTAB1
 70
     6
  9
$SURFTAB2
 70
     6
  9
$SURFTYPE
 70
     6
  9
$SURFU
 70
     6
  9
$SURFV
 70
     6
  9
$UCSBASE
  2

  9
$UCSNAME
  2

  9
$UCSORG
 10
0.0
 20
0.0
 30
0.0
  9
$UCSXDIR
 10
1.0
 20
0.0
 30
0.0
  9
$UCSYDIR
 10
0.0
 20
1.0
 30
0.0
  9
$UCSORTHOREF
  2

  9
$UCSORTHOVIEW
 70
     0
  9
$UCSORGTOP
 10
0.0
 20
0.0
 30
0.0
  9
$UCSORGBOTTOM
 10
0.0
 20
0.0
 30
0.0
  9
$UCSORGLEFT
 10
0.0
 20
0.0
 30
0.0
  9
$UCSORGRIGHT
 10
0.0
 20
0.0
 30
0.0
  9
$UCSORGFRONT
 10
0.0
 20
0.0
 30
0.0
  9
$UCSORGBACK
 10
0.0
 20
0.0
 30
0.0
  9
$PUCSBASE
  2

  9
$PUCSNAME
  2

  9
$PUCSORG
 10
0.0
 20
0.0
 30
0.0
  9
$PUCSXDIR
 10
1.0
 20
0.0
 30
0.0
  9
$PUCSYDIR
 10
0.0
 20
1.0
 30
0.0
  9
$PUCSORTHOREF
  2

  9
$PUCSORTHOVIEW
 70
     0
  9
$PUCSORGTOP
 10
0.0
 20
0.0
 30
0.0
  9
$PUCSORGBOTTOM
 10
0.0
 20
0.0
 30
0.0
  9
$PUCSORGLEFT
 10
0.0
 20
0.0
 30
0.0
  9
$PUCSORGRIGHT
 10
0.0
 20
0.0
 30
0.0
  9
$PUCSORGFRONT
 10
0.0
 20
0.0
 30
0.0
  9
$PUCSORGBACK
 10
0.0
 20
0.0
 30
0.0
  9
$USERI1
 70
     0
  9
$USERI2
 70
     0
  9
$USERI3
 70
     0
  9
$USERI4
 70
     0
  9
$USERI5
 70
     0
  9
$USERR1
 40
0.0
  9
$USERR2
 40
0.0
  9
$USERR3
 40
0.0
  9
$USERR4
 40
0.0
  9
$USERR5
 40
0.0
  9
$WORLDVIEW
 70
     1
  9
$SHADEDGE
 70
     3
  9
$SHADEDIF
 70
    70
  9
$TILEMODE
 70
     1
  9
$MAXACTVP
 70
    64
  9
$PINSBASE
 10
0.0
 20
0.0
 30
0.0
  9
$PLIMCHECK
 70
     0
  9
$PEXTMIN
 10
1.000000000000000E+20
 20
1.000000000000000E+20
 30
1.000000000000000E+20
  9
$PEXTMAX
 10
-1.000000000000000E+20
 20
-1.000000000000000E+20
 30
-1.000000000000000E+20
  9
$PLIMMIN
 10
0.0
 20
0.0
  9
$PLIMMAX
 10
12.0
 20
9.0
  9
$UNITMODE
 70
     0
  9
$VISRETAIN
 70
     1
  9
$PLINEGEN
 70
     0
  9
$PSLTSCALE
 70
     1
  9
$TREEDEPTH
 70
  3020
  9
$CMLSTYLE
  2
Standard
  9
$CMLJUST
 70
     0
  9
$CMLSCALE
 40
1.0
  9
$PROXYGRAPHICS
 70
     1
  9
$MEASUREMENT
 70
     1
  9
$CELWEIGHT
370
    -1
  9
$ENDCAPS
280
     0
  9
$JOINSTYLE
280
     0
  9
$LWDISPLAY
290
     0
  9
$INSUNITS
 70
     4
  9
$HYPERLINKBASE
  1

  9
$STYLESHEET
  1

  9
$XEDIT
290
     1
  9
$CEPSNTYPE
380
     0
  9
$PSTYLEMODE
290
     1
  9
$FINGERPRINTGUID
  2
{718A036F-1694-44E7-989E-97496A561BEA}
  9
$VERSIONGUID
  2
{03AC853F-0670-4319-8332-0B64458D02A4}
  9
$EXTNAMES
290
     1
  9
$PSVPSCALE
 40
0.0
  9
$OLESTARTUP
290
     0
  9
$SORTENTS
280
   127
  9
$INDEXCTL
280
     0
  9
$HIDETEXT
280
     0
  9
$XCLIPFRAME
290
     0
  9
$HALOGAP
280
     0
  9
$OBSCOLOR
 70
   257
  9
$OBSLTYPE
280
     0
  9
$INTERSECTIONDISPLAY
280
     0
  9
$INTERSECTIONCOLOR
 70
   257
  9
$DIMASSOC
280
     1
  9
$PROJECTNAME
  1

  9
$CAMERADISPLAY
290
     0
  9
$LENSLENGTH
 40
50.0
  9
$CAMERAHEIGHT
 40
0.0
  9
$STEPSPERSEC
 40
2.0
  9
$STEPSIZE
 40
6.0
  9
$3DDWFPREC
 40
2.0
  9
$PSOLWIDTH
 40
0.25
  9
$PSOLHEIGHT
 40
4.0
  9
$LOFTANG1
 40
1.570796326794896
  9
$LOFTANG2
 40
1.570796326794896
  9
$LOFTMAG1
 40
0.0
  9
$LOFTMAG2
 40
0.0
  9
$LOFTPARAM
 70
     7
  9
$LOFTNORMALS
280
     1
  9
$LATITUDE
 40
37.795
  9
$LONGITUDE
 40
-122.394
  9
$NORTHDIRECTION
 40
0.0
  9
$TIMEZONE
 70
 -8000
  9
$LIGHTGLYPHDISPLAY
280
     1
  9
$TILEMODELIGHTSYNCH
280
     1
  9
$CMATERIAL
347
3B5
  9
$SOLIDHIST
280
     1
  9
$SHOWHIST
280
     1
  9
$DWFFRAME
280
     2
  9
$DGNFRAME
280
     0
  9
$REALWORLDSCALE
290
     1
  9
$INTERFERECOLOR
 62
     1
  9
$INTERFEREOBJVS
345
3C2
  9
$INTERFEREVPVS
346
3BF
  9
$CSHADOW
280
     0
  9
$SHADOWPLANELOCATION
 40
0.0
  0
ENDSEC
  0
SECTION
  2
CLASSES
  0
CLASS
  1
ACDBDICTIONARYWDFLT
  2
AcDbDictionaryWithDefault
  3
ObjectDBX Classes
 90
        0
 91
        1
280
     0
281
     0
  0
CLASS
  1
MATERIAL
  2
AcDbMaterial
  3
ObjectDBX Classes
 90
     1024
 91
        3
280
     0
281
     0
  0
CLASS
  1
VISUALSTYLE
  2
AcDbVisualStyle
  3
ObjectDBX Classes
 90
     4095
 91
       16
280
     0
281
     0
  0
CLASS
  1
TABLESTYLE
  2
AcDbTableStyle
  3
ObjectDBX Classes
 90
     4095
 91
        1
280
     0
281
     0
  0
CLASS
  1
DICTIONARYVAR
  2
AcDbDictionaryVar
  3
ObjectDBX Classes
 90
        0
 91
        1
280
     0
281
     0
  0
ENDSEC
  0
SECTION
  2
TABLES
  0
TABLE
  2
VPORT
  5
8
330
0
100
AcDbSymbolTable
 70
     1
  0
VPORT
  5
1F4
330
8
100
AcDbSymbolTableRecord
100
AcDbViewportTableRecord
  2
*ACTIVE
 70
     0
 10
0.0
 20
0.0
 11
1.0
 21
1.0
 12
231.3023560165924
 22
148.5
 13
0.0
 23
0.0
 14
1.0
 24
1.0
 15
0.0
 25
0.0
 16
0.0
 26
0.0
 36
1.0
 17
0.0
 27
0.0
 37
0.0
 40
297.0
 41
1.557591623036649
 42
50.0
 43
0.0
 44
0.0
 50
0.0
 51
0.0
 71
     0
 72
   100
 73
     1
 74
     1
 75
     0
 76
     0
 77
     0
 78
     0
281
     0
 65
     1
110
0.0
120
0.0
130
0.0
111
1.0
121
0.0
131
0.0
112
0.0
122
1.0
132
0.0
 79
     0
146
0.0
348
3BE
 60
     3
 61
     5
292
     1
282
     1
141
0.0
142
0.0
 63
   250
421
  3355443
  0
ENDTAB
  0
TABLE
  2
LTYPE
  5
5
330
0
100
AcDbSymbolTable
 70
     6
  0
LTYPE
  5
14
330
5
100
AcDbSymbolTableRecord
100
AcDbLinetypeTableRecord
  2
BYBLOCK
 70
     0
  3

 72
    65
 73
     0
 40
0.0
  0
LTYPE
  5
15
330
5
100
AcDbSymbolTableRecord
100
AcDbLinetypeTableRecord
  2
BYLAYER
 70
     0
  3

 72
    65
 73
     0
 40
0.0
  0
LTYPE
  5
16
330
5
100
AcDbSymbolTableRecord
100
AcDbLinetypeTableRecord
  2
CONTINUOUS
 70
     0
  3
Solid line
 72
    65
 73
     0
 40
0.0
  0
LTYPE
  5
1F5
330
5
100
AcDbSymbolTableRecord
100
AcDbLinetypeTableRecord
  2
CENTER
 70
     0
  3
____ _ ____ _ ____ _ ____ _ ____ _ ____ _ ____
 72
    65
 73
     4
 40
0.6
 49
0.375
 74
     0
 49
-0.075
 74
     0
 49
0.075
 74
     0
 49
-0.075
 74
     0
  0
LTYPE
  5
1F6
330
5
100
AcDbSymbolTableRecord
100
AcDbLinetypeTableRecord
  2
HIDDEN
 70
     0
  3
- - - - - - - - - - - - - - - - - - - -
 72
    65
 73
     2
 40
0.2
 49
0.1
 74
     0
 49
-0.1
 74
     0
  0
LTYPE
  5
1F7
330
5
100
AcDbSymbolTableRecord
100
AcDbLinetypeTableRecord
  2
PHANTOM
 70
     0
  3
_____ _ _ _____ _ _ _____ _ _ _____
 72
    65
 73
     6
 40
0.8
 49
0.45
 74
     0
 49
-0.05
 74
     0
 49
0.1
 74
     0
 49
-0.05
 74
     0
 49
0.1
 74
     0
 49
-0.05
 74
     0
  0
LTYPE
  5
1F8
330
5
100
AcDbSymbolTableRecord
100
AcDbLinetypeTableRecord
  2
DOT
 70
     0
  3
. . . . . . . . . . . . . . . . . . . .
 72
    65
 73
     2
 40
0.2
 49
0.1
 74
     0
 49
-0.1
 74
     0
  0
LTYPE
  5
1F9
330
5
100
AcDbSymbolTableRecord
100
AcDbLinetypeTableRecord
  2
DASHED
 70
     0
  3
- - - - - - - - - - - - - - - - - - - -
 72
    65
 73
     2
 40
0.2
 49
0.1
 74
     0
 49
-0.1
 74
     0
  0
ENDTAB
  0
TABLE
  2
LAYER
  5
2
330
0
100
AcDbSymbolTable
 70
    20
  0
LAYER
  5
10
330
2
100
AcDbSymbolTableRecord
100
AcDbLayerTableRecord
  2
0
 70
     0
 62
     7
  6
CONTINUOUS
370
    -3
390
F
347
3B7
  0
LAYER
  5
1FA
330
2
100
AcDbSymbolTableRecord
100
AcDbLayerTableRecord
  2
DEFAULT_1
 70
     0
 62
     7
  6
CENTER
370
    -3
390
F
347
3B7
  0
LAYER
  5
1FB
330
2
100
AcDbSymbolTableRecord
100
AcDbLayerTableRecord
  2
DEFAULT_2
 70
     0
 62
     8
  6
HIDDEN
370
    -3
390
F
347
3B7
  0
LAYER
  5
1FC
330
2
100
AcDbSymbolTableRecord
100
AcDbLayerTableRecord
  2
DEFAULT_3
 70
     0
 62
     7
  6
PHANTOM
370
    -3
390
F
347
3B7
  0
LAYER
  5
1FD
330
2
100
AcDbSymbolTableRecord
100
AcDbLayerTableRecord
  2
_2D_DELETED_OBJS
 70
     0
 62
     7
  6
CONTINUOUS
370
    -3
390
F
347
3B7
  0
LAYER
  5
1FE
330
2
100
AcDbSymbolTableRecord
100
AcDbLayerTableRecord
  2
_BLACK_HOLE
 70
     0
 62
     7
  6
CONTINUOUS
370
    -3
390
F
347
3B7
  0
LAYER
  5
1FF
330
2
100
AcDbSymbolTableRecord
100
AcDbLayerTableRecord
  2
ALL_AXIS
 70
     0
 62
     7
  6
CONTINUOUS
370
    -3
390
F
347
3B7
  0
LAYER
  5
200
330
2
100
AcDbSymbolTableRecord
100
AcDbLayerTableRecord
  2
ALL_CHAMFER
 70
     0
 62
     7
  6
CONTINUOUS
370
    -3
390
F
347
3B7
  0
LAYER
  5
201
330
2
100
AcDbSymbolTableRecord
100
AcDbLayerTableRecord
  2
ALL_CSYS
 70
     0
 62
     7
  6
CONTINUOUS
370
    -3
390
F
347
3B7
  0
LAYER
  5
202
330
2
100
AcDbSymbolTableRecord
100
AcDbLayerTableRecord
  2
ALL_DIMENSIONS
 70
     0
 62
     7
  6
CONTINUOUS
370
    -3
390
F
347
3B7
  0
LAYER
  5
203
330
2
100
AcDbSymbolTableRecord
100
AcDbLayerTableRecord
  2
ALL_GTOL
 70
     0
 62
     7
  6
CONTINUOUS
370
    -3
390
F
347
3B7
  0
LAYER
  5
204
330
2
100
AcDbSymbolTableRecord
100
AcDbLayerTableRecord
  2
ALL_HOLE
 70
     0
 62
     7
  6
CONTINUOUS
370
    -3
390
F
347
3B7
  0
LAYER
  5
205
330
2
100
AcDbSymbolTableRecord
100
AcDbLayerTableRecord
  2
ALL_PLANE
 70
     0
 62
     7
  6
CONTINUOUS
370
    -3
390
F
347
3B7
  0
LAYER
  5
206
330
2
100
AcDbSymbolTableRecord
100
AcDbLayerTableRecord
  2
ALL_QUILT
 70
     0
 62
     7
  6
CONTINUOUS
370
    -3
390
F
347
3B7
  0
LAYER
  5
207
330
2
100
AcDbSymbolTableRecord
100
AcDbLayerTableRecord
  2
ALL_ROUND
 70
     0
 62
     7
  6
CONTINUOUS
370
    -3
390
F
347
3B7
  0
LAYER
  5
208
330
2
100
AcDbSymbolTableRecord
100
AcDbLayerTableRecord
  2
ALL_SURF_FIN
 70
     0
 62
     7
  6
CONTINUOUS
370
    -3
390
F
347
3B7
  0
LAYER
  5
209
330
2
100
AcDbSymbolTableRecord
100
AcDbLayerTableRecord
  2
ALL_THREADS
 70
     0
 62
     7
  6
CONTINUOUS
370
    -3
390
F
347
3B7
  0
LAYER
  5
20A
330
2
100
AcDbSymbolTableRecord
100
AcDbLayerTableRecord
  2
BLANK_DIM
 70
     0
 62
     7
  6
CONTINUOUS
370
    -3
390
F
347
3B7
  0
LAYER
  5
20B
330
2
100
AcDbSymbolTableRecord
100
AcDbLayerTableRecord
  2
DATUMS
 70
     0
 62
     7
  6
CONTINUOUS
370
    -3
390
F
347
3B7
  0
LAYER
  5
20C
330
2
100
AcDbSymbolTableRecord
100
AcDbLayerTableRecord
  2
XSEC_DATUMS
 70
     0
 62
     7
  6
CONTINUOUS
370
    -3
390
F
347
3B7
  0
ENDTAB
  0
TABLE
  2
STYLE
  5
3
330
0
100
AcDbSymbolTable
 70
     1
  0
STYLE
  5
11
330
3
100
AcDbSymbolTableRecord
100
AcDbTextStyleTableRecord
  2
STANDARD
 70
     0
 40
0.0
 41
0.75
 50
0.0
 71
     0
 42
0.2
  3
txt
  4

  0
ENDTAB
  0
TABLE
  2
VIEW
  5
6
330
0
100
AcDbSymbolTable
 70
     0
  0
ENDTAB
  0
TABLE
  2
UCS
  5
7
330
0
100
AcDbSymbolTable
 70
     0
  0
ENDTAB
  0
TABLE
  2
APPID
  5
9
330
0
100
AcDbSymbolTable
 70
     1
  0
APPID
  5
20D
330
9
100
AcDbSymbolTableRecord
100
AcDbRegAppTableRecord
  2
ACAD
 70
     0
  0
ENDTAB
  0
TABLE
  2
DIMSTYLE
  5
A
330
0
100
AcDbSymbolTable
 70
     1
100
AcDbDimStyleTable
 71
     0
  0
DIMSTYLE
105
20E
330
A
100
AcDbSymbolTableRecord
100
AcDbDimStyleTableRecord
  2
STANDARD
 70
     0
 41
5.0
 47
0.00004
 48
0.00004
 71
     1
 73
     0
 74
     0
 77
     1
 78
     8
140
4.0
271
     5
272
     5
284
     8
340
11
  0
ENDTAB
  0
TABLE
  2
BLOCK_RECORD
  5
1
330
0
100
AcDbSymbolTable
 70
     3
  0
BLOCK_RECORD
  5
1F
330
1
100
AcDbSymbolTableRecord
100
AcDbBlockTableRecord
  2
*MODEL_SPACE
340
22
 70
     0
280
     1
281
     0
  0
BLOCK_RECORD
  5
1B
330
1
100
AcDbSymbolTableRecord
100
AcDbBlockTableRecord
  2
*PAPER_SPACE
340
1E
 70
     0
280
     1
281
     0
  0
BLOCK_RECORD
  5
3CF
330
1
100
AcDbSymbolTableRecord
100
AcDbBlockTableRecord
  2
_FILLED
340
0
 70
     0
280
     1
281
     0
  0
ENDTAB
  0
ENDSEC
  0
SECTION
  2
BLOCKS
  0
BLOCK
  5
20
330
1F
100
AcDbEntity
  8
0
100
AcDbBlockBegin
  2
*MODEL_SPACE
 70
     0
 10
0.0
 20
0.0
 30
0.0
  3
*MODEL_SPACE
  1

  0
ENDBLK
  5
21
330
1F
100
AcDbEntity
  8
0
100
AcDbBlockEnd
  0
BLOCK
  5
1C
330
1B
100
AcDbEntity
 67
     1
  8
0
100
AcDbBlockBegin
  2
*PAPER_SPACE
 70
     0
 10
0.0
 20
0.0
 30
0.0
  3
*PAPER_SPACE
  1

  0
ENDBLK
  5
1D
330
1B
100
AcDbEntity
 67
     1
  8
0
100
AcDbBlockEnd
  0
BLOCK
  5
3D0
330
3CF
100
AcDbEntity
  8
0
100
AcDbBlockBegin
  2
_FILLED
 70
     0
 10
0.0
 20
0.0
 30
0.0
  3
_FILLED
  1

  0
SOLID
  5
3D1
330
3CF
100
AcDbEntity
  8
0
  6
ByBlock
 62
     0
100
AcDbTrace
 10
0.0
 20
0.0
 30
0.0
 11
-1.0
 21
0.1666666667
 31
0.0
 12
-1.0
 22
-0.1666666667
 32
0.0
 13
-1.0
 23
-0.1666666667
 33
0.0
  0
ENDBLK
  5
3D2
330
3CF
100
AcDbEntity
  8
0
  6
ByBlock
 62
     0
100
AcDbBlockEnd
  0
ENDSEC
  0
SECTION
  2
ENTITIES
  0
LINE
  5
20F
330
1F
100
AcDbEntity
  8
0
  6
Continuous
 62
     7
100
AcDbLine
 10
205.0
 20
292.0
 30
0.0
 11
20.0
 21
292.0
 31
0.0
  0
LINE
  5
210
330
1F
100
AcDbEntity
  8
0
  6
Continuous
 62
     7
100
AcDbLine
 10
205.0
 20
292.0
 30
0.0
 11
205.0
 21
53.0
 31
0.0
  0
LINE
  5
211
330
1F
100
AcDbEntity
  8
0
  6
Continuous
 62
     7
100
AcDbLine
 10
205.0
 20
277.0
 30
0.0
 11
20.0
 21
277.0
 31
0.0
  0
LINE
  5
212
330
1F
100
AcDbEntity
  8
0
  6
Continuous
 62
     7
100
AcDbLine
 10
205.0
 20
269.0
 30
0.0
 11
20.0
 21
269.0
 31
0.0
  0
LINE
  5
213
330
1F
100
AcDbEntity
  8
0
  6
Continuous
 62
     7
100
AcDbLine
 10
205.0
 20
261.0
 30
0.0
 11
20.0
 21
261.0
 31
0.0
  0
LINE
  5
214
330
1F
100
AcDbEntity
  8
0
  6
Continuous
 62
     7
100
AcDbLine
 10
205.0
 20
253.0
 30
0.0
 11
20.0
 21
253.0
 31
0.0
  0
LINE
  5
215
330
1F
100
AcDbEntity
  8
0
  6
Continuous
 62
     7
100
AcDbLine
 10
205.0
 20
245.0
 30
0.0
 11
20.0
 21
245.0
 31
0.0
  0
LINE
  5
216
330
1F
100
AcDbEntity
  8
0
  6
Continuous
 62
     7
100
AcDbLine
 10
205.0
 20
237.0
 30
0.0
 11
20.0
 21
237.0
 31
0.0
  0
LINE
  5
217
330
1F
100
AcDbEntity
  8
0
  6
Continuous
 62
     7
100
AcDbLine
 10
205.0
 20
229.0
 30
0.0
 11
20.0
 21
229.0
 31
0.0
  0
LINE
  5
218
330
1F
100
AcDbEntity
  8
0
  6
Continuous
 62
     7
100
AcDbLine
 10
205.0
 20
221.0
 30
0.0
 11
20.0
 21
221.0
 31
0.0
  0
LINE
  5
219
330
1F
100
AcDbEntity
  8
0
  6
Continuous
 62
     7
100
AcDbLine
 10
205.0
 20
213.0
 30
0.0
 11
20.0
 21
213.0
 31
0.0
  0
LINE
  5
21A
330
1F
100
AcDbEntity
  8
0
  6
Continuous
 62
     7
100
AcDbLine
 10
205.0
 20
205.0
 30
0.0
 11
20.0
 21
205.0
 31
0.0
  0
LINE
  5
21B
330
1F
100
AcDbEntity
  8
0
  6
Continuous
 62
     7
100
AcDbLine
 10
205.0
 20
197.0
 30
0.0
 11
20.0
 21
197.0
 31
0.0
  0
LINE
  5
21C
330
1F
100
AcDbEntity
  8
0
  6
Continuous
 62
     7
100
AcDbLine
 10
205.0
 20
189.0
 30
0.0
 11
20.0
 21
189.0
 31
0.0
  0
LINE
  5
21D
330
1F
100
AcDbEntity
  8
0
  6
Continuous
 62
     7
100
AcDbLine
 10
205.0
 20
181.0
 30
0.0
 11
20.0
 21
181.0
 31
0.0
  0
LINE
  5
21E
330
1F
100
AcDbEntity
  8
0
  6
Continuous
 62
     7
100
AcDbLine
 10
205.0
 20
173.0
 30
0.0
 11
20.0
 21
173.0
 31
0.0
  0
LINE
  5
21F
330
1F
100
AcDbEntity
  8
0
  6
Continuous
 62
     7
100
AcDbLine
 10
205.0
 20
165.0
 30
0.0
 11
20.0
 21
165.0
 31
0.0
  0
LINE
  5
220
330
1F
100
AcDbEntity
  8
0
  6
Continuous
 62
     7
100
AcDbLine
 10
205.0
 20
157.0
 30
0.0
 11
20.0
 21
157.0
 31
0.0
  0
LINE
  5
221
330
1F
100
AcDbEntity
  8
0
  6
Continuous
 62
     7
100
AcDbLine
 10
205.0
 20
149.0
 30
0.0
 11
20.0
 21
149.0
 31
0.0
  0
LINE
  5
222
330
1F
100
AcDbEntity
  8
0
  6
Continuous
 62
     7
100
AcDbLine
 10
205.0
 20
141.0
 30
0.0
 11
20.0
 21
141.0
 31
0.0
  0
LINE
  5
223
330
1F
100
AcDbEntity
  8
0
  6
Continuous
 62
     7
100
AcDbLine
 10
205.0
 20
133.0
 30
0.0
 11
20.0
 21
133.0
 31
0.0
  0
LINE
  5
224
330
1F
100
AcDbEntity
  8
0
  6
Continuous
 62
     7
100
AcDbLine
 10
205.0
 20
125.0
 30
0.0
 11
20.0
 21
125.0
 31
0.0
  0
LINE
  5
225
330
1F
100
AcDbEntity
  8
0
  6
Continuous
 62
     7
100
AcDbLine
 10
205.0
 20
117.0
 30
0.0
 11
20.0
 21
117.0
 31
0.0
  0
LINE
  5
226
330
1F
100
AcDbEntity
  8
0
  6
Continuous
 62
     7
100
AcDbLine
 10
205.0
 20
109.0
 30
0.0
 11
20.0
 21
109.0
 31
0.0
  0
LINE
  5
227
330
1F
100
AcDbEntity
  8
0
  6
Continuous
 62
     7
100
AcDbLine
 10
205.0
 20
101.0
 30
0.0
 11
20.0
 21
101.0
 31
0.0
  0
LINE
  5
228
330
1F
100
AcDbEntity
  8
0
  6
Continuous
 62
     7
100
AcDbLine
 10
205.0
 20
93.0
 30
0.0
 11
20.0
 21
93.0
 31
0.0
  0
LINE
  5
229
330
1F
100
AcDbEntity
  8
0
  6
Continuous
 62
     7
100
AcDbLine
 10
205.0
 20
85.0
 30
0.0
 11
20.0
 21
85.0
 31
0.0
  0
LINE
  5
22A
330
1F
100
AcDbEntity
  8
0
  6
Continuous
 62
     7
100
AcDbLine
 10
205.0
 20
77.0
 30
0.0
 11
20.0
 21
77.0
 31
0.0
  0
LINE
  5
22B
330
1F
100
AcDbEntity
  8
0
  6
Continuous
 62
     7
100
AcDbLine
 10
205.0
 20
69.0
 30
0.0
 11
20.0
 21
69.0
 31
0.0
  0
LINE
  5
22C
330
1F
100
AcDbEntity
  8
0
  6
Continuous
 62
     7
100
AcDbLine
 10
205.0
 20
61.0
 30
0.0
 11
20.0
 21
61.0
 31
0.0
  0
LINE
  5
22D
330
1F
100
AcDbEntity
  8
0
  6
Continuous
 62
     7
100
AcDbLine
 10
205.0
 20
53.0
 30
0.0
 11
20.0
 21
53.0
 31
0.0
  0
LINE
  5
22E
330
1F
100
AcDbEntity
  8
0
  6
Continuous
 62
     7
100
AcDbLine
 10
183.0
 20
292.0
 30
0.0
 11
183.0
 21
53.0
 31
0.0
  0
LINE
  5
22F
330
1F
100
AcDbEntity
  8
0
  6
Continuous
 62
     7
100
AcDbLine
 10
173.0
 20
292.0
 30
0.0
 11
173.0
 21
53.0
 31
0.0
  0
LINE
  5
230
330
1F
100
AcDbEntity
  8
0
  6
Continuous
 62
     7
100
AcDbLine
 10
110.0
 20
292.0
 30
0.0
 11
110.0
 21
53.0
 31
0.0
  0
LINE
  5
231
330
1F
100
AcDbEntity
  8
0
  6
Continuous
 62
     7
100
AcDbLine
 10
40.0
 20
292.0
 30
0.0
 11
40.0
 21
53.0
 31
0.0
  0
LINE
  5
232
330
1F
100
AcDbEntity
  8
0
  6
Continuous
 62
     7
100
AcDbLine
 10
32.0
 20
292.0
 30
0.0
 11
32.0
 21
53.0
 31
0.0
  0
LINE
  5
233
330
1F
100
AcDbEntity
  8
0
  6
Continuous
 62
     7
100
AcDbLine
 10
26.0
 20
292.0
 30
0.0
 11
26.0
 21
53.0
 31
0.0
  0
LINE
  5
234
330
1F
100
AcDbEntity
  8
0
  6
Continuous
 62
     7
100
AcDbLine
 10
20.0
 20
292.0
 30
0.0
 11
20.0
 21
53.0
 31
0.0
  0
LWPOLYLINE
  5
235
330
1F
100
AcDbEntity
  8
0
  6
Continuous
 62
     2
100
AcDbPolyline
 90
        4
 70
     0
 43
0.35
 10
184.9999921875
 20
285.5223378906
 10
185.8502363281
 20
289.5223417969
 10
187.3502324219
 20
289.5223417969
 10
186.5000097656
 20
285.5223378906
  0
LWPOLYLINE
  5
236
330
1F
100
AcDbEntity
  8
0
  6
Continuous
 62
     2
100
AcDbPolyline
 90
        2
 70
     0
 43
0.35
 10
187.7165839844
 20
284.1890175781
 10
188.566828125
 20
288.189
  0
LWPOLYLINE
  5
237
330
1F
100
AcDbEntity
  8
0
  6
Continuous
 62
     2
100
AcDbPolyline
 90
        7
 70
     0
 43
0.35
 10
188.0000058593999
 20
285.5223378906
 10
189.1249921875
 20
285.5223378906
 10
189.6417128906
 20
286.1889980469
 10
189.9251132813
 20
287.5223398438
 10
189.6918144531
 20
288.189
 10
188.9418164063
 20
288.189
 10
188.4251171875
 20
287.5223398438
  0
LWPOLYLINE
  5
238
330
1F
100
AcDbEntity
  8
0
  6
Continuous
 62
     2
100
AcDbPolyline
 90
        5
 70
     0
 43
0.35
 10
191.5668203125
 20
288.189
 10
191.1417089844
 20
286.1889980469
 10
191.3750078125
 20
285.5223378906
 10
191.7499960938
 20
285.5223378906
 10
192.7834160156
 20
286.8556796875
  0
LWPOLYLINE
  5
239
330
1F
100
AcDbEntity
  8
0
  6
Continuous
 62
     2
100
AcDbPolyline
 90
        2
 70
     0
 43
0.35
 10
193.0668164063
 20
288.189
 10
192.4999941406
 20
285.5223378906
  0
LWPOLYLINE
  5
23A
330
1F
100
AcDbEntity
  8
0
  6
Continuous
 62
     2
100
AcDbPolyline
 90
        5
 70
     0
 43
0.35
 10
193.9999902343999
 20
285.5223378906
 10
194.5668125
 20
288.189
 10
195.0334101561999
 20
286.8556796875
 10
196.0668085937
 20
288.189
 10
195.5000078125
 20
285.5223378906
  0
LWPOLYLINE
  5
23B
330
1F
100
AcDbEntity
  8
0
  6
Continuous
 62
     2
100
AcDbPolyline
 90
       10
 70
     0
 43
0.35
 10
197.2834042969
 20
286.8556796875
 10
198.4084121094
 20
286.8556796875
 10
198.9251113281
 20
287.5223398438
 10
198.6918125
 20
288.189
 10
197.9418144531
 20
288.189
 10
197.4251152344
 20
287.5223398438
 10
197.1417148438
 20
286.1889980469
 10
197.3749921875
 20
285.5223378906
 10
198.1249902344
 20
285.5223378906
 10
198.6417109375
 20
286.1889980469
  0
LWPOLYLINE
  5
23C
330
1F
100
AcDbEntity
  8
0
  6
Continuous
 62
     2
100
AcDbPolyline
 90
        2
 70
     0
 43
0.35
 10
201.1751054687
 20
287.5223398438
 10
202.6751230469
 20
287.5223398438
  0
LWPOLYLINE
  5
23D
330
1F
100
AcDbEntity
  8
0
  6
Continuous
 62
     2
100
AcDbPolyline
 90
        4
 70
     0
 43
0.35
 10
187.0668105468999
 20
282.054953125
 10
186.9251210937
 20
281.3882929688
 10
187.1583984375
 20
280.7216328125
 10
188.0959121094
 20
280.7216328125
  0
LWPOLYLINE
  5
23E
330
1F
100
AcDbEntity
  8
0
  6
Continuous
 62
     2
100
AcDbPolyline
 90
        2
 70
     0
 43
0.35
 10
188.3793125
 20
282.054953125
 10
187.8124902344
 20
279.3882910156
  0
LWPOLYLINE
  5
23F
330
1F
100
AcDbEntity
  8
0
  6
Continuous
 62
     2
100
AcDbPolyline
 90
        8
 70
     0
 43
0.35
 10
191.425109375
 20
281.3882929688
 10
191.1918105468999
 20
282.054953125
 10
190.4418125
 20
282.054953125
 10
189.9251132813
 20
281.3882929688
 10
189.6417128906
 20
280.0549726563001
 10
189.8749902343999
 20
279.3882910156
 10
190.6250097656
 20
279.3882910156
 10
191.1417089844
 20
280.0549726563001
  0
LWPOLYLINE
  5
240
330
1F
100
AcDbEntity
  8
0
  6
Continuous
 62
     2
100
AcDbPolyline
 90
        3
 70
     0
 43
0.35
 10
191.5668203125
 20
282.054953125
 10
191.1417089844
 20
280.0549726563001
 10
191.1874921875
 20
279.3882910156
  0
LWPOLYLINE
  5
241
330
1F
100
AcDbEntity
  8
0
  6
Continuous
 62
     2
100
AcDbPolyline
 90
        2
 70
     0
 43
0.35
 10
192.4999941406
 20
279.3882910156
 10
193.0668164063
 20
282.054953125
  0
LWPOLYLINE
  5
242
330
1F
100
AcDbEntity
  8
0
  6
Continuous
 62
     2
100
AcDbPolyline
 90
        2
 70
     0
 43
0.35
 10
192.7834160156
 20
280.7216328125
 10
194.2834121094
 20
280.7216328125
  0
LWPOLYLINE
  5
243
330
1F
100
AcDbEntity
  8
0
  6
Continuous
 62
     2
100
AcDbPolyline
 90
        2
 70
     0
 43
0.35
 10
194.5668125
 20
282.054953125
 10
193.9999902343999
 20
279.3882910156
  0
LWPOLYLINE
  5
244
330
1F
100
AcDbEntity
  8
0
  6
Continuous
 62
     2
100
AcDbPolyline
 90
        5
 70
     0
 43
0.35
 10
196.0668085937
 20
282.054953125
 10
195.6416972656
 20
280.0549726563001
 10
195.8749960938
 20
279.3882910156
 10
196.2500058594
 20
279.3882910156
 10
197.2834042969
 20
280.7216328125
  0
LWPOLYLINE
  5
245
330
1F
100
AcDbEntity
  8
0
  6
Continuous
 62
     2
100
AcDbPolyline
 90
        2
 70
     0
 43
0.35
 10
197.5668261719
 20
282.054953125
 10
197.0000039062
 20
279.3882910156
  0
LWPOLYLINE
  5
246
330
1F
100
AcDbEntity
  8
0
  6
Continuous
 62
     2
100
AcDbPolyline
 90
       10
 70
     0
 43
0.35
 10
198.7834003906
 20
280.7216328125
 10
199.9084082031
 20
280.7216328125
 10
200.4251074219
 20
281.3882929688
 10
200.1918085937
 20
282.054953125
 10
199.4418105469
 20
282.054953125
 10
198.9251113281
 20
281.3882929688
 10
198.6417109375
 20
280.0549726563001
 10
198.8750097656
 20
279.3882910156
 10
199.6250078125
 20
279.3882910156
 10
200.1417070312
 20
280.0549726563001
  0
LWPOLYLINE
  5
247
330
1F
100
AcDbEntity
  8
0
  6
Continuous
 62
     2
100
AcDbPolyline
 90
        2
 70
     0
 43
0.35
 10
174.4249960938
 20
282.7109140625
 10
175.1689570312
 20
286.2109121094
  0
LWPOLYLINE
  5
248
330
1F
100
AcDbEntity
  8
0
  6
Continuous
 62
     2
100
AcDbPolyline
 90
        3
 70
     0
 43
0.35
 10
174.7969765625
 20
284.4609023438
 10
175.1251074219
 20
284.4609023438
 10
176.4814375
 20
286.2109121094
  0
LWPOLYLINE
  5
249
330
1F
100
AcDbEntity
  8
0
  6
Continuous
 62
     2
100
AcDbPolyline
 90
        2
 70
     0
 43
0.35
 10
175.7374980469
 20
282.7109140625
 10
175.1251074219
 20
284.4609023438
  0
LWPOLYLINE
  5
24A
330
1F
100
AcDbEntity
  8
0
  6
Continuous
 62
     2
100
AcDbPolyline
 90
        9
 70
     0
 43
0.35
 10
177.1739863281
 20
283.2942363281
 10
177.3781308594
 20
282.7109140625
 10
178.0343710938
 20
282.7109140625
 10
178.4864882812
 20
283.2942363281
 10
178.7344824219
 20
284.4609023438
 10
178.5303378906
 20
285.0442460938
 10
177.8740976563
 20
285.0442460938
 10
177.4219804688
 20
284.4609023438
 10
177.1739863281
 20
283.2942363281
  0
LWPOLYLINE
  5
24B
330
1F
100
AcDbEntity
  8
0
  6
Continuous
 62
     2
100
AcDbPolyline
 90
        3
 70
     0
 43
0.35
 10
179.6750039063
 20
282.7109140625
 10
180.8272109375
 20
285.0442460938
 10
180.9875058594
 20
282.7109140625
  0
LWPOLYLINE
  5
24C
330
1F
100
AcDbEntity
  8
0
  6
Continuous
 62
     2
100
AcDbPolyline
 90
        5
 70
     0
 43
0.35
 10
182.4640625
 20
282.7109140625
 10
182.3000078125
 20
282.7109140625
 10
182.3619902344
 20
283.0025644531001
 10
182.5260664063
 20
283.0025644531001
 10
182.4640625
 20
282.7109140625
  0
LWPOLYLINE
  5
24D
330
1F
100
AcDbEntity
  8
0
  6
Continuous
 62
     2
100
AcDbPolyline
 90
        2
 70
     0
 43
0.35
 10
118.9999921875
 20
281.9441582031
 10
120.06278125
 20
286.9441523438
  0
LWPOLYLINE
  5
24E
330
1F
100
AcDbEntity
  8
0
  6
Continuous
 62
     2
100
AcDbPolyline
 90
        2
 70
     0
 43
0.35
 10
119.5313867187
 20
284.4441445313
 10
121.4063925781
 20
284.4441445313
  0
LWPOLYLINE
  5
24F
330
1F
100
AcDbEntity
  8
0
  6
Continuous
 62
     2
100
AcDbPolyline
 90
        2
 70
     0
 43
0.35
 10
121.9377871094
 20
286.9441523438
 10
120.8749980469
 20
281.9441582031
  0
LWPOLYLINE
  5
250
330
1F
100
AcDbEntity
  8
0
  6
Continuous
 62
     2
100
AcDbPolyline
 90
        8
 70
     0
 43
0.35
 10
125.1563828125
 20
284.4441445313
 10
124.8647753906
 20
285.2774804688
 10
123.9272617188
 20
285.2774804688
 10
123.2813984375
 20
284.4441445313
 10
122.9271210938
 20
282.7774726563
 10
123.21875
 20
281.9441582031
 10
124.1562421875
 20
281.9441582031
 10
124.8021269531
 20
282.7774726563
  0
LWPOLYLINE
  5
251
330
1F
100
AcDbEntity
  8
0
  6
Continuous
 62
     2
100
AcDbPolyline
 90
        3
 70
     0
 43
0.35
 10
125.3335214844
 20
285.2774804688
 10
124.8021269531
 20
282.7774726563
 10
124.8593828125
 20
281.9441582031
  0
LWPOLYLINE
  5
252
330
1F
100
AcDbEntity
  8
0
  6
Continuous
 62
     2
100
AcDbPolyline
 90
        5
 70
     0
 43
0.35
 10
127.2085273437
 20
285.2774804688
 10
126.6771328125
 20
282.7774726563
 10
126.9687402344
 20
281.9441582031
 10
127.4375078125
 20
281.9441582031
 10
128.7292558594
 20
283.6108085938
  0
LWPOLYLINE
  5
253
330
1F
100
AcDbEntity
  8
0
  6
Continuous
 62
     2
100
AcDbPolyline
 90
        2
 70
     0
 43
0.35
 10
129.0835117188
 20
285.2774804688
 10
128.375
 20
281.9441582031
  0
LWPOLYLINE
  5
254
330
1F
100
AcDbEntity
  8
0
  6
Continuous
 62
     2
100
AcDbPolyline
 90
        5
 70
     0
 43
0.35
 10
130.2500058594
 20
281.9441582031
 10
130.9585175781
 20
285.2774804688
 10
131.5417539062
 20
283.6108085938
 10
132.8335234375
 20
285.2774804688
 10
132.1249902344
 20
281.9441582031
  0
LWPOLYLINE
  5
255
330
1F
100
AcDbEntity
  8
0
  6
Continuous
 62
     2
100
AcDbPolyline
 90
       10
 70
     0
 43
0.35
 10
134.3542519531
 20
283.6108085938
 10
135.7605117188
 20
283.6108085938
 10
136.4063964844
 20
284.4441445313
 10
136.1147675781
 20
285.2774804688
 10
135.1772753906
 20
285.2774804688
 10
134.531390625
 20
284.4441445313
 10
134.1771347656
 20
282.7774726563
 10
134.4687421875
 20
281.9441582031
 10
135.4062558594
 20
281.9441582031
 10
136.052140625
 20
282.7774726563
  0
LWPOLYLINE
  5
256
330
1F
100
AcDbEntity
  8
0
  6
Continuous
 62
     2
100
AcDbPolyline
 90
        2
 70
     0
 43
0.35
 10
137.7500078125
 20
281.9441582031
 10
138.4585195313
 20
285.2774804688
  0
LWPOLYLINE
  5
257
330
1F
100
AcDbEntity
  8
0
  6
Continuous
 62
     2
100
AcDbPolyline
 90
        2
 70
     0
 43
0.35
 10
138.1042636719
 20
283.6108085938
 10
139.9792695313
 20
283.6108085938
  0
LWPOLYLINE
  5
258
330
1F
100
AcDbEntity
  8
0
  6
Continuous
 62
     2
100
AcDbPolyline
 90
        2
 70
     0
 43
0.35
 10
140.3335253906
 20
285.2774804688
 10
139.6249921875
 20
281.9441582031
  0
LWPOLYLINE
  5
259
330
1F
100
AcDbEntity
  8
0
  6
Continuous
 62
     2
100
AcDbPolyline
 90
        9
 70
     0
 43
0.35
 10
141.6771367188
 20
282.7774726563
 10
141.9687441406
 20
281.9441582031
 10
142.9062578125
 20
281.9441582031
 10
143.5521210938
 20
282.7774726563
 10
143.9063984375
 20
284.4441445313
 10
143.6147695313
 20
285.2774804688
 10
142.6772773438
 20
285.2774804688
 10
142.0313925781
 20
284.4441445313
 10
141.6771367188
 20
282.7774726563
  0
LWPOLYLINE
  5
25A
330
1F
100
AcDbEntity
  8
0
  6
Continuous
 62
     2
100
AcDbPolyline
 90
       12
 70
     0
 43
0.35
 10
145.7813828125
 20
284.4441445313
 10
147.0731523438
 20
286.1108164063
 10
147.2502910156
 20
286.9441523438
 10
146.7815234375
 20
286.9441523438
 10
146.1356601563
 20
286.1108164063
 10
145.4271269531
 20
282.7774726563
 10
145.7187558594
 20
281.9441582031
 10
146.6562480469
 20
281.9441582031
 10
147.3021328125
 20
282.7774726563
 10
147.6563886719
 20
284.4441445313
 10
147.36478125
 20
285.2774804688
 10
146.4272675781
 20
285.2774804688
  0
LWPOLYLINE
  5
25B
330
1F
100
AcDbEntity
  8
0
  6
Continuous
 62
     2
100
AcDbPolyline
 90
        8
 70
     0
 43
0.35
 10
151.4064003906
 20
284.4441445313
 10
151.1147714844
 20
285.2774804688
 10
150.1772792969
 20
285.2774804688
 10
149.5313945312
 20
284.4441445313
 10
149.1771386719
 20
282.7774726563
 10
149.4687460937
 20
281.9441582031
 10
150.4062597656
 20
281.9441582031
 10
151.0521230469
 20
282.7774726563
  0
LWPOLYLINE
  5
25C
330
1F
100
AcDbEntity
  8
0
  6
Continuous
 62
     2
100
AcDbPolyline
 90
        3
 70
     0
 43
0.35
 10
151.5835175781
 20
285.2774804688
 10
151.0521230469
 20
282.7774726563
 10
151.1093789062
 20
281.9441582031
  0
LWPOLYLINE
  5
25D
330
1F
100
AcDbEntity
  8
0
  6
Continuous
 62
     2
100
AcDbPolyline
 90
        2
 70
     0
 43
0.35
 10
152.7499902344
 20
281.9441582031
 10
153.4585234375
 20
285.2774804688
  0
LWPOLYLINE
  5
25E
330
1F
100
AcDbEntity
  8
0
  6
Continuous
 62
     2
100
AcDbPolyline
 90
        2
 70
     0
 43
0.35
 10
153.1042675781
 20
283.6108085938
 10
154.9792519531
 20
283.6108085938
  0
LWPOLYLINE
  5
25F
330
1F
100
AcDbEntity
  8
0
  6
Continuous
 62
     2
100
AcDbPolyline
 90
        2
 70
     0
 43
0.35
 10
155.3335292969
 20
285.2774804688
 10
154.6249960937
 20
281.9441582031
  0
LWPOLYLINE
  5
260
330
1F
100
AcDbEntity
  8
0
  6
Continuous
 62
     2
100
AcDbPolyline
 90
        5
 70
     0
 43
0.35
 10
157.2085136719
 20
285.2774804688
 10
156.677140625
 20
282.7774726563
 10
156.9687480469
 20
281.9441582031
 10
157.4374941406
 20
281.9441582031
 10
158.7292636719
 20
283.6108085938
  0
LWPOLYLINE
  5
261
330
1F
100
AcDbEntity
  8
0
  6
Continuous
 62
     2
100
AcDbPolyline
 90
        2
 70
     0
 43
0.35
 10
159.0835195313
 20
285.2774804688
 10
158.3750078125
 20
281.9441582031
  0
LWPOLYLINE
  5
262
330
1F
100
AcDbEntity
  8
0
  6
Continuous
 62
     2
100
AcDbPolyline
 90
       10
 70
     0
 43
0.35
 10
160.6042695313
 20
283.6108085938
 10
162.0105078125
 20
283.6108085938
 10
162.6563925781
 20
284.4441445313
 10
162.3647636719
 20
285.2774804688
 10
161.4272714844
 20
285.2774804688
 10
160.7813867187
 20
284.4441445313
 10
160.4271308594
 20
282.7774726563
 10
160.7187597656
 20
281.9441582031
 10
161.6562519531
 20
281.9441582031
 10
162.3021367188
 20
282.7774726563
  0
LWPOLYLINE
  5
263
330
1F
100
AcDbEntity
  8
0
  6
Continuous
 62
     2
100
AcDbPolyline
 90
        9
 70
     0
 43
0.35
 10
54.8437490234
 20
281.9441582031
 10
54.55213085939999
 20
282.7774726563
 10
55.26065332029999
 20
286.1108164063
 10
55.9065380859
 20
286.9441523438
 10
56.8440302734
 20
286.9441523438
 10
57.1356484375
 20
286.1108164063
 10
56.4271259766
 20
282.7774726563
 10
55.78125195310001
 20
281.9441582031
 10
54.8437490234
 20
281.9441582031
  0
LWPOLYLINE
  5
264
330
1F
100
AcDbEntity
  8
0
  6
Continuous
 62
     2
100
AcDbPolyline
 90
       10
 70
     0
 43
0.35
 10
60.2397753906
 20
285.2774804688
 10
59.3022724609
 20
285.2774804688
 10
58.6563876953
 20
284.4441445313
 10
58.3021318359
 20
282.7774726563
 10
58.59375
 20
281.9441582031
 10
59.5312529297
 20
281.9441582031
 10
60.17712695310001
 20
282.7774726563
 10
60.5313935547
 20
284.4441445313
 10
59.65652832029999
 20
286.9441523438
 10
61.0627880859
 20
286.9441523438
  0
LWPOLYLINE
  5
265
330
1F
100
AcDbEntity
  8
0
  6
Continuous
 62
     2
100
AcDbPolyline
 90
        9
 70
     0
 43
0.35
 10
62.05213281249999
 20
282.7774726563
 10
62.3437509766
 20
281.9441582031
 10
63.2812539062
 20
281.9441582031
 10
63.9271279297
 20
282.7774726563
 10
64.2813945312
 20
284.4441445313
 10
63.9897763672
 20
285.2774804688
 10
63.0522734375
 20
285.2774804688
 10
62.4063886719
 20
284.4441445313
 10
62.05213281249999
 20
282.7774726563
  0
LWPOLYLINE
  5
266
330
1F
100
AcDbEntity
  8
0
  6
Continuous
 62
     2
100
AcDbPolyline
 90
        9
 70
     0
 43
0.35
 10
65.80213378909999
 20
282.7774726563
 10
66.09375195310001
 20
281.9441582031
 10
67.0312548828
 20
281.9441582031
 10
67.6771289062
 20
282.7774726563
 10
67.3855107422
 20
283.6108085938
 10
68.0313955078
 20
284.4441445313
 10
67.73976660159999
 20
285.2774804688
 10
66.8022744141
 20
285.2774804688
 10
66.15638964840001
 20
284.4441445313
  0
LWPOLYLINE
  5
267
330
1F
100
AcDbEntity
  8
0
  6
Continuous
 62
     2
100
AcDbPolyline
 90
        2
 70
     0
 43
0.35
 10
66.9167646484
 20
283.6108085938
 10
67.3855107422
 20
283.6108085938
  0
LWPOLYLINE
  5
268
330
1F
100
AcDbEntity
  8
0
  6
Continuous
 62
     2
100
AcDbPolyline
 90
        2
 70
     0
 43
0.35
 10
69.3749960937
 20
281.9441582031
 10
70.0835185547
 20
285.2774804688
  0
LWPOLYLINE
  5
269
330
1F
100
AcDbEntity
  8
0
  6
Continuous
 62
     2
100
AcDbPolyline
 90
        2
 70
     0
 43
0.35
 10
69.72926269529999
 20
283.6108085938
 10
71.60425781249999
 20
283.6108085938
  0
LWPOLYLINE
  5
26A
330
1F
100
AcDbEntity
  8
0
  6
Continuous
 62
     2
100
AcDbPolyline
 90
        2
 70
     0
 43
0.35
 10
71.9585244141
 20
285.2774804688
 10
71.25000195310001
 20
281.9441582031
  0
LWPOLYLINE
  5
26B
330
1F
100
AcDbEntity
  8
0
  6
Continuous
 62
     2
100
AcDbPolyline
 90
        8
 70
     0
 43
0.35
 10
75.53138671870001
 20
284.4441445313
 10
75.2397685547
 20
285.2774804688
 10
74.30227636720001
 20
285.2774804688
 10
73.65639160159999
 20
284.4441445313
 10
73.3021357422
 20
282.7774726563
 10
73.59375390619999
 20
281.9441582031
 10
74.5312460937
 20
281.9441582031
 10
75.17713085939999
 20
282.7774726563
  0
LWPOLYLINE
  5
26C
330
1F
100
AcDbEntity
  8
0
  6
Continuous
 62
     2
100
AcDbPolyline
 90
        3
 70
     0
 43
0.35
 10
75.7085253906
 20
285.2774804688
 10
75.17713085939999
 20
282.7774726563
 10
75.23437597659999
 20
281.9441582031
  0
LWPOLYLINE
  5
26D
330
1F
100
AcDbEntity
  8
0
  6
Continuous
 62
     2
100
AcDbPolyline
 90
        4
 70
     0
 43
0.35
 10
77.58352050780001
 20
285.2774804688
 10
77.40639257810001
 20
284.4441445313
 10
77.6980107422
 20
283.6108085938
 10
78.8698867187
 20
283.6108085938
  0
LWPOLYLINE
  5
26E
330
1F
100
AcDbEntity
  8
0
  6
Continuous
 62
     2
100
AcDbPolyline
 90
        2
 70
     0
 43
0.35
 10
79.2241425781
 20
285.2774804688
 10
78.5156201172
 20
281.9441582031
  0
LWPOLYLINE
  5
26F
330
1F
100
AcDbEntity
  8
0
  6
Continuous
 62
     2
100
AcDbPolyline
 90
       10
 70
     0
 43
0.35
 10
80.97926562499999
 20
283.6108085938
 10
82.3855146484
 20
283.6108085938
 10
83.03138867189998
 20
284.4441445313
 10
82.73977050780001
 20
285.2774804688
 10
81.8022675781
 20
285.2774804688
 10
81.15639355469999
 20
284.4441445313
 10
80.80212695310001
 20
282.7774726563
 10
81.0937451172
 20
281.9441582031
 10
82.03124804689998
 20
281.9441582031
 10
82.67713281250001
 20
282.7774726563
  0
LWPOLYLINE
  5
270
330
1F
100
AcDbEntity
  8
0
  6
Continuous
 62
     2
100
AcDbPolyline
 90
        2
 70
     0
 43
0.35
 10
84.375
 20
281.9441582031
 10
85.0835224609
 20
285.2774804688
  0
LWPOLYLINE
  5
271
330
1F
100
AcDbEntity
  8
0
  6
Continuous
 62
     2
100
AcDbPolyline
 90
        2
 70
     0
 43
0.35
 10
84.7292558594
 20
283.6108085938
 10
86.6042617187
 20
283.6108085938
  0
LWPOLYLINE
  5
272
330
1F
100
AcDbEntity
  8
0
  6
Continuous
 62
     2
100
AcDbPolyline
 90
        2
 70
     0
 43
0.35
 10
86.9585175781
 20
285.2774804688
 10
86.24999511719998
 20
281.9441582031
  0
LWPOLYLINE
  5
273
330
1F
100
AcDbEntity
  8
0
  6
Continuous
 62
     2
100
AcDbPolyline
 90
        5
 70
     0
 43
0.35
 10
88.83352343750001
 20
285.2774804688
 10
88.30212890620002
 20
282.7774726563
 10
88.59374707030001
 20
281.9441582031
 10
89.0625039062
 20
281.9441582031
 10
90.35426269530001
 20
283.6108085938
  0
LWPOLYLINE
  5
274
330
1F
100
AcDbEntity
  8
0
  6
Continuous
 62
     2
100
AcDbPolyline
 90
        2
 70
     0
 43
0.35
 10
90.70851855469999
 20
285.2774804688
 10
89.9999960937
 20
281.9441582031
  0
LWPOLYLINE
  5
275
330
1F
100
AcDbEntity
  8
0
  6
Continuous
 62
     2
100
AcDbPolyline
 90
       10
 70
     0
 43
0.35
 10
92.22925781249999
 20
283.6108085938
 10
93.6355068359
 20
283.6108085938
 10
94.28139160159998
 20
284.4441445313
 10
93.98977343750001
 20
285.2774804688
 10
93.05227050780001
 20
285.2774804688
 10
92.4063964844
 20
284.4441445313
 10
92.05212988280001
 20
282.7774726563
 10
92.3437480469
 20
281.9441582031
 10
93.28125097659999
 20
281.9441582031
 10
93.9271357422
 20
282.7774726563
  0
LWPOLYLINE
  5
276
330
1F
100
AcDbEntity
  8
0
  6
Continuous
 62
     2
100
AcDbPolyline
 90
        4
 70
     0
 43
0.35
 10
36.10864355469999
 20
279.95
 10
32.6086455078
 20
280.6939394531
 10
32.6086455078
 20
281.8314511719
 10
36.10864355469999
 20
281.0874902344
  0
LWPOLYLINE
  5
277
330
1F
100
AcDbEntity
  8
0
  6
Continuous
 62
     2
100
AcDbPolyline
 90
        9
 70
     0
 43
0.35
 10
35.5253105469
 20
282.3489882813
 10
36.10864355469999
 20
282.5093691406
 10
36.10864355469999
 20
283.078125
 10
35.5253105469
 20
283.4865
 10
34.3586445312
 20
283.7344726563
 10
33.7753115234
 20
283.5740917969
 10
33.7753115234
 20
283.0053359375
 10
34.3586445312
 20
282.5969824219
 10
35.5253105469
 20
282.3489882813
  0
LWPOLYLINE
  5
278
330
1F
100
AcDbEntity
  8
0
  6
Continuous
 62
     2
100
AcDbPolyline
 90
        9
 70
     0
 43
0.35
 10
35.5253105469
 20
284.6239902344
 10
36.10864355469999
 20
284.7843710938
 10
36.10864355469999
 20
285.3531269531
 10
35.5253105469
 20
285.7615019531
 10
34.9419775391
 20
285.6010996094
 10
34.3586445312
 20
286.0094746094
 10
33.7753115234
 20
285.84909375
 10
33.7753115234
 20
285.2803378906001
 10
34.3586445312
 20
284.871984375
  0
LWPOLYLINE
  5
279
330
1F
100
AcDbEntity
  8
0
  6
Continuous
 62
     2
100
AcDbPolyline
 90
        2
 70
     0
 43
0.35
 10
34.9419775391
 20
285.3167324219
 10
34.9419775391
 20
285.6010996094
  0
LWPOLYLINE
  5
27A
330
1F
100
AcDbEntity
  8
0
  6
Continuous
 62
     2
100
AcDbPolyline
 90
        5
 70
     0
 43
0.35
 10
36.10864355469999
 20
286.9171894531
 10
36.10864355469999
 20
286.7750058594
 10
35.8169824219
 20
286.8369882813
 10
35.8169824219
 20
286.9791933593999
 10
36.10864355469999
 20
286.9171894531
  0
LWPOLYLINE
  5
27B
330
1F
100
AcDbEntity
  8
0
  6
Continuous
 62
     2
100
AcDbPolyline
 90
       11
 70
     0
 43
0.35
 10
29.5253154297
 20
280.0739863281
 10
30.1086484375
 20
280.2343671875
 10
30.1086484375
 20
280.8031230469
 10
29.5253154297
 20
281.2114980469
 10
28.9419824219
 20
281.335484375
 10
28.3586494141
 20
281.1751035156
 10
27.7753056641
 20
281.5834570313
 10
27.1919726562
 20
281.7074648438
 10
26.6086396484
 20
281.5470625
 10
26.6086396484
 20
280.978328125
 10
27.1919726562
 20
280.569953125
  0
LWPOLYLINE
  5
27C
330
1F
100
AcDbEntity
  8
0
  6
Continuous
 62
     2
100
AcDbPolyline
 90
        2
 70
     0
 43
0.35
 10
28.3586494141
 20
280.8907148438
 10
28.3586494141
 20
281.1751035156
  0
LWPOLYLINE
  5
27D
330
1F
100
AcDbEntity
  8
0
  6
Continuous
 62
     2
100
AcDbPolyline
 90
        9
 70
     0
 43
0.35
 10
29.5253154297
 20
282.3489882813
 10
30.1086484375
 20
282.5093691406
 10
30.1086484375
 20
283.078125
 10
29.5253154297
 20
283.4865
 10
28.3586494141
 20
283.7344726563
 10
27.7753056641
 20
283.5740917969
 10
27.7753056641
 20
283.0053359375
 10
28.3586494141
 20
282.5969824219
 10
29.5253154297
 20
282.3489882813
  0
LWPOLYLINE
  5
27E
330
1F
100
AcDbEntity
  8
0
  6
Continuous
 62
     2
100
AcDbPolyline
 90
        2
 70
     0
 43
0.35
 10
30.1086484375
 20
284.5000039063
 10
27.7753056641
 20
284.9959707031
  0
LWPOLYLINE
  5
27F
330
1F
100
AcDbEntity
  8
0
  6
Continuous
 62
     2
100
AcDbPolyline
 90
        2
 70
     0
 43
0.35
 10
28.9419824219
 20
284.7479765625
 10
28.9419824219
 20
285.8854882813
  0
LWPOLYLINE
  5
280
330
1F
100
AcDbEntity
  8
0
  6
Continuous
 62
     2
100
AcDbPolyline
 90
        2
 70
     0
 43
0.35
 10
27.7753056641
 20
286.1334609375
 10
30.1086484375
 20
285.6374941406
  0
LWPOLYLINE
  5
281
330
1F
100
AcDbEntity
  8
0
  6
Continuous
 62
     2
100
AcDbPolyline
 90
        8
 70
     0
 43
0.35
 10
28.3586494141
 20
288.2844765625
 10
27.7753056641
 20
288.1240957031
 10
27.7753056641
 20
287.5553398438
 10
28.3586494141
 20
287.1469648438
 10
29.5253154297
 20
286.8989921875
 10
30.1086484375
 20
287.0593730469
 10
30.1086484375
 20
287.6281289063
 10
29.5253154297
 20
288.0364824219
  0
LWPOLYLINE
  5
282
330
1F
100
AcDbEntity
  8
0
  6
Continuous
 62
     2
100
AcDbPolyline
 90
        3
 70
     0
 43
0.35
 10
27.7753056641
 20
288.4084628906
 10
29.5253154297
 20
288.0364824219
 10
30.1086484375
 20
288.0546796875
  0
LWPOLYLINE
  5
283
330
1F
100
AcDbEntity
  8
0
  6
Continuous
 62
     2
100
AcDbPolyline
 90
       11
 70
     0
 43
0.35
 10
20.6086445312
 20
278.9876933594
 10
20.6086445312
 20
278.7033261718999
 10
21.1919775391
 20
278.2949511719
 10
22.3586435547
 20
278.0469785156
 10
22.9419765625
 20
278.207359375
 10
22.9419765625
 20
278.7761152344
 10
22.3586435547
 20
279.18446875
 10
21.1919775391
 20
279.4324628906
 10
20.6086445312
 20
279.2720820313
 10
20.6086445312
 20
278.9876933594
 10
24.1086425781
 20
278.2437539063
  0
LWPOLYLINE
  5
284
330
1F
100
AcDbEntity
  8
0
  6
Continuous
 62
     2
100
AcDbPolyline
 90
        9
 70
     0
 43
0.35
 10
23.5253095703
 20
280.0739863281
 10
24.1086425781
 20
280.2343671875
 10
24.1086425781
 20
280.8031230469
 10
23.5253095703
 20
281.2114980469
 10
22.3586435547
 20
281.4594707031
 10
21.7753105469
 20
281.2990898438
 10
21.7753105469
 20
280.7303339844
 10
22.3586435547
 20
280.3219804688
 10
23.5253095703
 20
280.0739863281
  0
LWPOLYLINE
  5
285
330
1F
100
AcDbEntity
  8
0
  6
Continuous
 62
     2
100
AcDbPolyline
 90
        2
 70
     0
 43
0.35
 10
25.2753085937
 20
281.9770078125
 10
21.7753105469
 20
282.72096875
  0
LWPOLYLINE
  5
286
330
1F
100
AcDbEntity
  8
0
  6
Continuous
 62
     2
100
AcDbPolyline
 90
        7
 70
     0
 43
0.35
 10
24.1086425781
 20
282.2250019531
 10
24.1086425781
 20
283.078125
 10
23.5253095703
 20
283.4865
 10
22.3586435547
 20
283.7344726563
 10
21.7753105469
 20
283.5740917969
 10
21.7753105469
 20
283.0053359375
 10
22.3586435547
 20
282.5969824219
  0
LWPOLYLINE
  5
287
330
1F
100
AcDbEntity
  8
0
  6
Continuous
 62
     2
100
AcDbPolyline
 90
        5
 70
     0
 43
0.35
 10
24.1086425781
 20
284.5000039063
 10
21.7753105469
 20
284.9959707031
 10
22.9419765625
 20
285.3167324219
 10
21.7753105469
 20
286.1334609375
 10
24.1086425781
 20
285.6374941406
  0
LWPOLYLINE
  5
288
330
1F
100
AcDbEntity
  8
0
  6
Continuous
 62
     2
100
AcDbPolyline
 90
        8
 70
     0
 43
0.35
 10
22.3586435547
 20
288.2844765625
 10
21.7753105469
 20
288.1240957031
 10
21.7753105469
 20
287.5553398438
 10
22.3586435547
 20
287.1469648438
 10
23.5253095703
 20
286.8989921875
 10
24.1086425781
 20
287.0593730469
 10
24.1086425781
 20
287.6281289063
 10
23.5253095703
 20
288.0364824219
  0
LWPOLYLINE
  5
289
330
1F
100
AcDbEntity
  8
0
  6
Continuous
 62
     2
100
AcDbPolyline
 90
        3
 70
     0
 43
0.35
 10
21.7753105469
 20
288.4084628906
 10
23.5253095703
 20
288.0364824219
 10
24.1086425781
 20
288.0546796875
  0
LWPOLYLINE
  5
28A
330
1F
100
AcDbEntity
  8
0
  6
Continuous
 62
     2
100
AcDbPolyline
 90
        2
 70
     0
 43
0.35
 10
24.1086425781
 20
289.0500078125
 10
21.7753105469
 20
289.5459746094
  0
LWPOLYLINE
  5
28B
330
1F
100
AcDbEntity
  8
0
  6
Continuous
 62
     2
100
AcDbPolyline
 90
        4
 70
     0
 43
0.35
 10
22.3586435547
 20
289.4219667969
 10
21.7753105469
 20
289.8303417969
 10
22.3586435547
 20
289.9907226563
 10
24.1086425781
 20
289.6187421875
  0
LWPOLYLINE
  5
28C
330
1F
100
AcDbEntity
  8
0
  6
Continuous
 62
     2
100
AcDbPolyline
 90
        4
 70
     0
 43
0.35
 10
22.3586435547
 20
289.9907226563
 10
21.7753105469
 20
290.3990976563
 10
22.3586435547
 20
290.5594785156
 10
24.1086425781
 20
290.1874980468999
  0
LWPOLYLINE
  5
28D
330
1F
100
AcDbEntity
  8
0
  6
Continuous
 62
     2
100
AcDbPolyline
 90
        4
 70
     0
 43
0.35
 10
112.4877773438
 20
274.9882910156
 10
111.4250097656
 20
269.988296875
 10
112.6249980469
 20
269.988296875
 10
113.6877871094
 20
274.9882910156
  0
LWPOLYLINE
  5
28E
330
1F
100
AcDbEntity
  8
0
  6
Continuous
 62
     2
100
AcDbPolyline
 90
        2
 70
     0
 43
0.35
 10
113.0877929687
 20
274.9882910156
 10
112.0250039062
 20
269.988296875
  0
LWPOLYLINE
  5
28F
330
1F
100
AcDbEntity
  8
0
  6
Continuous
 62
     2
100
AcDbPolyline
 90
        8
 70
     0
 43
0.35
 10
115.556390625
 20
272.4883046875
 10
115.4335214844
 20
273.321640625
 10
114.8335273437
 20
273.321640625
 10
114.3563808594
 20
272.4883046875
 10
114.002125
 20
270.8216328125
 10
114.1249941406
 20
269.988296875
 10
114.7250097656
 20
269.988296875
 10
115.2021347656
 20
270.8216328125
  0
LWPOLYLINE
  5
290
330
1F
100
AcDbEntity
  8
0
  6
Continuous
 62
     2
100
AcDbPolyline
 90
        3
 70
     0
 43
0.35
 10
115.7335292969
 20
273.321640625
 10
115.2021347656
 20
270.8216328125
 10
115.175
 20
269.988296875
  0
LWPOLYLINE
  5
291
330
1F
100
AcDbEntity
  8
0
  6
Continuous
 62
     2
100
AcDbPolyline
 90
        5
 70
     0
 43
0.35
 10
116.9335175781
 20
273.321640625
 10
116.4021230469
 20
270.8216328125
 10
116.5249921875
 20
269.988296875
 10
116.825
 20
269.988296875
 10
117.7792714844
 20
271.65496875
  0
LWPOLYLINE
  5
292
330
1F
100
AcDbEntity
  8
0
  6
Continuous
 62
     2
100
AcDbPolyline
 90
        2
 70
     0
 43
0.35
 10
118.1335273437
 20
273.321640625
 10
117.4249941406
 20
269.988296875
  0
LWPOLYLINE
  5
293
330
1F
100
AcDbEntity
  8
0
  6
Continuous
 62
     2
100
AcDbPolyline
 90
        2
 70
     0
 43
0.35
 10
117.2335253906
 20
273.321640625
 10
117.8335195312
 20
273.321640625
  0
LWPOLYLINE
  5
294
330
1F
100
AcDbEntity
  8
0
  6
Continuous
 62
     2
100
AcDbPolyline
 90
       10
 70
     0
 43
0.35
 10
120.2335175781
 20
273.321640625
 10
119.6335234375
 20
273.321640625
 10
119.1563984375
 20
272.4883046875
 10
118.8021210938
 20
270.8216328125
 10
118.9249902344
 20
269.988296875
 10
119.5250058594
 20
269.988296875
 10
120.0021308594
 20
270.8216328125
 10
120.3563867188
 20
272.4883046875
 10
119.9877792969
 20
274.9882910156
 10
120.88778125
 20
274.9882910156
  0
LWPOLYLINE
  5
295
330
1F
100
AcDbEntity
  8
0
  6
Continuous
 62
     2
100
AcDbPolyline
 90
        8
 70
     0
 43
0.35
 10
122.7563847656
 20
272.4883046875
 10
122.633515625
 20
273.321640625
 10
122.0335214844
 20
273.321640625
 10
121.5563964844
 20
272.4883046875
 10
121.202140625
 20
270.8216328125
 10
121.3250097656
 20
269.988296875
 10
121.9250039063
 20
269.988296875
 10
122.4021289063
 20
270.8216328125
  0
LWPOLYLINE
  5
296
330
1F
100
AcDbEntity
  8
0
  6
Continuous
 62
     2
100
AcDbPolyline
 90
        3
 70
     0
 43
0.35
 10
122.9335234375
 20
273.321640625
 10
122.4021289063
 20
270.8216328125
 10
122.3749941406
 20
269.988296875
  0
LWPOLYLINE
  5
297
330
1F
100
AcDbEntity
  8
0
  6
Continuous
 62
     2
100
AcDbPolyline
 90
        9
 70
     0
 43
0.35
 10
126.1250058594
 20
269.988296875
 10
126.725
 20
269.988296875
 10
127.202125
 20
270.8216328125
 10
127.3792636719
 20
271.65496875
 10
127.2563945312
 20
272.4883046875
 10
126.6564003906
 20
272.4883046875
 10
126.1792539062
 20
271.65496875
 10
126.0021367187
 20
270.8216328125
 10
126.1250058594
 20
269.988296875
  0
LWPOLYLINE
  5
298
330
1F
100
AcDbEntity
  8
0
  6
Continuous
 62
     2
100
AcDbPolyline
 90
        8
 70
     0
 43
0.35
 10
127.2563945312
 20
272.4883046875
 10
127.7335195312
 20
273.321640625
 10
127.9106582031
 20
274.1549550781
 10
127.7877890625
 20
274.9882910156
 10
127.1877734375
 20
274.9882910156
 10
126.7106484375
 20
274.1549550781
 10
126.53353125
 20
273.321640625
 10
126.6564003906
 20
272.4883046875
  0
LWPOLYLINE
  5
299
330
1F
100
AcDbEntity
  8
0
  6
Continuous
 62
     2
100
AcDbPolyline
 90
        3
 70
     0
 43
0.35
 10
34.6267373047
 20
273.4994667969
 10
35.3111972656
 20
274.9994628906
 10
34.3546914062
 20
270.4994746094
  0
LWPOLYLINE
  5
29A
330
1F
100
AcDbEntity
  8
0
  6
Continuous
 62
     2
100
AcDbPolyline
 90
        2
 70
     0
 43
0.35
 10
33.9890595703
 20
270.4994746094
 10
34.7203125
 20
270.4994746094
  0
LWPOLYLINE
  5
29B
330
1F
100
AcDbEntity
  8
0
  6
Continuous
 62
     2
100
AcDbPolyline
 90
        9
 70
     0
 43
0.35
 10
36.9565029297
 20
274.9994628906
 10
38.4190087891
 20
274.9994628906
 10
37.3689169922
 20
273.4994667969
 10
37.7345488281
 20
273.4994667969
 10
37.9407558594
 20
272.74946875
 10
37.6219169922
 20
271.2494726563
 10
37.0968710937
 20
270.4994746094
 10
36.3656289062
 20
270.4994746094
 10
36.159421875
 20
271.2494726563
  0
LWPOLYLINE
  5
29C
330
1F
100
AcDbEntity
  8
0
  6
Continuous
 62
     2
100
AcDbPolyline
 90
        4
 70
     0
 43
0.35
 10
177.634375
 20
262.9
 10
178.5908808593999
 20
267.4000097656
 10
176.6969257813
 20
263.6499980469
 10
178.1594101563
 20
263.6499980469
  0
LWPOLYLINE
  5
29D
330
1F
100
AcDbEntity
  8
0
  6
Continuous
 62
     2
100
AcDbPolyline
 90
        3
 70
     0
 43
0.35
 10
111.4250097656
 20
261.9882890625
 10
112.4877773438
 20
266.9883046875
 10
113.6877871094
 20
266.9883046875
  0
LWPOLYLINE
  5
29E
330
1F
100
AcDbEntity
  8
0
  6
Continuous
 62
     2
100
AcDbPolyline
 90
        9
 70
     0
 43
0.35
 10
114.1249941406
 20
261.9882890625
 10
114.002125
 20
262.821625
 10
114.7106582031
 20
266.15496875
 10
115.1877832031
 20
266.9883046875
 10
115.7877773437
 20
266.9883046875
 10
115.9106464844
 20
266.15496875
 10
115.2021347656
 20
262.821625
 10
114.7250097656
 20
261.9882890625
 10
114.1249941406
 20
261.9882890625
  0
LWPOLYLINE
  5
29F
330
1F
100
AcDbEntity
  8
0
  6
Continuous
 62
     2
100
AcDbPolyline
 90
        8
 70
     0
 43
0.35
 10
118.3106445312
 20
266.15496875
 10
118.1877753906
 20
266.9883046875
 10
117.58778125
 20
266.9883046875
 10
117.11065625
 20
266.15496875
 10
116.4021230469
 20
262.821625
 10
116.5249921875
 20
261.9882890625
 10
117.1250078125
 20
261.9882890625
 10
117.6021328125
 20
262.821625
  0
LWPOLYLINE
  5
2A0
330
1F
100
AcDbEntity
  8
0
  6
Continuous
 62
     2
100
AcDbPolyline
 90
        2
 70
     0
 43
0.35
 10
119.6877929687
 20
266.9883046875
 10
120.88778125
 20
266.9883046875
  0
LWPOLYLINE
  5
2A1
330
1F
100
AcDbEntity
  8
0
  6
Continuous
 62
     2
100
AcDbPolyline
 90
        2
 70
     0
 43
0.35
 10
120.2877871094
 20
266.9883046875
 10
119.2249980469
 20
261.9882890625
  0
LWPOLYLINE
  5
2A2
330
1F
100
AcDbEntity
  8
0
  6
Continuous
 62
     2
100
AcDbPolyline
 90
        3
 70
     0
 43
0.35
 10
124.9928867187
 20
265.3216328125
 10
125.6909140625
 20
266.9883046875
 10
124.628125
 20
261.9882890625
  0
LWPOLYLINE
  5
2A3
330
1F
100
AcDbEntity
  8
0
  6
Continuous
 62
     2
100
AcDbPolyline
 90
        2
 70
     0
 43
0.35
 10
124.284375
 20
261.9882890625
 10
124.971875
 20
261.9882890625
  0
LWPOLYLINE
  5
2A4
330
1F
100
AcDbEntity
  8
0
  6
Continuous
 62
     2
100
AcDbPolyline
 90
        3
 70
     0
 43
0.35
 10
127.7428867187
 20
265.3216328125
 10
128.4409140625
 20
266.9883046875
 10
127.378125
 20
261.9882890625
  0
LWPOLYLINE
  5
2A5
330
1F
100
AcDbEntity
  8
0
  6
Continuous
 62
     2
100
AcDbPolyline
 90
        2
 70
     0
 43
0.35
 10
127.034375
 20
261.9882890625
 10
127.721875
 20
261.9882890625
  0
LWPOLYLINE
  5
2A6
330
1F
100
AcDbEntity
  8
0
  6
Continuous
 62
     2
100
AcDbPolyline
 90
        9
 70
     0
 43
0.35
 10
129.9877890625
 20
266.9883046875
 10
131.3627890625
 20
266.9883046875
 10
130.3210117187
 20
265.3216328125
 10
130.6647617187
 20
265.3216328125
 10
130.8313945313
 20
264.488296875
 10
130.4771386719
 20
262.821625
 10
129.95625
 20
261.9882890625
 10
129.26875
 20
261.9882890625
 10
129.1021386719
 20
262.821625
  0
LWPOLYLINE
  5
2A7
330
1F
100
AcDbEntity
  8
0
  6
Continuous
 62
     2
100
AcDbPolyline
 90
        4
 70
     0
 43
0.35
 10
132.01875
 20
261.9882890625
 10
134.1127890625
 20
266.9883046875
 10
132.7377890625
 20
266.9883046875
 10
132.5606503906
 20
266.15496875
  0
LWPOLYLINE
  5
2A8
330
1F
100
AcDbEntity
  8
0
  6
Continuous
 62
     2
100
AcDbPolyline
 90
        3
 70
     0
 43
0.35
 10
135.9928867187
 20
265.3216328125
 10
136.6909140625
 20
266.9883046875
 10
135.628125
 20
261.9882890625
  0
LWPOLYLINE
  5
2A9
330
1F
100
AcDbEntity
  8
0
  6
Continuous
 62
     2
100
AcDbPolyline
 90
        2
 70
     0
 43
0.35
 10
135.284375
 20
261.9882890625
 10
135.971875
 20
261.9882890625
  0
LWPOLYLINE
  5
2AA
330
1F
100
AcDbEntity
  8
0
  6
Continuous
 62
     2
100
AcDbPolyline
 90
        2
 70
     0
 43
0.35
 10
138.3938945313
 20
264.488296875
 10
139.7688945313
 20
264.488296875
  0
LWPOLYLINE
  5
2AB
330
1F
100
AcDbEntity
  8
0
  6
Continuous
 62
     2
100
AcDbPolyline
 90
       12
 70
     0
 43
0.35
 10
142.1856503906
 20
266.15496875
 10
142.0190390625
 20
266.9883046875
 10
141.3315390625
 20
266.9883046875
 10
140.8106503906
 20
266.15496875
 10
140.1021386719
 20
262.821625
 10
140.26875
 20
261.9882890625
 10
140.95625
 20
261.9882890625
 10
141.4771386719
 20
262.821625
 10
141.8313945313
 20
264.488296875
 10
141.6647617187
 20
265.3216328125
 10
140.9772617187
 20
265.3216328125
 10
140.4563945313
 20
264.488296875
  0
LWPOLYLINE
  5
2AC
330
1F
100
AcDbEntity
  8
0
  6
Continuous
 62
     2
100
AcDbPolyline
 90
        9
 70
     0
 43
0.35
 10
143.01875
 20
261.9882890625
 10
143.70625
 20
261.9882890625
 10
144.2271386719
 20
262.821625
 10
144.4042558594
 20
263.6549609375
 10
144.2376445313
 20
264.488296875
 10
143.5501445313
 20
264.488296875
 10
143.0292558594
 20
263.6549609375
 10
142.8521386719
 20
262.821625
 10
143.01875
 20
261.9882890625
  0
LWPOLYLINE
  5
2AD
330
1F
100
AcDbEntity
  8
0
  6
Continuous
 62
     2
100
AcDbPolyline
 90
        8
 70
     0
 43
0.35
 10
144.2376445313
 20
264.488296875
 10
144.7585117187
 20
265.3216328125
 10
144.9356503906
 20
266.15496875
 10
144.7690390625
 20
266.9883046875
 10
144.0815390625
 20
266.9883046875
 10
143.5606503906
 20
266.15496875
 10
143.3835117187
 20
265.3216328125
 10
143.5501445313
 20
264.488296875
  0
LWPOLYLINE
  5
2AE
330
1F
100
AcDbEntity
  8
0
  6
Continuous
 62
     2
100
AcDbPolyline
 90
        4
 70
     0
 43
0.35
 10
112.4877773438
 20
258.988296875
 10
111.4250097656
 20
253.9883027344
 10
112.6249980469
 20
253.9883027344
 10
113.6877871094
 20
258.988296875
  0
LWPOLYLINE
  5
2AF
330
1F
100
AcDbEntity
  8
0
  6
Continuous
 62
     2
100
AcDbPolyline
 90
        2
 70
     0
 43
0.35
 10
113.0877929687
 20
258.988296875
 10
112.0250039062
 20
253.9883027344
  0
LWPOLYLINE
  5
2B0
330
1F
100
AcDbEntity
  8
0
  6
Continuous
 62
     2
100
AcDbPolyline
 90
        8
 70
     0
 43
0.35
 10
115.556390625
 20
256.4882890625
 10
115.4335214844
 20
257.321625
 10
114.8335273437
 20
257.321625
 10
114.3563808594
 20
256.4882890625
 10
114.002125
 20
254.8216386719
 10
114.1249941406
 20
253.9883027344
 10
114.7250097656
 20
253.9883027344
 10
115.2021347656
 20
254.8216386719
  0
LWPOLYLINE
  5
2B1
330
1F
100
AcDbEntity
  8
0
  6
Continuous
 62
     2
100
AcDbPolyline
 90
        3
 70
     0
 43
0.35
 10
115.7335292969
 20
257.321625
 10
115.2021347656
 20
254.8216386719
 10
115.175
 20
253.9883027344
  0
LWPOLYLINE
  5
2B2
330
1F
100
AcDbEntity
  8
0
  6
Continuous
 62
     2
100
AcDbPolyline
 90
        5
 70
     0
 43
0.35
 10
116.9335175781
 20
257.321625
 10
116.4021230469
 20
254.8216386719
 10
116.5249921875
 20
253.9883027344
 10
116.825
 20
253.9883027344
 10
117.7792714844
 20
255.654953125
  0
LWPOLYLINE
  5
2B3
330
1F
100
AcDbEntity
  8
0
  6
Continuous
 62
     2
100
AcDbPolyline
 90
        2
 70
     0
 43
0.35
 10
118.1335273437
 20
257.321625
 10
117.4249941406
 20
253.9883027344
  0
LWPOLYLINE
  5
2B4
330
1F
100
AcDbEntity
  8
0
  6
Continuous
 62
     2
100
AcDbPolyline
 90
        2
 70
     0
 43
0.35
 10
117.2335253906
 20
257.321625
 10
117.8335195312
 20
257.321625
  0
LWPOLYLINE
  5
2B5
330
1F
100
AcDbEntity
  8
0
  6
Continuous
 62
     2
100
AcDbPolyline
 90
       10
 70
     0
 43
0.35
 10
120.2335175781
 20
257.321625
 10
119.6335234375
 20
257.321625
 10
119.1563984375
 20
256.4882890625
 10
118.8021210938
 20
254.8216386719
 10
118.9249902344
 20
253.9883027344
 10
119.5250058594
 20
253.9883027344
 10
120.0021308594
 20
254.8216386719
 10
120.3563867188
 20
256.4882890625
 10
119.9877792969
 20
258.988296875
 10
120.88778125
 20
258.988296875
  0
LWPOLYLINE
  5
2B6
330
1F
100
AcDbEntity
  8
0
  6
Continuous
 62
     2
100
AcDbPolyline
 90
        8
 70
     0
 43
0.35
 10
122.7563847656
 20
256.4882890625
 10
122.633515625
 20
257.321625
 10
122.0335214844
 20
257.321625
 10
121.5563964844
 20
256.4882890625
 10
121.202140625
 20
254.8216386719
 10
121.3250097656
 20
253.9883027344
 10
121.9250039063
 20
253.9883027344
 10
122.4021289063
 20
254.8216386719
  0
LWPOLYLINE
  5
2B7
330
1F
100
AcDbEntity
  8
0
  6
Continuous
 62
     2
100
AcDbPolyline
 90
        3
 70
     0
 43
0.35
 10
122.9335234375
 20
257.321625
 10
122.4021289063
 20
254.8216386719
 10
122.3749941406
 20
253.9883027344
  0
LWPOLYLINE
  5
2B8
330
1F
100
AcDbEntity
  8
0
  6
Continuous
 62
     2
100
AcDbPolyline
 90
        3
 70
     0
 43
0.35
 10
127.2835292969
 20
257.321625
 10
127.9377929687
 20
258.988296875
 10
126.8750039062
 20
253.9883027344
  0
LWPOLYLINE
  5
2B9
330
1F
100
AcDbEntity
  8
0
  6
Continuous
 62
     2
100
AcDbPolyline
 90
        2
 70
     0
 43
0.35
 10
126.5749960938
 20
253.9883027344
 10
127.1749902344
 20
253.9883027344
  0
LWPOLYLINE
  5
2BA
330
1F
100
AcDbEntity
  8
0
  6
Continuous
 62
     2
100
AcDbPolyline
 90
        9
 70
     0
 43
0.35
 10
128.5250039062
 20
253.9883027344
 10
128.4021347656
 20
254.8216386719
 10
129.1106464844
 20
258.1549609375
 10
129.5877929687
 20
258.988296875
 10
130.1877871094
 20
258.988296875
 10
130.31065625
 20
258.1549609375
 10
129.6021230469
 20
254.8216386719
 10
129.1249980469
 20
253.9883027344
 10
128.5250039062
 20
253.9883027344
  0
LWPOLYLINE
  5
2BB
330
1F
100
AcDbEntity
  8
0
  6
Continuous
 62
     2
100
AcDbPolyline
 90
        3
 70
     0
 43
0.35
 10
34.6267373047
 20
257.4994726563
 10
35.3111972656
 20
258.99946875
 10
34.3546914062
 20
254.4994589844
  0
LWPOLYLINE
  5
2BC
330
1F
100
AcDbEntity
  8
0
  6
Continuous
 62
     2
100
AcDbPolyline
 90
        2
 70
     0
 43
0.35
 10
33.9890595703
 20
254.4994589844
 10
34.7203125
 20
254.4994589844
  0
LWPOLYLINE
  5
2BD
330
1F
100
AcDbEntity
  8
0
  6
Continuous
 62
     2
100
AcDbPolyline
 90
        4
 70
     0
 43
0.35
 10
37.0968710937
 20
254.4994589844
 10
38.0533769531
 20
258.99946875
 10
36.159421875
 20
255.2494570313
 10
37.6219169922
 20
255.2494570313
  0
LWPOLYLINE
  5
2BE
330
1F
100
AcDbEntity
  8
0
  6
Continuous
 62
     2
100
AcDbPolyline
 90
        4
 70
     0
 43
0.35
 10
177.634375
 20
246.9000058594
 10
178.5908808593999
 20
251.3999941406
 10
176.6969257813
 20
247.6500039063
 10
178.1594101563
 20
247.6500039063
  0
LWPOLYLINE
  5
2BF
330
1F
100
AcDbEntity
  8
0
  6
Continuous
 62
     2
100
AcDbPolyline
 90
        3
 70
     0
 43
0.35
 10
111.4250097656
 20
245.9882949219
 10
112.4877773438
 20
250.9882890625
 10
113.6877871094
 20
250.9882890625
  0
LWPOLYLINE
  5
2C0
330
1F
100
AcDbEntity
  8
0
  6
Continuous
 62
     2
100
AcDbPolyline
 90
        9
 70
     0
 43
0.35
 10
114.1249941406
 20
245.9882949219
 10
114.002125
 20
246.8216308594
 10
114.7106582031
 20
250.154953125
 10
115.1877832031
 20
250.9882890625
 10
115.7877773437
 20
250.9882890625
 10
115.9106464844
 20
250.154953125
 10
115.2021347656
 20
246.8216308594
 10
114.7250097656
 20
245.9882949219
 10
114.1249941406
 20
245.9882949219
  0
LWPOLYLINE
  5
2C1
330
1F
100
AcDbEntity
  8
0
  6
Continuous
 62
     2
100
AcDbPolyline
 90
        8
 70
     0
 43
0.35
 10
118.3106445312
 20
250.154953125
 10
118.1877753906
 20
250.9882890625
 10
117.58778125
 20
250.9882890625
 10
117.11065625
 20
250.154953125
 10
116.4021230469
 20
246.8216308594
 10
116.5249921875
 20
245.9882949219
 10
117.1250078125
 20
245.9882949219
 10
117.6021328125
 20
246.8216308594
  0
LWPOLYLINE
  5
2C2
330
1F
100
AcDbEntity
  8
0
  6
Continuous
 62
     2
100
AcDbPolyline
 90
        2
 70
     0
 43
0.35
 10
119.6877929687
 20
250.9882890625
 10
120.88778125
 20
250.9882890625
  0
LWPOLYLINE
  5
2C3
330
1F
100
AcDbEntity
  8
0
  6
Continuous
 62
     2
100
AcDbPolyline
 90
        2
 70
     0
 43
0.35
 10
120.2877871094
 20
250.9882890625
 10
119.2249980469
 20
245.9882949219
  0
LWPOLYLINE
  5
2C4
330
1F
100
AcDbEntity
  8
0
  6
Continuous
 62
     2
100
AcDbPolyline
 90
        3
 70
     0
 43
0.35
 10
124.9928867187
 20
249.3216386719
 10
125.6909140625
 20
250.9882890625
 10
124.628125
 20
245.9882949219
  0
LWPOLYLINE
  5
2C5
330
1F
100
AcDbEntity
  8
0
  6
Continuous
 62
     2
100
AcDbPolyline
 90
        2
 70
     0
 43
0.35
 10
124.284375
 20
245.9882949219
 10
124.971875
 20
245.9882949219
  0
LWPOLYLINE
  5
2C6
330
1F
100
AcDbEntity
  8
0
  6
Continuous
 62
     2
100
AcDbPolyline
 90
        3
 70
     0
 43
0.35
 10
127.7428867187
 20
249.3216386719
 10
128.4409140625
 20
250.9882890625
 10
127.378125
 20
245.9882949219
  0
LWPOLYLINE
  5
2C7
330
1F
100
AcDbEntity
  8
0
  6
Continuous
 62
     2
100
AcDbPolyline
 90
        2
 70
     0
 43
0.35
 10
127.034375
 20
245.9882949219
 10
127.721875
 20
245.9882949219
  0
LWPOLYLINE
  5
2C8
330
1F
100
AcDbEntity
  8
0
  6
Continuous
 62
     2
100
AcDbPolyline
 90
        9
 70
     0
 43
0.35
 10
129.9877890625
 20
250.9882890625
 10
131.3627890625
 20
250.9882890625
 10
130.3210117187
 20
249.3216386719
 10
130.6647617187
 20
249.3216386719
 10
130.8313945313
 20
248.4883027344
 10
130.4771386719
 20
246.8216308594
 10
129.95625
 20
245.9882949219
 10
129.26875
 20
245.9882949219
 10
129.1021386719
 20
246.8216308594
  0
LWPOLYLINE
  5
2C9
330
1F
100
AcDbEntity
  8
0
  6
Continuous
 62
     2
100
AcDbPolyline
 90
        4
 70
     0
 43
0.35
 10
132.01875
 20
245.9882949219
 10
134.1127890625
 20
250.9882890625
 10
132.7377890625
 20
250.9882890625
 10
132.5606503906
 20
250.154953125
  0
LWPOLYLINE
  5
2CA
330
1F
100
AcDbEntity
  8
0
  6
Continuous
 62
     2
100
AcDbPolyline
 90
        3
 70
     0
 43
0.35
 10
135.9928867187
 20
249.3216386719
 10
136.6909140625
 20
250.9882890625
 10
135.628125
 20
245.9882949219
  0
LWPOLYLINE
  5
2CB
330
1F
100
AcDbEntity
  8
0
  6
Continuous
 62
     2
100
AcDbPolyline
 90
        2
 70
     0
 43
0.35
 10
135.284375
 20
245.9882949219
 10
135.971875
 20
245.9882949219
  0
LWPOLYLINE
  5
2CC
330
1F
100
AcDbEntity
  8
0
  6
Continuous
 62
     2
100
AcDbPolyline
 90
        2
 70
     0
 43
0.35
 10
138.3938945313
 20
248.4883027344
 10
139.7688945313
 20
248.4883027344
  0
LWPOLYLINE
  5
2CD
330
1F
100
AcDbEntity
  8
0
  6
Continuous
 62
     2
100
AcDbPolyline
 90
       12
 70
     0
 43
0.35
 10
142.1856503906
 20
250.154953125
 10
142.0190390625
 20
250.9882890625
 10
141.3315390625
 20
250.9882890625
 10
140.8106503906
 20
250.154953125
 10
140.1021386719
 20
246.8216308594
 10
140.26875
 20
245.9882949219
 10
140.95625
 20
245.9882949219
 10
141.4771386719
 20
246.8216308594
 10
141.8313945313
 20
248.4883027344
 10
141.6647617187
 20
249.3216386719
 10
140.9772617187
 20
249.3216386719
 10
140.4563945313
 20
248.4883027344
  0
LWPOLYLINE
  5
2CE
330
1F
100
AcDbEntity
  8
0
  6
Continuous
 62
     2
100
AcDbPolyline
 90
        9
 70
     0
 43
0.35
 10
143.01875
 20
245.9882949219
 10
143.70625
 20
245.9882949219
 10
144.2271386719
 20
246.8216308594
 10
144.4042558594
 20
247.6549667969
 10
144.2376445313
 20
248.4883027344
 10
143.5501445313
 20
248.4883027344
 10
143.0292558594
 20
247.6549667969
 10
142.8521386719
 20
246.8216308594
 10
143.01875
 20
245.9882949219
  0
LWPOLYLINE
  5
2CF
330
1F
100
AcDbEntity
  8
0
  6
Continuous
 62
     2
100
AcDbPolyline
 90
        8
 70
     0
 43
0.35
 10
144.2376445313
 20
248.4883027344
 10
144.7585117187
 20
249.3216386719
 10
144.9356503906
 20
250.154953125
 10
144.7690390625
 20
250.9882890625
 10
144.0815390625
 20
250.9882890625
 10
143.5606503906
 20
250.154953125
 10
143.3835117187
 20
249.3216386719
 10
143.5501445313
 20
248.4883027344
  0
LINE
  5
2D0
330
1F
100
AcDbEntity
  8
0
  6
Continuous
 62
     7
100
AcDbLine
 10
205.0
 20
277.0
 30
0.0
 11
20.0
 21
277.0
 31
0.0
  0
LINE
  5
2D1
330
1F
100
AcDbEntity
  8
0
  6
Continuous
 62
     7
100
AcDbLine
 10
205.0
 20
277.0
 30
0.0
 11
205.0
 21
20.0
 31
0.0
  0
LINE
  5
2D2
330
1F
100
AcDbEntity
  8
0
  6
Continuous
 62
     7
100
AcDbLine
 10
205.0
 20
269.0
 30
0.0
 11
20.0
 21
269.0
 31
0.0
  0
LINE
  5
2D3
330
1F
100
AcDbEntity
  8
0
  6
Continuous
 62
     7
100
AcDbLine
 10
205.0
 20
261.0
 30
0.0
 11
20.0
 21
261.0
 31
0.0
  0
LINE
  5
2D4
330
1F
100
AcDbEntity
  8
0
  6
Continuous
 62
     7
100
AcDbLine
 10
205.0
 20
253.0
 30
0.0
 11
20.0
 21
253.0
 31
0.0
  0
LINE
  5
2D5
330
1F
100
AcDbEntity
  8
0
  6
Continuous
 62
     7
100
AcDbLine
 10
205.0
 20
245.0
 30
0.0
 11
20.0
 21
245.0
 31
0.0
  0
LINE
  5
2D6
330
1F
100
AcDbEntity
  8
0
  6
Continuous
 62
     7
100
AcDbLine
 10
205.0
 20
237.0
 30
0.0
 11
20.0
 21
237.0
 31
0.0
  0
LINE
  5
2D7
330
1F
100
AcDbEntity
  8
0
  6
Continuous
 62
     7
100
AcDbLine
 10
205.0
 20
229.0
 30
0.0
 11
20.0
 21
229.0
 31
0.0
  0
LINE
  5
2D8
330
1F
100
AcDbEntity
  8
0
  6
Continuous
 62
     7
100
AcDbLine
 10
205.0
 20
221.0
 30
0.0
 11
20.0
 21
221.0
 31
0.0
  0
LINE
  5
2D9
330
1F
100
AcDbEntity
  8
0
  6
Continuous
 62
     7
100
AcDbLine
 10
205.0
 20
213.0
 30
0.0
 11
20.0
 21
213.0
 31
0.0
  0
LINE
  5
2DA
330
1F
100
AcDbEntity
  8
0
  6
Continuous
 62
     7
100
AcDbLine
 10
205.0
 20
205.0
 30
0.0
 11
20.0
 21
205.0
 31
0.0
  0
LINE
  5
2DB
330
1F
100
AcDbEntity
  8
0
  6
Continuous
 62
     7
100
AcDbLine
 10
205.0
 20
197.0
 30
0.0
 11
20.0
 21
197.0
 31
0.0
  0
LINE
  5
2DC
330
1F
100
AcDbEntity
  8
0
  6
Continuous
 62
     7
100
AcDbLine
 10
205.0
 20
189.0
 30
0.0
 11
20.0
 21
189.0
 31
0.0
  0
LINE
  5
2DD
330
1F
100
AcDbEntity
  8
0
  6
Continuous
 62
     7
100
AcDbLine
 10
205.0
 20
181.0
 30
0.0
 11
20.0
 21
181.0
 31
0.0
  0
LINE
  5
2DE
330
1F
100
AcDbEntity
  8
0
  6
Continuous
 62
     7
100
AcDbLine
 10
205.0
 20
173.0
 30
0.0
 11
20.0
 21
173.0
 31
0.0
  0
LINE
  5
2DF
330
1F
100
AcDbEntity
  8
0
  6
Continuous
 62
     7
100
AcDbLine
 10
205.0
 20
165.0
 30
0.0
 11
20.0
 21
165.0
 31
0.0
  0
LINE
  5
2E0
330
1F
100
AcDbEntity
  8
0
  6
Continuous
 62
     7
100
AcDbLine
 10
205.0
 20
157.0
 30
0.0
 11
20.0
 21
157.0
 31
0.0
  0
LINE
  5
2E1
330
1F
100
AcDbEntity
  8
0
  6
Continuous
 62
     7
100
AcDbLine
 10
205.0
 20
149.0
 30
0.0
 11
20.0
 21
149.0
 31
0.0
  0
LINE
  5
2E2
330
1F
100
AcDbEntity
  8
0
  6
Continuous
 62
     7
100
AcDbLine
 10
205.0
 20
141.0
 30
0.0
 11
20.0
 21
141.0
 31
0.0
  0
LINE
  5
2E3
330
1F
100
AcDbEntity
  8
0
  6
Continuous
 62
     7
100
AcDbLine
 10
205.0
 20
133.0
 30
0.0
 11
20.0
 21
133.0
 31
0.0
  0
LINE
  5
2E4
330
1F
100
AcDbEntity
  8
0
  6
Continuous
 62
     7
100
AcDbLine
 10
205.0
 20
125.0
 30
0.0
 11
20.0
 21
125.0
 31
0.0
  0
LINE
  5
2E5
330
1F
100
AcDbEntity
  8
0
  6
Continuous
 62
     7
100
AcDbLine
 10
205.0
 20
117.0
 30
0.0
 11
20.0
 21
117.0
 31
0.0
  0
LINE
  5
2E6
330
1F
100
AcDbEntity
  8
0
  6
Continuous
 62
     7
100
AcDbLine
 10
205.0
 20
109.0
 30
0.0
 11
20.0
 21
109.0
 31
0.0
  0
LINE
  5
2E7
330
1F
100
AcDbEntity
  8
0
  6
Continuous
 62
     7
100
AcDbLine
 10
205.0
 20
101.0
 30
0.0
 11
20.0
 21
101.0
 31
0.0
  0
LINE
  5
2E8
330
1F
100
AcDbEntity
  8
0
  6
Continuous
 62
     7
100
AcDbLine
 10
205.0
 20
93.0
 30
0.0
 11
20.0
 21
93.0
 31
0.0
  0
LINE
  5
2E9
330
1F
100
AcDbEntity
  8
0
  6
Continuous
 62
     7
100
AcDbLine
 10
205.0
 20
85.0
 30
0.0
 11
20.0
 21
85.0
 31
0.0
  0
LINE
  5
2EA
330
1F
100
AcDbEntity
  8
0
  6
Continuous
 62
     7
100
AcDbLine
 10
205.0
 20
77.0
 30
0.0
 11
20.0
 21
77.0
 31
0.0
  0
LINE
  5
2EB
330
1F
100
AcDbEntity
  8
0
  6
Continuous
 62
     7
100
AcDbLine
 10
205.0
 20
69.0
 30
0.0
 11
20.0
 21
69.0
 31
0.0
  0
LINE
  5
2EC
330
1F
100
AcDbEntity
  8
0
  6
Continuous
 62
     7
100
AcDbLine
 10
205.0
 20
61.0
 30
0.0
 11
20.0
 21
61.0
 31
0.0
  0
LINE
  5
2ED
330
1F
100
AcDbEntity
  8
0
  6
Continuous
 62
     7
100
AcDbLine
 10
205.0
 20
53.0
 30
0.0
 11
20.0
 21
53.0
 31
0.0
  0
LINE
  5
2EE
330
1F
100
AcDbEntity
  8
0
  6
Continuous
 62
     7
100
AcDbLine
 10
205.0
 20
45.0
 30
0.0
 11
20.0
 21
45.0
 31
0.0
  0
LINE
  5
2EF
330
1F
100
AcDbEntity
  8
0
  6
Continuous
 62
     7
100
AcDbLine
 10
205.0
 20
37.0
 30
0.0
 11
20.0
 21
37.0
 31
0.0
  0
LINE
  5
2F0
330
1F
100
AcDbEntity
  8
0
  6
Continuous
 62
     7
100
AcDbLine
 10
205.0
 20
29.0
 30
0.0
 11
20.0
 21
29.0
 31
0.0
  0
LINE
  5
2F1
330
1F
100
AcDbEntity
  8
0
  6
Continuous
 62
     7
100
AcDbLine
 10
205.0
 20
20.0
 30
0.0
 11
20.0
 21
20.0
 31
0.0
  0
LINE
  5
2F2
330
1F
100
AcDbEntity
  8
0
  6
Continuous
 62
     7
100
AcDbLine
 10
183.0
 20
277.0
 30
0.0
 11
183.0
 21
20.0
 31
0.0
  0
LINE
  5
2F3
330
1F
100
AcDbEntity
  8
0
  6
Continuous
 62
     7
100
AcDbLine
 10
173.0
 20
277.0
 30
0.0
 11
173.0
 21
20.0
 31
0.0
  0
LINE
  5
2F4
330
1F
100
AcDbEntity
  8
0
  6
Continuous
 62
     7
100
AcDbLine
 10
110.0
 20
277.0
 30
0.0
 11
110.0
 21
20.0
 31
0.0
  0
LINE
  5
2F5
330
1F
100
AcDbEntity
  8
0
  6
Continuous
 62
     7
100
AcDbLine
 10
40.0
 20
277.0
 30
0.0
 11
40.0
 21
20.0
 31
0.0
  0
LINE
  5
2F6
330
1F
100
AcDbEntity
  8
0
  6
Continuous
 62
     7
100
AcDbLine
 10
32.0
 20
277.0
 30
0.0
 11
32.0
 21
20.0
 31
0.0
  0
LINE
  5
2F7
330
1F
100
AcDbEntity
  8
0
  6
Continuous
 62
     7
100
AcDbLine
 10
26.0
 20
277.0
 30
0.0
 11
26.0
 21
20.0
 31
0.0
  0
LINE
  5
2F8
330
1F
100
AcDbEntity
  8
0
  6
Continuous
 62
     7
100
AcDbLine
 10
20.0
 20
277.0
 30
0.0
 11
20.0
 21
20.0
 31
0.0
  0
LINE
  5
2F9
330
1F
100
AcDbEntity
  8
0
  6
Continuous
 62
     7
100
AcDbLine
 10
20.0
 20
5.0
 30
0.0
 11
8.0
 21
5.0
 31
0.0
  0
LINE
  5
2FA
330
1F
100
AcDbEntity
  8
0
  6
Continuous
 62
     7
100
AcDbLine
 10
20.0
 20
5.0
 30
0.0
 11
20.0
 21
150.0
 31
0.0
  0
LINE
  5
2FB
330
1F
100
AcDbEntity
  8
0
  6
Continuous
 62
     7
100
AcDbLine
 10
20.0
 20
30.0
 30
0.0
 11
8.0
 21
30.0
 31
0.0
  0
LINE
  5
2FC
330
1F
100
AcDbEntity
  8
0
  6
Continuous
 62
     7
100
AcDbLine
 10
20.0
 20
65.0
 30
0.0
 11
8.0
 21
65.0
 31
0.0
  0
LINE
  5
2FD
330
1F
100
AcDbEntity
  8
0
  6
Continuous
 62
     7
100
AcDbLine
 10
20.0
 20
90.0
 30
0.0
 11
8.0
 21
90.0
 31
0.0
  0
LINE
  5
2FE
330
1F
100
AcDbEntity
  8
0
  6
Continuous
 62
     7
100
AcDbLine
 10
20.0
 20
115.0
 30
0.0
 11
8.0
 21
115.0
 31
0.0
  0
LINE
  5
2FF
330
1F
100
AcDbEntity
  8
0
  6
Continuous
 62
     7
100
AcDbLine
 10
20.0
 20
150.0
 30
0.0
 11
8.0
 21
150.0
 31
0.0
  0
LINE
  5
300
330
1F
100
AcDbEntity
  8
0
  6
Continuous
 62
     7
100
AcDbLine
 10
13.0
 20
5.0
 30
0.0
 11
13.0
 21
150.0
 31
0.0
  0
LINE
  5
301
330
1F
100
AcDbEntity
  8
0
  6
Continuous
 62
     7
100
AcDbLine
 10
8.0
 20
5.0
 30
0.0
 11
8.0
 21
150.0
 31
0.0
  0
LWPOLYLINE
  5
302
330
1F
100
AcDbEntity
  8
0
  6
Continuous
 62
     2
100
AcDbPolyline
 90
        4
 70
     0
 43
0.35
 10
8.987767578099999
 20
6.6176695557
 10
11.9877651367
 20
5.979999877899999
 10
8.987767578099999
 20
7.577669982899999
 10
11.9877651367
 20
6.940000305199999
  0
LWPOLYLINE
  5
303
330
1F
100
AcDbEntity
  8
0
  6
Continuous
 62
     2
100
AcDbPolyline
 90
        2
 70
     0
 43
0.35
 10
11.9877651367
 20
7.900000061
 10
9.9877685547
 20
8.325113403299999
  0
LWPOLYLINE
  5
304
330
1F
100
AcDbEntity
  8
0
  6
Continuous
 62
     2
100
AcDbPolyline
 90
        2
 70
     0
 43
0.35
 10
10.9877641602
 20
8.1125563965
 10
10.9877641602
 20
9.072556823699999
  0
LWPOLYLINE
  5
305
330
1F
100
AcDbEntity
  8
0
  6
Continuous
 62
     2
100
AcDbPolyline
 90
        2
 70
     0
 43
0.35
 10
9.9877685547
 20
9.285113159199999
 10
11.9877651367
 20
8.8599998169
  0
LWPOLYLINE
  5
306
330
1F
100
AcDbEntity
  8
0
  6
Continuous
 62
     2
100
AcDbPolyline
 90
       12
 70
     0
 43
0.35
 10
10.4877636719
 20
10.138835083
 10
9.487768066399999
 20
10.8313912964
 10
8.987767578099999
 20
10.9376697998
 10
8.987767578099999
 20
10.6976698608
 10
9.487768066399999
 20
10.3513914185
 10
11.4877646484
 20
9.9262780762
 10
11.9877651367
 20
10.0600001831
 10
11.9877651367
 20
10.540000061
 10
11.4877646484
 20
10.8862785034
 10
10.4877636719
 20
11.0988348389
 10
9.9877685547
 20
10.9651134033
 10
9.9877685547
 20
10.485112854
  0
LWPOLYLINE
  5
307
330
1F
100
AcDbEntity
  8
0
  6
Continuous
 62
     2
100
AcDbPolyline
 90
        5
 70
     0
 43
0.35
 10
11.9877651367
 20
11.8599993896
 10
11.9877651367
 20
11.7399997559
 10
11.7377675781
 20
11.7931386719
 10
11.7377675781
 20
11.9131396484
 10
11.9877651367
 20
11.8599993896
  0
LWPOLYLINE
  5
308
330
1F
100
AcDbEntity
  8
0
  6
Continuous
 62
     2
100
AcDbPolyline
 90
        4
 70
     0
 43
0.35
 10
11.9877651367
 20
15.5800001221
 10
8.987767578099999
 20
16.2176697998
 10
11.9877651367
 20
16.53999987789999
 10
8.987767578099999
 20
17.1776695557
  0
LWPOLYLINE
  5
309
330
1F
100
AcDbEntity
  8
0
  6
Continuous
 62
     2
100
AcDbPolyline
 90
        2
 70
     0
 43
0.35
 10
11.9877651367
 20
19.42000048829999
 10
9.9877685547
 20
19.8451131592
  0
LWPOLYLINE
  5
30A
330
1F
100
AcDbEntity
  8
0
  6
Continuous
 62
     2
100
AcDbPolyline
 90
        5
 70
     0
 43
0.35
 10
10.4877636719
 20
19.7388353271
 10
9.9877685547
 20
20.0851137695
 10
9.9877685547
 20
20.5651136475
 10
10.4877636719
 20
20.698835083
 10
11.9877651367
 20
20.3800002441
  0
LWPOLYLINE
  5
30B
330
1F
100
AcDbEntity
  8
0
  6
Continuous
 62
     2
100
AcDbPolyline
 90
        9
 70
     0
 43
0.35
 10
11.4877646484
 20
21.446277832
 10
11.9877651367
 20
21.5800006104
 10
11.9877651367
 20
22.0600004883
 10
11.4877646484
 20
22.4062789307
 10
10.4877636719
 20
22.6188359375
 10
9.9877685547
 20
22.4851131592
 10
9.9877685547
 20
22.0051132813
 10
10.4877636719
 20
21.6588348389
 10
11.4877646484
 20
21.446277832
  0
LWPOLYLINE
  5
30C
330
1F
100
AcDbEntity
  8
0
  6
Continuous
 62
     2
100
AcDbPolyline
 90
       11
 70
     0
 43
0.35
 10
10.4877636719
 20
24.5388354492
 10
9.9877685547
 20
24.4051140137
 10
9.9877685547
 20
23.925112793
 10
10.4877636719
 20
23.5788356934
 10
11.4877646484
 20
23.3662773438
 10
11.9877651367
 20
23.4999987793
 10
11.9877651367
 20
23.98
 10
11.4877646484
 20
24.3262770996
 10
9.487768066399999
 20
24.7513911133
 10
8.987767578099999
 20
24.6176696777
 10
8.987767578099999
 20
24.137668457
  0
LWPOLYLINE
  5
30D
330
1F
100
AcDbEntity
  8
0
  6
Continuous
 62
     2
100
AcDbPolyline
 90
        3
 70
     0
 43
0.35
 10
11.9877651367
 20
25.1799990234
 10
9.9877685547
 20
26.0851142578
 10
11.9877651367
 20
26.1399987793
  0
LWPOLYLINE
  5
30E
330
1F
100
AcDbEntity
  8
0
  6
Continuous
 62
     2
100
AcDbPolyline
 90
        5
 70
     0
 43
0.35
 10
11.9877651367
 20
27.2199995117
 10
11.9877651367
 20
27.1000012207
 10
11.7377675781
 20
27.1531401367
 10
11.7377675781
 20
27.2731384277
 10
11.9877651367
 20
27.2199995117
  0
LWPOLYLINE
  5
30F
330
1F
100
AcDbEntity
  8
0
  6
Continuous
 62
     2
100
AcDbPolyline
 90
        4
 70
     0
 43
0.35
 10
11.9877651367
 20
35.9800009766
 10
8.987767578099999
 20
36.6176706543
 10
8.987767578099999
 20
37.5776704102
 10
11.9877651367
 20
36.9400007324
  0
LWPOLYLINE
  5
310
330
1F
100
AcDbEntity
  8
0
  6
Continuous
 62
     2
100
AcDbPolyline
 90
        9
 70
     0
 43
0.35
 10
11.4877646484
 20
38.00627832030001
 10
11.9877651367
 20
38.1399997559
 10
11.9877651367
 20
38.6200009766
 10
11.4877646484
 20
38.9662780762
 10
10.4877636719
 20
39.1788337402
 10
9.9877685547
 20
39.0451123047
 10
9.9877685547
 20
38.56511376949999
 10
10.4877636719
 20
38.2188339844
 10
11.4877646484
 20
38.00627832030001
  0
LWPOLYLINE
  5
311
330
1F
100
AcDbEntity
  8
0
  6
Continuous
 62
     2
100
AcDbPolyline
 90
       11
 70
     0
 43
0.35
 10
10.4877636719
 20
41.0988359375
 10
9.9877685547
 20
40.96511181639999
 10
9.9877685547
 20
40.4851132813
 10
10.4877636719
 20
40.1388361816
 10
11.4877646484
 20
39.926277832
 10
11.9877651367
 20
40.0599992676
 10
11.9877651367
 20
40.5400004883
 10
11.4877646484
 20
40.88627758789999
 10
9.487768066399999
 20
41.3113916016
 10
8.987767578099999
 20
41.177670166
 10
8.987767578099999
 20
40.6976689453
  0
LWPOLYLINE
  5
312
330
1F
100
AcDbEntity
  8
0
  6
Continuous
 62
     2
100
AcDbPolyline
 90
        2
 70
     0
 43
0.35
 10
11.9877651367
 20
41.73999951169999
 10
9.9877685547
 20
42.1651135254
  0
LWPOLYLINE
  5
313
330
1F
100
AcDbEntity
  8
0
  6
Continuous
 62
     2
100
AcDbPolyline
 90
        5
 70
     0
 43
0.35
 10
10.4877636719
 20
42.0588356934
 10
9.9877685547
 20
42.405112793
 10
9.9877685547
 20
42.8851140137
 10
10.4877636719
 20
43.01883544919999
 10
11.9877651367
 20
42.69999926759999
  0
LWPOLYLINE
  5
314
330
1F
100
AcDbEntity
  8
0
  6
Continuous
 62
     2
100
AcDbPolyline
 90
        5
 70
     0
 43
0.35
 10
11.9877651367
 20
43.78
 10
11.9877651367
 20
43.6599990234
 10
11.7377675781
 20
43.7131379395
 10
11.7377675781
 20
43.833138916
 10
11.9877651367
 20
43.78
  0
LWPOLYLINE
  5
315
330
1F
100
AcDbEntity
  8
0
  6
Continuous
 62
     2
100
AcDbPolyline
 90
        5
 70
     0
 43
0.35
 10
9.9877685547
 20
47.92511474609999
 10
11.4877646484
 20
47.6062758789
 10
11.9877651367
 20
47.74
 10
11.9877651367
 20
47.98000195310001
 10
10.9877641602
 20
48.6725561523
  0
LWPOLYLINE
  5
316
330
1F
100
AcDbEntity
  8
0
  6
Continuous
 62
     2
100
AcDbPolyline
 90
        2
 70
     0
 43
0.35
 10
9.9877685547
 20
48.88511181640001
 10
11.9877651367
 20
48.46000048829999
  0
LWPOLYLINE
  5
317
330
1F
100
AcDbEntity
  8
0
  6
Continuous
 62
     2
100
AcDbPolyline
 90
       11
 70
     0
 43
0.35
 10
10.4877636719
 20
52.6188330078
 10
9.9877685547
 20
52.4851142578
 10
9.9877685547
 20
52.0051157227
 10
10.4877636719
 20
51.6588359375
 10
11.4877646484
 20
51.4462802734
 10
11.9877651367
 20
51.5799990234
 10
11.9877651367
 20
52.05999755859999
 10
11.4877646484
 20
52.4062773438
 10
9.487768066399999
 20
52.831394043
 10
8.987767578099999
 20
52.6976699219
 10
8.987767578099999
 20
52.21767138669999
  0
LWPOLYLINE
  5
318
330
1F
100
AcDbEntity
  8
0
  6
Continuous
 62
     2
100
AcDbPolyline
 90
        8
 70
     0
 43
0.35
 10
10.4877636719
 20
54.53883251949999
 10
9.9877685547
 20
54.40511376949999
 10
9.9877685547
 20
53.92511523439999
 10
10.4877636719
 20
53.57883544919999
 10
11.4877646484
 20
53.36627978520001
 10
11.9877651367
 20
53.4999985352
 10
11.9877651367
 20
53.9800024414
 10
11.4877646484
 20
54.3262768555
  0
LWPOLYLINE
  5
319
330
1F
100
AcDbEntity
  8
0
  6
Continuous
 62
     2
100
AcDbPolyline
 90
        3
 70
     0
 43
0.35
 10
9.9877685547
 20
54.64511572270001
 10
11.4877646484
 20
54.3262768555
 10
11.9877651367
 20
54.34000000000001
  0
LWPOLYLINE
  5
31A
330
1F
100
AcDbEntity
  8
0
  6
Continuous
 62
     2
100
AcDbPolyline
 90
        2
 70
     0
 43
0.35
 10
11.9877651367
 20
55.18000146479999
 10
9.9877685547
 20
55.605112793
  0
LWPOLYLINE
  5
31B
330
1F
100
AcDbEntity
  8
0
  6
Continuous
 62
     2
100
AcDbPolyline
 90
        4
 70
     0
 43
0.35
 10
10.4877636719
 20
55.4988349609
 10
9.9877685547
 20
55.8451147461
 10
10.4877636719
 20
55.9788334961
 10
11.9877651367
 20
55.65999999999999
  0
LWPOLYLINE
  5
31C
330
1F
100
AcDbEntity
  8
0
  6
Continuous
 62
     2
100
AcDbPolyline
 90
        4
 70
     0
 43
0.35
 10
10.4877636719
 20
55.9788334961
 10
9.9877685547
 20
56.3251132813
 10
10.4877636719
 20
56.4588374023
 10
11.9877651367
 20
56.13999853520001
  0
LWPOLYLINE
  5
31D
330
1F
100
AcDbEntity
  8
0
  6
Continuous
 62
     2
100
AcDbPolyline
 90
        8
 70
     0
 43
0.35
 10
10.4877636719
 20
58.3788369141
 10
9.9877685547
 20
58.24511279300001
 10
9.9877685547
 20
57.7651142578
 10
10.4877636719
 20
57.41883447270001
 10
11.4877646484
 20
57.2062788086
 10
11.9877651367
 20
57.3399975586
 10
11.9877651367
 20
57.82000146479999
 10
11.4877646484
 20
58.1662758789
  0
LWPOLYLINE
  5
31E
330
1F
100
AcDbEntity
  8
0
  6
Continuous
 62
     2
100
AcDbPolyline
 90
        3
 70
     0
 43
0.35
 10
9.9877685547
 20
58.48511474609999
 10
11.4877646484
 20
58.1662758789
 10
11.9877651367
 20
58.1799990234
  0
LWPOLYLINE
  5
31F
330
1F
100
AcDbEntity
  8
0
  6
Continuous
 62
     2
100
AcDbPolyline
 90
       10
 70
     0
 43
0.35
 10
11.9877651367
 20
65.97999804689999
 10
11.9877651367
 20
66.69999853520001
 10
11.4877646484
 20
67.0462783203
 10
10.9877641602
 20
67.15255615229999
 10
10.4877636719
 20
67.01883740229999
 10
9.9877685547
 20
67.3651118164
 10
9.487768066399999
 20
67.47138964840001
 10
8.987767578099999
 20
67.3376708984
 10
8.987767578099999
 20
66.6176704102
 10
11.9877651367
 20
65.97999804689999
  0
LWPOLYLINE
  5
320
330
1F
100
AcDbEntity
  8
0
  6
Continuous
 62
     2
100
AcDbPolyline
 90
        2
 70
     0
 43
0.35
 10
10.4877636719
 20
66.29883691409999
 10
10.4877636719
 20
67.01883740229999
  0
LWPOLYLINE
  5
321
330
1F
100
AcDbEntity
  8
0
  6
Continuous
 62
     2
100
AcDbPolyline
 90
        9
 70
     0
 43
0.35
 10
11.4877646484
 20
68.00628076169999
 10
11.9877651367
 20
68.1399995117
 10
11.9877651367
 20
68.61999804689999
 10
11.4877646484
 20
68.966277832
 10
10.9877641602
 20
68.832559082
 10
10.4877636719
 20
69.1788334961
 10
9.9877685547
 20
69.0451147461
 10
9.9877685547
 20
68.5651108398
 10
10.4877636719
 20
68.21883642579999
  0
LWPOLYLINE
  5
322
330
1F
100
AcDbEntity
  8
0
  6
Continuous
 62
     2
100
AcDbPolyline
 90
        2
 70
     0
 43
0.35
 10
10.9877641602
 20
68.5925571289
 10
10.9877641602
 20
68.832559082
  0
LWPOLYLINE
  5
323
330
1F
100
AcDbEntity
  8
0
  6
Continuous
 62
     2
100
AcDbPolyline
 90
        8
 70
     0
 43
0.35
 10
10.4877636719
 20
71.09883300779999
 10
9.9877685547
 20
70.9651142578
 10
9.9877685547
 20
70.4851157227
 10
10.4877636719
 20
70.13883593750001
 10
11.4877646484
 20
69.9262802734
 10
11.9877651367
 20
70.0599990234
 10
11.9877651367
 20
70.53999755859999
 10
11.4877646484
 20
70.88627734380001
  0
LWPOLYLINE
  5
324
330
1F
100
AcDbEntity
  8
0
  6
Continuous
 62
     2
100
AcDbPolyline
 90
        3
 70
     0
 43
0.35
 10
9.9877685547
 20
71.2051108398
 10
11.4877646484
 20
70.88627734380001
 10
11.9877651367
 20
70.90000048829999
  0
LWPOLYLINE
  5
325
330
1F
100
AcDbEntity
  8
0
  6
Continuous
 62
     2
100
AcDbPolyline
 90
        5
 70
     0
 43
0.35
 10
11.9877651367
 20
71.7400019531
 10
9.9877685547
 20
72.1651132813
 10
10.9877641602
 20
72.43255615229999
 10
9.9877685547
 20
73.1251157227
 10
11.9877651367
 20
72.6999990234
  0
LWPOLYLINE
  5
326
330
1F
100
AcDbEntity
  8
0
  6
Continuous
 62
     2
100
AcDbPolyline
 90
        5
 70
     0
 43
0.35
 10
11.9877651367
 20
73.7800024414
 10
11.9877651367
 20
73.66000146479999
 10
11.7377675781
 20
73.71313769529999
 10
11.7377675781
 20
73.8331386719
 10
11.9877651367
 20
73.7800024414
  0
LWPOLYLINE
  5
327
330
1F
100
AcDbEntity
  8
0
  6
Continuous
 62
     2
100
AcDbPolyline
 90
        5
 70
     0
 43
0.35
 10
9.9877685547
 20
77.92511181640001
 10
11.4877646484
 20
77.60627832029999
 10
11.9877651367
 20
77.74000244140001
 10
11.9877651367
 20
77.97999902339999
 10
10.9877641602
 20
78.67255859380001
  0
LWPOLYLINE
  5
328
330
1F
100
AcDbEntity
  8
0
  6
Continuous
 62
     2
100
AcDbPolyline
 90
        2
 70
     0
 43
0.35
 10
9.9877685547
 20
78.88511425779999
 10
11.9877651367
 20
78.45999755859999
  0
LWPOLYLINE
  5
329
330
1F
100
AcDbEntity
  8
0
  6
Continuous
 62
     2
100
AcDbPolyline
 90
        2
 70
     0
 43
0.35
 10
11.9877651367
 20
79.42
 10
9.9877685547
 20
79.8451113281
  0
LWPOLYLINE
  5
32A
330
1F
100
AcDbEntity
  8
0
  6
Continuous
 62
     2
100
AcDbPolyline
 90
        2
 70
     0
 43
0.35
 10
10.9877641602
 20
79.63255566409999
 10
10.9877641602
 20
80.5925581055
  0
LWPOLYLINE
  5
32B
330
1F
100
AcDbEntity
  8
0
  6
Continuous
 62
     2
100
AcDbPolyline
 90
        2
 70
     0
 43
0.35
 10
9.9877685547
 20
80.80511376949999
 10
11.9877651367
 20
80.3800024414
  0
LWPOLYLINE
  5
32C
330
1F
100
AcDbEntity
  8
0
  6
Continuous
 62
     2
100
AcDbPolyline
 90
       12
 70
     0
 43
0.35
 10
10.4877636719
 20
81.6588330078
 10
9.487768066399999
 20
82.35139257810001
 10
8.987767578099999
 20
82.4576704102
 10
8.987767578099999
 20
82.21766845700001
 10
9.487768066399999
 20
81.87139404299999
 10
11.4877646484
 20
81.4462773438
 10
11.9877651367
 20
81.58000146479999
 10
11.9877651367
 20
82.06000000000001
 10
11.4877646484
 20
82.4062797852
 10
10.4877636719
 20
82.61883544920001
 10
9.9877685547
 20
82.4851113281
 10
9.9877685547
 20
82.005112793
  0
LWPOLYLINE
  5
32D
330
1F
100
AcDbEntity
  8
0
  6
Continuous
 62
     2
100
AcDbPolyline
 90
        5
 70
     0
 43
0.35
 10
11.9877651367
 20
83.37999999999999
 10
11.9877651367
 20
83.25999902339999
 10
11.7377675781
 20
83.313140625
 10
11.7377675781
 20
83.4331416016
 10
11.9877651367
 20
83.37999999999999
  0
LWPOLYLINE
  5
32E
330
1F
100
AcDbEntity
  8
0
  6
Continuous
 62
     2
100
AcDbPolyline
 90
        4
 70
     0
 43
0.35
 10
11.9877651367
 20
87.09999804690001
 10
8.987767578099999
 20
87.73767041020001
 10
11.9877651367
 20
88.0600004883
 10
8.987767578099999
 20
88.69766748049999
  0
LWPOLYLINE
  5
32F
330
1F
100
AcDbEntity
  8
0
  6
Continuous
 62
     2
100
AcDbPolyline
 90
        4
 70
     0
 43
0.35
 10
8.987767578099999
 20
91.6176679688
 10
11.9877651367
 20
90.98000097659999
 10
8.987767578099999
 20
92.5776650391
 10
11.9877651367
 20
91.93999804689999
  0
LWPOLYLINE
  5
330
330
1F
100
AcDbEntity
  8
0
  6
Continuous
 62
     2
100
AcDbPolyline
 90
        2
 70
     0
 43
0.35
 10
11.9877651367
 20
92.89999511719999
 10
9.9877685547
 20
93.3251171875
  0
LWPOLYLINE
  5
331
330
1F
100
AcDbEntity
  8
0
  6
Continuous
 62
     2
100
AcDbPolyline
 90
        2
 70
     0
 43
0.35
 10
10.9877641602
 20
93.1125615234
 10
10.9877641602
 20
94.07255859379999
  0
LWPOLYLINE
  5
332
330
1F
100
AcDbEntity
  8
0
  6
Continuous
 62
     2
100
AcDbPolyline
 90
        2
 70
     0
 43
0.35
 10
9.9877685547
 20
94.2851142578
 10
11.9877651367
 20
93.86000292969999
  0
LWPOLYLINE
  5
333
330
1F
100
AcDbEntity
  8
0
  6
Continuous
 62
     2
100
AcDbPolyline
 90
       12
 70
     0
 43
0.35
 10
10.4877636719
 20
95.1388388672
 10
9.487768066399999
 20
95.8313876953
 10
8.987767578099999
 20
95.9376708984
 10
8.987767578099999
 20
95.69766894530001
 10
9.487768066399999
 20
95.35139453129998
 10
11.4877646484
 20
94.9262832031
 10
11.9877651367
 20
95.06000195309999
 10
11.9877651367
 20
95.53999511719998
 10
11.4877646484
 20
95.8862802734
 10
10.4877636719
 20
96.0988359375
 10
9.9877685547
 20
95.96511718749999
 10
9.9877685547
 20
95.48511328129999
  0
LWPOLYLINE
  5
334
330
1F
100
AcDbEntity
  8
0
  6
Continuous
 62
     2
100
AcDbPolyline
 90
        5
 70
     0
 43
0.35
 10
11.9877651367
 20
96.85999511719998
 10
11.9877651367
 20
96.7400048828
 10
11.7377675781
 20
96.7931357422
 10
11.7377675781
 20
96.91313671879999
 10
11.9877651367
 20
96.85999511719998
  0
LWPOLYLINE
  5
335
330
1F
100
AcDbEntity
  8
0
  6
Continuous
 62
     2
100
AcDbPolyline
 90
        4
 70
     0
 43
0.35
 10
11.9877651367
 20
100.5800039063
 10
8.987767578099999
 20
101.2176708984
 10
11.9877651367
 20
101.5400009766
 10
8.987767578099999
 20
102.1776679688
  0
LWPOLYLINE
  5
336
330
1F
100
AcDbEntity
  8
0
  6
Continuous
 62
     2
100
AcDbPolyline
 90
       11
 70
     0
 43
0.35
 10
10.4877636719
 20
105.6988388672
 10
9.9877685547
 20
105.565109375
 10
9.9877685547
 20
105.0851162109
 10
10.4877636719
 20
104.7388310547
 10
11.4877646484
 20
104.5262753906
 10
11.9877651367
 20
104.6600048828
 10
11.9877651367
 20
105.1399980469
 10
11.4877646484
 20
105.4862832031
 10
9.487768066399999
 20
105.9113945313
 10
8.987767578099999
 20
105.7776650391
 10
8.987767578099999
 20
105.297671875
  0
LWPOLYLINE
  5
337
330
1F
100
AcDbEntity
  8
0
  6
Continuous
 62
     2
100
AcDbPolyline
 90
        2
 70
     0
 43
0.35
 10
9.9877685547
 20
106.7651083984
 10
11.9877651367
 20
106.8200009766
  0
LWPOLYLINE
  5
338
330
1F
100
AcDbEntity
  8
0
  6
Continuous
 62
     2
100
AcDbPolyline
 90
        3
 70
     0
 43
0.35
 10
12.9877661133
 20
106.1274414063
 10
12.9877661133
 20
106.3674433594
 10
9.9877685547
 20
107.7251162109
  0
LWPOLYLINE
  5
339
330
1F
100
AcDbEntity
  8
0
  6
Continuous
 62
     2
100
AcDbPolyline
 90
       10
 70
     0
 43
0.35
 10
9.9877685547
 20
109.4051083984
 10
9.9877685547
 20
108.9251152344
 10
10.4877636719
 20
108.5788300781
 10
11.4877646484
 20
108.3662744141
 10
11.9877651367
 20
108.5000039063
 10
11.9877651367
 20
108.9799970703
 10
11.4877646484
 20
109.3262822266
 10
10.4877636719
 20
109.5388378906
 10
8.987767578099999
 20
109.1376708984
 10
8.987767578099999
 20
109.8576660156
  0
LWPOLYLINE
  5
33A
330
1F
100
AcDbEntity
  8
0
  6
Continuous
 62
     2
100
AcDbPolyline
 90
        3
 70
     0
 43
0.35
 10
11.9877651367
 20
110.1799960938
 10
9.9877685547
 20
111.0851113281
 10
11.9877651367
 20
111.1400039063
  0
LWPOLYLINE
  5
33B
330
1F
100
AcDbEntity
  8
0
  6
Continuous
 62
     2
100
AcDbPolyline
 90
        5
 70
     0
 43
0.35
 10
11.9877651367
 20
112.2200019531
 10
11.9877651367
 20
112.1000009766
 10
11.7377675781
 20
112.1531425781
 10
11.7377675781
 20
112.2731435547
 10
11.9877651367
 20
112.2200019531
  0
LWPOLYLINE
  5
33C
330
1F
100
AcDbEntity
  8
0
  6
Continuous
 62
     2
100
AcDbPolyline
 90
        4
 70
     0
 43
0.35
 10
11.9877651367
 20
120.9799980469
 10
8.987767578099999
 20
121.6176650391
 10
8.987767578099999
 20
122.5776728516
 10
11.9877651367
 20
121.9399951172
  0
LWPOLYLINE
  5
33D
330
1F
100
AcDbEntity
  8
0
  6
Continuous
 62
     2
100
AcDbPolyline
 90
        9
 70
     0
 43
0.35
 10
11.4877646484
 20
123.0062753906
 10
11.9877651367
 20
123.1400048828
 10
11.9877651367
 20
123.6199980469
 10
11.4877646484
 20
123.9662832031
 10
10.4877636719
 20
124.1788388672
 10
9.9877685547
 20
124.045109375
 10
9.9877685547
 20
123.5651162109
 10
10.4877636719
 20
123.2188310547
 10
11.4877646484
 20
123.0062753906
  0
LWPOLYLINE
  5
33E
330
1F
100
AcDbEntity
  8
0
  6
Continuous
 62
     2
100
AcDbPolyline
 90
       11
 70
     0
 43
0.35
 10
10.4877636719
 20
126.0988330078
 10
9.9877685547
 20
125.9651142578
 10
9.9877685547
 20
125.4851103516
 10
10.4877636719
 20
125.1388359375
 10
11.4877646484
 20
124.9262802734
 10
11.9877651367
 20
125.0599990234
 10
11.9877651367
 20
125.5400029297
 10
11.4877646484
 20
125.8862773438
 10
9.487768066399999
 20
126.3113886719
 10
8.987767578099999
 20
126.1776699219
 10
8.987767578099999
 20
125.6976660156
  0
LWPOLYLINE
  5
33F
330
1F
100
AcDbEntity
  8
0
  6
Continuous
 62
     2
100
AcDbPolyline
 90
        2
 70
     0
 43
0.35
 10
11.9877651367
 20
126.7400019531
 10
9.9877685547
 20
127.1651132813
  0
LWPOLYLINE
  5
340
330
1F
100
AcDbEntity
  8
0
  6
Continuous
 62
     2
100
AcDbPolyline
 90
        5
 70
     0
 43
0.35
 10
10.4877636719
 20
127.0588300781
 10
9.9877685547
 20
127.4051152344
 10
9.9877685547
 20
127.8851083984
 10
10.4877636719
 20
128.0188378906
 10
11.9877651367
 20
127.6999990234
  0
LWPOLYLINE
  5
341
330
1F
100
AcDbEntity
  8
0
  6
Continuous
 62
     2
100
AcDbPolyline
 90
        5
 70
     0
 43
0.35
 10
11.9877651367
 20
128.7799970703
 10
11.9877651367
 20
128.6599960938
 10
11.7377675781
 20
128.7131376953
 10
11.7377675781
 20
128.8331386719
 10
11.9877651367
 20
128.7799970703
  0
LWPOLYLINE
  5
342
330
1F
100
AcDbEntity
  8
0
  6
Continuous
 62
     2
100
AcDbPolyline
 90
        5
 70
     0
 43
0.35
 10
9.9877685547
 20
132.9251171875
 10
11.4877646484
 20
132.6062783203
 10
11.9877651367
 20
132.7399970703
 10
11.9877651367
 20
132.9799990234
 10
10.9877641602
 20
133.6725585938
  0
LWPOLYLINE
  5
343
330
1F
100
AcDbEntity
  8
0
  6
Continuous
 62
     2
100
AcDbPolyline
 90
        2
 70
     0
 43
0.35
 10
9.9877685547
 20
133.8851142578
 10
11.9877651367
 20
133.4600029297
  0
LWPOLYLINE
  5
344
330
1F
100
AcDbEntity
  8
0
  6
Continuous
 62
     2
100
AcDbPolyline
 90
       11
 70
     0
 43
0.35
 10
10.4877636719
 20
137.6188300781
 10
9.9877685547
 20
137.4851113281
 10
9.9877685547
 20
137.0051181641
 10
10.4877636719
 20
136.6588330078
 10
11.4877646484
 20
136.4462773438
 10
11.9877651367
 20
136.5799960938
 10
11.9877651367
 20
137.06
 10
11.4877646484
 20
137.4062744141
 10
9.487768066399999
 20
137.8313964844
 10
8.987767578099999
 20
137.6976669922
 10
8.987767578099999
 20
137.2176738281
  0
LWPOLYLINE
  5
345
330
1F
100
AcDbEntity
  8
0
  6
Continuous
 62
     2
100
AcDbPolyline
 90
        8
 70
     0
 43
0.35
 10
10.4877636719
 20
139.5388349609
 10
9.9877685547
 20
139.4051162109
 10
9.9877685547
 20
138.9251123046999
 10
10.4877636719
 20
138.5788378906
 10
11.4877646484
 20
138.3662822266
 10
11.9877651367
 20
138.5000009766
 10
11.9877651367
 20
138.9800048828
 10
11.4877646484
 20
139.3262792969
  0
LWPOLYLINE
  5
346
330
1F
100
AcDbEntity
  8
0
  6
Continuous
 62
     2
100
AcDbPolyline
 90
        3
 70
     0
 43
0.35
 10
9.9877685547
 20
139.6451181641
 10
11.4877646484
 20
139.3262792969
 10
11.9877651367
 20
139.3399970703
  0
LWPOLYLINE
  5
347
330
1F
100
AcDbEntity
  8
0
  6
Continuous
 62
     2
100
AcDbPolyline
 90
        2
 70
     0
 43
0.35
 10
11.9877651367
 20
140.1800039063
 10
9.9877685547
 20
140.6051152344
  0
LWPOLYLINE
  5
348
330
1F
100
AcDbEntity
  8
0
  6
Continuous
 62
     2
100
AcDbPolyline
 90
        4
 70
     0
 43
0.35
 10
10.4877636719
 20
140.4988320313
 10
9.9877685547
 20
140.8451171875
 10
10.4877636719
 20
140.9788359375
 10
11.9877651367
 20
140.6599970703
  0
LWPOLYLINE
  5
349
330
1F
100
AcDbEntity
  8
0
  6
Continuous
 62
     2
100
AcDbPolyline
 90
        4
 70
     0
 43
0.35
 10
10.4877636719
 20
140.9788359375
 10
9.9877685547
 20
141.3251103516
 10
10.4877636719
 20
141.4588398438
 10
11.9877651367
 20
141.1400009766
  0
LWPOLYLINE
  5
34A
330
1F
100
AcDbEntity
  8
0
  6
Continuous
 62
     2
100
AcDbPolyline
 90
        8
 70
     0
 43
0.35
 10
10.4877636719
 20
143.3788339844
 10
9.9877685547
 20
143.2451152344
 10
9.9877685547
 20
142.7651113281
 10
10.4877636719
 20
142.4188369141
 10
11.4877646484
 20
142.20628125
 10
11.9877651367
 20
142.34
 10
11.9877651367
 20
142.8200039063
 10
11.4877646484
 20
143.1662783203
  0
LWPOLYLINE
  5
34B
330
1F
100
AcDbEntity
  8
0
  6
Continuous
 62
     2
100
AcDbPolyline
 90
        3
 70
     0
 43
0.35
 10
9.9877685547
 20
143.4851171875
 10
11.4877646484
 20
143.1662783203
 10
11.9877651367
 20
143.1799960938
  0
LINE
  5
34C
330
1F
100
AcDbEntity
  8
0
  6
Continuous
 62
     7
100
AcDbLine
 10
205.0
 20
5.0
 30
0.0
 11
20.0
 21
5.0
 31
0.0
  0
LINE
  5
34D
330
1F
100
AcDbEntity
  8
0
  6
Continuous
 62
     7
100
AcDbLine
 10
205.0
 20
5.0
 30
0.0
 11
205.0
 21
20.0
 31
0.0
  0
LINE
  5
34E
330
1F
100
AcDbEntity
  8
0
  6
Continuous
 62
     7
100
AcDbLine
 10
85.0
 20
10.0
 30
0.0
 11
20.0
 21
10.0
 31
0.0
  0
LINE
  5
34F
330
1F
100
AcDbEntity
  8
0
  6
Continuous
 62
     7
100
AcDbLine
 10
205.0
 20
13.0
 30
0.0
 11
195.0
 21
13.0
 31
0.0
  0
LINE
  5
350
330
1F
100
AcDbEntity
  8
0
  6
Continuous
 62
     7
100
AcDbLine
 10
85.0
 20
15.0
 30
0.0
 11
20.0
 21
15.0
 31
0.0
  0
LINE
  5
351
330
1F
100
AcDbEntity
  8
0
  6
Continuous
 62
     7
100
AcDbLine
 10
205.0
 20
20.0
 30
0.0
 11
20.0
 21
20.0
 31
0.0
  0
LINE
  5
352
330
1F
100
AcDbEntity
  8
0
  6
Continuous
 62
     7
100
AcDbLine
 10
195.0
 20
5.0
 30
0.0
 11
195.0
 21
20.0
 31
0.0
  0
LINE
  5
353
330
1F
100
AcDbEntity
  8
0
  6
Continuous
 62
     7
100
AcDbLine
 10
85.0
 20
5.0
 30
0.0
 11
85.0
 21
20.0
 31
0.0
  0
LINE
  5
354
330
1F
100
AcDbEntity
  8
0
  6
Continuous
 62
     7
100
AcDbLine
 10
75.0
 20
5.0
 30
0.0
 11
75.0
 21
20.0
 31
0.0
  0
LINE
  5
355
330
1F
100
AcDbEntity
  8
0
  6
Continuous
 62
     7
100
AcDbLine
 10
60.0
 20
5.0
 30
0.0
 11
60.0
 21
20.0
 31
0.0
  0
LINE
  5
356
330
1F
100
AcDbEntity
  8
0
  6
Continuous
 62
     7
100
AcDbLine
 10
37.0
 20
5.0
 30
0.0
 11
37.0
 21
20.0
 31
0.0
  0
LINE
  5
357
330
1F
100
AcDbEntity
  8
0
  6
Continuous
 62
     7
100
AcDbLine
 10
27.0
 20
5.0
 30
0.0
 11
27.0
 21
20.0
 31
0.0
  0
LINE
  5
358
330
1F
100
AcDbEntity
  8
0
  6
Continuous
 62
     7
100
AcDbLine
 10
20.0
 20
5.0
 30
0.0
 11
20.0
 21
20.0
 31
0.0
  0
LWPOLYLINE
  5
359
330
1F
100
AcDbEntity
  8
0
  6
Continuous
 62
     2
100
AcDbPolyline
 90
       10
 70
     0
 43
0.35
 10
199.1356582031
 20
10.6108152466
 10
199.7502832031
 20
11.4441491699
 10
200.6252773438
 20
11.4441491699
 10
200.8856464844
 20
10.6108152466
 10
200.531390625
 20
8.944148742699999
 10
199.916765625
 20
8.1108154907
 10
199.0417714844
 20
8.1108154907
 10
198.427125
 20
7.277481567399999
 10
198.2500078125
 20
6.444148315399999
 10
199.9999960938
 20
6.444148315399999
  0
LWPOLYLINE
  5
35A
330
1F
100
AcDbEntity
  8
0
  6
Continuous
 62
     2
100
AcDbPolyline
 90
        4
 70
     0
 43
0.35
 10
98.5004501953
 20
16.410637085
 10
96.80000488280001
 20
8.4106373291
 10
100.9004482422
 20
16.410637085
 10
99.2000029297
 20
8.4106373291
  0
LWPOLYLINE
  5
35B
330
1F
100
AcDbEntity
  8
0
  6
Continuous
 62
     2
100
AcDbPolyline
 90
        6
 70
     0
 43
0.35
 10
101.6000009766
 20
8.4106373291
 10
103.4000048828
 20
8.4106373291
 10
104.2834101563
 20
9.743971069299998
 10
104.5668212891
 20
11.0773041382
 10
104.2502275391
 20
12.410637207
 10
102.4502236328
 20
12.410637207
  0
LWPOLYLINE
  5
35C
330
1F
100
AcDbEntity
  8
0
  6
Continuous
 62
     2
100
AcDbPolyline
 90
        3
 70
     0
 43
0.35
 10
101.6000009766
 20
8.4106373291
 10
103.3004570312
 20
16.410637085
 10
105.1004501953
 20
16.410637085
  0
LWPOLYLINE
  5
35D
330
1F
100
AcDbEntity
  8
0
  6
Continuous
 62
     2
100
AcDbPolyline
 90
        7
 70
     0
 43
0.35
 10
106.3999970703
 20
8.4106373291
 10
108.100453125
 20
16.410637085
 10
109.9004570313
 20
16.410637085
 10
110.2170507812
 20
15.0773046875
 10
109.9336289062
 20
13.7439709473
 10
109.0502236328
 20
12.410637207
 10
107.2502304687
 20
12.410637207
  0
LWPOLYLINE
  5
35E
330
1F
100
AcDbEntity
  8
0
  6
Continuous
 62
     2
100
AcDbPolyline
 90
       10
 70
     0
 43
0.35
 10
112.6170488281
 20
15.0773046875
 10
113.5004433594
 20
16.410637085
 10
114.700453125
 20
16.410637085
 10
115.017046875
 20
15.0773046875
 10
114.4502246094
 20
12.410637207
 10
113.5668085937
 20
11.0773041382
 10
112.3668203125
 20
11.0773041382
 10
111.4834042969
 20
9.743971069299998
 10
111.2000039063
 20
8.4106373291
 10
113.6000019531
 20
8.4106373291
  0
LWPOLYLINE
  5
35F
330
1F
100
AcDbEntity
  8
0
  6
Continuous
 62
     2
100
AcDbPolyline
 90
        5
 70
     0
 43
0.35
 10
116.3000078125
 20
8.4106373291
 10
116.0
 20
8.4106373291
 10
116.1417109375
 20
9.0773041992
 10
116.4416972656
 20
9.0773041992
 10
116.3000078125
 20
8.4106373291
  0
LWPOLYLINE
  5
360
330
1F
100
AcDbEntity
  8
0
  6
Continuous
 62
     2
100
AcDbPolyline
 90
        9
 70
     0
 43
0.35
 10
121.3999902344
 20
8.4106373291
 10
121.0834179687
 20
9.743971069299998
 10
122.2170410156
 20
15.0773046875
 10
123.1004570312
 20
16.410637085
 10
124.3004453125
 20
16.410637085
 10
124.6170390625
 20
15.0773046875
 10
123.4834160156
 20
9.743971069299998
 10
122.6
 20
8.4106373291
 10
121.3999902344
 20
8.4106373291
  0
LWPOLYLINE
  5
361
330
1F
100
AcDbEntity
  8
0
  6
Continuous
 62
     2
100
AcDbPolyline
 90
        9
 70
     0
 43
0.35
 10
126.2000078125
 20
8.4106373291
 10
125.8834140625
 20
9.743971069299998
 10
127.0170371094
 20
15.0773046875
 10
127.900453125
 20
16.410637085
 10
129.1004628906
 20
16.410637085
 10
129.4170351562
 20
15.0773046875
 10
128.2834121094
 20
9.743971069299998
 10
127.3999960937
 20
8.4106373291
 10
126.2000078125
 20
8.4106373291
  0
LWPOLYLINE
  5
362
330
1F
100
AcDbEntity
  8
0
  6
Continuous
 62
     2
100
AcDbPolyline
 90
        5
 70
     0
 43
0.35
 10
130.6999960938
 20
8.4106373291
 10
130.4000097656
 20
8.4106373291
 10
130.5416992187
 20
9.0773041992
 10
130.8417070313
 20
9.0773041992
 10
130.6999960938
 20
8.4106373291
  0
LWPOLYLINE
  5
363
330
1F
100
AcDbEntity
  8
0
  6
Continuous
 62
     2
100
AcDbPolyline
 90
        3
 70
     0
 43
0.35
 10
137.833625
 20
13.7439709473
 10
139.0004628906
 20
16.410637085
 10
137.2999960938
 20
8.4106373291
  0
LWPOLYLINE
  5
364
330
1F
100
AcDbEntity
  8
0
  6
Continuous
 62
     2
100
AcDbPolyline
 90
        2
 70
     0
 43
0.35
 10
136.7000019531
 20
8.4106373291
 10
137.8999902344
 20
8.4106373291
  0
LWPOLYLINE
  5
365
330
1F
100
AcDbEntity
  8
0
  6
Continuous
 62
     2
100
AcDbPolyline
 90
       10
 70
     0
 43
0.35
 10
141.417046875
 20
15.0773046875
 10
142.3004628906
 20
16.410637085
 10
143.5004511719
 20
16.410637085
 10
143.8170449219
 20
15.0773046875
 10
143.2502226563
 20
12.410637207
 10
142.366828125
 20
11.0773041382
 10
141.1668183594
 20
11.0773041382
 10
140.2834023438
 20
9.743971069299998
 10
140.0000019531
 20
8.4106373291
 10
142.4
 20
8.4106373291
  0
LWPOLYLINE
  5
366
330
1F
100
AcDbEntity
  8
0
  6
Continuous
 62
     2
100
AcDbPolyline
 90
        9
 70
     0
 43
0.35
 10
145.3999921875
 20
8.4106373291
 10
145.0833984375
 20
9.743971069299998
 10
146.2170429687
 20
15.0773046875
 10
147.1004589844
 20
16.410637085
 10
148.3004472656
 20
16.410637085
 10
148.6170410156
 20
15.0773046875
 10
147.4834179687
 20
9.743971069299998
 10
146.6000019531
 20
8.4106373291
 10
145.3999921875
 20
8.4106373291
  0
LWPOLYLINE
  5
367
330
1F
100
AcDbEntity
  8
0
  6
Continuous
 62
     2
100
AcDbPolyline
 90
        9
 70
     0
 43
0.35
 10
150.2000097656
 20
8.4106373291
 10
149.8834160156
 20
9.743971069299998
 10
151.0170390625
 20
15.0773046875
 10
151.9004550781
 20
16.410637085
 10
153.1004433594
 20
16.410637085
 10
153.4170371094
 20
15.0773046875
 10
152.2834140625
 20
9.743971069299998
 10
151.3999980469
 20
8.4106373291
 10
150.2000097656
 20
8.4106373291
  0
LWPOLYLINE
  5
368
330
1F
100
AcDbEntity
  8
0
  6
Continuous
 62
     2
100
AcDbPolyline
 90
        5
 70
     0
 43
0.35
 10
154.6999980469
 20
8.4106373291
 10
154.3999902344
 20
8.4106373291
 10
154.5417011719
 20
9.0773041992
 10
154.8417089844
 20
9.0773041992
 10
154.6999980469
 20
8.4106373291
  0
LWPOLYLINE
  5
369
330
1F
100
AcDbEntity
  8
0
  6
Continuous
 62
     2
100
AcDbPolyline
 90
        9
 70
     0
 43
0.35
 10
159.8000019531
 20
8.4106373291
 10
159.4834082031
 20
9.743971069299998
 10
160.6170527344
 20
15.0773046875
 10
161.5004472656
 20
16.410637085
 10
162.7004570312
 20
16.410637085
 10
163.0170507812
 20
15.0773046875
 10
161.88340625
 20
9.743971069299998
 10
160.9999902344
 20
8.4106373291
 10
159.8000019531
 20
8.4106373291
  0
LWPOLYLINE
  5
36A
330
1F
100
AcDbEntity
  8
0
  6
Continuous
 62
     2
100
AcDbPolyline
 90
        9
 70
     0
 43
0.35
 10
164.5999980469
 20
8.4106373291
 10
164.2834042969
 20
9.743971069299998
 10
165.4170488281
 20
15.0773046875
 10
166.3004433594
 20
16.410637085
 10
167.500453125
 20
16.410637085
 10
167.817046875
 20
15.0773046875
 10
166.6834023438
 20
9.743971069299998
 10
165.8000078125
 20
8.4106373291
 10
164.5999980469
 20
8.4106373291
  0
LWPOLYLINE
  5
36B
330
1F
100
AcDbEntity
  8
0
  6
Continuous
 62
     2
100
AcDbPolyline
 90
        2
 70
     0
 43
0.35
 10
170.8502324219
 20
12.410637207
 10
173.2502304688
 20
12.410637207
  0
LWPOLYLINE
  5
36C
330
1F
100
AcDbEntity
  8
0
  6
Continuous
 62
     2
100
AcDbPolyline
 90
        9
 70
     0
 43
0.35
 10
174.1999902344
 20
8.4106373291
 10
173.8834179688
 20
9.743971069299998
 10
175.0170410156
 20
15.0773046875
 10
175.9004570313
 20
16.410637085
 10
177.1004453125
 20
16.410637085
 10
177.4170390625
 20
15.0773046875
 10
176.2834160156
 20
9.743971069299998
 10
175.4
 20
8.4106373291
 10
174.1999902344
 20
8.4106373291
  0
LWPOLYLINE
  5
36D
330
1F
100
AcDbEntity
  8
0
  6
Continuous
 62
     2
100
AcDbPolyline
 90
        3
 70
     0
 43
0.35
 10
181.0336328125
 20
13.7439709473
 10
182.2004492188
 20
16.410637085
 10
180.5000039062
 20
8.4106373291
  0
LWPOLYLINE
  5
36E
330
1F
100
AcDbEntity
  8
0
  6
Continuous
 62
     2
100
AcDbPolyline
 90
        2
 70
     0
 43
0.35
 10
179.9000097656
 20
8.4106373291
 10
181.0999980469
 20
8.4106373291
  0
LWPOLYLINE
  5
36F
330
1F
100
AcDbEntity
  8
0
  6
Continuous
 62
     2
100
AcDbPolyline
 90
        5
 70
     0
 43
0.35
 10
76.06250195310001
 20
5.9664888916
 10
76.5407548828
 20
8.2164890747
 10
77.0939238281
 20
8.966489135699999
 10
77.4876679687
 20
8.966489135699999
 10
76.8500009766
 20
5.9664888916
  0
LWPOLYLINE
  5
370
330
1F
100
AcDbEntity
  8
0
  6
Continuous
 62
     2
100
AcDbPolyline
 90
        4
 70
     0
 43
0.35
 10
75.82497070310001
 20
5.4664890747
 10
75.7999951172
 20
5.9664888916
 10
77.11249707029999
 20
5.9664888916
 10
76.87497656249999
 20
5.4664890747
  0
LWPOLYLINE
  5
371
330
1F
100
AcDbEntity
  8
0
  6
Continuous
 62
     2
100
AcDbPolyline
 90
        8
 70
     0
 43
0.35
 10
79.26883007810001
 20
7.4664890137
 10
79.11261718750001
 20
7.966488830599999
 10
78.5876142578
 20
7.966488830599999
 10
78.21883496089999
 20
7.4664890137
 10
78.00627929689999
 20
6.4664893799
 10
78.1625029297
 20
5.9664888916
 10
78.6874951172
 20
5.9664888916
 10
79.0562744141
 20
6.4664893799
  0
LWPOLYLINE
  5
372
330
1F
100
AcDbEntity
  8
0
  6
Continuous
 62
     2
100
AcDbPolyline
 90
        3
 70
     0
 43
0.35
 10
79.3751132812
 20
7.966488830599999
 10
79.0562744141
 20
6.4664893799
 10
79.08125
 20
5.9664888916
  0
LWPOLYLINE
  5
373
330
1F
100
AcDbEntity
  8
0
  6
Continuous
 62
     2
100
AcDbPolyline
 90
        2
 70
     0
 43
0.35
 10
79.99999707029999
 20
5.9664888916
 10
80.4251083984
 20
7.966488830599999
  0
LWPOLYLINE
  5
374
330
1F
100
AcDbEntity
  8
0
  6
Continuous
 62
     2
100
AcDbPolyline
 90
        4
 70
     0
 43
0.35
 10
80.3188359375
 20
7.4664890137
 10
80.6876152344
 20
7.966488830599999
 10
80.84383886720001
 20
7.4664890137
 10
80.525
 20
5.9664888916
  0
LWPOLYLINE
  5
375
330
1F
100
AcDbEntity
  8
0
  6
Continuous
 62
     2
100
AcDbPolyline
 90
        4
 70
     0
 43
0.35
 10
80.84383886720001
 20
7.4664890137
 10
81.21261816409999
 20
7.966488830599999
 10
81.36883105469999
 20
7.4664890137
 10
81.0500029297
 20
5.9664888916
  0
LWPOLYLINE
  5
376
330
1F
100
AcDbEntity
  8
0
  6
Continuous
 62
     2
100
AcDbPolyline
 90
        8
 70
     0
 43
0.35
 10
83.46883203119999
 20
7.4664890137
 10
83.3126083984
 20
7.966488830599999
 10
82.7876162109
 20
7.966488830599999
 10
82.4188369141
 20
7.4664890137
 10
82.20628125000001
 20
6.4664893799
 10
82.36250488279999
 20
5.9664888916
 10
82.8874970703
 20
5.9664888916
 10
83.2562763672
 20
6.4664893799
  0
LWPOLYLINE
  5
377
330
1F
100
AcDbEntity
  8
0
  6
Continuous
 62
     2
100
AcDbPolyline
 90
        3
 70
     0
 43
0.35
 10
83.57511523440001
 20
7.966488830599999
 10
83.2562763672
 20
6.4664893799
 10
83.28125195310001
 20
5.9664888916
  0
LWPOLYLINE
  5
378
330
1F
100
AcDbEntity
  8
0
  6
Continuous
 62
     2
100
AcDbPolyline
 90
        4
 70
     0
 43
0.35
 10
60.1500029297
 20
5.9664888916
 10
60.7876699219
 20
8.966489135699999
 10
61.8376650391
 20
8.966489135699999
 10
61.19999804689999
 20
5.9664888916
  0
LWPOLYLINE
  5
379
330
1F
100
AcDbEntity
  8
0
  6
Continuous
 62
     2
100
AcDbPolyline
 90
        9
 70
     0
 43
0.35
 10
62.3562763672
 20
6.4664893799
 10
62.5125
 20
5.9664888916
 10
63.03750292970001
 20
5.9664888916
 10
63.4062822266
 20
6.4664893799
 10
63.61883789060001
 20
7.4664890137
 10
63.46261425779999
 20
7.966488830599999
 10
62.93761132810001
 20
7.966488830599999
 10
62.5688320312
 20
7.4664890137
 10
62.3562763672
 20
6.4664893799
  0
LWPOLYLINE
  5
37A
330
1F
100
AcDbEntity
  8
0
  6
Continuous
 62
     2
100
AcDbPolyline
 90
       11
 70
     0
 43
0.35
 10
65.71883886720001
 20
7.4664890137
 10
65.56261523439999
 20
7.966488830599999
 10
65.03761230470001
 20
7.966488830599999
 10
64.66883300780001
 20
7.4664890137
 10
64.45627734369999
 20
6.4664893799
 10
64.6125009766
 20
5.9664888916
 10
65.1375039062
 20
5.9664888916
 10
65.50628320310001
 20
6.4664893799
 10
65.9313945312
 20
8.4664893188
 10
65.7751708984
 20
8.966489135699999
 10
65.2501679687
 20
8.966489135699999
  0
LWPOLYLINE
  5
37B
330
1F
100
AcDbEntity
  8
0
  6
Continuous
 62
     2
100
AcDbPolyline
 90
        2
 70
     0
 43
0.35
 10
66.4499951172
 20
5.9664888916
 10
66.87511718749999
 20
7.966488830599999
  0
LWPOLYLINE
  5
37C
330
1F
100
AcDbEntity
  8
0
  6
Continuous
 62
     2
100
AcDbPolyline
 90
        5
 70
     0
 43
0.35
 10
66.76883398439999
 20
7.4664890137
 10
67.1376132812
 20
7.966488830599999
 10
67.66261621089999
 20
7.966488830599999
 10
67.81883984370001
 20
7.4664890137
 10
67.50000097659999
 20
5.9664888916
  0
LWPOLYLINE
  5
37D
330
1F
100
AcDbEntity
  8
0
  6
Continuous
 62
     2
100
AcDbPolyline
 90
        5
 70
     0
 43
0.35
 10
68.97511816409999
 20
7.966488830599999
 10
68.65627929689999
 20
6.4664893799
 10
68.8125029297
 20
5.9664888916
 10
69.07499902339999
 20
5.9664888916
 10
69.81255761719999
 20
6.966489196799999
  0
LWPOLYLINE
  5
37E
330
1F
100
AcDbEntity
  8
0
  6
Continuous
 62
     2
100
AcDbPolyline
 90
        2
 70
     0
 43
0.35
 10
70.02511328119999
 20
7.966488830599999
 10
69.60000195310001
 20
5.9664888916
  0
LWPOLYLINE
  5
37F
330
1F
100
AcDbEntity
  8
0
  6
Continuous
 62
     2
100
AcDbPolyline
 90
        8
 70
     0
 43
0.35
 10
72.0188310547
 20
7.4664890137
 10
71.8626181641
 20
7.966488830599999
 10
71.33761523439999
 20
7.966488830599999
 10
70.9688359375
 20
7.4664890137
 10
70.75628027339999
 20
6.4664893799
 10
70.9125039062
 20
5.9664888916
 10
71.43749609370001
 20
5.9664888916
 10
71.80627539060001
 20
6.4664893799
  0
LWPOLYLINE
  5
380
330
1F
100
AcDbEntity
  8
0
  6
Continuous
 62
     2
100
AcDbPolyline
 90
        9
 70
     0
 43
0.35
 10
73.175109375
 20
7.966488830599999
 10
72.85628124999999
 20
6.4664893799
 10
73.0125048828
 20
5.9664888916
 10
73.53749707029999
 20
5.9664888916
 10
73.90627636720001
 20
6.4664893799
 10
74.0125595703
 20
6.966489196799999
 10
73.8563359375
 20
7.4664890137
 10
73.3313330078
 20
7.4664890137
 10
72.96255371089999
 20
6.966489196799999
  0
LWPOLYLINE
  5
381
330
1F
100
AcDbEntity
  8
0
  6
Continuous
 62
     2
100
AcDbPolyline
 90
        4
 70
     0
 43
0.35
 10
40.1
 20
5.9664888916
 10
40.7376669922
 20
8.966489135699999
 10
41.14999511719999
 20
5.9664888916
 10
41.7876728516
 20
8.966489135699999
  0
LWPOLYLINE
  5
382
330
1F
100
AcDbEntity
  8
0
  6
Continuous
 62
     2
100
AcDbPolyline
 90
       11
 70
     0
 43
0.35
 10
45.6688359375
 20
7.4664890137
 10
45.51261230469999
 20
7.966488830599999
 10
44.987609375
 20
7.966488830599999
 10
44.6188300781
 20
7.4664890137
 10
44.4062744141
 20
6.4664893799
 10
44.56249804689999
 20
5.9664888916
 10
45.0875009766
 20
5.9664888916
 10
45.4562802734
 20
6.4664893799
 10
45.88139160159999
 20
8.4664893188
 10
45.7251679687
 20
8.966489135699999
 10
45.20016503909999
 20
8.966489135699999
  0
LWPOLYLINE
  5
383
330
1F
100
AcDbEntity
  8
0
  6
Continuous
 62
     2
100
AcDbPolyline
 90
        9
 70
     0
 43
0.35
 10
46.5062753906
 20
6.4664893799
 10
46.6624990234
 20
5.9664888916
 10
47.1875019531
 20
5.9664888916
 10
47.55628125
 20
6.4664893799
 10
47.7688369141
 20
7.4664890137
 10
47.61261328119999
 20
7.966488830599999
 10
47.0876103516
 20
7.966488830599999
 10
46.7188310547
 20
7.4664890137
 10
46.5062753906
 20
6.4664893799
  0
LWPOLYLINE
  5
384
330
1F
100
AcDbEntity
  8
0
  6
Continuous
 62
     2
100
AcDbPolyline
 90
        2
 70
     0
 43
0.35
 10
48.92511523439999
 20
7.966488830599999
 10
48.50000390619999
 20
5.9664888916
  0
LWPOLYLINE
  5
385
330
1F
100
AcDbEntity
  8
0
  6
Continuous
 62
     2
100
AcDbPolyline
 90
        2
 70
     0
 43
0.35
 10
48.6062763672
 20
6.4664893799
 10
49.9751103516
 20
7.966488830599999
  0
LWPOLYLINE
  5
386
330
1F
100
AcDbEntity
  8
0
  6
Continuous
 62
     2
100
AcDbPolyline
 90
        2
 70
     0
 43
0.35
 10
49.1063037109
 20
6.966489196799999
 10
49.54999902339999
 20
5.9664888916
  0
LWPOLYLINE
  5
387
330
1F
100
AcDbEntity
  8
0
  6
Continuous
 62
     2
100
AcDbPolyline
 90
        2
 70
     0
 43
0.35
 10
51.0251162109
 20
7.966488830599999
 10
51.1249970703
 20
5.9664888916
  0
LWPOLYLINE
  5
388
330
1F
100
AcDbEntity
  8
0
  6
Continuous
 62
     2
100
AcDbPolyline
 90
        3
 70
     0
 43
0.35
 10
50.3874384766
 20
4.966489257799999
 10
50.6499453125
 20
4.966489257799999
 10
52.07511132810001
 20
7.966488830599999
  0
LWPOLYLINE
  5
389
330
1F
100
AcDbEntity
  8
0
  6
Continuous
 62
     2
100
AcDbPolyline
 90
        5
 70
     0
 43
0.35
 10
52.6999951172
 20
5.9664888916
 10
53.1251171875
 20
7.966488830599999
 10
53.43755371090001
 20
6.966489196799999
 10
54.1751123047
 20
7.966488830599999
 10
53.7500009766
 20
5.9664888916
  0
LWPOLYLINE
  5
38A
330
1F
100
AcDbEntity
  8
0
  6
Continuous
 62
     2
100
AcDbPolyline
 90
        5
 70
     0
 43
0.35
 10
54.9312548828
 20
5.9664888916
 10
54.7999960937
 20
5.9664888916
 10
54.8531376953
 20
6.2164891357
 10
54.9843857422
 20
6.2164891357
 10
54.9312548828
 20
5.9664888916
  0
LWPOLYLINE
  5
38B
330
1F
100
AcDbEntity
  8
0
  6
Continuous
 62
     2
100
AcDbPolyline
 90
        3
 70
     0
 43
0.35
 10
27.8000019531
 20
5.9664888916
 10
28.962671875
 20
8.966489135699999
 10
28.8499970703
 20
5.9664888916
  0
LWPOLYLINE
  5
38C
330
1F
100
AcDbEntity
  8
0
  6
Continuous
 62
     2
100
AcDbPolyline
 90
        5
 70
     0
 43
0.35
 10
30.3251142578
 20
7.966488830599999
 10
30.0062753906
 20
6.4664893799
 10
30.1624990234
 20
5.9664888916
 10
30.4249951172
 20
5.9664888916
 10
31.1625537109
 20
6.966489196799999
  0
LWPOLYLINE
  5
38D
330
1F
100
AcDbEntity
  8
0
  6
Continuous
 62
     2
100
AcDbPolyline
 90
        2
 70
     0
 43
0.35
 10
31.375109375
 20
7.966488830599999
 10
30.9499980469
 20
5.9664888916
  0
LWPOLYLINE
  5
38E
330
1F
100
AcDbEntity
  8
0
  6
Continuous
 62
     2
100
AcDbPolyline
 90
        8
 70
     0
 43
0.35
 10
33.3688378906
 20
7.4664890137
 10
33.21261425780001
 20
7.966488830599999
 10
32.6876113281
 20
7.966488830599999
 10
32.3188320312
 20
7.4664890137
 10
32.1062763672
 20
6.4664893799
 10
32.2625
 20
5.9664888916
 10
32.7875029297
 20
5.9664888916
 10
33.1562822266
 20
6.4664893799
  0
LWPOLYLINE
  5
38F
330
1F
100
AcDbEntity
  8
0
  6
Continuous
 62
     2
100
AcDbPolyline
 90
        2
 70
     0
 43
0.35
 10
34.1000048828
 20
5.9664888916
 10
34.5251162109
 20
7.966488830599999
  0
LWPOLYLINE
  5
390
330
1F
100
AcDbEntity
  8
0
  6
Continuous
 62
     2
100
AcDbPolyline
 90
        4
 70
     0
 43
0.35
 10
34.41883300780001
 20
7.4664890137
 10
34.7876123047
 20
7.966488830599999
 10
34.9438359375
 20
7.4664890137
 10
34.6249970703
 20
5.9664888916
  0
LWPOLYLINE
  5
391
330
1F
100
AcDbEntity
  8
0
  6
Continuous
 62
     2
100
AcDbPolyline
 90
        4
 70
     0
 43
0.35
 10
34.9438359375
 20
7.4664890137
 10
35.3126152344
 20
7.966488830599999
 10
35.4688388672
 20
7.4664890137
 10
35.15
 20
5.9664888916
  0
LWPOLYLINE
  5
392
330
1F
100
AcDbEntity
  8
0
  6
Continuous
 62
     2
100
AcDbPolyline
 90
        4
 70
     0
 43
0.35
 10
20.987671875
 20
8.966489135699999
 10
20.3500048828
 20
5.9664888916
 10
22.0376669922
 20
8.966489135699999
 10
21.4
 20
5.9664888916
  0
LWPOLYLINE
  5
393
330
1F
100
AcDbEntity
  8
0
  6
Continuous
 62
     2
100
AcDbPolyline
 90
        9
 70
     0
 43
0.35
 10
22.5562783203
 20
6.4664893799
 10
22.7125019531
 20
5.9664888916
 10
23.2375048828
 20
5.9664888916
 10
23.6062734375
 20
6.4664893799
 10
23.4500605469
 20
6.966489196799999
 10
23.8188398437
 20
7.4664890137
 10
23.6626162109
 20
7.966488830599999
 10
23.1376132812
 20
7.966488830599999
 10
22.7688339844
 20
7.4664890137
  0
LWPOLYLINE
  5
394
330
1F
100
AcDbEntity
  8
0
  6
Continuous
 62
     2
100
AcDbPolyline
 90
        2
 70
     0
 43
0.35
 10
23.1875537109
 20
6.966489196799999
 10
23.4500605469
 20
6.966489196799999
  0
LWPOLYLINE
  5
395
330
1F
100
AcDbEntity
  8
0
  6
Continuous
 62
     2
100
AcDbPolyline
 90
        5
 70
     0
 43
0.35
 10
24.5499960937
 20
5.9664888916
 10
24.9751181641
 20
7.966488830599999
 10
25.2875546875
 20
6.966489196799999
 10
26.0251132812
 20
7.966488830599999
 10
25.6000019531
 20
5.9664888916
  0
LWPOLYLINE
  5
396
330
1F
100
AcDbEntity
  8
0
  6
Continuous
 62
     2
100
AcDbPolyline
 90
        3
 70
     0
 43
0.35
 10
195.7999941406
 20
14.966489624
 10
196.9626640625
 20
17.9664885254
 10
196.85
 20
14.966489624
  0
LWPOLYLINE
  5
397
330
1F
100
AcDbEntity
  8
0
  6
Continuous
 62
     2
100
AcDbPolyline
 90
        5
 70
     0
 43
0.35
 10
198.3251171875
 20
16.9664888916
 10
198.0062675781
 20
15.4664887695
 10
198.1625019531
 20
14.966489624
 10
198.4249980469
 20
14.966489624
 10
199.1625566406
 20
15.9664892578
  0
LWPOLYLINE
  5
398
330
1F
100
AcDbEntity
  8
0
  6
Continuous
 62
     2
100
AcDbPolyline
 90
        2
 70
     0
 43
0.35
 10
199.3751230468999
 20
16.9664888916
 10
198.9499902344
 20
14.966489624
  0
LWPOLYLINE
  5
399
330
1F
100
AcDbEntity
  8
0
  6
Continuous
 62
     2
100
AcDbPolyline
 90
        8
 70
     0
 43
0.35
 10
201.3688300781
 20
16.4664897461
 10
201.2126171875
 20
16.9664888916
 10
200.6876035156
 20
16.9664888916
 10
200.3188242188
 20
16.4664897461
 10
200.1062792969
 20
15.4664887695
 10
200.2624921875
 20
14.966489624
 10
200.7875058594
 20
14.966489624
 10
201.1562851562
 20
15.4664887695
  0
LWPOLYLINE
  5
39A
330
1F
100
AcDbEntity
  8
0
  6
Continuous
 62
     2
100
AcDbPolyline
 90
        2
 70
     0
 43
0.35
 10
202.1000078125
 20
14.966489624
 10
202.5251191406
 20
16.9664888916
  0
LWPOLYLINE
  5
39B
330
1F
100
AcDbEntity
  8
0
  6
Continuous
 62
     2
100
AcDbPolyline
 90
        4
 70
     0
 43
0.35
 10
202.4188359375
 20
16.4664897461
 10
202.7876152344
 20
16.9664888916
 10
202.943828125
 20
16.4664897461
 10
202.625
 20
14.966489624
  0
LWPOLYLINE
  5
39C
330
1F
100
AcDbEntity
  8
0
  6
Continuous
 62
     2
100
AcDbPolyline
 90
        4
 70
     0
 43
0.35
 10
202.943828125
 20
16.4664897461
 10
203.3126074219
 20
16.9664888916
 10
203.4688417969
 20
16.4664897461
 10
203.1499921875
 20
14.966489624
  0
LINE
  5
39D
330
1F
100
AcDbEntity
  8
0
  6
Continuous
 62
     7
100
AcDbLine
 10
0.0
 20
0.0
 30
0.0
 11
210.0
 21
0.0
 31
0.0
  0
LINE
  5
39E
330
1F
100
AcDbEntity
  8
0
  6
Continuous
 62
     7
100
AcDbLine
 10
0.0
 20
0.0
 30
0.0
 11
0.0
 21
297.0
 31
0.0
  0
LINE
  5
39F
330
1F
100
AcDbEntity
  8
0
  6
Continuous
 62
     7
100
AcDbLine
 10
20.0
 20
5.0
 30
0.0
 11
20.0
 21
292.0
 31
0.0
  0
LINE
  5
3A0
330
1F
100
AcDbEntity
  8
0
  6
Continuous
 62
     7
100
AcDbLine
 10
205.0
 20
292.0
 30
0.0
 11
205.0
 21
5.0
 31
0.0
  0
LINE
  5
3A1
330
1F
100
AcDbEntity
  8
0
  6
Continuous
 62
     7
100
AcDbLine
 10
210.0
 20
0.0
 30
0.0
 11
210.0
 21
297.0
 31
0.0
  0
LINE
  5
3A2
330
1F
100
AcDbEntity
  8
0
  6
Continuous
 62
     7
100
AcDbLine
 10
20.0
 20
292.0
 30
0.0
 11
205.0
 21
292.0
 31
0.0
  0
LINE
  5
3A3
330
1F
100
AcDbEntity
  8
0
  6
Continuous
 62
     7
100
AcDbLine
 10
0.0
 20
297.0
 30
0.0
 11
210.0
 21
297.0
 31
0.0
  0
LWPOLYLINE
  5
3A4
330
1F
100
AcDbEntity
  8
0
  6
Continuous
 62
     2
100
AcDbPolyline
 90
        7
 70
     0
 43
0.2499999924
 10
177.4929648438
 20
1.217564430199999
 10
178.2279667969
 20
1.217564430199999
 10
178.5721464844
 20
1.6842311554
 10
178.7705332031
 20
2.6175644379
 10
178.62471875
 20
3.0842310791
 10
178.1347246094
 20
3.0842310791
 10
177.7905449219
 20
2.6175644379
  0
LWPOLYLINE
  5
3A5
330
1F
100
AcDbEntity
  8
0
  6
Continuous
 62
     2
100
AcDbPolyline
 90
        2
 70
     0
 43
0.2499999924
 10
187.7363496094
 20
2.150897796599999
 10
188.22634375
 20
2.150897796599999
  0
LWPOLYLINE
  5
3A6
330
1F
100
AcDbEntity
  8
0
  6
Continuous
 62
     2
100
AcDbPolyline
 90
        9
 70
     0
 43
0.2499999924
 10
175.6321601562
 20
1.6842311554
 10
175.777953125
 20
1.217564430199999
 10
176.2679472656
 20
1.217564430199999
 10
176.6121484375
 20
1.6842311554
 10
176.8105351562
 20
2.6175644379
 10
176.6647207031
 20
3.0842310791
 10
176.1747265625
 20
3.0842310791
 10
175.8305253906
 20
2.6175644379
 10
175.6321601562
 20
1.6842311554
  0
LWPOLYLINE
  5
3A7
330
1F
100
AcDbEntity
  8
0
  6
Continuous
 62
     2
100
AcDbPolyline
 90
        8
 70
     0
 43
0.2499999924
 10
182.6905292969
 20
2.6175644379
 10
182.5447363281
 20
3.0842310791
 10
182.0547207031
 20
3.0842310791
 10
181.7105410156
 20
2.6175644379
 10
181.5121542968999
 20
1.6842311554
 10
181.6579472656
 20
1.217564430199999
 10
182.1479628906
 20
1.217564430199999
 10
182.4921425781
 20
1.6842311554
  0
LWPOLYLINE
  5
3A8
330
1F
100
AcDbEntity
  8
0
  6
Continuous
 62
     2
100
AcDbPolyline
 90
        2
 70
     0
 43
0.2499999924
 10
174.6581230469
 20
4.017564361599999
 10
174.0629628906
 20
1.217564430199999
  0
LWPOLYLINE
  5
3A9
330
1F
100
AcDbEntity
  8
0
  6
Continuous
 62
     2
100
AcDbPolyline
 90
        2
 70
     0
 43
0.2499999924
 10
177.2945781249999
 20
0.2842311058
 10
177.8897382813
 20
3.0842310791
  0
LWPOLYLINE
  5
3AA
330
1F
100
AcDbEntity
  8
0
  6
Continuous
 62
     2
100
AcDbPolyline
 90
        5
 70
     0
 43
0.2499999924
 10
179.4529628906
 20
1.217564430199999
 10
179.8497363281
 20
3.0842310791
 10
180.14134375
 20
2.150897796599999
 10
180.8297246094
 20
3.0842310791
 10
180.4329511719
 20
1.217564430199999
  0
LWPOLYLINE
  5
3AB
330
1F
100
AcDbEntity
  8
0
  6
Continuous
 62
     2
100
AcDbPolyline
 90
        3
 70
     0
 43
0.2499999924
 10
182.7897226563
 20
3.0842310791
 10
182.4921425781
 20
1.6842311554
 10
182.515453125
 20
1.217564430199999
  0
LWPOLYLINE
  5
3AC
330
1F
100
AcDbEntity
  8
0
  6
Continuous
 62
     2
100
AcDbPolyline
 90
        2
 70
     0
 43
0.2499999924
 10
183.3729589844
 20
1.217564430199999
 10
183.7697324219
 20
3.0842310791
  0
LWPOLYLINE
  5
3AD
330
1F
100
AcDbEntity
  8
0
  6
Continuous
 62
     2
100
AcDbPolyline
 90
        4
 70
     0
 43
0.2499999924
 10
189.9879550781
 20
1.217564430199999
 10
190.5831152344
 20
4.017564361599999
 10
189.3521464843999
 20
1.6842311554
 10
190.33215625
 20
1.6842311554
  0
LWPOLYLINE
  5
3AE
330
1F
100
AcDbEntity
  8
0
  6
Continuous
 62
     2
100
AcDbPolyline
 90
        3
 70
     0
 43
0.2499999924
 10
187.2929550781
 20
1.217564430199999
 10
188.378109375
 20
4.017564361599999
 10
188.2729648436999
 20
1.217564430199999
  0
LWPOLYLINE
  5
3AF
330
1F
100
AcDbEntity
  8
0
  6
Continuous
 62
     2
100
AcDbPolyline
 90
        9
 70
     0
 43
0.2499999924
 10
174.4131152344
 20
4.017564361599999
 10
174.0689140625
 20
3.550897888199999
 10
173.8705273437
 20
2.6175644379
 10
174.0163417968999
 20
2.150897796599999
 10
174.5063359375
 20
2.150897796599999
 10
174.8505371094
 20
2.6175644379
 10
175.0489238281
 20
3.550897888199999
 10
174.903109375
 20
4.017564361599999
 10
174.4131152344
 20
4.017564361599999
  0
LWPOLYLINE
  5
3B0
330
1F
100
AcDbEntity
  8
0
  6
Continuous
 62
     2
100
AcDbPolyline
 90
        4
 70
     0
 43
0.2499999924
 10
183.6705390625
 20
2.6175644379
 10
184.01471875
 20
3.0842310791
 10
184.1605332031
 20
2.6175644379
 10
183.8629531249999
 20
1.217564430199999
  0
LWPOLYLINE
  5
3B1
330
1F
100
AcDbEntity
  8
0
  6
Continuous
 62
     2
100
AcDbPolyline
 90
        4
 70
     0
 43
0.2499999924
 10
184.1605332031
 20
2.6175644379
 10
184.504734375
 20
3.0842310791
 10
184.6505273437
 20
2.6175644379
 10
184.3529472656
 20
1.217564430199999
  0
MTEXT
  5
3D8
330
1F
100
AcDbEntity
  8
0
100
AcDbMText
 10
111.6699032192242
 20
234.8058821797944
 30
0.0
 40
5.0
 41
59.56446588109191
 46
0.0
 71
     1
 72
     5
  1
{\W0.45;  S-KA 16/5*110}
 73
     1
 44
1.0
  0
MTEXT
  5
3DE
330
1F
100
AcDbEntity
  8
0
100
AcDbMText
 10
176.5355514266476
 20
227.0411760615156
 30
0.0
 40
4.0
 41
3.632409554779654
 46
0.0
 71
     1
 72
     5
  1
{\W0.45;4}
 73
     1
 44
1.0
  0
ENDSEC
  0
SECTION
  2
OBJECTS
  0
DICTIONARY
  5
C
330
0
100
AcDbDictionary
281
     1
  3
ACAD_COLOR
350
3C9
  3
ACAD_GROUP
350
D
  3
ACAD_LAYOUT
350
1A
  3
ACAD_MATERIAL
350
3B4
  3
ACAD_MLINESTYLE
350
17
  3
ACAD_PLOTSETTINGS
350
19
  3
ACAD_PLOTSTYLENAME
350
E
  3
ACAD_TABLESTYLE
350
3CA
  3
ACAD_VISUALSTYLE
350
3B8
  3
AcDbVariableDictionary
350
3DF
  0
DICTIONARY
  5
3C9
102
{ACAD_REACTORS
330
C
102
}
330
C
100
AcDbDictionary
281
     1
  0
DICTIONARY
  5
D
102
{ACAD_REACTORS
330
C
102
}
330
C
100
AcDbDictionary
281
     1
  0
DICTIONARY
  5
1A
102
{ACAD_REACTORS
330
C
102
}
330
C
100
AcDbDictionary
281
     1
  3
Layout1
350
1E
  3
Model
350
22
  0
DICTIONARY
  5
3B4
102
{ACAD_REACTORS
330
C
102
}
330
C
100
AcDbDictionary
281
     1
  3
ByBlock
350
3B6
  3
ByLayer
350
3B5
  3
Global
350
3B7
  0
DICTIONARY
  5
17
102
{ACAD_REACTORS
330
C
102
}
330
C
100
AcDbDictionary
281
     1
  3
Standard
350
18
  0
DICTIONARY
  5
19
102
{ACAD_REACTORS
330
C
102
}
330
C
100
AcDbDictionary
281
     1
  0
ACDBDICTIONARYWDFLT
  5
E
102
{ACAD_REACTORS
330
C
102
}
330
C
100
AcDbDictionary
281
     1
  3
Normal
350
F
100
AcDbDictionaryWithDefault
340
F
  0
DICTIONARY
  5
3CA
102
{ACAD_REACTORS
330
C
102
}
330
C
100
AcDbDictionary
281
     1
  3
Standard
350
3CB
  0
DICTIONARY
  5
3B8
102
{ACAD_REACTORS
330
C
102
}
330
C
100
AcDbDictionary
281
     1
  3
2dWireframe
350
3BE
  3
3D Hidden
350
3C0
  3
3dWireframe
350
3BF
  3
Basic
350
3BD
  3
Brighten
350
3C4
  3
ColorChange
350
3C8
  3
Conceptual
350
3C1
  3
Dim
350
3C3
  3
Facepattern
350
3C7
  3
Flat
350
3B9
  3
FlatWithEdges
350
3BA
  3
Gouraud
350
3BB
  3
GouraudWithEdges
350
3BC
  3
Linepattern
350
3C6
  3
Realistic
350
3C2
  3
Thicken
350
3C5
  0
DICTIONARY
  5
3DF
102
{ACAD_REACTORS
330
C
102
}
330
C
100
AcDbDictionary
281
     1
  3
CTABLESTYLE
350
3E0
  0
LAYOUT
  5
1E
102
{ACAD_REACTORS
330
1A
102
}
330
1A
100
AcDbPlotSettings
  1

  2

  4

  6

 40
0.0
 41
0.0
 42
0.0
 43
0.0
 44
0.0
 45
0.0
 46
0.0
 47
0.0
 48
0.0
 49
0.0
140
0.0
141
0.0
142
1.0
143
1.0
 70
     0
 72
     0
 73
     0
 74
     0
  7

 75
     0
147
1.0
 76
     0
 77
     2
 78
   300
148
0.0
149
0.0
100
AcDbLayout
  1
Layout1
 70
     1
 71
     1
 10
0.0
 20
0.0
 11
12.0
 21
9.0
 12
0.0
 22
0.0
 32
0.0
 14
1.000000000000000E+20
 24
1.000000000000000E+20
 34
1.000000000000000E+20
 15
-1.000000000000000E+20
 25
-1.000000000000000E+20
 35
-1.000000000000000E+20
146
0.0
 13
0.0
 23
0.0
 33
0.0
 16
1.0
 26
0.0
 36
0.0
 17
0.0
 27
1.0
 37
0.0
 76
     0
330
1B
  0
LAYOUT
  5
22
102
{ACAD_REACTORS
330
1A
102
}
330
1A
100
AcDbPlotSettings
  1

  2

  4

  6

 40
0.0
 41
0.0
 42
0.0
 43
0.0
 44
0.0
 45
0.0
 46
0.0
 47
0.0
 48
0.0
 49
0.0
140
0.0
141
0.0
142
1.0
143
1.0
 70
     0
 72
     0
 73
     0
 74
     0
  7

 75
     0
147
1.0
 76
     0
 77
     2
 78
   300
148
0.0
149
0.0
100
AcDbLayout
  1
Model
 70
     0
 71
     0
 10
0.0
 20
0.0
 11
0.0
 21
0.0
 12
0.0
 22
0.0
 32
0.0
 14
0.0
 24
0.0
 34
0.0
 15
0.0
 25
0.0
 35
0.0
146
0.0
 13
0.0
 23
0.0
 33
0.0
 16
0.0
 26
0.0
 36
0.0
 17
0.0
 27
0.0
 37
0.0
 76
     0
330
1F
331
1F4
  0
MATERIAL
  5
3B6
102
{ACAD_REACTORS
330
3B4
102
}
330
3B4
100
AcDbMaterial
  1
ByBlock
  0
MATERIAL
  5
3B5
102
{ACAD_REACTORS
330
3B4
102
}
330
3B4
100
AcDbMaterial
  1
ByLayer
  0
MATERIAL
  5
3B7
102
{ACAD_REACTORS
330
3B4
102
}
330
3B4
100
AcDbMaterial
  1
Global
  0
MLINESTYLE
  5
18
102
{ACAD_REACTORS
330
17
102
}
330
17
100
AcDbMlineStyle
  2
STANDARD
 70
     0
  3

 62
   256
 51
90.0
 52
90.0
 71
     2
 49
0.5
 62
   256
  6
BYLAYER
 49
-0.5
 62
   256
  6
BYLAYER
  0
ACDBPLACEHOLDER
  5
F
102
{ACAD_REACTORS
330
E
102
}
330
E
  0
TABLESTYLE
  5
3CB
102
{ACAD_REACTORS
330
3CA
102
}
330
3CA
100
AcDbTableStyle
  3
Standard
 70
     0
 71
     0
 40
1.5
 41
1.5
280
     0
281
     0
  7
STANDARD
140
4.5
170
     2
 62
     0
 63
     7
283
     0
 90
      512
 91
        0
  1

274
    -2
284
     1
 64
     0
275
    -2
285
     1
 65
     0
276
    -2
286
     1
 66
     0
277
    -2
287
     1
 67
     0
278
    -2
288
     1
 68
     0
279
    -2
289
     1
 69
     0
  7
STANDARD
140
6.0
170
     5
 62
     0
 63
     7
283
     0
 90
      512
 91
        0
  1

274
    -2
284
     1
 64
     0
275
    -2
285
     1
 65
     0
276
    -2
286
     1
 66
     0
277
    -2
287
     1
 67
     0
278
    -2
288
     1
 68
     0
279
    -2
289
     1
 69
     0
  7
STANDARD
140
4.5
170
     5
 62
     0
 63
     7
283
     0
 90
      512
 91
        0
  1

274
    -2
284
     1
 64
     0
275
    -2
285
     1
 65
     0
276
    -2
286
     1
 66
     0
277
    -2
287
     1
 67
     0
278
    -2
288
     1
 68
     0
279
    -2
289
     1
 69
     0
  0
VISUALSTYLE
  5
3BE
102
{ACAD_REACTORS
330
3B8
102
}
330
3B8
100
AcDbVisualStyle
  2
2dWireframe
 70
     4
 71
     0
 72
     2
 73
     0
 90
        0
 40
-0.6
 41
-30.0
 62
     5
 63
     7
421
 16777215
 74
     1
 91
        4
 64
     7
 65
   257
 75
     1
175
     1
 42
1.0
 92
        0
 66
   257
 43
1.0
 76
     1
 77
     6
 78
     2
 67
     7
 79
     5
170
     0
171
     0
290
     0
174
     0
 93
        1
 44
0.0
173
     0
291
     0
 45
0.0
  0
VISUALSTYLE
  5
3C0
102
{ACAD_REACTORS
330
3B8
102
}
330
3B8
100
AcDbVisualStyle
  2
3D Hidden
 70
     6
 71
     1
 72
     2
 73
     2
 90
        0
 40
-0.6
 41
-30.0
 62
     5
 63
     7
421
 16777215
 74
     2
 91
        2
 64
     7
 65
   257
 75
     2
175
     1
 42
40.0
 92
        0
 66
   257
 43
1.0
 76
     1
 77
     6
 78
     2
 67
     7
 79
     3
170
     0
171
     0
290
     0
174
     0
 93
        1
 44
0.0
173
     0
291
     0
 45
0.0
  0
VISUALSTYLE
  5
3BF
102
{ACAD_REACTORS
330
3B8
102
}
330
3B8
100
AcDbVisualStyle
  2
3dWireframe
 70
     5
 71
     0
 72
     2
 73
     0
 90
        0
 40
-0.6
 41
-30.0
 62
     5
 63
     7
421
 16777215
 74
     1
 91
        4
 64
     7
 65
   257
 75
     1
175
     1
 42
1.0
 92
        0
 66
   257
 43
1.0
 76
     1
 77
     6
 78
     2
 67
     7
 79
     5
170
     0
171
     0
290
     0
174
     0
 93
        1
 44
0.0
173
     0
291
     0
 45
0.0
  0
VISUALSTYLE
  5
3BD
102
{ACAD_REACTORS
330
3B8
102
}
330
3B8
100
AcDbVisualStyle
  2
Basic
 70
     7
 71
     1
 72
     0
 73
     1
 90
        0
 40
-0.6
 41
-30.0
 62
     5
 63
     7
421
 16777215
 74
     0
 91
        4
 64
     7
 65
   257
 75
     1
175
     1
 42
1.0
 92
        8
 66
     7
 43
1.0
 76
     1
 77
     6
 78
     2
 67
     7
 79
     5
170
     0
171
     0
290
     0
174
     0
 93
        1
 44
0.0
173
     0
291
     1
 45
0.0
  0
VISUALSTYLE
  5
3C4
102
{ACAD_REACTORS
330
3B8
102
}
330
3B8
100
AcDbVisualStyle
  2
Brighten
 70
    12
 71
     2
 72
     2
 73
     0
 90
        0
 40
-0.6
 41
-30.0
 62
     5
 63
     7
421
 16777215
 74
     1
 91
        4
 64
     7
 65
   257
 75
     1
175
     1
 42
1.0
 92
        8
 66
     7
 43
1.0
 76
     1
 77
     6
 78
     2
 67
     7
 79
     5
170
     0
171
     0
290
     0
174
     0
 93
        1
 44
50.0
173
     0
291
     1
 45
0.0
  0
VISUALSTYLE
  5
3C8
102
{ACAD_REACTORS
330
3B8
102
}
330
3B8
100
AcDbVisualStyle
  2
ColorChange
 70
    16
 71
     2
 72
     2
 73
     3
 90
        0
 40
-0.6
 41
-30.0
 62
     5
 63
     8
421
  8421504
 74
     1
 91
        4
 64
     7
 65
   257
 75
     1
175
     1
 42
1.0
 92
        8
 66
     8
424
  8421504
 43
1.0
 76
     1
 77
     6
 78
     2
 67
     7
 79
     5
170
     0
171
     0
290
     0
174
     0
 93
        1
 44
0.0
173
     0
291
     1
 45
0.0
  0
VISUALSTYLE
  5
3C1
102
{ACAD_REACTORS
330
3B8
102
}
330
3B8
100
AcDbVisualStyle
  2
Conceptual
 70
     9
 71
     3
 72
     2
 73
     0
 90
        0
 40
-0.6
 41
-30.0
 62
     5
 63
     7
421
 16777215
 74
     2
 91
        2
 64
     7
 65
   257
 75
     1
175
     1
 42
40.0
 92
        8
 66
     7
 43
1.0
 76
     1
 77
     6
 78
     2
 67
     7
 79
     3
170
     0
171
     0
290
     0
174
     0
 93
        1
 44
0.0
173
     0
291
     0
 45
0.0
  0
VISUALSTYLE
  5
3C3
102
{ACAD_REACTORS
330
3B8
102
}
330
3B8
100
AcDbVisualStyle
  2
Dim
 70
    11
 71
     2
 72
     2
 73
     0
 90
        0
 40
-0.6
 41
-30.0
 62
     5
 63
     7
421
 16777215
 74
     1
 91
        4
 64
     7
 65
   257
 75
     1
175
     1
 42
1.0
 92
        8
 66
     7
 43
1.0
 76
     1
 77
     6
 78
     2
 67
     7
 79
     5
170
     0
171
     0
290
     0
174
     0
 93
        1
 44
-50.0
173
     0
291
     1
 45
0.0
  0
VISUALSTYLE
  5
3C7
102
{ACAD_REACTORS
330
3B8
102
}
330
3B8
100
AcDbVisualStyle
  2
Facepattern
 70
    15
 71
     2
 72
     2
 73
     0
 90
        0
 40
-0.6
 41
-30.0
 62
     5
 63
     7
421
 16777215
 74
     1
 91
        4
 64
     7
 65
   257
 75
     1
175
     1
 42
1.0
 92
        8
 66
     7
 43
1.0
 76
     1
 77
     6
 78
     2
 67
     7
 79
     5
170
     0
171
     0
290
     0
174
     0
 93
        1
 44
0.0
173
     0
291
     1
 45
0.0
  0
VISUALSTYLE
  5
3B9
102
{ACAD_REACTORS
330
3B8
102
}
330
3B8
100
AcDbVisualStyle
  2
Flat
 70
     0
 71
     2
 72
     1
 73
     1
 90
        2
 40
-0.6
 41
30.0
 62
     5
 63
     7
421
 16777215
 74
     0
 91
        4
 64
     7
 65
   257
 75
     1
175
     1
 42
1.0
 92
        8
 66
     7
 43
1.0
 76
     1
 77
     6
 78
     2
 67
     7
 79
     5
170
     0
171
     0
290
     0
174
     0
 93
       13
 44
0.0
173
     0
291
     1
 45
0.0
  0
VISUALSTYLE
  5
3BA
102
{ACAD_REACTORS
330
3B8
102
}
330
3B8
100
AcDbVisualStyle
  2
FlatWithEdges
 70
     1
 71
     2
 72
     1
 73
     1
 90
        2
 40
-0.6
 41
30.0
 62
     5
 63
     7
421
 16777215
 74
     1
 91
        4
 64
     7
 65
   257
 75
     1
175
     1
 42
1.0
 92
        0
 66
   257
 43
1.0
 76
     1
 77
     6
 78
     2
 67
     7
 79
     5
170
     0
171
     0
290
     0
174
     0
 93
       13
 44
0.0
173
     0
291
     1
 45
0.0
  0
VISUALSTYLE
  5
3BB
102
{ACAD_REACTORS
330
3B8
102
}
330
3B8
100
AcDbVisualStyle
  2
Gouraud
 70
     2
 71
     2
 72
     2
 73
     1
 90
        2
 40
-0.6
 41
30.0
 62
     5
 63
     7
421
 16777215
 74
     0
 91
        4
 64
     7
 65
   257
 75
     1
175
     1
 42
1.0
 92
        0
 66
     7
 43
1.0
 76
     1
 77
     6
 78
     2
 67
     7
 79
     5
170
     0
171
     0
290
     0
174
     0
 93
       13
 44
0.0
173
     0
291
     1
 45
0.0
  0
VISUALSTYLE
  5
3BC
102
{ACAD_REACTORS
330
3B8
102
}
330
3B8
100
AcDbVisualStyle
  2
GouraudWithEdges
 70
     3
 71
     2
 72
     2
 73
     1
 90
        2
 40
-0.6
 41
30.0
 62
     5
 63
     7
421
 16777215
 74
     1
 91
        4
 64
     7
 65
   257
 75
     1
175
     1
 42
1.0
 92
        0
 66
   257
 43
1.0
 76
     1
 77
     6
 78
     2
 67
     7
 79
     5
170
     0
171
     0
290
     0
174
     0
 93
       13
 44
0.0
173
     0
291
     1
 45
0.0
  0
VISUALSTYLE
  5
3C6
102
{ACAD_REACTORS
330
3B8
102
}
330
3B8
100
AcDbVisualStyle
  2
Linepattern
 70
    14
 71
     2
 72
     2
 73
     0
 90
        0
 40
-0.6
 41
-30.0
 62
     5
 63
     7
421
 16777215
 74
     1
 91
        4
 64
     7
 65
   257
 75
     7
175
     7
 42
1.0
 92
        8
 66
     7
 43
1.0
 76
     1
 77
     6
 78
     2
 67
     7
 79
     5
170
     0
171
     0
290
     0
174
     0
 93
        1
 44
0.0
173
     0
291
     1
 45
0.0
  0
VISUALSTYLE
  5
3C2
102
{ACAD_REACTORS
330
3B8
102
}
330
3B8
100
AcDbVisualStyle
  2
Realistic
 70
     8
 71
     2
 72
     2
 73
     0
 90
        0
 40
-0.6
 41
-30.0
 62
     5
 63
     7
421
 16777215
 74
     1
 91
        0
 64
     7
 65
   257
 75
     1
175
     1
 42
1.0
 92
        8
 66
     8
424
  7895160
 43
1.0
 76
     1
 77
     6
 78
     2
 67
     7
 79
     5
170
     0
171
     0
290
     0
174
     0
 93
       13
 44
0.0
173
     0
291
     0
 45
0.0
  0
VISUALSTYLE
  5
3C5
102
{ACAD_REACTORS
330
3B8
102
}
330
3B8
100
AcDbVisualStyle
  2
Thicken
 70
    13
 71
     2
 72
     2
 73
     0
 90
        0
 40
-0.6
 41
-30.0
 62
     5
 63
     7
421
 16777215
 74
     1
 91
        4
 64
     7
 65
   257
 75
     1
175
     1
 42
1.0
 92
       12
 66
     7
 43
1.0
 76
     1
 77
     6
 78
     2
 67
     7
 79
     5
170
     0
171
     0
290
     0
174
     0
 93
        1
 44
0.0
173
     0
291
     1
 45
0.0
  0
DICTIONARYVAR
  5
3E0
102
{ACAD_REACTORS
330
3DF
102
}
330
3DF
100
DictionaryVariables
280
     0
  1
STANDARD
  0
ENDSEC
  0
EOF
