  0
SECTION
  2
HEADER
  9
$ACADVER
  1
AC1021
  9
$ACADMAINTVER
 70
     1
  9
$DWGCODEPAGE
  3
ANSI_1251
  9
$LASTSAVEDBY
  1
vzhur
  9
$INSBASE
 10
0.0
 20
0.0
 30
0.0
  9
$EXTMIN
 10
0.0
 20
0.0
 30
0.0
  9
$EXTMAX
 10
210.0
 20
297.0
 30
0.0
  9
$LIMMIN
 10
0.0
 20
0.0
  9
$LIMMAX
 10
210.0
 20
297.0
  9
$ORTHOMODE
 70
     0
  9
$REGENMODE
 70
     1
  9
$FILLMODE
 70
     1
  9
$QTEXTMODE
 70
     0
  9
$MIRRTEXT
 70
     0
  9
$LTSCALE
 40
19.36
  9
$ATTMODE
 70
     1
  9
$TEXTSIZE
 40
0.0
  9
$TRACEWID
 40
0.05
  9
$TEXTSTYLE
  7
STANDARD
  9
$CLAYER
  8
0
  9
$CELTYPE
  6
BYLAYER
  9
$CECOLOR
 62
   256
  9
$CELTSCALE
 40
1.0
  9
$DISPSILH
 70
     0
  9
$DIMSCALE
 40
1.0
  9
$DIMASZ
 40
3.0
  9
$DIMEXO
 40
2.2
  9
$DIMDLI
 40
13.376
  9
$DIMRND
 40
0.0
  9
$DIMDLE
 40
0.0
  9
$DIMEXE
 40
6.336
  9
$DIMTP
 40
0.01
  9
$DIMTM
 40
0.01
  9
$DIMTXT
 40
3.6
  9
$DIMCEN
 40
3.168
  9
$DIMTSZ
 40
0.0
  9
$DIMTOL
 70
     1
  9
$DIMLIM
 70
     0
  9
$DIMTIH
 70
     1
  9
$DIMTOH
 70
     1
  9
$DIMSE1
 70
     0
  9
$DIMSE2
 70
     0
  9
$DIMTAD
 70
     0
  9
$DIMZIN
 70
     0
  9
$DIMBLK
  1

  9
$DIMASO
 70
     1
  9
$DIMSHO
 70
     1
  9
$DIMPOST
  1

  9
$DIMAPOST
  1

  9
$DIMALT
 70
     0
  9
$DIMALTD
 70
     2
  9
$DIMALTF
 40
25.4
  9
$DIMLFAC
 40
1.0
  9
$DIMTOFL
 70
     0
  9
$DIMTVP
 40
0.0
  9
$DIMTIX
 70
     0
  9
$DIMSOXD
 70
     0
  9
$DIMSAH
 70
     0
  9
$DIMBLK1
  1

  9
$DIMBLK2
  1

  9
$DIMSTYLE
  2
STANDARD
  9
$DIMCLRD
 70
     0
  9
$DIMCLRE
 70
     0
  9
$DIMCLRT
 70
     0
  9
$DIMTFAC
 40
0.6
  9
$DIMGAP
 40
0.09
  9
$DIMJUST
 70
     0
  9
$DIMSD1
 70
     0
  9
$DIMSD2
 70
     0
  9
$DIMTOLJ
 70
     1
  9
$DIMTZIN
 70
     0
  9
$DIMALTZ
 70
     0
  9
$DIMALTTZ
 70
     0
  9
$DIMUPT
 70
     0
  9
$DIMDEC
 70
     4
  9
$DIMTDEC
 70
     4
  9
$DIMALTU
 70
     2
  9
$DIMALTTD
 70
     2
  9
$DIMTXSTY
  7
STANDARD
  9
$DIMAUNIT
 70
     0
  9
$DIMADEC
 70
     0
  9
$DIMALTRND
 40
0.0
  9
$DIMAZIN
 70
     0
  9
$DIMDSEP
 70
    46
  9
$DIMATFIT
 70
     3
  9
$DIMFRAC
 70
     0
  9
$DIMLDRBLK
  1

  9
$DIMLUNIT
 70
     2
  9
$DIMLWD
 70
    -2
  9
$DIMLWE
 70
    -2
  9
$DIMTMOVE
 70
     0
  9
$DIMFXL
 40
1.0
  9
$DIMFXLON
 70
     0
  9
$DIMJOGANG
 40
0.7853981633974483
  9
$DIMTFILL
 70
     0
  9
$DIMTFILLCLR
 70
     0
  9
$DIMARCSYM
 70
     0
  9
$DIMLTYPE
  6

  9
$DIMLTEX1
  6

  9
$DIMLTEX2
  6

  9
$LUNITS
 70
     2
  9
$LUPREC
 70
     4
  9
$SKETCHINC
 40
0.1
  9
$FILLETRAD
 40
0.0
  9
$AUNITS
 70
     0
  9
$AUPREC
 70
     0
  9
$MENU
  1
.
  9
$ELEVATION
 40
0.0
  9
$PELEVATION
 40
0.0
  9
$THICKNESS
 40
0.0
  9
$LIMCHECK
 70
     0
  9
$CHAMFERA
 40
0.0
  9
$CHAMFERB
 40
0.0
  9
$CHAMFERC
 40
0.0
  9
$CHAMFERD
 40
0.0
  9
$SKPOLY
 70
     0
  9
$TDCREATE
 40
2455575.406407326
  9
$TDUCREATE
 40
2455575.281407327
  9
$TDUPDATE
 40
2455575.407849202
  9
$TDUUPDATE
 40
2455575.282849201
  9
$TDINDWG
 40
0.0014442361
  9
$TDUSRTIMER
 40
0.0014442361
  9
$USRTIMER
 70
     1
  9
$ANGBASE
 50
0.0
  9
$ANGDIR
 70
     0
  9
$PDMODE
 70
     0
  9
$PDSIZE
 40
0.0
  9
$PLINEWID
 40
0.0
  9
$SPLFRAME
 70
     0
  9
$SPLINETYPE
 70
     6
  9
$SPLINESEGS
 70
     8
  9
$HANDSEED
  5
2C8
  9
$SURFTAB1
 70
     6
  9
$SURFTAB2
 70
     6
  9
$SURFTYPE
 70
     6
  9
$SURFU
 70
     6
  9
$SURFV
 70
     6
  9
$UCSBASE
  2

  9
$UCSNAME
  2

  9
$UCSORG
 10
0.0
 20
0.0
 30
0.0
  9
$UCSXDIR
 10
1.0
 20
0.0
 30
0.0
  9
$UCSYDIR
 10
0.0
 20
1.0
 30
0.0
  9
$UCSORTHOREF
  2

  9
$UCSORTHOVIEW
 70
     0
  9
$UCSORGTOP
 10
0.0
 20
0.0
 30
0.0
  9
$UCSORGBOTTOM
 10
0.0
 20
0.0
 30
0.0
  9
$UCSORGLEFT
 10
0.0
 20
0.0
 30
0.0
  9
$UCSORGRIGHT
 10
0.0
 20
0.0
 30
0.0
  9
$UCSORGFRONT
 10
0.0
 20
0.0
 30
0.0
  9
$UCSORGBACK
 10
0.0
 20
0.0
 30
0.0
  9
$PUCSBASE
  2

  9
$PUCSNAME
  2

  9
$PUCSORG
 10
0.0
 20
0.0
 30
0.0
  9
$PUCSXDIR
 10
1.0
 20
0.0
 30
0.0
  9
$PUCSYDIR
 10
0.0
 20
1.0
 30
0.0
  9
$PUCSORTHOREF
  2

  9
$PUCSORTHOVIEW
 70
     0
  9
$PUCSORGTOP
 10
0.0
 20
0.0
 30
0.0
  9
$PUCSORGBOTTOM
 10
0.0
 20
0.0
 30
0.0
  9
$PUCSORGLEFT
 10
0.0
 20
0.0
 30
0.0
  9
$PUCSORGRIGHT
 10
0.0
 20
0.0
 30
0.0
  9
$PUCSORGFRONT
 10
0.0
 20
0.0
 30
0.0
  9
$PUCSORGBACK
 10
0.0
 20
0.0
 30
0.0
  9
$USERI1
 70
     0
  9
$USERI2
 70
     0
  9
$USERI3
 70
     0
  9
$USERI4
 70
     0
  9
$USERI5
 70
     0
  9
$USERR1
 40
0.0
  9
$USERR2
 40
0.0
  9
$USERR3
 40
0.0
  9
$USERR4
 40
0.0
  9
$USERR5
 40
0.0
  9
$WORLDVIEW
 70
     1
  9
$SHADEDGE
 70
     3
  9
$SHADEDIF
 70
    70
  9
$TILEMODE
 70
     1
  9
$MAXACTVP
 70
    64
  9
$PINSBASE
 10
0.0
 20
0.0
 30
0.0
  9
$PLIMCHECK
 70
     0
  9
$PEXTMIN
 10
1.000000000000000E+20
 20
1.000000000000000E+20
 30
1.000000000000000E+20
  9
$PEXTMAX
 10
-1.000000000000000E+20
 20
-1.000000000000000E+20
 30
-1.000000000000000E+20
  9
$PLIMMIN
 10
0.0
 20
0.0
  9
$PLIMMAX
 10
12.0
 20
9.0
  9
$UNITMODE
 70
     0
  9
$VISRETAIN
 70
     1
  9
$PLINEGEN
 70
     0
  9
$PSLTSCALE
 70
     1
  9
$TREEDEPTH
 70
  3020
  9
$CMLSTYLE
  2
STANDARD
  9
$CMLJUST
 70
     0
  9
$CMLSCALE
 40
1.0
  9
$PROXYGRAPHICS
 70
     1
  9
$MEASUREMENT
 70
     0
  9
$CELWEIGHT
370
    -1
  9
$ENDCAPS
280
     0
  9
$JOINSTYLE
280
     0
  9
$LWDISPLAY
290
     0
  9
$INSUNITS
 70
     0
  9
$HYPERLINKBASE
  1

  9
$STYLESHEET
  1

  9
$XEDIT
290
     1
  9
$CEPSNTYPE
380
     0
  9
$PSTYLEMODE
290
     1
  9
$FINGERPRINTGUID
  2
{FEC9B46E-4C8D-4AEE-99C9-FBA36F61DB07}
  9
$VERSIONGUID
  2
{EA523E65-4E4F-461D-A8AA-AF7DAA437BB8}
  9
$EXTNAMES
290
     1
  9
$PSVPSCALE
 40
0.0
  9
$OLESTARTUP
290
     0
  9
$SORTENTS
280
   127
  9
$INDEXCTL
280
     0
  9
$HIDETEXT
280
     0
  9
$XCLIPFRAME
290
     0
  9
$HALOGAP
280
     0
  9
$OBSCOLOR
 70
   257
  9
$OBSLTYPE
280
     0
  9
$INTERSECTIONDISPLAY
280
     0
  9
$INTERSECTIONCOLOR
 70
   257
  9
$DIMASSOC
280
     1
  9
$PROJECTNAME
  1

  9
$CAMERADISPLAY
290
     0
  9
$LENSLENGTH
 40
50.0
  9
$CAMERAHEIGHT
 40
0.0
  9
$STEPSPERSEC
 40
2.0
  9
$STEPSIZE
 40
6.0
  9
$3DDWFPREC
 40
2.0
  9
$PSOLWIDTH
 40
0.25
  9
$PSOLHEIGHT
 40
4.0
  9
$LOFTANG1
 40
1.570796326794896
  9
$LOFTANG2
 40
1.570796326794896
  9
$LOFTMAG1
 40
0.0
  9
$LOFTMAG2
 40
0.0
  9
$LOFTPARAM
 70
     7
  9
$LOFTNORMALS
280
     1
  9
$LATITUDE
 40
37.795
  9
$LONGITUDE
 40
-122.394
  9
$NORTHDIRECTION
 40
0.0
  9
$TIMEZONE
 70
 -8000
  9
$LIGHTGLYPHDISPLAY
280
     1
  9
$TILEMODELIGHTSYNCH
280
     1
  9
$CMATERIAL
347
2A9
  9
$SOLIDHIST
280
     1
  9
$SHOWHIST
280
     1
  9
$DWFFRAME
280
     2
  9
$DGNFRAME
280
     0
  9
$REALWORLDSCALE
290
     1
  9
$INTERFERECOLOR
 62
     1
  9
$INTERFEREOBJVS
345
2B6
  9
$INTERFEREVPVS
346
2B3
  9
$CSHADOW
280
     0
  9
$SHADOWPLANELOCATION
 40
0.0
  0
ENDSEC
  0
SECTION
  2
CLASSES
  0
CLASS
  1
ACDBDICTIONARYWDFLT
  2
AcDbDictionaryWithDefault
  3
ObjectDBX Classes
 90
        0
 91
        1
280
     0
281
     0
  0
CLASS
  1
MATERIAL
  2
AcDbMaterial
  3
ObjectDBX Classes
 90
     1024
 91
        3
280
     0
281
     0
  0
CLASS
  1
VISUALSTYLE
  2
AcDbVisualStyle
  3
ObjectDBX Classes
 90
     4095
 91
       16
280
     0
281
     0
  0
CLASS
  1
TABLESTYLE
  2
AcDbTableStyle
  3
ObjectDBX Classes
 90
     4095
 91
        1
280
     0
281
     0
  0
CLASS
  1
DICTIONARYVAR
  2
AcDbDictionaryVar
  3
ObjectDBX Classes
 90
        0
 91
        1
280
     0
281
     0
  0
ENDSEC
  0
SECTION
  2
TABLES
  0
TABLE
  2
VPORT
  5
1F4
330
0
100
AcDbSymbolTable
 70
     1
  0
VPORT
  5
1F5
330
1F4
100
AcDbSymbolTableRecord
100
AcDbViewportTableRecord
  2
*ACTIVE
 70
     0
 10
0.0
 20
0.0
 11
1.0
 21
1.0
 12
259.447819089385
 22
141.6956401497085
 13
0.0
 23
0.0
 14
1.0
 24
1.0
 15
0.0
 25
0.0
 16
0.0
 26
0.0
 36
1.0
 17
0.0
 27
0.0
 37
0.0
 40
371.3512985164791
 41
1.557591623036649
 42
50.0
 43
0.0
 44
0.0
 50
0.0
 51
0.0
 71
     0
 72
   100
 73
     1
 74
     1
 75
     0
 76
     0
 77
     0
 78
     0
281
     0
 65
     1
110
0.0
120
0.0
130
0.0
111
1.0
121
0.0
131
0.0
112
0.0
122
1.0
132
0.0
 79
     0
146
0.0
348
2B2
 60
     3
 61
     5
292
     1
282
     1
141
0.0
142
0.0
 63
   250
421
  3355443
  0
ENDTAB
  0
TABLE
  2
LTYPE
  5
1F6
330
0
100
AcDbSymbolTable
 70
     6
  0
LTYPE
  5
1F7
330
1F6
100
AcDbSymbolTableRecord
100
AcDbLinetypeTableRecord
  2
BYBLOCK
 70
     0
  3

 72
    65
 73
     0
 40
0.0
  0
LTYPE
  5
1F8
330
1F6
100
AcDbSymbolTableRecord
100
AcDbLinetypeTableRecord
  2
BYLAYER
 70
     0
  3

 72
    65
 73
     0
 40
0.0
  0
LTYPE
  5
1F9
330
1F6
100
AcDbSymbolTableRecord
100
AcDbLinetypeTableRecord
  2
CONTINUOUS
 70
     0
  3
Solid line
 72
    65
 73
     0
 40
0.0
  0
LTYPE
  5
1FA
330
1F6
100
AcDbSymbolTableRecord
100
AcDbLinetypeTableRecord
  2
CENTER
 70
     0
  3
____ _ ____ _ ____ _ ____ _ ____ _ ____ _ ____
 72
    65
 73
     4
 40
0.6
 49
0.375
 74
     0
 49
-0.075
 74
     0
 49
0.075
 74
     0
 49
-0.075
 74
     0
  0
LTYPE
  5
1FB
330
1F6
100
AcDbSymbolTableRecord
100
AcDbLinetypeTableRecord
  2
HIDDEN
 70
     0
  3
- - - - - - - - - - - - - - - - - - - -
 72
    65
 73
     2
 40
0.2
 49
0.1
 74
     0
 49
-0.1
 74
     0
  0
LTYPE
  5
1FC
330
1F6
100
AcDbSymbolTableRecord
100
AcDbLinetypeTableRecord
  2
PHANTOM
 70
     0
  3
_____ _ _ _____ _ _ _____ _ _ _____
 72
    65
 73
     6
 40
0.8
 49
0.45
 74
     0
 49
-0.05
 74
     0
 49
0.1
 74
     0
 49
-0.05
 74
     0
 49
0.1
 74
     0
 49
-0.05
 74
     0
  0
LTYPE
  5
1FD
330
1F6
100
AcDbSymbolTableRecord
100
AcDbLinetypeTableRecord
  2
DOT
 70
     0
  3
. . . . . . . . . . . . . . . . . . . .
 72
    65
 73
     2
 40
0.2
 49
0.1
 74
     0
 49
-0.1
 74
     0
  0
LTYPE
  5
1FE
330
1F6
100
AcDbSymbolTableRecord
100
AcDbLinetypeTableRecord
  2
DASHED
 70
     0
  3
- - - - - - - - - - - - - - - - - - - -
 72
    65
 73
     2
 40
0.2
 49
0.1
 74
     0
 49
-0.1
 74
     0
  0
ENDTAB
  0
TABLE
  2
LAYER
  5
1FF
330
0
100
AcDbSymbolTable
 70
     4
  0
LAYER
  5
200
330
1FF
100
AcDbSymbolTableRecord
100
AcDbLayerTableRecord
  2
0
 70
     0
 62
     7
  6
CONTINUOUS
370
    -3
390
2A7
347
2AB
  0
LAYER
  5
201
330
1FF
100
AcDbSymbolTableRecord
100
AcDbLayerTableRecord
  2
DEFAULT_1
 70
     0
 62
     7
  6
CENTER
370
    -3
390
2A7
347
2AB
  0
LAYER
  5
202
330
1FF
100
AcDbSymbolTableRecord
100
AcDbLayerTableRecord
  2
DEFAULT_2
 70
     0
 62
     8
  6
HIDDEN
370
    -3
390
2A7
347
2AB
  0
LAYER
  5
203
330
1FF
100
AcDbSymbolTableRecord
100
AcDbLayerTableRecord
  2
DEFAULT_3
 70
     0
 62
     7
  6
PHANTOM
370
    -3
390
2A7
347
2AB
  0
ENDTAB
  0
TABLE
  2
STYLE
  5
204
330
0
100
AcDbSymbolTable
 70
     2
  0
STYLE
  5
205
330
204
100
AcDbSymbolTableRecord
100
AcDbTextStyleTableRecord
  2
STANDARD
 70
     0
 40
0.0
 41
1.0
 50
0.0
 71
     0
 42
0.0
  3
txt
  4

  0
STYLE
  5
206
330
204
100
AcDbSymbolTableRecord
100
AcDbTextStyleTableRecord
  2
TEXTSTYLE_0
 70
     0
 40
0.0
 41
0.8
 50
0.0
 71
     0
 42
0.2
  3
txt
  4

  0
ENDTAB
  0
TABLE
  2
VIEW
  5
207
330
0
100
AcDbSymbolTable
 70
     0
  0
ENDTAB
  0
TABLE
  2
UCS
  5
208
330
0
100
AcDbSymbolTable
 70
     0
  0
ENDTAB
  0
TABLE
  2
APPID
  5
209
330
0
100
AcDbSymbolTable
 70
     1
  0
APPID
  5
20A
330
209
100
AcDbSymbolTableRecord
100
AcDbRegAppTableRecord
  2
ACAD
 70
     0
  0
ENDTAB
  0
TABLE
  2
DIMSTYLE
  5
20B
330
0
100
AcDbSymbolTable
 70
     1
100
AcDbDimStyleTable
 71
     0
  0
DIMSTYLE
105
20C
330
20B
100
AcDbSymbolTableRecord
100
AcDbDimStyleTableRecord
  2
STANDARD
 70
     0
 47
0.01
 48
0.01
 71
     1
140
3.6
146
0.6
271
     2
340
205
  0
ENDTAB
  0
TABLE
  2
BLOCK_RECORD
  5
20D
330
0
100
AcDbSymbolTable
 70
     0
  0
BLOCK_RECORD
  5
20E
330
20D
100
AcDbSymbolTableRecord
100
AcDbBlockTableRecord
  2
*MODEL_SPACE
340
2C3
 70
     0
280
     1
281
     0
  0
BLOCK_RECORD
  5
20F
330
20D
100
AcDbSymbolTableRecord
100
AcDbBlockTableRecord
  2
*PAPER_SPACE
340
2C4
 70
     0
280
     1
281
     0
  0
ENDTAB
  0
ENDSEC
  0
SECTION
  2
BLOCKS
  0
BLOCK
  5
210
330
20E
100
AcDbEntity
  8
0
100
AcDbBlockBegin
  2
*MODEL_SPACE
 70
     0
 10
0.0
 20
0.0
 30
0.0
  3
*MODEL_SPACE
  1

  0
ENDBLK
  5
211
330
20E
100
AcDbEntity
  8
0
100
AcDbBlockEnd
  0
BLOCK
  5
212
330
20F
100
AcDbEntity
 67
     1
  8
0
100
AcDbBlockBegin
  2
*PAPER_SPACE
 70
     0
 10
0.0
 20
0.0
 30
0.0
  3
*PAPER_SPACE
  1

  0
ENDBLK
  5
213
330
20F
100
AcDbEntity
 67
     1
  8
0
100
AcDbBlockEnd
  0
ENDSEC
  0
SECTION
  2
ENTITIES
  0
LINE
  5
214
330
20E
100
AcDbEntity
  8
0
  6
Continuous
 62
     7
100
AcDbLine
 10
205.0
 20
277.0
 30
0.0
 11
20.0
 21
277.0
 31
0.0
  0
LINE
  5
215
330
20E
100
AcDbEntity
  8
0
  6
Continuous
 62
     7
100
AcDbLine
 10
205.0
 20
277.0
 30
0.0
 11
205.0
 21
189.0
 31
0.0
  0
LINE
  5
216
330
20E
100
AcDbEntity
  8
0
  6
Continuous
 62
     7
100
AcDbLine
 10
205.0
 20
269.0
 30
0.0
 11
20.0
 21
269.0
 31
0.0
  0
LINE
  5
217
330
20E
100
AcDbEntity
  8
0
  6
Continuous
 62
     7
100
AcDbLine
 10
205.0
 20
261.0
 30
0.0
 11
20.0
 21
261.0
 31
0.0
  0
LINE
  5
218
330
20E
100
AcDbEntity
  8
0
  6
Continuous
 62
     7
100
AcDbLine
 10
205.0
 20
253.0
 30
0.0
 11
20.0
 21
253.0
 31
0.0
  0
LINE
  5
219
330
20E
100
AcDbEntity
  8
0
  6
Continuous
 62
     7
100
AcDbLine
 10
205.0
 20
245.0
 30
0.0
 11
20.0
 21
245.0
 31
0.0
  0
LINE
  5
21A
330
20E
100
AcDbEntity
  8
0
  6
Continuous
 62
     7
100
AcDbLine
 10
205.0
 20
237.0
 30
0.0
 11
20.0
 21
237.0
 31
0.0
  0
LINE
  5
21B
330
20E
100
AcDbEntity
  8
0
  6
Continuous
 62
     7
100
AcDbLine
 10
205.0
 20
229.0
 30
0.0
 11
20.0
 21
229.0
 31
0.0
  0
LINE
  5
21C
330
20E
100
AcDbEntity
  8
0
  6
Continuous
 62
     7
100
AcDbLine
 10
205.0
 20
221.0
 30
0.0
 11
20.0
 21
221.0
 31
0.0
  0
LINE
  5
21D
330
20E
100
AcDbEntity
  8
0
  6
Continuous
 62
     7
100
AcDbLine
 10
205.0
 20
213.0
 30
0.0
 11
20.0
 21
213.0
 31
0.0
  0
LINE
  5
21E
330
20E
100
AcDbEntity
  8
0
  6
Continuous
 62
     7
100
AcDbLine
 10
205.0
 20
205.0
 30
0.0
 11
20.0
 21
205.0
 31
0.0
  0
LINE
  5
21F
330
20E
100
AcDbEntity
  8
0
  6
Continuous
 62
     7
100
AcDbLine
 10
205.0
 20
197.0
 30
0.0
 11
20.0
 21
197.0
 31
0.0
  0
LINE
  5
220
330
20E
100
AcDbEntity
  8
0
  6
Continuous
 62
     7
100
AcDbLine
 10
205.0
 20
189.0
 30
0.0
 11
20.0
 21
189.0
 31
0.0
  0
LINE
  5
221
330
20E
100
AcDbEntity
  8
0
  6
Continuous
 62
     7
100
AcDbLine
 10
183.0
 20
277.0
 30
0.0
 11
183.0
 21
189.0
 31
0.0
  0
LINE
  5
222
330
20E
100
AcDbEntity
  8
0
  6
Continuous
 62
     7
100
AcDbLine
 10
173.0
 20
277.0
 30
0.0
 11
173.0
 21
189.0
 31
0.0
  0
LINE
  5
223
330
20E
100
AcDbEntity
  8
0
  6
Continuous
 62
     7
100
AcDbLine
 10
110.0
 20
277.0
 30
0.0
 11
110.0
 21
189.0
 31
0.0
  0
LINE
  5
224
330
20E
100
AcDbEntity
  8
0
  6
Continuous
 62
     7
100
AcDbLine
 10
40.0
 20
277.0
 30
0.0
 11
40.0
 21
189.0
 31
0.0
  0
LINE
  5
225
330
20E
100
AcDbEntity
  8
0
  6
Continuous
 62
     7
100
AcDbLine
 10
32.0
 20
277.0
 30
0.0
 11
32.0
 21
189.0
 31
0.0
  0
LINE
  5
226
330
20E
100
AcDbEntity
  8
0
  6
Continuous
 62
     7
100
AcDbLine
 10
26.0
 20
277.0
 30
0.0
 11
26.0
 21
189.0
 31
0.0
  0
LINE
  5
227
330
20E
100
AcDbEntity
  8
0
  6
Continuous
 62
     7
100
AcDbLine
 10
20.0
 20
277.0
 30
0.0
 11
20.0
 21
189.0
 31
0.0
  0
TEXT
  5
228
330
20E
100
AcDbEntity
  8
0
  6
Continuous
 62
     2
100
AcDbText
 10
120.5
 20
269.9882970257
 30
0.0
 40
5.0
  1
%%u Documentation
 41
0.6371681415929204
 51
12.0
  7
TEXTSTYLE_0
 72
     5
 11
162.5
 21
269.9882970257
 31
0.0
100
AcDbText
  0
TEXT
  5
229
330
20E
100
AcDbEntity
  8
0
  6
Continuous
 62
     2
100
AcDbText
 10
111.425
 20
254.4441485128
 30
0.0
 40
5.0
  1
Assembly drawing
 41
0.6068965517241383
 51
12.0
  7
TEXTSTYLE_0
 72
     5
 11
155.425
 21
254.4441485128
 31
0.0
100
AcDbText
  0
TEXT
  5
22A
330
20E
100
AcDbEntity
  8
0
  6
Continuous
 62
     2
100
AcDbText
 10
41.425
 20
254.4441485128
 30
0.0
 40
5.0
  1
IPCS.05.210.00
 41
0.8806451612903225
 51
12.0
  7
TEXTSTYLE_0
 72
     5
 11
86.925
 21
254.4441485128
 31
0.0
100
AcDbText
  0
TEXT
  5
22B
330
20E
100
AcDbEntity
  8
0
  6
Continuous
 62
     2
100
AcDbText
 10
86.925
 20
254.4441485128
 30
0.0
 40
5.0
  1
.AS
 41
0.975
 51
12.0
  7
TEXTSTYLE_0
 72
     5
 11
96.675
 21
254.4441485128
 31
0.0
100
AcDbText
  0
TEXT
  5
22C
330
20E
100
AcDbEntity
  8
0
  6
Continuous
 62
     2
100
AcDbText
 10
20.84
 20
255.4195738585
 30
0.0
 40
3.6
  1
A4
 41
0.7200000000000001
 51
12.0
  7
TEXTSTYLE_0
 72
     5
 11
25.16
 21
255.4195738585
 31
0.0
100
AcDbText
  0
TEXT
  5
22D
330
20E
100
AcDbEntity
  8
0
  6
Continuous
 62
     2
100
AcDbText
 10
134.0
 20
237.9882970257
 30
0.0
 40
5.0
  1
%%uParts
 41
0.618556701030928
 51
12.0
  7
TEXTSTYLE_0
 72
     5
 11
149.0
 21
237.9882970257
 31
0.0
100
AcDbText
  0
TEXT
  5
22E
330
20E
100
AcDbEntity
  8
0
  6
Continuous
 62
     2
100
AcDbText
 10
176.5375
 20
222.9
 30
0.0
 40
4.5
  1
1
 41
1.950000000000007
 51
12.0
  7
TEXTSTYLE_0
 72
     5
 11
179.4625
 21
222.9
 31
0.0
100
AcDbText
  0
TEXT
  5
22F
330
20E
100
AcDbEntity
  8
0
  6
Continuous
 62
     2
100
AcDbText
 10
111.425
 20
222.4441485128
 30
0.0
 40
5.0
  1
Screw body
 41
0.5689655172413798
 51
12.0
  7
TEXTSTYLE_0
 72
     5
 11
138.925
 21
222.4441485128
 31
0.0
100
AcDbText
  0
TEXT
  5
230
330
20E
100
AcDbEntity
  8
0
  6
Continuous
 62
     2
100
AcDbText
 10
41.425
 20
222.4441485128
 30
0.0
 40
5.0
  1
IPCS.05.210.01
 41
0.8950819672131148
 51
12.0
  7
TEXTSTYLE_0
 72
     5
 11
86.925
 21
222.4441485128
 31
0.0
100
AcDbText
  0
TEXT
  5
231
330
20E
100
AcDbEntity
  8
0
  6
Continuous
 62
     2
100
AcDbText
 10
34.5375
 20
222.4994673231
 30
0.0
 40
4.5
  1
1
 41
1.949999999999998
 51
12.0
  7
TEXTSTYLE_0
 72
     5
 11
37.4625
 21
222.4994673231
 31
0.0
100
AcDbText
  0
TEXT
  5
232
330
20E
100
AcDbEntity
  8
0
  6
Continuous
 62
     2
100
AcDbText
 10
20.84
 20
223.4195738585
 30
0.0
 40
3.6
  1
A4
 41
0.7200000000000001
 51
12.0
  7
TEXTSTYLE_0
 72
     5
 11
25.16
 21
223.4195738585
 31
0.0
100
AcDbText
  0
TEXT
  5
233
330
20E
100
AcDbEntity
  8
0
  6
Continuous
 62
     2
100
AcDbText
 10
176.5375
 20
214.9
 30
0.0
 40
4.5
  1
1
 41
1.950000000000007
 51
12.0
  7
TEXTSTYLE_0
 72
     5
 11
179.4625
 21
214.9
 31
0.0
100
AcDbText
  0
TEXT
  5
234
330
20E
100
AcDbEntity
  8
0
  6
Continuous
 62
     2
100
AcDbText
 10
111.425
 20
214.4441485128
 30
0.0
 40
5.0
  1
Ring
 41
0.7333333333333333
 51
12.0
  7
TEXTSTYLE_0
 72
     5
 11
122.425
 21
214.4441485128
 31
0.0
100
AcDbText
  0
TEXT
  5
235
330
20E
100
AcDbEntity
  8
0
  6
Continuous
 62
     2
100
AcDbText
 10
41.425
 20
214.4441485128
 30
0.0
 40
5.0
  1
IPCS.05.210.02
 41
0.8666666666666667
 51
12.0
  7
TEXTSTYLE_0
 72
     5
 11
86.925
 21
214.4441485128
 31
0.0
100
AcDbText
  0
TEXT
  5
236
330
20E
100
AcDbEntity
  8
0
  6
Continuous
 62
     2
100
AcDbText
 10
34.5375
 20
214.4994673231
 30
0.0
 40
4.5
  1
2
 41
0.9749999999999991
 51
12.0
  7
TEXTSTYLE_0
 72
     5
 11
37.4625
 21
214.4994673231
 31
0.0
100
AcDbText
  0
TEXT
  5
237
330
20E
100
AcDbEntity
  8
0
  6
Continuous
 62
     2
100
AcDbText
 10
20.84
 20
215.4195738585
 30
0.0
 40
3.6
  1
A4
 41
0.7200000000000001
 51
12.0
  7
TEXTSTYLE_0
 72
     5
 11
25.16
 21
215.4195738585
 31
0.0
100
AcDbText
  0
TEXT
  5
238
330
20E
100
AcDbEntity
  8
0
  6
Continuous
 62
     2
100
AcDbText
 10
176.5375
 20
206.9
 30
0.0
 40
4.5
  1
1
 41
1.950000000000007
 51
12.0
  7
TEXTSTYLE_0
 72
     5
 11
179.4625
 21
206.9
 31
0.0
100
AcDbText
  0
TEXT
  5
239
330
20E
100
AcDbEntity
  8
0
  6
Continuous
 62
     2
100
AcDbText
 10
111.425
 20
206.4441485128
 30
0.0
 40
5.0
  1
Spring
 41
0.6600000000000001
 51
12.0
  7
TEXTSTYLE_0
 72
     5
 11
127.925
 21
206.4441485128
 31
0.0
100
AcDbText
  0
TEXT
  5
23A
330
20E
100
AcDbEntity
  8
0
  6
Continuous
 62
     2
100
AcDbText
 10
41.425
 20
206.4441485128
 30
0.0
 40
5.0
  1
IPCS.05.210.03
 41
0.8666666666666667
 51
12.0
  7
TEXTSTYLE_0
 72
     5
 11
86.925
 21
206.4441485128
 31
0.0
100
AcDbText
  0
TEXT
  5
23B
330
20E
100
AcDbEntity
  8
0
  6
Continuous
 62
     2
100
AcDbText
 10
34.5375
 20
206.4994673231
 30
0.0
 40
4.5
  1
3
 41
0.9749999999999991
 51
12.0
  7
TEXTSTYLE_0
 72
     5
 11
37.4625
 21
206.4994673231
 31
0.0
100
AcDbText
  0
TEXT
  5
23C
330
20E
100
AcDbEntity
  8
0
  6
Continuous
 62
     2
100
AcDbText
 10
20.84
 20
207.4195738585
 30
0.0
 40
3.6
  1
A3
 41
0.7200000000000002
 51
12.0
  7
TEXTSTYLE_0
 72
     5
 11
25.16
 21
207.4195738585
 31
0.0
100
AcDbText
  0
TEXT
  5
23D
330
20E
100
AcDbEntity
  8
0
  6
Continuous
 62
     2
100
AcDbText
 10
176.5375
 20
198.9
 30
0.0
 40
4.5
  1
1
 41
1.950000000000007
 51
12.0
  7
TEXTSTYLE_0
 72
     5
 11
179.4625
 21
198.9
 31
0.0
100
AcDbText
  0
TEXT
  5
23E
330
20E
100
AcDbEntity
  8
0
  6
Continuous
 62
     2
100
AcDbText
 10
111.425
 20
198.4441485128
 30
0.0
 40
5.0
  1
Pin
 41
0.825
 51
12.0
  7
TEXTSTYLE_0
 72
     5
 11
119.675
 21
198.4441485128
 31
0.0
100
AcDbText
  0
TEXT
  5
23F
330
20E
100
AcDbEntity
  8
0
  6
Continuous
 62
     2
100
AcDbText
 10
41.425
 20
198.4441485128
 30
0.0
 40
5.0
  1
IPCS.05.210.04
 41
0.8666666666666667
 51
12.0
  7
TEXTSTYLE_0
 72
     5
 11
86.925
 21
198.4441485128
 31
0.0
100
AcDbText
  0
TEXT
  5
240
330
20E
100
AcDbEntity
  8
0
  6
Continuous
 62
     2
100
AcDbText
 10
34.5375
 20
198.4994673231
 30
0.0
 40
4.5
  1
4
 41
0.9749999999999991
 51
12.0
  7
TEXTSTYLE_0
 72
     5
 11
37.4625
 21
198.4994673231
 31
0.0
100
AcDbText
  0
TEXT
  5
241
330
20E
100
AcDbEntity
  8
0
  6
Continuous
 62
     2
100
AcDbText
 10
20.84
 20
199.4195738584999
 30
0.0
 40
3.6
  1
A4
 41
0.7200000000000001
 51
12.0
  7
TEXTSTYLE_0
 72
     5
 11
25.16
 21
199.4195738584999
 31
0.0
100
AcDbText
  0
LINE
  5
242
330
20E
100
AcDbEntity
  8
0
  6
Continuous
 62
     7
100
AcDbLine
 10
205.0
 20
5.0
 30
0.0
 11
20.0
 21
5.0
 31
0.0
  0
LINE
  5
243
330
20E
100
AcDbEntity
  8
0
  6
Continuous
 62
     7
100
AcDbLine
 10
205.0
 20
5.0
 30
0.0
 11
205.0
 21
45.0
 31
0.0
  0
LINE
  5
244
330
20E
100
AcDbEntity
  8
0
  6
Continuous
 62
     7
100
AcDbLine
 10
85.0
 20
10.0
 30
0.0
 11
20.0
 21
10.0
 31
0.0
  0
LINE
  5
245
330
20E
100
AcDbEntity
  8
0
  6
Continuous
 62
     7
100
AcDbLine
 10
85.0
 20
15.0
 30
0.0
 11
20.0
 21
15.0
 31
0.0
  0
LINE
  5
246
330
20E
100
AcDbEntity
  8
0
  6
Continuous
 62
     7
100
AcDbLine
 10
205.0
 20
20.0
 30
0.0
 11
155.0
 21
20.0
 31
0.0
  0
LINE
  5
247
330
20E
100
AcDbEntity
  8
0
  6
Continuous
 62
     7
100
AcDbLine
 10
85.0
 20
20.0
 30
0.0
 11
20.0
 21
20.0
 31
0.0
  0
LINE
  5
248
330
20E
100
AcDbEntity
  8
0
  6
Continuous
 62
     7
100
AcDbLine
 10
205.0
 20
25.0
 30
0.0
 11
155.0
 21
25.0
 31
0.0
  0
LINE
  5
249
330
20E
100
AcDbEntity
  8
0
  6
Continuous
 62
     7
100
AcDbLine
 10
85.0
 20
25.0
 30
0.0
 11
20.0
 21
25.0
 31
0.0
  0
LINE
  5
24A
330
20E
100
AcDbEntity
  8
0
  6
Continuous
 62
     7
100
AcDbLine
 10
205.0
 20
30.0
 30
0.0
 11
20.0
 21
30.0
 31
0.0
  0
LINE
  5
24B
330
20E
100
AcDbEntity
  8
0
  6
Continuous
 62
     7
100
AcDbLine
 10
85.0
 20
35.0
 30
0.0
 11
20.0
 21
35.0
 31
0.0
  0
LINE
  5
24C
330
20E
100
AcDbEntity
  8
0
  6
Continuous
 62
     7
100
AcDbLine
 10
85.0
 20
40.0
 30
0.0
 11
20.0
 21
40.0
 31
0.0
  0
LINE
  5
24D
330
20E
100
AcDbEntity
  8
0
  6
Continuous
 62
     7
100
AcDbLine
 10
205.0
 20
45.0
 30
0.0
 11
20.0
 21
45.0
 31
0.0
  0
LINE
  5
24E
330
20E
100
AcDbEntity
  8
0
  6
Continuous
 62
     7
100
AcDbLine
 10
185.0
 20
20.0
 30
0.0
 11
185.0
 21
30.0
 31
0.0
  0
LINE
  5
24F
330
20E
100
AcDbEntity
  8
0
  6
Continuous
 62
     7
100
AcDbLine
 10
170.0
 20
20.0
 30
0.0
 11
170.0
 21
30.0
 31
0.0
  0
LINE
  5
250
330
20E
100
AcDbEntity
  8
0
  6
Continuous
 62
     7
100
AcDbLine
 10
165.0
 20
20.0
 30
0.0
 11
165.0
 21
25.0
 31
0.0
  0
LINE
  5
251
330
20E
100
AcDbEntity
  8
0
  6
Continuous
 62
     7
100
AcDbLine
 10
160.0
 20
20.0
 30
0.0
 11
160.0
 21
25.0
 31
0.0
  0
LINE
  5
252
330
20E
100
AcDbEntity
  8
0
  6
Continuous
 62
     7
100
AcDbLine
 10
155.0
 20
5.0
 30
0.0
 11
155.0
 21
30.0
 31
0.0
  0
LINE
  5
253
330
20E
100
AcDbEntity
  8
0
  6
Continuous
 62
     7
100
AcDbLine
 10
85.0
 20
5.0
 30
0.0
 11
85.0
 21
45.0
 31
0.0
  0
LINE
  5
254
330
20E
100
AcDbEntity
  8
0
  6
Continuous
 62
     7
100
AcDbLine
 10
75.0
 20
5.0
 30
0.0
 11
75.0
 21
45.0
 31
0.0
  0
LINE
  5
255
330
20E
100
AcDbEntity
  8
0
  6
Continuous
 62
     7
100
AcDbLine
 10
60.0
 20
5.0
 30
0.0
 11
60.0
 21
45.0
 31
0.0
  0
LINE
  5
256
330
20E
100
AcDbEntity
  8
0
  6
Continuous
 62
     7
100
AcDbLine
 10
37.0
 20
5.0
 30
0.0
 11
37.0
 21
45.0
 31
0.0
  0
LINE
  5
257
330
20E
100
AcDbEntity
  8
0
  6
Continuous
 62
     7
100
AcDbLine
 10
27.0
 20
30.0
 30
0.0
 11
27.0
 21
45.0
 31
0.0
  0
LINE
  5
258
330
20E
100
AcDbEntity
  8
0
  6
Continuous
 62
     7
100
AcDbLine
 10
20.0
 20
5.0
 30
0.0
 11
20.0
 21
45.0
 31
0.0
  0
TEXT
  5
259
330
20E
100
AcDbEntity
  8
0
  6
Continuous
 62
     2
100
AcDbText
 10
172.3
 20
8.921807917999998
 30
0.0
 40
7.0
  1
PNPI
 41
0.6599999999999991
 51
12.0
  7
TEXTSTYLE_0
 72
     5
 11
187.7
 21
8.921807917999998
 31
0.0
100
AcDbText
  0
TEXT
  5
25A
330
20E
100
AcDbEntity
  8
0
  6
Continuous
 62
     2
100
AcDbText
 10
92.70000000000001
 20
13.921807918
 30
0.0
 40
7.0
  1
Spring screw
 41
0.7090909090909091
 51
12.0
  7
TEXTSTYLE_0
 72
     5
 11
147.3
 21
13.921807918
 31
0.0
100
AcDbText
  0
TEXT
  5
25B
330
20E
100
AcDbEntity
  8
0
  6
Continuous
 62
     2
100
AcDbText
 10
42.34
 20
5.8642550482
 30
0.0
 40
3.2
  1
Trounov
 41
0.5774999999999997
 51
12.0
  7
TEXTSTYLE_0
 72
     5
 11
54.66
 21
5.8642550482
 31
0.0
100
AcDbText
  0
TEXT
  5
25C
330
20E
100
AcDbEntity
  8
0
  6
Continuous
 62
     2
100
AcDbText
 10
21.076
 20
5.8642550482
 30
0.0
 40
3.2
  1
Approved
 41
0.6052173913043477
 51
12.0
  7
TEXTSTYLE_0
 72
     5
 11
35.924
 21
5.8642550482
 31
0.0
100
AcDbText
  0
TEXT
  5
25D
330
20E
100
AcDbEntity
  8
0
  6
Continuous
 62
     2
100
AcDbText
 10
193.95
 20
20.9664891077
 30
0.0
 40
3.0
  1
1
 41
2.100000000000022
 51
12.0
  7
TEXTSTYLE_0
 72
     5
 11
196.05
 21
20.9664891077
 31
0.0
100
AcDbText
  0
TEXT
  5
25E
330
20E
100
AcDbEntity
  8
0
  6
Continuous
 62
     2
100
AcDbText
 10
176.45
 20
20.9664891077
 30
0.0
 40
3.0
  1
 
 41
0.7000000000000077
 51
12.0
  7
TEXTSTYLE_0
 72
     5
 11
178.55
 21
20.9664891077
 31
0.0
100
AcDbText
  0
TEXT
  5
25F
330
20E
100
AcDbEntity
  8
0
  6
Continuous
 62
     2
100
AcDbText
 10
42.34
 20
20.8642550482
 30
0.0
 40
3.2
  1
Boulkin
 41
0.6999999999999995
 51
12.0
  7
TEXTSTYLE_0
 72
     5
 11
54.66
 21
20.8642550482
 31
0.0
100
AcDbText
  0
TEXT
  5
260
330
20E
100
AcDbEntity
  8
0
  6
Continuous
 62
     2
100
AcDbText
 10
22.004
 20
20.8642550482
 30
0.0
 40
3.2
  1
Checked
 41
0.6090000000000001
 51
12.0
  7
TEXTSTYLE_0
 72
     5
 11
34.996
 21
20.8642550482
 31
0.0
100
AcDbText
  0
TEXT
  5
261
330
20E
100
AcDbEntity
  8
0
  6
Continuous
 62
     2
100
AcDbText
 10
188.97
 20
25.7875795036
 30
0.0
 40
3.35
  1
Sheets
 41
0.6352941176470588
 51
12.0
  7
TEXTSTYLE_0
 72
     5
 11
201.03
 21
25.7875795036
 31
0.0
100
AcDbText
  0
TEXT
  5
262
330
20E
100
AcDbEntity
  8
0
  6
Continuous
 62
     2
100
AcDbText
 10
172.475
 20
25.7875795036
 30
0.0
 40
3.35
  1
Sheet
 41
0.6428571428571435
 51
12.0
  7
TEXTSTYLE_0
 72
     5
 11
182.525
 21
25.7875795036
 31
0.0
100
AcDbText
  0
TEXT
  5
263
330
20E
100
AcDbEntity
  8
0
  6
Continuous
 62
     2
100
AcDbText
 10
158.48
 20
25.7875795036
 30
0.0
 40
3.35
  1
Type
 41
0.654545454545456
 51
12.0
  7
TEXTSTYLE_0
 72
     5
 11
166.52
 21
25.7875795036
 31
0.0
100
AcDbText
  0
TEXT
  5
264
330
20E
100
AcDbEntity
  8
0
  6
Continuous
 62
     2
100
AcDbText
 10
75.59000000000001
 20
26.0687231672
 30
0.0
 40
2.799999999999999
  1
16.7.03
 41
0.651724137931034
 51
12.0
  7
TEXTSTYLE_0
 72
     5
 11
84.41
 21
26.0687231672
 31
0.0
100
AcDbText
  0
TEXT
  5
265
330
20E
100
AcDbEntity
  8
0
  6
Continuous
 62
     2
100
AcDbText
 10
39.7
 20
25.8642550482
 30
0.0
 40
3.2
  1
Schebetova
 41
0.568965517241379
 51
12.0
  7
TEXTSTYLE_0
 72
     5
 11
57.3
 21
25.8642550482
 31
0.0
100
AcDbText
  0
TEXT
  5
266
330
20E
100
AcDbEntity
  8
0
  6
Continuous
 62
     2
100
AcDbText
 10
21.076
 20
25.8642550482
 30
0.0
 40
3.2
  1
Designed
 41
0.6628571428571428
 51
12.0
  7
TEXTSTYLE_0
 72
     5
 11
35.924
 21
25.8642550482
 31
0.0
100
AcDbText
  0
TEXT
  5
267
330
20E
100
AcDbEntity
  8
0
  6
Continuous
 62
     2
100
AcDbText
 10
113.15
 20
33.921807918
 30
0.0
 40
7.0
  1
IPCS.05.210.00
 41
0.880645161290322
 51
12.0
  7
TEXTSTYLE_0
 72
     5
 11
176.85
 21
33.921807918
 31
0.0
100
AcDbText
  0
TEXT
  5
268
330
20E
100
AcDbEntity
  8
0
  6
Continuous
 62
     2
100
AcDbText
 10
76.288
 20
30.8642550482
 30
0.0
 40
3.2
  1
Date
 41
0.6327272727272734
 51
12.0
  7
TEXTSTYLE_0
 72
     5
 11
83.71199999999999
 21
30.8642550482
 31
0.0
100
AcDbText
  0
TEXT
  5
269
330
20E
100
AcDbEntity
  8
0
  6
Continuous
 62
     2
100
AcDbText
 10
60.71625
 20
30.7875795036
 30
0.0
 40
3.35
  1
Signature
 41
0.5062499999999997
 51
12.0
  7
TEXTSTYLE_0
 72
     5
 11
74.28374999999999
 21
30.7875795036
 31
0.0
100
AcDbText
  0
TEXT
  5
26A
330
20E
100
AcDbEntity
  8
0
  6
Continuous
 62
     2
100
AcDbText
 10
38.292
 20
30.8642550482
 30
0.0
 40
3.2
  1
N document.
 41
0.6379999999999996
 51
12.0
  7
TEXTSTYLE_0
 72
     5
 11
58.708
 21
30.8642550482
 31
0.0
100
AcDbText
  0
TEXT
  5
26B
330
20E
100
AcDbEntity
  8
0
  6
Continuous
 62
     2
100
AcDbText
 10
27.36
 20
30.8642550482
 30
0.0
 40
3.2
  1
Sheet
 41
0.6214285714285716
 51
12.0
  7
TEXTSTYLE_0
 72
     5
 11
36.64
 21
30.8642550482
 31
0.0
100
AcDbText
  0
TEXT
  5
26C
330
20E
100
AcDbEntity
  8
0
  6
Continuous
 62
     2
100
AcDbText
 10
20.716
 20
30.8642550482
 30
0.0
 40
3.2
  1
Chg
 41
0.6524999999999998
 51
12.0
  7
TEXTSTYLE_0
 72
     5
 11
26.284
 21
30.8642550482
 31
0.0
100
AcDbText
  0
LINE
  5
26D
330
20E
100
AcDbEntity
  8
0
  6
Continuous
 62
     7
100
AcDbLine
 10
205.0
 20
292.0
 30
0.0
 11
20.0
 21
292.0
 31
0.0
  0
LINE
  5
26E
330
20E
100
AcDbEntity
  8
0
  6
Continuous
 62
     7
100
AcDbLine
 10
205.0
 20
292.0
 30
0.0
 11
205.0
 21
45.0
 31
0.0
  0
LINE
  5
26F
330
20E
100
AcDbEntity
  8
0
  6
Continuous
 62
     7
100
AcDbLine
 10
205.0
 20
277.0
 30
0.0
 11
20.0
 21
277.0
 31
0.0
  0
LINE
  5
270
330
20E
100
AcDbEntity
  8
0
  6
Continuous
 62
     7
100
AcDbLine
 10
205.0
 20
269.0
 30
0.0
 11
20.0
 21
269.0
 31
0.0
  0
LINE
  5
271
330
20E
100
AcDbEntity
  8
0
  6
Continuous
 62
     7
100
AcDbLine
 10
205.0
 20
261.0
 30
0.0
 11
20.0
 21
261.0
 31
0.0
  0
LINE
  5
272
330
20E
100
AcDbEntity
  8
0
  6
Continuous
 62
     7
100
AcDbLine
 10
205.0
 20
253.0
 30
0.0
 11
20.0
 21
253.0
 31
0.0
  0
LINE
  5
273
330
20E
100
AcDbEntity
  8
0
  6
Continuous
 62
     7
100
AcDbLine
 10
205.0
 20
245.0
 30
0.0
 11
20.0
 21
245.0
 31
0.0
  0
LINE
  5
274
330
20E
100
AcDbEntity
  8
0
  6
Continuous
 62
     7
100
AcDbLine
 10
205.0
 20
237.0
 30
0.0
 11
20.0
 21
237.0
 31
0.0
  0
LINE
  5
275
330
20E
100
AcDbEntity
  8
0
  6
Continuous
 62
     7
100
AcDbLine
 10
205.0
 20
229.0
 30
0.0
 11
20.0
 21
229.0
 31
0.0
  0
LINE
  5
276
330
20E
100
AcDbEntity
  8
0
  6
Continuous
 62
     7
100
AcDbLine
 10
205.0
 20
221.0
 30
0.0
 11
20.0
 21
221.0
 31
0.0
  0
LINE
  5
277
330
20E
100
AcDbEntity
  8
0
  6
Continuous
 62
     7
100
AcDbLine
 10
205.0
 20
213.0
 30
0.0
 11
20.0
 21
213.0
 31
0.0
  0
LINE
  5
278
330
20E
100
AcDbEntity
  8
0
  6
Continuous
 62
     7
100
AcDbLine
 10
205.0
 20
205.0
 30
0.0
 11
20.0
 21
205.0
 31
0.0
  0
LINE
  5
279
330
20E
100
AcDbEntity
  8
0
  6
Continuous
 62
     7
100
AcDbLine
 10
205.0
 20
197.0
 30
0.0
 11
20.0
 21
197.0
 31
0.0
  0
LINE
  5
27A
330
20E
100
AcDbEntity
  8
0
  6
Continuous
 62
     7
100
AcDbLine
 10
205.0
 20
189.0
 30
0.0
 11
20.0
 21
189.0
 31
0.0
  0
LINE
  5
27B
330
20E
100
AcDbEntity
  8
0
  6
Continuous
 62
     7
100
AcDbLine
 10
205.0
 20
181.0
 30
0.0
 11
20.0
 21
181.0
 31
0.0
  0
LINE
  5
27C
330
20E
100
AcDbEntity
  8
0
  6
Continuous
 62
     7
100
AcDbLine
 10
205.0
 20
173.0
 30
0.0
 11
20.0
 21
173.0
 31
0.0
  0
LINE
  5
27D
330
20E
100
AcDbEntity
  8
0
  6
Continuous
 62
     7
100
AcDbLine
 10
205.0
 20
165.0
 30
0.0
 11
20.0
 21
165.0
 31
0.0
  0
LINE
  5
27E
330
20E
100
AcDbEntity
  8
0
  6
Continuous
 62
     7
100
AcDbLine
 10
205.0
 20
157.0
 30
0.0
 11
20.0
 21
157.0
 31
0.0
  0
LINE
  5
27F
330
20E
100
AcDbEntity
  8
0
  6
Continuous
 62
     7
100
AcDbLine
 10
205.0
 20
149.0
 30
0.0
 11
20.0
 21
149.0
 31
0.0
  0
LINE
  5
280
330
20E
100
AcDbEntity
  8
0
  6
Continuous
 62
     7
100
AcDbLine
 10
205.0
 20
141.0
 30
0.0
 11
20.0
 21
141.0
 31
0.0
  0
LINE
  5
281
330
20E
100
AcDbEntity
  8
0
  6
Continuous
 62
     7
100
AcDbLine
 10
205.0
 20
133.0
 30
0.0
 11
20.0
 21
133.0
 31
0.0
  0
LINE
  5
282
330
20E
100
AcDbEntity
  8
0
  6
Continuous
 62
     7
100
AcDbLine
 10
205.0
 20
125.0
 30
0.0
 11
20.0
 21
125.0
 31
0.0
  0
LINE
  5
283
330
20E
100
AcDbEntity
  8
0
  6
Continuous
 62
     7
100
AcDbLine
 10
205.0
 20
117.0
 30
0.0
 11
20.0
 21
117.0
 31
0.0
  0
LINE
  5
284
330
20E
100
AcDbEntity
  8
0
  6
Continuous
 62
     7
100
AcDbLine
 10
205.0
 20
109.0
 30
0.0
 11
20.0
 21
109.0
 31
0.0
  0
LINE
  5
285
330
20E
100
AcDbEntity
  8
0
  6
Continuous
 62
     7
100
AcDbLine
 10
205.0
 20
101.0
 30
0.0
 11
20.0
 21
101.0
 31
0.0
  0
LINE
  5
286
330
20E
100
AcDbEntity
  8
0
  6
Continuous
 62
     7
100
AcDbLine
 10
205.0
 20
93.0
 30
0.0
 11
20.0
 21
93.0
 31
0.0
  0
LINE
  5
287
330
20E
100
AcDbEntity
  8
0
  6
Continuous
 62
     7
100
AcDbLine
 10
205.0
 20
85.0
 30
0.0
 11
20.0
 21
85.0
 31
0.0
  0
LINE
  5
288
330
20E
100
AcDbEntity
  8
0
  6
Continuous
 62
     7
100
AcDbLine
 10
205.0
 20
77.0
 30
0.0
 11
20.0
 21
77.0
 31
0.0
  0
LINE
  5
289
330
20E
100
AcDbEntity
  8
0
  6
Continuous
 62
     7
100
AcDbLine
 10
205.0
 20
69.0
 30
0.0
 11
20.0
 21
69.0
 31
0.0
  0
LINE
  5
28A
330
20E
100
AcDbEntity
  8
0
  6
Continuous
 62
     7
100
AcDbLine
 10
205.0
 20
61.0
 30
0.0
 11
20.0
 21
61.0
 31
0.0
  0
LINE
  5
28B
330
20E
100
AcDbEntity
  8
0
  6
Continuous
 62
     7
100
AcDbLine
 10
205.0
 20
53.0
 30
0.0
 11
20.0
 21
53.0
 31
0.0
  0
LINE
  5
28C
330
20E
100
AcDbEntity
  8
0
  6
Continuous
 62
     7
100
AcDbLine
 10
205.0
 20
45.0
 30
0.0
 11
20.0
 21
45.0
 31
0.0
  0
LINE
  5
28D
330
20E
100
AcDbEntity
  8
0
  6
Continuous
 62
     7
100
AcDbLine
 10
183.0
 20
292.0
 30
0.0
 11
183.0
 21
45.0
 31
0.0
  0
LINE
  5
28E
330
20E
100
AcDbEntity
  8
0
  6
Continuous
 62
     7
100
AcDbLine
 10
173.0
 20
292.0
 30
0.0
 11
173.0
 21
45.0
 31
0.0
  0
LINE
  5
28F
330
20E
100
AcDbEntity
  8
0
  6
Continuous
 62
     7
100
AcDbLine
 10
110.0
 20
292.0
 30
0.0
 11
110.0
 21
45.0
 31
0.0
  0
LINE
  5
290
330
20E
100
AcDbEntity
  8
0
  6
Continuous
 62
     7
100
AcDbLine
 10
40.0
 20
292.0
 30
0.0
 11
40.0
 21
45.0
 31
0.0
  0
LINE
  5
291
330
20E
100
AcDbEntity
  8
0
  6
Continuous
 62
     7
100
AcDbLine
 10
32.0
 20
292.0
 30
0.0
 11
32.0
 21
45.0
 31
0.0
  0
LINE
  5
292
330
20E
100
AcDbEntity
  8
0
  6
Continuous
 62
     7
100
AcDbLine
 10
26.0
 20
292.0
 30
0.0
 11
26.0
 21
45.0
 31
0.0
  0
LINE
  5
293
330
20E
100
AcDbEntity
  8
0
  6
Continuous
 62
     7
100
AcDbLine
 10
20.0
 20
292.0
 30
0.0
 11
20.0
 21
45.0
 31
0.0
  0
TEXT
  5
294
330
20E
100
AcDbEntity
  8
0
  6
Continuous
 62
     2
100
AcDbText
 10
188.0
 20
282.4553188103
 30
0.0
 40
4.0
  1
Note
 41
0.8181818181818183
 51
12.0
  7
TEXTSTYLE_0
 72
     5
 11
200.0
 21
282.4553188103
 31
0.0
100
AcDbText
  0
TEXT
  5
295
330
20E
100
AcDbEntity
  8
0
  6
Continuous
 62
     2
100
AcDbText
 10
173.5
 20
282.4553188103
 30
0.0
 40
4.0
  1
Qty
 41
0.8437499999999998
 51
12.0
  7
TEXTSTYLE_0
 72
     5
 11
182.5
 21
282.4553188103
 31
0.0
100
AcDbText
  0
TEXT
  5
296
330
20E
100
AcDbEntity
  8
0
  6
Continuous
 62
     2
100
AcDbText
 10
134.0
 20
281.9441485128
 30
0.0
 40
5.0
  1
Name
 41
0.8181818181818181
 51
12.0
  7
TEXTSTYLE_0
 72
     5
 11
149.0
 21
281.9441485128
 31
0.0
100
AcDbText
  0
TEXT
  5
297
330
20E
100
AcDbEntity
  8
0
  6
Continuous
 62
     2
100
AcDbText
 10
67.5
 20
281.9441485128
 30
0.0
 40
5.0
  1
Code
 41
0.8181818181818181
 51
12.0
  7
TEXTSTYLE_0
 72
     5
 11
82.5
 21
281.9441485128
 31
0.0
100
AcDbText
  0
TEXT
  5
298
330
20E
100
AcDbEntity
  8
0
  6
Continuous
 62
     2
100
AcDbText
 10
36.37114406150001
 20
279.95
 30
0.0
 40
3.5
  1
Pos.
 50
90.0
 41
0.8666666666666687
 51
12.0
  7
TEXTSTYLE_0
 72
     5
 11
36.37114406150001
 21
289.05
 31
0.0
100
AcDbText
  0
TEXT
  5
299
330
20E
100
AcDbEntity
  8
0
  6
Continuous
 62
     2
100
AcDbText
 10
30.3711440615
 20
279.95
 30
0.0
 40
3.5
  1
Zone
 50
90.0
 41
0.7090909090909109
 51
12.0
  7
TEXTSTYLE_0
 72
     5
 11
30.3711440615
 21
289.05
 31
0.0
100
AcDbText
  0
TEXT
  5
29A
330
20E
100
AcDbEntity
  8
0
  6
Continuous
 62
     2
100
AcDbText
 10
24.3711440615
 20
277.675
 30
0.0
 40
3.5
  1
Format
 50
90.0
 41
0.6882352941176459
 51
12.0
  7
TEXTSTYLE_0
 72
     5
 11
24.3711440615
 21
291.325
 31
0.0
100
AcDbText
  0
LINE
  5
29B
330
20E
100
AcDbEntity
  8
0
  6
Continuous
 62
     7
100
AcDbLine
 10
0.0
 20
0.0
 30
0.0
 11
210.0
 21
0.0
 31
0.0
  0
LINE
  5
29C
330
20E
100
AcDbEntity
  8
0
  6
Continuous
 62
     7
100
AcDbLine
 10
0.0
 20
0.0
 30
0.0
 11
0.0
 21
297.0
 31
0.0
  0
LINE
  5
29D
330
20E
100
AcDbEntity
  8
0
  6
Continuous
 62
     7
100
AcDbLine
 10
20.0
 20
5.0
 30
0.0
 11
20.0
 21
292.0
 31
0.0
  0
LINE
  5
29E
330
20E
100
AcDbEntity
  8
0
  6
Continuous
 62
     7
100
AcDbLine
 10
205.0
 20
292.0
 30
0.0
 11
205.0
 21
5.0
 31
0.0
  0
LINE
  5
29F
330
20E
100
AcDbEntity
  8
0
  6
Continuous
 62
     7
100
AcDbLine
 10
210.0
 20
0.0
 30
0.0
 11
210.0
 21
297.0
 31
0.0
  0
LINE
  5
2A0
330
20E
100
AcDbEntity
  8
0
  6
Continuous
 62
     7
100
AcDbLine
 10
20.0
 20
292.0
 30
0.0
 11
205.0
 21
292.0
 31
0.0
  0
LINE
  5
2A1
330
20E
100
AcDbEntity
  8
0
  6
Continuous
 62
     7
100
AcDbLine
 10
0.0
 20
297.0
 30
0.0
 11
210.0
 21
297.0
 31
0.0
  0
ENDSEC
  0
SECTION
  2
OBJECTS
  0
DICTIONARY
  5
2A2
330
0
100
AcDbDictionary
281
     1
  3
ACAD_COLOR
350
2BD
  3
ACAD_GROUP
350
2A3
  3
ACAD_LAYOUT
350
2C2
  3
ACAD_MATERIAL
350
2A8
  3
ACAD_MLINESTYLE
350
2A4
  3
ACAD_PLOTSETTINGS
350
2C1
  3
ACAD_PLOTSTYLENAME
350
2A6
  3
ACAD_TABLESTYLE
350
2BE
  3
ACAD_VISUALSTYLE
350
2AC
  3
AcDbVariableDictionary
350
2C6
  0
DICTIONARY
  5
2BD
102
{ACAD_REACTORS
330
2A2
102
}
330
2A2
100
AcDbDictionary
281
     1
  0
DICTIONARY
  5
2A3
102
{ACAD_REACTORS
330
2A2
102
}
330
2A2
100
AcDbDictionary
281
     1
  0
DICTIONARY
  5
2C2
102
{ACAD_REACTORS
330
2A2
102
}
330
2A2
100
AcDbDictionary
281
     1
  3
Layout1
350
2C4
  3
Model
350
2C3
  0
DICTIONARY
  5
2A8
102
{ACAD_REACTORS
330
2A2
102
}
330
2A2
100
AcDbDictionary
281
     1
  3
ByBlock
350
2AA
  3
ByLayer
350
2A9
  3
Global
350
2AB
  0
DICTIONARY
  5
2A4
102
{ACAD_REACTORS
330
2A2
102
}
330
2A2
100
AcDbDictionary
281
     1
  3
STANDARD
350
2A5
  0
DICTIONARY
  5
2C1
102
{ACAD_REACTORS
330
2A2
102
}
330
2A2
100
AcDbDictionary
281
     1
  0
ACDBDICTIONARYWDFLT
  5
2A6
102
{ACAD_REACTORS
330
2A2
102
}
330
2A2
100
AcDbDictionary
281
     1
  3
Normal
350
2A7
100
AcDbDictionaryWithDefault
340
2A7
  0
DICTIONARY
  5
2BE
102
{ACAD_REACTORS
330
2A2
102
}
330
2A2
100
AcDbDictionary
281
     1
  3
Standard
350
2BF
  0
DICTIONARY
  5
2AC
102
{ACAD_REACTORS
330
2A2
102
}
330
2A2
100
AcDbDictionary
281
     1
  3
2dWireframe
350
2B2
  3
3D Hidden
350
2B4
  3
3dWireframe
350
2B3
  3
Basic
350
2B1
  3
Brighten
350
2B8
  3
ColorChange
350
2BC
  3
Conceptual
350
2B5
  3
Dim
350
2B7
  3
Facepattern
350
2BB
  3
Flat
350
2AD
  3
FlatWithEdges
350
2AE
  3
Gouraud
350
2AF
  3
GouraudWithEdges
350
2B0
  3
Linepattern
350
2BA
  3
Realistic
350
2B6
  3
Thicken
350
2B9
  0
DICTIONARY
  5
2C6
102
{ACAD_REACTORS
330
2A2
102
}
330
2A2
100
AcDbDictionary
281
     1
  3
CTABLESTYLE
350
2C7
  0
LAYOUT
  5
2C4
102
{ACAD_REACTORS
330
2C2
102
}
330
2C2
100
AcDbPlotSettings
  1

  2
HP LaserJet 1100 (MS)
  4

  6

 40
0.0
 41
0.0
 42
0.0
 43
0.0
 44
0.0
 45
0.0
 46
0.0
 47
0.0
 48
0.0
 49
0.0
140
0.0
141
0.0
142
1.0
143
1.0
 70
   688
 72
     0
 73
     0
 74
     5
  7

 75
    16
147
1.0
 76
     0
 77
     2
 78
   300
148
0.0
149
0.0
100
AcDbLayout
  1
Layout1
 70
     1
 71
     1
 10
0.0
 20
0.0
 11
12.0
 21
9.0
 12
0.0
 22
0.0
 32
0.0
 14
1.000000000000000E+20
 24
1.000000000000000E+20
 34
1.000000000000000E+20
 15
-1.000000000000000E+20
 25
-1.000000000000000E+20
 35
-1.000000000000000E+20
146
0.0
 13
0.0
 23
0.0
 33
0.0
 16
1.0
 26
0.0
 36
0.0
 17
0.0
 27
1.0
 37
0.0
 76
     0
330
20F
  0
LAYOUT
  5
2C3
102
{ACAD_REACTORS
330
2C2
102
}
330
2C2
100
AcDbPlotSettings
  1

  2
HP LaserJet 1100 (MS)
  4

  6

 40
0.0
 41
0.0
 42
0.0
 43
0.0
 44
0.0
 45
0.0
 46
0.0
 47
0.0
 48
0.0
 49
0.0
140
0.0
141
0.0
142
1.0
143
1.0
 70
  1712
 72
     0
 73
     0
 74
     0
  7

 75
     0
147
1.0
 76
     0
 77
     2
 78
   300
148
0.0
149
0.0
100
AcDbLayout
  1
Model
 70
     1
 71
     0
 10
0.0
 20
0.0
 11
12.0
 21
9.0
 12
0.0
 22
0.0
 32
0.0
 14
0.0
 24
0.0
 34
0.0
 15
0.0
 25
0.0
 35
0.0
146
0.0
 13
0.0
 23
0.0
 33
0.0
 16
1.0
 26
0.0
 36
0.0
 17
0.0
 27
1.0
 37
0.0
 76
     0
330
20E
331
1F5
  0
MATERIAL
  5
2AA
102
{ACAD_REACTORS
330
2A8
102
}
330
2A8
100
AcDbMaterial
  1
ByBlock
  0
MATERIAL
  5
2A9
102
{ACAD_REACTORS
330
2A8
102
}
330
2A8
100
AcDbMaterial
  1
ByLayer
  0
MATERIAL
  5
2AB
102
{ACAD_REACTORS
330
2A8
102
}
330
2A8
100
AcDbMaterial
  1
Global
  0
MLINESTYLE
  5
2A5
102
{ACAD_REACTORS
330
2A4
102
}
330
2A4
100
AcDbMlineStyle
  2
STANDARD
 70
     0
  3

 62
   256
 51
90.0
 52
90.0
 71
     2
 49
0.5
 62
   256
  6
BYLAYER
 49
-0.5
 62
   256
  6
BYLAYER
  0
ACDBPLACEHOLDER
  5
2A7
102
{ACAD_REACTORS
330
2A6
102
}
330
2A6
  0
TABLESTYLE
  5
2BF
102
{ACAD_REACTORS
330
2BE
102
}
330
2BE
100
AcDbTableStyle
  3
Standard
 70
     0
 71
     0
 40
0.06
 41
0.06
280
     0
281
     0
  7
STANDARD
140
0.18
170
     2
 62
     0
 63
     7
283
     0
 90
      512
 91
        0
  1

274
    -2
284
     1
 64
     0
275
    -2
285
     1
 65
     0
276
    -2
286
     1
 66
     0
277
    -2
287
     1
 67
     0
278
    -2
288
     1
 68
     0
279
    -2
289
     1
 69
     0
  7
STANDARD
140
0.25
170
     5
 62
     0
 63
     7
283
     0
 90
      512
 91
        0
  1

274
    -2
284
     1
 64
     0
275
    -2
285
     1
 65
     0
276
    -2
286
     1
 66
     0
277
    -2
287
     1
 67
     0
278
    -2
288
     1
 68
     0
279
    -2
289
     1
 69
     0
  7
STANDARD
140
0.18
170
     5
 62
     0
 63
     7
283
     0
 90
      512
 91
        0
  1

274
    -2
284
     1
 64
     0
275
    -2
285
     1
 65
     0
276
    -2
286
     1
 66
     0
277
    -2
287
     1
 67
     0
278
    -2
288
     1
 68
     0
279
    -2
289
     1
 69
     0
  0
VISUALSTYLE
  5
2B2
102
{ACAD_REACTORS
330
2AC
102
}
330
2AC
100
AcDbVisualStyle
  2
2dWireframe
 70
     4
 71
     0
 72
     2
 73
     0
 90
        0
 40
-0.6
 41
-30.0
 62
     5
 63
     7
421
 16777215
 74
     1
 91
        4
 64
     7
 65
   257
 75
     1
175
     1
 42
1.0
 92
        0
 66
   257
 43
1.0
 76
     1
 77
     6
 78
     2
 67
     7
 79
     5
170
     0
171
     0
290
     0
174
     0
 93
        1
 44
0.0
173
     0
291
     0
 45
0.0
  0
VISUALSTYLE
  5
2B4
102
{ACAD_REACTORS
330
2AC
102
}
330
2AC
100
AcDbVisualStyle
  2
3D Hidden
 70
     6
 71
     1
 72
     2
 73
     2
 90
        0
 40
-0.6
 41
-30.0
 62
     5
 63
     7
421
 16777215
 74
     2
 91
        2
 64
     7
 65
   257
 75
     2
175
     1
 42
40.0
 92
        0
 66
   257
 43
1.0
 76
     1
 77
     6
 78
     2
 67
     7
 79
     3
170
     0
171
     0
290
     0
174
     0
 93
        1
 44
0.0
173
     0
291
     0
 45
0.0
  0
VISUALSTYLE
  5
2B3
102
{ACAD_REACTORS
330
2AC
102
}
330
2AC
100
AcDbVisualStyle
  2
3dWireframe
 70
     5
 71
     0
 72
     2
 73
     0
 90
        0
 40
-0.6
 41
-30.0
 62
     5
 63
     7
421
 16777215
 74
     1
 91
        4
 64
     7
 65
   257
 75
     1
175
     1
 42
1.0
 92
        0
 66
   257
 43
1.0
 76
     1
 77
     6
 78
     2
 67
     7
 79
     5
170
     0
171
     0
290
     0
174
     0
 93
        1
 44
0.0
173
     0
291
     0
 45
0.0
  0
VISUALSTYLE
  5
2B1
102
{ACAD_REACTORS
330
2AC
102
}
330
2AC
100
AcDbVisualStyle
  2
Basic
 70
     7
 71
     1
 72
     0
 73
     1
 90
        0
 40
-0.6
 41
-30.0
 62
     5
 63
     7
421
 16777215
 74
     0
 91
        4
 64
     7
 65
   257
 75
     1
175
     1
 42
1.0
 92
        8
 66
     7
 43
1.0
 76
     1
 77
     6
 78
     2
 67
     7
 79
     5
170
     0
171
     0
290
     0
174
     0
 93
        1
 44
0.0
173
     0
291
     1
 45
0.0
  0
VISUALSTYLE
  5
2B8
102
{ACAD_REACTORS
330
2AC
102
}
330
2AC
100
AcDbVisualStyle
  2
Brighten
 70
    12
 71
     2
 72
     2
 73
     0
 90
        0
 40
-0.6
 41
-30.0
 62
     5
 63
     7
421
 16777215
 74
     1
 91
        4
 64
     7
 65
   257
 75
     1
175
     1
 42
1.0
 92
        8
 66
     7
 43
1.0
 76
     1
 77
     6
 78
     2
 67
     7
 79
     5
170
     0
171
     0
290
     0
174
     0
 93
        1
 44
50.0
173
     0
291
     1
 45
0.0
  0
VISUALSTYLE
  5
2BC
102
{ACAD_REACTORS
330
2AC
102
}
330
2AC
100
AcDbVisualStyle
  2
ColorChange
 70
    16
 71
     2
 72
     2
 73
     3
 90
        0
 40
-0.6
 41
-30.0
 62
     5
 63
     8
421
  8421504
 74
     1
 91
        4
 64
     7
 65
   257
 75
     1
175
     1
 42
1.0
 92
        8
 66
     8
424
  8421504
 43
1.0
 76
     1
 77
     6
 78
     2
 67
     7
 79
     5
170
     0
171
     0
290
     0
174
     0
 93
        1
 44
0.0
173
     0
291
     1
 45
0.0
  0
VISUALSTYLE
  5
2B5
102
{ACAD_REACTORS
330
2AC
102
}
330
2AC
100
AcDbVisualStyle
  2
Conceptual
 70
     9
 71
     3
 72
     2
 73
     0
 90
        0
 40
-0.6
 41
-30.0
 62
     5
 63
     7
421
 16777215
 74
     2
 91
        2
 64
     7
 65
   257
 75
     1
175
     1
 42
40.0
 92
        8
 66
     7
 43
1.0
 76
     1
 77
     6
 78
     2
 67
     7
 79
     3
170
     0
171
     0
290
     0
174
     0
 93
        1
 44
0.0
173
     0
291
     0
 45
0.0
  0
VISUALSTYLE
  5
2B7
102
{ACAD_REACTORS
330
2AC
102
}
330
2AC
100
AcDbVisualStyle
  2
Dim
 70
    11
 71
     2
 72
     2
 73
     0
 90
        0
 40
-0.6
 41
-30.0
 62
     5
 63
     7
421
 16777215
 74
     1
 91
        4
 64
     7
 65
   257
 75
     1
175
     1
 42
1.0
 92
        8
 66
     7
 43
1.0
 76
     1
 77
     6
 78
     2
 67
     7
 79
     5
170
     0
171
     0
290
     0
174
     0
 93
        1
 44
-50.0
173
     0
291
     1
 45
0.0
  0
VISUALSTYLE
  5
2BB
102
{ACAD_REACTORS
330
2AC
102
}
330
2AC
100
AcDbVisualStyle
  2
Facepattern
 70
    15
 71
     2
 72
     2
 73
     0
 90
        0
 40
-0.6
 41
-30.0
 62
     5
 63
     7
421
 16777215
 74
     1
 91
        4
 64
     7
 65
   257
 75
     1
175
     1
 42
1.0
 92
        8
 66
     7
 43
1.0
 76
     1
 77
     6
 78
     2
 67
     7
 79
     5
170
     0
171
     0
290
     0
174
     0
 93
        1
 44
0.0
173
     0
291
     1
 45
0.0
  0
VISUALSTYLE
  5
2AD
102
{ACAD_REACTORS
330
2AC
102
}
330
2AC
100
AcDbVisualStyle
  2
Flat
 70
     0
 71
     2
 72
     1
 73
     1
 90
        2
 40
-0.6
 41
30.0
 62
     5
 63
     7
421
 16777215
 74
     0
 91
        4
 64
     7
 65
   257
 75
     1
175
     1
 42
1.0
 92
        8
 66
     7
 43
1.0
 76
     1
 77
     6
 78
     2
 67
     7
 79
     5
170
     0
171
     0
290
     0
174
     0
 93
       13
 44
0.0
173
     0
291
     1
 45
0.0
  0
VISUALSTYLE
  5
2AE
102
{ACAD_REACTORS
330
2AC
102
}
330
2AC
100
AcDbVisualStyle
  2
FlatWithEdges
 70
     1
 71
     2
 72
     1
 73
     1
 90
        2
 40
-0.6
 41
30.0
 62
     5
 63
     7
421
 16777215
 74
     1
 91
        4
 64
     7
 65
   257
 75
     1
175
     1
 42
1.0
 92
        0
 66
   257
 43
1.0
 76
     1
 77
     6
 78
     2
 67
     7
 79
     5
170
     0
171
     0
290
     0
174
     0
 93
       13
 44
0.0
173
     0
291
     1
 45
0.0
  0
VISUALSTYLE
  5
2AF
102
{ACAD_REACTORS
330
2AC
102
}
330
2AC
100
AcDbVisualStyle
  2
Gouraud
 70
     2
 71
     2
 72
     2
 73
     1
 90
        2
 40
-0.6
 41
30.0
 62
     5
 63
     7
421
 16777215
 74
     0
 91
        4
 64
     7
 65
   257
 75
     1
175
     1
 42
1.0
 92
        0
 66
     7
 43
1.0
 76
     1
 77
     6
 78
     2
 67
     7
 79
     5
170
     0
171
     0
290
     0
174
     0
 93
       13
 44
0.0
173
     0
291
     1
 45
0.0
  0
VISUALSTYLE
  5
2B0
102
{ACAD_REACTORS
330
2AC
102
}
330
2AC
100
AcDbVisualStyle
  2
GouraudWithEdges
 70
     3
 71
     2
 72
     2
 73
     1
 90
        2
 40
-0.6
 41
30.0
 62
     5
 63
     7
421
 16777215
 74
     1
 91
        4
 64
     7
 65
   257
 75
     1
175
     1
 42
1.0
 92
        0
 66
   257
 43
1.0
 76
     1
 77
     6
 78
     2
 67
     7
 79
     5
170
     0
171
     0
290
     0
174
     0
 93
       13
 44
0.0
173
     0
291
     1
 45
0.0
  0
VISUALSTYLE
  5
2BA
102
{ACAD_REACTORS
330
2AC
102
}
330
2AC
100
AcDbVisualStyle
  2
Linepattern
 70
    14
 71
     2
 72
     2
 73
     0
 90
        0
 40
-0.6
 41
-30.0
 62
     5
 63
     7
421
 16777215
 74
     1
 91
        4
 64
     7
 65
   257
 75
     7
175
     7
 42
1.0
 92
        8
 66
     7
 43
1.0
 76
     1
 77
     6
 78
     2
 67
     7
 79
     5
170
     0
171
     0
290
     0
174
     0
 93
        1
 44
0.0
173
     0
291
     1
 45
0.0
  0
VISUALSTYLE
  5
2B6
102
{ACAD_REACTORS
330
2AC
102
}
330
2AC
100
AcDbVisualStyle
  2
Realistic
 70
     8
 71
     2
 72
     2
 73
     0
 90
        0
 40
-0.6
 41
-30.0
 62
     5
 63
     7
421
 16777215
 74
     1
 91
        0
 64
     7
 65
   257
 75
     1
175
     1
 42
1.0
 92
        8
 66
     8
424
  7895160
 43
1.0
 76
     1
 77
     6
 78
     2
 67
     7
 79
     5
170
     0
171
     0
290
     0
174
     0
 93
       13
 44
0.0
173
     0
291
     0
 45
0.0
  0
VISUALSTYLE
  5
2B9
102
{ACAD_REACTORS
330
2AC
102
}
330
2AC
100
AcDbVisualStyle
  2
Thicken
 70
    13
 71
     2
 72
     2
 73
     0
 90
        0
 40
-0.6
 41
-30.0
 62
     5
 63
     7
421
 16777215
 74
     1
 91
        4
 64
     7
 65
   257
 75
     1
175
     1
 42
1.0
 92
       12
 66
     7
 43
1.0
 76
     1
 77
     6
 78
     2
 67
     7
 79
     5
170
     0
171
     0
290
     0
174
     0
 93
        1
 44
0.0
173
     0
291
     1
 45
0.0
  0
DICTIONARYVAR
  5
2C7
102
{ACAD_REACTORS
330
2C6
102
}
330
2C6
100
DictionaryVariables
280
     0
  1
STANDARD
  0
ENDSEC
  0
EOF
