999
DXF file: e_05-210-02_kolco.dxf
999
Pro/ENGINEER 2001320 by Parametric Technology Corporation
0
SECTION
2
HEADER
9
$ACADVER
1
AC1014
9
$EXTMAX
10
210.0000000000
20
297.0000000000
9
$EXTMIN
10
0.0000000000
20
0.0000000000
9
$LIMMIN
10
0.0000000000
20
0.0000000000
9
$LIMMAX
10
210.0000000000
20
297.0000000000
9
$VIEWCTR
10
105.0000000000
20
148.5000000000
9
$VIEWSIZE
40
297.0000000000
9
$CLAYER
8
0
9
$LTSCALE
40
19.3600000000
9
$CELTYPE
6
BYLAYER
9
$DIMSCALE
40
1
9
$DIMASZ
40
3.0000000000
9
$DIMEXO
40
2.2000000000
9
$DIMDLI
40
13.3760000000
9
$DIMEXE
40
6.3360000000
9
$DIMCEN
40
3.1680000000
9
$DIMLFAC
40
1.0000000000
9
$DIMTXT
40
3.6000000000
9
$DIMTOL
70
1
9
$DIMTFAC
40
0.6000000000
9
$DIMTP
40
0.0100000000
9
$DIMTM
40
0.0100000000
0
ENDSEC
0
SECTION
2
CLASSES
0
ENDSEC
0
SECTION
2
TABLES
0
TABLE
2
VPORT
5
1F4
100
AcDbSymbolTable
70
2
0
VPORT
5
1F5
100
AcDbSymbolTableRecord
100
AcDbViewportTableRecord
2
*ACTIVE
70
0
10
0.0
20
0.0
11
1.0
21
1.0
12
105.0000000000
22
148.5000000000
13
0.0
23
0.0
14
1.0
24
1.0
15
0.0
25
0.0
16
0.0
26
0.0
36
1.0
17
0.0
27
0.0
37
0.0
40
297.0000000000
41
0.7070707071
42
50.0
43
0.0
44
0.0
50
0.0
51
0.0
71
0
72
100
73
1
74
1
75
0
76
0
77
0
78
0
0
ENDTAB
0
TABLE
2
LTYPE
5
1F6
100
AcDbSymbolTable
70
6
0
LTYPE
5
1F7
100
AcDbSymbolTableRecord
100
AcDbLinetypeTableRecord
2
BYBLOCK
70
0
3

72
65
73
0
40
0.0
0
LTYPE
5
1F8
100
AcDbSymbolTableRecord
100
AcDbLinetypeTableRecord
2
BYLAYER
70
0
3

72
65
73
0
40
0.0
0
LTYPE
5
1F9
100
AcDbSymbolTableRecord
100
AcDbLinetypeTableRecord
2
CONTINUOUS
70
64
3
Solid line
72
65
73
0
40
0
0
LTYPE
5
1FA
100
AcDbSymbolTableRecord
100
AcDbLinetypeTableRecord
2
CENTER
70
64
3
____ _ ____ _ ____ _ ____ _ ____ _ ____ _ ____
72
65
73
4
40
0.6
49
0.375
74
0
49
-0.075
74
0
49
0.075
74
0
49
-0.075
74
0
0
LTYPE
5
1FB
100
AcDbSymbolTableRecord
100
AcDbLinetypeTableRecord
2
HIDDEN
70
64
3
- - - - - - - - - - - - - - - - - - - -
72
65
73
2
40
0.2
49
0.1
74
0
49
-0.1
74
0
0
LTYPE
5
1FC
100
AcDbSymbolTableRecord
100
AcDbLinetypeTableRecord
2
PHANTOM
70
64
3
_____ _ _ _____ _ _ _____ _ _ _____
72
65
73
6
40
0.8
49
0.45
74
0
49
-0.05
74
0
49
0.1
74
0
49
-0.05
74
0
49
0.1
74
0
49
-0.05
74
0
0
LTYPE
5
1FD
100
AcDbSymbolTableRecord
100
AcDbLinetypeTableRecord
2
DOT
70
64
3
. . . . . . . . . . . . . . . . . . . .
72
65
73
2
40
0.2
49
0.1
74
0
49
-0.1
74
0
0
LTYPE
5
1FE
100
AcDbSymbolTableRecord
100
AcDbLinetypeTableRecord
2
DASHED
70
64
3
- - - - - - - - - - - - - - - - - - - -
72
65
73
2
40
0.2
49
0.1
74
0
49
-0.1
74
0
0
ENDTAB
0
TABLE
2
LAYER
5
1FF
100
AcDbSymbolTable
70
36
0
LAYER
5
200
100
AcDbSymbolTableRecord
100
AcDbLayerTableRecord
2
0
70
0
62
7
6
CONTINUOUS
0
LAYER
5
201
100
AcDbSymbolTableRecord
100
AcDbLayerTableRecord
2
DEFAULT_1
70
0
62
7
6
CENTER
0
LAYER
5
202
100
AcDbSymbolTableRecord
100
AcDbLayerTableRecord
2
DEFAULT_2
70
0
62
8
6
HIDDEN
0
LAYER
5
203
100
AcDbSymbolTableRecord
100
AcDbLayerTableRecord
2
DEFAULT_3
70
0
62
7
6
PHANTOM
0
ENDTAB
0
TABLE
2
STYLE
5
204
100
AcDbSymbolTable
70
1
0
STYLE
5
205
100
AcDbSymbolTableRecord
100
AcDbTextStyleTableRecord
2
STANDARD
70
0
40
0.0
41
1.0
50
0.0
71
0
42
0.0
3
txt
4

0
STYLE
5
206
100
AcDbSymbolTableRecord
100
AcDbTextStyleTableRecord
2
TEXTSTYLE_0
70
0
40
0.0
41
0.80
50
0.0
71
0
42
0.2
3
txt
4

0
ENDTAB
0
TABLE
2
VIEW
5
207
100
AcDbSymbolTable
70
0
0
ENDTAB
0
TABLE
2
UCS
5
208
100
AcDbSymbolTable
70
0
0
ENDTAB
0
TABLE
2
APPID
5
209
100
AcDbSymbolTable
70
1
0
APPID
5
20A
100
AcDbSymbolTableRecord
100
AcDbRegAppTableRecord
2
ACAD
70
0
0
ENDTAB
0
TABLE
2
DIMSTYLE
5
20B
100
AcDbSymbolTable
70
1
0
DIMSTYLE
105
20C
100
AcDbSymbolTableRecord
100
AcDbDimStyleTableRecord
2
STANDARD
70
0
3

4

5

6

7

40
1.0
41
0.18
42
0.0625
43
0.38
44
0.18
45
0.0
46
0.0
47
0.0100000000
48
0.0100000000
140
3.6000000000
141
0.09
142
0.0
143
25.4
144
1.0000000000
145
0.0
146
0.6000000000
147
0.09
71
1
72
0
73
1
74
1
75
0
76
0
77
0
78
0
170
0
171
2
172
0
173
0
174
0
175
0
176
0
177
0
178
0
270
2
271
2
272
4
273
2
274
2
340
205
275
0
280
0
281
0
282
0
283
1
284
0
285
0
286
0
287
3
288
0
0
DIMSTYLE
105
20D
100
AcDbSymbolTableRecord
100
AcDbDimStyleTableRecord
2
DIMSTYLE_1
70
0
3

4

5

6

7

40
1.0
41
0.18
42
0.0625
43
0.38
44
0.18
45
0.0
46
0.0
47
0.2000000000
48
0.2000000000
140
3.6000000000
141
0.09
142
0.0
143
25.4
144
0.1000000000
145
0.0
146
0.0000000000
147
0.09
71
0
72
0
73
1
74
1
75
0
76
0
77
0
78
0
170
0
171
2
172
0
173
0
174
0
175
0
176
0
177
0
178
0
270
2
271
2
272
4
273
2
274
2
340
205
275
0
280
0
281
0
282
0
283
1
284
0
285
0
286
0
287
3
288
0
0
DIMSTYLE
105
20E
100
AcDbSymbolTableRecord
100
AcDbDimStyleTableRecord
2
DIMSTYLE_2
70
0
3

4

5

6

7

40
1.0
41
0.18
42
0.0625
43
0.38
44
0.18
45
0.0
46
0.0
47
0.1000000000
48
0.1000000000
140
3.6000000000
141
0.09
142
0.0
143
25.4
144
0.1000000000
145
0.0
146
0.0000000000
147
0.09
71
0
72
0
73
1
74
1
75
0
76
0
77
0
78
0
170
0
171
2
172
0
173
0
174
0
175
0
176
0
177
0
178
0
270
2
271
2
272
4
273
2
274
2
340
205
275
0
280
0
281
0
282
0
283
1
284
0
285
0
286
0
287
3
288
0
0
DIMSTYLE
105
20F
100
AcDbSymbolTableRecord
100
AcDbDimStyleTableRecord
2
DIMSTYLE_3
70
0
3

4

5

6

7

40
1.0
41
0.18
42
0.0625
43
0.38
44
0.18
45
0.0
46
0.0
47
0.2000000000
48
0.2000000000
140
3.6000000000
141
0.09
142
0.0
143
25.4
144
0.1000000000
145
0.0
146
0.0000000000
147
0.09
71
0
72
0
73
1
74
1
75
0
76
0
77
0
78
0
170
0
171
2
172
0
173
0
174
0
175
0
176
0
177
0
178
0
270
2
271
1
272
4
273
2
274
2
340
205
275
0
280
0
281
0
282
0
283
1
284
0
285
0
286
0
287
3
288
0
0
DIMSTYLE
105
210
100
AcDbSymbolTableRecord
100
AcDbDimStyleTableRecord
2
DIMSTYLE_4
70
0
3

4

5

6

7

40
1.0
41
0.18
42
0.0625
43
0.38
44
0.18
45
0.0
46
0.0
47
0.1000000000
48
0.1000000000
140
3.6000000000
141
0.09
142
0.0
143
25.4
144
0.1000000000
145
0.0
146
0.0000000000
147
0.09
71
0
72
0
73
1
74
1
75
0
76
0
77
0
78
0
170
0
171
2
172
0
173
0
174
0
175
0
176
0
177
0
178
0
270
2
271
1
272
4
273
2
274
2
340
205
275
0
280
0
281
0
282
0
283
1
284
0
285
0
286
0
287
3
288
0
0
DIMSTYLE
105
211
100
AcDbSymbolTableRecord
100
AcDbDimStyleTableRecord
2
DIMSTYLE_5
70
0
3

4

5

6

7

40
1.0
41
0.18
42
0.0625
43
0.38
44
0.18
45
0.0
46
0.0
47
0.5000000000
48
0.5000000000
140
3.6000000000
141
0.09
142
0.0
143
25.4
144
0.1000000000
145
0.0
146
0.0000000000
147
0.09
71
0
72
0
73
1
74
1
75
0
76
0
77
0
78
0
170
0
171
2
172
0
173
0
174
0
175
0
176
0
177
0
178
0
270
2
271
1
272
4
273
2
274
2
340
205
275
0
280
0
281
0
282
0
283
1
284
0
285
0
286
0
287
3
288
0
0
ENDTAB
0
TABLE
2
BLOCK_RECORD
5
212
100
AcDbSymbolTable
70
0
0
BLOCK_RECORD
5
213
100
AcDbSymbolTableRecord
100
AcDbBlockTableRecord
2
*MODEL_SPACE
0
BLOCK_RECORD
5
214
100
AcDbSymbolTableRecord
100
AcDbBlockTableRecord
2
*PAPER_SPACE
0
BLOCK_RECORD
5
215
100
AcDbSymbolTableRecord
100
AcDbBlockTableRecord
2
*D0
0
BLOCK_RECORD
5
216
100
AcDbSymbolTableRecord
100
AcDbBlockTableRecord
2
*D1
0
BLOCK_RECORD
5
217
100
AcDbSymbolTableRecord
100
AcDbBlockTableRecord
2
*D2
0
BLOCK_RECORD
5
218
100
AcDbSymbolTableRecord
100
AcDbBlockTableRecord
2
*D3
0
BLOCK_RECORD
5
219
100
AcDbSymbolTableRecord
100
AcDbBlockTableRecord
2
*D4
0
BLOCK_RECORD
5
21A
100
AcDbSymbolTableRecord
100
AcDbBlockTableRecord
2
*D5
0
BLOCK_RECORD
5
21B
100
AcDbSymbolTableRecord
100
AcDbBlockTableRecord
2
*D6
0
BLOCK_RECORD
5
21C
100
AcDbSymbolTableRecord
100
AcDbBlockTableRecord
2
*D7
0
BLOCK_RECORD
5
21D
100
AcDbSymbolTableRecord
100
AcDbBlockTableRecord
2
UGOL_BL0
0
BLOCK_RECORD
5
21E
100
AcDbSymbolTableRecord
100
AcDbBlockTableRecord
2
STANDARD_BL1
0
ENDTAB
0
ENDSEC
0
SECTION
2
BLOCKS
0
BLOCK
5
21F
100
AcDbEntity
8
0
100
AcDbBlockBegin
2
*MODEL_SPACE
70
0
10
0.0000000000
20
0.0000000000
3
*MODEL_SPACE
1

3
*MODEL_SPACE
1

0
ENDBLK
5
220
100
AcDbEntity
8
0
100
AcDbBlockEnd
0
BLOCK
5
221
100
AcDbEntity
8
0
100
AcDbBlockBegin
2
*PAPER_SPACE
70
0
10
0.0000000000
20
0.0000000000
3
*PAPER_SPACE
1

3
*PAPER_SPACE
1

0
ENDBLK
5
222
100
AcDbEntity
8
0
100
AcDbBlockEnd
0
BLOCK
5
223
100
AcDbEntity
8
0
100
AcDbBlockBegin
62
2
6
CONTINUOUS
2
*D0
70
65
10
0.0000000000
20
0.0000000000
3
*D0
1

0
TEXT
5
224
100
AcDbEntity
8
0
100
AcDbText
62
2
6
CONTINUOUS
10
142.7881617723
20
168.5318007432
7
TEXTSTYLE_0
40
3.6000000000
1
%%c
50
90.0000000000
51
12.0000000000
72
5
11
142.7881617723
21
173.3318007432
100
AcDbText
0
TEXT
5
225
100
AcDbEntity
8
0
100
AcDbText
62
2
6
CONTINUOUS
10
142.7881617723
20
173.3318007432
7
TEXTSTYLE_0
40
3.6000000000
1
8
50
90.0000000000
51
12.0000000000
72
5
11
142.7881617723
21
175.6718007432
100
AcDbText
0
LINE
5
226
100
AcDbEntity
8
0
100
AcDbLine
62
2
6
CONTINUOUS
10
131.6597383557
20
130.8622712984
11
145.7082683077
21
130.8622712984
0
LINE
5
227
100
AcDbEntity
8
0
100
AcDbLine
62
2
6
CONTINUOUS
10
143.7082683077
20
130.8622712984
11
143.7082683077
21
155.3323174213
0
LINE
5
228
100
AcDbEntity
8
0
100
AcDbLine
62
2
6
CONTINUOUS
10
143.7082683077
20
179.8023635442
11
143.7082683077
21
155.3323174213
0
SOLID
5
229
100
AcDbEntity
8
0
100
AcDbTrace
62
2
6
CONTINUOUS
10
143.2082683077
20
133.8622712984
11
143.7082683077
21
130.8622712984
12
144.2082683077
22
133.8622712984
13
144.2082683077
23
133.8622712984
0
ENDBLK
5
22A
100
AcDbEntity
8
0
100
AcDbBlockEnd
0
BLOCK
5
22B
100
AcDbEntity
8
0
100
AcDbBlockBegin
62
2
6
CONTINUOUS
2
*D1
70
65
10
0.0000000000
20
0.0000000000
3
*D1
1

0
TEXT
5
22C
100
AcDbEntity
8
0
100
AcDbText
62
2
6
CONTINUOUS
10
151.8473432041
20
164.1781684550
7
TEXTSTYLE_0
40
3.6000000000
1
%%c
50
90.0000000000
51
12.0000000000
72
5
11
151.8473432041
21
168.9781684550
100
AcDbText
0
TEXT
5
22D
100
AcDbEntity
8
0
100
AcDbText
62
2
6
CONTINUOUS
10
151.8473432041
20
168.9781684550
7
TEXTSTYLE_0
40
3.6000000000
1
12,5
50
90.0000000000
51
12.0000000000
72
5
11
151.8473432041
21
178.3381684550
100
AcDbText
0
LINE
5
22E
100
AcDbEntity
8
0
100
AcDbLine
62
2
6
CONTINUOUS
10
131.6597383557
20
108.3622712984
11
154.7674497394
21
108.3622712984
0
LINE
5
22F
100
AcDbEntity
8
0
100
AcDbLine
62
2
6
CONTINUOUS
10
131.6597383557
20
233.3622712984
11
154.7674497394
21
233.3622712984
0
LINE
5
230
100
AcDbEntity
8
0
100
AcDbLine
62
2
6
CONTINUOUS
10
152.7674497394
20
108.3622712984
11
152.7674497394
21
170.8622712984
0
LINE
5
231
100
AcDbEntity
8
0
100
AcDbLine
62
2
6
CONTINUOUS
10
152.7674497394
20
233.3622712984
11
152.7674497394
21
170.8622712984
0
SOLID
5
232
100
AcDbEntity
8
0
100
AcDbTrace
62
2
6
CONTINUOUS
10
152.2674497394
20
111.3622712984
11
152.7674497394
21
108.3622712984
12
153.2674497394
22
111.3622712984
13
153.2674497394
23
111.3622712984
0
SOLID
5
233
100
AcDbEntity
8
0
100
AcDbTrace
62
2
6
CONTINUOUS
10
153.2674497394
20
230.3622712984
11
152.7674497394
21
233.3622712984
12
152.2674497394
22
230.3622712984
13
152.2674497394
23
230.3622712984
0
ENDBLK
5
234
100
AcDbEntity
8
0
100
AcDbBlockEnd
0
BLOCK
5
235
100
AcDbEntity
8
0
100
AcDbBlockBegin
62
2
6
CONTINUOUS
2
*D2
70
65
10
0.0000000000
20
0.0000000000
3
*D2
1

0
TEXT
5
236
100
AcDbEntity
8
0
100
AcDbText
62
2
6
CONTINUOUS
10
110.2991885972
20
256.9929868454
7
TEXTSTYLE_0
40
3.6000000000
1
4
51
12.0000000000
72
5
11
112.6391885972
21
256.9929868454
100
AcDbText
0
LINE
5
237
100
AcDbEntity
8
0
100
AcDbLine
62
2
6
CONTINUOUS
10
91.6597383557
20
214.3263729135
11
91.6597383557
21
258.0728803100
0
LINE
5
238
100
AcDbEntity
8
0
100
AcDbLine
62
2
6
CONTINUOUS
10
131.6597383557
20
214.3263729135
11
131.6597383557
21
258.0728803100
0
LINE
5
239
100
AcDbEntity
8
0
100
AcDbLine
62
2
6
CONTINUOUS
10
91.6597383557
20
256.0728803100
11
111.6597383557
21
256.0728803100
0
LINE
5
23A
100
AcDbEntity
8
0
100
AcDbLine
62
2
6
CONTINUOUS
10
131.6597383557
20
256.0728803100
11
111.6597383557
21
256.0728803100
0
SOLID
5
23B
100
AcDbEntity
8
0
100
AcDbTrace
62
2
6
CONTINUOUS
10
94.6597383557
20
256.5728803100
11
91.6597383557
21
256.0728803100
12
94.6597383557
22
255.5728803100
13
94.6597383557
23
255.5728803100
0
SOLID
5
23C
100
AcDbEntity
8
0
100
AcDbTrace
62
2
6
CONTINUOUS
10
128.6597383557
20
255.5728803100
11
131.6597383557
21
256.0728803100
12
128.6597383557
22
256.5728803100
13
128.6597383557
23
256.5728803100
0
ENDBLK
5
23D
100
AcDbEntity
8
0
100
AcDbBlockEnd
0
BLOCK
5
23E
100
AcDbEntity
8
0
100
AcDbBlockBegin
62
2
6
CONTINUOUS
2
*D3
70
65
10
0.0000000000
20
0.0000000000
3
*D3
1

0
TEXT
5
23F
100
AcDbEntity
8
0
100
AcDbText
62
2
6
CONTINUOUS
10
100.1152996665
20
241.9982526996
7
TEXTSTYLE_0
40
3.6000000000
1
R
50
-62.1619526708
51
12.0000000000
72
5
11
101.2080186967
21
239.9290583827
100
AcDbText
0
TEXT
5
240
100
AcDbEntity
8
0
100
AcDbText
62
2
6
CONTINUOUS
10
101.2080186967
20
239.9290583827
7
TEXTSTYLE_0
40
3.6000000000
1
2
50
-62.1619526708
51
12.0000000000
72
5
11
102.3007377268
21
237.8598640657
100
AcDbText
0
LINE
5
241
100
AcDbEntity
8
0
100
AcDbLine
62
2
6
CONTINUOUS
10
104.8576459064
20
231.0476928106
11
99.3016760708
21
241.5685869214
0
SOLID
5
242
100
AcDbEntity
8
0
100
AcDbTrace
62
2
6
CONTINUOUS
10
103.0145885351
20
233.4670190652
11
104.8576459064
21
231.0476928106
12
103.8988596107
22
233.9339930097
13
103.8988596107
23
233.9339930097
0
ENDBLK
5
243
100
AcDbEntity
8
0
100
AcDbBlockEnd
0
BLOCK
5
244
100
AcDbEntity
8
0
100
AcDbBlockBegin
62
2
6
CONTINUOUS
2
*D4
70
65
10
0.0000000000
20
0.0000000000
3
*D4
1

0
TEXT
5
245
100
AcDbEntity
8
0
100
AcDbText
62
2
6
CONTINUOUS
10
66.0531671457
20
166.0437969096
7
TEXTSTYLE_0
40
3.6000000000
1
%%c
50
90.0000000000
51
12.0000000000
72
5
11
66.0531671457
21
170.8437969096
100
AcDbText
0
TEXT
5
246
100
AcDbEntity
8
0
100
AcDbText
62
2
6
CONTINUOUS
10
66.0531671457
20
170.8437969096
7
TEXTSTYLE_0
40
3.6000000000
1
8,7
50
90.0000000000
51
12.0000000000
72
5
11
66.0531671457
21
177.8637969096
100
AcDbText
0
LINE
5
247
100
AcDbEntity
8
0
100
AcDbLine
62
2
6
CONTINUOUS
10
91.6597383557
20
214.3263729135
11
64.9732736811
21
214.3263729135
0
LINE
5
248
100
AcDbEntity
8
0
100
AcDbLine
62
2
6
CONTINUOUS
10
91.6597383557
20
127.3981696832
11
64.9732736811
21
127.3981696832
0
LINE
5
249
100
AcDbEntity
8
0
100
AcDbLine
62
2
6
CONTINUOUS
10
66.9732736811
20
214.3263729135
11
66.9732736811
21
170.8622712984
0
LINE
5
24A
100
AcDbEntity
8
0
100
AcDbLine
62
2
6
CONTINUOUS
10
66.9732736811
20
127.3981696832
11
66.9732736811
21
170.8622712984
0
SOLID
5
24B
100
AcDbEntity
8
0
100
AcDbTrace
62
2
6
CONTINUOUS
10
67.4732736811
20
211.3263729135
11
66.9732736811
21
214.3263729135
12
66.4732736811
22
211.3263729135
13
66.4732736811
23
211.3263729135
0
SOLID
5
24C
100
AcDbEntity
8
0
100
AcDbTrace
62
2
6
CONTINUOUS
10
66.4732736811
20
130.3981696832
11
66.9732736811
21
127.3981696832
12
67.4732736811
22
130.3981696832
13
67.4732736811
23
130.3981696832
0
ENDBLK
5
24D
100
AcDbEntity
8
0
100
AcDbBlockEnd
0
BLOCK
5
24E
100
AcDbEntity
8
0
100
AcDbBlockBegin
62
2
6
CONTINUOUS
2
*D5
70
65
10
0.0000000000
20
0.0000000000
3
*D5
1

0
TEXT
5
24F
100
AcDbEntity
8
0
100
AcDbText
62
2
6
CONTINUOUS
10
83.8536391692
20
248.5275407620
7
TEXTSTYLE_0
40
3.6000000000
1
*
51
12.0000000000
72
5
11
86.1936391692
21
248.5275407620
100
AcDbText
0
TEXT
5
250
100
AcDbEntity
8
0
100
AcDbText
62
2
6
CONTINUOUS
10
76.8336391692
20
247.3811581897
7
TEXTSTYLE_0
40
3.6000000000
1
0,5
51
12.0000000000
72
5
11
83.8536391692
21
247.3811581897
100
AcDbText
0
LINE
5
251
100
AcDbEntity
8
0
100
AcDbLine
62
2
6
CONTINUOUS
10
91.6597383557
20
214.3263729135
11
91.6597383557
21
248.4610516543
0
LINE
5
252
100
AcDbEntity
8
0
100
AcDbLine
62
2
6
CONTINUOUS
10
96.8766167206
20
223.3622712984
11
96.8766167206
21
248.4610516543
0
LINE
5
253
100
AcDbEntity
8
0
100
AcDbLine
62
2
6
CONTINUOUS
10
91.6597383557
20
246.4610516543
11
76.8336391692
21
246.4610516543
0
LINE
5
254
100
AcDbEntity
8
0
100
AcDbLine
62
2
6
CONTINUOUS
10
76.8336391692
20
246.4610516543
11
94.2681775381
21
246.4610516543
0
LINE
5
255
100
AcDbEntity
8
0
100
AcDbLine
62
2
6
CONTINUOUS
10
96.8766167206
20
246.4610516543
11
99.8766167206
21
246.4610516543
0
LINE
5
256
100
AcDbEntity
8
0
100
AcDbLine
62
2
6
CONTINUOUS
10
99.8766167206
20
246.4610516543
11
94.2681775381
21
246.4610516543
0
SOLID
5
257
100
AcDbEntity
8
0
100
AcDbTrace
62
2
6
CONTINUOUS
10
88.6597383557
20
245.9610516543
11
91.6597383557
21
246.4610516543
12
88.6597383557
22
246.9610516543
13
88.6597383557
23
246.9610516543
0
SOLID
5
258
100
AcDbEntity
8
0
100
AcDbTrace
62
2
6
CONTINUOUS
10
99.8766167206
20
246.9610516543
11
96.8766167206
21
246.4610516543
12
99.8766167206
22
245.9610516543
13
99.8766167206
23
245.9610516543
0
ENDBLK
5
259
100
AcDbEntity
8
0
100
AcDbBlockEnd
0
BLOCK
5
25A
100
AcDbEntity
8
0
100
AcDbBlockBegin
62
2
6
CONTINUOUS
2
*D6
70
65
10
0.0000000000
20
0.0000000000
3
*D6
1

0
TEXT
5
25B
100
AcDbEntity
8
0
100
AcDbText
62
2
6
CONTINUOUS
10
119.3509855225
20
247.3811581897
7
TEXTSTYLE_0
40
3.6000000000
1
1,7
51
12.0000000000
72
5
11
126.3709855225
21
247.3811581897
100
AcDbText
0
LINE
5
25C
100
AcDbEntity
8
0
100
AcDbLine
62
2
6
CONTINUOUS
10
131.6597383557
20
233.3622712984
11
131.6597383557
21
248.4610516543
0
LINE
5
25D
100
AcDbEntity
8
0
100
AcDbLine
62
2
6
CONTINUOUS
10
114.1971247962
20
233.3622712984
11
114.1971247962
21
248.4610516543
0
LINE
5
25E
100
AcDbEntity
8
0
100
AcDbLine
62
2
6
CONTINUOUS
10
131.6597383557
20
246.4610516543
11
122.9284315760
21
246.4610516543
0
LINE
5
25F
100
AcDbEntity
8
0
100
AcDbLine
62
2
6
CONTINUOUS
10
114.1971247962
20
246.4610516543
11
122.9284315760
21
246.4610516543
0
SOLID
5
260
100
AcDbEntity
8
0
100
AcDbTrace
62
2
6
CONTINUOUS
10
128.6597383557
20
245.9610516543
11
131.6597383557
21
246.4610516543
12
128.6597383557
22
246.9610516543
13
128.6597383557
23
246.9610516543
0
SOLID
5
261
100
AcDbEntity
8
0
100
AcDbTrace
62
2
6
CONTINUOUS
10
117.1971247962
20
246.9610516543
11
114.1971247962
21
246.4610516543
12
117.1971247962
22
245.9610516543
13
117.1971247962
23
245.9610516543
0
ENDBLK
5
262
100
AcDbEntity
8
0
100
AcDbBlockEnd
0
BLOCK
5
263
100
AcDbEntity
8
0
100
AcDbBlockBegin
62
2
6
CONTINUOUS
2
*D7
70
65
10
0.0000000000
20
0.0000000000
3
*D7
1

0
TEXT
5
264
100
AcDbEntity
8
0
100
AcDbText
62
2
6
CONTINUOUS
10
80.9689444405
20
183.3885682725
7
TEXTSTYLE_0
40
3.6000000000
1
60%%d
50
-59.6745591719
51
12.0000000000
72
5
11
84.5437139263
21
177.2773144631
100
AcDbText
0
LINE
5
265
100
AcDbEntity
8
0
100
AcDbLine
62
2
6
CONTINUOUS
10
89.6597383557
20
170.8622712984
11
79.6424113408
21
170.8622712984
0
LINE
5
266
100
AcDbEntity
8
0
100
AcDbLine
62
2
6
CONTINUOUS
10
91.6597383557
20
214.3263729135
11
73.1040694644
21
182.1870116254
0
ARC
5
267
100
AcDbEntity
8
0
100
AcDbCircle
62
2
6
CONTINUOUS
10
66.5657275881
20
170.8622712984
40
15.0766837527
100
AcDbArc
50
0.0000000000
51
30.0000000000
0
ARC
5
268
100
AcDbEntity
8
0
100
AcDbCircle
62
2
6
CONTINUOUS
10
66.5657275881
20
170.8622712984
40
15.0766837527
100
AcDbArc
50
30.0000000000
51
60.0000000000
0
SOLID
5
269
100
AcDbEntity
8
0
100
AcDbTrace
62
2
6
CONTINUOUS
10
81.6424113408
20
170.8622712984
11
80.8469019737
21
173.7977720814
12
81.8419567881
22
173.8970994013
13
81.8419567881
23
173.8970994013
0
SOLID
5
26A
100
AcDbEntity
8
0
100
AcDbTrace
62
2
6
CONTINUOUS
10
74.1040694644
20
183.9190624330
11
76.8320804214
21
182.5744598081
12
76.2485330318
22
181.7623807207
13
76.2485330318
23
181.7623807207
0
ENDBLK
5
26B
100
AcDbEntity
8
0
100
AcDbBlockEnd
0
BLOCK
5
26C
100
AcDbEntity
8
0
100
AcDbBlockBegin
62
2
6
CONTINUOUS
2
UGOL_BL0
70
64
10
0.0000000000
20
0.0000000000
3
UGOL_BL0
1

0
TEXT
5
26D
100
AcDbEntity
8
0
100
AcDbText
62
2
6
CONTINUOUS
10
190.1081146600
20
275.7992353088
7
TEXTSTYLE_0
40
3.5000000000
1
 
72
5
11
192.3831146600
21
275.7992353088
100
AcDbText
0
TEXT
5
26E
100
AcDbEntity
8
0
100
AcDbText
62
2
6
CONTINUOUS
10
170.8375439988
20
279.0462614478
7
TEXTSTYLE_0
40
6.1600000000
1
Rz40
51
15.0000000000
72
5
11
186.8535439988
21
279.0462614478
100
AcDbText
0
TEXT
5
26F
100
AcDbEntity
8
0
100
AcDbText
62
2
6
CONTINUOUS
10
186.8527719894
20
269.3222635311
7
TEXTSTYLE_0
40
5.0000000000
1
( )
72
5
11
196.6027719894
21
269.3222635311
100
AcDbText
0
LINE
5
270
100
AcDbEntity
8
0
100
AcDbLine
62
2
6
CONTINUOUS
39
0.5681818182
10
188.8618468094
20
274.4963577185
11
191.8812963412
21
269.2665177185
0
LINE
5
271
100
AcDbEntity
8
0
100
AcDbLine
62
2
6
CONTINUOUS
39
0.5681818182
10
191.8812963412
20
269.2665177185
11
194.9007458730
21
274.4963577185
0
LINE
5
272
100
AcDbEntity
8
0
100
AcDbLine
62
2
6
CONTINUOUS
39
0.5681818182
10
194.9007458730
20
274.4963577185
11
197.9308648378
21
279.7446777185
0
LINE
5
273
100
AcDbEntity
8
0
100
AcDbLine
62
2
6
CONTINUOUS
39
0.5681818182
10
178.1610917198
20
277.4876158908
11
182.8110439988
21
269.4336622908
0
LINE
5
274
100
AcDbEntity
8
0
100
AcDbLine
62
2
6
CONTINUOUS
39
0.5681818182
10
182.8110439988
20
269.4336622908
11
187.4609962778
21
277.4876158908
0
LINE
5
275
100
AcDbEntity
8
0
100
AcDbLine
62
2
6
CONTINUOUS
39
0.5681818182
10
187.4609962778
20
277.4876158908
11
192.1273794836
21
285.5700286908
0
ENDBLK
5
276
100
AcDbEntity
8
0
100
AcDbBlockEnd
0
BLOCK
5
277
100
AcDbEntity
8
0
100
AcDbBlockBegin
62
2
6
CONTINUOUS
2
STANDARD_BL1
70
64
10
0.0000000000
20
0.0000000000
3
STANDARD_BL1
1

0
TEXT
5
278
100
AcDbEntity
8
0
100
AcDbText
62
2
6
CONTINUOUS
10
107.7075836812
20
136.4800240524
7
TEXTSTYLE_0
40
3.6000000000
1
1,6
51
15.0000000000
72
5
11
114.7275836812
21
136.4800240524
100
AcDbText
0
LINE
5
279
100
AcDbEntity
8
0
100
AcDbLine
62
2
6
CONTINUOUS
39
0.5681818182
10
109.6475791026
20
135.5691272984
11
112.3650836812
21
130.8622712984
0
LINE
5
27A
100
AcDbEntity
8
0
100
AcDbLine
62
2
6
CONTINUOUS
39
0.5681818182
10
112.3650836812
20
130.8622712984
11
115.0825882598
21
135.5691272984
0
LINE
5
27B
100
AcDbEntity
8
0
100
AcDbLine
62
2
6
CONTINUOUS
39
0.5681818182
10
115.0825882598
20
135.5691272984
11
117.8096953282
21
140.2926152984
0
ENDBLK
5
27C
100
AcDbEntity
8
0
100
AcDbBlockEnd
0
ENDSEC
0
SECTION
2
ENTITIES
0
DIMENSION
5
27D
100
AcDbEntity
8
0
100
AcDbDimension
62
2
6
CONTINUOUS
2
*D0
10
143.7082683077
20
179.8023635442
11
140.9881617723
21
172.1018007432
3
DIMSTYLE_1
100
AcDbAlignedDimension
13
131.6597383557
23
130.8622712984
14
142.7082683077
24
179.8023635442
50
90.000000
100
AcDbRotatedDimension
0
DIMENSION
5
27E
100
AcDbEntity
8
0
100
AcDbDimension
62
2
6
CONTINUOUS
2
*D1
10
152.7674497394
20
233.3622712984
11
150.0473432041
21
171.2581684550
3
DIMSTYLE_1
100
AcDbAlignedDimension
13
131.6597383557
23
108.3622712984
14
131.6597383557
24
233.3622712984
50
90.000000
100
AcDbRotatedDimension
0
DIMENSION
5
27F
100
AcDbEntity
8
0
100
AcDbDimension
62
2
6
CONTINUOUS
2
*D2
10
131.6597383557
20
256.0728803100
11
111.4691885972
21
258.7929868454
3
DIMSTYLE_2
100
AcDbAlignedDimension
13
91.6597383557
23
214.3263729135
14
131.6597383557
24
214.3263729135
100
AcDbRotatedDimension
0
DIMENSION
5
280
100
AcDbEntity
8
0
100
AcDbDimension
62
2
6
CONTINUOUS
2
*D3
10
114.1971247962
20
213.3622712984
11
102.7997066328
21
240.7696114828
70
4
3
DIMSTYLE_2
100
AcDbRadialDimension
15
104.8576459064
25
231.0476928106
0
DIMENSION
5
281
100
AcDbEntity
8
0
100
AcDbDimension
62
2
6
CONTINUOUS
2
*D4
10
66.9732736811
20
127.3981696832
11
64.2531671457
21
171.9537969096
3
DIMSTYLE_3
100
AcDbAlignedDimension
13
91.6597383557
23
214.3263729135
14
91.6597383557
24
127.3981696832
50
270.000000
100
AcDbRotatedDimension
0
DIMENSION
5
282
100
AcDbEntity
8
0
100
AcDbDimension
62
2
6
CONTINUOUS
2
*D5
10
96.8766167206
20
246.4610516543
11
81.5136391692
21
249.7543494759
3
DIMSTYLE_4
100
AcDbAlignedDimension
13
91.6597383557
23
214.3263729135
14
96.8766167206
24
223.3622712984
100
AcDbRotatedDimension
0
DIMENSION
5
283
100
AcDbEntity
8
0
100
AcDbDimension
62
2
6
CONTINUOUS
2
*D6
10
114.1971247962
20
246.4610516543
11
122.8609855225
21
249.1811581897
3
DIMSTYLE_4
100
AcDbAlignedDimension
13
131.6597383557
23
233.3622712984
14
114.1971247962
24
233.3622712984
50
180.000000
100
AcDbRotatedDimension
0
DIMENSION
5
284
100
AcDbEntity
8
0
100
AcDbDimension
62
2
6
CONTINUOUS
2
*D7
10
91.6597383557
20
214.3263729135
11
84.3100377790
21
181.2417810676
70
2
3
DIMSTYLE_5
100
AcDb2LineAngularDimension
13
89.6597383557
23
170.8622712984
14
79.6424113408
24
170.8622712984
15
73.1040694644
25
182.1870116254
16
79.6225187227
26
178.4006131747
0
LINE
5
285
100
AcDbEntity
8
0
100
AcDbLine
62
7
6
CONTINUOUS
10
90.0000000000
20
278.3498994289
11
20.0000000000
21
278.3498994289
0
LINE
5
286
100
AcDbEntity
8
0
100
AcDbLine
62
7
6
CONTINUOUS
10
90.0000000000
20
278.3498994289
11
90.0000000000
21
292.3498994289
0
LINE
5
287
100
AcDbEntity
8
0
100
AcDbLine
62
7
6
CONTINUOUS
10
90.0000000000
20
292.3498994289
11
20.0000000000
21
292.3498994289
0
LINE
5
288
100
AcDbEntity
8
0
100
AcDbLine
62
7
6
CONTINUOUS
10
20.0000000000
20
278.3498994289
11
20.0000000000
21
292.3498994289
0
TEXT
5
289
100
AcDbEntity
8
0
100
AcDbText
62
2
6
CONTINUOUS
10
79.5000000000
20
288.9280915109
7
TEXTSTYLE_0
40
7.0000000000
1
IPCS.05.210.02
50
180.0000000000
51
12.0000000000
72
5
11
30.5000000000
21
288.9280915109
100
AcDbText
0
LINE
5
28A
100
AcDbEntity
8
0
100
AcDbLine
62
7
6
CONTINUOUS
10
205.0000000000
20
5.0000000000
11
20.0000000000
21
5.0000000000
0
LINE
5
28B
100
AcDbEntity
8
0
100
AcDbLine
62
7
6
CONTINUOUS
10
205.0000000000
20
5.0000000000
11
205.0000000000
21
60.0000000000
0
LINE
5
28C
100
AcDbEntity
8
0
100
AcDbLine
62
7
6
CONTINUOUS
10
85.0000000000
20
10.0000000000
11
20.0000000000
21
10.0000000000
0
LINE
5
28D
100
AcDbEntity
8
0
100
AcDbLine
62
7
6
CONTINUOUS
10
155.0000000000
20
12.5000000000
11
105.0000000000
21
12.5000000000
0
LINE
5
28E
100
AcDbEntity
8
0
100
AcDbLine
62
7
6
CONTINUOUS
10
85.0000000000
20
15.0000000000
11
20.0000000000
21
15.0000000000
0
LINE
5
28F
100
AcDbEntity
8
0
100
AcDbLine
62
7
6
CONTINUOUS
10
205.0000000000
20
20.0000000000
11
20.0000000000
21
20.0000000000
0
LINE
5
290
100
AcDbEntity
8
0
100
AcDbLine
62
7
6
CONTINUOUS
10
205.0000000000
20
25.0000000000
11
155.0000000000
21
25.0000000000
0
LINE
5
291
100
AcDbEntity
8
0
100
AcDbLine
62
7
6
CONTINUOUS
10
85.0000000000
20
25.0000000000
11
20.0000000000
21
25.0000000000
0
LINE
5
292
100
AcDbEntity
8
0
100
AcDbLine
62
7
6
CONTINUOUS
10
85.0000000000
20
30.0000000000
11
20.0000000000
21
30.0000000000
0
LINE
5
293
100
AcDbEntity
8
0
100
AcDbLine
62
7
6
CONTINUOUS
10
85.0000000000
20
35.0000000000
11
20.0000000000
21
35.0000000000
0
LINE
5
294
100
AcDbEntity
8
0
100
AcDbLine
62
7
6
CONTINUOUS
10
205.0000000000
20
40.0000000000
11
155.0000000000
21
40.0000000000
0
LINE
5
295
100
AcDbEntity
8
0
100
AcDbLine
62
7
6
CONTINUOUS
10
85.0000000000
20
40.0000000000
11
20.0000000000
21
40.0000000000
0
LINE
5
296
100
AcDbEntity
8
0
100
AcDbLine
62
7
6
CONTINUOUS
10
205.0000000000
20
45.0000000000
11
20.0000000000
21
45.0000000000
0
LINE
5
297
100
AcDbEntity
8
0
100
AcDbLine
62
7
6
CONTINUOUS
10
85.0000000000
20
50.0000000000
11
20.0000000000
21
50.0000000000
0
LINE
5
298
100
AcDbEntity
8
0
100
AcDbLine
62
7
6
CONTINUOUS
10
85.0000000000
20
55.0000000000
11
20.0000000000
21
55.0000000000
0
LINE
5
299
100
AcDbEntity
8
0
100
AcDbLine
62
7
6
CONTINUOUS
10
205.0000000000
20
60.0000000000
11
20.0000000000
21
60.0000000000
0
LINE
5
29A
100
AcDbEntity
8
0
100
AcDbLine
62
7
6
CONTINUOUS
10
187.0000000000
20
25.0000000000
11
187.0000000000
21
45.0000000000
0
LINE
5
29B
100
AcDbEntity
8
0
100
AcDbLine
62
7
6
CONTINUOUS
10
175.0000000000
20
20.0000000000
11
175.0000000000
21
25.0000000000
0
LINE
5
29C
100
AcDbEntity
8
0
100
AcDbLine
62
7
6
CONTINUOUS
10
170.0000000000
20
25.0000000000
11
170.0000000000
21
45.0000000000
0
LINE
5
29D
100
AcDbEntity
8
0
100
AcDbLine
62
7
6
CONTINUOUS
10
165.0000000000
20
25.0000000000
11
165.0000000000
21
40.0000000000
0
LINE
5
29E
100
AcDbEntity
8
0
100
AcDbLine
62
7
6
CONTINUOUS
10
160.0000000000
20
25.0000000000
11
160.0000000000
21
40.0000000000
0
LINE
5
29F
100
AcDbEntity
8
0
100
AcDbLine
62
7
6
CONTINUOUS
10
155.0000000000
20
5.0000000000
11
155.0000000000
21
45.0000000000
0
LINE
5
2A0
100
AcDbEntity
8
0
100
AcDbLine
62
7
6
CONTINUOUS
10
85.0000000000
20
5.0000000000
11
85.0000000000
21
60.0000000000
0
LINE
5
2A1
100
AcDbEntity
8
0
100
AcDbLine
62
7
6
CONTINUOUS
10
75.0000000000
20
5.0000000000
11
75.0000000000
21
60.0000000000
0
LINE
5
2A2
100
AcDbEntity
8
0
100
AcDbLine
62
7
6
CONTINUOUS
10
60.0000000000
20
5.0000000000
11
60.0000000000
21
60.0000000000
0
LINE
5
2A3
100
AcDbEntity
8
0
100
AcDbLine
62
7
6
CONTINUOUS
10
37.0000000000
20
5.0000000000
11
37.0000000000
21
60.0000000000
0
LINE
5
2A4
100
AcDbEntity
8
0
100
AcDbLine
62
7
6
CONTINUOUS
10
27.0000000000
20
35.0000000000
11
27.0000000000
21
60.0000000000
0
LINE
5
2A5
100
AcDbEntity
8
0
100
AcDbLine
62
7
6
CONTINUOUS
10
20.0000000000
20
5.0000000000
11
20.0000000000
21
60.0000000000
0
TEXT
5
2A6
100
AcDbEntity
8
0
100
AcDbText
62
2
6
CONTINUOUS
10
172.3000000000
20
8.9218079180
7
TEXTSTYLE_0
40
7.0000000000
1
PNPI
51
12.0000000000
72
5
11
187.7000000000
21
8.9218079180
100
AcDbText
0
TEXT
5
2A7
100
AcDbEntity
8
0
100
AcDbText
62
2
6
CONTINUOUS
10
109.3000000000
20
6.3986166318
7
TEXTSTYLE_0
40
4.6000000000
1
45 GOST 1050-88
51
12.0000000000
72
5
11
150.7000000000
21
6.3986166318
100
AcDbText
0
TEXT
5
2A8
100
AcDbEntity
8
0
100
AcDbText
62
2
6
CONTINUOUS
10
86.7200000000
20
10.1486166318
7
TEXTSTYLE_0
40
4.6000000000
1
Rounds
51
12.0000000000
72
5
11
103.2800000000
21
10.1486166318
100
AcDbText
0
TEXT
5
2A9
100
AcDbEntity
8
0
100
AcDbText
62
2
6
CONTINUOUS
10
42.3400000000
20
5.8642550482
7
TEXTSTYLE_0
40
3.2000000000
1
Trounov
51
12.0000000000
72
5
11
54.6600000000
21
5.8642550482
100
AcDbText
0
TEXT
5
2AA
100
AcDbEntity
8
0
100
AcDbText
62
2
6
CONTINUOUS
10
21.0760000000
20
5.8642550482
7
TEXTSTYLE_0
40
3.2000000000
1
Approved
51
12.0000000000
72
5
11
35.9240000000
21
5.8642550482
100
AcDbText
0
TEXT
5
2AB
100
AcDbEntity
8
0
100
AcDbText
62
2
6
CONTINUOUS
10
109.3000000000
20
13.8986166318
7
TEXTSTYLE_0
40
4.6000000000
1
15 GOST 2590-88
51
12.0000000000
72
5
11
150.7000000000
21
13.8986166318
100
AcDbText
0
TEXT
5
2AC
100
AcDbEntity
8
0
100
AcDbText
62
2
6
CONTINUOUS
10
181.9600000000
20
20.7875795036
7
TEXTSTYLE_0
40
3.3500000000
1
Sheets 1
51
12.0000000000
72
5
11
198.0400000000
21
20.7875795036
100
AcDbText
0
TEXT
5
2AD
100
AcDbEntity
8
0
100
AcDbText
62
2
6
CONTINUOUS
10
159.9750000000
20
20.7875795036
7
TEXTSTYLE_0
40
3.3500000000
1
Sheet
51
12.0000000000
72
5
11
170.0250000000
21
20.7875795036
100
AcDbText
0
TEXT
5
2AE
100
AcDbEntity
8
0
100
AcDbText
62
2
6
CONTINUOUS
10
112.8000000000
20
29.4329782154
7
TEXTSTYLE_0
40
6.0000000000
1
Ring
51
12.0000000000
72
5
11
127.2000000000
21
29.4329782154
100
AcDbText
0
TEXT
5
2AF
100
AcDbEntity
8
0
100
AcDbText
62
2
6
CONTINUOUS
10
187.6000000000
20
28.9218079180
7
TEXTSTYLE_0
40
7.0000000000
1
10:1
51
12.0000000000
72
5
11
204.4000000000
21
28.9218079180
100
AcDbText
0
TEXT
5
2B0
100
AcDbEntity
8
0
100
AcDbText
62
2
6
CONTINUOUS
10
172.2500000000
20
29.9441485128
7
TEXTSTYLE_0
40
5.0000000000
1
0,002
51
12.0000000000
72
5
11
184.7500000000
21
29.9441485128
100
AcDbText
0
TEXT
5
2B1
100
AcDbEntity
8
0
100
AcDbText
62
2
6
CONTINUOUS
10
42.3400000000
20
25.8642550482
7
TEXTSTYLE_0
40
3.2000000000
1
Boulkin
51
12.0000000000
72
5
11
54.6600000000
21
25.8642550482
100
AcDbText
0
TEXT
5
2B2
100
AcDbEntity
8
0
100
AcDbText
62
2
6
CONTINUOUS
10
22.0040000000
20
25.8642550482
7
TEXTSTYLE_0
40
3.2000000000
1
Checked
51
12.0000000000
72
5
11
34.9960000000
21
25.8642550482
100
AcDbText
0
TEXT
5
2B3
100
AcDbEntity
8
0
100
AcDbText
62
2
6
CONTINUOUS
10
75.9050000000
20
31.1709572267
7
TEXTSTYLE_0
40
2.6000000000
1
16.7.03
51
12.0000000000
72
5
11
84.0950000000
21
31.1709572267
100
AcDbText
0
TEXT
5
2B4
100
AcDbEntity
8
0
100
AcDbText
62
2
6
CONTINUOUS
10
39.7000000000
20
30.8642550482
7
TEXTSTYLE_0
40
3.2000000000
1
Schebetova
51
12.0000000000
72
5
11
57.3000000000
21
30.8642550482
100
AcDbText
0
TEXT
5
2B5
100
AcDbEntity
8
0
100
AcDbText
62
2
6
CONTINUOUS
10
21.0760000000
20
30.8642550482
7
TEXTSTYLE_0
40
3.2000000000
1
Designed
51
12.0000000000
72
5
11
35.9240000000
21
30.8642550482
100
AcDbText
0
TEXT
5
2B6
100
AcDbEntity
8
0
100
AcDbText
62
2
6
CONTINUOUS
10
76.2880000000
20
35.8642550482
7
TEXTSTYLE_0
40
3.2000000000
1
Date
51
12.0000000000
72
5
11
83.7120000000
21
35.8642550482
100
AcDbText
0
TEXT
5
2B7
100
AcDbEntity
8
0
100
AcDbText
62
2
6
CONTINUOUS
10
60.7162500000
20
35.7875795036
7
TEXTSTYLE_0
40
3.3500000000
1
Signature
51
12.0000000000
72
5
11
74.2837500000
21
35.7875795036
100
AcDbText
0
TEXT
5
2B8
100
AcDbEntity
8
0
100
AcDbText
62
2
6
CONTINUOUS
10
38.2920000000
20
35.8642550482
7
TEXTSTYLE_0
40
3.2000000000
1
N document.
51
12.0000000000
72
5
11
58.7080000000
21
35.8642550482
100
AcDbText
0
TEXT
5
2B9
100
AcDbEntity
8
0
100
AcDbText
62
2
6
CONTINUOUS
10
27.3600000000
20
35.8642550482
7
TEXTSTYLE_0
40
3.2000000000
1
Sheet
51
12.0000000000
72
5
11
36.6400000000
21
35.8642550482
100
AcDbText
0
TEXT
5
2BA
100
AcDbEntity
8
0
100
AcDbText
62
2
6
CONTINUOUS
10
20.7160000000
20
35.8642550482
7
TEXTSTYLE_0
40
3.2000000000
1
Chg
51
12.0000000000
72
5
11
26.2840000000
21
35.8642550482
100
AcDbText
0
TEXT
5
2BB
100
AcDbEntity
8
0
100
AcDbText
62
2
6
CONTINUOUS
10
190.9750000000
20
40.7875795036
7
TEXTSTYLE_0
40
3.3500000000
1
Scale
51
12.0000000000
72
5
11
201.0250000000
21
40.7875795036
100
AcDbText
0
TEXT
5
2BC
100
AcDbEntity
8
0
100
AcDbText
62
2
6
CONTINUOUS
10
174.4800000000
20
40.7875795036
7
TEXTSTYLE_0
40
3.3500000000
1
Mass
51
12.0000000000
72
5
11
182.5200000000
21
40.7875795036
100
AcDbText
0
TEXT
5
2BD
100
AcDbEntity
8
0
100
AcDbText
62
2
6
CONTINUOUS
10
158.4800000000
20
40.7875795036
7
TEXTSTYLE_0
40
3.3500000000
1
Type
51
12.0000000000
72
5
11
166.5200000000
21
40.7875795036
100
AcDbText
0
TEXT
5
2BE
100
AcDbEntity
8
0
100
AcDbText
62
2
6
CONTINUOUS
10
111.4000000000
20
48.4106376205
7
TEXTSTYLE_0
40
8.0000000000
1
IPCS.05.210.02
51
12.0000000000
72
5
11
178.6000000000
21
48.4106376205
100
AcDbText
0
TEXT
5
2BF
100
AcDbEntity
8
0
100
AcDbText
62
2
6
CONTINUOUS
10
23.0167387381
20
84.9277018683
7
TEXTSTYLE_0
40
3.6000000000
1
1.
51
12.0000000000
72
5
11
27.6967387381
21
84.9277018683
100
AcDbText
0
TEXT
5
2C0
100
AcDbEntity
8
0
100
AcDbText
62
2
6
CONTINUOUS
10
27.6967387381
20
87.6880214744
7
TEXTSTYLE_0
40
3.6000000000
1
*
51
12.0000000000
72
5
11
30.0367387381
21
87.6880214744
100
AcDbText
0
TEXT
5
2C1
100
AcDbEntity
8
0
100
AcDbText
62
2
6
CONTINUOUS
10
30.0367387381
20
84.9277018683
7
TEXTSTYLE_0
40
3.6000000000
1
Dimension for reference.
51
12.0000000000
72
5
11
86.1967387381
21
84.9277018683
100
AcDbText
0
TEXT
5
2C2
100
AcDbEntity
8
0
100
AcDbText
62
2
6
CONTINUOUS
10
23.0167387381
20
79.4070626560
7
TEXTSTYLE_0
40
3.6000000000
1
2. H12, h12, %%pIT12/2 
51
12.0000000000
72
5
11
74.0167387381
21
79.4070626560
100
AcDbText
0
TEXT
5
2C3
100
AcDbEntity
8
0
100
AcDbText
62
2
6
CONTINUOUS
10
23.0167387381
20
73.8864234437
7
TEXTSTYLE_0
40
3.6000000000
1
3. Nonindicated tolerances of shape and location of surfaces
51
12.0000000000
72
5
11
163.4167387381
21
73.8864234437
100
AcDbText
0
TEXT
5
2C4
100
AcDbEntity
8
0
100
AcDbText
62
2
6
CONTINUOUS
10
23.0167387381
20
68.3657842314
7
TEXTSTYLE_0
40
3.6000000000
1
   in accordance with OST 1.00022-80.
51
12.0000000000
72
5
11
109.5967387381
21
68.3657842314
100
AcDbText
0
TEXT
5
2C5
100
AcDbEntity
8
0
100
AcDbText
62
2
6
CONTINUOUS
10
23.0167387381
20
62.8451450192
7
TEXTSTYLE_0
40
3.6000000000
1
4. Coating: Kd9.
51
12.0000000000
72
5
11
60.4567387381
21
62.8451450192
100
AcDbText
0
INSERT
5
2C6
100
AcDbEntity
8
0
100
AcDbBlockReference
62
2
6
CONTINUOUS
2
UGOL_BL0
10
0.0000000000
20
0.0000000000
0
INSERT
5
2C7
100
AcDbEntity
8
0
100
AcDbBlockReference
62
2
6
CONTINUOUS
2
STANDARD_BL1
10
0.0000000000
20
0.0000000000
0
LINE
5
2C8
100
AcDbEntity
8
0
100
AcDbLine
62
7
6
CONTINUOUS
10
-0.0000000000
20
0.0000000000
11
210.0000000000
21
0.0000000000
0
LINE
5
2C9
100
AcDbEntity
8
0
100
AcDbLine
62
7
6
CONTINUOUS
10
205.0000000000
20
5.0000000000
11
20.0000000000
21
5.0000000000
0
LINE
5
2CA
100
AcDbEntity
8
0
100
AcDbLine
62
7
6
CONTINUOUS
10
-0.0000000000
20
297.0000000000
11
-0.0000000000
21
0.0000000000
0
LINE
5
2CB
100
AcDbEntity
8
0
100
AcDbLine
62
7
6
CONTINUOUS
10
20.0000000000
20
5.0000000000
11
20.0000000000
21
292.3498994289
0
LINE
5
2CC
100
AcDbEntity
8
0
100
AcDbLine
62
7
6
CONTINUOUS
10
205.0000000000
20
5.0000000000
11
205.0000000000
21
292.3498994289
0
LINE
5
2CD
100
AcDbEntity
8
0
100
AcDbLine
62
7
6
CONTINUOUS
10
210.0000000000
20
297.0000000000
11
210.0000000000
21
0.0000000000
0
LINE
5
2CE
100
AcDbEntity
8
0
100
AcDbLine
62
7
6
CONTINUOUS
10
205.0000000000
20
292.3498994289
11
20.0000000000
21
292.3498994289
0
LINE
5
2CF
100
AcDbEntity
8
0
100
AcDbLine
62
7
6
CONTINUOUS
10
-0.0000000000
20
297.0000000000
11
210.0000000000
21
297.0000000000
0
LINE
5
2D0
100
AcDbEntity
8
0
100
AcDbLine
62
7
6
CONTINUOUS
10
114.1971171875
20
108.3622675781
11
131.6597460938
21
108.3622675781
0
LINE
5
2D1
100
AcDbEntity
8
0
100
AcDbLine
62
7
6
CONTINUOUS
10
91.6597392578
20
214.3263632813
11
96.8766181641
21
223.3622617188
0
LINE
5
2D2
100
AcDbEntity
8
0
100
AcDbLine
62
7
6
CONTINUOUS
10
91.6597383557
20
130.8622712984
11
131.6597383557
21
130.8622712984
0
LINE
5
2D3
100
AcDbEntity
8
0
100
AcDbLine
62
7
6
CONTINUOUS
10
91.6597392578
20
127.3981650391
11
96.8766181641
21
118.3622666016
0
LINE
5
2D4
100
AcDbEntity
8
0
100
AcDbLine
62
7
6
CONTINUOUS
10
91.6597392578
20
214.3263632813
11
91.6597383557
21
127.3981685533
0
LINE
5
2D5
100
AcDbEntity
8
0
100
AcDbLine
62
9
6
CONTINUOUS
10
96.8766181641
20
223.3622617188
11
96.8766181641
21
170.8622712784
0
LINE
5
2D6
100
AcDbEntity
8
0
100
AcDbLine
62
7
6
CONTINUOUS
10
91.6597392578
20
170.8622712784
11
131.6597460938
21
170.8622712784
0
LINE
5
2D7
100
AcDbEntity
8
DEFAULT_1
100
AcDbLine
62
2
6
CENTER
10
133.6597383557
20
170.8622712984
11
131.6597460938
21
170.8622712784
0
LINE
5
2D8
100
AcDbEntity
8
DEFAULT_1
100
AcDbLine
62
2
6
CENTER
10
91.6597392578
20
170.8622712784
11
89.6597383557
21
170.8622712984
0
LINE
5
2D9
100
AcDbEntity
8
0
100
AcDbLine
62
9
6
CONTINUOUS
10
114.1971171875
20
233.3622714844
11
114.1971171875
21
170.8622712784
0
LINE
5
2DA
100
AcDbEntity
8
0
100
AcDbLine
62
2
6
CONTINUOUS
10
91.6597383557
20
130.4368896379
11
92.0851200162
21
130.8622712984
0
LINE
5
2DB
100
AcDbEntity
8
0
100
AcDbLine
62
7
6
CONTINUOUS
10
131.6597460938
20
233.3622714844
11
131.6597383557
21
108.3622712984
0
LINE
5
2DC
100
AcDbEntity
8
0
100
AcDbLine
62
2
6
CONTINUOUS
10
92.6180427609
20
125.7383413210
11
97.7419751225
21
130.8622712984
0
LINE
5
2DD
100
AcDbEntity
8
0
100
AcDbLine
62
2
6
CONTINUOUS
10
94.6885936795
20
122.1520395174
11
103.3988278447
21
130.8622712984
0
LINE
5
2DE
100
AcDbEntity
8
0
100
AcDbLine
62
2
6
CONTINUOUS
10
96.7591469822
20
118.5657329454
11
109.0556829510
21
130.8622712984
0
LINE
5
2DF
100
AcDbEntity
8
0
100
AcDbLine
62
2
6
CONTINUOUS
10
99.1060798703
20
115.2558154955
11
114.7125368653
21
130.8622712984
0
LINE
5
2E0
100
AcDbEntity
8
0
100
AcDbLine
62
2
6
CONTINUOUS
10
102.0245497761
20
112.5174302950
11
120.3693907795
21
130.8622712984
0
LINE
5
2E1
100
AcDbEntity
8
0
100
AcDbLine
62
2
6
CONTINUOUS
10
105.5183618603
20
110.3543872728
11
126.0262452899
21
130.8622712984
0
LINE
5
2E2
100
AcDbEntity
8
0
100
AcDbLine
62
2
6
CONTINUOUS
10
109.7116725979
20
108.8908452882
11
131.6597383557
21
130.8389110460
0
LINE
5
2E3
100
AcDbEntity
8
0
100
AcDbLine
62
2
6
CONTINUOUS
10
114.8399537144
20
108.3622712984
11
131.6597383557
21
125.1820535555
0
LINE
5
2E4
100
AcDbEntity
8
0
100
AcDbLine
62
2
6
CONTINUOUS
10
120.4968088208
20
108.3622712984
11
131.6597383557
21
119.5252008333
0
LINE
5
2E5
100
AcDbEntity
8
0
100
AcDbLine
62
2
6
CONTINUOUS
10
126.1536627350
20
108.3622712984
11
131.6597383557
21
113.8683481111
0
LINE
5
2E6
100
AcDbEntity
8
0
100
AcDbLine
62
7
6
CONTINUOUS
10
114.1971171875
20
233.3622714844
11
131.6597460938
21
233.3622714844
0
ARC
5
2E7
100
AcDbEntity
8
0
100
AcDbCircle
62
7
6
CONTINUOUS
10
114.1971247962
20
128.3622712984
40
20.0000000000
100
AcDbArc
50
210.0000000000
51
270.0000000000
0
ARC
5
2E8
100
AcDbEntity
8
0
100
AcDbCircle
62
7
6
CONTINUOUS
10
114.1971247962
20
213.3622712984
40
20.0000000000
100
AcDbArc
50
90.0000000000
51
150.0000000000
0
ENDSEC
0
SECTION
2
OBJECTS
0
DICTIONARY
5
2E9
100
AcDbDictionary
3
ACAD_GROUP
350
2EA
3
ACAD_MLINESTYLE
350
2EB
0
DICTIONARY
5
2EA
102
{ACAD_REACTORS
330
2E9
102
}
100
AcDbDictionary
0
DICTIONARY
5
2EB
102
{ACAD_REACTORS
330
2E9
102
}
100
AcDbDictionary
3
STANDARD
350
2EC
0
MLINESTYLE
5
2EC
102
{ACAD_REACTORS
330
2EB
102
}
100
AcDbMlineStyle
2
STANDARD
70
0
3

62
256
51
90.0
52
90.0
71
2
49
0.5
62
256
6
BYLAYER
49
-0.5
62
256
6
BYLAYER
0
ENDSEC
0
EOF
