  0
SECTION
  2
HEADER
  9
$ACADVER
  1
AC1015
  9
$DWGCODEPAGE
  3
ANSI_1251
  9
$EXTMAX
 10
210.0
 20
297.0
 30
0.0
  9
$EXTMIN
 10
0.0
 20
0.0
 30
0.0
  9
$LIMMIN
 10
0.0
 20
0.0
  9
$LIMMAX
 10
210.0
 20
297.0
  9
$VIEWCTR
 10
105.0
 20
148.5
  9
$VIEWSIZE
 40
297.0
  9
$CLAYER
  8
0
  9
$LTSCALE
 40
19.36
  9
$CELTYPE
  6
BYLAYER
  9
$DIMSCALE
 40
1.0
  9
$DIMASZ
 40
3.0
  9
$DIMEXO
 40
2.2
  9
$DIMDLI
 40
13.376
  9
$DIMEXE
 40
6.336
  9
$DIMCEN
 40
3.168
  9
$DIMLFAC
 40
1.0
  9
$DIMBLK
  1
_FILLED
  9
$DIMTXT
 40
3.5
  9
$DIMTOL
 70
1
  9
$DIMLIM
 70
0
  9
$DIMTFAC
 40
1.0
  9
$DIMTP
 40
0.00001
  9
$DIMTM
 40
0.00001
  9
$PDMODE
 70
3
  9
$PDSIZE
 40
1.0
  9
$HANDSEED
  5
3CA
  9
$TILEMODE
 70
1
  9
$MEASUREMENT
 70
1
  9
$INSUNITS
 70
4
  0
ENDSEC
  0
SECTION
  2
CLASSES
  0
CLASS
  1
ACDBDICTIONARYWDFLT
  2
AcDbDictionaryWithDefault
  3
AutoCAD 2000
 90
0
280
0
281
0
  0
CLASS
  1
ACDBPLACEHOLDER
  2
AcDbPlaceHolder
  3
AutoCAD 2000
 90
0
280
0
281
0
  0
CLASS
  1
LAYOUT
  2
AcDbLayout
  3
AutoCAD 2000
 90
0
280
0
281
0
  0
ENDSEC
  0
SECTION
  2
TABLES
  0
TABLE
  2
VPORT
  5
8
100
AcDbSymbolTable
 70
2
  0
VPORT
  5
1F4
100
AcDbSymbolTableRecord
100
AcDbViewportTableRecord
  2
*ACTIVE
 70
0
 10
0.0
 20
0.0
 11
1.0
 21
1.0
 12
105.0
 22
148.5
 13
0.0
 23
0.0
 14
1.0
 24
1.0
 15
0.0
 25
0.0
 16
0.0
 26
0.0
 36
1.0
 17
0.0
 27
0.0
 37
0.0
 40
297.0
 41
0.7070707071
 42
50.0
 43
0.0
 44
0.0
 50
0.0
 51
0.0
 71
0
 72
100
 73
1
 74
1
 75
0
 76
0
 77
0
 78
0
  0
ENDTAB
  0
TABLE
  2
LTYPE
  5
5
100
AcDbSymbolTable
 70
6
  0
LTYPE
  5
14
100
AcDbSymbolTableRecord
100
AcDbLinetypeTableRecord
  2
BYBLOCK
 70
0
  3

 72
65
 73
0
 40
0.0
  0
LTYPE
  5
15
100
AcDbSymbolTableRecord
100
AcDbLinetypeTableRecord
  2
BYLAYER
 70
0
  3

 72
65
 73
0
 40
0.0
  0
LTYPE
  5
16
100
AcDbSymbolTableRecord
100
AcDbLinetypeTableRecord
  2
CONTINUOUS
 70
64
  3
Solid line
 72
65
 73
0
 40
0.0
  0
LTYPE
  5
1F5
100
AcDbSymbolTableRecord
100
AcDbLinetypeTableRecord
  2
CENTER
 70
64
  3
____ _ ____ _ ____ _ ____ _ ____ _ ____ _ ____
 72
65
 73
4
 40
0.6
 49
0.375
 74
0
 49
-0.075
 74
0
 49
0.075
 74
0
 49
-0.075
 74
0
  0
LTYPE
  5
1F6
100
AcDbSymbolTableRecord
100
AcDbLinetypeTableRecord
  2
HIDDEN
 70
64
  3
- - - - - - - - - - - - - - - - - - - -
 72
65
 73
2
 40
0.2
 49
0.1
 74
0
 49
-0.1
 74
0
  0
LTYPE
  5
1F7
100
AcDbSymbolTableRecord
100
AcDbLinetypeTableRecord
  2
PHANTOM
 70
64
  3
_____ _ _ _____ _ _ _____ _ _ _____
 72
65
 73
6
 40
0.8
 49
0.45
 74
0
 49
-0.05
 74
0
 49
0.1
 74
0
 49
-0.05
 74
0
 49
0.1
 74
0
 49
-0.05
 74
0
  0
LTYPE
  5
1F8
100
AcDbSymbolTableRecord
100
AcDbLinetypeTableRecord
  2
DOT
 70
64
  3
. . . . . . . . . . . . . . . . . . . .
 72
65
 73
2
 40
0.2
 49
0.1
 74
0
 49
-0.1
 74
0
  0
LTYPE
  5
1F9
100
AcDbSymbolTableRecord
100
AcDbLinetypeTableRecord
  2
DASHED
 70
64
  3
- - - - - - - - - - - - - - - - - - - -
 72
65
 73
2
 40
0.2
 49
0.1
 74
0
 49
-0.1
 74
0
  0
ENDTAB
  0
TABLE
  2
LAYER
  5
2
100
AcDbSymbolTable
 70
36
  0
LAYER
  5
10
100
AcDbSymbolTableRecord
100
AcDbLayerTableRecord
  2
0
 70
0
 62
7
  6
CONTINUOUS
370
-3
390
F
  0
LAYER
  5
1FA
100
AcDbSymbolTableRecord
100
AcDbLayerTableRecord
  2
DEFAULT_1
 70
0
 62
7
  6
CENTER
370
-3
390
F
  0
LAYER
  5
1FB
100
AcDbSymbolTableRecord
100
AcDbLayerTableRecord
  2
DEFAULT_2
 70
0
 62
8
  6
HIDDEN
370
-3
390
F
  0
LAYER
  5
1FC
100
AcDbSymbolTableRecord
100
AcDbLayerTableRecord
  2
DEFAULT_3
 70
0
 62
7
  6
PHANTOM
370
-3
390
F
  0
LAYER
  5
1FD
100
AcDbSymbolTableRecord
100
AcDbLayerTableRecord
  2
ALL_AXIS
 70
0
 62
7
  6
CONTINUOUS
370
-3
390
F
  0
LAYER
  5
1FE
100
AcDbSymbolTableRecord
100
AcDbLayerTableRecord
  2
ALL_CHAMFER
 70
0
 62
7
  6
CONTINUOUS
370
-3
390
F
  0
LAYER
  5
1FF
100
AcDbSymbolTableRecord
100
AcDbLayerTableRecord
  2
ALL_CSYS
 70
0
 62
7
  6
CONTINUOUS
370
-3
390
F
  0
LAYER
  5
200
100
AcDbSymbolTableRecord
100
AcDbLayerTableRecord
  2
ALL_CURVE
 70
0
 62
7
  6
CONTINUOUS
370
-3
390
F
  0
LAYER
  5
201
100
AcDbSymbolTableRecord
100
AcDbLayerTableRecord
  2
ALL_DIMENSIONS
 70
0
 62
7
  6
CONTINUOUS
370
-3
390
F
  0
LAYER
  5
202
100
AcDbSymbolTableRecord
100
AcDbLayerTableRecord
  2
ALL_GTOL
 70
0
 62
7
  6
CONTINUOUS
370
-3
390
F
  0
LAYER
  5
203
100
AcDbSymbolTableRecord
100
AcDbLayerTableRecord
  2
ALL_HOLE
 70
0
 62
7
  6
CONTINUOUS
370
-3
390
F
  0
LAYER
  5
204
100
AcDbSymbolTableRecord
100
AcDbLayerTableRecord
  2
ALL_PLANE
 70
0
 62
7
  6
CONTINUOUS
370
-3
390
F
  0
LAYER
  5
205
100
AcDbSymbolTableRecord
100
AcDbLayerTableRecord
  2
ALL_QUILT
 70
0
 62
7
  6
CONTINUOUS
370
-3
390
F
  0
LAYER
  5
206
100
AcDbSymbolTableRecord
100
AcDbLayerTableRecord
  2
ALL_ROUND
 70
0
 62
7
  6
CONTINUOUS
370
-3
390
F
  0
LAYER
  5
207
100
AcDbSymbolTableRecord
100
AcDbLayerTableRecord
  2
ALL_SURF_FIN
 70
0
 62
7
  6
CONTINUOUS
370
-3
390
F
  0
LAYER
  5
208
100
AcDbSymbolTableRecord
100
AcDbLayerTableRecord
  2
ALL_THREADS
 70
0
 62
7
  6
CONTINUOUS
370
-3
390
F
  0
LAYER
  5
209
100
AcDbSymbolTableRecord
100
AcDbLayerTableRecord
  2
BASE
 70
0
 62
7
  6
CONTINUOUS
370
-3
390
F
  0
LAYER
  5
20A
100
AcDbSymbolTableRecord
100
AcDbLayerTableRecord
  2
BLANK_DIM
 70
0
 62
7
  6
CONTINUOUS
370
-3
390
F
  0
LAYER
  5
20B
100
AcDbSymbolTableRecord
100
AcDbLayerTableRecord
  2
DATUMS
 70
0
 62
7
  6
CONTINUOUS
370
-3
390
F
  0
LAYER
  5
20C
100
AcDbSymbolTableRecord
100
AcDbLayerTableRecord
  2
XSEC_DATUMS
 70
0
 62
7
  6
CONTINUOUS
370
-3
390
F
  0
ENDTAB
  0
TABLE
  2
STYLE
  5
3
100
AcDbSymbolTable
 70
1
  0
STYLE
  5
11
100
AcDbSymbolTableRecord
100
AcDbTextStyleTableRecord
  2
STANDARD
 70
0
 40
0.0
 41
0.7
 50
0.0
 71
0
 42
0.2
  3
txt
  4

  0
STYLE
  5
20D
100
AcDbSymbolTableRecord
100
AcDbTextStyleTableRecord
  2
TEXTSTYLE_1
 70
0
 40
0.0
 41
0.8
 50
0.0
 71
0
 42
0.2
  3
gdt
  4

  0
STYLE
  5
20E
100
AcDbSymbolTableRecord
100
AcDbTextStyleTableRecord
  2
TEXTSTYLE_2
 70
0
 40
0.0
 41
0.64
 50
0.0
 71
0
 42
0.2
  3
txt
  4

  0
STYLE
  5
20F
100
AcDbSymbolTableRecord
100
AcDbTextStyleTableRecord
  2
TEXTSTYLE_3
 70
0
 40
0.0
 41
0.6
 50
0.0
 71
0
 42
0.2
  3
txt
  4

  0
STYLE
  5
210
100
AcDbSymbolTableRecord
100
AcDbTextStyleTableRecord
  2
TEXTSTYLE_4
 70
0
 40
0.0
 41
0.75
 50
0.0
 71
0
 42
0.2
  3
txt
  4

  0
STYLE
  5
211
100
AcDbSymbolTableRecord
100
AcDbTextStyleTableRecord
  2
TEXTSTYLE_5
 70
0
 40
0.0
 41
0.65
 50
0.0
 71
0
 42
0.2
  3
txt
  4

  0
STYLE
  5
212
100
AcDbSymbolTableRecord
100
AcDbTextStyleTableRecord
  2
TEXTSTYLE_6
 70
0
 40
0.0
 41
0.55
 50
0.0
 71
0
 42
0.2
  3
txt
  4

  0
ENDTAB
  0
TABLE
  2
VIEW
  5
6
100
AcDbSymbolTable
 70
0
  0
ENDTAB
  0
TABLE
  2
UCS
  5
7
100
AcDbSymbolTable
 70
0
  0
ENDTAB
  0
TABLE
  2
APPID
  5
9
100
AcDbSymbolTable
 70
1
  0
APPID
  5
213
100
AcDbSymbolTableRecord
100
AcDbRegAppTableRecord
  2
ACAD
 70
0
  0
ENDTAB
  0
TABLE
  2
BLOCK_RECORD
  5
1
100
AcDbSymbolTable
 70
0
  0
BLOCK_RECORD
  5
214
100
AcDbSymbolTableRecord
100
AcDbBlockTableRecord
  2
*Model_Space
  0
BLOCK_RECORD
  5
215
100
AcDbSymbolTableRecord
100
AcDbBlockTableRecord
  2
*Paper_Space
  0
ENDTAB
  0
TABLE
  2
DIMSTYLE
  5
A
100
AcDbSymbolTable
 70
1
100
AcDbDimStyleTable
 71
0
  0
DIMSTYLE
105
216
100
AcDbSymbolTableRecord
100
AcDbDimStyleTableRecord
  2
STANDARD
 70
0
  3

  4

 40
1.0
 41
3.0
 42
0.0625
 43
0.38
 44
0.18
 45
0.0
 46
0.0
 47
0.00001
 48
0.00001
140
3.5
141
0.09
142
0.0
143
25.4
144
1.0
145
0.0
146
1.0
147
0.09
 71
1.0
 72
0.0
 73
0
 74
0
 75
0
 76
0
 77
1
 78
8
170
0
171
2
172
0
173
0
174
0
175
0
176
0
177
0
178
0
270
2
271
5
272
5
273
2
274
2
275
0
280
0
281
0
282
0
283
1
284
8
285
0
286
0
287
3
288
0
340
11
  0
ENDTAB
  0
ENDSEC
  0
SECTION
  2
BLOCKS
  0
BLOCK
  5
20
100
AcDbEntity
  8
0
100
AcDbBlockBegin
  2
*Model_Space
 70
0
 10
0.0
 20
0.0
 30
0.0
  3
*Model_Space
  1

  0
ENDBLK
  5
21
100
AcDbEntity
  8
0
100
AcDbBlockEnd
  0
BLOCK
  5
1C
100
AcDbEntity
  8
0
100
AcDbBlockBegin
  2
*Paper_Space
 70
0
 10
0.0
 20
0.0
 30
0.0
  3
*Paper_Space
  1

  0
ENDBLK
  5
1D
100
AcDbEntity
  8
0
100
AcDbBlockEnd
  0
ENDSEC
  0
SECTION
  2
ENTITIES
  0
LINE
  5
217
100
AcDbEntity
  8
0
100
AcDbLine
 62
7
  6
CONTINUOUS
 10
205.0
 20
277.0
 11
20.0
 21
277.0
  0
LINE
  5
218
100
AcDbEntity
  8
0
100
AcDbLine
 62
7
  6
CONTINUOUS
 10
205.0
 20
277.0
 11
205.0
 21
20.0
  0
LINE
  5
219
100
AcDbEntity
  8
0
100
AcDbLine
 62
7
  6
CONTINUOUS
 10
205.0
 20
269.0
 11
20.0
 21
269.0
  0
LINE
  5
21A
100
AcDbEntity
  8
0
100
AcDbLine
 62
7
  6
CONTINUOUS
 10
205.0
 20
261.0
 11
20.0
 21
261.0
  0
LINE
  5
21B
100
AcDbEntity
  8
0
100
AcDbLine
 62
7
  6
CONTINUOUS
 10
205.0
 20
253.0
 11
20.0
 21
253.0
  0
LINE
  5
21C
100
AcDbEntity
  8
0
100
AcDbLine
 62
7
  6
CONTINUOUS
 10
205.0
 20
245.0
 11
20.0
 21
245.0
  0
LINE
  5
21D
100
AcDbEntity
  8
0
100
AcDbLine
 62
7
  6
CONTINUOUS
 10
205.0
 20
237.0
 11
20.0
 21
237.0
  0
LINE
  5
21E
100
AcDbEntity
  8
0
100
AcDbLine
 62
7
  6
CONTINUOUS
 10
205.0
 20
229.0
 11
20.0
 21
229.0
  0
LINE
  5
21F
100
AcDbEntity
  8
0
100
AcDbLine
 62
7
  6
CONTINUOUS
 10
205.0
 20
221.0
 11
20.0
 21
221.0
  0
LINE
  5
220
100
AcDbEntity
  8
0
100
AcDbLine
 62
7
  6
CONTINUOUS
 10
205.0
 20
213.0
 11
20.0
 21
213.0
  0
LINE
  5
221
100
AcDbEntity
  8
0
100
AcDbLine
 62
7
  6
CONTINUOUS
 10
205.0
 20
205.0
 11
20.0
 21
205.0
  0
LINE
  5
222
100
AcDbEntity
  8
0
100
AcDbLine
 62
7
  6
CONTINUOUS
 10
205.0
 20
197.0
 11
20.0
 21
197.0
  0
LINE
  5
223
100
AcDbEntity
  8
0
100
AcDbLine
 62
7
  6
CONTINUOUS
 10
205.0
 20
189.0
 11
20.0
 21
189.0
  0
LINE
  5
224
100
AcDbEntity
  8
0
100
AcDbLine
 62
7
  6
CONTINUOUS
 10
205.0
 20
181.0
 11
20.0
 21
181.0
  0
LINE
  5
225
100
AcDbEntity
  8
0
100
AcDbLine
 62
7
  6
CONTINUOUS
 10
205.0
 20
173.0
 11
20.0
 21
173.0
  0
LINE
  5
226
100
AcDbEntity
  8
0
100
AcDbLine
 62
7
  6
CONTINUOUS
 10
205.0
 20
165.0
 11
20.0
 21
165.0
  0
LINE
  5
227
100
AcDbEntity
  8
0
100
AcDbLine
 62
7
  6
CONTINUOUS
 10
205.0
 20
157.0
 11
20.0
 21
157.0
  0
LINE
  5
228
100
AcDbEntity
  8
0
100
AcDbLine
 62
7
  6
CONTINUOUS
 10
205.0
 20
149.0
 11
20.0
 21
149.0
  0
LINE
  5
229
100
AcDbEntity
  8
0
100
AcDbLine
 62
7
  6
CONTINUOUS
 10
205.0
 20
141.0
 11
20.0
 21
141.0
  0
LINE
  5
22A
100
AcDbEntity
  8
0
100
AcDbLine
 62
7
  6
CONTINUOUS
 10
205.0
 20
133.0
 11
20.0
 21
133.0
  0
LINE
  5
22B
100
AcDbEntity
  8
0
100
AcDbLine
 62
7
  6
CONTINUOUS
 10
205.0
 20
125.0
 11
20.0
 21
125.0
  0
LINE
  5
22C
100
AcDbEntity
  8
0
100
AcDbLine
 62
7
  6
CONTINUOUS
 10
205.0
 20
117.0
 11
20.0
 21
117.0
  0
LINE
  5
22D
100
AcDbEntity
  8
0
100
AcDbLine
 62
7
  6
CONTINUOUS
 10
205.0
 20
109.0
 11
20.0
 21
109.0
  0
LINE
  5
22E
100
AcDbEntity
  8
0
100
AcDbLine
 62
7
  6
CONTINUOUS
 10
205.0
 20
101.0
 11
20.0
 21
101.0
  0
LINE
  5
22F
100
AcDbEntity
  8
0
100
AcDbLine
 62
7
  6
CONTINUOUS
 10
205.0
 20
93.0
 11
20.0
 21
93.0
  0
LINE
  5
230
100
AcDbEntity
  8
0
100
AcDbLine
 62
7
  6
CONTINUOUS
 10
205.0
 20
85.0
 11
20.0
 21
85.0
  0
LINE
  5
231
100
AcDbEntity
  8
0
100
AcDbLine
 62
7
  6
CONTINUOUS
 10
205.0
 20
77.0
 11
20.0
 21
77.0
  0
LINE
  5
232
100
AcDbEntity
  8
0
100
AcDbLine
 62
7
  6
CONTINUOUS
 10
205.0
 20
69.0
 11
20.0
 21
69.0
  0
LINE
  5
233
100
AcDbEntity
  8
0
100
AcDbLine
 62
7
  6
CONTINUOUS
 10
205.0
 20
61.0
 11
20.0
 21
61.0
  0
LINE
  5
234
100
AcDbEntity
  8
0
100
AcDbLine
 62
7
  6
CONTINUOUS
 10
205.0
 20
53.0
 11
20.0
 21
53.0
  0
LINE
  5
235
100
AcDbEntity
  8
0
100
AcDbLine
 62
7
  6
CONTINUOUS
 10
205.0
 20
45.0
 11
20.0
 21
45.0
  0
LINE
  5
236
100
AcDbEntity
  8
0
100
AcDbLine
 62
7
  6
CONTINUOUS
 10
205.0
 20
37.0
 11
20.0
 21
37.0
  0
LINE
  5
237
100
AcDbEntity
  8
0
100
AcDbLine
 62
7
  6
CONTINUOUS
 10
205.0
 20
29.0
 11
20.0
 21
29.0
  0
LINE
  5
238
100
AcDbEntity
  8
0
100
AcDbLine
 62
7
  6
CONTINUOUS
 10
205.0
 20
20.0
 11
20.0
 21
20.0
  0
LINE
  5
239
100
AcDbEntity
  8
0
100
AcDbLine
 62
7
  6
CONTINUOUS
 10
183.0
 20
277.0
 11
183.0
 21
20.0
  0
LINE
  5
23A
100
AcDbEntity
  8
0
100
AcDbLine
 62
7
  6
CONTINUOUS
 10
173.0
 20
277.0
 11
173.0
 21
20.0
  0
LINE
  5
23B
100
AcDbEntity
  8
0
100
AcDbLine
 62
7
  6
CONTINUOUS
 10
110.0
 20
277.0
 11
110.0
 21
20.0
  0
LINE
  5
23C
100
AcDbEntity
  8
0
100
AcDbLine
 62
7
  6
CONTINUOUS
 10
40.0
 20
277.0
 11
40.0
 21
20.0
  0
LINE
  5
23D
100
AcDbEntity
  8
0
100
AcDbLine
 62
7
  6
CONTINUOUS
 10
32.0
 20
277.0
 11
32.0
 21
20.0
  0
LINE
  5
23E
100
AcDbEntity
  8
0
100
AcDbLine
 62
7
  6
CONTINUOUS
 10
26.0
 20
277.0
 11
26.0
 21
20.0
  0
LINE
  5
23F
100
AcDbEntity
  8
0
100
AcDbLine
 62
7
  6
CONTINUOUS
 10
20.0
 20
277.0
 11
20.0
 21
20.0
  0
LINE
  5
240
100
AcDbEntity
  8
0
100
AcDbLine
 62
7
  6
CONTINUOUS
 10
20.0
 20
5.0
 11
8.0
 21
5.0
  0
LINE
  5
241
100
AcDbEntity
  8
0
100
AcDbLine
 62
7
  6
CONTINUOUS
 10
20.0
 20
5.0
 11
20.0
 21
150.0
  0
LINE
  5
242
100
AcDbEntity
  8
0
100
AcDbLine
 62
7
  6
CONTINUOUS
 10
20.0
 20
30.0
 11
8.0
 21
30.0
  0
LINE
  5
243
100
AcDbEntity
  8
0
100
AcDbLine
 62
7
  6
CONTINUOUS
 10
20.0
 20
65.0
 11
8.0
 21
65.0
  0
LINE
  5
244
100
AcDbEntity
  8
0
100
AcDbLine
 62
7
  6
CONTINUOUS
 10
20.0
 20
90.0
 11
8.0
 21
90.0
  0
LINE
  5
245
100
AcDbEntity
  8
0
100
AcDbLine
 62
7
  6
CONTINUOUS
 10
20.0
 20
115.0
 11
8.0
 21
115.0
  0
LINE
  5
246
100
AcDbEntity
  8
0
100
AcDbLine
 62
7
  6
CONTINUOUS
 10
20.0
 20
150.0
 11
8.0
 21
150.0
  0
LINE
  5
247
100
AcDbEntity
  8
0
100
AcDbLine
 62
7
  6
CONTINUOUS
 10
13.0
 20
5.0
 11
13.0
 21
150.0
  0
LINE
  5
248
100
AcDbEntity
  8
0
100
AcDbLine
 62
7
  6
CONTINUOUS
 10
8.0
 20
5.0
 11
8.0
 21
150.0
  0
LWPOLYLINE
  5
249
100
AcDbEntity
  8
0
100
AcDbPolyline
 62
2
  6
CONTINUOUS
 90
4
 70
0
 43
0.25
 10
8.9877675781
 20
7.0376696167
 10
11.9877651367
 20
6.399999939
 10
8.9877675781
 20
8.0576698608
 10
11.9877651367
 20
7.4200001831
  0
LWPOLYLINE
  5
24A
100
AcDbEntity
  8
0
100
AcDbPolyline
 62
2
  6
CONTINUOUS
 90
2
 70
0
 43
0.25
 10
9.9877685547
 20
8.8651130981
 10
11.9877651367
 20
8.4399997559
  0
LWPOLYLINE
  5
24B
100
AcDbEntity
  8
0
100
AcDbPolyline
 62
2
  6
CONTINUOUS
 90
2
 70
0
 43
0.25
 10
10.8627680664
 20
8.6791262207
 10
10.8627680664
 20
9.3991260376
  0
LWPOLYLINE
  5
24C
100
AcDbEntity
  8
0
100
AcDbPolyline
 62
2
  6
CONTINUOUS
 90
2
 70
0
 43
0.25
 10
9.9877685547
 20
9.585112915
 10
11.9877651367
 20
9.1600002441
  0
LWPOLYLINE
  5
24D
100
AcDbEntity
  8
0
100
AcDbPolyline
 62
2
  6
CONTINUOUS
 90
9
 70
0
 43
0.25
 10
11.9877651367
 20
10.4800002441
 10
9.9877685547
 20
10.905112915
 10
9.9877685547
 20
11.4451132813
 10
10.1127646484
 20
11.538543457
 10
10.3627675781
 20
11.5454050293
 10
10.4877636719
 20
11.5188342285
 10
10.7377666016
 20
11.405696167
 10
10.8627680664
 20
11.2591264038
 10
10.8627680664
 20
10.7191260376
  0
LWPOLYLINE
  5
24E
100
AcDbEntity
  8
0
100
AcDbPolyline
 62
2
  6
CONTINUOUS
 90
9
 70
0
 43
0.25
 10
11.9877651367
 20
10.4800002441
 10
11.9877651367
 20
11.019999939
 10
11.8627636719
 20
11.1665697021
 10
11.7377675781
 20
11.2531389771
 10
11.4877646484
 20
11.36627771
 10
11.3627685547
 20
11.3928485107
 10
11.112765625
 20
11.3859869385
 10
10.9877641602
 20
11.3525559082
 10
10.8627680664
 20
11.2591264038
  0
LWPOLYLINE
  5
24F
100
AcDbEntity
  8
0
100
AcDbPolyline
 62
2
  6
CONTINUOUS
 90
4
 70
0
 43
0.25
 10
11.9877651367
 20
12.6999995117
 10
11.9877651367
 20
12.5799998779
 10
11.7377675781
 20
12.6331387939
 10
11.9877651367
 20
12.6999995117
  0
LWPOLYLINE
  5
250
100
AcDbEntity
  8
0
100
AcDbPolyline
 62
2
  6
CONTINUOUS
 90
4
 70
0
 43
0.25
 10
11.9877651367
 20
16.06
 10
8.9877675781
 20
16.6976696777
 10
11.9877651367
 20
17.0199997559
 10
8.9877675781
 20
17.6576694336
  0
LWPOLYLINE
  5
251
100
AcDbEntity
  8
0
100
AcDbPolyline
 62
2
  6
CONTINUOUS
 90
4
 70
0
 43
0.25
 10
11.9877651367
 20
19.8399998779
 10
9.9877685547
 20
20.2651125488
 10
9.9877685547
 20
20.9851130371
 10
11.9877651367
 20
20.5600003662
  0
LWPOLYLINE
  5
252
100
AcDbEntity
  8
0
100
AcDbPolyline
 62
2
  6
CONTINUOUS
 90
17
 70
0
 43
0.25
 10
10.7377666016
 20
22.1456962891
 10
10.3627675781
 20
22.2854038086
 10
10.1127646484
 20
22.4585437012
 10
9.9877685547
 20
22.6651132813
 10
9.9877685547
 20
22.7851142578
 10
10.1127646484
 20
22.9385422363
 10
10.3627675781
 20
23.0054042969
 10
10.7377666016
 20
22.9856950684
 10
11.2377670898
 20
22.8794172363
 10
11.6127661133
 20
22.7397097168
 10
11.8627636719
 20
22.5665698242
 10
11.9877651367
 20
22.3600002441
 10
11.9877651367
 20
22.2400006104
 10
11.8627636719
 20
22.0865699463
 10
11.6127661133
 20
22.0197092285
 10
11.2377670898
 20
22.0394171143
 10
10.7377666016
 20
22.1456962891
  0
LWPOLYLINE
  5
253
100
AcDbEntity
  8
0
100
AcDbPolyline
 62
2
  6
CONTINUOUS
 90
4
 70
0
 43
0.25
 10
12.3627641602
 20
23.5402900391
 10
11.9877651367
 20
23.6199997559
 10
11.9877651367
 20
24.7000004883
 10
12.3627641602
 20
24.6202907715
  0
LWPOLYLINE
  5
254
100
AcDbEntity
  8
0
100
AcDbPolyline
 62
2
  6
CONTINUOUS
 90
7
 70
0
 43
0.25
 10
11.9877651367
 20
23.7400007324
 10
11.7377675781
 20
23.8531401367
 10
11.4877646484
 20
23.966279541
 10
10.8627680664
 20
24.1591259766
 10
9.9877685547
 20
24.3451135254
 10
9.9877685547
 20
25.0051135254
 10
11.9877651367
 20
24.5799995117
  0
LWPOLYLINE
  5
255
100
AcDbEntity
  8
0
100
AcDbPolyline
 62
2
  6
CONTINUOUS
 90
7
 70
0
 43
0.25
 10
11.9877651367
 20
25.6600002441
 10
11.8627636719
 20
25.8065693359
 10
11.7377675781
 20
25.8931379395
 10
11.6127661133
 20
25.9197087402
 10
9.9877685547
 20
26.2651130371
 10
9.9877685547
 20
26.9851135254
 10
11.9877651367
 20
26.5599995117
  0
LWPOLYLINE
  5
256
100
AcDbEntity
  8
0
100
AcDbPolyline
 62
2
  6
CONTINUOUS
 90
4
 70
0
 43
0.25
 10
11.9877651367
 20
28.0600009766
 10
11.9877651367
 20
27.94
 10
11.7377675781
 20
27.993138916
 10
11.9877651367
 20
28.0600009766
  0
LWPOLYLINE
  5
257
100
AcDbEntity
  8
0
100
AcDbPolyline
 62
2
  6
CONTINUOUS
 90
4
 70
0
 43
0.25
 10
11.9877651367
 20
36.4599995117
 10
8.9877675781
 20
37.0976691895
 10
8.9877675781
 20
38.1176694336
 10
11.9877651367
 20
37.4799997559
  0
LWPOLYLINE
  5
258
100
AcDbEntity
  8
0
100
AcDbPolyline
 62
2
  6
CONTINUOUS
 90
17
 70
0
 43
0.25
 10
10.7377666016
 20
38.7056967773
 10
10.3627675781
 20
38.8454042969
 10
10.1127646484
 20
39.0185441895
 10
9.9877685547
 20
39.2251137695
 10
9.9877685547
 20
39.3451120605
 10
10.1127646484
 20
39.4985427246
 10
10.3627675781
 20
39.5654047852
 10
10.7377666016
 20
39.5456955566
 10
11.2377670898
 20
39.4394177246
 10
11.6127661133
 20
39.2997075195
 10
11.8627636719
 20
39.1265703125
 10
11.9877651367
 20
38.9200007324
 10
11.9877651367
 20
38.7999997559
 10
11.8627636719
 20
38.6465690918
 10
11.6127661133
 20
38.5797097168
 10
11.2377670898
 20
38.5994162598
 10
10.7377666016
 20
38.7056967773
  0
LWPOLYLINE
  5
259
100
AcDbEntity
  8
0
100
AcDbPolyline
 62
2
  6
CONTINUOUS
 90
4
 70
0
 43
0.25
 10
12.3627641602
 20
40.1002905273
 10
11.9877651367
 20
40.1800002441
 10
11.9877651367
 20
41.2600009766
 10
12.3627641602
 20
41.1802912598
  0
LWPOLYLINE
  5
25A
100
AcDbEntity
  8
0
100
AcDbPolyline
 62
2
  6
CONTINUOUS
 90
7
 70
0
 43
0.25
 10
11.9877651367
 20
40.3000012207
 10
11.7377675781
 20
40.4131379395
 10
11.4877646484
 20
40.5262773438
 10
10.8627680664
 20
40.7191264648
 10
9.9877685547
 20
40.9051140137
 10
9.9877685547
 20
41.5651140137
 10
11.9877651367
 20
41.14
  0
LWPOLYLINE
  5
25B
100
AcDbEntity
  8
0
100
AcDbPolyline
 62
2
  6
CONTINUOUS
 90
4
 70
0
 43
0.25
 10
11.9877651367
 20
42.1600002441
 10
9.9877685547
 20
42.5851142578
 10
9.9877685547
 20
43.3051120605
 10
11.9877651367
 20
42.8800007324
  0
LWPOLYLINE
  5
25C
100
AcDbEntity
  8
0
100
AcDbPolyline
 62
2
  6
CONTINUOUS
 90
4
 70
0
 43
0.25
 10
11.9877651367
 20
44.6199987793
 10
11.9877651367
 20
44.5000004883
 10
11.7377675781
 20
44.5531394043
 10
11.9877651367
 20
44.6199987793
  0
LWPOLYLINE
  5
25D
100
AcDbEntity
  8
0
100
AcDbPolyline
 62
2
  6
CONTINUOUS
 90
4
 70
0
 43
0.25
 10
9.9877685547
 20
48.5251142578
 10
11.9877651367
 20
48.0999975586
 10
9.9877685547
 20
49.2451147461
 10
11.9877651367
 20
48.8199980469
  0
LWPOLYLINE
  5
25E
100
AcDbEntity
  8
0
100
AcDbPolyline
 62
2
  6
CONTINUOUS
 90
4
 70
0
 43
0.25
 10
12.3627641602
 20
51.6202929688
 10
11.9877651367
 20
51.7
 10
11.9877651367
 20
52.7799980469
 10
12.3627641602
 20
52.7002910156
  0
LWPOLYLINE
  5
25F
100
AcDbEntity
  8
0
100
AcDbPolyline
 62
2
  6
CONTINUOUS
 90
7
 70
0
 43
0.25
 10
11.9877651367
 20
51.8200009766
 10
11.7377675781
 20
51.9331376953
 10
11.4877646484
 20
52.0462797852
 10
10.8627680664
 20
52.2391235352
 10
9.9877685547
 20
52.4251137695
 10
9.9877685547
 20
53.0851137695
 10
11.9877651367
 20
52.6600024414
  0
LWPOLYLINE
  5
260
100
AcDbEntity
  8
0
100
AcDbPolyline
 62
2
  6
CONTINUOUS
 90
10
 70
0
 43
0.25
 10
10.4877636719
 20
54.1188344727
 10
10.2377661133
 20
54.2319765625
 10
10.1127646484
 20
54.3185424805
 10
9.9877685547
 20
54.4651142578
 10
9.9877685547
 20
54.7651113281
 10
10.1127646484
 20
54.8585415039
 10
10.2377661133
 20
54.8919765625
 10
10.4877636719
 20
54.8988354492
 10
11.8627636719
 20
54.6065673828
 10
11.9877651367
 20
54.6400024414
  0
LWPOLYLINE
  5
261
100
AcDbEntity
  8
0
100
AcDbPolyline
 62
2
  6
CONTINUOUS
 90
14
 70
0
 43
0.25
 10
10.6127651367
 20
54.8722646484
 10
10.7377666016
 20
54.7856933594
 10
10.8627680664
 20
54.4591254883
 10
10.9877641602
 20
54.1925581055
 10
11.112765625
 20
54.0459863281
 10
11.2377670898
 20
53.9594150391
 10
11.4877646484
 20
53.8462783203
 10
11.6127661133
 20
53.8197075195
 10
11.8627636719
 20
53.8265717773
 10
11.9877651367
 20
53.9800024414
 10
11.9877651367
 20
54.1599985352
 10
11.8627636719
 20
54.3665708008
 10
11.7377675781
 20
54.513137207
 10
11.4877646484
 20
54.6862797852
  0
LWPOLYLINE
  5
262
100
AcDbEntity
  8
0
100
AcDbPolyline
 62
2
  6
CONTINUOUS
 90
2
 70
0
 43
0.25
 10
9.9877685547
 20
56.1451118164
 10
9.9877685547
 20
56.9851132813
  0
LWPOLYLINE
  5
263
100
AcDbEntity
  8
0
100
AcDbPolyline
 62
2
  6
CONTINUOUS
 90
2
 70
0
 43
0.25
 10
9.9877685547
 20
56.5651152344
 10
11.9877651367
 20
56.1399985352
  0
LWPOLYLINE
  5
264
100
AcDbEntity
  8
0
100
AcDbPolyline
 62
2
  6
CONTINUOUS
 90
10
 70
0
 43
0.25
 10
10.4877636719
 20
57.9588334961
 10
10.2377661133
 20
58.0719755859
 10
10.1127646484
 20
58.1585415039
 10
9.9877685547
 20
58.3051132813
 10
9.9877685547
 20
58.6051157227
 10
10.1127646484
 20
58.6985458984
 10
10.2377661133
 20
58.7319755859
 10
10.4877636719
 20
58.7388344727
 10
11.8627636719
 20
58.4465717773
 10
11.9877651367
 20
58.4800014648
  0
LWPOLYLINE
  5
265
100
AcDbEntity
  8
0
100
AcDbPolyline
 62
2
  6
CONTINUOUS
 90
14
 70
0
 43
0.25
 10
10.6127651367
 20
58.7122636719
 10
10.7377666016
 20
58.6256977539
 10
10.8627680664
 20
58.2991245117
 10
10.9877641602
 20
58.0325571289
 10
11.112765625
 20
57.8859853516
 10
11.2377670898
 20
57.7994194336
 10
11.4877646484
 20
57.6862773438
 10
11.6127661133
 20
57.659706543
 10
11.8627636719
 20
57.6665708008
 10
11.9877651367
 20
57.8200014648
 10
11.9877651367
 20
57.9999975586
 10
11.8627636719
 20
58.2065698242
 10
11.7377675781
 20
58.3531416016
 10
11.4877646484
 20
58.5262788086
  0
LWPOLYLINE
  5
266
100
AcDbEntity
  8
0
100
AcDbPolyline
 62
2
  6
CONTINUOUS
 90
19
 70
0
 43
0.25
 10
10.3627675781
 20
66.80540625
 10
10.3627675781
 20
67.4054057617
 10
10.2377661133
 20
67.6119726563
 10
10.1127646484
 20
67.6985439453
 10
9.8627670898
 20
67.8116806641
 10
9.4877680664
 20
67.8913930664
 10
9.2377651367
 20
67.8845288086
 10
9.1127636719
 20
67.8510991211
 10
8.9877675781
 20
67.697668457
 10
8.9877675781
 20
67.0976689453
 10
11.9877651367
 20
66.4600019531
 10
11.9877651367
 20
67.0600014648
 10
11.8627636719
 20
67.2665683594
 10
11.6127661133
 20
67.4397109375
 10
11.3627685547
 20
67.5528476563
 10
10.9877641602
 20
67.6325546875
 10
10.7377666016
 20
67.6256958008
 10
10.4877636719
 20
67.5588364258
 10
10.3627675781
 20
67.4054057617
  0
LWPOLYLINE
  5
267
100
AcDbEntity
  8
0
100
AcDbPolyline
 62
2
  6
CONTINUOUS
 90
10
 70
0
 43
0.25
 10
10.3627675781
 20
68.8454067383
 10
10.1127646484
 20
68.958543457
 10
9.9877685547
 20
69.1051152344
 10
9.9877685547
 20
69.3451118164
 10
10.1127646484
 20
69.4385419922
 10
10.3627675781
 20
69.44540625
 10
10.4877636719
 20
69.4188354492
 10
10.7377666016
 20
69.3056933594
 10
10.8627680664
 20
69.1591269531
 10
10.8627680664
 20
68.9791254883
  0
LWPOLYLINE
  5
268
100
AcDbEntity
  8
0
100
AcDbPolyline
 62
2
  6
CONTINUOUS
 90
12
 70
0
 43
0.25
 10
11.4877646484
 20
68.5462797852
 10
11.7377675781
 20
68.5531386719
 10
11.8627636719
 20
68.5865683594
 10
11.9877651367
 20
68.6799985352
 10
11.9877651367
 20
68.9200004883
 10
11.8627636719
 20
69.0665668945
 10
11.7377675781
 20
69.1531381836
 10
11.4877646484
 20
69.2662802734
 10
11.3627685547
 20
69.2928457031
 10
11.112765625
 20
69.2859868164
 10
10.9877641602
 20
69.2525571289
 10
10.8627680664
 20
69.1591269531
  0
LWPOLYLINE
  5
269
100
AcDbEntity
  8
0
100
AcDbPolyline
 62
2
  6
CONTINUOUS
 90
10
 70
0
 43
0.25
 10
10.4877636719
 20
70.6788349609
 10
10.2377661133
 20
70.7919716797
 10
10.1127646484
 20
70.8785429688
 10
9.9877685547
 20
71.0251147461
 10
9.9877685547
 20
71.3251118164
 10
10.1127646484
 20
71.4185419922
 10
10.2377661133
 20
71.4519716797
 10
10.4877636719
 20
71.4588359375
 10
11.8627636719
 20
71.1665678711
 10
11.9877651367
 20
71.1999975586
  0
LWPOLYLINE
  5
26A
100
AcDbEntity
  8
0
100
AcDbPolyline
 62
2
  6
CONTINUOUS
 90
14
 70
0
 43
0.25
 10
10.6127651367
 20
71.4322651367
 10
10.7377666016
 20
71.3456938477
 10
10.8627680664
 20
71.0191259766
 10
10.9877641602
 20
70.7525585938
 10
11.112765625
 20
70.6059868164
 10
11.2377670898
 20
70.5194155273
 10
11.4877646484
 20
70.4062788086
 10
11.6127661133
 20
70.3797080078
 10
11.8627636719
 20
70.3865668945
 10
11.9877651367
 20
70.5399975586
 10
11.9877651367
 20
70.7199990234
 10
11.8627636719
 20
70.9265712891
 10
11.7377675781
 20
71.0731376953
 10
11.4877646484
 20
71.2462802734
  0
LWPOLYLINE
  5
26B
100
AcDbEntity
  8
0
100
AcDbPolyline
 62
2
  6
CONTINUOUS
 90
5
 70
0
 43
0.25
 10
11.9877651367
 20
72.2200004883
 10
9.9877685547
 20
72.6451118164
 10
11.8627636719
 20
72.7265698242
 10
9.9877685547
 20
73.6051142578
 10
11.9877651367
 20
73.1799975586
  0
LWPOLYLINE
  5
26C
100
AcDbEntity
  8
0
100
AcDbPolyline
 62
2
  6
CONTINUOUS
 90
4
 70
0
 43
0.25
 10
11.9877651367
 20
74.6199985352
 10
11.9877651367
 20
74.4999975586
 10
11.7377675781
 20
74.5531391602
 10
11.9877651367
 20
74.6199985352
  0
LWPOLYLINE
  5
26D
100
AcDbEntity
  8
0
100
AcDbPolyline
 62
2
  6
CONTINUOUS
 90
4
 70
0
 43
0.25
 10
9.9877685547
 20
78.5251113281
 10
11.9877651367
 20
78.1
 10
9.9877685547
 20
79.2451118164
 10
11.9877651367
 20
78.8200004883
  0
LWPOLYLINE
  5
26E
100
AcDbEntity
  8
0
100
AcDbPolyline
 62
2
  6
CONTINUOUS
 90
2
 70
0
 43
0.25
 10
9.9877685547
 20
80.3851157227
 10
11.9877651367
 20
79.9599990234
  0
LWPOLYLINE
  5
26F
100
AcDbEntity
  8
0
100
AcDbPolyline
 62
2
  6
CONTINUOUS
 90
2
 70
0
 43
0.25
 10
10.8627680664
 20
80.1991254883
 10
10.8627680664
 20
80.9191259766
  0
LWPOLYLINE
  5
270
100
AcDbEntity
  8
0
100
AcDbPolyline
 62
2
  6
CONTINUOUS
 90
2
 70
0
 43
0.25
 10
9.9877685547
 20
81.1051108398
 10
11.9877651367
 20
80.6799995117
  0
LWPOLYLINE
  5
271
100
AcDbEntity
  8
0
100
AcDbPolyline
 62
2
  6
CONTINUOUS
 90
9
 70
0
 43
0.25
 10
11.9877651367
 20
81.9999995117
 10
9.9877685547
 20
82.4251108398
 10
9.9877685547
 20
82.9651152344
 10
10.1127646484
 20
83.0585454102
 10
10.3627675781
 20
83.0654042969
 10
10.4877636719
 20
83.0388334961
 10
10.7377666016
 20
82.9256967773
 10
10.8627680664
 20
82.779125
 10
10.8627680664
 20
82.2391259766
  0
LWPOLYLINE
  5
272
100
AcDbEntity
  8
0
100
AcDbPolyline
 62
2
  6
CONTINUOUS
 90
9
 70
0
 43
0.25
 10
11.9877651367
 20
81.9999995117
 10
11.9877651367
 20
82.5399985352
 10
11.8627636719
 20
82.6865703125
 10
11.7377675781
 20
82.7731416016
 10
11.4877646484
 20
82.8862783203
 10
11.3627685547
 20
82.9128491211
 10
11.112765625
 20
82.9059848633
 10
10.9877641602
 20
82.8725551758
 10
10.8627680664
 20
82.779125
  0
LWPOLYLINE
  5
273
100
AcDbEntity
  8
0
100
AcDbPolyline
 62
2
  6
CONTINUOUS
 90
4
 70
0
 43
0.25
 10
11.9877651367
 20
84.2200014648
 10
11.9877651367
 20
84.1000004883
 10
11.7377675781
 20
84.1531367188
 10
11.9877651367
 20
84.2200014648
  0
LWPOLYLINE
  5
274
100
AcDbEntity
  8
0
100
AcDbPolyline
 62
2
  6
CONTINUOUS
 90
4
 70
0
 43
0.25
 10
11.9877651367
 20
87.5800019531
 10
8.9877675781
 20
88.2176689453
 10
11.9877651367
 20
88.5399990234
 10
8.9877675781
 20
89.1776713867
  0
LWPOLYLINE
  5
275
100
AcDbEntity
  8
0
100
AcDbPolyline
 62
2
  6
CONTINUOUS
 90
4
 70
0
 43
0.25
 10
8.9877675781
 20
92.0376660156
 10
11.9877651367
 20
91.3999990234
 10
8.9877675781
 20
93.0576689453
 10
11.9877651367
 20
92.4200019531
  0
LWPOLYLINE
  5
276
100
AcDbEntity
  8
0
100
AcDbPolyline
 62
2
  6
CONTINUOUS
 90
2
 70
0
 43
0.25
 10
9.9877685547
 20
93.8651162109
 10
11.9877651367
 20
93.4400048828
  0
LWPOLYLINE
  5
277
100
AcDbEntity
  8
0
100
AcDbPolyline
 62
2
  6
CONTINUOUS
 90
2
 70
0
 43
0.25
 10
10.8627680664
 20
93.6791259766
 10
10.8627680664
 20
94.3991210938
  0
LWPOLYLINE
  5
278
100
AcDbEntity
  8
0
100
AcDbPolyline
 62
2
  6
CONTINUOUS
 90
2
 70
0
 43
0.25
 10
9.9877685547
 20
94.5851113281
 10
11.9877651367
 20
94.16
  0
LWPOLYLINE
  5
279
100
AcDbEntity
  8
0
100
AcDbPolyline
 62
2
  6
CONTINUOUS
 90
9
 70
0
 43
0.25
 10
11.9877651367
 20
95.48
 10
9.9877685547
 20
95.9051113281
 10
9.9877685547
 20
96.4451103516
 10
10.1127646484
 20
96.5385458984
 10
10.3627675781
 20
96.5453994141
 10
10.4877636719
 20
96.5188339844
 10
10.7377666016
 20
96.4056972656
 10
10.8627680664
 20
96.2591308594
 10
10.8627680664
 20
95.7191210938
  0
LWPOLYLINE
  5
27A
100
AcDbEntity
  8
0
100
AcDbPolyline
 62
2
  6
CONTINUOUS
 90
9
 70
0
 43
0.25
 10
11.9877651367
 20
95.48
 10
11.9877651367
 20
96.0199990234
 10
11.8627636719
 20
96.1665654297
 10
11.7377675781
 20
96.2531367188
 10
11.4877646484
 20
96.3662734375
 10
11.3627685547
 20
96.3928496094
 10
11.112765625
 20
96.3859853516
 10
10.9877641602
 20
96.3525556641
 10
10.8627680664
 20
96.2591308594
  0
LWPOLYLINE
  5
27B
100
AcDbEntity
  8
0
100
AcDbPolyline
 62
2
  6
CONTINUOUS
 90
4
 70
0
 43
0.25
 10
11.9877651367
 20
97.7000019531
 10
11.9877651367
 20
97.5800009766
 10
11.7377675781
 20
97.6331425781
 10
11.9877651367
 20
97.7000019531
  0
LWPOLYLINE
  5
27C
100
AcDbEntity
  8
0
100
AcDbPolyline
 62
2
  6
CONTINUOUS
 90
4
 70
0
 43
0.25
 10
11.9877651367
 20
101.0599970703
 10
8.9877675781
 20
101.6976748047
 10
11.9877651367
 20
102.0200048828
 10
8.9877675781
 20
102.657671875
  0
LWPOLYLINE
  5
27D
100
AcDbEntity
  8
0
100
AcDbPolyline
 62
2
  6
CONTINUOUS
 90
4
 70
0
 43
0.25
 10
12.3627641602
 20
104.7002880859
 10
11.9877651367
 20
104.7799951172
 10
11.9877651367
 20
105.8600039063
 10
12.3627641602
 20
105.7802861328
  0
LWPOLYLINE
  5
27E
100
AcDbEntity
  8
0
100
AcDbPolyline
 62
2
  6
CONTINUOUS
 90
7
 70
0
 43
0.25
 10
11.9877651367
 20
104.8999960938
 10
11.7377675781
 20
105.0131435547
 10
11.4877646484
 20
105.1262802734
 10
10.8627680664
 20
105.3191240234
 10
9.9877685547
 20
105.5051142578
 10
9.9877685547
 20
106.1651142578
 10
11.9877651367
 20
105.7400029297
  0
LWPOLYLINE
  5
27F
100
AcDbEntity
  8
0
100
AcDbPolyline
 62
2
  6
CONTINUOUS
 90
7
 70
0
 43
0.25
 10
12.8627646484
 20
106.6940166016
 10
12.9877661133
 20
106.7274462891
 10
12.9877661133
 20
106.7874414063
 10
12.8627646484
 20
106.9340078125
 10
12.7377685547
 20
107.0205791016
 10
12.2377680664
 20
107.2468632813
 10
9.9877685547
 20
108.0851083984
  0
LWPOLYLINE
  5
280
100
AcDbEntity
  8
0
100
AcDbPolyline
 62
2
  6
CONTINUOUS
 90
2
 70
0
 43
0.25
 10
9.9877685547
 20
107.2451123047
 10
12.2377680664
 20
107.2468632813
  0
LWPOLYLINE
  5
281
100
AcDbEntity
  8
0
100
AcDbPolyline
 62
2
  6
CONTINUOUS
 90
25
 70
0
 43
0.25
 10
10.7377666016
 20
109.0656982422
 10
10.3627675781
 20
109.2054003906
 10
10.1127646484
 20
109.3785429688
 10
9.9877685547
 20
109.5851152344
 10
9.9877685547
 20
109.7051162109
 10
10.1127646484
 20
109.858546875
 10
10.3627675781
 20
109.92540625
 10
10.7377666016
 20
109.9056943359
 10
11.2377670898
 20
109.799421875
 10
11.6127661133
 20
109.6597089844
 10
11.8627636719
 20
109.4865664063
 10
11.9877651367
 20
109.2800048828
 10
11.9877651367
 20
109.1600039063
 10
11.8627636719
 20
109.0065732422
 10
11.6127661133
 20
108.9397138672
 10
11.2377670898
 20
108.9594150391
 10
10.7377666016
 20
109.0656982422
 10
9.9877685547
 20
109.2251123047
 10
9.4877680664
 20
109.391390625
 10
9.2377651367
 20
109.5045273438
 10
9.1127636719
 20
109.5910986328
 10
8.9877675781
 20
109.8576660156
 10
8.9877675781
 20
109.9776669922
 10
8.8627661133
 20
110.244234375
 10
8.7377646484
 20
110.3308056641
  0
LWPOLYLINE
  5
282
100
AcDbEntity
  8
0
100
AcDbPolyline
 62
2
  6
CONTINUOUS
 90
7
 70
0
 43
0.25
 10
11.9877651367
 20
110.66
 10
11.8627636719
 20
110.8065664063
 10
11.7377675781
 20
110.8931376953
 10
11.6127661133
 20
110.9197138672
 10
9.9877685547
 20
111.2651181641
 10
9.9877685547
 20
111.9851132813
 10
11.9877651367
 20
111.5600019531
  0
LWPOLYLINE
  5
283
100
AcDbEntity
  8
0
100
AcDbPolyline
 62
2
  6
CONTINUOUS
 90
4
 70
0
 43
0.25
 10
11.9877651367
 20
113.0599980469
 10
11.9877651367
 20
112.9399970703
 10
11.7377675781
 20
112.9931386719
 10
11.9877651367
 20
113.0599980469
  0
LWPOLYLINE
  5
284
100
AcDbEntity
  8
0
100
AcDbPolyline
 62
2
  6
CONTINUOUS
 90
4
 70
0
 43
0.25
 10
11.9877651367
 20
121.4600019531
 10
8.9877675781
 20
122.0976689453
 10
8.9877675781
 20
123.117671875
 10
11.9877651367
 20
122.4800048828
  0
LWPOLYLINE
  5
285
100
AcDbEntity
  8
0
100
AcDbPolyline
 62
2
  6
CONTINUOUS
 90
17
 70
0
 43
0.25
 10
10.7377666016
 20
123.7056992188
 10
10.3627675781
 20
123.8454013672
 10
10.1127646484
 20
124.0185439453
 10
9.9877685547
 20
124.2251162109
 10
9.9877685547
 20
124.3451171875
 10
10.1127646484
 20
124.4985478516
 10
10.3627675781
 20
124.5654072266
 10
10.7377666016
 20
124.5456953125
 10
11.2377670898
 20
124.4394121094
 10
11.6127661133
 20
124.2997099609
 10
11.8627636719
 20
124.1265673828
 10
11.9877651367
 20
123.9199951172
 10
11.9877651367
 20
123.8000048828
 10
11.8627636719
 20
123.6465742188
 10
11.6127661133
 20
123.5797041016
 10
11.2377670898
 20
123.5994160156
 10
10.7377666016
 20
123.7056992188
  0
LWPOLYLINE
  5
286
100
AcDbEntity
  8
0
100
AcDbPolyline
 62
2
  6
CONTINUOUS
 90
4
 70
0
 43
0.25
 10
12.3627641602
 20
125.1002929688
 10
11.9877651367
 20
125.18
 10
11.9877651367
 20
126.2599980469
 10
12.3627641602
 20
126.1802910156
  0
LWPOLYLINE
  5
287
100
AcDbEntity
  8
0
100
AcDbPolyline
 62
2
  6
CONTINUOUS
 90
7
 70
0
 43
0.25
 10
11.9877651367
 20
125.3000009766
 10
11.7377675781
 20
125.4131376953
 10
11.4877646484
 20
125.5262744141
 10
10.8627680664
 20
125.7191289063
 10
9.9877685547
 20
125.9051083984
 10
9.9877685547
 20
126.5651083984
 10
11.9877651367
 20
126.1399970703
  0
LWPOLYLINE
  5
288
100
AcDbEntity
  8
0
100
AcDbPolyline
 62
2
  6
CONTINUOUS
 90
4
 70
0
 43
0.25
 10
11.9877651367
 20
127.16
 10
9.9877685547
 20
127.5851113281
 10
9.9877685547
 20
128.3051171875
 10
11.9877651367
 20
127.8799951172
  0
LWPOLYLINE
  5
289
100
AcDbEntity
  8
0
100
AcDbPolyline
 62
2
  6
CONTINUOUS
 90
4
 70
0
 43
0.25
 10
11.9877651367
 20
129.6200039063
 10
11.9877651367
 20
129.5000029297
 10
11.7377675781
 20
129.5531337891
 10
11.9877651367
 20
129.6200039063
  0
LWPOLYLINE
  5
28A
100
AcDbEntity
  8
0
100
AcDbPolyline
 62
2
  6
CONTINUOUS
 90
4
 70
0
 43
0.25
 10
9.9877685547
 20
133.5251113281
 10
11.9877651367
 20
133.1
 10
9.9877685547
 20
134.2451171875
 10
11.9877651367
 20
133.8199951172
  0
LWPOLYLINE
  5
28B
100
AcDbEntity
  8
0
100
AcDbPolyline
 62
2
  6
CONTINUOUS
 90
4
 70
0
 43
0.25
 10
12.3627641602
 20
136.6202900391
 10
11.9877651367
 20
136.6999970703
 10
11.9877651367
 20
137.7799951172
 10
12.3627641602
 20
137.7002880859
  0
LWPOLYLINE
  5
28C
100
AcDbEntity
  8
0
100
AcDbPolyline
 62
2
  6
CONTINUOUS
 90
7
 70
0
 43
0.25
 10
11.9877651367
 20
136.8199980469
 10
11.7377675781
 20
136.9331347656
 10
11.4877646484
 20
137.0462822266
 10
10.8627680664
 20
137.2391259766
 10
9.9877685547
 20
137.4251162109
 10
9.9877685547
 20
138.0851162109
 10
11.9877651367
 20
137.6600048828
  0
LWPOLYLINE
  5
28D
100
AcDbEntity
  8
0
100
AcDbPolyline
 62
2
  6
CONTINUOUS
 90
10
 70
0
 43
0.25
 10
10.4877636719
 20
139.1188369141
 10
10.2377661133
 20
139.2319736328
 10
10.1127646484
 20
139.3185449219
 10
9.9877685547
 20
139.4651113281
 10
9.9877685547
 20
139.7651083984
 10
10.1127646484
 20
139.8585439453
 10
10.2377661133
 20
139.8919736328
 10
10.4877636719
 20
139.8988378906
 10
11.8627636719
 20
139.6065644531
 10
11.9877651367
 20
139.6400048828
  0
LWPOLYLINE
  5
28E
100
AcDbEntity
  8
0
100
AcDbPolyline
 62
2
  6
CONTINUOUS
 90
14
 70
0
 43
0.25
 10
10.6127651367
 20
139.8722617188
 10
10.7377666016
 20
139.7856904297
 10
10.8627680664
 20
139.4591279297
 10
10.9877641602
 20
139.1925605469
 10
11.112765625
 20
139.0459833984
 10
11.2377670898
 20
138.9594121094
 10
11.4877646484
 20
138.8462753906
 10
11.6127661133
 20
138.8197099609
 10
11.8627636719
 20
138.8265742188
 10
11.9877651367
 20
138.9800048828
 10
11.9877651367
 20
139.1600009766
 10
11.8627636719
 20
139.3665732422
 10
11.7377675781
 20
139.5131396484
 10
11.4877646484
 20
139.6862822266
  0
LWPOLYLINE
  5
28F
100
AcDbEntity
  8
0
100
AcDbPolyline
 62
2
  6
CONTINUOUS
 90
2
 70
0
 43
0.25
 10
9.9877685547
 20
141.1451142578
 10
9.9877685547
 20
141.9851103516
  0
LWPOLYLINE
  5
290
100
AcDbEntity
  8
0
100
AcDbPolyline
 62
2
  6
CONTINUOUS
 90
2
 70
0
 43
0.25
 10
9.9877685547
 20
141.5651123047
 10
11.9877651367
 20
141.1400009766
  0
LWPOLYLINE
  5
291
100
AcDbEntity
  8
0
100
AcDbPolyline
 62
2
  6
CONTINUOUS
 90
10
 70
0
 43
0.25
 10
10.4877636719
 20
142.9588359375
 10
10.2377661133
 20
143.0719726563
 10
10.1127646484
 20
143.1585439453
 10
9.9877685547
 20
143.3051103516
 10
9.9877685547
 20
143.6051181641
 10
10.1127646484
 20
143.6985429688
 10
10.2377661133
 20
143.7319726563
 10
10.4877636719
 20
143.7388369141
 10
11.8627636719
 20
143.4465742188
 10
11.9877651367
 20
143.4800039063
  0
LWPOLYLINE
  5
292
100
AcDbEntity
  8
0
100
AcDbPolyline
 62
2
  6
CONTINUOUS
 90
14
 70
0
 43
0.25
 10
10.6127651367
 20
143.7122607422
 10
10.7377666016
 20
143.6257001953
 10
10.8627680664
 20
143.2991269531
 10
10.9877641602
 20
143.0325595703
 10
11.112765625
 20
142.8859824219
 10
11.2377670898
 20
142.799421875
 10
11.4877646484
 20
142.6862744141
 10
11.6127661133
 20
142.6597089844
 10
11.8627636719
 20
142.6665732422
 10
11.9877651367
 20
142.8200039063
 10
11.9877651367
 20
143.0
 10
11.8627636719
 20
143.2065722656
 10
11.7377675781
 20
143.3531386719
 10
11.4877646484
 20
143.52628125
  0
LINE
  5
293
100
AcDbEntity
  8
0
100
AcDbLine
 62
7
  6
CONTINUOUS
 10
205.0
 20
5.0
 11
20.0
 21
5.0
  0
LINE
  5
294
100
AcDbEntity
  8
0
100
AcDbLine
 62
7
  6
CONTINUOUS
 10
205.0
 20
5.0
 11
205.0
 21
20.0
  0
LINE
  5
295
100
AcDbEntity
  8
0
100
AcDbLine
 62
7
  6
CONTINUOUS
 10
85.0
 20
10.0
 11
20.0
 21
10.0
  0
LINE
  5
296
100
AcDbEntity
  8
0
100
AcDbLine
 62
7
  6
CONTINUOUS
 10
205.0
 20
13.0
 11
195.0
 21
13.0
  0
LINE
  5
297
100
AcDbEntity
  8
0
100
AcDbLine
 62
7
  6
CONTINUOUS
 10
85.0
 20
15.0
 11
20.0
 21
15.0
  0
LINE
  5
298
100
AcDbEntity
  8
0
100
AcDbLine
 62
7
  6
CONTINUOUS
 10
205.0
 20
20.0
 11
20.0
 21
20.0
  0
LINE
  5
299
100
AcDbEntity
  8
0
100
AcDbLine
 62
7
  6
CONTINUOUS
 10
195.0
 20
5.0
 11
195.0
 21
20.0
  0
LINE
  5
29A
100
AcDbEntity
  8
0
100
AcDbLine
 62
7
  6
CONTINUOUS
 10
85.0
 20
5.0
 11
85.0
 21
20.0
  0
LINE
  5
29B
100
AcDbEntity
  8
0
100
AcDbLine
 62
7
  6
CONTINUOUS
 10
75.0
 20
5.0
 11
75.0
 21
20.0
  0
LINE
  5
29C
100
AcDbEntity
  8
0
100
AcDbLine
 62
7
  6
CONTINUOUS
 10
60.0
 20
5.0
 11
60.0
 21
20.0
  0
LINE
  5
29D
100
AcDbEntity
  8
0
100
AcDbLine
 62
7
  6
CONTINUOUS
 10
37.0
 20
5.0
 11
37.0
 21
20.0
  0
LINE
  5
29E
100
AcDbEntity
  8
0
100
AcDbLine
 62
7
  6
CONTINUOUS
 10
27.0
 20
5.0
 11
27.0
 21
20.0
  0
LINE
  5
29F
100
AcDbEntity
  8
0
100
AcDbLine
 62
7
  6
CONTINUOUS
 10
20.0
 20
5.0
 11
20.0
 21
20.0
  0
LWPOLYLINE
  5
2A0
100
AcDbEntity
  8
0
100
AcDbPolyline
 62
2
  6
CONTINUOUS
 90
13
 70
0
 43
0.25
 10
200.0106523438
 20
10.6108152466
 10
200.3179648438
 20
11.0274818726
 10
200.84403125
 20
11.4441491699
 10
201.2815390625
 20
11.4441491699
 10
201.6304667969
 20
11.0274818726
 10
201.7606621094
 20
10.6108152466
 10
201.5835234375
 20
9.7774819946
 10
201.2762109375
 20
9.3608153687
 10
200.7501445313
 20
8.9441487427
 10
200.224078125
 20
8.5274821167
 10
199.609453125
 20
7.6941481934
 10
199.1250019531
 20
6.4441483154
 10
200.8749902344
 20
6.4441483154
  0
LWPOLYLINE
  5
2A1
100
AcDbEntity
  8
0
100
AcDbPolyline
 62
2
  6
CONTINUOUS
 90
4
 70
0
 43
0.25
 10
97.1504472656
 20
16.410637085
 10
95.4500019531
 20
8.4106373291
 10
99.7004492188
 20
16.410637085
 10
98.0000039063
 20
8.4106373291
  0
LWPOLYLINE
  5
2A2
100
AcDbEntity
  8
0
100
AcDbPolyline
 62
2
  6
CONTINUOUS
 90
12
 70
0
 43
0.25
 10
101.3210800781
 20
12.7439713135
 10
102.8210761719
 20
12.7439713135
 10
103.2002216797
 20
12.410637207
 10
103.3585185547
 20
11.7439703369
 10
103.3668222656
 20
11.0773041382
 10
103.1542558594
 20
10.0773045044
 10
102.8625517578
 20
9.4106376343
 10
102.4208544922
 20
8.7439707642
 10
101.8999980469
 20
8.4106373291
 10
100.4000019531
 20
8.4106373291
 10
102.1004472656
 20
16.410637085
 10
104.2004482422
 20
16.410637085
  0
LWPOLYLINE
  5
2A3
100
AcDbEntity
  8
0
100
AcDbPolyline
 62
2
  6
CONTINUOUS
 90
11
 70
0
 43
0.25
 10
106.1293691406
 20
12.0773044434
 10
107.6293759766
 20
12.0773044434
 10
108.1502216797
 20
12.410637207
 10
108.5919296875
 20
13.0773040771
 10
108.8836337891
 20
13.7439709473
 10
109.0961894531
 20
14.7439705811
 10
109.0878964844
 20
15.4106374512
 10
108.9295996094
 20
16.0773043213
 10
108.5504541016
 20
16.410637085
 10
107.0504472656
 20
16.410637085
 10
105.3500019531
 20
8.4106373291
  0
LWPOLYLINE
  5
2A4
100
AcDbEntity
  8
0
100
AcDbPolyline
 62
2
  6
CONTINUOUS
 90
13
 70
0
 43
0.25
 10
111.4170390625
 20
15.0773046875
 10
111.8587578125
 20
15.7439715576
 10
112.6004628906
 20
16.410637085
 10
113.2004570313
 20
16.410637085
 10
113.6587402344
 20
15.7439715576
 10
113.8170371094
 20
15.0773046875
 10
113.5336367188
 20
13.7439709473
 10
113.0919394531
 20
13.0773040771
 10
112.350234375
 20
12.410637207
 10
111.6085292969
 20
11.7439703369
 10
110.7251132813
 20
10.4106379395
 10
109.9999941406
 20
8.4106373291
 10
112.3999921875
 20
8.4106373291
  0
LWPOLYLINE
  5
2A5
100
AcDbEntity
  8
0
100
AcDbPolyline
 62
2
  6
CONTINUOUS
 90
2
 70
0
 43
0.25
 10
115.0999980469
 20
8.4106373291
 10
118.6004472656
 20
16.410637085
  0
LWPOLYLINE
  5
2A6
100
AcDbEntity
  8
0
100
AcDbPolyline
 62
2
  6
CONTINUOUS
 90
6
 70
0
 43
0.25
 10
120.7999960938
 20
8.4106373291
 10
121.808515625
 20
11.7439703369
 10
122.5336347656
 20
13.7439709473
 10
123.1170429688
 20
15.0773046875
 10
123.7004511719
 20
16.410637085
 10
121.300453125
 20
16.410637085
  0
LWPOLYLINE
  5
2A7
100
AcDbEntity
  8
0
100
AcDbPolyline
 62
2
  6
CONTINUOUS
 90
12
 70
0
 43
0.25
 10
125.3210820313
 20
12.7439713135
 10
126.821078125
 20
12.7439713135
 10
127.200234375
 20
12.410637207
 10
127.35853125
 20
11.7439703369
 10
127.3668242188
 20
11.0773041382
 10
127.1542578125
 20
10.0773045044
 10
126.8625644531
 20
9.4106376343
 10
126.4208457031
 20
8.7439707642
 10
125.9
 20
8.4106373291
 10
124.4000039063
 20
8.4106373291
 10
126.1004492188
 20
16.410637085
 10
128.2004609375
 20
16.410637085
  0
LWPOLYLINE
  5
2A8
100
AcDbEntity
  8
0
100
AcDbPolyline
 62
2
  6
CONTINUOUS
 90
4
 70
0
 43
0.25
 10
130.4000097656
 20
8.4106373291
 10
130.1000019531
 20
8.4106373291
 10
130.2417128906
 20
9.0773041992
 10
130.4000097656
 20
8.4106373291
  0
LWPOLYLINE
  5
2A9
100
AcDbEntity
  8
0
100
AcDbPolyline
 62
2
  6
CONTINUOUS
 90
15
 70
0
 43
0.25
 10
135.2000058594
 20
8.4106373291
 10
134.7417011719
 20
9.0773041992
 10
134.5834042969
 20
9.7439710693
 10
134.5668183594
 20
11.0773041382
 10
135.133640625
 20
13.7439709473
 10
135.7170488281
 20
15.0773046875
 10
136.1587460938
 20
15.7439715576
 10
136.9004511719
 20
16.410637085
 10
137.3587558594
 20
15.7439715576
 10
137.5170527344
 20
15.0773046875
 10
137.5336386719
 20
13.7439709473
 10
136.9668164063
 20
11.0773041382
 10
136.3834082031
 20
9.7439710693
 10
135.9417109375
 20
9.0773041992
 10
135.2000058594
 20
8.4106373291
  0
LWPOLYLINE
  5
2AA
100
AcDbEntity
  8
0
100
AcDbPolyline
 62
2
  6
CONTINUOUS
 90
13
 70
0
 43
0.25
 10
140.2170371094
 20
15.0773046875
 10
140.6587558594
 20
15.7439715576
 10
141.4004609375
 20
16.410637085
 10
142.0004550781
 20
16.410637085
 10
142.4587382813
 20
15.7439715576
 10
142.6170351563
 20
15.0773046875
 10
142.3336347656
 20
13.7439709473
 10
141.8919375
 20
13.0773040771
 10
141.1502324219
 20
12.410637207
 10
140.4085273438
 20
11.7439703369
 10
139.5251113281
 20
10.4106379395
 10
138.7999921875
 20
8.4106373291
 10
141.1999902344
 20
8.4106373291
  0
LWPOLYLINE
  5
2AB
100
AcDbEntity
  8
0
100
AcDbPolyline
 62
2
  6
CONTINUOUS
 90
4
 70
0
 43
0.25
 10
144.7999980469
 20
8.4106373291
 10
144.4999902344
 20
8.4106373291
 10
144.6417011719
 20
9.0773041992
 10
144.7999980469
 20
8.4106373291
  0
LWPOLYLINE
  5
2AC
100
AcDbEntity
  8
0
100
AcDbPolyline
 62
2
  6
CONTINUOUS
 90
15
 70
0
 43
0.25
 10
149.5999941406
 20
8.4106373291
 10
149.1417109375
 20
9.0773041992
 10
148.9834140625
 20
9.7439710693
 10
148.966828125
 20
11.0773041382
 10
149.5336289063
 20
13.7439709473
 10
150.1170371094
 20
15.0773046875
 10
150.5587558594
 20
15.7439715576
 10
151.3004609375
 20
16.410637085
 10
151.7587441406
 20
15.7439715576
 10
151.9170410156
 20
15.0773046875
 10
151.9336269531
 20
13.7439709473
 10
151.3668261719
 20
11.0773041382
 10
150.7834179688
 20
9.7439710693
 10
150.3416992188
 20
9.0773041992
 10
149.5999941406
 20
8.4106373291
  0
LWPOLYLINE
  5
2AD
100
AcDbEntity
  8
0
100
AcDbPolyline
 62
2
  6
CONTINUOUS
 90
15
 70
0
 43
0.25
 10
154.3999902344
 20
8.4106373291
 10
153.9417070313
 20
9.0773041992
 10
153.7834101563
 20
9.7439710693
 10
153.7668242188
 20
11.0773041382
 10
154.333625
 20
13.7439709473
 10
154.9170332031
 20
15.0773046875
 10
155.3587519531
 20
15.7439715576
 10
156.1004570313
 20
16.410637085
 10
156.5587402344
 20
15.7439715576
 10
156.7170371094
 20
15.0773046875
 10
156.7336445313
 20
13.7439709473
 10
156.1668222656
 20
11.0773041382
 10
155.5834140625
 20
9.7439710693
 10
155.1416953125
 20
9.0773041992
 10
154.3999902344
 20
8.4106373291
  0
LWPOLYLINE
  5
2AE
100
AcDbEntity
  8
0
100
AcDbPolyline
 62
2
  6
CONTINUOUS
 90
15
 70
0
 43
0.25
 10
159.2000078125
 20
8.4106373291
 10
158.741703125
 20
9.0773041992
 10
158.58340625
 20
9.7439710693
 10
158.5668203125
 20
11.0773041382
 10
159.1336425781
 20
13.7439709473
 10
159.7170507813
 20
15.0773046875
 10
160.1587480469
 20
15.7439715576
 10
160.900453125
 20
16.410637085
 10
161.3587578125
 20
15.7439715576
 10
161.5170332031
 20
15.0773046875
 10
161.533640625
 20
13.7439709473
 10
160.9668183594
 20
11.0773041382
 10
160.3834101563
 20
9.7439710693
 10
159.9417128906
 20
9.0773041992
 10
159.2000078125
 20
8.4106373291
  0
LWPOLYLINE
  5
2AF
100
AcDbEntity
  8
0
100
AcDbPolyline
 62
2
  6
CONTINUOUS
 90
4
 70
0
 43
0.25
 10
164.0000039063
 20
8.4106373291
 10
163.6999960938
 20
8.4106373291
 10
163.8417070313
 20
9.0773041992
 10
164.0000039063
 20
8.4106373291
  0
LWPOLYLINE
  5
2B0
100
AcDbEntity
  8
0
100
AcDbPolyline
 62
2
  6
CONTINUOUS
 90
15
 70
0
 43
0.25
 10
168.8
 20
8.4106373291
 10
168.3416953125
 20
9.0773041992
 10
168.1833984375
 20
9.7439710693
 10
168.1668125
 20
11.0773041382
 10
168.7336347656
 20
13.7439709473
 10
169.3170429688
 20
15.0773046875
 10
169.7587402344
 20
15.7439715576
 10
170.5004453125
 20
16.410637085
 10
170.95875
 20
15.7439715576
 10
171.117046875
 20
15.0773046875
 10
171.1336328125
 20
13.7439709473
 10
170.5668105469
 20
11.0773041382
 10
169.9834023438
 20
9.7439710693
 10
169.5417050781
 20
9.0773041992
 10
168.8
 20
8.4106373291
  0
LWPOLYLINE
  5
2B1
100
AcDbEntity
  8
0
100
AcDbPolyline
 62
2
  6
CONTINUOUS
 90
15
 70
0
 43
0.25
 10
173.5999960938
 20
8.4106373291
 10
173.1417128906
 20
9.0773041992
 10
172.9834160156
 20
9.7439710693
 10
172.9668085938
 20
11.0773041382
 10
173.5336308594
 20
13.7439709473
 10
174.1170390625
 20
15.0773046875
 10
174.5587578125
 20
15.7439715576
 10
175.3004628906
 20
16.410637085
 10
175.7587460938
 20
15.7439715576
 10
175.9170429688
 20
15.0773046875
 10
175.9336289063
 20
13.7439709473
 10
175.366828125
 20
11.0773041382
 10
174.7833984375
 20
9.7439710693
 10
174.3417011719
 20
9.0773041992
 10
173.5999960938
 20
8.4106373291
  0
LWPOLYLINE
  5
2B2
100
AcDbEntity
  8
0
100
AcDbPolyline
 62
2
  6
CONTINUOUS
 90
22
 70
0
 43
0.25
 10
181.17534375
 20
14.4106378174
 10
181.1670507813
 20
15.0773046875
 10
181.0087539063
 20
15.7439715576
 10
180.7796015625
 20
16.0773043213
 10
180.4004453125
 20
16.410637085
 10
179.9504550781
 20
16.410637085
 10
179.429609375
 20
16.0773043213
 10
179.0587460938
 20
15.7439715576
 10
178.6170488281
 20
15.0773046875
 10
178.3253339844
 20
14.4106378174
 10
177.9627851563
 20
13.4106381836
 10
177.5376738281
 20
11.4106375732
 10
177.4751113281
 20
10.4106379395
 10
177.4834042969
 20
9.7439710693
 10
177.6417011719
 20
9.0773041992
 10
177.8708535156
 20
8.7439707642
 10
178.2500097656
 20
8.4106373291
 10
178.7
 20
8.4106373291
 10
179.2208457031
 20
8.7439707642
 10
179.5917089844
 20
9.0773041992
 10
180.03340625
 20
9.7439710693
 10
180.3959550781
 20
10.7439707031
  0
LWPOLYLINE
  5
2B3
100
AcDbEntity
  8
0
100
AcDbPolyline
 62
2
  6
CONTINUOUS
 90
12
 70
0
 43
0.25
 10
182.921078125
 20
12.7439713135
 10
184.4210742188
 20
12.7439713135
 10
184.8002304688
 20
12.410637207
 10
184.9585273438
 20
11.7439703369
 10
184.9668203125
 20
11.0773041382
 10
184.7542539063
 20
10.0773045044
 10
184.4625605469
 20
9.4106376343
 10
184.0208417969
 20
8.7439707642
 10
183.4999960938
 20
8.4106373291
 10
182.0
 20
8.4106373291
 10
183.7004453125
 20
16.410637085
 10
185.8004570313
 20
16.410637085
  0
LWPOLYLINE
  5
2B4
100
AcDbEntity
  8
0
100
AcDbPolyline
 62
2
  6
CONTINUOUS
 90
4
 70
0
 43
0.25
 10
75.9952773438
 20
5.3414889526
 10
76.1281259766
 20
5.9664888916
 10
77.5062519531
 20
5.9664888916
 10
77.3734033203
 20
5.3414889526
  0
LWPOLYLINE
  5
2B5
100
AcDbEntity
  8
0
100
AcDbPolyline
 62
2
  6
CONTINUOUS
 90
7
 70
0
 43
0.25
 10
76.2593740234
 20
5.9664888916
 10
76.4969052734
 20
6.4664893799
 10
76.6688017578
 20
6.9664891968
 10
76.9735576172
 20
8.0914889526
 10
77.1595478516
 20
8.9664891357
 10
78.0126708984
 20
8.9664891357
 10
77.3750039063
 20
5.9664888916
  0
LWPOLYLINE
  5
2B6
100
AcDbEntity
  8
0
100
AcDbPolyline
 62
2
  6
CONTINUOUS
 90
10
 70
0
 43
0.25
 10
78.8094619141
 20
7.4664890137
 10
78.9282275391
 20
7.7164892578
 10
79.0204169922
 20
7.8414893799
 10
79.1782412109
 20
7.9664888306
 10
79.5063613281
 20
7.9664888306
 10
79.6110439453
 20
7.8414893799
 10
79.6501025391
 20
7.7164892578
 10
79.6625849609
 20
7.4664890137
 10
79.3703222656
 20
6.0914890137
 10
79.4093701172
 20
5.9664888916
  0
LWPOLYLINE
  5
2B7
100
AcDbEntity
  8
0
100
AcDbPolyline
 62
2
  6
CONTINUOUS
 90
14
 70
0
 43
0.25
 10
79.6360195313
 20
7.3414888916
 10
79.5438193359
 20
7.2164894409
 10
79.1891230469
 20
7.0914893188
 10
78.9000615234
 20
6.9664891968
 10
78.7422373047
 20
6.8414890747
 10
78.6500371094
 20
6.7164889526
 10
78.5312822266
 20
6.4664893799
 10
78.5047060547
 20
6.3414892578
 10
78.5171992188
 20
6.0914890137
 10
78.6874951172
 20
5.9664888916
 10
78.8843779297
 20
5.9664888916
 10
79.1078154297
 20
6.0914890137
 10
79.2656396484
 20
6.2164891357
 10
79.4500292969
 20
6.4664893799
  0
LWPOLYLINE
  5
2B8
100
AcDbEntity
  8
0
100
AcDbPolyline
 62
2
  6
CONTINUOUS
 90
2
 70
0
 43
0.25
 10
81.0157353516
 20
7.9664888306
 10
81.9344931641
 20
7.9664888306
  0
LWPOLYLINE
  5
2B9
100
AcDbEntity
  8
0
100
AcDbPolyline
 62
2
  6
CONTINUOUS
 90
2
 70
0
 43
0.25
 10
81.4751142578
 20
7.9664888306
 10
81.0500029297
 20
5.9664888916
  0
LWPOLYLINE
  5
2BA
100
AcDbEntity
  8
0
100
AcDbPolyline
 62
2
  6
CONTINUOUS
 90
10
 70
0
 43
0.25
 10
83.0094638672
 20
7.4664890137
 10
83.12821875
 20
7.7164892578
 10
83.2204189453
 20
7.8414893799
 10
83.3782431641
 20
7.9664888306
 10
83.7063632813
 20
7.9664888306
 10
83.8110458984
 20
7.8414893799
 10
83.85009375
 20
7.7164892578
 10
83.8625869141
 20
7.4664890137
 10
83.5703242188
 20
6.0914890137
 10
83.6093720703
 20
5.9664888916
  0
LWPOLYLINE
  5
2BB
100
AcDbEntity
  8
0
100
AcDbPolyline
 62
2
  6
CONTINUOUS
 90
14
 70
0
 43
0.25
 10
83.8360107422
 20
7.3414888916
 10
83.7438212891
 20
7.2164894409
 10
83.389125
 20
7.0914893188
 10
83.1000527344
 20
6.9664891968
 10
82.9422392578
 20
6.8414890747
 10
82.8500390625
 20
6.7164889526
 10
82.7312734375
 20
6.4664893799
 10
82.7047080078
 20
6.3414892578
 10
82.7171904297
 20
6.0914890137
 10
82.8874970703
 20
5.9664888916
 10
83.0843798828
 20
5.9664888916
 10
83.3078173828
 20
6.0914890137
 10
83.4656416016
 20
6.2164891357
 10
83.65003125
 20
6.4664893799
  0
LWPOLYLINE
  5
2BC
100
AcDbEntity
  8
0
100
AcDbPolyline
 62
2
  6
CONTINUOUS
 90
4
 70
0
 43
0.25
 10
60.6749951172
 20
5.9664888916
 10
61.3126728516
 20
8.9664891357
 10
62.4282919922
 20
8.9664891357
 10
61.790625
 20
5.9664888916
  0
LWPOLYLINE
  5
2BD
100
AcDbEntity
  8
0
100
AcDbPolyline
 62
2
  6
CONTINUOUS
 90
17
 70
0
 43
0.25
 10
63.1063173828
 20
7.2164894409
 10
63.2516591797
 20
7.5914891357
 10
63.4360488281
 20
7.8414893799
 10
63.6594863281
 20
7.9664888306
 10
63.790734375
 20
7.9664888306
 10
63.9610410156
 20
7.8414893799
 10
64.0391582031
 20
7.5914891357
 10
64.0250751953
 20
7.2164894409
 10
63.9187919922
 20
6.7164889526
 10
63.7734609375
 20
6.3414892578
 10
63.5890712891
 20
6.0914890137
 10
63.3656230469
 20
5.9664888916
 10
63.234375
 20
5.9664888916
 10
63.0640683594
 20
6.0914890137
 10
62.9859619141
 20
6.3414892578
 10
63.0000449219
 20
6.7164889526
 10
63.1063173828
 20
7.2164894409
  0
LWPOLYLINE
  5
2BE
100
AcDbEntity
  8
0
100
AcDbPolyline
 62
2
  6
CONTINUOUS
 90
4
 70
0
 43
0.25
 10
64.6640419922
 20
5.5914891968
 10
64.7437490234
 20
5.9664888916
 10
65.9250029297
 20
5.9664888916
 10
65.8452958984
 20
5.5914891968
  0
LWPOLYLINE
  5
2BF
100
AcDbEntity
  8
0
100
AcDbPolyline
 62
2
  6
CONTINUOUS
 90
7
 70
0
 43
0.25
 10
64.8749970703
 20
5.9664888916
 10
64.9937626953
 20
6.2164891357
 10
65.1125283203
 20
6.4664893799
 10
65.3110009766
 20
7.0914893188
 10
65.4969912109
 20
7.9664888306
 10
66.2188662109
 20
7.9664888306
 10
65.7937548828
 20
5.9664888916
  0
LWPOLYLINE
  5
2C0
100
AcDbEntity
  8
0
100
AcDbPolyline
 62
2
  6
CONTINUOUS
 90
4
 70
0
 43
0.25
 10
66.9093740234
 20
5.9664888916
 10
67.3344853516
 20
7.9664888306
 10
68.121984375
 20
7.9664888306
 10
67.6968730469
 20
5.9664888916
  0
LWPOLYLINE
  5
2C1
100
AcDbEntity
  8
0
100
AcDbPolyline
 62
2
  6
CONTINUOUS
 90
4
 70
0
 43
0.25
 10
69.6313583984
 20
7.9664888306
 10
69.2062470703
 20
5.9664888916
 10
70.4188681641
 20
7.9664888306
 10
69.9937460938
 20
5.9664888916
  0
LWPOLYLINE
  5
2C2
100
AcDbEntity
  8
0
100
AcDbPolyline
 62
2
  6
CONTINUOUS
 90
14
 70
0
 43
0.25
 10
72.4391513672
 20
7.5914891357
 10
72.3610449219
 20
7.8414893799
 10
72.1907382813
 20
7.9664888306
 10
72.0594902344
 20
7.9664888306
 10
71.8360419922
 20
7.8414893799
 10
71.6516523438
 20
7.5914891357
 10
71.5063212891
 20
7.2164894409
 10
71.4000380859
 20
6.7164889526
 10
71.3859550781
 20
6.3414892578
 10
71.4640722656
 20
6.0914890137
 10
71.6343789063
 20
5.9664888916
 10
71.7656269531
 20
5.9664888916
 10
71.9890644531
 20
6.0914890137
 10
72.1734541016
 20
6.3414892578
  0
LWPOLYLINE
  5
2C3
100
AcDbEntity
  8
0
100
AcDbPolyline
 62
2
  6
CONTINUOUS
 90
11
 70
0
 43
0.25
 10
73.8313603516
 20
7.9664888306
 10
73.4062490234
 20
5.9664888916
 10
73.9968759766
 20
5.9664888916
 10
74.1546894531
 20
6.0914890137
 10
74.2468896484
 20
6.2164891357
 10
74.3656552734
 20
6.4664893799
 10
74.3922207031
 20
6.5914888306
 10
74.3797382813
 20
6.8414890747
 10
74.3406796875
 20
6.9664891968
 10
74.2359970703
 20
7.0914893188
 10
73.6453808594
 20
7.0914893188
  0
LWPOLYLINE
  5
2C4
100
AcDbEntity
  8
0
100
AcDbPolyline
 62
2
  6
CONTINUOUS
 90
4
 70
0
 43
0.25
 10
40.6250029297
 20
5.9664888916
 10
41.2626699219
 20
8.9664891357
 10
41.6749980469
 20
5.9664888916
 10
42.3126650391
 20
8.9664891357
  0
LWPOLYLINE
  5
2C5
100
AcDbEntity
  8
0
100
AcDbPolyline
 62
2
  6
CONTINUOUS
 90
4
 70
0
 43
0.25
 10
44.6140390625
 20
5.5914891968
 10
44.6937460938
 20
5.9664888916
 10
45.875
 20
5.9664888916
 10
45.7952929688
 20
5.5914891968
  0
LWPOLYLINE
  5
2C6
100
AcDbEntity
  8
0
100
AcDbPolyline
 62
2
  6
CONTINUOUS
 90
7
 70
0
 43
0.25
 10
44.8250048828
 20
5.9664888916
 10
44.9437597656
 20
6.2164891357
 10
45.0625253906
 20
6.4664893799
 10
45.2609980469
 20
7.0914893188
 10
45.4469882813
 20
7.9664888306
 10
46.1688632813
 20
7.9664888306
 10
45.7437519531
 20
5.9664888916
  0
LWPOLYLINE
  5
2C7
100
AcDbEntity
  8
0
100
AcDbPolyline
 62
2
  6
CONTINUOUS
 90
17
 70
0
 43
0.25
 10
47.2563164063
 20
7.2164894409
 10
47.4016582031
 20
7.5914891357
 10
47.5860478516
 20
7.8414893799
 10
47.8094853516
 20
7.9664888306
 10
47.9407333984
 20
7.9664888306
 10
48.1110400391
 20
7.8414893799
 10
48.1891572266
 20
7.5914891357
 10
48.1750742188
 20
7.2164894409
 10
48.0687910156
 20
6.7164889526
 10
47.9234599609
 20
6.3414892578
 10
47.7390703125
 20
6.0914890137
 10
47.5156220703
 20
5.9664888916
 10
47.3843740234
 20
5.9664888916
 10
47.2140673828
 20
6.0914890137
 10
47.1359609375
 20
6.3414892578
 10
47.1500439453
 20
6.7164889526
 10
47.2563164063
 20
7.2164894409
  0
LWPOLYLINE
  5
2C8
100
AcDbEntity
  8
0
100
AcDbPolyline
 62
2
  6
CONTINUOUS
 90
2
 70
0
 43
0.25
 10
49.6469902344
 20
7.9664888306
 10
49.2218789063
 20
5.9664888916
  0
LWPOLYLINE
  5
2C9
100
AcDbEntity
  8
0
100
AcDbPolyline
 62
2
  6
CONTINUOUS
 90
8
 70
0
 43
0.25
 10
49.461
 20
7.0914893188
 10
49.5922480469
 20
7.0914893188
 10
49.7234960938
 20
7.0914893188
 10
49.8813203125
 20
7.2164894409
 10
50.0000859375
 20
7.4664890137
 10
50.1454169922
 20
7.8414893799
 10
50.2376171875
 20
7.9664888306
 10
50.3032412109
 20
7.9664888306
  0
LWPOLYLINE
  5
2CA
100
AcDbEntity
  8
0
100
AcDbPolyline
 62
2
  6
CONTINUOUS
 90
4
 70
0
 43
0.25
 10
49.7234960938
 20
7.0914893188
 10
49.8281787109
 20
6.9664891968
 10
49.8672373047
 20
6.8414890747
 10
49.9437539063
 20
5.9664888916
  0
LWPOLYLINE
  5
2CB
100
AcDbEntity
  8
0
100
AcDbPolyline
 62
2
  6
CONTINUOUS
 90
7
 70
0
 43
0.25
 10
51.0046416016
 20
5.0914890442
 10
51.0436894531
 20
4.9664892578
 10
51.1093134766
 20
4.9664892578
 10
51.2671376953
 20
5.0914890442
 10
51.3593378906
 20
5.2164891663
 10
51.5968583984
 20
5.7164893188
 10
52.4688662109
 20
7.9664888306
  0
LWPOLYLINE
  5
2CC
100
AcDbEntity
  8
0
100
AcDbPolyline
 62
2
  6
CONTINUOUS
 90
2
 70
0
 43
0.25
 10
51.5501083984
 20
7.9664888306
 10
51.5968583984
 20
5.7164893188
  0
LWPOLYLINE
  5
2CD
100
AcDbEntity
  8
0
100
AcDbPolyline
 62
2
  6
CONTINUOUS
 90
5
 70
0
 43
0.25
 10
53.2249980469
 20
5.9664888916
 10
53.650109375
 20
7.9664888306
 10
53.7765664063
 20
6.0914890137
 10
54.7001152344
 20
7.9664888306
 10
54.2750039063
 20
5.9664888916
  0
LWPOLYLINE
  5
2CE
100
AcDbEntity
  8
0
100
AcDbPolyline
 62
2
  6
CONTINUOUS
 90
4
 70
0
 43
0.25
 10
55.8500019531
 20
5.9664888916
 10
55.7187539063
 20
5.9664888916
 10
55.7718847656
 20
6.2164891357
 10
55.8500019531
 20
5.9664888916
  0
LWPOLYLINE
  5
2CF
100
AcDbEntity
  8
0
100
AcDbPolyline
 62
2
  6
CONTINUOUS
 90
8
 70
0
 43
0.25
 10
28.2203222656
 20
6.0914890137
 10
28.2593701172
 20
5.9664888916
 10
28.3906289063
 20
5.9664888916
 10
28.4828183594
 20
6.0914890137
 10
28.6015839844
 20
6.3414892578
 10
29.1595439453
 20
8.9664891357
 10
30.0126669922
 20
8.9664891357
 10
29.375
 20
5.9664888916
  0
LWPOLYLINE
  5
2D0
100
AcDbEntity
  8
0
100
AcDbPolyline
 62
2
  6
CONTINUOUS
 90
4
 70
0
 43
0.25
 10
30.9813652344
 20
7.9664888306
 10
30.5562539063
 20
5.9664888916
 10
31.7688642578
 20
7.9664888306
 10
31.3437529297
 20
5.9664888916
  0
LWPOLYLINE
  5
2D1
100
AcDbEntity
  8
0
100
AcDbPolyline
 62
2
  6
CONTINUOUS
 90
14
 70
0
 43
0.25
 10
33.7891582031
 20
7.5914891357
 10
33.7110410156
 20
7.8414893799
 10
33.540734375
 20
7.9664888306
 10
33.4094863281
 20
7.9664888306
 10
33.1860488281
 20
7.8414893799
 10
33.0016591797
 20
7.5914891357
 10
32.8563173828
 20
7.2164894409
 10
32.7500449219
 20
6.7164889526
 10
32.7359619141
 20
6.3414892578
 10
32.8140683594
 20
6.0914890137
 10
32.984375
 20
5.9664888916
 10
33.1156230469
 20
5.9664888916
 10
33.3390712891
 20
6.0914890137
 10
33.5234609375
 20
6.3414892578
  0
LWPOLYLINE
  5
2D2
100
AcDbEntity
  8
0
100
AcDbPolyline
 62
2
  6
CONTINUOUS
 90
2
 70
0
 43
0.25
 10
35.1157431641
 20
7.9664888306
 10
36.0344902344
 20
7.9664888306
  0
LWPOLYLINE
  5
2D3
100
AcDbEntity
  8
0
100
AcDbPolyline
 62
2
  6
CONTINUOUS
 90
2
 70
0
 43
0.25
 10
35.5751113281
 20
7.9664888306
 10
35.15
 20
5.9664888916
  0
LWPOLYLINE
  5
2D4
100
AcDbEntity
  8
0
100
AcDbPolyline
 62
2
  6
CONTINUOUS
 90
4
 70
0
 43
0.25
 10
21.4470400391
 20
8.9664891357
 10
20.8093730469
 20
5.9664888916
 10
22.5626699219
 20
8.9664891357
 10
21.9250029297
 20
5.9664888916
  0
LWPOLYLINE
  5
2D5
100
AcDbEntity
  8
0
100
AcDbPolyline
 62
2
  6
CONTINUOUS
 90
10
 70
0
 43
0.25
 10
23.4516503906
 20
7.5914891357
 10
23.5704160156
 20
7.8414893799
 10
23.7282402344
 20
7.9664888306
 10
23.9907363281
 20
7.9664888306
 10
24.0954189453
 20
7.8414893799
 10
24.1079013672
 20
7.5914891357
 10
24.0813359375
 20
7.4664890137
 10
23.9625703125
 20
7.2164894409
 10
23.8047460938
 20
7.0914893188
 10
23.6078740234
 20
7.0914893188
  0
LWPOLYLINE
  5
2D6
100
AcDbEntity
  8
0
100
AcDbPolyline
 62
2
  6
CONTINUOUS
 90
12
 70
0
 43
0.25
 10
23.1469052734
 20
6.4664893799
 10
23.1593876953
 20
6.2164891357
 10
23.1984462891
 20
6.0914890137
 10
23.3031289063
 20
5.9664888916
 10
23.565625
 20
5.9664888916
 10
23.7234492188
 20
6.0914890137
 10
23.8156386719
 20
6.2164891357
 10
23.9344042969
 20
6.4664893799
 10
23.9609697266
 20
6.5914888306
 10
23.9484873047
 20
6.8414890747
 10
23.9094287109
 20
6.9664891968
 10
23.8047460938
 20
7.0914893188
  0
LWPOLYLINE
  5
2D7
100
AcDbEntity
  8
0
100
AcDbPolyline
 62
2
  6
CONTINUOUS
 90
5
 70
0
 43
0.25
 10
25.0749990234
 20
5.9664888916
 10
25.5001103516
 20
7.9664888306
 10
25.6265673828
 20
6.0914890137
 10
26.5501162109
 20
7.9664888306
 10
26.1250048828
 20
5.9664888916
  0
LWPOLYLINE
  5
2D8
100
AcDbEntity
  8
0
100
AcDbPolyline
 62
2
  6
CONTINUOUS
 90
8
 70
0
 43
0.25
 10
196.2203144531
 20
15.0914897461
 10
196.2593730469
 20
14.966489624
 10
196.3906210938
 20
14.966489624
 10
196.4828105469
 20
15.0914897461
 10
196.6015761719
 20
15.3414886475
 10
197.159546875
 20
17.9664885254
 10
198.0126699219
 20
17.9664885254
 10
197.3749921875
 20
14.966489624
  0
LWPOLYLINE
  5
2D9
100
AcDbEntity
  8
0
100
AcDbPolyline
 62
2
  6
CONTINUOUS
 90
4
 70
0
 43
0.25
 10
198.9813574219
 20
16.9664888916
 10
198.5562460938
 20
14.966489624
 10
199.7688671875
 20
16.9664888916
 10
199.3437558594
 20
14.966489624
  0
LWPOLYLINE
  5
2DA
100
AcDbEntity
  8
0
100
AcDbPolyline
 62
2
  6
CONTINUOUS
 90
14
 70
0
 43
0.25
 10
201.7891503906
 20
16.5914885254
 10
201.7110332031
 20
16.8414887695
 10
201.5407480469
 20
16.9664888916
 10
201.4094785156
 20
16.9664888916
 10
201.1860410156
 20
16.8414887695
 10
201.0016621094
 20
16.5914885254
 10
200.8563203125
 20
16.216489502
 10
200.7500371094
 20
15.7164890137
 10
200.7359648438
 20
15.3414886475
 10
200.8140605469
 20
15.0914897461
 10
200.9843671875
 20
14.966489624
 10
201.1156152344
 20
14.966489624
 10
201.3390742187
 20
15.0914897461
 10
201.523453125
 20
15.3414886475
  0
LWPOLYLINE
  5
2DB
100
AcDbEntity
  8
0
100
AcDbPolyline
 62
2
  6
CONTINUOUS
 90
2
 70
0
 43
0.25
 10
203.1157460938
 20
16.9664888916
 10
204.0344824219
 20
16.9664888916
  0
LWPOLYLINE
  5
2DC
100
AcDbEntity
  8
0
100
AcDbPolyline
 62
2
  6
CONTINUOUS
 90
2
 70
0
 43
0.25
 10
203.5751035156
 20
16.9664888916
 10
203.1499921875
 20
14.966489624
  0
LINE
  5
2DD
100
AcDbEntity
  8
0
100
AcDbLine
 62
7
  6
CONTINUOUS
 10
205.0
 20
292.0
 11
20.0
 21
292.0
  0
LINE
  5
2DE
100
AcDbEntity
  8
0
100
AcDbLine
 62
7
  6
CONTINUOUS
 10
205.0
 20
292.0
 11
205.0
 21
229.0
  0
LINE
  5
2DF
100
AcDbEntity
  8
0
100
AcDbLine
 62
7
  6
CONTINUOUS
 10
205.0
 20
277.0
 11
20.0
 21
277.0
  0
LINE
  5
2E0
100
AcDbEntity
  8
0
100
AcDbLine
 62
7
  6
CONTINUOUS
 10
205.0
 20
269.0
 11
20.0
 21
269.0
  0
LINE
  5
2E1
100
AcDbEntity
  8
0
100
AcDbLine
 62
7
  6
CONTINUOUS
 10
205.0
 20
261.0
 11
20.0
 21
261.0
  0
LINE
  5
2E2
100
AcDbEntity
  8
0
100
AcDbLine
 62
7
  6
CONTINUOUS
 10
205.0
 20
253.0
 11
20.0
 21
253.0
  0
LINE
  5
2E3
100
AcDbEntity
  8
0
100
AcDbLine
 62
7
  6
CONTINUOUS
 10
205.0
 20
245.0
 11
20.0
 21
245.0
  0
LINE
  5
2E4
100
AcDbEntity
  8
0
100
AcDbLine
 62
7
  6
CONTINUOUS
 10
205.0
 20
237.0
 11
20.0
 21
237.0
  0
LINE
  5
2E5
100
AcDbEntity
  8
0
100
AcDbLine
 62
7
  6
CONTINUOUS
 10
205.0
 20
229.0
 11
20.0
 21
229.0
  0
LINE
  5
2E6
100
AcDbEntity
  8
0
100
AcDbLine
 62
7
  6
CONTINUOUS
 10
183.0
 20
292.0
 11
183.0
 21
229.0
  0
LINE
  5
2E7
100
AcDbEntity
  8
0
100
AcDbLine
 62
7
  6
CONTINUOUS
 10
173.0
 20
292.0
 11
173.0
 21
229.0
  0
LINE
  5
2E8
100
AcDbEntity
  8
0
100
AcDbLine
 62
7
  6
CONTINUOUS
 10
110.0
 20
292.0
 11
110.0
 21
229.0
  0
LINE
  5
2E9
100
AcDbEntity
  8
0
100
AcDbLine
 62
7
  6
CONTINUOUS
 10
40.0
 20
292.0
 11
40.0
 21
229.0
  0
LINE
  5
2EA
100
AcDbEntity
  8
0
100
AcDbLine
 62
7
  6
CONTINUOUS
 10
32.0
 20
292.0
 11
32.0
 21
229.0
  0
LINE
  5
2EB
100
AcDbEntity
  8
0
100
AcDbLine
 62
7
  6
CONTINUOUS
 10
26.0
 20
292.0
 11
26.0
 21
229.0
  0
LINE
  5
2EC
100
AcDbEntity
  8
0
100
AcDbLine
 62
7
  6
CONTINUOUS
 10
20.0
 20
292.0
 11
20.0
 21
229.0
  0
LWPOLYLINE
  5
2ED
100
AcDbEntity
  8
0
100
AcDbPolyline
 62
2
  6
CONTINUOUS
 90
4
 70
0
 43
0.25
 10
185.7499902344
 20
285.5223378906
 10
186.600234375
 20
289.5223417969
 10
188.1939667969
 20
289.5223417969
 10
187.3437441406
 20
285.5223378906
  0
LWPOLYLINE
  5
2EE
100
AcDbEntity
  8
0
100
AcDbPolyline
 62
2
  6
CONTINUOUS
 90
2
 70
0
 43
0.25
 10
189.3168261719
 20
288.189
 10
188.4665820313
 20
284.1890175781
  0
LWPOLYLINE
  5
2EF
100
AcDbEntity
  8
0
100
AcDbPolyline
 62
2
  6
CONTINUOUS
 90
16
 70
0
 43
0.25
 10
189.1396875
 20
287.3556640625
 10
189.3042792969
 20
287.689015625
 10
189.5626503906
 20
288.0223457031
 10
189.7855722656
 20
288.189
 10
190.0668242188
 20
288.189
 10
190.218890625
 20
288.0223457031
 10
190.3355292969
 20
287.689015625
 10
190.3230039063
 20
287.1890097656
 10
190.1813144531
 20
286.5223496094
 10
189.9812734375
 20
286.02234375
 10
189.7229238281
 20
285.6890136719
 10
189.5000019531
 20
285.5223378906
 10
189.3125078125
 20
285.5223378906
 10
189.0666835938
 20
285.6890136719
 10
188.9500234375
 20
286.02234375
 10
188.9271210938
 20
286.3556738281
  0
LWPOLYLINE
  5
2F0
100
AcDbEntity
  8
0
100
AcDbPolyline
 62
2
  6
CONTINUOUS
 90
4
 70
0
 43
0.25
 10
192.5043125
 20
288.189
 10
191.9374902344
 20
285.5223378906
 10
193.6293203125
 20
288.189
 10
193.0624980469
 20
285.5223378906
  0
LWPOLYLINE
  5
2F1
100
AcDbEntity
  8
0
100
AcDbPolyline
 62
2
  6
CONTINUOUS
 90
5
 70
0
 43
0.25
 10
194.7500097656
 20
285.5223378906
 10
195.3168105469
 20
288.189
 10
195.5354355469
 20
285.6890136719
 10
196.816828125
 20
288.189
 10
196.2500058594
 20
285.5223378906
  0
LWPOLYLINE
  5
2F2
100
AcDbEntity
  8
0
100
AcDbPolyline
 62
2
  6
CONTINUOUS
 90
18
 70
0
 43
0.25
 10
199.3333789063
 20
286.3556738281
 10
199.1687871094
 20
286.02234375
 10
198.9104160156
 20
285.6890136719
 10
198.5937578125
 20
285.5223378906
 10
198.4062421875
 20
285.5223378906
 10
198.1604179688
 20
285.6890136719
 10
198.0437792969
 20
286.02234375
 10
198.0563046875
 20
286.5223496094
 10
198.198015625
 20
287.1890097656
 10
198.3980351563
 20
287.689015625
 10
198.6563847656
 20
288.0223457031
 10
198.9730644531
 20
288.189
 10
199.1605585938
 20
288.189
 10
199.4063828125
 20
288.0223457031
 10
199.5230429688
 20
287.689015625
 10
199.5105175781
 20
287.1890097656
 10
199.4750898438
 20
287.0223339844
 10
198.1625878906
 20
287.0223339844
  0
LWPOLYLINE
  5
2F3
100
AcDbEntity
  8
0
100
AcDbPolyline
 62
2
  6
CONTINUOUS
 90
2
 70
0
 43
0.25
 10
201.3626210938
 20
287.5223398438
 10
202.4876074219
 20
287.5223398438
  0
LWPOLYLINE
  5
2F4
100
AcDbEntity
  8
0
100
AcDbPolyline
 62
2
  6
CONTINUOUS
 90
7
 70
0
 43
0.25
 10
187.9105664063
 20
282.054953125
 10
187.7334277344
 20
281.2216386719
 10
187.7563300781
 20
280.8882871094
 10
187.8146601562
 20
280.7216328125
 10
187.9667265625
 20
280.5549570313
 10
188.3417363281
 20
280.5549570313
 10
188.7521523438
 20
280.7216328125
  0
LWPOLYLINE
  5
2F5
100
AcDbEntity
  8
0
100
AcDbPolyline
 62
2
  6
CONTINUOUS
 90
2
 70
0
 43
0.25
 10
189.0355742188
 20
282.054953125
 10
188.4687519531
 20
279.3882910156
  0
LWPOLYLINE
  5
2F6
100
AcDbEntity
  8
0
100
AcDbPolyline
 62
2
  6
CONTINUOUS
 90
10
 70
0
 43
0.25
 10
190.7688691406
 20
281.3882929688
 10
190.9334609375
 20
281.7216230469
 10
191.0626464844
 20
281.8882988281
 10
191.2855683594
 20
282.054953125
 10
191.7543144531
 20
282.054953125
 10
191.9063808594
 20
281.8882988281
 10
191.9647109375
 20
281.7216230469
 10
191.9876132813
 20
281.3882929688
 10
191.5979296875
 20
279.5549667969
 10
191.6562597656
 20
279.3882910156
  0
LWPOLYLINE
  5
2F7
100
AcDbEntity
  8
0
100
AcDbPolyline
 62
2
  6
CONTINUOUS
 90
14
 70
0
 43
0.25
 10
191.9521855469
 20
281.2216386719
 10
191.8230214844
 20
281.0549628906
 10
191.3188261719
 20
280.8882871094
 10
190.9084101562
 20
280.7216328125
 10
190.6854882813
 20
280.5549570313
 10
190.5563027344
 20
280.3883027344
 10
190.3917109375
 20
280.0549726563
 10
190.3562832031
 20
279.888296875
 10
190.3791855469
 20
279.5549667969
 10
190.6250097656
 20
279.3882910156
 10
190.9062402344
 20
279.3882910156
 10
191.2229199219
 20
279.5549667969
 10
191.4458417969
 20
279.7216210938
 10
191.7042128906
 20
280.0549726563
  0
LWPOLYLINE
  5
2F8
100
AcDbEntity
  8
0
100
AcDbPolyline
 62
2
  6
CONTINUOUS
 90
2
 70
0
 43
0.25
 10
193.9105722656
 20
282.054953125
 10
193.34375
 20
279.3882910156
  0
LWPOLYLINE
  5
2F9
100
AcDbEntity
  8
0
100
AcDbPolyline
 62
2
  6
CONTINUOUS
 90
2
 70
0
 43
0.25
 10
193.662578125
 20
280.8882871094
 10
194.7875859375
 20
280.8882871094
  0
LWPOLYLINE
  5
2FA
100
AcDbEntity
  8
0
100
AcDbPolyline
 62
2
  6
CONTINUOUS
 90
2
 70
0
 43
0.25
 10
195.0355585938
 20
282.054953125
 10
194.4687578125
 20
279.3882910156
  0
LWPOLYLINE
  5
2FB
100
AcDbEntity
  8
0
100
AcDbPolyline
 62
2
  6
CONTINUOUS
 90
4
 70
0
 43
0.25
 10
197.0043222656
 20
282.054953125
 10
196.4375
 20
279.3882910156
 10
198.1293085938
 20
282.054953125
 10
197.5625078125
 20
279.3882910156
  0
LWPOLYLINE
  5
2FC
100
AcDbEntity
  8
0
100
AcDbPolyline
 62
2
  6
CONTINUOUS
 90
18
 70
0
 43
0.25
 10
200.833375
 20
280.2216269531
 10
200.6687832031
 20
279.888296875
 10
200.4104335938
 20
279.5549667969
 10
200.0937539063
 20
279.3882910156
 10
199.9062597656
 20
279.3882910156
 10
199.6604355469
 20
279.5549667969
 10
199.5437753906
 20
279.888296875
 10
199.5563007813
 20
280.3883027344
 10
199.6980117188
 20
281.0549628906
 10
199.89803125
 20
281.55496875
 10
200.1563808594
 20
281.8882988281
 10
200.4730605469
 20
282.054953125
 10
200.6605761719
 20
282.054953125
 10
200.9064003906
 20
281.8882988281
 10
201.0230390625
 20
281.55496875
 10
201.0105136719
 20
281.0549628906
 10
200.9750859375
 20
280.8882871094
 10
199.6625839844
 20
280.8882871094
  0
LWPOLYLINE
  5
2FD
100
AcDbEntity
  8
0
100
AcDbPolyline
 62
2
  6
CONTINUOUS
 90
2
 70
0
 43
0.25
 10
175.8580039063
 20
286.2109121094
 10
175.1140644531
 20
282.7109140625
  0
LWPOLYLINE
  5
2FE
100
AcDbEntity
  8
0
100
AcDbPolyline
 62
2
  6
CONTINUOUS
 90
7
 70
0
 43
0.25
 10
175.5170253906
 20
284.6067382813
 10
175.8232851563
 20
284.6067382813
 10
176.00740625
 20
284.7525742188
 10
176.5306367188
 20
285.7734042969
 10
176.6691894531
 20
286.0650761719
 10
176.8533320313
 20
286.2109121094
 10
176.9298808594
 20
286.2109121094
  0
LWPOLYLINE
  5
2FF
100
AcDbEntity
  8
0
100
AcDbPolyline
 62
2
  6
CONTINUOUS
 90
4
 70
0
 43
0.25
 10
175.8232851563
 20
284.6067382813
 10
175.8688535156
 20
284.4609023438
 10
175.95996875
 20
284.1692304688
 10
176.1859414063
 20
282.7109140625
  0
LWPOLYLINE
  5
300
100
AcDbEntity
  8
0
100
AcDbPolyline
 62
2
  6
CONTINUOUS
 90
17
 70
0
 43
0.25
 10
177.8740332031
 20
284.1692304688
 10
178.0435878906
 20
284.6067382813
 10
178.2587109375
 20
284.8984101563
 10
178.5194023438
 20
285.0442460938
 10
178.6725214844
 20
285.0442460938
 10
178.8712089844
 20
284.8984101563
 10
178.9623457031
 20
284.6067382813
 10
178.9459101563
 20
284.1692304688
 10
178.8219238281
 20
283.5859082031
 10
178.6523691406
 20
283.1484003906
 10
178.4372460938
 20
282.8567285156
 10
178.1765546875
 20
282.7109140625
 10
178.0234355469
 20
282.7109140625
 10
177.8247480469
 20
282.8567285156
 10
177.7336113281
 20
283.1484003906
 10
177.750046875
 20
283.5859082031
 10
177.8740332031
 20
284.1692304688
  0
LWPOLYLINE
  5
301
100
AcDbEntity
  8
0
100
AcDbPolyline
 62
2
  6
CONTINUOUS
 90
7
 70
0
 43
0.25
 10
179.9375
 20
282.7109140625
 10
180.1216210938
 20
282.8567285156
 10
180.2291933594
 20
283.0025644531
 10
180.2601738281
 20
283.1484003906
 10
180.66315625
 20
285.0442460938
 10
181.5818925781
 20
285.0442460938
 10
181.0859472656
 20
282.7109140625
  0
LWPOLYLINE
  5
302
100
AcDbEntity
  8
0
100
AcDbPolyline
 62
2
  6
CONTINUOUS
 90
4
 70
0
 43
0.25
 10
182.9999902344
 20
282.7109140625
 10
182.8468710938
 20
282.7109140625
 10
182.908875
 20
283.0025644531
 10
182.9999902344
 20
282.7109140625
  0
LWPOLYLINE
  5
303
100
AcDbEntity
  8
0
100
AcDbPolyline
 62
2
  6
CONTINUOUS
 90
2
 70
0
 43
0.25
 10
122.4377929688
 20
286.9441523438
 10
121.3750039063
 20
281.9441582031
  0
LWPOLYLINE
  5
304
100
AcDbEntity
  8
0
100
AcDbPolyline
 62
2
  6
CONTINUOUS
 90
2
 70
0
 43
0.25
 10
121.9506777344
 20
284.6524785156
 10
123.8100429688
 20
284.6524785156
  0
LWPOLYLINE
  5
305
100
AcDbEntity
  8
0
100
AcDbPolyline
 62
2
  6
CONTINUOUS
 90
2
 70
0
 43
0.25
 10
124.2971582031
 20
286.9441523438
 10
123.2343691406
 20
281.9441582031
  0
LWPOLYLINE
  5
306
100
AcDbEntity
  8
0
100
AcDbPolyline
 62
2
  6
CONTINUOUS
 90
10
 70
0
 43
0.25
 10
125.5157734375
 20
284.4441445313
 10
125.7137089844
 20
284.8608125
 10
125.8673652344
 20
285.0691464844
 10
126.1303984375
 20
285.2774804688
 10
126.6772617188
 20
285.2774804688
 10
126.8517363281
 20
285.0691464844
 10
126.9168339844
 20
284.8608125
 10
126.9376308594
 20
284.4441445313
 10
126.4505371094
 20
282.1524921875
 10
126.5156347656
 20
281.9441582031
  0
LWPOLYLINE
  5
307
100
AcDbEntity
  8
0
100
AcDbPolyline
 62
2
  6
CONTINUOUS
 90
14
 70
0
 43
0.25
 10
126.8933515625
 20
284.2358105469
 10
126.7396953125
 20
284.0274765625
 10
126.1485527344
 20
283.8191425781
 10
125.666765625
 20
283.6108085938
 10
125.4037324219
 20
283.4024746094
 10
125.2500761719
 20
283.194140625
 10
125.052140625
 20
282.7774726563
 10
125.0078398438
 20
282.5691386719
 10
125.0286582031
 20
282.1524921875
 10
125.3125097656
 20
281.9441582031
 10
125.6406191406
 20
281.9441582031
 10
126.0130292969
 20
282.1524921875
 10
126.2760625
 20
282.3608046875
 10
126.583375
 20
282.7774726563
  0
LWPOLYLINE
  5
308
100
AcDbEntity
  8
0
100
AcDbPolyline
 62
2
  6
CONTINUOUS
 90
4
 70
0
 43
0.25
 10
129.302265625
 20
285.2774804688
 10
128.5937539063
 20
281.9441582031
 10
130.6147675781
 20
285.2774804688
 10
129.9062558594
 20
281.9441582031
  0
LWPOLYLINE
  5
309
100
AcDbEntity
  8
0
100
AcDbPolyline
 62
2
  6
CONTINUOUS
 90
5
 70
0
 43
0.25
 10
131.8749980469
 20
281.9441582031
 10
132.58353125
 20
285.2774804688
 10
132.7942929688
 20
282.1524921875
 10
134.3335195313
 20
285.2774804688
 10
133.6250078125
 20
281.9441582031
  0
LWPOLYLINE
  5
30A
100
AcDbEntity
  8
0
100
AcDbPolyline
 62
2
  6
CONTINUOUS
 90
18
 70
0
 43
0.25
 10
137.237046875
 20
282.9858066406
 10
137.0390898438
 20
282.5691386719
 10
136.7317773438
 20
282.1524921875
 10
136.3593671875
 20
281.9441582031
 10
136.1406347656
 20
281.9441582031
 10
135.8567832031
 20
282.1524921875
 10
135.7265878906
 20
282.5691386719
 10
135.7500703125
 20
283.194140625
 10
135.9272089844
 20
284.0274765625
 10
136.1694238281
 20
284.6524785156
 10
136.4767363281
 20
285.0691464844
 10
136.8491464844
 20
285.2774804688
 10
137.0679003906
 20
285.2774804688
 10
137.3517304688
 20
285.0691464844
 10
137.4819257813
 20
284.6524785156
 10
137.4584433594
 20
284.0274765625
 10
137.4141640625
 20
283.8191425781
 10
135.8829082031
 20
283.8191425781
  0
LWPOLYLINE
  5
30B
100
AcDbEntity
  8
0
100
AcDbPolyline
 62
2
  6
CONTINUOUS
 90
2
 70
0
 43
0.25
 10
139.6929042969
 20
285.2774804688
 10
138.9843710938
 20
281.9441582031
  0
LWPOLYLINE
  5
30C
100
AcDbEntity
  8
0
100
AcDbPolyline
 62
2
  6
CONTINUOUS
 90
2
 70
0
 43
0.25
 10
139.3829277344
 20
283.8191425781
 10
140.6954082031
 20
283.8191425781
  0
LWPOLYLINE
  5
30D
100
AcDbEntity
  8
0
100
AcDbPolyline
 62
2
  6
CONTINUOUS
 90
2
 70
0
 43
0.25
 10
141.00540625
 20
285.2774804688
 10
140.2968730469
 20
281.9441582031
  0
LWPOLYLINE
  5
30E
100
AcDbEntity
  8
0
100
AcDbPolyline
 62
2
  6
CONTINUOUS
 90
17
 70
0
 43
0.25
 10
142.9272050781
 20
284.0274765625
 10
143.1694199219
 20
284.6524785156
 10
143.4767324219
 20
285.0691464844
 10
143.8491425781
 20
285.2774804688
 10
144.0678964844
 20
285.2774804688
 10
144.3517480469
 20
285.0691464844
 10
144.481921875
 20
284.6524785156
 10
144.4584609375
 20
284.0274765625
 10
144.2813222656
 20
283.194140625
 10
144.0391074219
 20
282.5691386719
 10
143.7317734375
 20
282.1524921875
 10
143.3593847656
 20
281.9441582031
 10
143.1406308594
 20
281.9441582031
 10
142.8567792969
 20
282.1524921875
 10
142.7266054688
 20
282.5691386719
 10
142.7500664063
 20
283.194140625
 10
142.9272050781
 20
284.0274765625
  0
LWPOLYLINE
  5
30F
100
AcDbEntity
  8
0
100
AcDbPolyline
 62
2
  6
CONTINUOUS
 90
9
 70
0
 43
0.25
 10
146.2031210938
 20
281.9441582031
 10
146.9116542969
 20
285.2774804688
 10
147.8960253906
 20
285.2774804688
 10
148.0704785156
 20
285.0691464844
 10
148.091296875
 20
284.6524785156
 10
148.0470175781
 20
284.4441445313
 10
147.8490820313
 20
284.0274765625
 10
147.5860488281
 20
283.8191425781
 10
146.6016777344
 20
283.8191425781
  0
LWPOLYLINE
  5
310
100
AcDbEntity
  8
0
100
AcDbPolyline
 62
2
  6
CONTINUOUS
 90
9
 70
0
 43
0.25
 10
146.2031210938
 20
281.9441582031
 10
147.1874921875
 20
281.9441582031
 10
147.4505253906
 20
282.1524921875
 10
147.6041816406
 20
282.3608046875
 10
147.8021386719
 20
282.7774726563
 10
147.8464179688
 20
282.9858066406
 10
147.8255996094
 20
283.4024746094
 10
147.7605019531
 20
283.6108085938
 10
147.5860488281
 20
283.8191425781
  0
LWPOLYLINE
  5
311
100
AcDbEntity
  8
0
100
AcDbPolyline
 62
2
  6
CONTINUOUS
 90
10
 70
0
 43
0.25
 10
150.0157597656
 20
284.4441445313
 10
150.2137167969
 20
284.8608125
 10
150.3673730469
 20
285.0691464844
 10
150.63040625
 20
285.2774804688
 10
151.1772695313
 20
285.2774804688
 10
151.3517441406
 20
285.0691464844
 10
151.4168417969
 20
284.8608125
 10
151.4376386719
 20
284.4441445313
 10
150.9505234375
 20
282.1524921875
 10
151.0156210938
 20
281.9441582031
  0
LWPOLYLINE
  5
312
100
AcDbEntity
  8
0
100
AcDbPolyline
 62
2
  6
CONTINUOUS
 90
14
 70
0
 43
0.25
 10
151.393359375
 20
284.2358105469
 10
151.239703125
 20
284.0274765625
 10
150.6485390625
 20
283.8191425781
 10
150.1667519531
 20
283.6108085938
 10
149.90371875
 20
283.4024746094
 10
149.7500625
 20
283.194140625
 10
149.5521269531
 20
282.7774726563
 10
149.5078476563
 20
282.5691386719
 10
149.5286660156
 20
282.1524921875
 10
149.8124960938
 20
281.9441582031
 10
150.1406269531
 20
281.9441582031
 10
150.5130371094
 20
282.1524921875
 10
150.7760703125
 20
282.3608046875
 10
151.0833828125
 20
282.7774726563
  0
LWPOLYLINE
  5
313
100
AcDbEntity
  8
0
100
AcDbPolyline
 62
2
  6
CONTINUOUS
 90
2
 70
0
 43
0.25
 10
153.6928964844
 20
285.2774804688
 10
152.9843847656
 20
281.9441582031
  0
LWPOLYLINE
  5
314
100
AcDbEntity
  8
0
100
AcDbPolyline
 62
2
  6
CONTINUOUS
 90
2
 70
0
 43
0.25
 10
153.3829199219
 20
283.8191425781
 10
154.695421875
 20
283.8191425781
  0
LWPOLYLINE
  5
315
100
AcDbEntity
  8
0
100
AcDbPolyline
 62
2
  6
CONTINUOUS
 90
2
 70
0
 43
0.25
 10
155.0053984375
 20
285.2774804688
 10
154.2968652344
 20
281.9441582031
  0
LWPOLYLINE
  5
316
100
AcDbEntity
  8
0
100
AcDbPolyline
 62
2
  6
CONTINUOUS
 90
4
 70
0
 43
0.25
 10
157.3022714844
 20
285.2774804688
 10
156.5937597656
 20
281.9441582031
 10
158.6147734375
 20
285.2774804688
 10
157.9062402344
 20
281.9441582031
  0
LWPOLYLINE
  5
317
100
AcDbEntity
  8
0
100
AcDbPolyline
 62
2
  6
CONTINUOUS
 90
18
 70
0
 43
0.25
 10
161.7370332031
 20
282.9858066406
 10
161.5390976563
 20
282.5691386719
 10
161.2317851563
 20
282.1524921875
 10
160.859375
 20
281.9441582031
 10
160.6406210938
 20
281.9441582031
 10
160.3567910156
 20
282.1524921875
 10
160.2265957031
 20
282.5691386719
 10
160.250078125
 20
283.194140625
 10
160.4271953125
 20
284.0274765625
 10
160.6694316406
 20
284.6524785156
 10
160.9767441406
 20
285.0691464844
 10
161.3491542969
 20
285.2774804688
 10
161.5678867188
 20
285.2774804688
 10
161.8517382813
 20
285.0691464844
 10
161.9819335938
 20
284.6524785156
 10
161.9584511719
 20
284.0274765625
 10
161.914171875
 20
283.8191425781
 10
160.3829160156
 20
283.8191425781
  0
LWPOLYLINE
  5
318
100
AcDbEntity
  8
0
100
AcDbPolyline
 62
2
  6
CONTINUOUS
 90
25
 70
0
 43
0.25
 10
55.7423652344
 20
285.0691464844
 10
55.4766679688
 20
283.8191425781
 10
55.4610058594
 20
283.194140625
 10
55.4896337891
 20
282.7774726563
 10
55.6354375
 20
282.3608046875
 10
55.82553125
 20
282.1524921875
 10
56.1328115234
 20
281.9441582031
 10
56.4843710938
 20
281.9441582031
 10
56.8802207031
 20
282.1524921875
 10
57.1588730469
 20
282.3608046875
 10
57.4818154297
 20
282.7774726563
 10
57.6875712891
 20
283.194140625
 10
57.9376064453
 20
283.8191425781
 10
58.2033037109
 20
285.0691464844
 10
58.2189658203
 20
285.6941484375
 10
58.1903378906
 20
286.1108164063
 10
58.0445341797
 20
286.527484375
 10
57.8544404297
 20
286.7358183594
 10
57.5471601563
 20
286.9441523438
 10
57.1956005859
 20
286.9441523438
 10
56.7997509766
 20
286.7358183594
 10
56.5210878906
 20
286.527484375
 10
56.19815625
 20
286.1108164063
 10
55.9924003906
 20
285.6941484375
 10
55.7423652344
 20
285.0691464844
  0
LWPOLYLINE
  5
319
100
AcDbEntity
  8
0
100
AcDbPolyline
 62
2
  6
CONTINUOUS
 90
25
 70
0
 43
0.25
 10
59.6225185547
 20
284.0274765625
 10
59.8725537109
 20
284.6524785156
 10
60.1954853516
 20
285.0691464844
 10
60.5913349609
 20
285.2774804688
 10
60.8257080078
 20
285.2774804688
 10
61.1329882813
 20
285.0691464844
 10
61.2788027344
 20
284.6524785156
 10
61.263140625
 20
284.0274765625
 10
61.0860126953
 20
283.194140625
 10
60.8359775391
 20
282.5691386719
 10
60.5130351563
 20
282.1524921875
 10
60.1171855469
 20
281.9441582031
 10
59.8828125
 20
281.9441582031
 10
59.5755322266
 20
282.1524921875
 10
59.4297177734
 20
282.5691386719
 10
59.4453798828
 20
283.194140625
 10
59.6225185547
 20
284.0274765625
 10
59.8882050781
 20
285.2774804688
 10
60.1825302734
 20
286.1108164063
 10
60.3882753906
 20
286.527484375
 10
60.5497519531
 20
286.7358183594
 10
61.0627880859
 20
286.9441523438
 10
61.2971611328
 20
286.9441523438
 10
61.8101865234
 20
287.1524863281
 10
61.9716630859
 20
287.3608203125
  0
LWPOLYLINE
  5
31A
100
AcDbEntity
  8
0
100
AcDbPolyline
 62
2
  6
CONTINUOUS
 90
17
 70
0
 43
0.25
 10
63.3725087891
 20
284.0274765625
 10
63.6225439453
 20
284.6524785156
 10
63.9454863281
 20
285.0691464844
 10
64.3413359375
 20
285.2774804688
 10
64.5757089844
 20
285.2774804688
 10
64.8829892578
 20
285.0691464844
 10
65.0288037109
 20
284.6524785156
 10
65.0131416016
 20
284.0274765625
 10
64.8360029297
 20
283.194140625
 10
64.5859677734
 20
282.5691386719
 10
64.2630361328
 20
282.1524921875
 10
63.8671865234
 20
281.9441582031
 10
63.6328134766
 20
281.9441582031
 10
63.3255332031
 20
282.1524921875
 10
63.17971875
 20
282.5691386719
 10
63.1953808594
 20
283.194140625
 10
63.3725087891
 20
284.0274765625
  0
LWPOLYLINE
  5
31B
100
AcDbEntity
  8
0
100
AcDbPolyline
 62
2
  6
CONTINUOUS
 90
10
 70
0
 43
0.25
 10
67.3725449219
 20
284.6524785156
 10
67.5783007813
 20
285.0691464844
 10
67.8569638672
 20
285.2774804688
 10
68.3257099609
 20
285.2774804688
 10
68.5158037109
 20
285.0691464844
 10
68.5444208984
 20
284.6524785156
 10
68.5001416016
 20
284.4441445313
 10
68.2943857422
 20
284.0274765625
 10
68.0157333984
 20
283.8191425781
 10
67.6641738281
 20
283.8191425781
  0
LWPOLYLINE
  5
31C
100
AcDbEntity
  8
0
100
AcDbPolyline
 62
2
  6
CONTINUOUS
 90
12
 70
0
 43
0.25
 10
66.8568232422
 20
282.7774726563
 10
66.8854404297
 20
282.3608046875
 10
66.9583476563
 20
282.1524921875
 10
67.1484414063
 20
281.9441582031
 10
67.6171875
 20
281.9441582031
 10
67.8958398438
 20
282.1524921875
 10
68.0573164063
 20
282.3608046875
 10
68.2630722656
 20
282.7774726563
 10
68.3073515625
 20
282.9858066406
 10
68.2787236328
 20
283.4024746094
 10
68.2058271484
 20
283.6108085938
 10
68.0157333984
 20
283.8191425781
  0
LWPOLYLINE
  5
31D
100
AcDbEntity
  8
0
100
AcDbPolyline
 62
2
  6
CONTINUOUS
 90
2
 70
0
 43
0.25
 10
71.1382080078
 20
285.2774804688
 10
70.4296855469
 20
281.9441582031
  0
LWPOLYLINE
  5
31E
100
AcDbEntity
  8
0
100
AcDbPolyline
 62
2
  6
CONTINUOUS
 90
2
 70
0
 43
0.25
 10
70.8282314453
 20
283.8191425781
 10
72.2344804688
 20
283.8191425781
  0
LWPOLYLINE
  5
31F
100
AcDbEntity
  8
0
100
AcDbPolyline
 62
2
  6
CONTINUOUS
 90
2
 70
0
 43
0.25
 10
72.5444570313
 20
285.2774804688
 10
71.8359345703
 20
281.9441582031
  0
LWPOLYLINE
  5
320
100
AcDbEntity
  8
0
100
AcDbPolyline
 62
2
  6
CONTINUOUS
 90
10
 70
0
 43
0.25
 10
74.7110810547
 20
284.4441445313
 10
74.9168369141
 20
284.8608125
 10
75.0783027344
 20
285.0691464844
 10
75.3569550781
 20
285.2774804688
 10
75.9428984375
 20
285.2774804688
 10
76.1329921875
 20
285.0691464844
 10
76.2058994141
 20
284.8608125
 10
76.2345166016
 20
284.4441445313
 10
75.7474121094
 20
282.1524921875
 10
75.8203085938
 20
281.9441582031
  0
LWPOLYLINE
  5
321
100
AcDbEntity
  8
0
100
AcDbPolyline
 62
2
  6
CONTINUOUS
 90
14
 70
0
 43
0.25
 10
76.1902373047
 20
284.2358105469
 10
76.0287607422
 20
284.0274765625
 10
75.3985488281
 20
283.8191425781
 10
74.8855126953
 20
283.6108085938
 10
74.6068496094
 20
283.4024746094
 10
74.4453837891
 20
283.194140625
 10
74.2396279297
 20
282.7774726563
 10
74.1953486328
 20
282.5691386719
 10
74.2239658203
 20
282.1524921875
 10
74.5312460938
 20
281.9441582031
 10
74.8828164063
 20
281.9441582031
 10
75.2786552734
 20
282.1524921875
 10
75.5573183594
 20
282.3608046875
 10
75.8802607422
 20
282.7774726563
  0
LWPOLYLINE
  5
322
100
AcDbEntity
  8
0
100
AcDbPolyline
 62
2
  6
CONTINUOUS
 90
7
 70
0
 43
0.25
 10
78.6382099609
 20
285.2774804688
 10
78.4167919922
 20
284.2358105469
 10
78.4454199219
 20
283.8191425781
 10
78.5183271484
 20
283.6108085938
 10
78.7084208984
 20
283.4024746094
 10
79.1771669922
 20
283.4024746094
 10
79.690203125
 20
283.6108085938
  0
LWPOLYLINE
  5
323
100
AcDbEntity
  8
0
100
AcDbPolyline
 62
2
  6
CONTINUOUS
 90
2
 70
0
 43
0.25
 10
80.0444589844
 20
285.2774804688
 10
79.3359365234
 20
281.9441582031
  0
LWPOLYLINE
  5
324
100
AcDbEntity
  8
0
100
AcDbPolyline
 62
2
  6
CONTINUOUS
 90
18
 70
0
 43
0.25
 10
83.5417285156
 20
282.9858066406
 10
83.3359726563
 20
282.5691386719
 10
83.0130302734
 20
282.1524921875
 10
82.6171914063
 20
281.9441582031
 10
82.3828076172
 20
281.9441582031
 10
82.0755273438
 20
282.1524921875
 10
81.9297236328
 20
282.5691386719
 10
81.9453857422
 20
283.194140625
 10
82.1225136719
 20
284.0274765625
 10
82.3725488281
 20
284.6524785156
 10
82.6954912109
 20
285.0691464844
 10
83.0913300781
 20
285.2774804688
 10
83.3257138672
 20
285.2774804688
 10
83.6329941406
 20
285.0691464844
 10
83.7787978516
 20
284.6524785156
 10
83.7631357422
 20
284.0274765625
 10
83.7188564453
 20
283.8191425781
 10
82.078234375
 20
283.8191425781
  0
LWPOLYLINE
  5
325
100
AcDbEntity
  8
0
100
AcDbPolyline
 62
2
  6
CONTINUOUS
 90
2
 70
0
 43
0.25
 10
86.1382119141
 20
285.2774804688
 10
85.4296894531
 20
281.9441582031
  0
LWPOLYLINE
  5
326
100
AcDbEntity
  8
0
100
AcDbPolyline
 62
2
  6
CONTINUOUS
 90
2
 70
0
 43
0.25
 10
85.8282353516
 20
283.8191425781
 10
87.234484375
 20
283.8191425781
  0
LWPOLYLINE
  5
327
100
AcDbEntity
  8
0
100
AcDbPolyline
 62
2
  6
CONTINUOUS
 90
2
 70
0
 43
0.25
 10
87.5444609375
 20
285.2774804688
 10
86.8359384766
 20
281.9441582031
  0
LWPOLYLINE
  5
328
100
AcDbEntity
  8
0
100
AcDbPolyline
 62
2
  6
CONTINUOUS
 90
4
 70
0
 43
0.25
 10
90.0053994141
 20
285.2774804688
 10
89.2968769531
 20
281.9441582031
 10
91.4116484375
 20
285.2774804688
 10
90.7031259766
 20
281.9441582031
  0
LWPOLYLINE
  5
329
100
AcDbEntity
  8
0
100
AcDbPolyline
 62
2
  6
CONTINUOUS
 90
18
 70
0
 43
0.25
 10
94.7917207031
 20
282.9858066406
 10
94.5859755859
 20
282.5691386719
 10
94.2630332031
 20
282.1524921875
 10
93.8671835938
 20
281.9441582031
 10
93.6328105469
 20
281.9441582031
 10
93.3255302734
 20
282.1524921875
 10
93.1797265625
 20
282.5691386719
 10
93.1953779297
 20
283.194140625
 10
93.3725166016
 20
284.0274765625
 10
93.6225517578
 20
284.6524785156
 10
93.9454941406
 20
285.0691464844
 10
94.3413330078
 20
285.2774804688
 10
94.5757060547
 20
285.2774804688
 10
94.8829863281
 20
285.0691464844
 10
95.0288007813
 20
284.6524785156
 10
95.0131386719
 20
284.0274765625
 10
94.968859375
 20
283.8191425781
 10
93.3282265625
 20
283.8191425781
  0
LWPOLYLINE
  5
32A
100
AcDbEntity
  8
0
100
AcDbPolyline
 62
2
  6
CONTINUOUS
 90
4
 70
0
 43
0.25
 10
36.1086435547
 20
280.5187558594
 10
32.6086455078
 20
281.2626953125
 10
32.6086455078
 20
282.4712988281
 10
36.1086435547
 20
281.7273378906
  0
LWPOLYLINE
  5
32B
100
AcDbEntity
  8
0
100
AcDbPolyline
 62
2
  6
CONTINUOUS
 90
17
 70
0
 43
0.25
 10
34.6503056641
 20
283.1748261719
 10
34.2128085938
 20
283.3389023438
 10
33.9211474609
 20
283.5430898438
 10
33.7753115234
 20
283.7873671875
 10
33.7753115234
 20
283.9295507813
 10
33.9211474609
 20
284.1118457031
 10
34.2128085938
 20
284.1920253906
 10
34.6503056641
 20
284.1701328125
 10
35.2336494141
 20
284.0461464844
 10
35.6711464844
 20
283.8820488281
 10
35.9628076172
 20
283.6778828125
 10
36.1086435547
 20
283.4335839844
 10
36.1086435547
 20
283.2914003906
 10
35.9628076172
 20
283.1091269531
 10
35.6711464844
 20
283.0289257813
 10
35.2336494141
 20
283.0508398438
 10
34.6503056641
 20
283.1748261719
  0
LWPOLYLINE
  5
32C
100
AcDbEntity
  8
0
100
AcDbPolyline
 62
2
  6
CONTINUOUS
 90
10
 70
0
 43
0.25
 10
34.2128085938
 20
285.6139042969
 10
33.9211474609
 20
285.747
 10
33.7753115234
 20
285.9201855469
 10
33.7753115234
 20
286.2045527344
 10
33.9211474609
 20
286.3157558594
 10
34.2128085938
 20
286.32484375
 10
34.3586445313
 20
286.2938417969
 10
34.6503056641
 20
286.1607675781
 10
34.7961416016
 20
285.9875820313
 10
34.7961416016
 20
285.7742851563
  0
LWPOLYLINE
  5
32D
100
AcDbEntity
  8
0
100
AcDbPolyline
 62
2
  6
CONTINUOUS
 90
12
 70
0
 43
0.25
 10
35.5253105469
 20
285.2638378906
 10
35.8169824219
 20
285.2729257813
 10
35.9628076172
 20
285.3130371094
 10
36.1086435547
 20
285.42421875
 10
36.1086435547
 20
285.7085859375
 10
35.9628076172
 20
285.8817714844
 10
35.8169824219
 20
285.9838652344
 10
35.5253105469
 20
286.1169609375
 10
35.3794746094
 20
286.1479628906
 10
35.0878134766
 20
286.1388535156
 10
34.9419775391
 20
286.0987636719
 10
34.7961416016
 20
285.9875820313
  0
LWPOLYLINE
  5
32E
100
AcDbEntity
  8
0
100
AcDbPolyline
 62
2
  6
CONTINUOUS
 90
4
 70
0
 43
0.25
 10
36.1086435547
 20
287.9124960938
 10
36.1086435547
 20
287.7703125
 10
35.8169824219
 20
287.8323164063
 10
36.1086435547
 20
287.9124960938
  0
LWPOLYLINE
  5
32F
100
AcDbEntity
  8
0
100
AcDbPolyline
 62
2
  6
CONTINUOUS
 90
13
 70
0
 43
0.25
 10
27.4836445313
 20
281.147796875
 10
27.0461474609
 20
281.3118945313
 10
26.7544755859
 20
281.5160820313
 10
26.6086396484
 20
281.760359375
 10
26.6086396484
 20
281.9025429688
 10
26.7544755859
 20
282.1559082031
 10
26.9003115234
 20
282.1960195313
 10
27.1919726563
 20
282.2051074219
 10
27.6294804688
 20
282.1121230469
 10
27.9211416016
 20
281.9790273438
 10
28.0669775391
 20
281.8769335938
 10
28.2128134766
 20
281.63265625
 10
28.2128134766
 20
281.4193808594
  0
LWPOLYLINE
  5
330
100
AcDbEntity
  8
0
100
AcDbPolyline
 62
2
  6
CONTINUOUS
 90
12
 70
0
 43
0.25
 10
29.2336435547
 20
280.7047460938
 10
29.671140625
 20
280.7539238281
 10
29.9628125
 20
280.834125
 10
30.1086484375
 20
281.0163984375
 10
30.1086484375
 20
281.2296953125
 10
29.9628125
 20
281.4739726563
 10
29.671140625
 20
281.6781601563
 10
29.3794794922
 20
281.811234375
 10
28.9419824219
 20
281.9042402344
 10
28.6503105469
 20
281.8951308594
 10
28.3586494141
 20
281.8149511719
 10
28.2128134766
 20
281.63265625
  0
LWPOLYLINE
  5
331
100
AcDbEntity
  8
0
100
AcDbPolyline
 62
2
  6
CONTINUOUS
 90
17
 70
0
 43
0.25
 10
28.6503105469
 20
283.1748261719
 10
28.2128134766
 20
283.3389023438
 10
27.9211416016
 20
283.5430898438
 10
27.7753056641
 20
283.7873671875
 10
27.7753056641
 20
283.9295507813
 10
27.9211416016
 20
284.1118457031
 10
28.2128134766
 20
284.1920253906
 10
28.6503105469
 20
284.1701328125
 10
29.2336435547
 20
284.0461464844
 10
29.671140625
 20
283.8820488281
 10
29.9628125
 20
283.6778828125
 10
30.1086484375
 20
283.4335839844
 10
30.1086484375
 20
283.2914003906
 10
29.9628125
 20
283.1091269531
 10
29.671140625
 20
283.0289257813
 10
29.2336435547
 20
283.0508398438
 10
28.6503105469
 20
283.1748261719
  0
LWPOLYLINE
  5
332
100
AcDbEntity
  8
0
100
AcDbPolyline
 62
2
  6
CONTINUOUS
 90
2
 70
0
 43
0.25
 10
27.7753056641
 20
285.6358183594
 10
30.1086484375
 20
285.1398515625
  0
LWPOLYLINE
  5
333
100
AcDbEntity
  8
0
100
AcDbPolyline
 62
2
  6
CONTINUOUS
 90
2
 70
0
 43
0.25
 10
28.7961464844
 20
285.4188261719
 10
28.7961464844
 20
286.2719492188
  0
LWPOLYLINE
  5
334
100
AcDbEntity
  8
0
100
AcDbPolyline
 62
2
  6
CONTINUOUS
 90
2
 70
0
 43
0.25
 10
27.7753056641
 20
286.4889414063
 10
30.1086484375
 20
285.9929746094
  0
LWPOLYLINE
  5
335
100
AcDbEntity
  8
0
100
AcDbPolyline
 62
2
  6
CONTINUOUS
 90
10
 70
0
 43
0.25
 10
28.3586494141
 20
287.7868125
 10
28.0669775391
 20
287.9199082031
 10
27.9211416016
 20
288.0220019531
 10
27.7753056641
 20
288.1951875
 10
27.7753056641
 20
288.5506464844
 10
27.9211416016
 20
288.6618496094
 10
28.0669775391
 20
288.7019394531
 10
28.3586494141
 20
288.7110273438
 10
29.9628125
 20
288.3700703125
 10
30.1086484375
 20
288.4101601563
  0
LWPOLYLINE
  5
336
100
AcDbEntity
  8
0
100
AcDbPolyline
 62
2
  6
CONTINUOUS
 90
14
 70
0
 43
0.25
 10
28.5044746094
 20
288.680046875
 10
28.6503105469
 20
288.577953125
 10
28.7961464844
 20
288.1914707031
 10
28.9419824219
 20
287.8761015625
 10
29.0878076172
 20
287.7029160156
 10
29.2336435547
 20
287.6008222656
 10
29.5253154297
 20
287.4677480469
 10
29.671140625
 20
287.4367460938
 10
29.9628125
 20
287.4458339844
 10
30.1086484375
 20
287.6281289063
 10
30.1086484375
 20
287.8414042969
 10
29.9628125
 20
288.0856816406
 10
29.8169765625
 20
288.2588671875
 10
29.5253154297
 20
288.4630546875
  0
LWPOLYLINE
  5
337
100
AcDbEntity
  8
0
100
AcDbPolyline
 62
2
  6
CONTINUOUS
 90
21
 70
0
 43
0.25
 10
21.0461416016
 20
279.6767402344
 10
21.0461416016
 20
279.2501679688
 10
21.1919775391
 20
279.005890625
 10
21.3378134766
 20
278.8327050781
 10
21.6294746094
 20
278.6285175781
 10
22.0669824219
 20
278.4644414063
 10
22.5044794922
 20
278.3714355469
 10
22.9419765625
 20
278.3495429688
 10
23.2336484375
 20
278.4297441406
 10
23.3794736328
 20
278.5409257813
 10
23.5253095703
 20
278.7232207031
 10
23.5253095703
 20
279.1497714844
 10
23.3794736328
 20
279.3940488281
 10
23.2336484375
 20
279.567234375
 10
22.9419765625
 20
279.771421875
 10
22.5044794922
 20
279.9354980469
 10
22.0669824219
 20
280.0285039063
 10
21.6294746094
 20
280.0503964844
 10
21.3378134766
 20
279.9702167969
 10
21.1919775391
 20
279.8590136719
 10
21.0461416016
 20
279.6767402344
  0
LWPOLYLINE
  5
338
100
AcDbEntity
  8
0
100
AcDbPolyline
 62
2
  6
CONTINUOUS
 90
2
 70
0
 43
0.25
 10
20.6086445313
 20
279.5564492188
 10
24.1086425781
 20
278.8125097656
  0
LWPOLYLINE
  5
339
100
AcDbEntity
  8
0
100
AcDbPolyline
 62
2
  6
CONTINUOUS
 90
17
 70
0
 43
0.25
 10
22.6503154297
 20
280.8998242188
 10
22.2128076172
 20
281.0639003906
 10
21.9211464844
 20
281.2680878906
 10
21.7753105469
 20
281.5123652344
 10
21.7753105469
 20
281.6545488281
 10
21.9211464844
 20
281.83684375
 10
22.2128076172
 20
281.9170449219
 10
22.6503154297
 20
281.8951308594
 10
23.2336484375
 20
281.7711445313
 10
23.6711455078
 20
281.607046875
 10
23.9628066406
 20
281.4028808594
 10
24.1086425781
 20
281.1586035156
 10
24.1086425781
 20
281.0163984375
 10
23.9628066406
 20
280.834125
 10
23.6711455078
 20
280.7539238281
 10
23.2336484375
 20
280.7758378906
 10
22.6503154297
 20
280.8998242188
  0
LWPOLYLINE
  5
33A
100
AcDbEntity
  8
0
100
AcDbPolyline
 62
2
  6
CONTINUOUS
 90
2
 70
0
 43
0.25
 10
21.7753105469
 20
283.2897246094
 10
25.2753085938
 20
282.5457636719
  0
LWPOLYLINE
  5
33B
100
AcDbEntity
  8
0
100
AcDbPolyline
 62
2
  6
CONTINUOUS
 90
16
 70
0
 43
0.25
 10
22.5044794922
 20
283.1347363281
 10
22.2128076172
 20
283.2678105469
 10
21.9211464844
 20
283.4719980469
 10
21.7753105469
 20
283.6451835938
 10
21.7753105469
 20
283.8584589844
 10
21.9211464844
 20
283.9696621094
 10
22.2128076172
 20
284.0498417969
 10
22.6503154297
 20
284.0279492188
 10
23.2336484375
 20
283.9039628906
 10
23.6711455078
 20
283.7398652344
 10
23.9628066406
 20
283.5356777344
 10
24.1086425781
 20
283.3624921875
 10
24.1086425781
 20
283.2203085938
 10
23.9628066406
 20
283.0380351563
 10
23.6711455078
 20
282.9578339844
 10
23.3794736328
 20
282.9487460938
  0
LWPOLYLINE
  5
33C
100
AcDbEntity
  8
0
100
AcDbPolyline
 62
2
  6
CONTINUOUS
 90
5
 70
0
 43
0.25
 10
24.1086425781
 20
285.0687597656
 10
21.7753105469
 20
285.5647050781
 10
23.9628066406
 20
285.6684960938
 10
21.7753105469
 20
286.7022167969
 10
24.1086425781
 20
286.20625
  0
LWPOLYLINE
  5
33D
100
AcDbEntity
  8
0
100
AcDbPolyline
 62
2
  6
CONTINUOUS
 90
10
 70
0
 43
0.25
 10
22.3586435547
 20
287.7868125
 10
22.0669824219
 20
287.9199082031
 10
21.9211464844
 20
288.0220019531
 10
21.7753105469
 20
288.1951875
 10
21.7753105469
 20
288.5506464844
 10
21.9211464844
 20
288.6618496094
 10
22.0669824219
 20
288.7019394531
 10
22.3586435547
 20
288.7110273438
 10
23.9628066406
 20
288.3700703125
 10
24.1086425781
 20
288.4101601563
  0
LWPOLYLINE
  5
33E
100
AcDbEntity
  8
0
100
AcDbPolyline
 62
2
  6
CONTINUOUS
 90
14
 70
0
 43
0.25
 10
22.5044794922
 20
288.680046875
 10
22.6503154297
 20
288.577953125
 10
22.796140625
 20
288.1914707031
 10
22.9419765625
 20
287.8761015625
 10
23.0878125
 20
287.7029160156
 10
23.2336484375
 20
287.6008222656
 10
23.5253095703
 20
287.4677480469
 10
23.6711455078
 20
287.4367460938
 10
23.9628066406
 20
287.4458339844
 10
24.1086425781
 20
287.6281289063
 10
24.1086425781
 20
287.8414042969
 10
23.9628066406
 20
288.0856816406
 10
23.8169814453
 20
288.2588671875
 10
23.5253095703
 20
288.4630546875
  0
LWPOLYLINE
  5
33F
100
AcDbEntity
  8
0
100
AcDbPolyline
 62
2
  6
CONTINUOUS
 90
2
 70
0
 43
0.25
 10
21.7753105469
 20
290.1858007813
 10
21.7753105469
 20
291.1811289063
  0
LWPOLYLINE
  5
340
100
AcDbEntity
  8
0
100
AcDbPolyline
 62
2
  6
CONTINUOUS
 90
2
 70
0
 43
0.25
 10
21.7753105469
 20
290.6834648438
 10
24.1086425781
 20
290.1874980469
  0
LWPOLYLINE
  5
341
100
AcDbEntity
  8
0
100
AcDbPolyline
 62
2
  6
CONTINUOUS
 90
4
 70
0
 43
0.25
 10
112.8315273438
 20
274.9882910156
 10
111.7687597656
 20
269.988296875
 10
113.8312597656
 20
269.988296875
 10
114.8940273438
 20
274.9882910156
  0
LWPOLYLINE
  5
342
100
AcDbEntity
  8
0
100
AcDbPolyline
 62
2
  6
CONTINUOUS
 90
2
 70
0
 43
0.25
 10
113.8627773438
 20
274.9882910156
 10
112.8000097656
 20
269.988296875
  0
LWPOLYLINE
  5
343
100
AcDbEntity
  8
0
100
AcDbPolyline
 62
2
  6
CONTINUOUS
 90
10
 70
0
 43
0.25
 10
115.4798203125
 20
272.4883046875
 10
115.6543378906
 20
272.9049726563
 10
115.7845546875
 20
273.1133066406
 10
116.0007089844
 20
273.321640625
 10
116.4303964844
 20
273.321640625
 10
116.5579921875
 20
273.1133066406
 10
116.5996503906
 20
272.9049726563
 10
116.5970078125
 20
272.4883046875
 10
116.1099140625
 20
270.1966308594
 10
116.1515722656
 20
269.988296875
  0
LWPOLYLINE
  5
344
100
AcDbEntity
  8
0
100
AcDbPolyline
 62
2
  6
CONTINUOUS
 90
14
 70
0
 43
0.25
 10
116.5527285156
 20
272.2799707031
 10
116.4225117188
 20
272.0716367188
 10
115.9485449219
 20
271.8633027344
 10
115.560515625
 20
271.65496875
 10
115.3443613281
 20
271.4466347656
 10
115.2141230469
 20
271.2383007813
 10
115.0396269531
 20
270.8216328125
 10
114.9953476563
 20
270.6132988281
 10
114.9927265625
 20
270.1966308594
 10
115.2062597656
 20
269.988296875
 10
115.4640722656
 20
269.988296875
 10
115.7661640625
 20
270.1966308594
 10
115.9823183594
 20
270.4049648438
 10
116.2427519531
 20
270.8216328125
  0
LWPOLYLINE
  5
345
100
AcDbEntity
  8
0
100
AcDbPolyline
 62
2
  6
CONTINUOUS
 90
4
 70
0
 43
0.25
 10
118.4928964844
 20
273.321640625
 10
117.7843847656
 20
269.988296875
 10
119.5241464844
 20
273.321640625
 10
118.8156347656
 20
269.988296875
  0
LWPOLYLINE
  5
346
100
AcDbEntity
  8
0
100
AcDbPolyline
 62
2
  6
CONTINUOUS
 90
6
 70
0
 43
0.25
 10
118.9747480469
 20
274.7799570313
 10
118.9721269531
 20
274.3632890625
 10
119.0997226563
 20
274.1549550781
 10
119.2715976563
 20
274.1549550781
 10
119.4877519531
 20
274.3632890625
 10
119.6622480469
 20
274.7799570313
  0
LWPOLYLINE
  5
347
100
AcDbEntity
  8
0
100
AcDbPolyline
 62
2
  6
CONTINUOUS
 90
25
 70
0
 43
0.25
 10
120.8912617188
 20
272.0716367188
 10
121.1100585938
 20
272.6966386719
 10
121.3704921875
 20
273.1133066406
 10
121.6725839844
 20
273.321640625
 10
121.8444589844
 20
273.321640625
 10
122.0579921875
 20
273.1133066406
 10
122.1413085938
 20
272.6966386719
 10
122.0943867188
 20
272.0716367188
 10
121.9172480469
 20
271.2383007813
 10
121.6984726563
 20
270.6132988281
 10
121.4380390625
 20
270.1966308594
 10
121.1359472656
 20
269.988296875
 10
120.9640722656
 20
269.988296875
 10
120.7505390625
 20
270.1966308594
 10
120.6672226563
 20
270.6132988281
 10
120.7141230469
 20
271.2383007813
 10
120.8912617188
 20
272.0716367188
 10
121.1569589844
 20
273.321640625
 10
121.4200351563
 20
274.1549550781
 10
121.59453125
 20
274.5716230469
 10
121.7247480469
 20
274.7799570313
 10
122.1127773438
 20
274.9882910156
 10
122.2846523438
 20
274.9882910156
 10
122.6726816406
 20
275.196625
 10
122.8029199219
 20
275.4049589844
  0
LWPOLYLINE
  5
348
100
AcDbEntity
  8
0
100
AcDbPolyline
 62
2
  6
CONTINUOUS
 90
10
 70
0
 43
0.25
 10
123.7298203125
 20
272.4883046875
 10
123.9043378906
 20
272.9049726563
 10
124.0345546875
 20
273.1133066406
 10
124.2507089844
 20
273.321640625
 10
124.6803964844
 20
273.321640625
 10
124.8079921875
 20
273.1133066406
 10
124.8496503906
 20
272.9049726563
 10
124.8470078125
 20
272.4883046875
 10
124.3599140625
 20
270.1966308594
 10
124.4015722656
 20
269.988296875
  0
LWPOLYLINE
  5
349
100
AcDbEntity
  8
0
100
AcDbPolyline
 62
2
  6
CONTINUOUS
 90
14
 70
0
 43
0.25
 10
124.8027285156
 20
272.2799707031
 10
124.6725117188
 20
272.0716367188
 10
124.1985449219
 20
271.8633027344
 10
123.810515625
 20
271.65496875
 10
123.5943613281
 20
271.4466347656
 10
123.4641230469
 20
271.2383007813
 10
123.2896269531
 20
270.8216328125
 10
123.2453476563
 20
270.6132988281
 10
123.2427265625
 20
270.1966308594
 10
123.4562597656
 20
269.988296875
 10
123.7140722656
 20
269.988296875
 10
124.0161640625
 20
270.1966308594
 10
124.2323183594
 20
270.4049648438
 10
124.4927519531
 20
270.8216328125
  0
LWPOLYLINE
  5
34A
100
AcDbEntity
  8
0
100
AcDbPolyline
 62
2
  6
CONTINUOUS
 90
2
 70
0
 43
0.25
 10
130.3627773438
 20
274.9882910156
 10
129.3000097656
 20
269.988296875
  0
LWPOLYLINE
  5
34B
100
AcDbEntity
  8
0
100
AcDbPolyline
 62
2
  6
CONTINUOUS
 90
15
 70
0
 43
0.25
 10
132.0500097656
 20
269.988296875
 10
131.7948183594
 20
270.4049648438
 10
131.7115019531
 20
270.8216328125
 10
131.716765625
 20
271.65496875
 10
132.0710214844
 20
273.321640625
 10
132.4200351563
 20
274.1549550781
 10
132.68046875
 20
274.5716230469
 10
133.1127773438
 20
274.9882910156
 10
133.36796875
 20
274.5716230469
 10
133.4512851563
 20
274.1549550781
 10
133.4460214844
 20
273.321640625
 10
133.091765625
 20
271.65496875
 10
132.7427519531
 20
270.8216328125
 10
132.4823183594
 20
270.4049648438
 10
132.0500097656
 20
269.988296875
  0
LWPOLYLINE
  5
34C
100
AcDbEntity
  8
0
100
AcDbPolyline
 62
2
  6
CONTINUOUS
 90
2
 70
0
 43
0.25
 10
35.4940078125
 20
274.9994628906
 10
34.5375019531
 20
270.4994746094
  0
LWPOLYLINE
  5
34D
100
AcDbEntity
  8
0
100
AcDbPolyline
 62
2
  6
CONTINUOUS
 90
13
 70
0
 43
0.25
 10
37.5283417969
 20
274.2494648438
 10
37.790859375
 20
274.6244746094
 10
38.2361875
 20
274.9994628906
 10
38.6018193359
 20
274.9994628906
 10
38.8877333984
 20
274.6244746094
 10
38.9908369141
 20
274.2494648438
 10
38.8314228516
 20
273.4994667969
 10
38.5688945313
 20
273.1244570313
 10
38.1235664063
 20
272.74946875
 10
37.6782275391
 20
272.3744589844
 10
37.1531923828
 20
271.6244609375
 10
36.73125
 20
270.4994746094
 10
38.1937451172
 20
270.4994746094
  0
LWPOLYLINE
  5
34E
100
AcDbEntity
  8
0
100
AcDbPolyline
 62
2
  6
CONTINUOUS
 90
14
 70
0
 43
0.25
 10
176.7627539063
 20
267.4000097656
 10
175.6658691406
 20
267.4000097656
 10
175.0845234375
 20
265.5250039063
 10
175.5298515625
 20
265.8999921875
 10
175.8954726563
 20
265.8999921875
 10
176.1814082031
 20
265.5250039063
 10
176.2845117188
 20
265.1499941406
 10
176.3078867188
 20
264.3999960938
 10
175.9656621094
 20
263.6499980469
 10
175.7031445313
 20
263.2750097656
 10
175.2578164063
 20
262.9
 10
174.8921953125
 20
262.9
 10
174.60628125
 20
263.2750097656
 10
174.5031777344
 20
263.6499980469
  0
LWPOLYLINE
  5
34F
100
AcDbEntity
  8
0
100
AcDbPolyline
 62
2
  6
CONTINUOUS
 90
17
 70
0
 43
0.25
 10
177.8171855469
 20
262.9
 10
177.5312714844
 20
263.2750097656
 10
177.4281679688
 20
263.6499980469
 10
177.3250644531
 20
264.0250078125
 10
177.4047714844
 20
264.3999960938
 10
177.6672890625
 20
264.7750058594
 10
177.9298066406
 20
265.1499941406
 10
178.37515625
 20
265.5250039063
 10
178.7407773438
 20
265.5250039063
 10
179.0266914063
 20
265.1499941406
 10
179.1297949219
 20
264.7750058594
 10
179.2328984375
 20
264.3999960938
 10
179.1531914063
 20
264.0250078125
 10
178.8906738281
 20
263.6499980469
 10
178.62815625
 20
263.2750097656
 10
178.1828066406
 20
262.9
 10
177.8171855469
 20
262.9
  0
LWPOLYLINE
  5
350
100
AcDbEntity
  8
0
100
AcDbPolyline
 62
2
  6
CONTINUOUS
 90
12
 70
0
 43
0.25
 10
178.37515625
 20
265.5250039063
 10
178.0892421875
 20
265.8999921875
 10
177.9861386719
 20
266.2750019531
 10
178.0658457031
 20
266.6499902344
 10
178.3283632813
 20
267.025
 10
178.7736914063
 20
267.4000097656
 10
179.1393125
 20
267.4000097656
 10
179.4252265625
 20
267.025
 10
179.5283300781
 20
266.6499902344
 10
179.4486230469
 20
266.2750019531
 10
179.1861054688
 20
265.8999921875
 10
178.7407773438
 20
265.5250039063
  0
LWPOLYLINE
  5
351
100
AcDbEntity
  8
0
100
AcDbPolyline
 62
2
  6
CONTINUOUS
 90
17
 70
0
 43
0.25
 10
180.7421972656
 20
262.9
 10
180.4562617188
 20
263.2750097656
 10
180.3531582031
 20
263.6499980469
 10
180.2500546875
 20
264.0250078125
 10
180.3297617188
 20
264.3999960938
 10
180.5923007813
 20
264.7750058594
 10
180.8548183594
 20
265.1499941406
 10
181.3001464844
 20
265.5250039063
 10
181.6657675781
 20
265.5250039063
 10
181.9516816406
 20
265.1499941406
 10
182.0547851563
 20
264.7750058594
 10
182.1578886719
 20
264.3999960938
 10
182.0781816406
 20
264.0250078125
 10
181.8156640625
 20
263.6499980469
 10
181.5531464844
 20
263.2750097656
 10
181.1078183594
 20
262.9
 10
180.7421972656
 20
262.9
  0
LWPOLYLINE
  5
352
100
AcDbEntity
  8
0
100
AcDbPolyline
 62
2
  6
CONTINUOUS
 90
12
 70
0
 43
0.25
 10
181.3001464844
 20
265.5250039063
 10
181.0142324219
 20
265.8999921875
 10
180.9111289063
 20
266.2750019531
 10
180.9908359375
 20
266.6499902344
 10
181.2533535156
 20
267.025
 10
181.6986816406
 20
267.4000097656
 10
182.0643242188
 20
267.4000097656
 10
182.3502382813
 20
267.025
 10
182.4533417969
 20
266.6499902344
 10
182.3736347656
 20
266.2750019531
 10
182.1111171875
 20
265.8999921875
 10
181.6657675781
 20
265.5250039063
  0
LWPOLYLINE
  5
353
100
AcDbEntity
  8
0
100
AcDbPolyline
 62
2
  6
CONTINUOUS
 90
3
 70
0
 43
0.25
 10
112.1984472656
 20
261.9882890625
 10
113.2612148438
 20
266.9883046875
 10
114.4643398438
 20
266.9883046875
  0
LWPOLYLINE
  5
354
100
AcDbEntity
  8
0
100
AcDbPolyline
 62
2
  6
CONTINUOUS
 90
25
 70
0
 43
0.25
 10
115.3548671875
 20
265.1132988281
 10
115.0891699219
 20
263.8632949219
 10
115.0422480469
 20
263.2382929688
 10
115.0396269531
 20
262.821625
 10
115.1229433594
 20
262.4049570313
 10
115.2505390625
 20
262.1966230469
 10
115.4640722656
 20
261.9882890625
 10
115.7218847656
 20
261.9882890625
 10
116.0239765625
 20
262.1966230469
 10
116.2401308594
 20
262.4049570313
 10
116.5005644531
 20
262.821625
 10
116.6750605469
 20
263.2382929688
 10
116.8938574219
 20
263.8632949219
 10
117.1595546875
 20
265.1132988281
 10
117.2064550781
 20
265.7383007813
 10
117.2090976563
 20
266.15496875
 10
117.12578125
 20
266.5716367188
 10
116.9981855469
 20
266.7799707031
 10
116.7846523438
 20
266.9883046875
 10
116.5268398438
 20
266.9883046875
 10
116.2247480469
 20
266.7799707031
 10
116.00859375
 20
266.5716367188
 10
115.7481601563
 20
266.15496875
 10
115.5736425781
 20
265.7383007813
 10
115.3548671875
 20
265.1132988281
  0
LWPOLYLINE
  5
355
100
AcDbEntity
  8
0
100
AcDbPolyline
 62
2
  6
CONTINUOUS
 90
22
 70
0
 43
0.25
 10
119.9564550781
 20
265.7383007813
 10
119.9590976563
 20
266.15496875
 10
119.87578125
 20
266.5716367188
 10
119.7481855469
 20
266.7799707031
 10
119.5346523438
 20
266.9883046875
 10
119.2768398438
 20
266.9883046875
 10
118.9747480469
 20
266.7799707031
 10
118.75859375
 20
266.5716367188
 10
118.4981601563
 20
266.15496875
 10
118.3236425781
 20
265.7383007813
 10
118.1048671875
 20
265.1132988281
 10
117.8391699219
 20
263.8632949219
 10
117.7922480469
 20
263.2382929688
 10
117.7896269531
 20
262.821625
 10
117.8729433594
 20
262.4049570313
 10
118.0005390625
 20
262.1966230469
 10
118.2140722656
 20
261.9882890625
 10
118.4718847656
 20
261.9882890625
 10
118.7739765625
 20
262.1966230469
 10
118.9901308594
 20
262.4049570313
 10
119.2505644531
 20
262.821625
 10
119.4693613281
 20
263.4466269531
  0
LWPOLYLINE
  5
356
100
AcDbEntity
  8
0
100
AcDbPolyline
 62
2
  6
CONTINUOUS
 90
2
 70
0
 43
0.25
 10
121.2534023438
 20
266.9883046875
 10
122.9721523438
 20
266.9883046875
  0
LWPOLYLINE
  5
357
100
AcDbEntity
  8
0
100
AcDbPolyline
 62
2
  6
CONTINUOUS
 90
2
 70
0
 43
0.25
 10
122.1127773438
 20
266.9883046875
 10
121.0500097656
 20
261.9882890625
  0
LWPOLYLINE
  5
358
100
AcDbEntity
  8
0
100
AcDbPolyline
 62
2
  6
CONTINUOUS
 90
2
 70
0
 43
0.25
 10
127.6127773438
 20
266.9883046875
 10
126.5500097656
 20
261.9882890625
  0
LWPOLYLINE
  5
359
100
AcDbEntity
  8
0
100
AcDbPolyline
 62
2
  6
CONTINUOUS
 90
2
 70
0
 43
0.25
 10
130.3627773438
 20
266.9883046875
 10
129.3000097656
 20
261.9882890625
  0
LWPOLYLINE
  5
35A
100
AcDbEntity
  8
0
100
AcDbPolyline
 62
2
  6
CONTINUOUS
 90
18
 70
0
 43
0.25
 10
132.50859375
 20
266.5716367188
 10
132.9409023438
 20
266.9883046875
 10
133.2846523438
 20
266.9883046875
 10
133.53984375
 20
266.5716367188
 10
133.6231601563
 20
266.15496875
 10
133.5345800781
 20
265.7383007813
 10
133.2741464844
 20
265.3216328125
 10
132.8418378906
 20
264.9049648438
 10
133.0970078125
 20
264.488296875
 10
133.1803242188
 20
264.0716289062
 10
133.263640625
 20
263.6549609375
 10
133.1750605469
 20
263.2382929688
 10
132.9146269531
 20
262.821625
 10
132.6541933594
 20
262.4049570313
 10
132.2218847656
 20
261.9882890625
 10
131.8781347656
 20
261.9882890625
 10
131.6229433594
 20
262.4049570313
 10
131.5396269531
 20
262.821625
  0
LWPOLYLINE
  5
35B
100
AcDbEntity
  8
0
100
AcDbPolyline
 62
2
  6
CONTINUOUS
 90
2
 70
0
 43
0.25
 10
132.4980878906
 20
264.9049648438
 10
132.8418378906
 20
264.9049648438
  0
LWPOLYLINE
  5
35C
100
AcDbEntity
  8
0
100
AcDbPolyline
 62
2
  6
CONTINUOUS
 90
6
 70
0
 43
0.25
 10
134.8000097656
 20
261.9882890625
 10
135.4146992188
 20
264.0716289062
 10
135.8522714844
 20
265.3216328125
 10
136.2012851563
 20
266.15496875
 10
136.5502773438
 20
266.9883046875
 10
135.1752773438
 20
266.9883046875
  0
LWPOLYLINE
  5
35D
100
AcDbEntity
  8
0
100
AcDbPolyline
 62
2
  6
CONTINUOUS
 90
2
 70
0
 43
0.25
 10
138.6127773438
 20
266.9883046875
 10
137.5500097656
 20
261.9882890625
  0
LWPOLYLINE
  5
35E
100
AcDbEntity
  8
0
100
AcDbPolyline
 62
2
  6
CONTINUOUS
 90
2
 70
0
 43
0.25
 10
140.3157578125
 20
264.488296875
 10
141.3470078125
 20
264.488296875
  0
LWPOLYLINE
  5
35F
100
AcDbEntity
  8
0
100
AcDbPolyline
 62
2
  6
CONTINUOUS
 90
17
 70
0
 43
0.25
 10
142.716765625
 20
263.6549609375
 10
143.0657578125
 20
264.488296875
 10
143.6699628906
 20
264.9049648438
 10
144.0970078125
 20
264.488296875
 10
144.091765625
 20
263.6549609375
 10
143.7427519531
 20
262.821625
 10
143.4823183594
 20
262.4049570313
 10
143.0500097656
 20
261.9882890625
 10
142.7948183594
 20
262.4049570313
 10
142.7115019531
 20
262.821625
 10
142.716765625
 20
263.6549609375
 10
143.0710214844
 20
265.3216328125
 10
143.4200351563
 20
266.15496875
 10
143.68046875
 20
266.5716367188
 10
144.1127773438
 20
266.9883046875
 10
144.36796875
 20
266.5716367188
 10
144.4512851563
 20
266.15496875
  0
LWPOLYLINE
  5
360
100
AcDbEntity
  8
0
100
AcDbPolyline
 62
2
  6
CONTINUOUS
 90
17
 70
0
 43
0.25
 10
145.6281347656
 20
261.9882890625
 10
145.3729433594
 20
262.4049570313
 10
145.2896269531
 20
262.821625
 10
145.2063105469
 20
263.2382929688
 10
145.294890625
 20
263.6549609375
 10
145.5553242188
 20
264.0716289062
 10
145.8157578125
 20
264.488296875
 10
146.2480878906
 20
264.9049648438
 10
146.5918378906
 20
264.9049648438
 10
146.8470078125
 20
264.488296875
 10
146.9303242188
 20
264.0716289062
 10
147.013640625
 20
263.6549609375
 10
146.9250605469
 20
263.2382929688
 10
146.6646269531
 20
262.821625
 10
146.4041933594
 20
262.4049570313
 10
145.9718847656
 20
261.9882890625
 10
145.6281347656
 20
261.9882890625
  0
LWPOLYLINE
  5
361
100
AcDbEntity
  8
0
100
AcDbPolyline
 62
2
  6
CONTINUOUS
 90
12
 70
0
 43
0.25
 10
146.2480878906
 20
264.9049648438
 10
145.9928964844
 20
265.3216328125
 10
145.9095800781
 20
265.7383007813
 10
145.9981601563
 20
266.15496875
 10
146.25859375
 20
266.5716367188
 10
146.6909023438
 20
266.9883046875
 10
147.0346523438
 20
266.9883046875
 10
147.28984375
 20
266.5716367188
 10
147.3731601563
 20
266.15496875
 10
147.2845800781
 20
265.7383007813
 10
147.0241464844
 20
265.3216328125
 10
146.5918378906
 20
264.9049648438
  0
LWPOLYLINE
  5
362
100
AcDbEntity
  8
0
100
AcDbPolyline
 62
2
  6
CONTINUOUS
 90
4
 70
0
 43
0.25
 10
121.2500078125
 20
245.9882949219
 10
122.3127753906
 20
250.9882890625
 10
123.9065292969
 20
250.9882890625
 10
122.8437402344
 20
245.9882949219
  0
LWPOLYLINE
  5
363
100
AcDbEntity
  8
0
100
AcDbPolyline
 62
2
  6
CONTINUOUS
 90
2
 70
0
 43
0.25
 10
124.9585117188
 20
249.3216386719
 10
123.8957441406
 20
244.3216230469
  0
LWPOLYLINE
  5
364
100
AcDbEntity
  8
0
100
AcDbPolyline
 62
2
  6
CONTINUOUS
 90
16
 70
0
 43
0.25
 10
124.7371152344
 20
248.27996875
 10
124.9194316406
 20
248.6966367188
 10
125.195484375
 20
249.1133046875
 10
125.4272792969
 20
249.3216386719
 10
125.70853125
 20
249.3216386719
 10
125.8517460938
 20
249.1133046875
 10
125.9506816406
 20
248.6966367188
 10
125.9115800781
 20
248.0716347656
 10
125.7344414063
 20
247.2382988281
 10
125.5078457031
 20
246.613296875
 10
125.2317929688
 20
246.1966289063
 10
124.9999980469
 20
245.9882949219
 10
124.8125039063
 20
245.9882949219
 10
124.57553125
 20
246.1966289063
 10
124.4765957031
 20
246.613296875
 10
124.4714179688
 20
247.0299648438
  0
LWPOLYLINE
  5
365
100
AcDbEntity
  8
0
100
AcDbPolyline
 62
2
  6
CONTINUOUS
 90
17
 70
0
 43
0.25
 10
127.7865859375
 20
248.0716347656
 10
128.0131816406
 20
248.6966367188
 10
128.289234375
 20
249.1133046875
 10
128.614765625
 20
249.3216386719
 10
128.80228125
 20
249.3216386719
 10
129.0392324219
 20
249.1133046875
 10
129.1381679688
 20
248.6966367188
 10
129.0990664063
 20
248.0716347656
 10
128.9219492188
 20
247.2382988281
 10
128.6953535156
 20
246.613296875
 10
128.4192792969
 20
246.1966289063
 10
128.0937480469
 20
245.9882949219
 10
127.9062539063
 20
245.9882949219
 10
127.66928125
 20
246.1966289063
 10
127.5703457031
 20
246.613296875
 10
127.6094472656
 20
247.2382988281
 10
127.7865859375
 20
248.0716347656
  0
LWPOLYLINE
  5
366
100
AcDbEntity
  8
0
100
AcDbPolyline
 62
2
  6
CONTINUOUS
 90
7
 70
0
 43
0.25
 10
131.0522753906
 20
249.3216386719
 10
130.8308574219
 20
248.27996875
 10
130.8360351563
 20
247.8633007813
 10
130.8855136719
 20
247.6549667969
 10
131.0287285156
 20
247.4466328125
 10
131.4037382813
 20
247.4466328125
 10
131.8230058594
 20
247.6549667969
  0
LWPOLYLINE
  5
367
100
AcDbEntity
  8
0
100
AcDbPolyline
 62
2
  6
CONTINUOUS
 90
2
 70
0
 43
0.25
 10
132.1772617188
 20
249.3216386719
 10
131.46875
 20
245.9882949219
  0
LWPOLYLINE
  5
368
100
AcDbEntity
  8
0
100
AcDbPolyline
 62
2
  6
CONTINUOUS
 90
4
 70
0
 43
0.25
 10
134.1460253906
 20
249.3216386719
 10
133.4374921875
 20
245.9882949219
 10
135.2710117188
 20
249.3216386719
 10
134.5625
 20
245.9882949219
  0
LWPOLYLINE
  5
369
100
AcDbEntity
  8
0
100
AcDbPolyline
 62
2
  6
CONTINUOUS
 90
18
 70
0
 43
0.25
 10
137.8776679688
 20
247.0299648438
 10
137.6953515625
 20
246.613296875
 10
137.4192773438
 20
246.1966289063
 10
137.0937460938
 20
245.9882949219
 10
136.9062519531
 20
245.9882949219
 10
136.6692792969
 20
246.1966289063
 10
136.57034375
 20
246.613296875
 10
136.6094453125
 20
247.2382988281
 10
136.7865839844
 20
248.0716347656
 10
137.0131796875
 20
248.6966367188
 10
137.2892324219
 20
249.1133046875
 10
137.6147636719
 20
249.3216386719
 10
137.8022792969
 20
249.3216386719
 10
138.0392304688
 20
249.1133046875
 10
138.1381660156
 20
248.6966367188
 10
138.0990859375
 20
248.0716347656
 10
138.0547851563
 20
247.8633007813
 10
136.7422832031
 20
247.8633007813
  0
LWPOLYLINE
  5
36A
100
AcDbEntity
  8
0
100
AcDbPolyline
 62
2
  6
CONTINUOUS
 90
4
 70
0
 43
0.25
 10
143.1460234375
 20
249.3216386719
 10
142.4374902344
 20
245.9882949219
 10
144.27103125
 20
249.3216386719
 10
143.5624980469
 20
245.9882949219
  0
LWPOLYLINE
  5
36B
100
AcDbEntity
  8
0
100
AcDbPolyline
 62
2
  6
CONTINUOUS
 90
10
 70
0
 43
0.25
 10
146.0131777344
 20
248.6966367188
 10
146.1954941406
 20
249.1133046875
 10
146.4272675781
 20
249.3216386719
 10
146.8022773438
 20
249.3216386719
 10
146.9454921875
 20
249.1133046875
 10
146.9506699219
 20
248.6966367188
 10
146.906390625
 20
248.4883027344
 10
146.7240742188
 20
248.0716347656
 10
146.4923007813
 20
247.8633007813
 10
146.2110488281
 20
247.8633007813
  0
LWPOLYLINE
  5
36C
100
AcDbEntity
  8
0
100
AcDbPolyline
 62
2
  6
CONTINUOUS
 90
12
 70
0
 43
0.25
 10
145.5208847656
 20
246.8216308594
 10
145.5260625
 20
246.4049628906
 10
145.5755410156
 20
246.1966289063
 10
145.7187558594
 20
245.9882949219
 10
146.0937441406
 20
245.9882949219
 10
146.3255390625
 20
246.1966289063
 10
146.4635546875
 20
246.4049628906
 10
146.6458710938
 20
246.8216308594
 10
146.690171875
 20
247.0299648438
 10
146.6849726563
 20
247.4466328125
 10
146.635515625
 20
247.6549667969
 10
146.4923007813
 20
247.8633007813
  0
LWPOLYLINE
  5
36D
100
AcDbEntity
  8
0
100
AcDbPolyline
 62
2
  6
CONTINUOUS
 90
4
 70
0
 43
0.25
 10
147.9296484375
 20
245.3632929688
 10
148.0625078125
 20
245.9882949219
 10
149.7499980469
 20
245.9882949219
 10
149.6171601563
 20
245.3632929688
  0
LWPOLYLINE
  5
36E
100
AcDbEntity
  8
0
100
AcDbPolyline
 62
2
  6
CONTINUOUS
 90
7
 70
0
 43
0.25
 10
148.2500019531
 20
245.9882949219
 10
148.4323183594
 20
246.4049628906
 10
148.6146347656
 20
246.8216308594
 10
148.9297890625
 20
247.8633007813
 10
149.239765625
 20
249.3216386719
 10
150.271015625
 20
249.3216386719
 10
149.5625039063
 20
245.9882949219
  0
LWPOLYLINE
  5
36F
100
AcDbEntity
  8
0
100
AcDbPolyline
 62
2
  6
CONTINUOUS
 90
18
 70
0
 43
0.25
 10
152.877671875
 20
247.0299648438
 10
152.6953554688
 20
246.613296875
 10
152.41928125
 20
246.1966289063
 10
152.09375
 20
245.9882949219
 10
151.9062558594
 20
245.9882949219
 10
151.6692832031
 20
246.1966289063
 10
151.5703476563
 20
246.613296875
 10
151.6094492188
 20
247.2382988281
 10
151.7865664063
 20
248.0716347656
 10
152.0131835938
 20
248.6966367188
 10
152.2892363281
 20
249.1133046875
 10
152.6147675781
 20
249.3216386719
 10
152.8022617188
 20
249.3216386719
 10
153.039234375
 20
249.1133046875
 10
153.1381699219
 20
248.6966367188
 10
153.0990683594
 20
248.0716347656
 10
153.0547890625
 20
247.8633007813
 10
151.7422871094
 20
247.8633007813
  0
LWPOLYLINE
  5
370
100
AcDbEntity
  8
0
100
AcDbPolyline
 62
2
  6
CONTINUOUS
 90
7
 70
0
 43
0.25
 10
154.2500078125
 20
245.9882949219
 10
154.48178125
 20
246.1966289063
 10
154.6198183594
 20
246.4049628906
 10
154.6640976563
 20
246.613296875
 10
155.2397714844
 20
249.3216386719
 10
156.3647792969
 20
249.3216386719
 10
155.6562460938
 20
245.9882949219
  0
LWPOLYLINE
  5
371
100
AcDbEntity
  8
0
100
AcDbPolyline
 62
2
  6
CONTINUOUS
 90
4
 70
0
 43
0.25
 10
158.1460273438
 20
249.3216386719
 10
157.4374941406
 20
245.9882949219
 10
159.2710136719
 20
249.3216386719
 10
158.5625019531
 20
245.9882949219
  0
LWPOLYLINE
  5
372
100
AcDbEntity
  8
0
100
AcDbPolyline
 62
2
  6
CONTINUOUS
 90
9
 70
0
 43
0.25
 10
161.4687578125
 20
245.9882949219
 10
162.1772695313
 20
249.3216386719
 10
161.3335136719
 20
249.3216386719
 10
161.1017402344
 20
249.1133046875
 10
160.9194238281
 20
248.6966367188
 10
160.8308652344
 20
248.27996875
 10
160.8360429688
 20
247.8633007813
 10
160.9792578125
 20
247.6549667969
 10
161.8230136719
 20
247.6549667969
  0
LWPOLYLINE
  5
373
100
AcDbEntity
  8
0
100
AcDbPolyline
 62
2
  6
CONTINUOUS
 90
4
 70
0
 43
0.25
 10
160.2499921875
 20
245.9882949219
 10
160.8906992188
 20
247.2382988281
 10
161.0287363281
 20
247.4466328125
 10
161.2605097656
 20
247.6549667969
  0
LWPOLYLINE
  5
374
100
AcDbEntity
  8
0
100
AcDbPolyline
 62
2
  6
CONTINUOUS
 90
2
 70
0
 43
0.25
 10
120.5
 20
245.7647770257
 10
162.5
 20
245.7647770257
  0
LWPOLYLINE
  5
375
100
AcDbEntity
  8
0
100
AcDbPolyline
 62
2
  6
CONTINUOUS
 90
17
 70
0
 43
0.25
 10
176.3546796875
 20
230.8999902344
 10
176.068765625
 20
231.275
 10
175.9656621094
 20
231.6500097656
 10
175.8625585938
 20
232.0249980469
 10
175.942265625
 20
232.4000078125
 10
176.2047832031
 20
232.7749960938
 10
176.4673222656
 20
233.1500058594
 10
176.9126503906
 20
233.5249941406
 10
177.2782714844
 20
233.5249941406
 10
177.5641855469
 20
233.1500058594
 10
177.6672890625
 20
232.7749960938
 10
177.7703925781
 20
232.4000078125
 10
177.6906855469
 20
232.0249980469
 10
177.4281679688
 20
231.6500097656
 10
177.1656503906
 20
231.275
 10
176.7203222656
 20
230.8999902344
 10
176.3546796875
 20
230.8999902344
  0
LWPOLYLINE
  5
376
100
AcDbEntity
  8
0
100
AcDbPolyline
 62
2
  6
CONTINUOUS
 90
12
 70
0
 43
0.25
 10
176.9126503906
 20
233.5249941406
 10
176.6267363281
 20
233.9000039063
 10
176.5236328125
 20
234.2749921875
 10
176.6033398438
 20
234.6500019531
 10
176.8658574219
 20
235.0249902344
 10
177.3111855469
 20
235.4
 10
177.6768066406
 20
235.4
 10
177.9627421875
 20
235.0249902344
 10
178.0658457031
 20
234.6500019531
 10
177.9861386719
 20
234.2749921875
 10
177.7235996094
 20
233.9000039063
 10
177.2782714844
 20
233.5249941406
  0
LWPOLYLINE
  5
377
100
AcDbEntity
  8
0
100
AcDbPolyline
 62
2
  6
CONTINUOUS
 90
13
 70
0
 43
0.25
 10
179.5283300781
 20
234.6500019531
 10
179.7908476563
 20
235.0249902344
 10
180.2361972656
 20
235.4
 10
180.6018183594
 20
235.4
 10
180.8877324219
 20
235.0249902344
 10
180.9908359375
 20
234.6500019531
 10
180.831421875
 20
233.9000039063
 10
180.5689042969
 20
233.5249941406
 10
180.1235546875
 20
233.1500058594
 10
179.6782265625
 20
232.7749960938
 10
179.1531914063
 20
232.0249980469
 10
178.7312597656
 20
230.8999902344
 10
180.1937441406
 20
230.8999902344
  0
LWPOLYLINE
  5
378
100
AcDbEntity
  8
0
100
AcDbPolyline
 62
2
  6
CONTINUOUS
 90
2
 70
0
 43
0.25
 10
112.5267285156
 20
234.4664824219
 10
111.8890722656
 20
231.4664902344
  0
LWPOLYLINE
  5
379
100
AcDbEntity
  8
0
100
AcDbPolyline
 62
2
  6
CONTINUOUS
 90
7
 70
0
 43
0.25
 10
112.2344765625
 20
233.0914824219
 10
112.4407265625
 20
233.0914824219
 10
112.57040625
 20
233.2164785156
 10
112.9626464844
 20
234.0914941406
 10
113.0673398438
 20
234.3414863281
 10
113.1970410156
 20
234.4664824219
 10
113.2486035156
 20
234.4664824219
  0
LWPOLYLINE
  5
37A
100
AcDbEntity
  8
0
100
AcDbPolyline
 62
2
  6
CONTINUOUS
 90
4
 70
0
 43
0.25
 10
112.4407265625
 20
233.0914824219
 10
112.4657128906
 20
232.9664863281
 10
112.5156855469
 20
232.7164941406
 10
112.6109472656
 20
231.4664902344
  0
LWPOLYLINE
  5
37B
100
AcDbEntity
  8
0
100
AcDbPolyline
 62
2
  6
CONTINUOUS
 90
17
 70
0
 43
0.25
 10
113.8047480469
 20
232.7164941406
 10
113.9360390625
 20
233.0914824219
 10
114.0922949219
 20
233.3414960938
 10
114.2735585938
 20
233.4664921875
 10
114.3766835938
 20
233.4664921875
 10
114.5047949219
 20
233.3414960938
 10
114.5547890625
 20
233.0914824219
 10
114.5266230469
 20
232.7164941406
 10
114.4203613281
 20
232.2164882813
 10
114.2890917969
 20
231.8414785156
 10
114.1328144531
 20
231.5914863281
 10
113.9515722656
 20
231.4664902344
 10
113.8484472656
 20
231.4664902344
 10
113.7203144531
 20
231.5914863281
 10
113.6703417969
 20
231.8414785156
 10
113.6984863281
 20
232.2164882813
 10
113.8047480469
 20
232.7164941406
  0
LWPOLYLINE
  5
37C
100
AcDbEntity
  8
0
100
AcDbPolyline
 62
2
  6
CONTINUOUS
 90
7
 70
0
 43
0.25
 10
115.1375097656
 20
231.4664902344
 10
115.2671894531
 20
231.5914863281
 10
115.345328125
 20
231.7164824219
 10
115.3719042969
 20
231.8414785156
 10
115.7173085938
 20
233.4664921875
 10
116.3360585938
 20
233.4664921875
 10
115.9109472656
 20
231.4664902344
  0
LWPOLYLINE
  5
37D
100
AcDbEntity
  8
0
100
AcDbPolyline
 62
2
  6
CONTINUOUS
 90
11
 70
0
 43
0.25
 10
117.3157460938
 20
233.4664921875
 10
116.8906347656
 20
231.4664902344
 10
117.3546972656
 20
231.4664902344
 10
117.4843769531
 20
231.5914863281
 10
117.562515625
 20
231.7164824219
 10
117.6672089844
 20
231.9664960938
 10
117.6937851563
 20
232.0914921875
 10
117.6953535156
 20
232.341484375
 10
117.6703671875
 20
232.4664804688
 10
117.5938183594
 20
232.5914980469
 10
117.1297558594
 20
232.5914980469
  0
LWPOLYLINE
  5
37E
100
AcDbEntity
  8
0
100
AcDbPolyline
 62
2
  6
CONTINUOUS
 90
4
 70
0
 43
0.25
 10
118.9141835938
 20
233.4664921875
 10
118.4890722656
 20
231.4664902344
 10
119.2109472656
 20
231.4664902344
 10
119.13121875
 20
231.0914804688
  0
LWPOLYLINE
  5
37F
100
AcDbEntity
  8
0
100
AcDbPolyline
 62
2
  6
CONTINUOUS
 90
2
 70
0
 43
0.25
 10
119.1078222656
 20
231.4664902344
 10
119.5329335938
 20
233.4664921875
  0
LWPOLYLINE
  5
380
100
AcDbEntity
  8
0
100
AcDbPolyline
 62
2
  6
CONTINUOUS
 90
17
 70
0
 43
0.25
 10
120.4047480469
 20
232.7164941406
 10
120.5360390625
 20
233.0914824219
 10
120.6922949219
 20
233.3414960938
 10
120.8735585938
 20
233.4664921875
 10
120.9766835938
 20
233.4664921875
 10
121.1047949219
 20
233.3414960938
 10
121.1547890625
 20
233.0914824219
 10
121.1266230469
 20
232.7164941406
 10
121.0203613281
 20
232.2164882813
 10
120.8890917969
 20
231.8414785156
 10
120.7328144531
 20
231.5914863281
 10
120.5515722656
 20
231.4664902344
 10
120.4484472656
 20
231.4664902344
 10
120.3203144531
 20
231.5914863281
 10
120.2703417969
 20
231.8414785156
 10
120.2984863281
 20
232.2164882813
 10
120.4047480469
 20
232.7164941406
  0
LWPOLYLINE
  5
381
100
AcDbEntity
  8
0
100
AcDbPolyline
 62
2
  6
CONTINUOUS
 90
7
 70
0
 43
0.25
 10
123.2530820313
 20
230.5914960938
 10
123.2780683594
 20
230.4664785156
 10
123.3296308594
 20
230.4664785156
 10
123.4593320313
 20
230.5914960938
 10
123.5374492188
 20
230.7164921875
 10
123.7468574219
 20
231.2164980469
 10
124.5344960938
 20
233.4664921875
  0
LWPOLYLINE
  5
382
100
AcDbEntity
  8
0
100
AcDbPolyline
 62
2
  6
CONTINUOUS
 90
2
 70
0
 43
0.25
 10
123.8126210938
 20
233.4664921875
 10
123.7468574219
 20
231.2164980469
  0
LWPOLYLINE
  5
383
100
AcDbEntity
  8
0
100
AcDbPolyline
 62
2
  6
CONTINUOUS
 90
4
 70
0
 43
0.25
 10
124.9859472656
 20
231.4664902344
 10
125.4110585938
 20
233.4664921875
 10
126.0298085938
 20
233.4664921875
 10
125.6046972656
 20
231.4664902344
  0
LWPOLYLINE
  5
384
100
AcDbEntity
  8
0
100
AcDbPolyline
 62
2
  6
CONTINUOUS
 90
7
 70
0
 43
0.25
 10
126.6875097656
 20
231.4664902344
 10
126.8171894531
 20
231.5914863281
 10
126.895328125
 20
231.7164824219
 10
126.9219042969
 20
231.8414785156
 10
127.2673085938
 20
233.4664921875
 10
127.8860585938
 20
233.4664921875
 10
127.4609472656
 20
231.4664902344
  0
LWPOLYLINE
  5
385
100
AcDbEntity
  8
0
100
AcDbPolyline
 62
2
  6
CONTINUOUS
 90
17
 70
0
 43
0.25
 10
128.6547480469
 20
232.7164941406
 10
128.7860390625
 20
233.0914824219
 10
128.9422949219
 20
233.3414960938
 10
129.1235585938
 20
233.4664921875
 10
129.2266835938
 20
233.4664921875
 10
129.3547949219
 20
233.3414960938
 10
129.4047890625
 20
233.0914824219
 10
129.3766230469
 20
232.7164941406
 10
129.2703613281
 20
232.2164882813
 10
129.1390917969
 20
231.8414785156
 10
128.9828144531
 20
231.5914863281
 10
128.8015722656
 20
231.4664902344
 10
128.6984472656
 20
231.4664902344
 10
128.5703144531
 20
231.5914863281
 10
128.5203417969
 20
231.8414785156
 10
128.5484863281
 20
232.2164882813
 10
128.6547480469
 20
232.7164941406
  0
LWPOLYLINE
  5
386
100
AcDbEntity
  8
0
100
AcDbPolyline
 62
2
  6
CONTINUOUS
 90
2
 70
0
 43
0.25
 10
130.4641835938
 20
233.4664921875
 10
131.1860585938
 20
233.4664921875
  0
LWPOLYLINE
  5
387
100
AcDbEntity
  8
0
100
AcDbPolyline
 62
2
  6
CONTINUOUS
 90
2
 70
0
 43
0.25
 10
130.8251210938
 20
233.4664921875
 10
130.4000097656
 20
231.4664902344
  0
LWPOLYLINE
  5
388
100
AcDbEntity
  8
0
100
AcDbPolyline
 62
2
  6
CONTINUOUS
 90
2
 70
0
 43
0.25
 10
132.1141835938
 20
233.4664921875
 10
131.6890722656
 20
231.4664902344
  0
LWPOLYLINE
  5
389
100
AcDbEntity
  8
0
100
AcDbPolyline
 62
2
  6
CONTINUOUS
 90
2
 70
0
 43
0.25
 10
131.9281933594
 20
232.5914980469
 10
132.5469433594
 20
232.5914980469
  0
LWPOLYLINE
  5
38A
100
AcDbEntity
  8
0
100
AcDbPolyline
 62
2
  6
CONTINUOUS
 90
2
 70
0
 43
0.25
 10
132.7329335938
 20
233.4664921875
 10
132.3078222656
 20
231.4664902344
  0
LWPOLYLINE
  5
38B
100
AcDbEntity
  8
0
100
AcDbPolyline
 62
2
  6
CONTINUOUS
 90
4
 70
0
 43
0.25
 10
133.8157460938
 20
233.4664921875
 10
133.3906347656
 20
231.4664902344
 10
134.4344960938
 20
233.4664921875
 10
134.0093847656
 20
231.4664902344
  0
LWPOLYLINE
  5
38C
100
AcDbEntity
  8
0
100
AcDbPolyline
 62
2
  6
CONTINUOUS
 90
2
 70
0
 43
0.25
 10
135.4141835938
 20
233.4664921875
 10
136.1360585938
 20
233.4664921875
  0
LWPOLYLINE
  5
38D
100
AcDbEntity
  8
0
100
AcDbPolyline
 62
2
  6
CONTINUOUS
 90
2
 70
0
 43
0.25
 10
135.7751210938
 20
233.4664921875
 10
135.3500097656
 20
231.4664902344
  0
LWPOLYLINE
  5
38E
100
AcDbEntity
  8
0
100
AcDbPolyline
 62
2
  6
CONTINUOUS
 90
18
 70
0
 43
0.25
 10
137.4937851563
 20
232.0914921875
 10
137.3890917969
 20
231.8414785156
 10
137.2328144531
 20
231.5914863281
 10
137.0515722656
 20
231.4664902344
 10
136.9484472656
 20
231.4664902344
 10
136.8203144531
 20
231.5914863281
 10
136.7703417969
 20
231.8414785156
 10
136.7984863281
 20
232.2164882813
 10
136.9047480469
 20
232.7164941406
 10
137.0360390625
 20
233.0914824219
 10
137.1922949219
 20
233.3414960938
 10
137.3735585938
 20
233.4664921875
 10
137.4766835938
 20
233.4664921875
 10
137.6047949219
 20
233.3414960938
 10
137.6547890625
 20
233.0914824219
 10
137.6266230469
 20
232.7164941406
 10
137.6000683594
 20
232.5914980469
 10
136.8781933594
 20
232.5914980469
  0
LWPOLYLINE
  5
38F
100
AcDbEntity
  8
0
100
AcDbPolyline
 62
2
  6
CONTINUOUS
 90
7
 70
0
 43
0.25
 10
138.2375097656
 20
231.4664902344
 10
138.3671894531
 20
231.5914863281
 10
138.445328125
 20
231.7164824219
 10
138.4719042969
 20
231.8414785156
 10
138.8173085938
 20
233.4664921875
 10
139.4360585938
 20
233.4664921875
 10
139.0109472656
 20
231.4664902344
  0
LWPOLYLINE
  5
390
100
AcDbEntity
  8
0
100
AcDbPolyline
 62
2
  6
CONTINUOUS
 90
11
 70
0
 43
0.25
 10
140.4157460938
 20
233.4664921875
 10
139.9906347656
 20
231.4664902344
 10
140.4546972656
 20
231.4664902344
 10
140.5843769531
 20
231.5914863281
 10
140.662515625
 20
231.7164824219
 10
140.7672089844
 20
231.9664960938
 10
140.7937851563
 20
232.0914921875
 10
140.7953535156
 20
232.341484375
 10
140.7703671875
 20
232.4664804688
 10
140.6938183594
 20
232.5914980469
 10
140.2297558594
 20
232.5914980469
  0
LWPOLYLINE
  5
391
100
AcDbEntity
  8
0
100
AcDbPolyline
 62
2
  6
CONTINUOUS
 90
2
 70
0
 43
0.25
 10
142.0141835938
 20
233.4664921875
 10
141.5890722656
 20
231.4664902344
  0
LWPOLYLINE
  5
392
100
AcDbEntity
  8
0
100
AcDbPolyline
 62
2
  6
CONTINUOUS
 90
2
 70
0
 43
0.25
 10
141.8281933594
 20
232.5914980469
 10
142.4469433594
 20
232.5914980469
  0
LWPOLYLINE
  5
393
100
AcDbEntity
  8
0
100
AcDbPolyline
 62
2
  6
CONTINUOUS
 90
2
 70
0
 43
0.25
 10
142.6329335938
 20
233.4664921875
 10
142.2078222656
 20
231.4664902344
  0
LWPOLYLINE
  5
394
100
AcDbEntity
  8
0
100
AcDbPolyline
 62
2
  6
CONTINUOUS
 90
17
 70
0
 43
0.25
 10
143.5047480469
 20
232.7164941406
 10
143.6360390625
 20
233.0914824219
 10
143.7922949219
 20
233.3414960938
 10
143.9735585938
 20
233.4664921875
 10
144.0766835938
 20
233.4664921875
 10
144.2047949219
 20
233.3414960938
 10
144.2547890625
 20
233.0914824219
 10
144.2266230469
 20
232.7164941406
 10
144.1203613281
 20
232.2164882813
 10
143.9890917969
 20
231.8414785156
 10
143.8328144531
 20
231.5914863281
 10
143.6515722656
 20
231.4664902344
 10
143.5484472656
 20
231.4664902344
 10
143.4203144531
 20
231.5914863281
 10
143.3703417969
 20
231.8414785156
 10
143.3984863281
 20
232.2164882813
 10
143.5047480469
 20
232.7164941406
  0
LWPOLYLINE
  5
395
100
AcDbEntity
  8
0
100
AcDbPolyline
 62
2
  6
CONTINUOUS
 90
18
 70
0
 43
0.25
 10
145.7437851563
 20
232.0914921875
 10
145.6390917969
 20
231.8414785156
 10
145.4828144531
 20
231.5914863281
 10
145.3015722656
 20
231.4664902344
 10
145.1984472656
 20
231.4664902344
 10
145.0703144531
 20
231.5914863281
 10
145.0203417969
 20
231.8414785156
 10
145.0484863281
 20
232.2164882813
 10
145.1547480469
 20
232.7164941406
 10
145.2860390625
 20
233.0914824219
 10
145.4422949219
 20
233.3414960938
 10
145.6235585938
 20
233.4664921875
 10
145.7266835938
 20
233.4664921875
 10
145.8547949219
 20
233.3414960938
 10
145.9047890625
 20
233.0914824219
 10
145.8766230469
 20
232.7164941406
 10
145.8500683594
 20
232.5914980469
 10
145.1281933594
 20
232.5914980469
  0
LWPOLYLINE
  5
396
100
AcDbEntity
  8
0
100
AcDbPolyline
 62
2
  6
CONTINUOUS
 90
3
 70
0
 43
0.25
 10
148.1890722656
 20
231.4664902344
 10
148.8267285156
 20
234.4664824219
 10
149.5486035156
 20
234.4664824219
  0
LWPOLYLINE
  5
397
100
AcDbEntity
  8
0
100
AcDbPolyline
 62
2
  6
CONTINUOUS
 90
25
 70
0
 43
0.25
 10
150.0829199219
 20
233.3414960938
 10
149.9235058594
 20
232.5914980469
 10
149.8953613281
 20
232.2164882813
 10
149.8937714844
 20
231.9664960938
 10
149.943765625
 20
231.7164824219
 10
150.0203144531
 20
231.5914863281
 10
150.1484472656
 20
231.4664902344
 10
150.3031347656
 20
231.4664902344
 10
150.4843769531
 20
231.5914863281
 10
150.614078125
 20
231.7164824219
 10
150.7703339844
 20
231.9664960938
 10
150.8750488281
 20
232.2164882813
 10
151.0063183594
 20
232.5914980469
 10
151.1657324219
 20
233.3414960938
 10
151.1938769531
 20
233.716484375
 10
151.1954453125
 20
233.9664980469
 10
151.1454726563
 20
234.2164902344
 10
151.0689023438
 20
234.3414863281
 10
150.9407910156
 20
234.4664824219
 10
150.7861035156
 20
234.4664824219
 10
150.6048398438
 20
234.3414863281
 10
150.4751601563
 20
234.2164902344
 10
150.3188828125
 20
233.9664980469
 10
150.2141894531
 20
233.716484375
 10
150.0829199219
 20
233.3414960938
  0
LWPOLYLINE
  5
398
100
AcDbEntity
  8
0
100
AcDbPolyline
 62
2
  6
CONTINUOUS
 90
22
 70
0
 43
0.25
 10
152.8438769531
 20
233.716484375
 10
152.8454453125
 20
233.9664980469
 10
152.7954726563
 20
234.2164902344
 10
152.7189023438
 20
234.3414863281
 10
152.5907910156
 20
234.4664824219
 10
152.4361035156
 20
234.4664824219
 10
152.2548398438
 20
234.3414863281
 10
152.1251601563
 20
234.2164902344
 10
151.9688828125
 20
233.9664980469
 10
151.8641894531
 20
233.716484375
 10
151.7329199219
 20
233.3414960938
 10
151.5735058594
 20
232.5914980469
 10
151.5453613281
 20
232.2164882813
 10
151.5437714844
 20
231.9664960938
 10
151.593765625
 20
231.7164824219
 10
151.6703144531
 20
231.5914863281
 10
151.7984472656
 20
231.4664902344
 10
151.9531347656
 20
231.4664902344
 10
152.1343769531
 20
231.5914863281
 10
152.264078125
 20
231.7164824219
 10
152.4203339844
 20
231.9664960938
 10
152.5516035156
 20
232.341484375
  0
LWPOLYLINE
  5
399
100
AcDbEntity
  8
0
100
AcDbPolyline
 62
2
  6
CONTINUOUS
 90
2
 70
0
 43
0.25
 10
153.6220410156
 20
234.4664824219
 10
154.6532910156
 20
234.4664824219
  0
LWPOLYLINE
  5
39A
100
AcDbEntity
  8
0
100
AcDbPolyline
 62
2
  6
CONTINUOUS
 90
2
 70
0
 43
0.25
 10
154.1376660156
 20
234.4664824219
 10
153.5000097656
 20
231.4664902344
  0
LWPOLYLINE
  5
39B
100
AcDbEntity
  8
0
100
AcDbPolyline
 62
2
  6
CONTINUOUS
 90
17
 70
0
 43
0.25
 10
157.6376210938
 20
233.4664921875
 10
157.4282128906
 20
232.9664863281
 10
157.0656855469
 20
232.7164941406
 10
156.8094628906
 20
232.9664863281
 10
156.8126210938
 20
233.4664921875
 10
157.0220078125
 20
233.9664980469
 10
157.1782851563
 20
234.2164902344
 10
157.4376660156
 20
234.4664824219
 10
157.5907851563
 20
234.2164902344
 10
157.6407578125
 20
233.9664980469
 10
157.6376210938
 20
233.4664921875
 10
157.4250546875
 20
232.4664804688
 10
157.2156464844
 20
231.9664960938
 10
157.059390625
 20
231.7164824219
 10
156.8000097656
 20
231.4664902344
 10
156.646890625
 20
231.7164824219
 10
156.5968964844
 20
231.9664960938
  0
LWPOLYLINE
  5
39C
100
AcDbEntity
  8
0
100
AcDbPolyline
 62
2
  6
CONTINUOUS
 90
17
 70
0
 43
0.25
 10
158.3468847656
 20
231.4664902344
 10
158.193765625
 20
231.7164824219
 10
158.1437714844
 20
231.9664960938
 10
158.0937988281
 20
232.2164882813
 10
158.1469296875
 20
232.4664804688
 10
158.3031855469
 20
232.7164941406
 10
158.4594628906
 20
232.9664863281
 10
158.71884375
 20
233.2164785156
 10
158.92509375
 20
233.2164785156
 10
159.0782128906
 20
232.9664863281
 10
159.1281855469
 20
232.7164941406
 10
159.1781796875
 20
232.4664804688
 10
159.1250488281
 20
232.2164882813
 10
158.9687714844
 20
231.9664960938
 10
158.812515625
 20
231.7164824219
 10
158.5531347656
 20
231.4664902344
 10
158.3468847656
 20
231.4664902344
  0
LWPOLYLINE
  5
39D
100
AcDbEntity
  8
0
100
AcDbPolyline
 62
2
  6
CONTINUOUS
 90
12
 70
0
 43
0.25
 10
158.71884375
 20
233.2164785156
 10
158.5657460938
 20
233.4664921875
 10
158.5157519531
 20
233.716484375
 10
158.5688828125
 20
233.9664980469
 10
158.7251601563
 20
234.2164902344
 10
158.9845410156
 20
234.4664824219
 10
159.1907910156
 20
234.4664824219
 10
159.3439101563
 20
234.2164902344
 10
159.3938828125
 20
233.9664980469
 10
159.3407519531
 20
233.716484375
 10
159.1844960938
 20
233.4664921875
 10
158.92509375
 20
233.2164785156
  0
LWPOLYLINE
  5
39E
100
AcDbEntity
  8
0
100
AcDbPolyline
 62
2
  6
CONTINUOUS
 90
18
 70
0
 43
0.25
 10
160.3751601563
 20
234.2164902344
 10
160.6345410156
 20
234.4664824219
 10
160.8407910156
 20
234.4664824219
 10
160.9939101563
 20
234.2164902344
 10
161.0438828125
 20
233.9664980469
 10
160.9907519531
 20
233.716484375
 10
160.8344960938
 20
233.4664921875
 10
160.57509375
 20
233.2164785156
 10
160.7282128906
 20
232.9664863281
 10
160.7781855469
 20
232.7164941406
 10
160.8281796875
 20
232.4664804688
 10
160.7750488281
 20
232.2164882813
 10
160.6187714844
 20
231.9664960938
 10
160.462515625
 20
231.7164824219
 10
160.2031347656
 20
231.4664902344
 10
159.9968847656
 20
231.4664902344
 10
159.843765625
 20
231.7164824219
 10
159.7937714844
 20
231.9664960938
  0
LWPOLYLINE
  5
39F
100
AcDbEntity
  8
0
100
AcDbPolyline
 62
2
  6
CONTINUOUS
 90
2
 70
0
 43
0.25
 10
160.36884375
 20
233.2164785156
 10
160.57509375
 20
233.2164785156
  0
LWPOLYLINE
  5
3A0
100
AcDbEntity
  8
0
100
AcDbPolyline
 62
2
  6
CONTINUOUS
 90
18
 70
0
 43
0.25
 10
162.0251601563
 20
234.2164902344
 10
162.2845410156
 20
234.4664824219
 10
162.4907910156
 20
234.4664824219
 10
162.6439101563
 20
234.2164902344
 10
162.6938828125
 20
233.9664980469
 10
162.6407519531
 20
233.716484375
 10
162.4844960938
 20
233.4664921875
 10
162.22509375
 20
233.2164785156
 10
162.3782128906
 20
232.9664863281
 10
162.4281855469
 20
232.7164941406
 10
162.4781796875
 20
232.4664804688
 10
162.4250488281
 20
232.2164882813
 10
162.2687714844
 20
231.9664960938
 10
162.112515625
 20
231.7164824219
 10
161.8531347656
 20
231.4664902344
 10
161.6468847656
 20
231.4664902344
 10
161.493765625
 20
231.7164824219
 10
161.4437714844
 20
231.9664960938
  0
LWPOLYLINE
  5
3A1
100
AcDbEntity
  8
0
100
AcDbPolyline
 62
2
  6
CONTINUOUS
 90
2
 70
0
 43
0.25
 10
162.01884375
 20
233.2164785156
 10
162.22509375
 20
233.2164785156
  0
LWPOLYLINE
  5
3A2
100
AcDbEntity
  8
0
100
AcDbPolyline
 62
2
  6
CONTINUOUS
 90
2
 70
0
 43
0.25
 10
163.4094628906
 20
232.9664863281
 10
164.0282128906
 20
232.9664863281
  0
LWPOLYLINE
  5
3A3
100
AcDbEntity
  8
0
100
AcDbPolyline
 62
2
  6
CONTINUOUS
 90
6
 70
0
 43
0.25
 10
165.0500097656
 20
231.4664902344
 10
165.4188105469
 20
232.7164941406
 10
165.6813710938
 20
233.4664921875
 10
165.8907578125
 20
233.9664980469
 10
166.1001660156
 20
234.4664824219
 10
165.2751660156
 20
234.4664824219
  0
LWPOLYLINE
  5
3A4
100
AcDbEntity
  8
0
100
AcDbPolyline
 62
2
  6
CONTINUOUS
 90
18
 70
0
 43
0.25
 10
166.9751601563
 20
234.2164902344
 10
167.2345410156
 20
234.4664824219
 10
167.4407910156
 20
234.4664824219
 10
167.5939101563
 20
234.2164902344
 10
167.6438828125
 20
233.9664980469
 10
167.5907519531
 20
233.716484375
 10
167.4344960938
 20
233.4664921875
 10
167.17509375
 20
233.2164785156
 10
167.3282128906
 20
232.9664863281
 10
167.3781855469
 20
232.7164941406
 10
167.4281796875
 20
232.4664804688
 10
167.3750488281
 20
232.2164882813
 10
167.2187714844
 20
231.9664960938
 10
167.062515625
 20
231.7164824219
 10
166.8031347656
 20
231.4664902344
 10
166.5968847656
 20
231.4664902344
 10
166.443765625
 20
231.7164824219
 10
166.3937714844
 20
231.9664960938
  0
LWPOLYLINE
  5
3A5
100
AcDbEntity
  8
0
100
AcDbPolyline
 62
2
  6
CONTINUOUS
 90
2
 70
0
 43
0.25
 10
166.96884375
 20
233.2164785156
 10
167.17509375
 20
233.2164785156
  0
LWPOLYLINE
  5
3A6
100
AcDbEntity
  8
0
100
AcDbPolyline
 62
2
  6
CONTINUOUS
 90
13
 70
0
 43
0.25
 10
43.1231523438
 20
234.6108144531
 10
43.4148457031
 20
235.0274824219
 10
43.9096630859
 20
235.4441503906
 10
44.3159111328
 20
235.4441503906
 10
44.6335898438
 20
235.0274824219
 10
44.7481552734
 20
234.6108144531
 10
44.5710166016
 20
233.7774785156
 10
44.2793339844
 20
233.3608105469
 10
43.7845166016
 20
232.9441425781
 10
43.2896992188
 20
232.5274746094
 10
42.7063232422
 20
231.6941386719
 10
42.2375019531
 20
230.44415625
 10
43.8625048828
 20
230.44415625
  0
LWPOLYLINE
  5
3A7
100
AcDbEntity
  8
0
100
AcDbPolyline
 62
2
  6
CONTINUOUS
 90
2
 70
0
 43
0.25
 10
47.3627822266
 20
235.4441503906
 10
46.3000039063
 20
230.44415625
  0
LWPOLYLINE
  5
3A8
100
AcDbEntity
  8
0
100
AcDbPolyline
 62
2
  6
CONTINUOUS
 90
14
 70
0
 43
0.25
 10
51.4252841797
 20
235.4441503906
 10
50.2065292969
 20
235.4441503906
 10
49.5605800781
 20
233.3608105469
 10
50.0553974609
 20
233.7774785156
 10
50.4616455078
 20
233.7774785156
 10
50.7793349609
 20
233.3608105469
 10
50.8938896484
 20
232.9441425781
 10
50.9198857422
 20
232.1108066406
 10
50.5396337891
 20
231.2774921875
 10
50.2479404297
 20
230.8608242188
 10
49.7531230469
 20
230.44415625
 10
49.346875
 20
230.44415625
 10
49.0291855469
 20
230.8608242188
 10
48.9146308594
 20
231.2774921875
  0
LWPOLYLINE
  5
3A9
100
AcDbEntity
  8
0
100
AcDbPolyline
 62
2
  6
CONTINUOUS
 90
2
 70
0
 43
0.25
 10
52.7220166016
 20
232.9441425781
 10
53.9407714844
 20
232.9441425781
  0
LWPOLYLINE
  5
3AA
100
AcDbEntity
  8
0
100
AcDbPolyline
 62
2
  6
CONTINUOUS
 90
13
 70
0
 43
0.25
 10
56.1231542969
 20
234.6108144531
 10
56.4148476563
 20
235.0274824219
 10
56.9096542969
 20
235.4441503906
 10
57.3159130859
 20
235.4441503906
 10
57.6335917969
 20
235.0274824219
 10
57.7481572266
 20
234.6108144531
 10
57.5710185547
 20
233.7774785156
 10
57.2793359375
 20
233.3608105469
 10
56.7845185547
 20
232.9441425781
 10
56.2897011719
 20
232.5274746094
 10
55.7063251953
 20
231.6941386719
 10
55.2375039063
 20
230.44415625
 10
56.8624960938
 20
230.44415625
  0
LWPOLYLINE
  5
3AB
100
AcDbEntity
  8
0
100
AcDbPolyline
 62
2
  6
CONTINUOUS
 90
13
 70
0
 43
0.25
 10
59.3731494141
 20
234.6108144531
 10
59.6648427734
 20
235.0274824219
 10
60.1596601563
 20
235.4441503906
 10
60.5659082031
 20
235.4441503906
 10
60.8835976563
 20
235.0274824219
 10
60.9981523438
 20
234.6108144531
 10
60.8210244141
 20
233.7774785156
 10
60.5293310547
 20
233.3608105469
 10
60.0345136719
 20
232.9441425781
 10
59.5396962891
 20
232.5274746094
 10
58.9563203125
 20
231.6941386719
 10
58.4874990234
 20
230.44415625
 10
60.1125019531
 20
230.44415625
  0
LWPOLYLINE
  5
3AC
100
AcDbEntity
  8
0
100
AcDbPolyline
 62
2
  6
CONTINUOUS
 90
14
 70
0
 43
0.25
 10
64.4252861328
 20
235.4441503906
 10
63.20653125
 20
235.4441503906
 10
62.5605820313
 20
233.3608105469
 10
63.0553994141
 20
233.7774785156
 10
63.4616474609
 20
233.7774785156
 10
63.7793369141
 20
233.3608105469
 10
63.8938916016
 20
232.9441425781
 10
63.9198876953
 20
232.1108066406
 10
63.5396357422
 20
231.2774921875
 10
63.2479423828
 20
230.8608242188
 10
62.753125
 20
230.44415625
 10
62.3468769531
 20
230.44415625
 10
62.0291875
 20
230.8608242188
 10
61.9146328125
 20
231.2774921875
  0
LWPOLYLINE
  5
3AD
100
AcDbEntity
  8
0
100
AcDbPolyline
 62
2
  6
CONTINUOUS
 90
2
 70
0
 43
0.25
 10
65.7220185547
 20
232.9441425781
 10
66.9407626953
 20
232.9441425781
  0
LWPOLYLINE
  5
3AE
100
AcDbEntity
  8
0
100
AcDbPolyline
 62
2
  6
CONTINUOUS
 90
14
 70
0
 43
0.25
 10
70.9252871094
 20
235.4441503906
 10
69.7065322266
 20
235.4441503906
 10
69.0605830078
 20
233.3608105469
 10
69.5554003906
 20
233.7774785156
 10
69.9616484375
 20
233.7774785156
 10
70.2793271484
 20
233.3608105469
 10
70.3938925781
 20
232.9441425781
 10
70.4198886719
 20
232.1108066406
 10
70.0396259766
 20
231.2774921875
 10
69.7479433594
 20
230.8608242188
 10
69.2531259766
 20
230.44415625
 10
68.8468779297
 20
230.44415625
 10
68.5291884766
 20
230.8608242188
 10
68.4146337891
 20
231.2774921875
  0
LWPOLYLINE
  5
3AF
100
AcDbEntity
  8
0
100
AcDbPolyline
 62
2
  6
CONTINUOUS
 90
17
 70
0
 43
0.25
 10
72.0968730469
 20
230.44415625
 10
71.7791943359
 20
230.8608242188
 10
71.6646289063
 20
231.2774921875
 10
71.5500742188
 20
231.6941386719
 10
71.6386328125
 20
232.1108066406
 10
71.9303261719
 20
232.5274746094
 10
72.2220195313
 20
232.9441425781
 10
72.7168369141
 20
233.3608105469
 10
73.1230849609
 20
233.3608105469
 10
73.4407636719
 20
232.9441425781
 10
73.5553291016
 20
232.5274746094
 10
73.6698837891
 20
232.1108066406
 10
73.5813251953
 20
231.6941386719
 10
73.2896318359
 20
231.2774921875
 10
72.9979384766
 20
230.8608242188
 10
72.5031210938
 20
230.44415625
 10
72.0968730469
 20
230.44415625
  0
LWPOLYLINE
  5
3B0
100
AcDbEntity
  8
0
100
AcDbPolyline
 62
2
  6
CONTINUOUS
 90
12
 70
0
 43
0.25
 10
72.7168369141
 20
233.3608105469
 10
72.3991474609
 20
233.7774785156
 10
72.2845820313
 20
234.1941464844
 10
72.3731513672
 20
234.6108144531
 10
72.6648447266
 20
235.0274824219
 10
73.1596621094
 20
235.4441503906
 10
73.5659101563
 20
235.4441503906
 10
73.8835888672
 20
235.0274824219
 10
73.9981542969
 20
234.6108144531
 10
73.9095849609
 20
234.1941464844
 10
73.6178916016
 20
233.7774785156
 10
73.1230849609
 20
233.3608105469
  0
LWPOLYLINE
  5
3B1
100
AcDbEntity
  8
0
100
AcDbPolyline
 62
2
  6
CONTINUOUS
 90
2
 70
0
 43
0.25
 10
35.4940078125
 20
234.9994667969
 10
34.5375019531
 20
230.4994570313
  0
LWPOLYLINE
  5
3B2
100
AcDbEntity
  8
0
100
AcDbPolyline
 62
2
  6
CONTINUOUS
 90
18
 70
0
 43
0.25
 10
37.790859375
 20
234.6244570313
 10
38.2361875
 20
234.9994667969
 10
38.6018193359
 20
234.9994667969
 10
38.8877333984
 20
234.6244570313
 10
38.9908369141
 20
234.24946875
 10
38.9111298828
 20
233.8744589844
 10
38.6486123047
 20
233.4994707031
 10
38.2032734375
 20
233.1244609375
 10
38.4891875
 20
232.7494726563
 10
38.5922910156
 20
232.3744628906
 10
38.6953945313
 20
231.9994746094
 10
38.6156875
 20
231.6244648438
 10
38.3531699219
 20
231.2494765625
 10
38.0906416016
 20
230.8744667969
 10
37.6453134766
 20
230.4994570313
 10
37.2796923828
 20
230.4994570313
 10
36.9937675781
 20
230.8744667969
 10
36.8906640625
 20
231.2494765625
  0
LWPOLYLINE
  5
3B3
100
AcDbEntity
  8
0
100
AcDbPolyline
 62
2
  6
CONTINUOUS
 90
2
 70
0
 43
0.25
 10
37.8376523438
 20
233.1244609375
 10
38.2032734375
 20
233.1244609375
  0
LINE
  5
3B4
100
AcDbEntity
  8
0
100
AcDbLine
 62
7
  6
CONTINUOUS
 10
0.0
 20
0.0
 11
210.0
 21
0.0
  0
LINE
  5
3B5
100
AcDbEntity
  8
0
100
AcDbLine
 62
7
  6
CONTINUOUS
 10
0.0
 20
0.0
 11
0.0
 21
297.0
  0
LINE
  5
3B6
100
AcDbEntity
  8
0
100
AcDbLine
 62
7
  6
CONTINUOUS
 10
20.0
 20
5.0
 11
20.0
 21
292.0
  0
LINE
  5
3B7
100
AcDbEntity
  8
0
100
AcDbLine
 62
7
  6
CONTINUOUS
 10
205.0
 20
292.0
 11
205.0
 21
5.0
  0
LINE
  5
3B8
100
AcDbEntity
  8
0
100
AcDbLine
 62
7
  6
CONTINUOUS
 10
210.0
 20
0.0
 11
210.0
 21
297.0
  0
LINE
  5
3B9
100
AcDbEntity
  8
0
100
AcDbLine
 62
7
  6
CONTINUOUS
 10
20.0
 20
292.0
 11
205.0
 21
292.0
  0
LINE
  5
3BA
100
AcDbEntity
  8
0
100
AcDbLine
 62
7
  6
CONTINUOUS
 10
0.0
 20
297.0
 11
210.0
 21
297.0
  0
LWPOLYLINE
  5
3BB
100
AcDbEntity
  8
0
100
AcDbPolyline
 62
2
  6
CONTINUOUS
 90
2
 70
0
 43
0.2499999924
 10
188.1038398438
 20
2.1508977966
 10
188.8388417969
 20
2.1508977966
  0
LWPOLYLINE
  5
3BC
100
AcDbEntity
  8
0
100
AcDbPolyline
 62
2
  6
CONTINUOUS
 90
2
 70
0
 43
0.2499999924
 10
184.3209785156
 20
3.0842310791
 10
185.178484375
 20
3.0842310791
  0
LWPOLYLINE
  5
3BD
100
AcDbEntity
  8
0
100
AcDbPolyline
 62
2
  6
CONTINUOUS
 90
21
 70
0
 43
0.2499999924
 10
175.2574726563
 20
3.6675644226
 10
174.8899609375
 20
3.6675644226
 10
174.6814121094
 20
3.5508978882
 10
174.5341152344
 20
3.4342310181
 10
174.3620253906
 20
3.2008976135
 10
174.2263730469
 20
2.8508976746
 10
174.1519941406
 20
2.5008977356
 10
174.1388457031
 20
2.1508977966
 10
174.2117421875
 20
1.9175643921
 10
174.309453125
 20
1.8008976898
 10
174.4683945313
 20
1.6842311554
 10
174.83590625
 20
1.6842311554
 10
175.0444550781
 20
1.8008976898
 10
175.1917519531
 20
1.9175643921
 10
175.3638417969
 20
2.1508977966
 10
175.4994941406
 20
2.5008977356
 10
175.5738730469
 20
2.8508976746
 10
175.5870214844
 20
3.2008976135
 10
175.514125
 20
3.4342310181
 10
175.4164140625
 20
3.5508978882
 10
175.2574726563
 20
3.6675644226
  0
LWPOLYLINE
  5
3BE
100
AcDbEntity
  8
0
100
AcDbPolyline
 62
2
  6
CONTINUOUS
 90
2
 70
0
 43
0.2499999924
 10
175.1481171875
 20
4.0175643616
 10
174.5529570313
 20
1.2175644302
  0
LWPOLYLINE
  5
3BF
100
AcDbEntity
  8
0
100
AcDbPolyline
 62
2
  6
CONTINUOUS
 90
2
 70
0
 43
0.2499999924
 10
178.3797324219
 20
3.0842310791
 10
177.7845722656
 20
0.2842311058
  0
LWPOLYLINE
  5
3C0
100
AcDbEntity
  8
0
100
AcDbPolyline
 62
2
  6
CONTINUOUS
 90
5
 70
0
 43
0.2499999924
 10
179.9429570313
 20
1.2175644302
 10
180.3397304688
 20
3.0842310791
 10
180.4577441406
 20
1.3342311325
 10
181.31971875
 20
3.0842310791
 10
180.9229667969
 20
1.2175644302
  0
LWPOLYLINE
  5
3C1
100
AcDbEntity
  8
0
100
AcDbPolyline
 62
2
  6
CONTINUOUS
 90
2
 70
0
 43
0.2499999924
 10
184.7497207031
 20
3.0842310791
 10
184.3529472656
 20
1.2175644302
  0
LWPOLYLINE
  5
3C2
100
AcDbEntity
  8
0
100
AcDbPolyline
 62
2
  6
CONTINUOUS
 90
4
 70
0
 43
0.2499999924
 10
190.600453125
 20
1.2175644302
 10
191.1956132813
 20
4.0175643616
 10
189.8917480469
 20
1.9175643921
 10
190.9942402344
 20
1.9175643921
  0
LWPOLYLINE
  5
3C3
100
AcDbEntity
  8
0
100
AcDbPolyline
 62
2
  6
CONTINUOUS
 90
17
 70
0
 43
0.2499999924
 10
176.3321855469
 20
2.3842310333
 10
176.4678378906
 20
2.7342311401
 10
176.6399277344
 20
2.9675645447
 10
176.8484765625
 20
3.0842310791
 10
176.9709804688
 20
3.0842310791
 10
177.129921875
 20
2.9675645447
 10
177.2028398438
 20
2.7342311401
 10
177.1896914063
 20
2.3842310333
 10
177.0904980469
 20
1.9175643921
 10
176.9548457031
 20
1.5675644531
 10
176.7827558594
 20
1.3342311325
 10
176.5742070313
 20
1.2175644302
 10
176.451703125
 20
1.2175644302
 10
176.2927617188
 20
1.3342311325
 10
176.21984375
 20
1.5675644531
 10
176.2329921875
 20
1.9175643921
 10
176.3321855469
 20
2.3842310333
  0
LWPOLYLINE
  5
3C4
100
AcDbEntity
  8
0
100
AcDbPolyline
 62
2
  6
CONTINUOUS
 90
3
 70
0
 43
0.2499999924
 10
187.6604667969
 20
1.2175644302
 10
188.868125
 20
4.0175643616
 10
188.8854628906
 20
1.2175644302
  0
LWPOLYLINE
  5
3C5
100
AcDbEntity
  8
0
100
AcDbPolyline
 62
2
  6
CONTINUOUS
 90
16
 70
0
 43
0.2499999924
 10
178.2557460938
 20
2.5008977356
 10
178.3665839844
 20
2.7342311401
 10
178.5386738281
 20
2.9675645447
 10
178.6859707031
 20
3.0842310791
 10
178.8697265625
 20
3.0842310791
 10
178.9674375
 20
2.9675645447
 10
179.0403339844
 20
2.7342311401
 10
179.0271855469
 20
2.3842310333
 10
178.9279921875
 20
1.9175643921
 10
178.7923613281
 20
1.5675644531
 10
178.62025
 20
1.3342311325
 10
178.472953125
 20
1.2175644302
 10
178.3504492188
 20
1.2175644302
 10
178.1915078125
 20
1.3342311325
 10
178.1186113281
 20
1.5675644531
 10
178.1069453125
 20
1.8008976898
  0
LWPOLYLINE
  5
3C6
100
AcDbEntity
  8
0
100
AcDbPolyline
 62
2
  6
CONTINUOUS
 90
10
 70
0
 43
0.2499999924
 10
182.2617871094
 20
2.6175644379
 10
182.372625
 20
2.8508976746
 10
182.4586699219
 20
2.9675645447
 10
182.6059882813
 20
3.0842310791
 10
182.9122265625
 20
3.0842310791
 10
183.0099375
 20
2.9675645447
 10
183.046375
 20
2.8508976746
 10
183.0580410156
 20
2.6175644379
 10
182.7852539063
 20
1.3342311325
 10
182.8217128906
 20
1.2175644302
  0
LWPOLYLINE
  5
3C7
100
AcDbEntity
  8
0
100
AcDbPolyline
 62
2
  6
CONTINUOUS
 90
14
 70
0
 43
0.2499999924
 10
183.0332480469
 20
2.5008977356
 10
182.9471816406
 20
2.3842310333
 10
182.6161503906
 20
2.2675644989
 10
182.3463496094
 20
2.1508977966
 10
182.1990527344
 20
2.0342310944
 10
182.1129863281
 20
1.9175643921
 10
182.0021484375
 20
1.6842311554
 10
181.9773554688
 20
1.5675644531
 10
181.989
 20
1.3342311325
 10
182.1479628906
 20
1.2175644302
 10
182.3316972656
 20
1.2175644302
 10
182.5402460938
 20
1.3342311325
 10
182.6875429688
 20
1.4508977509
 10
182.8596542969
 20
1.6842311554
  0
ENDSEC
  0
SECTION
  2
OBJECTS
  0
DICTIONARY
  5
C
100
AcDbDictionary
280
0
281
1
  3
ACAD_GROUP
350
D
  3
ACAD_MLINESTYLE
350
17
  3
ACAD_LAYOUT
350
1A
  3
ACAD_PLOTSETTINGS
350
19
  3
ACAD_PLOTSTYLENAME
350
E
  0
DICTIONARY
  5
D
102
{ACAD_REACTORS
330
C
102
}
100
AcDbDictionary
280
0
281
1
  0
ACDBDICTIONARYWDFLT
  5
E
102
{ACAD_REACTORS
330
C
102
}
100
AcDbDictionary
281
1
  3
Normal
350
F
100
AcDbDictionaryWithDefault
340
F
  0
DICTIONARY
  5
17
102
{ACAD_REACTORS
330
C
102
}
100
AcDbDictionary
280
0
281
1
  3
Standard
350
18
  0
DICTIONARY
  5
19
102
{ACAD_REACTORS
330
C
102
}
100
AcDbDictionary
281
1
  0
DICTIONARY
  5
1A
102
{ACAD_REACTORS
330
C
102
}
100
AcDbDictionary
281
1
  3
Model
350
3C8
  3
Layout1
350
3C9
  0
ACDBPLACEHOLDER
  5
F
102
{ACAD_REACTORS
330
E
102
}
  0
MLINESTYLE
  5
18
102
{ACAD_REACTORS
330
17
102
}
100
AcDbMlineStyle
  2
STANDARD
 70
0
  3

 62
256
 51
90.0
 52
90.0
 71
2
 49
0.5
 62
256
  6
BYLAYER
 49
-0.5
 62
256
  6
BYLAYER
  0
LAYOUT
  5
3C8
102
{ACAD_REACTORS
330
1A
102
}
100
AcDbPlotSettings
  1

  2
none_device
  4

  6

 40
0.0
 41
0.0
 42
0.0
 43
0.0
 44
210.0
 45
297.0
 46
0.0
 47
0.0
 48
0.0
 49
0.0
140
0.0
141
0.0
142
1.0
143
1.0
 70
1024
 72
1
 73
0
 74
0
  7

 75
0
147
1.0
148
0.0
149
0.0
100
AcDbLayout
  1
Model
 70
0
 71
0
 10
0.0
 20
0.0
 11
210.0
 21
297.0
 12
0.0
 22
0.0
 32
0.0
 14
0.0
 24
0.0
 34
0.0
 15
0.0
 25
0.0
 35
0.0
146
0.0
 13
0.0
 23
0.0
 33
0.0
 16
1.0
 26
0.0
 36
0.0
 17
0.0
 27
1.0
 37
0.0
 76
0
330
214
345
0
346
0
  0
LAYOUT
  5
3C9
102
{ACAD_REACTORS
330
1A
102
}
100
AcDbPlotSettings
  1

  2
none_device
  4

  6

 40
0.0
 41
0.0
 42
0.0
 43
0.0
 44
210.0
 45
297.0
 46
0.0
 47
0.0
 48
0.0
 49
0.0
140
0.0
141
0.0
142
1.0
143
1.0
 70
0
 72
1
 73
0
 74
0
  7

 75
0
147
1.0
148
0.0
149
0.0
100
AcDbLayout
  1
Layout1
 70
0
 71
1
 10
0.0
 20
0.0
 11
210.0
 21
297.0
 12
0.0
 22
0.0
 32
0.0
 14
0.0
 24
0.0
 34
0.0
 15
0.0
 25
0.0
 35
0.0
146
0.0
 13
0.0
 23
0.0
 33
0.0
 16
1.0
 26
0.0
 36
0.0
 17
0.0
 27
1.0
 37
0.0
 76
0
330
215
345
0
346
0
  0
ENDSEC
  0
EOF
